<svg width="15170" height="3550" viewBox="-5 -3545 15170 3550" xmlns="http://www.w3.org/2000/svg" xmlns:xlink="http://www.w3.org/1999/xlink"><defs><style type="text/css">.l3d0 {fill: #fef9e7; fill-opacity: 0.5; stroke-width: 10; stroke: #f1c40f; stroke-linecap: round; stroke-linejoin: round; stroke-opacity: 0.2;}.l25d0 {fill: #8e44ad; fill-opacity: 0.05; stroke-width: 10; stroke: #8e44ad; stroke-linecap: round; stroke-linejoin: round; stroke-opacity: 1;}.l26d0 {fill: #ccd1d1; fill-opacity: 0.05; stroke-width: 10; stroke: #ccd1d1; stroke-linecap: round; stroke-linejoin: round; stroke-opacity: 1;}.l6d0 {fill: #f5b7b1; fill-opacity: 1; stroke-width: 10; stroke: #e74c3c; stroke-linecap: round; stroke-linejoin: round; stroke-opacity: 1;}.l17d0 {fill: #2980b9; fill-opacity: 1; stroke-width: 0; stroke: #000000; stroke-linecap: round; stroke-linejoin: round; stroke-opacity: 0;}.l30d0 {fill: #27ae60; fill-opacity: 1; stroke-width: 0; stroke: #000000; stroke-linecap: round; stroke-linejoin: round; stroke-opacity: 0;}.l31d0 {fill: #85c1e9; fill-opacity: 0.6; stroke-width: 0; stroke: #000000; stroke-linecap: round; stroke-linejoin: round; stroke-opacity: 0;}.l51d0 {fill: #f39c12; fill-opacity: 1; stroke-width: 10; stroke: #f39c12; stroke-linecap: round; stroke-linejoin: round; stroke-opacity: 1;}.l32d0 {fill: #f7dc6f; fill-opacity: 0.6; stroke-width: 0; stroke: #000000; stroke-linecap: round; stroke-linejoin: round; stroke-opacity: 0;}.l52d0 {fill: #a04000; fill-opacity: 1; stroke-width: 10; stroke: #a04000; stroke-linecap: round; stroke-linejoin: round; stroke-opacity: 1;}.l33d0 {fill: #16a085; fill-opacity: 0.6; stroke-width: 0; stroke: #000000; stroke-linecap: round; stroke-linejoin: round; stroke-opacity: 0;}path {fill-rule: evenodd;}</style></defs><g transform="scale(1 -1)"><g id="NW"><g class="l3d0"><path d="M 7880,1900 L 7280,1900 L 6345,1900 L 6085,1900 L 5825,1900 L 5695,1900 L 5565,1900 L 5435,1900 L 5175,1900 L 4915,1900 L 3200,1900 L 2600,1900 L 0,1900 L 0,3540 L 2600,3540 L 3200,3540 L 7280,3540 L 7880,3540 L 9880,3540 L 10480,3540 L 15160,3540 L 15160,1900 L 13625,1900 L 13365,1900 L 13105,1900 L 12975,1900 L 12845,1900 L 12715,1900 L 12455,1900 L 12195,1900 L 10480,1900 L 9880,1900 Z" /></g></g><g id="PP"><g class="l25d0"><path d="M 7710,430 L 10050,430 L 10310,430 L 14990,430 L 14990,0 L 10310,0 L 10050,0 L 7710,0 L 7450,0 L 3030,0 L 2770,0 L 170,0 L 170,430 L 2770,430 L 3030,430 L 7450,430 Z" /><path d="M 8595,2940 L 8645,2940 L 8855,2940 L 8905,2940 L 9115,2940 L 9375,2940 L 9425,2940 L 9685,2940 L 9895,2940 L 10050,2940 L 10155,2940 L 10205,2940 L 10310,2940 L 10465,2940 L 10675,2940 L 10725,2940 L 10935,2940 L 10985,2940 L 11195,2940 L 11245,2940 L 11455,2940 L 11715,2940 L 11765,2940 L 12025,2940 L 12235,2940 L 12285,2940 L 12495,2940 L 12545,2940 L 12755,2940 L 12805,2940 L 13015,2940 L 13065,2940 L 13275,2940 L 13535,2940 L 13585,2940 L 13845,2940 L 14055,2940 L 14105,2940 L 14315,2940 L 14365,2940 L 14575,2940 L 14835,2940 L 14990,2940 L 14990,1685 L 10310,1685 L 10050,1685 L 7710,1685 L 7450,1685 L 3030,1685 L 2770,1685 L 170,1685 L 170,2940 L 325,2940 L 795,2940 L 845,2940 L 1105,2940 L 1315,2940 L 1365,2940 L 1575,2940 L 1625,2940 L 1835,2940 L 2095,2940 L 2145,2940 L 2405,2940 L 2615,2940 L 2770,2940 L 2875,2940 L 2925,2940 L 3030,2940 L 3185,2940 L 3395,2940 L 3445,2940 L 3655,2940 L 3705,2940 L 3915,2940 L 3965,2940 L 4175,2940 L 4435,2940 L 4485,2940 L 4745,2940 L 4955,2940 L 5005,2940 L 5215,2940 L 5265,2940 L 5475,2940 L 5525,2940 L 5735,2940 L 5785,2940 L 5995,2940 L 6255,2940 L 6305,2940 L 6565,2940 L 6775,2940 L 6825,2940 L 7035,2940 L 7085,2940 L 7295,2940 L 7450,2940 L 7555,2940 L 7605,2940 L 7710,2940 L 8075,2940 L 8125,2940 L 8385,2940 Z" /></g></g><g id="NP"><g class="l26d0"><path d="M 7710,3370 L 10050,3370 L 10310,3370 L 14990,3370 L 14990,2940 L 10310,2940 L 10050,2940 L 7710,2940 L 7450,2940 L 3030,2940 L 2770,2940 L 170,2940 L 170,3370 L 2770,3370 L 3030,3370 L 7450,3370 Z" /><path d="M 9375,430 L 9115,430 L 8905,430 L 8855,430 L 8645,430 L 8595,430 L 8385,430 L 8125,430 L 8075,430 L 7710,430 L 7605,430 L 7555,430 L 7450,430 L 7295,430 L 7085,430 L 7035,430 L 6825,430 L 6775,430 L 6565,430 L 6305,430 L 6255,430 L 5995,430 L 5785,430 L 5735,430 L 5525,430 L 5475,430 L 5265,430 L 5215,430 L 5005,430 L 4955,430 L 4745,430 L 4485,430 L 4435,430 L 4175,430 L 3965,430 L 3915,430 L 3705,430 L 3655,430 L 3445,430 L 3395,430 L 3185,430 L 3030,430 L 2925,430 L 2875,430 L 2770,430 L 2615,430 L 2405,430 L 2145,430 L 2095,430 L 1835,430 L 1625,430 L 1575,430 L 1365,430 L 1315,430 L 1105,430 L 845,430 L 795,430 L 325,430 L 170,430 L 170,1685 L 2770,1685 L 3030,1685 L 7450,1685 L 7710,1685 L 10050,1685 L 10310,1685 L 14990,1685 L 14990,430 L 14835,430 L 14575,430 L 14365,430 L 14315,430 L 14105,430 L 14055,430 L 13845,430 L 13585,430 L 13535,430 L 13275,430 L 13065,430 L 13015,430 L 12805,430 L 12755,430 L 12545,430 L 12495,430 L 12285,430 L 12235,430 L 12025,430 L 11765,430 L 11715,430 L 11455,430 L 11245,430 L 11195,430 L 10985,430 L 10935,430 L 10725,430 L 10675,430 L 10465,430 L 10310,430 L 10205,430 L 10155,430 L 10050,430 L 9895,430 L 9685,430 L 9425,430 Z" /></g></g><g id="OD"><g class="l6d0"><path d="M 7650,770 L 7650,1010 L 7735,1010 L 7810,1010 L 7870,1010 L 7945,1010 L 8030,1010 L 8030,770 L 7945,770 L 7870,770 L 7810,770 L 7735,770 Z" /><path d="M 9765,770 L 9690,770 L 9630,770 L 9555,770 L 9470,770 L 9470,1010 L 9555,1010 L 9630,1010 L 9690,1010 L 9765,1010 L 9815,1010 L 9890,1010 L 9950,1010 L 10025,1010 L 10110,1010 L 10110,770 L 10025,770 L 9950,770 L 9890,770 L 9815,770 Z" /><path d="M 8850,1010 L 8910,1010 L 8985,1010 L 9035,1010 L 9110,1010 L 9170,1010 L 9245,1010 L 9330,1010 L 9330,770 L 9245,770 L 9170,770 L 9110,770 L 9035,770 L 8985,770 L 8910,770 L 8850,770 L 8775,770 L 8725,770 L 8650,770 L 8590,770 L 8515,770 L 8465,770 L 8390,770 L 8330,770 L 8255,770 L 8170,770 L 8170,1010 L 8255,1010 L 8330,1010 L 8390,1010 L 8465,1010 L 8515,1010 L 8590,1010 L 8650,1010 L 8725,1010 L 8775,1010 Z" /><path d="M 7650,2360 L 7650,2600 L 7735,2600 L 7810,2600 L 7870,2600 L 7945,2600 L 8030,2600 L 8030,2360 L 7945,2360 L 7870,2360 L 7810,2360 L 7735,2360 Z" /><path d="M 9765,2360 L 9690,2360 L 9630,2360 L 9555,2360 L 9470,2360 L 9470,2600 L 9555,2600 L 9630,2600 L 9690,2600 L 9765,2600 L 9815,2600 L 9890,2600 L 9950,2600 L 10025,2600 L 10110,2600 L 10110,2360 L 10025,2360 L 9950,2360 L 9890,2360 L 9815,2360 Z" /><path d="M 8850,2600 L 8910,2600 L 8985,2600 L 9035,2600 L 9110,2600 L 9170,2600 L 9245,2600 L 9330,2600 L 9330,2360 L 9245,2360 L 9170,2360 L 9110,2360 L 9035,2360 L 8985,2360 L 8910,2360 L 8850,2360 L 8775,2360 L 8725,2360 L 8650,2360 L 8590,2360 L 8515,2360 L 8465,2360 L 8390,2360 L 8330,2360 L 8255,2360 L 8170,2360 L 8170,2600 L 8255,2600 L 8330,2600 L 8390,2600 L 8465,2600 L 8515,2600 L 8590,2600 L 8650,2600 L 8725,2600 L 8775,2600 Z" /><path d="M 14370,770 L 14310,770 L 14235,770 L 14185,770 L 14110,770 L 14050,770 L 13975,770 L 13975,1010 L 14050,1010 L 14110,1010 L 14185,1010 L 14235,1010 L 14310,1010 L 14370,1010 L 14445,1010 L 14495,1010 L 14570,1010 L 14630,1010 L 14705,1010 L 14790,1010 L 14790,770 L 14705,770 L 14630,770 L 14570,770 L 14495,770 L 14445,770 Z" /><path d="M 13974,1010 L 13974,770 L 13925,770 L 13850,770 L 13790,770 L 13715,770 L 13630,770 L 13630,1010 L 13715,1010 L 13790,1010 L 13850,1010 L 13925,1010 Z" /><path d="M 14370,2360 L 14310,2360 L 14235,2360 L 14185,2360 L 14110,2360 L 14050,2360 L 13975,2360 L 13975,2600 L 14050,2600 L 14110,2600 L 14185,2600 L 14235,2600 L 14310,2600 L 14370,2600 L 14445,2600 L 14495,2600 L 14570,2600 L 14630,2600 L 14705,2600 L 14790,2600 L 14790,2360 L 14705,2360 L 14630,2360 L 14570,2360 L 14495,2360 L 14445,2360 Z" /><path d="M 13630,2360 L 13630,2600 L 13715,2600 L 13790,2600 L 13850,2600 L 13925,2600 L 13974,2600 L 13974,2360 L 13925,2360 L 13850,2360 L 13790,2360 L 13715,2360 Z" /><path d="M 10855,2360 L 10805,2360 L 10730,2360 L 10670,2360 L 10595,2360 L 10545,2360 L 10470,2360 L 10410,2360 L 10335,2360 L 10250,2360 L 10250,2600 L 10335,2600 L 10410,2600 L 10470,2600 L 10545,2600 L 10595,2600 L 10670,2600 L 10730,2600 L 10805,2600 L 10855,2600 L 10930,2600 L 10990,2600 L 11065,2600 L 11115,2600 L 11190,2600 L 11250,2600 L 11325,2600 L 11375,2600 L 11450,2600 L 11510,2600 L 11585,2600 L 11670,2600 L 11670,2360 L 11585,2360 L 11510,2360 L 11450,2360 L 11375,2360 L 11325,2360 L 11250,2360 L 11190,2360 L 11115,2360 L 11065,2360 L 10990,2360 L 10930,2360 Z" /><path d="M 13270,1130 L 13330,1130 L 13405,1130 L 13490,1130 L 13490,770 L 13405,770 L 13330,770 L 13270,770 L 13195,770 L 13145,770 L 13070,770 L 13010,770 L 12935,770 L 12885,770 L 12810,770 L 12750,770 L 12675,770 L 12625,770 L 12550,770 L 12490,770 L 12415,770 L 12365,770 L 12290,770 L 12230,770 L 12155,770 L 12105,770 L 12030,770 L 11970,770 L 11895,770 L 11810,770 L 11810,1010 L 11895,1010 L 11970,1010 L 12030,1010 L 12105,1010 L 12155,1010 L 12230,1010 L 12290,1010 L 12365,1010 L 12365,1130 L 12415,1130 L 12490,1130 L 12550,1130 L 12625,1130 L 12675,1130 L 12750,1130 L 12810,1130 L 12885,1130 L 12935,1130 L 13010,1130 L 13070,1130 L 13145,1130 L 13195,1130 Z" /><path d="M 10805,1010 L 10805,1130 L 10855,1130 L 10930,1130 L 10990,1130 L 11065,1130 L 11115,1130 L 11190,1130 L 11250,1130 L 11325,1130 L 11375,1130 L 11450,1130 L 11510,1130 L 11585,1130 L 11670,1130 L 11670,770 L 11585,770 L 11510,770 L 11450,770 L 11375,770 L 11325,770 L 11250,770 L 11190,770 L 11115,770 L 11065,770 L 10990,770 L 10930,770 L 10855,770 L 10805,770 L 10730,770 L 10670,770 L 10595,770 L 10545,770 L 10470,770 L 10410,770 L 10335,770 L 10250,770 L 10250,1010 L 10335,1010 L 10410,1010 L 10470,1010 L 10545,1010 L 10595,1010 L 10670,1010 L 10730,1010 Z" /><path d="M 13270,2600 L 13330,2600 L 13405,2600 L 13490,2600 L 13490,2120 L 13405,2120 L 13330,2120 L 13270,2120 L 13195,2120 L 13145,2120 L 13070,2120 L 13010,2120 L 12935,2120 L 12885,2120 L 12810,2120 L 12750,2120 L 12675,2120 L 12625,2120 L 12550,2120 L 12490,2120 L 12415,2120 L 12365,2120 L 12365,2360 L 12290,2360 L 12230,2360 L 12155,2360 L 12105,2360 L 12030,2360 L 11970,2360 L 11895,2360 L 11810,2360 L 11810,2600 L 11895,2600 L 11970,2600 L 12030,2600 L 12105,2600 L 12155,2600 L 12230,2600 L 12290,2600 L 12365,2600 L 12415,2600 L 12490,2600 L 12550,2600 L 12625,2600 L 12675,2600 L 12750,2600 L 12810,2600 L 12885,2600 L 12935,2600 L 13010,2600 L 13070,2600 L 13145,2600 L 13195,2600 Z" /><path d="M 370,770 L 370,1010 L 455,1010 L 530,1010 L 590,1010 L 665,1010 L 750,1010 L 750,770 L 665,770 L 590,770 L 530,770 L 455,770 Z" /><path d="M 2485,770 L 2410,770 L 2350,770 L 2275,770 L 2190,770 L 2190,1010 L 2275,1010 L 2350,1010 L 2410,1010 L 2485,1010 L 2535,1010 L 2610,1010 L 2670,1010 L 2745,1010 L 2830,1010 L 2830,770 L 2745,770 L 2670,770 L 2610,770 L 2535,770 Z" /><path d="M 1570,1010 L 1630,1010 L 1705,1010 L 1755,1010 L 1830,1010 L 1890,1010 L 1965,1010 L 2050,1010 L 2050,770 L 1965,770 L 1890,770 L 1830,770 L 1755,770 L 1705,770 L 1630,770 L 1570,770 L 1495,770 L 1445,770 L 1370,770 L 1310,770 L 1235,770 L 1185,770 L 1110,770 L 1050,770 L 975,770 L 890,770 L 890,1010 L 975,1010 L 1050,1010 L 1110,1010 L 1185,1010 L 1235,1010 L 1310,1010 L 1370,1010 L 1445,1010 L 1495,1010 Z" /><path d="M 370,2360 L 370,2600 L 455,2600 L 530,2600 L 590,2600 L 665,2600 L 750,2600 L 750,2360 L 665,2360 L 590,2360 L 530,2360 L 455,2360 Z" /><path d="M 2485,2360 L 2410,2360 L 2350,2360 L 2275,2360 L 2190,2360 L 2190,2600 L 2275,2600 L 2350,2600 L 2410,2600 L 2485,2600 L 2535,2600 L 2610,2600 L 2670,2600 L 2745,2600 L 2830,2600 L 2830,2360 L 2745,2360 L 2670,2360 L 2610,2360 L 2535,2360 Z" /><path d="M 1570,2600 L 1630,2600 L 1705,2600 L 1755,2600 L 1830,2600 L 1890,2600 L 1965,2600 L 2050,2600 L 2050,2360 L 1965,2360 L 1890,2360 L 1830,2360 L 1755,2360 L 1705,2360 L 1630,2360 L 1570,2360 L 1495,2360 L 1445,2360 L 1370,2360 L 1310,2360 L 1235,2360 L 1185,2360 L 1110,2360 L 1050,2360 L 975,2360 L 890,2360 L 890,2600 L 975,2600 L 1050,2600 L 1110,2600 L 1185,2600 L 1235,2600 L 1310,2600 L 1370,2600 L 1445,2600 L 1495,2600 Z" /><path d="M 10180,300 L 14860,300 L 14860,130 L 10180,130 L 7580,130 L 2900,130 L 300,130 L 300,300 L 2900,300 L 7580,300 Z" /><path d="M 10180,3240 L 14860,3240 L 14860,3070 L 10180,3070 L 7580,3070 L 2900,3070 L 300,3070 L 300,3240 L 2900,3240 L 7580,3240 Z" /><path d="M 7090,770 L 7030,770 L 6955,770 L 6905,770 L 6830,770 L 6770,770 L 6695,770 L 6695,1010 L 6770,1010 L 6830,1010 L 6905,1010 L 6955,1010 L 7030,1010 L 7090,1010 L 7165,1010 L 7215,1010 L 7290,1010 L 7350,1010 L 7425,1010 L 7510,1010 L 7510,770 L 7425,770 L 7350,770 L 7290,770 L 7215,770 L 7165,770 Z" /><path d="M 6694,1010 L 6694,770 L 6645,770 L 6570,770 L 6510,770 L 6435,770 L 6350,770 L 6350,1010 L 6435,1010 L 6510,1010 L 6570,1010 L 6645,1010 Z" /><path d="M 7090,2360 L 7030,2360 L 6955,2360 L 6905,2360 L 6830,2360 L 6770,2360 L 6695,2360 L 6695,2600 L 6770,2600 L 6830,2600 L 6905,2600 L 6955,2600 L 7030,2600 L 7090,2600 L 7165,2600 L 7215,2600 L 7290,2600 L 7350,2600 L 7425,2600 L 7510,2600 L 7510,2360 L 7425,2360 L 7350,2360 L 7290,2360 L 7215,2360 L 7165,2360 Z" /><path d="M 6350,2360 L 6350,2600 L 6435,2600 L 6510,2600 L 6570,2600 L 6645,2600 L 6694,2600 L 6694,2360 L 6645,2360 L 6570,2360 L 6510,2360 L 6435,2360 Z" /><path d="M 3575,2360 L 3525,2360 L 3450,2360 L 3390,2360 L 3315,2360 L 3265,2360 L 3190,2360 L 3130,2360 L 3055,2360 L 2970,2360 L 2970,2600 L 3055,2600 L 3130,2600 L 3190,2600 L 3265,2600 L 3315,2600 L 3390,2600 L 3450,2600 L 3525,2600 L 3575,2600 L 3650,2600 L 3710,2600 L 3785,2600 L 3835,2600 L 3910,2600 L 3970,2600 L 4045,2600 L 4095,2600 L 4170,2600 L 4230,2600 L 4305,2600 L 4390,2600 L 4390,2360 L 4305,2360 L 4230,2360 L 4170,2360 L 4095,2360 L 4045,2360 L 3970,2360 L 3910,2360 L 3835,2360 L 3785,2360 L 3710,2360 L 3650,2360 Z" /><path d="M 5990,1130 L 6050,1130 L 6125,1130 L 6210,1130 L 6210,770 L 6125,770 L 6050,770 L 5990,770 L 5915,770 L 5865,770 L 5790,770 L 5730,770 L 5655,770 L 5605,770 L 5530,770 L 5470,770 L 5395,770 L 5345,770 L 5270,770 L 5210,770 L 5135,770 L 5085,770 L 5010,770 L 4950,770 L 4875,770 L 4825,770 L 4750,770 L 4690,770 L 4615,770 L 4530,770 L 4530,1010 L 4615,1010 L 4690,1010 L 4750,1010 L 4825,1010 L 4875,1010 L 4950,1010 L 5010,1010 L 5085,1010 L 5085,1130 L 5135,1130 L 5210,1130 L 5270,1130 L 5345,1130 L 5395,1130 L 5470,1130 L 5530,1130 L 5605,1130 L 5655,1130 L 5730,1130 L 5790,1130 L 5865,1130 L 5915,1130 Z" /><path d="M 3525,1010 L 3525,1130 L 3575,1130 L 3650,1130 L 3710,1130 L 3785,1130 L 3835,1130 L 3910,1130 L 3970,1130 L 4045,1130 L 4095,1130 L 4170,1130 L 4230,1130 L 4305,1130 L 4390,1130 L 4390,770 L 4305,770 L 4230,770 L 4170,770 L 4095,770 L 4045,770 L 3970,770 L 3910,770 L 3835,770 L 3785,770 L 3710,770 L 3650,770 L 3575,770 L 3525,770 L 3450,770 L 3390,770 L 3315,770 L 3265,770 L 3190,770 L 3130,770 L 3055,770 L 2970,770 L 2970,1010 L 3055,1010 L 3130,1010 L 3190,1010 L 3265,1010 L 3315,1010 L 3390,1010 L 3450,1010 Z" /><path d="M 5990,2600 L 6050,2600 L 6125,2600 L 6210,2600 L 6210,2120 L 6125,2120 L 6050,2120 L 5990,2120 L 5915,2120 L 5865,2120 L 5790,2120 L 5730,2120 L 5655,2120 L 5605,2120 L 5530,2120 L 5470,2120 L 5395,2120 L 5345,2120 L 5270,2120 L 5210,2120 L 5135,2120 L 5085,2120 L 5085,2360 L 5010,2360 L 4950,2360 L 4875,2360 L 4825,2360 L 4750,2360 L 4690,2360 L 4615,2360 L 4530,2360 L 4530,2600 L 4615,2600 L 4690,2600 L 4750,2600 L 4825,2600 L 4875,2600 L 4950,2600 L 5010,2600 L 5085,2600 L 5135,2600 L 5210,2600 L 5270,2600 L 5345,2600 L 5395,2600 L 5470,2600 L 5530,2600 L 5605,2600 L 5655,2600 L 5730,2600 L 5790,2600 L 5865,2600 L 5915,2600 Z" /></g></g><g id="PO"><g class="l17d0"><path d="M 9170,1010 L 9170,770 L 9170,630 L 9110,630 L 9110,770 L 9110,1010 L 9110,1150 L 9110,1315 L 9085,1315 L 9085,1485 L 9110,1485 L 9110,2220 L 9110,2360 L 9110,2600 L 9110,2740 L 9170,2740 L 9170,2600 L 9170,2360 L 9170,2220 L 9170,1485 L 9195,1485 L 9195,1315 L 9170,1315 L 9170,1150 Z" /><path d="M 7870,1030 L 7870,1010 L 7870,770 L 7870,630 L 7810,630 L 7810,770 L 7810,1010 L 7810,1030 L 7810,1150 L 7810,1315 L 7785,1315 L 7785,1485 L 7810,1485 L 7810,2220 L 7810,2360 L 7810,2600 L 7810,2740 L 7870,2740 L 7870,2600 L 7870,2360 L 7870,2220 L 7870,1485 L 7895,1485 L 7895,1315 L 7870,1315 L 7870,1150 Z" /><path d="M 8910,1010 L 8910,770 L 8910,630 L 8850,630 L 8850,770 L 8850,1010 L 8850,1150 L 8850,1885 L 8825,1885 L 8825,2055 L 8850,2055 L 8850,2220 L 8850,2360 L 8850,2600 L 8850,2740 L 8910,2740 L 8910,2600 L 8910,2360 L 8910,2220 L 8910,2055 L 8935,2055 L 8935,1885 L 8910,1885 L 8910,1150 Z" /><path d="M 8390,1010 L 8390,770 L 8390,630 L 8330,630 L 8330,770 L 8330,1010 L 8330,1150 L 8330,1885 L 8305,1885 L 8305,2055 L 8330,2055 L 8330,2220 L 8330,2360 L 8330,2600 L 8330,2740 L 8390,2740 L 8390,2600 L 8390,2360 L 8390,2220 L 8390,2055 L 8415,2055 L 8415,1885 L 8390,1885 L 8390,1150 Z" /><path d="M 9950,1010 L 9950,770 L 9950,630 L 9890,630 L 9890,770 L 9890,1010 L 9890,1150 L 9890,1505 L 9865,1505 L 9865,1675 L 9890,1675 L 9890,2220 L 9890,2360 L 9890,2600 L 9890,2740 L 9950,2740 L 9950,2600 L 9950,2360 L 9950,2220 L 9950,1675 L 9975,1675 L 9975,1505 L 9950,1505 L 9950,1150 Z" /><path d="M 9690,1150 L 9690,1010 L 9690,770 L 9690,630 L 9630,630 L 9630,770 L 9630,1010 L 9630,1150 L 9630,1695 L 9605,1695 L 9605,1865 L 9630,1865 L 9630,2220 L 9630,2360 L 9630,2600 L 9630,2740 L 9690,2740 L 9690,2600 L 9690,2360 L 9690,2220 L 9689,2220 L 9689,1865 L 9715,1865 L 9715,1695 L 9689,1695 L 9689,1150 Z" /><path d="M 8650,1010 L 8650,770 L 8650,630 L 8590,630 L 8590,770 L 8590,1010 L 8590,1150 L 8590,1695 L 8565,1695 L 8565,1865 L 8590,1865 L 8590,2220 L 8590,2360 L 8590,2600 L 8590,2740 L 8650,2740 L 8650,2600 L 8650,2360 L 8650,2220 L 8650,1865 L 8675,1865 L 8675,1695 L 8650,1695 L 8650,1150 Z" /><path d="M 10470,1010 L 10470,770 L 10470,630 L 10410,630 L 10410,770 L 10410,1010 L 10410,1150 L 10410,1505 L 10385,1505 L 10385,1675 L 10410,1675 L 10410,2220 L 10410,2360 L 10410,2600 L 10410,2740 L 10470,2740 L 10470,2600 L 10470,2360 L 10470,2220 L 10470,1675 L 10495,1675 L 10495,1505 L 10470,1505 L 10470,1150 Z" /><path d="M 12030,1010 L 12030,770 L 12030,630 L 11970,630 L 11970,770 L 11970,1010 L 11970,1150 L 11970,1400 L 11970,2110 L 11945,2110 L 11945,2280 L 11970,2280 L 11970,2360 L 11970,2600 L 11970,2740 L 12030,2740 L 12030,2600 L 12030,2360 L 12030,2280 L 12055,2280 L 12055,2110 L 12030,2110 L 12030,1400 L 12030,1150 Z" /><path d="M 10670,2360 L 10670,2600 L 10670,2740 L 10730,2740 L 10730,2600 L 10730,2360 L 10730,2220 L 10730,2055 L 10755,2055 L 10755,1885 L 10730,1885 L 10730,1150 L 10730,1010 L 10730,770 L 10730,630 L 10670,630 L 10670,770 L 10670,1010 L 10670,1150 L 10670,1885 L 10645,1885 L 10645,2055 L 10670,2055 L 10670,2220 Z" /><path d="M 10930,2360 L 10930,2600 L 10930,2740 L 10990,2740 L 10990,2600 L 10990,2360 L 10990,2220 L 10990,1865 L 11020,1865 L 11020,1695 L 10990,1695 L 10990,1270 L 10990,1130 L 10990,770 L 10990,630 L 10930,630 L 10930,770 L 10930,1130 L 10930,1270 L 10930,1695 L 10900,1695 L 10900,1865 L 10930,1865 L 10930,2220 Z" /><path d="M 12550,1130 L 12550,770 L 12550,630 L 12490,630 L 12490,770 L 12490,1130 L 12490,1270 L 12490,1315 L 12460,1315 L 12460,1485 L 12490,1485 L 12490,1980 L 12490,2120 L 12490,2600 L 12490,2740 L 12550,2740 L 12550,2600 L 12550,2120 L 12550,1980 L 12550,1485 L 12580,1485 L 12580,1315 L 12550,1315 L 12550,1270 Z" /><path d="M 12810,1270 L 12810,1130 L 12810,770 L 12810,630 L 12750,630 L 12750,770 L 12750,1130 L 12750,1270 L 12750,1695 L 12720,1695 L 12720,1865 L 12750,1865 L 12750,1980 L 12750,2120 L 12750,2600 L 12750,2740 L 12810,2740 L 12810,2600 L 12810,2120 L 12810,1980 L 12809,1980 L 12809,1865 L 12840,1865 L 12840,1695 L 12809,1695 L 12809,1270 Z" /><path d="M 12290,1150 L 12290,1010 L 12290,770 L 12290,630 L 12230,630 L 12230,770 L 12230,1010 L 12230,1150 L 12230,1695 L 12200,1695 L 12200,1865 L 12230,1865 L 12230,2220 L 12230,2360 L 12230,2600 L 12230,2740 L 12290,2740 L 12290,2600 L 12290,2360 L 12290,2220 L 12289,2220 L 12289,1865 L 12320,1865 L 12320,1695 L 12289,1695 L 12289,1150 Z" /><path d="M 11450,2360 L 11450,2600 L 11450,2740 L 11510,2740 L 11510,2600 L 11510,2360 L 11510,2220 L 11510,1865 L 11540,1865 L 11540,1695 L 11510,1695 L 11510,1270 L 11510,1130 L 11510,770 L 11510,630 L 11450,630 L 11450,770 L 11450,1130 L 11450,1270 L 11450,1695 L 11420,1695 L 11420,1865 L 11450,1865 L 11450,2220 Z" /><path d="M 11190,2360 L 11190,2600 L 11190,2740 L 11250,2740 L 11250,2600 L 11250,2360 L 11250,2220 L 11250,1485 L 11280,1485 L 11280,1315 L 11250,1315 L 11250,1270 L 11250,1130 L 11250,770 L 11250,630 L 11190,630 L 11190,770 L 11190,1130 L 11190,1270 L 11190,1315 L 11160,1315 L 11160,1485 L 11190,1485 L 11190,2220 Z" /><path d="M 13330,1270 L 13330,1130 L 13330,770 L 13330,630 L 13270,630 L 13270,770 L 13270,1130 L 13270,1270 L 13270,1505 L 13240,1505 L 13240,1675 L 13270,1675 L 13270,1980 L 13270,2120 L 13270,2600 L 13270,2740 L 13330,2740 L 13330,2600 L 13330,2120 L 13330,1980 L 13329,1980 L 13329,1675 L 13360,1675 L 13360,1505 L 13329,1505 L 13329,1270 Z" /><path d="M 14370,1010 L 14370,770 L 14370,630 L 14310,630 L 14310,770 L 14310,1010 L 14310,1150 L 14310,2110 L 14280,2110 L 14280,2280 L 14310,2280 L 14310,2360 L 14310,2600 L 14310,2740 L 14370,2740 L 14370,2600 L 14370,2360 L 14370,2280 L 14400,2280 L 14400,2110 L 14370,2110 L 14370,1150 Z" /><path d="M 13070,1130 L 13070,770 L 13070,630 L 13010,630 L 13010,770 L 13010,1130 L 13010,1270 L 13010,1885 L 12980,1885 L 12980,2055 L 13010,2055 L 13010,2120 L 13010,2600 L 13010,2740 L 13070,2740 L 13070,2600 L 13070,2120 L 13070,2055 L 13100,2055 L 13100,1885 L 13070,1885 L 13070,1270 Z" /><path d="M 14570,2220 L 14570,2360 L 14570,2600 L 14570,2740 L 14630,2740 L 14630,2600 L 14630,2360 L 14630,2220 L 14630,1865 L 14660,1865 L 14660,1695 L 14630,1695 L 14630,1150 L 14630,1010 L 14630,770 L 14630,630 L 14570,630 L 14570,770 L 14570,1010 L 14570,1150 L 14569,1150 L 14569,1695 L 14540,1695 L 14540,1865 L 14569,1865 L 14569,2220 Z" /><path d="M 14110,1010 L 14110,770 L 14110,630 L 14050,630 L 14050,770 L 14050,1010 L 14050,1150 L 14050,1505 L 14020,1505 L 14020,1675 L 14050,1675 L 14050,2220 L 14050,2360 L 14050,2600 L 14050,2740 L 14110,2740 L 14110,2600 L 14110,2360 L 14110,2220 L 14110,1675 L 14140,1675 L 14140,1505 L 14110,1505 L 14110,1150 Z" /><path d="M 13850,1150 L 13850,1010 L 13850,770 L 13850,630 L 13790,630 L 13790,770 L 13790,1010 L 13790,1150 L 13790,1885 L 13760,1885 L 13760,2055 L 13790,2055 L 13790,2220 L 13790,2360 L 13790,2600 L 13790,2740 L 13850,2740 L 13850,2600 L 13850,2360 L 13850,2220 L 13849,2220 L 13849,2055 L 13880,2055 L 13880,1885 L 13849,1885 L 13849,1150 Z" /><path d="M 1890,1010 L 1890,770 L 1890,630 L 1830,630 L 1830,770 L 1830,1010 L 1830,1150 L 1830,1315 L 1805,1315 L 1805,1485 L 1830,1485 L 1830,2220 L 1830,2360 L 1830,2600 L 1830,2740 L 1890,2740 L 1890,2600 L 1890,2360 L 1890,2220 L 1890,1485 L 1915,1485 L 1915,1315 L 1890,1315 L 1890,1150 Z" /><path d="M 590,1030 L 590,1010 L 590,770 L 590,630 L 530,630 L 530,770 L 530,1010 L 530,1030 L 530,1150 L 530,1315 L 505,1315 L 505,1485 L 530,1485 L 530,2220 L 530,2360 L 530,2600 L 530,2740 L 590,2740 L 590,2600 L 590,2360 L 590,2220 L 590,1485 L 615,1485 L 615,1315 L 590,1315 L 590,1150 Z" /><path d="M 1630,1010 L 1630,770 L 1630,630 L 1570,630 L 1570,770 L 1570,1010 L 1570,1150 L 1570,1885 L 1545,1885 L 1545,2055 L 1570,2055 L 1570,2220 L 1570,2360 L 1570,2600 L 1570,2740 L 1630,2740 L 1630,2600 L 1630,2360 L 1630,2220 L 1630,2055 L 1655,2055 L 1655,1885 L 1630,1885 L 1630,1150 Z" /><path d="M 1110,1010 L 1110,770 L 1110,630 L 1050,630 L 1050,770 L 1050,1010 L 1050,1150 L 1050,1885 L 1025,1885 L 1025,2055 L 1050,2055 L 1050,2220 L 1050,2360 L 1050,2600 L 1050,2740 L 1110,2740 L 1110,2600 L 1110,2360 L 1110,2220 L 1110,2055 L 1135,2055 L 1135,1885 L 1110,1885 L 1110,1150 Z" /><path d="M 2670,1010 L 2670,770 L 2670,630 L 2610,630 L 2610,770 L 2610,1010 L 2610,1150 L 2610,1505 L 2585,1505 L 2585,1675 L 2610,1675 L 2610,2220 L 2610,2360 L 2610,2600 L 2610,2740 L 2670,2740 L 2670,2600 L 2670,2360 L 2670,2220 L 2670,1675 L 2695,1675 L 2695,1505 L 2670,1505 L 2670,1150 Z" /><path d="M 2410,1150 L 2410,1010 L 2410,770 L 2410,630 L 2350,630 L 2350,770 L 2350,1010 L 2350,1150 L 2350,1695 L 2325,1695 L 2325,1865 L 2350,1865 L 2350,2220 L 2350,2360 L 2350,2600 L 2350,2740 L 2410,2740 L 2410,2600 L 2410,2360 L 2410,2220 L 2409,2220 L 2409,1865 L 2435,1865 L 2435,1695 L 2409,1695 L 2409,1150 Z" /><path d="M 1370,1010 L 1370,770 L 1370,630 L 1310,630 L 1310,770 L 1310,1010 L 1310,1150 L 1310,1695 L 1285,1695 L 1285,1865 L 1310,1865 L 1310,2220 L 1310,2360 L 1310,2600 L 1310,2740 L 1370,2740 L 1370,2600 L 1370,2360 L 1370,2220 L 1370,1865 L 1395,1865 L 1395,1695 L 1370,1695 L 1370,1150 Z" /><path d="M 3190,1010 L 3190,770 L 3190,630 L 3130,630 L 3130,770 L 3130,1010 L 3130,1150 L 3130,1505 L 3105,1505 L 3105,1675 L 3130,1675 L 3130,2220 L 3130,2360 L 3130,2600 L 3130,2740 L 3190,2740 L 3190,2600 L 3190,2360 L 3190,2220 L 3190,1675 L 3215,1675 L 3215,1505 L 3190,1505 L 3190,1150 Z" /><path d="M 4750,1010 L 4750,770 L 4750,630 L 4690,630 L 4690,770 L 4690,1010 L 4690,1150 L 4690,1400 L 4690,2110 L 4665,2110 L 4665,2280 L 4690,2280 L 4690,2360 L 4690,2600 L 4690,2740 L 4750,2740 L 4750,2600 L 4750,2360 L 4750,2280 L 4775,2280 L 4775,2110 L 4750,2110 L 4750,1400 L 4750,1150 Z" /><path d="M 3390,2360 L 3390,2600 L 3390,2740 L 3450,2740 L 3450,2600 L 3450,2360 L 3450,2220 L 3450,2055 L 3475,2055 L 3475,1885 L 3450,1885 L 3450,1150 L 3450,1010 L 3450,770 L 3450,630 L 3390,630 L 3390,770 L 3390,1010 L 3390,1150 L 3390,1885 L 3365,1885 L 3365,2055 L 3390,2055 L 3390,2220 Z" /><path d="M 3650,2360 L 3650,2600 L 3650,2740 L 3710,2740 L 3710,2600 L 3710,2360 L 3710,2220 L 3710,1865 L 3740,1865 L 3740,1695 L 3710,1695 L 3710,1270 L 3710,1130 L 3710,770 L 3710,630 L 3650,630 L 3650,770 L 3650,1130 L 3650,1270 L 3650,1695 L 3620,1695 L 3620,1865 L 3650,1865 L 3650,2220 Z" /><path d="M 5270,1130 L 5270,770 L 5270,630 L 5210,630 L 5210,770 L 5210,1130 L 5210,1270 L 5210,1315 L 5180,1315 L 5180,1485 L 5210,1485 L 5210,1980 L 5210,2120 L 5210,2600 L 5210,2740 L 5270,2740 L 5270,2600 L 5270,2120 L 5270,1980 L 5270,1485 L 5300,1485 L 5300,1315 L 5270,1315 L 5270,1270 Z" /><path d="M 5530,1270 L 5530,1130 L 5530,770 L 5530,630 L 5470,630 L 5470,770 L 5470,1130 L 5470,1270 L 5470,1695 L 5440,1695 L 5440,1865 L 5470,1865 L 5470,1980 L 5470,2120 L 5470,2600 L 5470,2740 L 5530,2740 L 5530,2600 L 5530,2120 L 5530,1980 L 5529,1980 L 5529,1865 L 5560,1865 L 5560,1695 L 5529,1695 L 5529,1270 Z" /><path d="M 5010,1150 L 5010,1010 L 5010,770 L 5010,630 L 4950,630 L 4950,770 L 4950,1010 L 4950,1150 L 4950,1695 L 4920,1695 L 4920,1865 L 4950,1865 L 4950,2220 L 4950,2360 L 4950,2600 L 4950,2740 L 5010,2740 L 5010,2600 L 5010,2360 L 5010,2220 L 5009,2220 L 5009,1865 L 5040,1865 L 5040,1695 L 5009,1695 L 5009,1150 Z" /><path d="M 4170,2360 L 4170,2600 L 4170,2740 L 4230,2740 L 4230,2600 L 4230,2360 L 4230,2220 L 4230,1865 L 4260,1865 L 4260,1695 L 4230,1695 L 4230,1270 L 4230,1130 L 4230,770 L 4230,630 L 4170,630 L 4170,770 L 4170,1130 L 4170,1270 L 4170,1695 L 4140,1695 L 4140,1865 L 4170,1865 L 4170,2220 Z" /><path d="M 3910,2360 L 3910,2600 L 3910,2740 L 3970,2740 L 3970,2600 L 3970,2360 L 3970,2220 L 3970,1485 L 4000,1485 L 4000,1315 L 3970,1315 L 3970,1270 L 3970,1130 L 3970,770 L 3970,630 L 3910,630 L 3910,770 L 3910,1130 L 3910,1270 L 3910,1315 L 3880,1315 L 3880,1485 L 3910,1485 L 3910,2220 Z" /><path d="M 6050,1270 L 6050,1130 L 6050,770 L 6050,630 L 5990,630 L 5990,770 L 5990,1130 L 5990,1270 L 5990,1505 L 5960,1505 L 5960,1675 L 5990,1675 L 5990,1980 L 5990,2120 L 5990,2600 L 5990,2740 L 6050,2740 L 6050,2600 L 6050,2120 L 6050,1980 L 6049,1980 L 6049,1675 L 6080,1675 L 6080,1505 L 6049,1505 L 6049,1270 Z" /><path d="M 7090,1010 L 7090,770 L 7090,630 L 7030,630 L 7030,770 L 7030,1010 L 7030,1150 L 7030,2110 L 7000,2110 L 7000,2280 L 7030,2280 L 7030,2360 L 7030,2600 L 7030,2740 L 7090,2740 L 7090,2600 L 7090,2360 L 7090,2280 L 7120,2280 L 7120,2110 L 7090,2110 L 7090,1150 Z" /><path d="M 5790,1130 L 5790,770 L 5790,630 L 5730,630 L 5730,770 L 5730,1130 L 5730,1270 L 5730,1885 L 5700,1885 L 5700,2055 L 5730,2055 L 5730,2120 L 5730,2600 L 5730,2740 L 5790,2740 L 5790,2600 L 5790,2120 L 5790,2055 L 5820,2055 L 5820,1885 L 5790,1885 L 5790,1270 Z" /><path d="M 7290,2220 L 7290,2360 L 7290,2600 L 7290,2740 L 7350,2740 L 7350,2600 L 7350,2360 L 7350,2220 L 7350,1865 L 7380,1865 L 7380,1695 L 7350,1695 L 7350,1150 L 7350,1010 L 7350,770 L 7350,630 L 7290,630 L 7290,770 L 7290,1010 L 7290,1150 L 7289,1150 L 7289,1695 L 7260,1695 L 7260,1865 L 7289,1865 L 7289,2220 Z" /><path d="M 6830,1010 L 6830,770 L 6830,630 L 6770,630 L 6770,770 L 6770,1010 L 6770,1150 L 6770,1505 L 6740,1505 L 6740,1675 L 6770,1675 L 6770,2220 L 6770,2360 L 6770,2600 L 6770,2740 L 6830,2740 L 6830,2600 L 6830,2360 L 6830,2220 L 6830,1675 L 6860,1675 L 6860,1505 L 6830,1505 L 6830,1150 Z" /><path d="M 6570,1150 L 6570,1010 L 6570,770 L 6570,630 L 6510,630 L 6510,770 L 6510,1010 L 6510,1150 L 6510,1885 L 6480,1885 L 6480,2055 L 6510,2055 L 6510,2220 L 6510,2360 L 6510,2600 L 6510,2740 L 6570,2740 L 6570,2600 L 6570,2360 L 6570,2220 L 6569,2220 L 6569,2055 L 6600,2055 L 6600,1885 L 6569,1885 L 6569,1150 Z" /></g></g><g id="CO"><g class="l30d0"><path d="M 8965,2435 L 9055,2435 L 9055,2525 L 8965,2525 Z" /><path d="M 8445,2435 L 8535,2435 L 8535,2525 L 8445,2525 Z" /><path d="M 10005,845 L 10095,845 L 10095,935 L 10005,935 Z" /><path d="M 9485,845 L 9575,845 L 9575,935 L 9485,935 Z" /><path d="M 9225,845 L 9315,845 L 9315,935 L 9225,935 Z" /><path d="M 8705,845 L 8795,845 L 8795,935 L 8705,935 Z" /><path d="M 8185,845 L 8275,845 L 8275,935 L 8185,935 Z" /><path d="M 7925,845 L 8015,845 L 8015,935 L 7925,935 Z" /><path d="M 7665,845 L 7755,845 L 7755,935 L 7665,935 Z" /><path d="M 7665,2435 L 7755,2435 L 7755,2525 L 7665,2525 Z" /><path d="M 7925,2435 L 8015,2435 L 8015,2525 L 7925,2525 Z" /><path d="M 8185,2435 L 8275,2435 L 8275,2525 L 8185,2525 Z" /><path d="M 8705,2435 L 8795,2435 L 8795,2525 L 8705,2525 Z" /><path d="M 9225,2435 L 9315,2435 L 9315,2525 L 9225,2525 Z" /><path d="M 9485,2435 L 9575,2435 L 9575,2525 L 9485,2525 Z" /><path d="M 10005,2435 L 10095,2435 L 10095,2525 L 10005,2525 Z" /><path d="M 9745,2435 L 9835,2435 L 9835,2525 L 9745,2525 Z" /><path d="M 7665,170 L 7755,170 L 7755,260 L 7665,260 Z" /><path d="M 7925,170 L 8015,170 L 8015,260 L 7925,260 Z" /><path d="M 8185,170 L 8275,170 L 8275,260 L 8185,260 Z" /><path d="M 8445,170 L 8535,170 L 8535,260 L 8445,260 Z" /><path d="M 8705,170 L 8795,170 L 8795,260 L 8705,260 Z" /><path d="M 8965,170 L 9055,170 L 9055,260 L 8965,260 Z" /><path d="M 9225,170 L 9315,170 L 9315,260 L 9225,260 Z" /><path d="M 9485,170 L 9575,170 L 9575,260 L 9485,260 Z" /><path d="M 10005,170 L 10095,170 L 10095,260 L 10005,260 Z" /><path d="M 9745,170 L 9835,170 L 9835,260 L 9745,260 Z" /><path d="M 7665,3110 L 7755,3110 L 7755,3200 L 7665,3200 Z" /><path d="M 7925,3110 L 8015,3110 L 8015,3200 L 7925,3200 Z" /><path d="M 8185,3110 L 8275,3110 L 8275,3200 L 8185,3200 Z" /><path d="M 8445,3110 L 8535,3110 L 8535,3200 L 8445,3200 Z" /><path d="M 8705,3110 L 8795,3110 L 8795,3200 L 8705,3200 Z" /><path d="M 8965,3110 L 9055,3110 L 9055,3200 L 8965,3200 Z" /><path d="M 9225,3110 L 9315,3110 L 9315,3200 L 9225,3200 Z" /><path d="M 9485,3110 L 9575,3110 L 9575,3200 L 9485,3200 Z" /><path d="M 10005,3110 L 10095,3110 L 10095,3200 L 10005,3200 Z" /><path d="M 9745,3110 L 9835,3110 L 9835,3200 L 9745,3200 Z" /><path d="M 9095,1355 L 9185,1355 L 9185,1445 L 9095,1445 Z" /><path d="M 7795,1355 L 7885,1355 L 7885,1445 L 7795,1445 Z" /><path d="M 8835,1925 L 8925,1925 L 8925,2015 L 8835,2015 Z" /><path d="M 8315,1925 L 8405,1925 L 8405,2015 L 8315,2015 Z" /><path d="M 9875,1545 L 9965,1545 L 9965,1635 L 9875,1635 Z" /><path d="M 9615,1735 L 9705,1735 L 9705,1825 L 9615,1825 Z" /><path d="M 8575,1735 L 8665,1735 L 8665,1825 L 8575,1825 Z" /><path d="M 13125,2480 L 13215,2480 L 13215,2570 L 13125,2570 Z" /><path d="M 12605,2480 L 12695,2480 L 12695,2570 L 12605,2570 Z" /><path d="M 14425,2435 L 14515,2435 L 14515,2525 L 14425,2525 Z" /><path d="M 14165,2435 L 14255,2435 L 14255,2525 L 14165,2525 Z" /><path d="M 13905,2435 L 13995,2435 L 13995,2525 L 13905,2525 Z" /><path d="M 12865,2150 L 12955,2150 L 12955,2240 L 12865,2240 Z" /><path d="M 12865,2480 L 12955,2480 L 12955,2570 L 12865,2570 Z" /><path d="M 14685,170 L 14775,170 L 14775,260 L 14685,260 Z" /><path d="M 14425,170 L 14515,170 L 14515,260 L 14425,260 Z" /><path d="M 14165,170 L 14255,170 L 14255,260 L 14165,260 Z" /><path d="M 13905,170 L 13995,170 L 13995,260 L 13905,260 Z" /><path d="M 13645,170 L 13735,170 L 13735,260 L 13645,260 Z" /><path d="M 13385,170 L 13475,170 L 13475,260 L 13385,260 Z" /><path d="M 13125,170 L 13215,170 L 13215,260 L 13125,260 Z" /><path d="M 12865,170 L 12955,170 L 12955,260 L 12865,260 Z" /><path d="M 12605,170 L 12695,170 L 12695,260 L 12605,260 Z" /><path d="M 12345,170 L 12435,170 L 12435,260 L 12345,260 Z" /><path d="M 12085,170 L 12175,170 L 12175,260 L 12085,260 Z" /><path d="M 11825,170 L 11915,170 L 11915,260 L 11825,260 Z" /><path d="M 11565,170 L 11655,170 L 11655,260 L 11565,260 Z" /><path d="M 11305,170 L 11395,170 L 11395,260 L 11305,260 Z" /><path d="M 11045,170 L 11135,170 L 11135,260 L 11045,260 Z" /><path d="M 10785,170 L 10875,170 L 10875,260 L 10785,260 Z" /><path d="M 10525,170 L 10615,170 L 10615,260 L 10525,260 Z" /><path d="M 10265,170 L 10355,170 L 10355,260 L 10265,260 Z" /><path d="M 14685,3110 L 14775,3110 L 14775,3200 L 14685,3200 Z" /><path d="M 10525,2435 L 10615,2435 L 10615,2525 L 10525,2525 Z" /><path d="M 11305,2435 L 11395,2435 L 11395,2525 L 11305,2525 Z" /><path d="M 11045,2435 L 11135,2435 L 11135,2525 L 11045,2525 Z" /><path d="M 10785,2435 L 10875,2435 L 10875,2525 L 10785,2525 Z" /><path d="M 11305,3110 L 11395,3110 L 11395,3200 L 11305,3200 Z" /><path d="M 10265,3110 L 10355,3110 L 10355,3200 L 10265,3200 Z" /><path d="M 10525,3110 L 10615,3110 L 10615,3200 L 10525,3200 Z" /><path d="M 10785,3110 L 10875,3110 L 10875,3200 L 10785,3200 Z" /><path d="M 11045,3110 L 11135,3110 L 11135,3200 L 11045,3200 Z" /><path d="M 14425,3110 L 14515,3110 L 14515,3200 L 14425,3200 Z" /><path d="M 13125,3110 L 13215,3110 L 13215,3200 L 13125,3200 Z" /><path d="M 13385,3110 L 13475,3110 L 13475,3200 L 13385,3200 Z" /><path d="M 13645,3110 L 13735,3110 L 13735,3200 L 13645,3200 Z" /><path d="M 13905,3110 L 13995,3110 L 13995,3200 L 13905,3200 Z" /><path d="M 14165,3110 L 14255,3110 L 14255,3200 L 14165,3200 Z" /><path d="M 12085,2435 L 12175,2435 L 12175,2525 L 12085,2525 Z" /><path d="M 12865,3110 L 12955,3110 L 12955,3200 L 12865,3200 Z" /><path d="M 11565,3110 L 11655,3110 L 11655,3200 L 11565,3200 Z" /><path d="M 11825,3110 L 11915,3110 L 11915,3200 L 11825,3200 Z" /><path d="M 12085,3110 L 12175,3110 L 12175,3200 L 12085,3200 Z" /><path d="M 12345,3110 L 12435,3110 L 12435,3200 L 12345,3200 Z" /><path d="M 12605,3110 L 12695,3110 L 12695,3200 L 12605,3200 Z" /><path d="M 14685,845 L 14775,845 L 14775,935 L 14685,935 Z" /><path d="M 13645,845 L 13735,845 L 13735,935 L 13645,935 Z" /><path d="M 13385,1010 L 13475,1010 L 13475,1100 L 13385,1100 Z" /><path d="M 13385,800 L 13475,800 L 13475,890 L 13385,890 Z" /><path d="M 12605,800 L 12695,800 L 12695,890 L 12605,890 Z" /><path d="M 12345,845 L 12435,845 L 12435,935 L 12345,935 Z" /><path d="M 11825,845 L 11915,845 L 11915,935 L 11825,935 Z" /><path d="M 11565,1010 L 11655,1010 L 11655,1100 L 11565,1100 Z" /><path d="M 11565,800 L 11655,800 L 11655,890 L 11565,890 Z" /><path d="M 14165,845 L 14255,845 L 14255,935 L 14165,935 Z" /><path d="M 10265,845 L 10355,845 L 10355,935 L 10265,935 Z" /><path d="M 10265,2435 L 10355,2435 L 10355,2525 L 10265,2525 Z" /><path d="M 14685,2435 L 14775,2435 L 14775,2525 L 14685,2525 Z" /><path d="M 13645,2435 L 13735,2435 L 13735,2525 L 13645,2525 Z" /><path d="M 13385,2150 L 13475,2150 L 13475,2240 L 13385,2240 Z" /><path d="M 12605,1010 L 12695,1010 L 12695,1100 L 12605,1100 Z" /><path d="M 12345,2435 L 12435,2435 L 12435,2525 L 12345,2525 Z" /><path d="M 11825,2435 L 11915,2435 L 11915,2525 L 11825,2525 Z" /><path d="M 11565,2435 L 11655,2435 L 11655,2525 L 11565,2525 Z" /><path d="M 10785,845 L 10875,845 L 10875,935 L 10785,935 Z" /><path d="M 13385,2480 L 13475,2480 L 13475,2570 L 13385,2570 Z" /><path d="M 10395,1545 L 10485,1545 L 10485,1635 L 10395,1635 Z" /><path d="M 11955,2150 L 12045,2150 L 12045,2240 L 11955,2240 Z" /><path d="M 10655,1925 L 10745,1925 L 10745,2015 L 10655,2015 Z" /><path d="M 10915,1735 L 11005,1735 L 11005,1825 L 10915,1825 Z" /><path d="M 12475,1355 L 12565,1355 L 12565,1445 L 12475,1445 Z" /><path d="M 12735,1735 L 12825,1735 L 12825,1825 L 12735,1825 Z" /><path d="M 12215,1735 L 12305,1735 L 12305,1825 L 12215,1825 Z" /><path d="M 11435,1735 L 11525,1735 L 11525,1825 L 11435,1825 Z" /><path d="M 11175,1355 L 11265,1355 L 11265,1445 L 11175,1445 Z" /><path d="M 13255,1545 L 13345,1545 L 13345,1635 L 13255,1635 Z" /><path d="M 14295,2150 L 14385,2150 L 14385,2240 L 14295,2240 Z" /><path d="M 12995,1925 L 13085,1925 L 13085,2015 L 12995,2015 Z" /><path d="M 14555,1735 L 14645,1735 L 14645,1825 L 14555,1825 Z" /><path d="M 14035,1545 L 14125,1545 L 14125,1635 L 14035,1635 Z" /><path d="M 13775,1925 L 13865,1925 L 13865,2015 L 13775,2015 Z" /><path d="M 1685,2435 L 1775,2435 L 1775,2525 L 1685,2525 Z" /><path d="M 1165,2435 L 1255,2435 L 1255,2525 L 1165,2525 Z" /><path d="M 2725,845 L 2815,845 L 2815,935 L 2725,935 Z" /><path d="M 2205,845 L 2295,845 L 2295,935 L 2205,935 Z" /><path d="M 1945,845 L 2035,845 L 2035,935 L 1945,935 Z" /><path d="M 1425,845 L 1515,845 L 1515,935 L 1425,935 Z" /><path d="M 905,845 L 995,845 L 995,935 L 905,935 Z" /><path d="M 645,845 L 735,845 L 735,935 L 645,935 Z" /><path d="M 385,845 L 475,845 L 475,935 L 385,935 Z" /><path d="M 385,2435 L 475,2435 L 475,2525 L 385,2525 Z" /><path d="M 645,2435 L 735,2435 L 735,2525 L 645,2525 Z" /><path d="M 905,2435 L 995,2435 L 995,2525 L 905,2525 Z" /><path d="M 1425,2435 L 1515,2435 L 1515,2525 L 1425,2525 Z" /><path d="M 1945,2435 L 2035,2435 L 2035,2525 L 1945,2525 Z" /><path d="M 2205,2435 L 2295,2435 L 2295,2525 L 2205,2525 Z" /><path d="M 2725,2435 L 2815,2435 L 2815,2525 L 2725,2525 Z" /><path d="M 2465,2435 L 2555,2435 L 2555,2525 L 2465,2525 Z" /><path d="M 385,170 L 475,170 L 475,260 L 385,260 Z" /><path d="M 645,170 L 735,170 L 735,260 L 645,260 Z" /><path d="M 905,170 L 995,170 L 995,260 L 905,260 Z" /><path d="M 1165,170 L 1255,170 L 1255,260 L 1165,260 Z" /><path d="M 1425,170 L 1515,170 L 1515,260 L 1425,260 Z" /><path d="M 1685,170 L 1775,170 L 1775,260 L 1685,260 Z" /><path d="M 1945,170 L 2035,170 L 2035,260 L 1945,260 Z" /><path d="M 2205,170 L 2295,170 L 2295,260 L 2205,260 Z" /><path d="M 2725,170 L 2815,170 L 2815,260 L 2725,260 Z" /><path d="M 2465,170 L 2555,170 L 2555,260 L 2465,260 Z" /><path d="M 385,3110 L 475,3110 L 475,3200 L 385,3200 Z" /><path d="M 645,3110 L 735,3110 L 735,3200 L 645,3200 Z" /><path d="M 905,3110 L 995,3110 L 995,3200 L 905,3200 Z" /><path d="M 1165,3110 L 1255,3110 L 1255,3200 L 1165,3200 Z" /><path d="M 1425,3110 L 1515,3110 L 1515,3200 L 1425,3200 Z" /><path d="M 1685,3110 L 1775,3110 L 1775,3200 L 1685,3200 Z" /><path d="M 1945,3110 L 2035,3110 L 2035,3200 L 1945,3200 Z" /><path d="M 2205,3110 L 2295,3110 L 2295,3200 L 2205,3200 Z" /><path d="M 2725,3110 L 2815,3110 L 2815,3200 L 2725,3200 Z" /><path d="M 2465,3110 L 2555,3110 L 2555,3200 L 2465,3200 Z" /><path d="M 1815,1355 L 1905,1355 L 1905,1445 L 1815,1445 Z" /><path d="M 515,1355 L 605,1355 L 605,1445 L 515,1445 Z" /><path d="M 1555,1925 L 1645,1925 L 1645,2015 L 1555,2015 Z" /><path d="M 1035,1925 L 1125,1925 L 1125,2015 L 1035,2015 Z" /><path d="M 2595,1545 L 2685,1545 L 2685,1635 L 2595,1635 Z" /><path d="M 2335,1735 L 2425,1735 L 2425,1825 L 2335,1825 Z" /><path d="M 1295,1735 L 1385,1735 L 1385,1825 L 1295,1825 Z" /><path d="M 5845,2480 L 5935,2480 L 5935,2570 L 5845,2570 Z" /><path d="M 5325,2480 L 5415,2480 L 5415,2570 L 5325,2570 Z" /><path d="M 7145,2435 L 7235,2435 L 7235,2525 L 7145,2525 Z" /><path d="M 6885,2435 L 6975,2435 L 6975,2525 L 6885,2525 Z" /><path d="M 6625,2435 L 6715,2435 L 6715,2525 L 6625,2525 Z" /><path d="M 5585,2150 L 5675,2150 L 5675,2240 L 5585,2240 Z" /><path d="M 5585,2480 L 5675,2480 L 5675,2570 L 5585,2570 Z" /><path d="M 7405,170 L 7495,170 L 7495,260 L 7405,260 Z" /><path d="M 7145,170 L 7235,170 L 7235,260 L 7145,260 Z" /><path d="M 6885,170 L 6975,170 L 6975,260 L 6885,260 Z" /><path d="M 6625,170 L 6715,170 L 6715,260 L 6625,260 Z" /><path d="M 6365,170 L 6455,170 L 6455,260 L 6365,260 Z" /><path d="M 6105,170 L 6195,170 L 6195,260 L 6105,260 Z" /><path d="M 5845,170 L 5935,170 L 5935,260 L 5845,260 Z" /><path d="M 5585,170 L 5675,170 L 5675,260 L 5585,260 Z" /><path d="M 5325,170 L 5415,170 L 5415,260 L 5325,260 Z" /><path d="M 5065,170 L 5155,170 L 5155,260 L 5065,260 Z" /><path d="M 4805,170 L 4895,170 L 4895,260 L 4805,260 Z" /><path d="M 4545,170 L 4635,170 L 4635,260 L 4545,260 Z" /><path d="M 4285,170 L 4375,170 L 4375,260 L 4285,260 Z" /><path d="M 4025,170 L 4115,170 L 4115,260 L 4025,260 Z" /><path d="M 3765,170 L 3855,170 L 3855,260 L 3765,260 Z" /><path d="M 3505,170 L 3595,170 L 3595,260 L 3505,260 Z" /><path d="M 3245,170 L 3335,170 L 3335,260 L 3245,260 Z" /><path d="M 2985,170 L 3075,170 L 3075,260 L 2985,260 Z" /><path d="M 7405,3110 L 7495,3110 L 7495,3200 L 7405,3200 Z" /><path d="M 3245,2435 L 3335,2435 L 3335,2525 L 3245,2525 Z" /><path d="M 4025,2435 L 4115,2435 L 4115,2525 L 4025,2525 Z" /><path d="M 3765,2435 L 3855,2435 L 3855,2525 L 3765,2525 Z" /><path d="M 3505,2435 L 3595,2435 L 3595,2525 L 3505,2525 Z" /><path d="M 4025,3110 L 4115,3110 L 4115,3200 L 4025,3200 Z" /><path d="M 2985,3110 L 3075,3110 L 3075,3200 L 2985,3200 Z" /><path d="M 3245,3110 L 3335,3110 L 3335,3200 L 3245,3200 Z" /><path d="M 3505,3110 L 3595,3110 L 3595,3200 L 3505,3200 Z" /><path d="M 3765,3110 L 3855,3110 L 3855,3200 L 3765,3200 Z" /><path d="M 7145,3110 L 7235,3110 L 7235,3200 L 7145,3200 Z" /><path d="M 5845,3110 L 5935,3110 L 5935,3200 L 5845,3200 Z" /><path d="M 6105,3110 L 6195,3110 L 6195,3200 L 6105,3200 Z" /><path d="M 6365,3110 L 6455,3110 L 6455,3200 L 6365,3200 Z" /><path d="M 6625,3110 L 6715,3110 L 6715,3200 L 6625,3200 Z" /><path d="M 6885,3110 L 6975,3110 L 6975,3200 L 6885,3200 Z" /><path d="M 4805,2435 L 4895,2435 L 4895,2525 L 4805,2525 Z" /><path d="M 5585,3110 L 5675,3110 L 5675,3200 L 5585,3200 Z" /><path d="M 4285,3110 L 4375,3110 L 4375,3200 L 4285,3200 Z" /><path d="M 4545,3110 L 4635,3110 L 4635,3200 L 4545,3200 Z" /><path d="M 4805,3110 L 4895,3110 L 4895,3200 L 4805,3200 Z" /><path d="M 5065,3110 L 5155,3110 L 5155,3200 L 5065,3200 Z" /><path d="M 5325,3110 L 5415,3110 L 5415,3200 L 5325,3200 Z" /><path d="M 7405,845 L 7495,845 L 7495,935 L 7405,935 Z" /><path d="M 6365,845 L 6455,845 L 6455,935 L 6365,935 Z" /><path d="M 6105,1010 L 6195,1010 L 6195,1100 L 6105,1100 Z" /><path d="M 6105,800 L 6195,800 L 6195,890 L 6105,890 Z" /><path d="M 5325,800 L 5415,800 L 5415,890 L 5325,890 Z" /><path d="M 5065,845 L 5155,845 L 5155,935 L 5065,935 Z" /><path d="M 4545,845 L 4635,845 L 4635,935 L 4545,935 Z" /><path d="M 4285,1010 L 4375,1010 L 4375,1100 L 4285,1100 Z" /><path d="M 4285,800 L 4375,800 L 4375,890 L 4285,890 Z" /><path d="M 6885,845 L 6975,845 L 6975,935 L 6885,935 Z" /><path d="M 2985,845 L 3075,845 L 3075,935 L 2985,935 Z" /><path d="M 2985,2435 L 3075,2435 L 3075,2525 L 2985,2525 Z" /><path d="M 7405,2435 L 7495,2435 L 7495,2525 L 7405,2525 Z" /><path d="M 6365,2435 L 6455,2435 L 6455,2525 L 6365,2525 Z" /><path d="M 6105,2150 L 6195,2150 L 6195,2240 L 6105,2240 Z" /><path d="M 5325,1010 L 5415,1010 L 5415,1100 L 5325,1100 Z" /><path d="M 5065,2435 L 5155,2435 L 5155,2525 L 5065,2525 Z" /><path d="M 4545,2435 L 4635,2435 L 4635,2525 L 4545,2525 Z" /><path d="M 4285,2435 L 4375,2435 L 4375,2525 L 4285,2525 Z" /><path d="M 3505,845 L 3595,845 L 3595,935 L 3505,935 Z" /><path d="M 6105,2480 L 6195,2480 L 6195,2570 L 6105,2570 Z" /><path d="M 3115,1545 L 3205,1545 L 3205,1635 L 3115,1635 Z" /><path d="M 4675,2150 L 4765,2150 L 4765,2240 L 4675,2240 Z" /><path d="M 3375,1925 L 3465,1925 L 3465,2015 L 3375,2015 Z" /><path d="M 3635,1735 L 3725,1735 L 3725,1825 L 3635,1825 Z" /><path d="M 5195,1355 L 5285,1355 L 5285,1445 L 5195,1445 Z" /><path d="M 5455,1735 L 5545,1735 L 5545,1825 L 5455,1825 Z" /><path d="M 4935,1735 L 5025,1735 L 5025,1825 L 4935,1825 Z" /><path d="M 4155,1735 L 4245,1735 L 4245,1825 L 4155,1825 Z" /><path d="M 3895,1355 L 3985,1355 L 3985,1445 L 3895,1445 Z" /><path d="M 5975,1545 L 6065,1545 L 6065,1635 L 5975,1635 Z" /><path d="M 7015,2150 L 7105,2150 L 7105,2240 L 7015,2240 Z" /><path d="M 5715,1925 L 5805,1925 L 5805,2015 L 5715,2015 Z" /><path d="M 7275,1735 L 7365,1735 L 7365,1825 L 7275,1825 Z" /><path d="M 6755,1545 L 6845,1545 L 6845,1635 L 6755,1635 Z" /><path d="M 6495,1925 L 6585,1925 L 6585,2015 L 6495,2015 Z" /></g></g><g id="M1"><g class="l31d0"><path d="M 9740,2390 L 9740,2395 L 9740,2565 L 9740,2570 L 9740,2810 L 9840,2810 L 9840,2570 L 9840,2565 L 9840,2395 L 9840,2390 Z" /><path d="M 10000,560 L 10000,800 L 10000,805 L 10000,975 L 10000,980 L 10100,980 L 10100,975 L 10100,805 L 10100,800 L 10100,560 Z" /><path d="M 8960,2390 L 8960,2395 L 8960,2565 L 8960,2570 L 8960,2810 L 9060,2810 L 9060,2570 L 9060,2565 L 9060,2395 L 9060,2390 Z" /><path d="M 9220,560 L 9220,800 L 9220,805 L 9220,975 L 9220,980 L 9320,980 L 9320,975 L 9320,805 L 9320,800 L 9320,560 Z" /><path d="M 8180,560 L 8180,800 L 8180,805 L 8180,975 L 8180,980 L 8280,980 L 8280,975 L 8280,805 L 8280,800 L 8280,560 Z" /><path d="M 8440,2390 L 8440,2395 L 8440,2565 L 8440,2570 L 8440,2810 L 8540,2810 L 8540,2570 L 8540,2565 L 8540,2395 L 8540,2390 Z" /><path d="M 7920,560 L 7920,800 L 7920,805 L 7920,975 L 7920,980 L 8020,980 L 8020,975 L 8020,805 L 8020,800 L 8020,560 Z" /><path d="M 7920,2390 L 7920,2395 L 7920,2565 L 7920,2570 L 7920,2810 L 8020,2810 L 8020,2570 L 8020,2565 L 8020,2395 L 8020,2390 Z" /><path d="M 8320,1540 L 8230,1540 L 8140,1540 L 8140,1640 L 8230,1640 L 8320,1640 L 9835,1640 L 9920,1640 L 10005,1640 L 10005,1540 L 9920,1540 L 9835,1540 Z" /><path d="M 8060,1730 L 7970,1730 L 7880,1730 L 7880,1830 L 7970,1830 L 8060,1830 L 8535,1830 L 8620,1830 L 8705,1830 L 8705,1730 L 8620,1730 L 8535,1730 Z" /><path d="M 9100,1730 L 9010,1730 L 8920,1730 L 8920,1830 L 9010,1830 L 9100,1830 L 9575,1830 L 9660,1830 L 9745,1830 L 9745,1730 L 9660,1730 L 9575,1730 Z" /><path d="M 13120,2575 L 13120,2700 L 12700,2700 L 12700,2575 L 12700,2440 L 12600,2440 L 12600,2575 L 12600,2700 L 12600,2800 L 12700,2800 L 13120,2800 L 13220,2800 L 13220,2700 L 13220,2575 L 13220,2440 L 13120,2440 Z" /><path d="M 12080,2390 L 12080,2570 L 12080,2810 L 12180,2810 L 12180,2570 L 12180,2390 Z" /><path d="M 11660,720 L 11560,720 L 11560,860 L 11560,1040 L 11560,1140 L 11660,1140 L 11660,1040 L 11660,860 Z" /><path d="M 10520,2390 L 10520,2570 L 10520,2810 L 10620,2810 L 10620,2570 L 10620,2390 Z" /><path d="M 13900,2390 L 13900,2570 L 13900,2810 L 14000,2810 L 14000,2570 L 14000,2390 Z" /><path d="M 14420,2390 L 14420,2570 L 14420,2810 L 14520,2810 L 14520,2570 L 14520,2390 Z" /><path d="M 12700,720 L 12600,720 L 12600,860 L 12600,1040 L 12600,1140 L 12700,1140 L 12700,1040 L 12700,860 Z" /><path d="M 11785,940 L 11920,940 L 12040,940 L 12130,940 L 12220,940 L 12220,840 L 12130,840 L 12040,840 L 11920,840 L 11785,840 Z" /><path d="M 10225,940 L 10480,940 L 10570,940 L 10660,940 L 10660,840 L 10570,840 L 10480,840 L 10225,840 Z" /><path d="M 13605,940 L 13740,940 L 13860,940 L 13950,940 L 14040,940 L 14040,840 L 13950,840 L 13860,840 L 13740,840 L 13605,840 Z" /><path d="M 14815,840 L 14680,840 L 14560,840 L 14470,840 L 14380,840 L 14380,940 L 14470,940 L 14560,940 L 14680,940 L 14815,940 Z" /><path d="M 12630,1830 L 12695,1830 L 12820,1830 L 12865,1830 L 13000,1830 L 13050,1830 L 13050,1730 L 13000,1730 L 12865,1730 L 12820,1730 L 12695,1730 L 12630,1730 Z" /><path d="M 11155,1830 L 11260,1830 L 11395,1830 L 11440,1830 L 11565,1830 L 11575,1830 L 11575,1730 L 11565,1730 L 11440,1730 L 11395,1730 L 11260,1730 L 11155,1730 Z" /><path d="M 11135,1450 L 11220,1450 L 11305,1450 L 11305,1350 L 11220,1350 L 11135,1350 L 10660,1350 L 10570,1350 L 10480,1350 L 10480,1450 L 10570,1450 L 10660,1450 Z" /><path d="M 10525,1540 L 10440,1540 L 10355,1540 L 10355,1640 L 10440,1640 L 10525,1640 L 12040,1640 L 12130,1640 L 12220,1640 L 13215,1640 L 13300,1640 L 13385,1640 L 13385,1540 L 13300,1540 L 13215,1540 L 12220,1540 L 12130,1540 L 12040,1540 Z" /><path d="M 12825,2245 L 12860,2245 L 12860,2475 L 12860,2610 L 12960,2610 L 12960,2475 L 12960,2245 L 13380,2245 L 13380,2475 L 13380,2610 L 13480,2610 L 13480,2475 L 13480,2245 L 13515,2245 L 13515,2244 L 14255,2244 L 14255,2245 L 14425,2245 L 14425,2145 L 14340,2145 L 14255,2145 L 13515,2145 L 12825,2145 L 12740,2145 L 12650,2145 L 12560,2145 L 12085,2145 L 12000,2145 L 11915,2145 L 11915,2245 L 12085,2245 L 12085,2244 L 12560,2244 L 12560,2245 L 12740,2245 L 12740,2244 L 12825,2244 Z" /><path d="M 14515,1730 L 14040,1730 L 13950,1730 L 13860,1730 L 13860,1830 L 13950,1830 L 14040,1830 L 14515,1830 L 14600,1830 L 14685,1830 L 14685,1730 L 14600,1730 Z" /><path d="M 14165,1640 L 14380,1640 L 14470,1640 L 14560,1640 L 14560,1540 L 14470,1540 L 14380,1540 L 14165,1540 L 14080,1540 L 13995,1540 L 13995,1640 L 14080,1640 Z" /><path d="M 12955,2020 L 13125,2020 L 13735,2020 L 13820,2020 L 13905,2020 L 13905,1920 L 13820,1920 L 13735,1920 L 13125,1920 L 12955,1920 L 11700,1920 L 11610,1920 L 11520,1920 L 10785,1920 L 10700,1920 L 10615,1920 L 10615,2020 L 10700,2020 L 10785,2020 L 11040,2020 L 11040,2565 L 11140,2565 L 11140,2020 L 11520,2020 L 11560,2020 L 11560,2565 L 11660,2565 L 11660,2020 L 11700,2020 Z" /><path d="M 8020,1920 L 7800,1920 L 7755,1920 L 7620,1920 L 7620,2020 L 7755,2020 L 7800,2020 L 8020,2020 L 8275,2020 L 8310,2020 L 8440,2020 L 8445,2020 L 8445,1920 L 8440,1920 L 8310,1920 L 8275,1920 Z" /><path d="M 9055,1450 L 9140,1450 L 9225,1450 L 9440,1450 L 9530,1450 L 9620,1450 L 9620,1350 L 9530,1350 L 9440,1350 L 9225,1350 L 9140,1350 L 9055,1350 L 7925,1350 L 7890,1350 L 7790,1350 L 7755,1350 L 7755,1450 L 7790,1450 L 7890,1450 L 7925,1450 Z" /><path d="M 8840,2020 L 8965,2020 L 9215,2020 L 9215,1920 L 8965,1920 L 8840,1920 L 8795,1920 L 8660,1920 L 8660,2020 L 8795,2020 Z" /><path d="M 12435,1450 L 12480,1450 L 12605,1450 L 12730,1450 L 12730,1350 L 12605,1350 L 12480,1350 L 12435,1350 L 12310,1350 L 12300,1350 L 12300,1450 L 12310,1450 Z" /><path d="M 10625,1830 L 10740,1830 L 10875,1830 L 10920,1830 L 11045,1830 L 11045,1730 L 10920,1730 L 10875,1730 L 10740,1730 L 10625,1730 Z" /><path d="M 12050,1730 L 11960,1730 L 11920,1730 L 11780,1730 L 11780,1830 L 11920,1830 L 11960,1830 L 12050,1830 L 12175,1830 L 12210,1830 L 12345,1830 L 12470,1830 L 12470,1730 L 12345,1730 L 12210,1730 L 12175,1730 Z" /><path d="M 2460,2390 L 2460,2395 L 2460,2565 L 2460,2570 L 2460,2810 L 2560,2810 L 2560,2570 L 2560,2565 L 2560,2395 L 2560,2390 Z" /><path d="M 2720,560 L 2720,800 L 2720,805 L 2720,975 L 2720,980 L 2820,980 L 2820,975 L 2820,805 L 2820,800 L 2820,560 Z" /><path d="M 1680,2390 L 1680,2395 L 1680,2565 L 1680,2570 L 1680,2810 L 1780,2810 L 1780,2570 L 1780,2565 L 1780,2395 L 1780,2390 Z" /><path d="M 1940,560 L 1940,800 L 1940,805 L 1940,975 L 1940,980 L 2040,980 L 2040,975 L 2040,805 L 2040,800 L 2040,560 Z" /><path d="M 900,560 L 900,800 L 900,805 L 900,975 L 900,980 L 1000,980 L 1000,975 L 1000,805 L 1000,800 L 1000,560 Z" /><path d="M 1160,2390 L 1160,2395 L 1160,2565 L 1160,2570 L 1160,2810 L 1260,2810 L 1260,2570 L 1260,2565 L 1260,2395 L 1260,2390 Z" /><path d="M 640,560 L 640,800 L 640,805 L 640,975 L 640,980 L 740,980 L 740,975 L 740,805 L 740,800 L 740,560 Z" /><path d="M 640,2390 L 640,2395 L 640,2565 L 640,2570 L 640,2810 L 740,2810 L 740,2570 L 740,2565 L 740,2395 L 740,2390 Z" /><path d="M 1040,1540 L 950,1540 L 860,1540 L 860,1640 L 950,1640 L 1040,1640 L 2555,1640 L 2640,1640 L 2725,1640 L 2725,1540 L 2640,1540 L 2555,1540 Z" /><path d="M 780,1730 L 690,1730 L 600,1730 L 600,1830 L 690,1830 L 780,1830 L 1255,1830 L 1340,1830 L 1425,1830 L 1425,1730 L 1340,1730 L 1255,1730 Z" /><path d="M 1820,1730 L 1730,1730 L 1640,1730 L 1640,1830 L 1730,1830 L 1820,1830 L 2295,1830 L 2380,1830 L 2465,1830 L 2465,1730 L 2380,1730 L 2295,1730 Z" /><path d="M 5840,2575 L 5840,2700 L 5420,2700 L 5420,2575 L 5420,2440 L 5320,2440 L 5320,2575 L 5320,2700 L 5320,2800 L 5420,2800 L 5840,2800 L 5940,2800 L 5940,2700 L 5940,2575 L 5940,2440 L 5840,2440 Z" /><path d="M 7590,310 L 7660,310 L 7660,805 L 7660,975 L 7760,975 L 7760,805 L 7760,310 L 8700,310 L 8700,805 L 8700,975 L 8800,975 L 8800,805 L 8800,310 L 9480,310 L 9480,805 L 9480,975 L 9580,975 L 9580,805 L 9580,310 L 10170,310 L 10190,310 L 10780,310 L 10780,840 L 10780,975 L 10880,975 L 10880,840 L 10880,310 L 12340,310 L 12340,840 L 12340,975 L 12440,975 L 12440,840 L 12440,310 L 13380,310 L 13380,795 L 13380,1140 L 13480,1140 L 13480,795 L 13480,310 L 14160,310 L 14160,840 L 14160,975 L 14260,975 L 14260,840 L 14260,310 L 14870,310 L 14870,120 L 10190,120 L 10170,120 L 7590,120 L 7570,120 L 2910,120 L 2890,120 L 290,120 L 290,310 L 380,310 L 380,805 L 380,975 L 480,975 L 480,805 L 480,310 L 1420,310 L 1420,805 L 1420,975 L 1520,975 L 1520,805 L 1520,310 L 2200,310 L 2200,805 L 2200,975 L 2300,975 L 2300,805 L 2300,310 L 2890,310 L 2910,310 L 3500,310 L 3500,840 L 3500,975 L 3600,975 L 3600,840 L 3600,310 L 5060,310 L 5060,840 L 5060,975 L 5160,975 L 5160,840 L 5160,310 L 6100,310 L 6100,795 L 6100,1140 L 6200,1140 L 6200,795 L 6200,310 L 6880,310 L 6880,840 L 6880,975 L 6980,975 L 6980,840 L 6980,310 L 7570,310 Z" /><path d="M 10000,2395 L 10000,2565 L 10000,3060 L 9580,3060 L 9580,2565 L 9580,2395 L 9480,2395 L 9480,2565 L 9480,3060 L 9320,3060 L 9320,2565 L 9320,2395 L 9220,2395 L 9220,2565 L 9220,3060 L 8800,3060 L 8800,2565 L 8800,2395 L 8700,2395 L 8700,2565 L 8700,3060 L 8280,3060 L 8280,2565 L 8280,2395 L 8180,2395 L 8180,2565 L 8180,3060 L 7760,3060 L 7760,2565 L 7760,2395 L 7660,2395 L 7660,2565 L 7660,3060 L 7590,3060 L 7570,3060 L 7500,3060 L 7500,2530 L 7500,2395 L 7400,2395 L 7400,2530 L 7400,3060 L 6980,3060 L 6980,2530 L 6980,2395 L 6880,2395 L 6880,2530 L 6880,3060 L 6460,3060 L 6460,2530 L 6460,2395 L 6360,2395 L 6360,2530 L 6360,3060 L 5160,3060 L 5160,2530 L 5160,2395 L 5060,2395 L 5060,2530 L 5060,3060 L 4640,3060 L 4640,2530 L 4640,2395 L 4540,2395 L 4540,2530 L 4540,3060 L 4120,3060 L 4120,2530 L 4120,2395 L 4020,2395 L 4020,2530 L 4020,3060 L 3600,3060 L 3600,2530 L 3600,2395 L 3500,2395 L 3500,2530 L 3500,3060 L 3080,3060 L 3080,2530 L 3080,2395 L 2980,2395 L 2980,2530 L 2980,3060 L 2910,3060 L 2890,3060 L 2820,3060 L 2820,2565 L 2820,2395 L 2720,2395 L 2720,2565 L 2720,3060 L 2300,3060 L 2300,2565 L 2300,2395 L 2200,2395 L 2200,2565 L 2200,3060 L 2040,3060 L 2040,2565 L 2040,2395 L 1940,2395 L 1940,2565 L 1940,3060 L 1520,3060 L 1520,2565 L 1520,2395 L 1420,2395 L 1420,2565 L 1420,3060 L 1000,3060 L 1000,2565 L 1000,2395 L 900,2395 L 900,2565 L 900,3060 L 480,3060 L 480,2565 L 480,2395 L 380,2395 L 380,2565 L 380,3060 L 290,3060 L 290,3250 L 2890,3250 L 2910,3250 L 7570,3250 L 7590,3250 L 10170,3250 L 10190,3250 L 14870,3250 L 14870,3060 L 14780,3060 L 14780,2530 L 14780,2395 L 14680,2395 L 14680,2530 L 14680,3060 L 14260,3060 L 14260,2530 L 14260,2395 L 14160,2395 L 14160,2530 L 14160,3060 L 13740,3060 L 13740,2530 L 13740,2395 L 13640,2395 L 13640,2530 L 13640,3060 L 12440,3060 L 12440,2530 L 12440,2395 L 12340,2395 L 12340,2530 L 12340,3060 L 11920,3060 L 11920,2530 L 11920,2395 L 11820,2395 L 11820,2530 L 11820,3060 L 11400,3060 L 11400,2530 L 11400,2395 L 11300,2395 L 11300,2530 L 11300,3060 L 10880,3060 L 10880,2530 L 10880,2395 L 10780,2395 L 10780,2530 L 10780,3060 L 10360,3060 L 10360,2530 L 10360,2395 L 10260,2395 L 10260,2530 L 10260,3060 L 10190,3060 L 10170,3060 L 10100,3060 L 10100,2565 L 10100,2395 Z" /><path d="M 4800,2390 L 4800,2570 L 4800,2810 L 4900,2810 L 4900,2570 L 4900,2390 Z" /><path d="M 4380,720 L 4280,720 L 4280,860 L 4280,1040 L 4280,1140 L 4380,1140 L 4380,1040 L 4380,860 Z" /><path d="M 3240,2390 L 3240,2570 L 3240,2810 L 3340,2810 L 3340,2570 L 3340,2390 Z" /><path d="M 6620,2390 L 6620,2570 L 6620,2810 L 6720,2810 L 6720,2570 L 6720,2390 Z" /><path d="M 7140,2390 L 7140,2570 L 7140,2810 L 7240,2810 L 7240,2570 L 7240,2390 Z" /><path d="M 5420,720 L 5320,720 L 5320,860 L 5320,1040 L 5320,1140 L 5420,1140 L 5420,1040 L 5420,860 Z" /><path d="M 4505,940 L 4640,940 L 4760,940 L 4850,940 L 4940,940 L 4940,840 L 4850,840 L 4760,840 L 4640,840 L 4505,840 Z" /><path d="M 2945,940 L 3200,940 L 3290,940 L 3380,940 L 3380,840 L 3290,840 L 3200,840 L 2945,840 Z" /><path d="M 6325,940 L 6460,940 L 6580,940 L 6670,940 L 6760,940 L 6760,840 L 6670,840 L 6580,840 L 6460,840 L 6325,840 Z" /><path d="M 7535,840 L 7400,840 L 7280,840 L 7190,840 L 7100,840 L 7100,940 L 7190,940 L 7280,940 L 7400,940 L 7535,940 Z" /><path d="M 5350,1830 L 5415,1830 L 5540,1830 L 5585,1830 L 5720,1830 L 5770,1830 L 5770,1730 L 5720,1730 L 5585,1730 L 5540,1730 L 5415,1730 L 5350,1730 Z" /><path d="M 3875,1830 L 3980,1830 L 4115,1830 L 4160,1830 L 4285,1830 L 4295,1830 L 4295,1730 L 4285,1730 L 4160,1730 L 4115,1730 L 3980,1730 L 3875,1730 Z" /><path d="M 3855,1450 L 3940,1450 L 4025,1450 L 4025,1350 L 3940,1350 L 3855,1350 L 3380,1350 L 3290,1350 L 3200,1350 L 3200,1450 L 3290,1450 L 3380,1450 Z" /><path d="M 3245,1540 L 3160,1540 L 3075,1540 L 3075,1640 L 3160,1640 L 3245,1640 L 4760,1640 L 4850,1640 L 4940,1640 L 5935,1640 L 6020,1640 L 6105,1640 L 6105,1540 L 6020,1540 L 5935,1540 L 4940,1540 L 4850,1540 L 4760,1540 Z" /><path d="M 5545,2245 L 5580,2245 L 5580,2475 L 5580,2610 L 5680,2610 L 5680,2475 L 5680,2245 L 6100,2245 L 6100,2475 L 6100,2610 L 6200,2610 L 6200,2475 L 6200,2245 L 6235,2245 L 6235,2244 L 6975,2244 L 6975,2245 L 7145,2245 L 7145,2145 L 7060,2145 L 6975,2145 L 6235,2145 L 5545,2145 L 5460,2145 L 5370,2145 L 5280,2145 L 4805,2145 L 4720,2145 L 4635,2145 L 4635,2245 L 4805,2245 L 4805,2244 L 5280,2244 L 5280,2245 L 5460,2245 L 5460,2244 L 5545,2244 Z" /><path d="M 7235,1730 L 6760,1730 L 6670,1730 L 6580,1730 L 6580,1830 L 6670,1830 L 6760,1830 L 7235,1830 L 7320,1830 L 7405,1830 L 7405,1730 L 7320,1730 Z" /><path d="M 6885,1640 L 7100,1640 L 7190,1640 L 7280,1640 L 7280,1540 L 7190,1540 L 7100,1540 L 6885,1540 L 6800,1540 L 6715,1540 L 6715,1640 L 6800,1640 Z" /><path d="M 5675,2020 L 5845,2020 L 6455,2020 L 6540,2020 L 6625,2020 L 6625,1920 L 6540,1920 L 6455,1920 L 5845,1920 L 5675,1920 L 4420,1920 L 4330,1920 L 4240,1920 L 3505,1920 L 3420,1920 L 3335,1920 L 3335,2020 L 3420,2020 L 3505,2020 L 3760,2020 L 3760,2565 L 3860,2565 L 3860,2020 L 4240,2020 L 4280,2020 L 4280,2565 L 4380,2565 L 4380,2020 L 4420,2020 Z" /><path d="M 740,1920 L 520,1920 L 475,1920 L 340,1920 L 340,2020 L 475,2020 L 520,2020 L 740,2020 L 995,2020 L 1030,2020 L 1160,2020 L 1165,2020 L 1165,1920 L 1160,1920 L 1030,1920 L 995,1920 Z" /><path d="M 1775,1450 L 1860,1450 L 1945,1450 L 2160,1450 L 2250,1450 L 2340,1450 L 2340,1350 L 2250,1350 L 2160,1350 L 1945,1350 L 1860,1350 L 1775,1350 L 645,1350 L 610,1350 L 510,1350 L 475,1350 L 475,1450 L 510,1450 L 610,1450 L 645,1450 Z" /><path d="M 1560,2020 L 1685,2020 L 1935,2020 L 1935,1920 L 1685,1920 L 1560,1920 L 1515,1920 L 1380,1920 L 1380,2020 L 1515,2020 Z" /><path d="M 5155,1450 L 5200,1450 L 5325,1450 L 5450,1450 L 5450,1350 L 5325,1350 L 5200,1350 L 5155,1350 L 5030,1350 L 5020,1350 L 5020,1450 L 5030,1450 Z" /><path d="M 3345,1830 L 3460,1830 L 3595,1830 L 3640,1830 L 3765,1830 L 3765,1730 L 3640,1730 L 3595,1730 L 3460,1730 L 3345,1730 Z" /><path d="M 4770,1730 L 4680,1730 L 4640,1730 L 4500,1730 L 4500,1830 L 4640,1830 L 4680,1830 L 4770,1830 L 4895,1830 L 4930,1830 L 5065,1830 L 5190,1830 L 5190,1730 L 5065,1730 L 4930,1730 L 4895,1730 Z" /></g></g><g id="VIA1"><g class="l51d0"><path d="M 9740,2430 L 9840,2430 L 9840,2530 L 9740,2530 Z" /><path d="M 10000,840 L 10100,840 L 10100,940 L 10000,940 Z" /><path d="M 8960,2430 L 9060,2430 L 9060,2530 L 8960,2530 Z" /><path d="M 9220,840 L 9320,840 L 9320,940 L 9220,940 Z" /><path d="M 8180,840 L 8280,840 L 8280,940 L 8180,940 Z" /><path d="M 8440,2430 L 8540,2430 L 8540,2530 L 8440,2530 Z" /><path d="M 7920,840 L 8020,840 L 8020,940 L 7920,940 Z" /><path d="M 7920,2430 L 8020,2430 L 8020,2530 L 7920,2530 Z" /><path d="M 8180,1540 L 8280,1540 L 8280,1640 L 8180,1640 Z" /><path d="M 7920,1730 L 8020,1730 L 8020,1830 L 7920,1830 Z" /><path d="M 8960,1730 L 9060,1730 L 9060,1830 L 8960,1830 Z" /><path d="M 12080,2430 L 12180,2430 L 12180,2530 L 12080,2530 Z" /><path d="M 11560,900 L 11660,900 L 11660,1000 L 11560,1000 Z" /><path d="M 10520,2430 L 10620,2430 L 10620,2530 L 10520,2530 Z" /><path d="M 13900,2430 L 14000,2430 L 14000,2530 L 13900,2530 Z" /><path d="M 14420,2430 L 14520,2430 L 14520,2530 L 14420,2530 Z" /><path d="M 12600,900 L 12700,900 L 12700,1000 L 12600,1000 Z" /><path d="M 11300,1730 L 11400,1730 L 11400,1830 L 11300,1830 Z" /><path d="M 12860,1730 L 12960,1730 L 12960,1830 L 12860,1830 Z" /><path d="M 12080,1540 L 12180,1540 L 12180,1640 L 12080,1640 Z" /><path d="M 12080,840 L 12180,840 L 12180,940 L 12080,940 Z" /><path d="M 11560,1920 L 11660,1920 L 11660,2020 L 11560,2020 Z" /><path d="M 10520,1350 L 10620,1350 L 10620,1450 L 10520,1450 Z" /><path d="M 10520,840 L 10620,840 L 10620,940 L 10520,940 Z" /><path d="M 14420,1540 L 14520,1540 L 14520,1640 L 14420,1640 Z" /><path d="M 13900,1730 L 14000,1730 L 14000,1830 L 13900,1830 Z" /><path d="M 13900,840 L 14000,840 L 14000,940 L 13900,940 Z" /><path d="M 14420,840 L 14520,840 L 14520,940 L 14420,940 Z" /><path d="M 12600,2145 L 12700,2145 L 12700,2245 L 12600,2245 Z" /><path d="M 7660,1920 L 7760,1920 L 7760,2020 L 7660,2020 Z" /><path d="M 9480,1350 L 9580,1350 L 9580,1450 L 9480,1450 Z" /><path d="M 8700,1920 L 8800,1920 L 8800,2020 L 8700,2020 Z" /><path d="M 12340,1350 L 12440,1350 L 12440,1450 L 12340,1450 Z" /><path d="M 10780,1730 L 10880,1730 L 10880,1830 L 10780,1830 Z" /><path d="M 11820,1730 L 11920,1730 L 11920,1830 L 11820,1830 Z" /><path d="M 2460,2430 L 2560,2430 L 2560,2530 L 2460,2530 Z" /><path d="M 2720,840 L 2820,840 L 2820,940 L 2720,940 Z" /><path d="M 1680,2430 L 1780,2430 L 1780,2530 L 1680,2530 Z" /><path d="M 1940,840 L 2040,840 L 2040,940 L 1940,940 Z" /><path d="M 900,840 L 1000,840 L 1000,940 L 900,940 Z" /><path d="M 1160,2430 L 1260,2430 L 1260,2530 L 1160,2530 Z" /><path d="M 640,840 L 740,840 L 740,940 L 640,940 Z" /><path d="M 640,2430 L 740,2430 L 740,2530 L 640,2530 Z" /><path d="M 900,1540 L 1000,1540 L 1000,1640 L 900,1640 Z" /><path d="M 640,1730 L 740,1730 L 740,1830 L 640,1830 Z" /><path d="M 1680,1730 L 1780,1730 L 1780,1830 L 1680,1830 Z" /><path d="M 4800,2430 L 4900,2430 L 4900,2530 L 4800,2530 Z" /><path d="M 4280,900 L 4380,900 L 4380,1000 L 4280,1000 Z" /><path d="M 3240,2430 L 3340,2430 L 3340,2530 L 3240,2530 Z" /><path d="M 6620,2430 L 6720,2430 L 6720,2530 L 6620,2530 Z" /><path d="M 7140,2430 L 7240,2430 L 7240,2530 L 7140,2530 Z" /><path d="M 5320,900 L 5420,900 L 5420,1000 L 5320,1000 Z" /><path d="M 4020,1730 L 4120,1730 L 4120,1830 L 4020,1830 Z" /><path d="M 5580,1730 L 5680,1730 L 5680,1830 L 5580,1830 Z" /><path d="M 4800,1540 L 4900,1540 L 4900,1640 L 4800,1640 Z" /><path d="M 4800,840 L 4900,840 L 4900,940 L 4800,940 Z" /><path d="M 4280,1920 L 4380,1920 L 4380,2020 L 4280,2020 Z" /><path d="M 3240,1350 L 3340,1350 L 3340,1450 L 3240,1450 Z" /><path d="M 3240,840 L 3340,840 L 3340,940 L 3240,940 Z" /><path d="M 7140,1540 L 7240,1540 L 7240,1640 L 7140,1640 Z" /><path d="M 6620,1730 L 6720,1730 L 6720,1830 L 6620,1830 Z" /><path d="M 6620,840 L 6720,840 L 6720,940 L 6620,940 Z" /><path d="M 7140,840 L 7240,840 L 7240,940 L 7140,940 Z" /><path d="M 5320,2145 L 5420,2145 L 5420,2245 L 5320,2245 Z" /><path d="M 380,1920 L 480,1920 L 480,2020 L 380,2020 Z" /><path d="M 2200,1350 L 2300,1350 L 2300,1450 L 2200,1450 Z" /><path d="M 1420,1920 L 1520,1920 L 1520,2020 L 1420,2020 Z" /><path d="M 5060,1350 L 5160,1350 L 5160,1450 L 5060,1450 Z" /><path d="M 3500,1730 L 3600,1730 L 3600,1830 L 3500,1830 Z" /><path d="M 4540,1730 L 4640,1730 L 4640,1830 L 4540,1830 Z" /></g></g><g id="M2"><g class="l32d0"><path d="M 8440,2480 L 8440,2570 L 8540,2570 L 8540,2480 L 8540,2390 L 8540,1735 L 8540,1635 L 8440,1635 L 8280,1635 L 8280,1590 L 8280,1500 L 8280,980 L 8280,890 L 8280,800 L 8180,800 L 8180,890 L 8180,980 L 8180,1500 L 8180,1590 L 8180,1635 L 8180,1680 L 8180,1735 L 8280,1735 L 8440,1735 L 8440,2390 Z" /><path d="M 8020,830 L 8020,800 L 7920,800 L 7920,830 L 7920,980 L 7920,1690 L 7920,1780 L 7920,1870 L 7920,2390 L 7920,2480 L 7920,2570 L 8020,2570 L 8020,2480 L 8020,2390 L 8020,1870 L 8020,1780 L 8020,1690 L 8020,980 Z" /><path d="M 8960,2570 L 9060,2570 L 9060,2480 L 9060,2390 L 9060,1870 L 9060,1780 L 9060,1735 L 9220,1735 L 9320,1735 L 9320,1635 L 9320,980 L 9320,890 L 9320,800 L 9220,800 L 9220,890 L 9220,980 L 9220,1635 L 9060,1635 L 8960,1635 L 8960,1690 L 8960,1735 L 8960,1780 L 8960,1870 L 8960,2390 L 8960,2480 Z" /><path d="M 12180,1590 L 12180,1500 L 12180,980 L 12180,890 L 12180,800 L 12080,800 L 12080,890 L 12080,980 L 12080,1500 L 12080,1590 L 12080,1680 L 12080,2390 L 12080,2480 L 12080,2570 L 12180,2570 L 12180,2480 L 12180,2390 L 12180,1680 Z" /><path d="M 11560,1880 L 11560,1970 L 11560,2060 L 11660,2060 L 11660,1970 L 11660,1880 L 11660,1040 L 11660,950 L 11660,860 L 11560,860 L 11560,950 L 11560,1040 Z" /><path d="M 10620,1400 L 10620,1310 L 10620,980 L 10620,890 L 10620,800 L 10520,800 L 10520,890 L 10520,980 L 10520,1310 L 10520,1400 L 10520,1490 L 10520,2390 L 10520,2480 L 10520,2570 L 10620,2570 L 10620,2480 L 10620,2390 L 10620,1490 Z" /><path d="M 14520,1590 L 14520,1500 L 14520,980 L 14520,890 L 14520,800 L 14420,800 L 14420,890 L 14420,980 L 14420,1500 L 14420,1590 L 14420,1680 L 14420,2390 L 14420,2480 L 14420,2570 L 14520,2570 L 14520,2480 L 14520,2390 L 14520,1680 Z" /><path d="M 12600,2105 L 12600,2195 L 12600,2285 L 12700,2285 L 12700,2195 L 12700,2105 L 12700,1040 L 12700,950 L 12700,860 L 12600,860 L 12600,950 L 12600,1040 Z" /><path d="M 12860,1520 L 12860,1690 L 12860,1695 L 12860,1870 L 12860,1875 L 12860,2040 L 12960,2040 L 12960,1875 L 12960,1870 L 12960,1695 L 12960,1690 L 12960,1520 Z" /><path d="M 11300,1520 L 11300,1690 L 11300,1695 L 11300,1870 L 11300,1875 L 11300,2040 L 11400,2040 L 11400,1875 L 11400,1870 L 11400,1695 L 11400,1690 L 11400,1520 Z" /><path d="M 7760,1710 L 7660,1710 L 7660,1880 L 7660,2060 L 7660,2230 L 7760,2230 L 7760,2060 L 7760,1880 Z" /><path d="M 9480,1095 L 9480,1235 L 9480,1275 L 9480,1310 L 9480,1400 L 9480,1490 L 9480,1555 L 9580,1555 L 9580,1490 L 9580,1400 L 9580,1310 L 9580,1275 L 9580,1235 L 9580,1095 L 9580,1035 L 9480,1035 Z" /><path d="M 14000,1675 L 14000,1585 L 14000,1495 L 14000,980 L 14000,890 L 14000,800 L 13900,800 L 13900,890 L 13900,980 L 13900,1495 L 13900,1585 L 13900,1675 L 13900,1690 L 13900,1730 L 13900,1780 L 13900,1870 L 13900,2390 L 13900,2480 L 13900,2570 L 14000,2570 L 14000,2480 L 14000,2390 L 14000,1870 L 14000,1780 L 14000,1730 L 14000,1690 Z" /><path d="M 8800,1675 L 8800,1635 L 8800,1495 L 8700,1495 L 8700,1635 L 8700,1675 L 8700,1880 L 8700,1970 L 8700,2060 L 8800,2060 L 8800,1970 L 8800,1880 Z" /><path d="M 12340,1110 L 12340,1295 L 12340,1310 L 12340,1475 L 12340,1490 L 12340,1630 L 12440,1630 L 12440,1490 L 12440,1475 L 12440,1310 L 12440,1295 L 12440,1110 Z" /><path d="M 10780,1690 L 10780,1780 L 10780,1870 L 10780,1895 L 10780,1935 L 10780,2075 L 10780,2140 L 10880,2140 L 10880,2075 L 10880,1935 L 10880,1895 L 10880,1870 L 10880,1780 L 10880,1690 L 10880,1620 L 10780,1620 Z" /><path d="M 10100,1585 L 10100,1495 L 10100,980 L 10100,890 L 10100,800 L 10000,800 L 10000,890 L 10000,980 L 10000,1495 L 10000,1585 L 10000,1635 L 9970,1635 L 9840,1635 L 9740,1635 L 9740,1735 L 9740,2390 L 9740,2480 L 9740,2570 L 9840,2570 L 9840,2480 L 9840,2390 L 9840,1735 L 9970,1735 L 10000,1735 L 10100,1735 L 10100,1675 L 10100,1635 Z" /><path d="M 11820,1495 L 11820,1595 L 11820,1675 L 11820,1690 L 11820,1780 L 11820,1870 L 11820,1925 L 11920,1925 L 11920,1870 L 11920,1780 L 11920,1690 L 11920,1675 L 11920,1595 L 11920,1495 L 11920,1405 L 11820,1405 Z" /><path d="M 1160,2480 L 1160,2570 L 1260,2570 L 1260,2480 L 1260,2390 L 1260,1735 L 1260,1635 L 1160,1635 L 1000,1635 L 1000,1590 L 1000,1500 L 1000,980 L 1000,890 L 1000,800 L 900,800 L 900,890 L 900,980 L 900,1500 L 900,1590 L 900,1635 L 900,1680 L 900,1735 L 1000,1735 L 1160,1735 L 1160,2390 Z" /><path d="M 740,830 L 740,800 L 640,800 L 640,830 L 640,980 L 640,1690 L 640,1780 L 640,1870 L 640,2390 L 640,2480 L 640,2570 L 740,2570 L 740,2480 L 740,2390 L 740,1870 L 740,1780 L 740,1690 L 740,980 Z" /><path d="M 1680,2570 L 1780,2570 L 1780,2480 L 1780,2390 L 1780,1870 L 1780,1780 L 1780,1735 L 1940,1735 L 2040,1735 L 2040,1635 L 2040,980 L 2040,890 L 2040,800 L 1940,800 L 1940,890 L 1940,980 L 1940,1635 L 1780,1635 L 1680,1635 L 1680,1690 L 1680,1735 L 1680,1780 L 1680,1870 L 1680,2390 L 1680,2480 Z" /><path d="M 4900,1590 L 4900,1500 L 4900,980 L 4900,890 L 4900,800 L 4800,800 L 4800,890 L 4800,980 L 4800,1500 L 4800,1590 L 4800,1680 L 4800,2390 L 4800,2480 L 4800,2570 L 4900,2570 L 4900,2480 L 4900,2390 L 4900,1680 Z" /><path d="M 4280,1880 L 4280,1970 L 4280,2060 L 4380,2060 L 4380,1970 L 4380,1880 L 4380,1040 L 4380,950 L 4380,860 L 4280,860 L 4280,950 L 4280,1040 Z" /><path d="M 3340,1400 L 3340,1310 L 3340,980 L 3340,890 L 3340,800 L 3240,800 L 3240,890 L 3240,980 L 3240,1310 L 3240,1400 L 3240,1490 L 3240,2390 L 3240,2480 L 3240,2570 L 3340,2570 L 3340,2480 L 3340,2390 L 3340,1490 Z" /><path d="M 7240,1590 L 7240,1500 L 7240,980 L 7240,890 L 7240,800 L 7140,800 L 7140,890 L 7140,980 L 7140,1500 L 7140,1590 L 7140,1680 L 7140,2390 L 7140,2480 L 7140,2570 L 7240,2570 L 7240,2480 L 7240,2390 L 7240,1680 Z" /><path d="M 5320,2105 L 5320,2195 L 5320,2285 L 5420,2285 L 5420,2195 L 5420,2105 L 5420,1040 L 5420,950 L 5420,860 L 5320,860 L 5320,950 L 5320,1040 Z" /><path d="M 5580,1520 L 5580,1690 L 5580,1695 L 5580,1870 L 5580,1875 L 5580,2040 L 5680,2040 L 5680,1875 L 5680,1870 L 5680,1695 L 5680,1690 L 5680,1520 Z" /><path d="M 4020,1520 L 4020,1690 L 4020,1695 L 4020,1870 L 4020,1875 L 4020,2040 L 4120,2040 L 4120,1875 L 4120,1870 L 4120,1695 L 4120,1690 L 4120,1520 Z" /><path d="M 480,1710 L 380,1710 L 380,1880 L 380,2060 L 380,2230 L 480,2230 L 480,2060 L 480,1880 Z" /><path d="M 2200,1095 L 2200,1235 L 2200,1275 L 2200,1310 L 2200,1400 L 2200,1490 L 2200,1555 L 2300,1555 L 2300,1490 L 2300,1400 L 2300,1310 L 2300,1275 L 2300,1235 L 2300,1095 L 2300,1035 L 2200,1035 Z" /><path d="M 6720,1675 L 6720,1585 L 6720,1495 L 6720,980 L 6720,890 L 6720,800 L 6620,800 L 6620,890 L 6620,980 L 6620,1495 L 6620,1585 L 6620,1675 L 6620,1690 L 6620,1730 L 6620,1780 L 6620,1870 L 6620,2390 L 6620,2480 L 6620,2570 L 6720,2570 L 6720,2480 L 6720,2390 L 6720,1870 L 6720,1780 L 6720,1730 L 6720,1690 Z" /><path d="M 1520,1675 L 1520,1635 L 1520,1495 L 1420,1495 L 1420,1635 L 1420,1675 L 1420,1880 L 1420,1970 L 1420,2060 L 1520,2060 L 1520,1970 L 1520,1880 Z" /><path d="M 5060,1110 L 5060,1295 L 5060,1310 L 5060,1475 L 5060,1490 L 5060,1630 L 5160,1630 L 5160,1490 L 5160,1475 L 5160,1310 L 5160,1295 L 5160,1110 Z" /><path d="M 3500,1690 L 3500,1780 L 3500,1870 L 3500,1895 L 3500,1935 L 3500,2075 L 3500,2140 L 3600,2140 L 3600,2075 L 3600,1935 L 3600,1895 L 3600,1870 L 3600,1780 L 3600,1690 L 3600,1620 L 3500,1620 Z" /><path d="M 2820,1585 L 2820,1495 L 2820,980 L 2820,890 L 2820,800 L 2720,800 L 2720,890 L 2720,980 L 2720,1495 L 2720,1585 L 2720,1635 L 2690,1635 L 2560,1635 L 2460,1635 L 2460,1735 L 2460,2390 L 2460,2480 L 2460,2570 L 2560,2570 L 2560,2480 L 2560,2390 L 2560,1735 L 2690,1735 L 2720,1735 L 2820,1735 L 2820,1675 L 2820,1635 Z" /><path d="M 4540,1495 L 4540,1595 L 4540,1675 L 4540,1690 L 4540,1780 L 4540,1870 L 4540,1925 L 4640,1925 L 4640,1870 L 4640,1780 L 4640,1690 L 4640,1675 L 4640,1595 L 4640,1495 L 4640,1405 L 4540,1405 Z" /></g></g><g id="VIA2"><g class="l52d0"><path d="M 12860,1735 L 12960,1735 L 12960,1835 L 12860,1835 Z" /><path d="M 11300,1735 L 11400,1735 L 11400,1835 L 11300,1835 Z" /><path d="M 9480,1135 L 9580,1135 L 9580,1235 L 9480,1235 Z" /><path d="M 13900,1535 L 14000,1535 L 14000,1635 L 13900,1635 Z" /><path d="M 8700,1535 L 8800,1535 L 8800,1635 L 8700,1635 Z" /><path d="M 12340,1335 L 12440,1335 L 12440,1435 L 12340,1435 Z" /><path d="M 10780,1935 L 10880,1935 L 10880,2035 L 10780,2035 Z" /><path d="M 10000,1535 L 10100,1535 L 10100,1635 L 10000,1635 Z" /><path d="M 11820,1535 L 11920,1535 L 11920,1635 L 11820,1635 Z" /><path d="M 5580,1735 L 5680,1735 L 5680,1835 L 5580,1835 Z" /><path d="M 4020,1735 L 4120,1735 L 4120,1835 L 4020,1835 Z" /><path d="M 2200,1135 L 2300,1135 L 2300,1235 L 2200,1235 Z" /><path d="M 6620,1535 L 6720,1535 L 6720,1635 L 6620,1635 Z" /><path d="M 1420,1535 L 1520,1535 L 1520,1635 L 1420,1635 Z" /><path d="M 5060,1335 L 5160,1335 L 5160,1435 L 5060,1435 Z" /><path d="M 3500,1935 L 3600,1935 L 3600,2035 L 3500,2035 Z" /><path d="M 2720,1535 L 2820,1535 L 2820,1635 L 2720,1635 Z" /><path d="M 4540,1535 L 4640,1535 L 4640,1635 L 4540,1635 Z" /></g></g><g id="M3"><g class="l33d0"><path d="M 14040,1635 L 14860,1635 L 14860,1535 L 14040,1535 L 13950,1535 L 13860,1535 L 13860,1635 L 13950,1635 Z" /><path d="M 11780,1635 L 11870,1635 L 11960,1635 L 11960,1535 L 11870,1535 L 11780,1535 L 10140,1535 L 10050,1535 L 9960,1535 L 9960,1635 L 10050,1635 L 10140,1635 Z" /><path d="M 7580,1735 L 5720,1735 L 5630,1735 L 5540,1735 L 4160,1735 L 4120,1735 L 4070,1735 L 4020,1735 L 3980,1735 L 300,1735 L 300,1835 L 3980,1835 L 4020,1835 L 4070,1835 L 4120,1835 L 4160,1835 L 5540,1835 L 5630,1835 L 5720,1835 L 7580,1835 L 11260,1835 L 11300,1835 L 11350,1835 L 11400,1835 L 11440,1835 L 12820,1835 L 12910,1835 L 13000,1835 L 14860,1835 L 14860,1735 L 13000,1735 L 12910,1735 L 12820,1735 L 11440,1735 L 11400,1735 L 11350,1735 L 11300,1735 L 11260,1735 Z" /><path d="M 9620,1135 L 9530,1135 L 9440,1135 L 7580,1135 L 2340,1135 L 2250,1135 L 2160,1135 L 300,1135 L 300,1235 L 2160,1235 L 2250,1235 L 2340,1235 L 7580,1235 L 9440,1235 L 9530,1235 L 9620,1235 L 14860,1235 L 14860,1135 Z" /><path d="M 7580,1535 L 6760,1535 L 6670,1535 L 6580,1535 L 6580,1635 L 6670,1635 L 6760,1635 L 7580,1635 L 8660,1635 L 8750,1635 L 8840,1635 L 8840,1535 L 8750,1535 L 8660,1535 Z" /><path d="M 1380,1535 L 300,1535 L 300,1635 L 1380,1635 L 1470,1635 L 1560,1635 L 1560,1535 L 1470,1535 Z" /><path d="M 12480,1335 L 12390,1335 L 12300,1335 L 7580,1335 L 5200,1335 L 5110,1335 L 5020,1335 L 300,1335 L 300,1435 L 5020,1435 L 5110,1435 L 5200,1435 L 7580,1435 L 12300,1435 L 12390,1435 L 12480,1435 L 14860,1435 L 14860,1335 Z" /><path d="M 10920,1935 L 10830,1935 L 10740,1935 L 7580,1935 L 3640,1935 L 3550,1935 L 3460,1935 L 300,1935 L 300,2035 L 3460,2035 L 3550,2035 L 3640,2035 L 7580,2035 L 10740,2035 L 10830,2035 L 10920,2035 L 14860,2035 L 14860,1935 Z" /><path d="M 4500,1635 L 4590,1635 L 4680,1635 L 4680,1535 L 4590,1535 L 4500,1535 L 2860,1535 L 2770,1535 L 2680,1535 L 2680,1635 L 2770,1635 L 2860,1635 Z" /></g></g></g></svg>