<svg width="2170" height="3550" viewBox="-5 -3545 2170 3550" xmlns="http://www.w3.org/2000/svg" xmlns:xlink="http://www.w3.org/1999/xlink"><defs><style type="text/css">.l3d0 {fill: #fef9e7; fill-opacity: 0.5; stroke-width: 10; stroke: #f1c40f; stroke-linecap: round; stroke-linejoin: round; stroke-opacity: 0.2;}.l25d0 {fill: #8e44ad; fill-opacity: 0.05; stroke-width: 10; stroke: #8e44ad; stroke-linecap: round; stroke-linejoin: round; stroke-opacity: 1;}.l26d0 {fill: #ccd1d1; fill-opacity: 0.05; stroke-width: 10; stroke: #ccd1d1; stroke-linecap: round; stroke-linejoin: round; stroke-opacity: 1;}.l6d0 {fill: #f5b7b1; fill-opacity: 1; stroke-width: 10; stroke: #e74c3c; stroke-linecap: round; stroke-linejoin: round; stroke-opacity: 1;}.l17d0 {fill: #2980b9; fill-opacity: 1; stroke-width: 0; stroke: #000000; stroke-linecap: round; stroke-linejoin: round; stroke-opacity: 0;}.l30d0 {fill: #27ae60; fill-opacity: 1; stroke-width: 0; stroke: #000000; stroke-linecap: round; stroke-linejoin: round; stroke-opacity: 0;}.l31d0 {fill: #85c1e9; fill-opacity: 0.6; stroke-width: 0; stroke: #000000; stroke-linecap: round; stroke-linejoin: round; stroke-opacity: 0;}.l51d0 {fill: #f39c12; fill-opacity: 1; stroke-width: 10; stroke: #f39c12; stroke-linecap: round; stroke-linejoin: round; stroke-opacity: 1;}.l32d0 {fill: #f7dc6f; fill-opacity: 0.6; stroke-width: 0; stroke: #000000; stroke-linecap: round; stroke-linejoin: round; stroke-opacity: 0;}path {fill-rule: evenodd;}</style></defs><g transform="scale(1 -1)"><g id="NW"><g class="l3d0"><path d="M 0,1900 L 0,3540 L 2160,3540 L 2160,1900 L 1925,1900 L 885,1900 L 495,1900 L 235,1900 Z" /></g></g><g id="PP"><g class="l25d0"><path d="M 170,0 L 1990,0 L 1990,430 L 170,430 Z" /><path d="M 1990,2940 L 1990,1685 L 170,1685 L 170,2940 L 325,2940 L 585,2940 L 795,2940 L 1835,2940 Z" /></g></g><g id="NP"><g class="l26d0"><path d="M 170,2940 L 1990,2940 L 1990,3370 L 170,3370 Z" /><path d="M 170,430 L 170,1685 L 1990,1685 L 1990,430 L 1835,430 L 795,430 L 585,430 L 325,430 Z" /></g></g><g id="OD"><g class="l6d0"><path d="M 300,130 L 1860,130 L 1860,300 L 300,300 Z" /><path d="M 300,3070 L 1860,3070 L 1860,3240 L 300,3240 Z" /><path d="M 1790,770 L 1705,770 L 1630,770 L 850,770 L 790,770 L 715,770 L 665,770 L 590,770 L 530,770 L 455,770 L 370,770 L 370,1250 L 455,1250 L 530,1250 L 590,1250 L 665,1250 L 715,1250 L 790,1250 L 850,1250 L 1630,1250 L 1705,1250 L 1790,1250 Z" /><path d="M 715,2600 L 790,2600 L 850,2600 L 1630,2600 L 1705,2600 L 1790,2600 L 1790,2120 L 1705,2120 L 1630,2120 L 850,2120 L 790,2120 L 715,2120 L 665,2120 L 590,2120 L 530,2120 L 455,2120 L 370,2120 L 370,2600 L 455,2600 L 530,2600 L 590,2600 L 665,2600 Z" /></g></g><g id="PO"><g class="l17d0"><path d="M 1630,1250 L 1630,770 L 1630,630 L 1570,630 L 1570,770 L 1570,1250 L 1570,1390 L 1570,1505 L 1545,1505 L 1545,1675 L 1570,1675 L 1570,1980 L 1570,2120 L 1570,2600 L 1570,2740 L 1630,2740 L 1630,2600 L 1630,2120 L 1630,1980 L 1630,1675 L 1655,1675 L 1655,1505 L 1630,1505 L 1630,1390 Z" /><path d="M 1370,1250 L 1370,770 L 1370,630 L 1310,630 L 1310,770 L 1310,1250 L 1310,1390 L 1310,1505 L 1285,1505 L 1285,1675 L 1310,1675 L 1310,1980 L 1310,2120 L 1310,2600 L 1310,2740 L 1370,2740 L 1370,2600 L 1370,2120 L 1370,1980 L 1370,1675 L 1395,1675 L 1395,1505 L 1370,1505 L 1370,1390 Z" /><path d="M 1110,1250 L 1110,770 L 1110,630 L 1050,630 L 1050,770 L 1050,1250 L 1050,1390 L 1050,1505 L 1025,1505 L 1025,1675 L 1050,1675 L 1050,1980 L 1050,2120 L 1050,2600 L 1050,2740 L 1110,2740 L 1110,2600 L 1110,2120 L 1110,1980 L 1110,1675 L 1135,1675 L 1135,1505 L 1110,1505 L 1110,1390 Z" /><path d="M 850,1250 L 850,770 L 850,630 L 790,630 L 790,770 L 790,1250 L 790,1390 L 790,1505 L 765,1505 L 765,1675 L 790,1675 L 790,1980 L 790,2120 L 790,2600 L 790,2740 L 850,2740 L 850,2600 L 850,2120 L 850,1980 L 850,1675 L 875,1675 L 875,1505 L 850,1505 L 850,1390 Z" /><path d="M 590,1250 L 590,770 L 590,630 L 530,630 L 530,770 L 530,1250 L 530,1390 L 530,1695 L 505,1695 L 505,1865 L 530,1865 L 530,1980 L 530,2120 L 530,2600 L 530,2740 L 590,2740 L 590,2600 L 590,2120 L 590,1980 L 590,1865 L 615,1865 L 615,1695 L 590,1695 L 590,1390 Z" /></g></g><g id="CO"><g class="l30d0"><path d="M 645,800 L 735,800 L 735,890 L 645,890 Z" /><path d="M 645,1130 L 735,1130 L 735,1220 L 645,1220 Z" /><path d="M 385,800 L 475,800 L 475,890 L 385,890 Z" /><path d="M 385,1130 L 475,1130 L 475,1220 L 385,1220 Z" /><path d="M 1685,800 L 1775,800 L 1775,890 L 1685,890 Z" /><path d="M 1685,1130 L 1775,1130 L 1775,1220 L 1685,1220 Z" /><path d="M 1685,2150 L 1775,2150 L 1775,2240 L 1685,2240 Z" /><path d="M 1685,2480 L 1775,2480 L 1775,2570 L 1685,2570 Z" /><path d="M 645,2150 L 735,2150 L 735,2240 L 645,2240 Z" /><path d="M 385,2150 L 475,2150 L 475,2240 L 385,2240 Z" /><path d="M 385,2480 L 475,2480 L 475,2570 L 385,2570 Z" /><path d="M 645,2480 L 735,2480 L 735,2570 L 645,2570 Z" /><path d="M 385,170 L 475,170 L 475,260 L 385,260 Z" /><path d="M 1685,170 L 1775,170 L 1775,260 L 1685,260 Z" /><path d="M 1425,170 L 1515,170 L 1515,260 L 1425,260 Z" /><path d="M 1165,170 L 1255,170 L 1255,260 L 1165,260 Z" /><path d="M 905,170 L 995,170 L 995,260 L 905,260 Z" /><path d="M 645,170 L 735,170 L 735,260 L 645,260 Z" /><path d="M 1685,3110 L 1775,3110 L 1775,3200 L 1685,3200 Z" /><path d="M 1425,3110 L 1515,3110 L 1515,3200 L 1425,3200 Z" /><path d="M 1165,3110 L 1255,3110 L 1255,3200 L 1165,3200 Z" /><path d="M 905,3110 L 995,3110 L 995,3200 L 905,3200 Z" /><path d="M 645,3110 L 735,3110 L 735,3200 L 645,3200 Z" /><path d="M 385,3110 L 475,3110 L 475,3200 L 385,3200 Z" /><path d="M 905,1130 L 995,1130 L 995,1220 L 905,1220 Z" /><path d="M 905,800 L 995,800 L 995,890 L 905,890 Z" /><path d="M 1165,1130 L 1255,1130 L 1255,1220 L 1165,1220 Z" /><path d="M 1165,800 L 1255,800 L 1255,890 L 1165,890 Z" /><path d="M 1425,1130 L 1515,1130 L 1515,1220 L 1425,1220 Z" /><path d="M 1425,800 L 1515,800 L 1515,890 L 1425,890 Z" /><path d="M 905,2480 L 995,2480 L 995,2570 L 905,2570 Z" /><path d="M 905,2150 L 995,2150 L 995,2240 L 905,2240 Z" /><path d="M 1165,2480 L 1255,2480 L 1255,2570 L 1165,2570 Z" /><path d="M 1165,2150 L 1255,2150 L 1255,2240 L 1165,2240 Z" /><path d="M 1425,2480 L 1515,2480 L 1515,2570 L 1425,2570 Z" /><path d="M 1425,2150 L 1515,2150 L 1515,2240 L 1425,2240 Z" /><path d="M 1555,1545 L 1645,1545 L 1645,1635 L 1555,1635 Z" /><path d="M 1295,1545 L 1385,1545 L 1385,1635 L 1295,1635 Z" /><path d="M 1035,1545 L 1125,1545 L 1125,1635 L 1035,1635 Z" /><path d="M 775,1545 L 865,1545 L 865,1635 L 775,1635 Z" /><path d="M 515,1735 L 605,1735 L 605,1825 L 515,1825 Z" /></g></g><g id="M1"><g class="l31d0"><path d="M 640,310 L 640,1125 L 640,1260 L 740,1260 L 740,1125 L 740,310 L 1160,310 L 1160,760 L 1160,895 L 1160,1125 L 1160,1260 L 1165,1260 L 1255,1260 L 1260,1260 L 1260,1125 L 1260,895 L 1260,760 L 1260,310 L 1680,310 L 1680,1125 L 1680,1260 L 1780,1260 L 1780,1125 L 1780,310 L 1870,310 L 1870,120 L 290,120 L 290,310 Z" /><path d="M 1870,3060 L 1780,3060 L 1780,2245 L 1780,2110 L 1680,2110 L 1680,2245 L 1680,3060 L 1260,3060 L 1260,2245 L 1260,2110 L 1255,2110 L 1165,2110 L 1160,2110 L 1160,2245 L 1160,3060 L 740,3060 L 740,2245 L 740,2110 L 640,2110 L 640,2245 L 640,3060 L 290,3060 L 290,3250 L 1870,3250 Z" /><path d="M 480,1260 L 480,1125 L 480,1100 L 480,920 L 480,895 L 480,760 L 380,760 L 380,895 L 380,920 L 380,1100 L 380,1125 L 380,1260 Z" /><path d="M 905,1260 L 995,1260 L 1000,1260 L 1000,1125 L 1000,1100 L 1000,920 L 1000,895 L 1000,760 L 995,760 L 905,760 L 900,760 L 900,895 L 900,920 L 900,1100 L 900,1125 L 900,1260 Z" /><path d="M 1425,1260 L 1515,1260 L 1520,1260 L 1520,1125 L 1520,1100 L 1520,920 L 1520,895 L 1520,760 L 1515,760 L 1425,760 L 1420,760 L 1420,895 L 1420,920 L 1420,1100 L 1420,1125 L 1420,1260 Z" /><path d="M 1515,2110 L 1425,2110 L 1420,2110 L 1420,2245 L 1420,2270 L 1420,2450 L 1420,2475 L 1420,2610 L 1425,2610 L 1515,2610 L 1520,2610 L 1520,2475 L 1520,2450 L 1520,2270 L 1520,2245 L 1520,2110 Z" /><path d="M 995,2110 L 905,2110 L 900,2110 L 900,2245 L 900,2270 L 900,2450 L 900,2475 L 900,2610 L 905,2610 L 995,2610 L 1000,2610 L 1000,2475 L 1000,2450 L 1000,2270 L 1000,2245 L 1000,2110 Z" /><path d="M 380,2110 L 380,2245 L 380,2270 L 380,2450 L 380,2475 L 380,2610 L 480,2610 L 480,2475 L 480,2450 L 480,2270 L 480,2245 L 480,2110 Z" /><path d="M 350,1730 L 350,1830 L 475,1830 L 645,1830 L 770,1830 L 770,1730 L 645,1730 L 475,1730 Z" /><path d="M 1040,1920 L 950,1920 L 860,1920 L 860,2020 L 950,2020 L 1040,2020 L 1380,2020 L 1470,2020 L 1560,2020 L 1560,1920 L 1470,1920 L 1380,1920 Z" /><path d="M 1515,1640 L 1600,1640 L 1685,1640 L 1685,1540 L 1600,1540 L 1515,1540 L 1425,1540 L 1340,1540 L 1255,1540 L 1165,1540 L 1080,1540 L 995,1540 L 905,1540 L 820,1540 L 735,1540 L 520,1540 L 430,1540 L 340,1540 L 340,1640 L 430,1640 L 520,1640 L 735,1640 L 820,1640 L 905,1640 L 995,1640 L 1080,1640 L 1165,1640 L 1255,1640 L 1340,1640 L 1425,1640 Z" /></g></g><g id="VIA1"><g class="l51d0"><path d="M 380,960 L 480,960 L 480,1060 L 380,1060 Z" /><path d="M 900,960 L 1000,960 L 1000,1060 L 900,1060 Z" /><path d="M 1420,960 L 1520,960 L 1520,1060 L 1420,1060 Z" /><path d="M 1420,2310 L 1520,2310 L 1520,2410 L 1420,2410 Z" /><path d="M 900,2310 L 1000,2310 L 1000,2410 L 900,2410 Z" /><path d="M 380,2310 L 480,2310 L 480,2410 L 380,2410 Z" /><path d="M 1420,1920 L 1520,1920 L 1520,2020 L 1420,2020 Z" /><path d="M 900,1920 L 1000,1920 L 1000,2020 L 900,2020 Z" /><path d="M 380,1540 L 480,1540 L 480,1640 L 380,1640 Z" /></g></g><g id="M2"><g class="l32d0"><path d="M 1420,2360 L 1420,2450 L 1520,2450 L 1520,2360 L 1520,2270 L 1520,2060 L 1520,1880 L 1520,1100 L 1520,1010 L 1520,920 L 1420,920 L 1420,1010 L 1420,1100 L 1420,1880 L 1420,2060 L 1420,2270 Z" /><path d="M 1000,2060 L 1000,1880 L 1000,1100 L 1000,1010 L 1000,920 L 900,920 L 900,1010 L 900,1100 L 900,1880 L 900,2060 L 900,2270 L 900,2360 L 900,2450 L 1000,2450 L 1000,2360 L 1000,2270 Z" /><path d="M 380,1680 L 380,2270 L 380,2360 L 380,2450 L 480,2450 L 480,2360 L 480,2270 L 480,1680 L 480,1590 L 480,1500 L 480,1100 L 480,1010 L 480,920 L 380,920 L 380,1010 L 380,1100 L 380,1500 L 380,1590 Z" /></g></g></g></svg>