<svg width="5290" height="3550" viewBox="-175 -3545 5290 3550" xmlns="http://www.w3.org/2000/svg" xmlns:xlink="http://www.w3.org/1999/xlink"><defs><style type="text/css">.l3d0 {fill: #fef9e7; fill-opacity: 0.5; stroke-width: 10; stroke: #f1c40f; stroke-linecap: round; stroke-linejoin: round; stroke-opacity: 0.2;}.l25d0 {fill: #8e44ad; fill-opacity: 0.05; stroke-width: 10; stroke: #8e44ad; stroke-linecap: round; stroke-linejoin: round; stroke-opacity: 1;}.l26d0 {fill: #ccd1d1; fill-opacity: 0.05; stroke-width: 10; stroke: #ccd1d1; stroke-linecap: round; stroke-linejoin: round; stroke-opacity: 1;}.l6d0 {fill: #f5b7b1; fill-opacity: 1; stroke-width: 10; stroke: #e74c3c; stroke-linecap: round; stroke-linejoin: round; stroke-opacity: 1;}.l17d0 {fill: #2980b9; fill-opacity: 1; stroke-width: 0; stroke: #000000; stroke-linecap: round; stroke-linejoin: round; stroke-opacity: 0;}.l30d0 {fill: #27ae60; fill-opacity: 1; stroke-width: 0; stroke: #000000; stroke-linecap: round; stroke-linejoin: round; stroke-opacity: 0;}.l31d0 {fill: #85c1e9; fill-opacity: 0.6; stroke-width: 0; stroke: #000000; stroke-linecap: round; stroke-linejoin: round; stroke-opacity: 0;}.l51d0 {fill: #f39c12; fill-opacity: 1; stroke-width: 10; stroke: #f39c12; stroke-linecap: round; stroke-linejoin: round; stroke-opacity: 1;}.l32d0 {fill: #f7dc6f; fill-opacity: 0.6; stroke-width: 0; stroke: #000000; stroke-linecap: round; stroke-linejoin: round; stroke-opacity: 0;}.l52d0 {fill: #a04000; fill-opacity: 1; stroke-width: 10; stroke: #a04000; stroke-linecap: round; stroke-linejoin: round; stroke-opacity: 1;}.l33d0 {fill: #16a085; fill-opacity: 0.6; stroke-width: 0; stroke: #000000; stroke-linecap: round; stroke-linejoin: round; stroke-opacity: 0;}path {fill-rule: evenodd;}</style></defs><g transform="scale(1 -1)"><g id="NW"><g class="l3d0"><path d="M -170,3540 L 5110,3540 L 5110,1900 L 3575,1900 L 3315,1900 L 3055,1900 L 2925,1900 L 2795,1900 L 2665,1900 L 2405,1900 L 2145,1900 L -170,1900 Z" /></g></g><g id="PP"><g class="l25d0"><path d="M 0,0 L 4940,0 L 4940,430 L 0,430 Z" /><path d="M 4785,2940 L 4940,2940 L 4940,1685 L 0,1685 L 0,2940 L 155,2940 L 415,2940 L 625,2940 L 675,2940 L 885,2940 L 935,2940 L 1145,2940 L 1195,2940 L 1405,2940 L 1665,2940 L 1715,2940 L 1975,2940 L 2185,2940 L 2235,2940 L 2445,2940 L 2495,2940 L 2705,2940 L 2755,2940 L 2965,2940 L 3015,2940 L 3225,2940 L 3485,2940 L 3535,2940 L 3795,2940 L 4005,2940 L 4055,2940 L 4265,2940 L 4315,2940 L 4525,2940 Z" /></g></g><g id="NP"><g class="l26d0"><path d="M 0,2940 L 4940,2940 L 4940,3370 L 0,3370 Z" /><path d="M 3015,430 L 2965,430 L 2755,430 L 2705,430 L 2495,430 L 2445,430 L 2235,430 L 2185,430 L 1975,430 L 1715,430 L 1665,430 L 1405,430 L 1195,430 L 1145,430 L 935,430 L 885,430 L 675,430 L 625,430 L 415,430 L 155,430 L 0,430 L 0,1685 L 4940,1685 L 4940,430 L 4785,430 L 4525,430 L 4315,430 L 4265,430 L 4055,430 L 4005,430 L 3795,430 L 3535,430 L 3485,430 L 3225,430 Z" /></g></g><g id="OD"><g class="l6d0"><path d="M 130,130 L 4810,130 L 4810,300 L 130,300 Z" /><path d="M 130,3070 L 4810,3070 L 4810,3240 L 130,3240 Z" /><path d="M 4320,770 L 4260,770 L 4185,770 L 4135,770 L 4060,770 L 4000,770 L 3925,770 L 3925,1010 L 4000,1010 L 4060,1010 L 4135,1010 L 4185,1010 L 4260,1010 L 4320,1010 L 4395,1010 L 4445,1010 L 4520,1010 L 4580,1010 L 4655,1010 L 4740,1010 L 4740,770 L 4655,770 L 4580,770 L 4520,770 L 4445,770 L 4395,770 Z" /><path d="M 3924,1010 L 3924,770 L 3875,770 L 3800,770 L 3740,770 L 3665,770 L 3580,770 L 3580,1010 L 3665,1010 L 3740,1010 L 3800,1010 L 3875,1010 Z" /><path d="M 4320,2360 L 4260,2360 L 4185,2360 L 4135,2360 L 4060,2360 L 4000,2360 L 3925,2360 L 3925,2600 L 4000,2600 L 4060,2600 L 4135,2600 L 4185,2600 L 4260,2600 L 4320,2600 L 4395,2600 L 4445,2600 L 4520,2600 L 4580,2600 L 4655,2600 L 4740,2600 L 4740,2360 L 4655,2360 L 4580,2360 L 4520,2360 L 4445,2360 L 4395,2360 Z" /><path d="M 3580,2360 L 3580,2600 L 3665,2600 L 3740,2600 L 3800,2600 L 3875,2600 L 3924,2600 L 3924,2360 L 3875,2360 L 3800,2360 L 3740,2360 L 3665,2360 Z" /><path d="M 805,2360 L 755,2360 L 680,2360 L 620,2360 L 545,2360 L 495,2360 L 420,2360 L 360,2360 L 285,2360 L 200,2360 L 200,2600 L 285,2600 L 360,2600 L 420,2600 L 495,2600 L 545,2600 L 620,2600 L 680,2600 L 755,2600 L 805,2600 L 880,2600 L 940,2600 L 1015,2600 L 1065,2600 L 1140,2600 L 1200,2600 L 1275,2600 L 1325,2600 L 1400,2600 L 1460,2600 L 1535,2600 L 1620,2600 L 1620,2360 L 1535,2360 L 1460,2360 L 1400,2360 L 1325,2360 L 1275,2360 L 1200,2360 L 1140,2360 L 1065,2360 L 1015,2360 L 940,2360 L 880,2360 Z" /><path d="M 3220,1130 L 3280,1130 L 3355,1130 L 3440,1130 L 3440,770 L 3355,770 L 3280,770 L 3220,770 L 3145,770 L 3095,770 L 3020,770 L 2960,770 L 2885,770 L 2835,770 L 2760,770 L 2700,770 L 2625,770 L 2575,770 L 2500,770 L 2440,770 L 2365,770 L 2315,770 L 2240,770 L 2180,770 L 2105,770 L 2055,770 L 1980,770 L 1920,770 L 1845,770 L 1760,770 L 1760,1010 L 1845,1010 L 1920,1010 L 1980,1010 L 2055,1010 L 2105,1010 L 2180,1010 L 2240,1010 L 2315,1010 L 2315,1130 L 2365,1130 L 2440,1130 L 2500,1130 L 2575,1130 L 2625,1130 L 2700,1130 L 2760,1130 L 2835,1130 L 2885,1130 L 2960,1130 L 3020,1130 L 3095,1130 L 3145,1130 Z" /><path d="M 755,1010 L 755,1130 L 805,1130 L 880,1130 L 940,1130 L 1015,1130 L 1065,1130 L 1140,1130 L 1200,1130 L 1275,1130 L 1325,1130 L 1400,1130 L 1460,1130 L 1535,1130 L 1620,1130 L 1620,770 L 1535,770 L 1460,770 L 1400,770 L 1325,770 L 1275,770 L 1200,770 L 1140,770 L 1065,770 L 1015,770 L 940,770 L 880,770 L 805,770 L 755,770 L 680,770 L 620,770 L 545,770 L 495,770 L 420,770 L 360,770 L 285,770 L 200,770 L 200,1010 L 285,1010 L 360,1010 L 420,1010 L 495,1010 L 545,1010 L 620,1010 L 680,1010 Z" /><path d="M 3220,2600 L 3280,2600 L 3355,2600 L 3440,2600 L 3440,2120 L 3355,2120 L 3280,2120 L 3220,2120 L 3145,2120 L 3095,2120 L 3020,2120 L 2960,2120 L 2885,2120 L 2835,2120 L 2760,2120 L 2700,2120 L 2625,2120 L 2575,2120 L 2500,2120 L 2440,2120 L 2365,2120 L 2315,2120 L 2315,2360 L 2240,2360 L 2180,2360 L 2105,2360 L 2055,2360 L 1980,2360 L 1920,2360 L 1845,2360 L 1760,2360 L 1760,2600 L 1845,2600 L 1920,2600 L 1980,2600 L 2055,2600 L 2105,2600 L 2180,2600 L 2240,2600 L 2315,2600 L 2365,2600 L 2440,2600 L 2500,2600 L 2575,2600 L 2625,2600 L 2700,2600 L 2760,2600 L 2835,2600 L 2885,2600 L 2960,2600 L 3020,2600 L 3095,2600 L 3145,2600 Z" /></g></g><g id="PO"><g class="l17d0"><path d="M 420,1010 L 420,770 L 420,630 L 360,630 L 360,770 L 360,1010 L 360,1150 L 360,1505 L 335,1505 L 335,1675 L 360,1675 L 360,2220 L 360,2360 L 360,2600 L 360,2740 L 420,2740 L 420,2600 L 420,2360 L 420,2220 L 420,1675 L 445,1675 L 445,1505 L 420,1505 L 420,1150 Z" /><path d="M 1980,1010 L 1980,770 L 1980,630 L 1920,630 L 1920,770 L 1920,1010 L 1920,1150 L 1920,1400 L 1920,2110 L 1895,2110 L 1895,2280 L 1920,2280 L 1920,2360 L 1920,2600 L 1920,2740 L 1980,2740 L 1980,2600 L 1980,2360 L 1980,2280 L 2005,2280 L 2005,2110 L 1980,2110 L 1980,1400 L 1980,1150 Z" /><path d="M 620,2360 L 620,2600 L 620,2740 L 680,2740 L 680,2600 L 680,2360 L 680,2220 L 680,2055 L 705,2055 L 705,1885 L 680,1885 L 680,1150 L 680,1010 L 680,770 L 680,630 L 620,630 L 620,770 L 620,1010 L 620,1150 L 620,1885 L 595,1885 L 595,2055 L 620,2055 L 620,2220 Z" /><path d="M 880,2360 L 880,2600 L 880,2740 L 940,2740 L 940,2600 L 940,2360 L 940,2220 L 940,1865 L 970,1865 L 970,1695 L 940,1695 L 940,1270 L 940,1130 L 940,770 L 940,630 L 880,630 L 880,770 L 880,1130 L 880,1270 L 880,1695 L 850,1695 L 850,1865 L 880,1865 L 880,2220 Z" /><path d="M 2500,1130 L 2500,770 L 2500,630 L 2440,630 L 2440,770 L 2440,1130 L 2440,1270 L 2440,1315 L 2410,1315 L 2410,1485 L 2440,1485 L 2440,1980 L 2440,2120 L 2440,2600 L 2440,2740 L 2500,2740 L 2500,2600 L 2500,2120 L 2500,1980 L 2500,1485 L 2530,1485 L 2530,1315 L 2500,1315 L 2500,1270 Z" /><path d="M 2760,1270 L 2760,1130 L 2760,770 L 2760,630 L 2700,630 L 2700,770 L 2700,1130 L 2700,1270 L 2700,1695 L 2670,1695 L 2670,1865 L 2700,1865 L 2700,1980 L 2700,2120 L 2700,2600 L 2700,2740 L 2760,2740 L 2760,2600 L 2760,2120 L 2760,1980 L 2759,1980 L 2759,1865 L 2790,1865 L 2790,1695 L 2759,1695 L 2759,1270 Z" /><path d="M 2240,1150 L 2240,1010 L 2240,770 L 2240,630 L 2180,630 L 2180,770 L 2180,1010 L 2180,1150 L 2180,1695 L 2150,1695 L 2150,1865 L 2180,1865 L 2180,2220 L 2180,2360 L 2180,2600 L 2180,2740 L 2240,2740 L 2240,2600 L 2240,2360 L 2240,2220 L 2239,2220 L 2239,1865 L 2270,1865 L 2270,1695 L 2239,1695 L 2239,1150 Z" /><path d="M 1400,2360 L 1400,2600 L 1400,2740 L 1460,2740 L 1460,2600 L 1460,2360 L 1460,2220 L 1460,1865 L 1490,1865 L 1490,1695 L 1460,1695 L 1460,1270 L 1460,1130 L 1460,770 L 1460,630 L 1400,630 L 1400,770 L 1400,1130 L 1400,1270 L 1400,1695 L 1370,1695 L 1370,1865 L 1400,1865 L 1400,2220 Z" /><path d="M 1140,2360 L 1140,2600 L 1140,2740 L 1200,2740 L 1200,2600 L 1200,2360 L 1200,2220 L 1200,1485 L 1230,1485 L 1230,1315 L 1200,1315 L 1200,1270 L 1200,1130 L 1200,770 L 1200,630 L 1140,630 L 1140,770 L 1140,1130 L 1140,1270 L 1140,1315 L 1110,1315 L 1110,1485 L 1140,1485 L 1140,2220 Z" /><path d="M 3280,1270 L 3280,1130 L 3280,770 L 3280,630 L 3220,630 L 3220,770 L 3220,1130 L 3220,1270 L 3220,1505 L 3190,1505 L 3190,1675 L 3220,1675 L 3220,1980 L 3220,2120 L 3220,2600 L 3220,2740 L 3280,2740 L 3280,2600 L 3280,2120 L 3280,1980 L 3279,1980 L 3279,1675 L 3310,1675 L 3310,1505 L 3279,1505 L 3279,1270 Z" /><path d="M 4320,1010 L 4320,770 L 4320,630 L 4260,630 L 4260,770 L 4260,1010 L 4260,1150 L 4260,2110 L 4230,2110 L 4230,2280 L 4260,2280 L 4260,2360 L 4260,2600 L 4260,2740 L 4320,2740 L 4320,2600 L 4320,2360 L 4320,2280 L 4350,2280 L 4350,2110 L 4320,2110 L 4320,1150 Z" /><path d="M 3020,1130 L 3020,770 L 3020,630 L 2960,630 L 2960,770 L 2960,1130 L 2960,1270 L 2960,1885 L 2930,1885 L 2930,2055 L 2960,2055 L 2960,2120 L 2960,2600 L 2960,2740 L 3020,2740 L 3020,2600 L 3020,2120 L 3020,2055 L 3050,2055 L 3050,1885 L 3020,1885 L 3020,1270 Z" /><path d="M 4520,2220 L 4520,2360 L 4520,2600 L 4520,2740 L 4580,2740 L 4580,2600 L 4580,2360 L 4580,2220 L 4580,1865 L 4610,1865 L 4610,1695 L 4580,1695 L 4580,1150 L 4580,1010 L 4580,770 L 4580,630 L 4520,630 L 4520,770 L 4520,1010 L 4520,1150 L 4519,1150 L 4519,1695 L 4490,1695 L 4490,1865 L 4519,1865 L 4519,2220 Z" /><path d="M 4060,1010 L 4060,770 L 4060,630 L 4000,630 L 4000,770 L 4000,1010 L 4000,1150 L 4000,1505 L 3970,1505 L 3970,1675 L 4000,1675 L 4000,2220 L 4000,2360 L 4000,2600 L 4000,2740 L 4060,2740 L 4060,2600 L 4060,2360 L 4060,2220 L 4060,1675 L 4090,1675 L 4090,1505 L 4060,1505 L 4060,1150 Z" /><path d="M 3800,1150 L 3800,1010 L 3800,770 L 3800,630 L 3740,630 L 3740,770 L 3740,1010 L 3740,1150 L 3740,1885 L 3710,1885 L 3710,2055 L 3740,2055 L 3740,2220 L 3740,2360 L 3740,2600 L 3740,2740 L 3800,2740 L 3800,2600 L 3800,2360 L 3800,2220 L 3799,2220 L 3799,2055 L 3830,2055 L 3830,1885 L 3799,1885 L 3799,1150 Z" /></g></g><g id="CO"><g class="l30d0"><path d="M 3075,2480 L 3165,2480 L 3165,2570 L 3075,2570 Z" /><path d="M 2555,2480 L 2645,2480 L 2645,2570 L 2555,2570 Z" /><path d="M 4375,2435 L 4465,2435 L 4465,2525 L 4375,2525 Z" /><path d="M 4115,2435 L 4205,2435 L 4205,2525 L 4115,2525 Z" /><path d="M 3855,2435 L 3945,2435 L 3945,2525 L 3855,2525 Z" /><path d="M 2815,2150 L 2905,2150 L 2905,2240 L 2815,2240 Z" /><path d="M 2815,2480 L 2905,2480 L 2905,2570 L 2815,2570 Z" /><path d="M 4635,170 L 4725,170 L 4725,260 L 4635,260 Z" /><path d="M 4375,170 L 4465,170 L 4465,260 L 4375,260 Z" /><path d="M 4115,170 L 4205,170 L 4205,260 L 4115,260 Z" /><path d="M 3855,170 L 3945,170 L 3945,260 L 3855,260 Z" /><path d="M 3595,170 L 3685,170 L 3685,260 L 3595,260 Z" /><path d="M 3335,170 L 3425,170 L 3425,260 L 3335,260 Z" /><path d="M 3075,170 L 3165,170 L 3165,260 L 3075,260 Z" /><path d="M 2815,170 L 2905,170 L 2905,260 L 2815,260 Z" /><path d="M 2555,170 L 2645,170 L 2645,260 L 2555,260 Z" /><path d="M 2295,170 L 2385,170 L 2385,260 L 2295,260 Z" /><path d="M 2035,170 L 2125,170 L 2125,260 L 2035,260 Z" /><path d="M 1775,170 L 1865,170 L 1865,260 L 1775,260 Z" /><path d="M 1515,170 L 1605,170 L 1605,260 L 1515,260 Z" /><path d="M 1255,170 L 1345,170 L 1345,260 L 1255,260 Z" /><path d="M 995,170 L 1085,170 L 1085,260 L 995,260 Z" /><path d="M 735,170 L 825,170 L 825,260 L 735,260 Z" /><path d="M 475,170 L 565,170 L 565,260 L 475,260 Z" /><path d="M 215,170 L 305,170 L 305,260 L 215,260 Z" /><path d="M 4635,3110 L 4725,3110 L 4725,3200 L 4635,3200 Z" /><path d="M 475,2435 L 565,2435 L 565,2525 L 475,2525 Z" /><path d="M 1255,2435 L 1345,2435 L 1345,2525 L 1255,2525 Z" /><path d="M 995,2435 L 1085,2435 L 1085,2525 L 995,2525 Z" /><path d="M 735,2435 L 825,2435 L 825,2525 L 735,2525 Z" /><path d="M 1255,3110 L 1345,3110 L 1345,3200 L 1255,3200 Z" /><path d="M 215,3110 L 305,3110 L 305,3200 L 215,3200 Z" /><path d="M 475,3110 L 565,3110 L 565,3200 L 475,3200 Z" /><path d="M 735,3110 L 825,3110 L 825,3200 L 735,3200 Z" /><path d="M 995,3110 L 1085,3110 L 1085,3200 L 995,3200 Z" /><path d="M 4375,3110 L 4465,3110 L 4465,3200 L 4375,3200 Z" /><path d="M 3075,3110 L 3165,3110 L 3165,3200 L 3075,3200 Z" /><path d="M 3335,3110 L 3425,3110 L 3425,3200 L 3335,3200 Z" /><path d="M 3595,3110 L 3685,3110 L 3685,3200 L 3595,3200 Z" /><path d="M 3855,3110 L 3945,3110 L 3945,3200 L 3855,3200 Z" /><path d="M 4115,3110 L 4205,3110 L 4205,3200 L 4115,3200 Z" /><path d="M 2035,2435 L 2125,2435 L 2125,2525 L 2035,2525 Z" /><path d="M 2815,3110 L 2905,3110 L 2905,3200 L 2815,3200 Z" /><path d="M 1515,3110 L 1605,3110 L 1605,3200 L 1515,3200 Z" /><path d="M 1775,3110 L 1865,3110 L 1865,3200 L 1775,3200 Z" /><path d="M 2035,3110 L 2125,3110 L 2125,3200 L 2035,3200 Z" /><path d="M 2295,3110 L 2385,3110 L 2385,3200 L 2295,3200 Z" /><path d="M 2555,3110 L 2645,3110 L 2645,3200 L 2555,3200 Z" /><path d="M 4635,845 L 4725,845 L 4725,935 L 4635,935 Z" /><path d="M 3595,845 L 3685,845 L 3685,935 L 3595,935 Z" /><path d="M 3335,1010 L 3425,1010 L 3425,1100 L 3335,1100 Z" /><path d="M 3335,800 L 3425,800 L 3425,890 L 3335,890 Z" /><path d="M 2555,800 L 2645,800 L 2645,890 L 2555,890 Z" /><path d="M 2295,845 L 2385,845 L 2385,935 L 2295,935 Z" /><path d="M 1775,845 L 1865,845 L 1865,935 L 1775,935 Z" /><path d="M 1515,1010 L 1605,1010 L 1605,1100 L 1515,1100 Z" /><path d="M 1515,800 L 1605,800 L 1605,890 L 1515,890 Z" /><path d="M 4115,845 L 4205,845 L 4205,935 L 4115,935 Z" /><path d="M 215,845 L 305,845 L 305,935 L 215,935 Z" /><path d="M 215,2435 L 305,2435 L 305,2525 L 215,2525 Z" /><path d="M 4635,2435 L 4725,2435 L 4725,2525 L 4635,2525 Z" /><path d="M 3595,2435 L 3685,2435 L 3685,2525 L 3595,2525 Z" /><path d="M 3335,2150 L 3425,2150 L 3425,2240 L 3335,2240 Z" /><path d="M 2555,1010 L 2645,1010 L 2645,1100 L 2555,1100 Z" /><path d="M 2295,2435 L 2385,2435 L 2385,2525 L 2295,2525 Z" /><path d="M 1775,2435 L 1865,2435 L 1865,2525 L 1775,2525 Z" /><path d="M 1515,2435 L 1605,2435 L 1605,2525 L 1515,2525 Z" /><path d="M 735,845 L 825,845 L 825,935 L 735,935 Z" /><path d="M 3335,2480 L 3425,2480 L 3425,2570 L 3335,2570 Z" /><path d="M 345,1545 L 435,1545 L 435,1635 L 345,1635 Z" /><path d="M 1905,2150 L 1995,2150 L 1995,2240 L 1905,2240 Z" /><path d="M 605,1925 L 695,1925 L 695,2015 L 605,2015 Z" /><path d="M 865,1735 L 955,1735 L 955,1825 L 865,1825 Z" /><path d="M 2425,1355 L 2515,1355 L 2515,1445 L 2425,1445 Z" /><path d="M 2685,1735 L 2775,1735 L 2775,1825 L 2685,1825 Z" /><path d="M 2165,1735 L 2255,1735 L 2255,1825 L 2165,1825 Z" /><path d="M 1385,1735 L 1475,1735 L 1475,1825 L 1385,1825 Z" /><path d="M 1125,1355 L 1215,1355 L 1215,1445 L 1125,1445 Z" /><path d="M 3205,1545 L 3295,1545 L 3295,1635 L 3205,1635 Z" /><path d="M 4245,2150 L 4335,2150 L 4335,2240 L 4245,2240 Z" /><path d="M 2945,1925 L 3035,1925 L 3035,2015 L 2945,2015 Z" /><path d="M 4505,1735 L 4595,1735 L 4595,1825 L 4505,1825 Z" /><path d="M 3985,1545 L 4075,1545 L 4075,1635 L 3985,1635 Z" /><path d="M 3725,1925 L 3815,1925 L 3815,2015 L 3725,2015 Z" /></g></g><g id="M1"><g class="l31d0"><path d="M 3070,2575 L 3070,2700 L 2650,2700 L 2650,2575 L 2650,2440 L 2550,2440 L 2550,2575 L 2550,2700 L 2550,2800 L 2650,2800 L 3070,2800 L 3170,2800 L 3170,2700 L 3170,2575 L 3170,2440 L 3070,2440 Z" /><path d="M 830,310 L 2290,310 L 2290,840 L 2290,975 L 2390,975 L 2390,840 L 2390,310 L 3330,310 L 3330,795 L 3330,1140 L 3430,1140 L 3430,795 L 3430,310 L 4110,310 L 4110,840 L 4110,975 L 4210,975 L 4210,840 L 4210,310 L 4820,310 L 4820,120 L 120,120 L 120,310 L 730,310 L 730,840 L 730,975 L 830,975 L 830,840 Z" /><path d="M 4110,2395 L 4110,2530 L 4110,3060 L 3690,3060 L 3690,2530 L 3690,2395 L 3590,2395 L 3590,2530 L 3590,3060 L 2390,3060 L 2390,2530 L 2390,2395 L 2290,2395 L 2290,2530 L 2290,3060 L 1870,3060 L 1870,2530 L 1870,2395 L 1770,2395 L 1770,2530 L 1770,3060 L 1350,3060 L 1350,2530 L 1350,2395 L 1250,2395 L 1250,2530 L 1250,3060 L 830,3060 L 830,2530 L 830,2395 L 730,2395 L 730,2530 L 730,3060 L 310,3060 L 310,2530 L 310,2395 L 210,2395 L 210,2530 L 210,3060 L 120,3060 L 120,3250 L 4820,3250 L 4820,3060 L 4730,3060 L 4730,2530 L 4730,2395 L 4630,2395 L 4630,2530 L 4630,3060 L 4210,3060 L 4210,2530 L 4210,2395 Z" /><path d="M 2030,2390 L 2030,2570 L 2030,2810 L 2130,2810 L 2130,2570 L 2130,2390 Z" /><path d="M 1610,720 L 1510,720 L 1510,860 L 1510,1040 L 1510,1140 L 1610,1140 L 1610,1040 L 1610,860 Z" /><path d="M 470,2390 L 470,2570 L 470,2810 L 570,2810 L 570,2570 L 570,2390 Z" /><path d="M 3850,2390 L 3850,2570 L 3850,2810 L 3950,2810 L 3950,2570 L 3950,2390 Z" /><path d="M 4370,2390 L 4370,2570 L 4370,2810 L 4470,2810 L 4470,2570 L 4470,2390 Z" /><path d="M 2650,720 L 2550,720 L 2550,860 L 2550,1040 L 2550,1140 L 2650,1140 L 2650,1040 L 2650,860 Z" /><path d="M 1735,940 L 1870,940 L 1990,940 L 2080,940 L 2170,940 L 2170,840 L 2080,840 L 1990,840 L 1870,840 L 1735,840 Z" /><path d="M 175,940 L 430,940 L 520,940 L 610,940 L 610,840 L 520,840 L 430,840 L 175,840 Z" /><path d="M 3555,940 L 3690,940 L 3810,940 L 3900,940 L 3990,940 L 3990,840 L 3900,840 L 3810,840 L 3690,840 L 3555,840 Z" /><path d="M 4765,840 L 4630,840 L 4510,840 L 4420,840 L 4330,840 L 4330,940 L 4420,940 L 4510,940 L 4630,940 L 4765,940 Z" /><path d="M 2580,1830 L 2645,1830 L 2770,1830 L 2815,1830 L 2950,1830 L 3000,1830 L 3000,1730 L 2950,1730 L 2815,1730 L 2770,1730 L 2645,1730 L 2580,1730 Z" /><path d="M 1105,1830 L 1210,1830 L 1345,1830 L 1390,1830 L 1515,1830 L 1525,1830 L 1525,1730 L 1515,1730 L 1390,1730 L 1345,1730 L 1210,1730 L 1105,1730 Z" /><path d="M 1085,1450 L 1170,1450 L 1255,1450 L 1255,1350 L 1170,1350 L 1085,1350 L 610,1350 L 520,1350 L 430,1350 L 430,1450 L 520,1450 L 610,1450 Z" /><path d="M 475,1540 L 390,1540 L 305,1540 L 305,1640 L 390,1640 L 475,1640 L 1990,1640 L 2080,1640 L 2170,1640 L 3165,1640 L 3250,1640 L 3335,1640 L 3335,1540 L 3250,1540 L 3165,1540 L 2170,1540 L 2080,1540 L 1990,1540 Z" /><path d="M 2775,2245 L 2810,2245 L 2810,2475 L 2810,2610 L 2910,2610 L 2910,2475 L 2910,2245 L 3330,2245 L 3330,2475 L 3330,2610 L 3430,2610 L 3430,2475 L 3430,2245 L 3465,2245 L 3465,2244 L 4205,2244 L 4205,2245 L 4375,2245 L 4375,2145 L 4290,2145 L 4205,2145 L 3465,2145 L 2775,2145 L 2690,2145 L 2600,2145 L 2510,2145 L 2035,2145 L 1950,2145 L 1865,2145 L 1865,2245 L 2035,2245 L 2035,2244 L 2510,2244 L 2510,2245 L 2690,2245 L 2690,2244 L 2775,2244 Z" /><path d="M 4465,1730 L 3990,1730 L 3900,1730 L 3810,1730 L 3810,1830 L 3900,1830 L 3990,1830 L 4465,1830 L 4550,1830 L 4635,1830 L 4635,1730 L 4550,1730 Z" /><path d="M 4115,1640 L 4330,1640 L 4420,1640 L 4510,1640 L 4510,1540 L 4420,1540 L 4330,1540 L 4115,1540 L 4030,1540 L 3945,1540 L 3945,1640 L 4030,1640 Z" /><path d="M 2905,2020 L 3075,2020 L 3685,2020 L 3770,2020 L 3855,2020 L 3855,1920 L 3770,1920 L 3685,1920 L 3075,1920 L 2905,1920 L 1650,1920 L 1560,1920 L 1470,1920 L 735,1920 L 650,1920 L 565,1920 L 565,2020 L 650,2020 L 735,2020 L 990,2020 L 990,2565 L 1090,2565 L 1090,2020 L 1470,2020 L 1510,2020 L 1510,2565 L 1610,2565 L 1610,2020 L 1650,2020 Z" /><path d="M 575,1730 L 575,1830 L 690,1830 L 825,1830 L 870,1830 L 995,1830 L 995,1730 L 870,1730 L 825,1730 L 690,1730 Z" /><path d="M 2260,1350 L 1910,1350 L 1820,1350 L 1730,1350 L 1730,1450 L 1820,1450 L 1910,1450 L 2260,1450 L 2385,1450 L 2555,1450 L 2680,1450 L 2680,1350 L 2555,1350 L 2385,1350 Z" /><path d="M 2010,1730 L 2000,1730 L 2000,1830 L 2010,1830 L 2125,1830 L 2250,1830 L 2295,1830 L 2420,1830 L 2430,1830 L 2430,1730 L 2420,1730 L 2295,1730 L 2250,1730 L 2125,1730 Z" /></g></g><g id="VIA1"><g class="l51d0"><path d="M 2030,2430 L 2130,2430 L 2130,2530 L 2030,2530 Z" /><path d="M 1510,900 L 1610,900 L 1610,1000 L 1510,1000 Z" /><path d="M 470,2430 L 570,2430 L 570,2530 L 470,2530 Z" /><path d="M 3850,2430 L 3950,2430 L 3950,2530 L 3850,2530 Z" /><path d="M 4370,2430 L 4470,2430 L 4470,2530 L 4370,2530 Z" /><path d="M 2550,900 L 2650,900 L 2650,1000 L 2550,1000 Z" /><path d="M 1250,1730 L 1350,1730 L 1350,1830 L 1250,1830 Z" /><path d="M 2810,1730 L 2910,1730 L 2910,1830 L 2810,1830 Z" /><path d="M 2030,1540 L 2130,1540 L 2130,1640 L 2030,1640 Z" /><path d="M 2030,840 L 2130,840 L 2130,940 L 2030,940 Z" /><path d="M 1510,1920 L 1610,1920 L 1610,2020 L 1510,2020 Z" /><path d="M 470,1350 L 570,1350 L 570,1450 L 470,1450 Z" /><path d="M 470,840 L 570,840 L 570,940 L 470,940 Z" /><path d="M 4370,1540 L 4470,1540 L 4470,1640 L 4370,1640 Z" /><path d="M 3850,1730 L 3950,1730 L 3950,1830 L 3850,1830 Z" /><path d="M 3850,840 L 3950,840 L 3950,940 L 3850,940 Z" /><path d="M 4370,840 L 4470,840 L 4470,940 L 4370,940 Z" /><path d="M 2550,2145 L 2650,2145 L 2650,2245 L 2550,2245 Z" /><path d="M 730,1730 L 830,1730 L 830,1830 L 730,1830 Z" /><path d="M 1770,1350 L 1870,1350 L 1870,1450 L 1770,1450 Z" /><path d="M 2290,1730 L 2390,1730 L 2390,1830 L 2290,1830 Z" /></g></g><g id="M2"><g class="l32d0"><path d="M 2130,1590 L 2130,1500 L 2130,980 L 2130,890 L 2130,800 L 2030,800 L 2030,890 L 2030,980 L 2030,1500 L 2030,1590 L 2030,1680 L 2030,2390 L 2030,2480 L 2030,2570 L 2130,2570 L 2130,2480 L 2130,2390 L 2130,1680 Z" /><path d="M 1510,1880 L 1510,1970 L 1510,2060 L 1610,2060 L 1610,1970 L 1610,1880 L 1610,1040 L 1610,950 L 1610,860 L 1510,860 L 1510,950 L 1510,1040 Z" /><path d="M 570,1400 L 570,1310 L 570,980 L 570,890 L 570,800 L 470,800 L 470,890 L 470,980 L 470,1310 L 470,1400 L 470,1490 L 470,2390 L 470,2480 L 470,2570 L 570,2570 L 570,2480 L 570,2390 L 570,1490 Z" /><path d="M 3950,1780 L 3950,1690 L 3950,980 L 3950,890 L 3950,800 L 3850,800 L 3850,890 L 3850,980 L 3850,1690 L 3850,1780 L 3850,1870 L 3850,2390 L 3850,2480 L 3850,2570 L 3950,2570 L 3950,2480 L 3950,2390 L 3950,1870 Z" /><path d="M 2550,2105 L 2550,2195 L 2550,2285 L 2650,2285 L 2650,2195 L 2650,2105 L 2650,1040 L 2650,950 L 2650,860 L 2550,860 L 2550,950 L 2550,1040 Z" /><path d="M 2810,1520 L 2810,1690 L 2810,1695 L 2810,1870 L 2810,1875 L 2810,2040 L 2910,2040 L 2910,1875 L 2910,1870 L 2910,1695 L 2910,1690 L 2910,1520 Z" /><path d="M 1250,1520 L 1250,1690 L 1250,1695 L 1250,1870 L 1250,1875 L 1250,2040 L 1350,2040 L 1350,1875 L 1350,1870 L 1350,1695 L 1350,1690 L 1350,1520 Z" /><path d="M 730,1615 L 730,1690 L 730,1870 L 730,1895 L 730,2075 L 730,2135 L 830,2135 L 830,2075 L 830,1895 L 830,1870 L 830,1690 L 830,1615 Z" /><path d="M 1770,1045 L 1770,1095 L 1770,1275 L 1770,1310 L 1770,1490 L 1770,1565 L 1870,1565 L 1870,1490 L 1870,1310 L 1870,1275 L 1870,1095 L 1870,1045 Z" /><path d="M 4470,1500 L 4470,1475 L 4470,1390 L 4470,1295 L 4470,980 L 4470,890 L 4470,800 L 4370,800 L 4370,890 L 4370,980 L 4370,1295 L 4370,1390 L 4370,1475 L 4370,1500 L 4370,1540 L 4370,1590 L 4370,1680 L 4370,1695 L 4370,1875 L 4370,2390 L 4370,2480 L 4370,2570 L 4470,2570 L 4470,2480 L 4470,2390 L 4470,1875 L 4470,1695 L 4470,1680 L 4470,1590 L 4470,1540 Z" /><path d="M 2290,1475 L 2290,1690 L 2290,1780 L 2290,1870 L 2390,1870 L 2390,1690 L 2389,1690 L 2389,1475 L 2390,1475 L 2390,1295 L 2290,1295 L 2290,1390 Z" /></g></g><g id="VIA2"><g class="l52d0"><path d="M 2810,1735 L 2910,1735 L 2910,1835 L 2810,1835 Z" /><path d="M 1250,1735 L 1350,1735 L 1350,1835 L 1250,1835 Z" /><path d="M 4370,1735 L 4470,1735 L 4470,1835 L 4370,1835 Z" /><path d="M 730,1935 L 830,1935 L 830,2035 L 730,2035 Z" /><path d="M 1770,1135 L 1870,1135 L 1870,1235 L 1770,1235 Z" /><path d="M 4370,1335 L 4470,1335 L 4470,1435 L 4370,1435 Z" /><path d="M 2290,1335 L 2390,1335 L 2390,1435 L 2290,1435 Z" /></g></g><g id="M3"><g class="l33d0"><path d="M 1210,1735 L 130,1735 L 130,1835 L 1210,1835 L 1250,1835 L 1300,1835 L 1390,1835 L 2770,1835 L 2860,1835 L 2950,1835 L 2950,1735 L 2860,1735 L 2770,1735 L 1390,1735 L 1300,1735 L 1250,1735 Z" /><path d="M 4290,1835 L 4330,1835 L 4420,1835 L 4510,1835 L 4810,1835 L 4810,1735 L 4510,1735 L 4420,1735 L 4330,1735 L 4290,1735 Z" /><path d="M 4810,1935 L 870,1935 L 780,1935 L 690,1935 L 130,1935 L 130,2035 L 690,2035 L 780,2035 L 870,2035 L 4810,2035 Z" /><path d="M 4810,1135 L 1910,1135 L 1820,1135 L 1730,1135 L 130,1135 L 130,1235 L 1730,1235 L 1820,1235 L 1910,1235 L 4810,1235 Z" /><path d="M 2430,1335 L 2340,1335 L 2250,1335 L 2250,1435 L 2340,1435 L 2430,1435 L 4330,1435 L 4420,1435 L 4510,1435 L 4510,1335 L 4420,1335 L 4330,1335 Z" /></g></g></g></svg>