<svg width="6070" height="3550" viewBox="-5 -3545 6070 3550" xmlns="http://www.w3.org/2000/svg" xmlns:xlink="http://www.w3.org/1999/xlink"><defs><style type="text/css">.l3d0 {fill: #fef9e7; fill-opacity: 0.5; stroke-width: 10; stroke: #f1c40f; stroke-linecap: round; stroke-linejoin: round; stroke-opacity: 0.2;}.l25d0 {fill: #8e44ad; fill-opacity: 0.05; stroke-width: 10; stroke: #8e44ad; stroke-linecap: round; stroke-linejoin: round; stroke-opacity: 1;}.l26d0 {fill: #ccd1d1; fill-opacity: 0.05; stroke-width: 10; stroke: #ccd1d1; stroke-linecap: round; stroke-linejoin: round; stroke-opacity: 1;}.l6d0 {fill: #f5b7b1; fill-opacity: 1; stroke-width: 10; stroke: #e74c3c; stroke-linecap: round; stroke-linejoin: round; stroke-opacity: 1;}.l17d0 {fill: #2980b9; fill-opacity: 1; stroke-width: 0; stroke: #000000; stroke-linecap: round; stroke-linejoin: round; stroke-opacity: 0;}.l30d0 {fill: #27ae60; fill-opacity: 1; stroke-width: 0; stroke: #000000; stroke-linecap: round; stroke-linejoin: round; stroke-opacity: 0;}.l31d0 {fill: #85c1e9; fill-opacity: 0.6; stroke-width: 0; stroke: #000000; stroke-linecap: round; stroke-linejoin: round; stroke-opacity: 0;}.l51d0 {fill: #f39c12; fill-opacity: 1; stroke-width: 10; stroke: #f39c12; stroke-linecap: round; stroke-linejoin: round; stroke-opacity: 1;}.l32d0 {fill: #f7dc6f; fill-opacity: 0.6; stroke-width: 0; stroke: #000000; stroke-linecap: round; stroke-linejoin: round; stroke-opacity: 0;}.l52d0 {fill: #a04000; fill-opacity: 1; stroke-width: 10; stroke: #a04000; stroke-linecap: round; stroke-linejoin: round; stroke-opacity: 1;}.l33d0 {fill: #16a085; fill-opacity: 0.6; stroke-width: 0; stroke: #000000; stroke-linecap: round; stroke-linejoin: round; stroke-opacity: 0;}path {fill-rule: evenodd;}</style></defs><g transform="scale(1 -1)"><g id="NW"><g class="l3d0"><path d="M 0,1900 L 0,3540 L 6060,3540 L 6060,1900 L 5825,1900 L 5565,1900 L 5175,1900 L 4915,1900 Z" /></g></g><g id="PP"><g class="l25d0"><path d="M 170,0 L 5890,0 L 5890,430 L 170,430 Z" /><path d="M 325,2940 L 585,2940 L 795,2940 L 1055,2940 L 1105,2940 L 1365,2940 L 1575,2940 L 1835,2940 L 1885,2940 L 2145,2940 L 2355,2940 L 2615,2940 L 2665,2940 L 2925,2940 L 3135,2940 L 3185,2940 L 3395,2940 L 3445,2940 L 3655,2940 L 3705,2940 L 3915,2940 L 3965,2940 L 4175,2940 L 4225,2940 L 4435,2940 L 4485,2940 L 4695,2940 L 4955,2940 L 5005,2940 L 5265,2940 L 5475,2940 L 5735,2940 L 5890,2940 L 5890,1685 L 170,1685 L 170,2940 Z" /></g></g><g id="NP"><g class="l26d0"><path d="M 170,2940 L 5890,2940 L 5890,3370 L 170,3370 Z" /><path d="M 5735,430 L 5475,430 L 5265,430 L 5005,430 L 4955,430 L 4695,430 L 4485,430 L 4435,430 L 4225,430 L 4175,430 L 3965,430 L 3915,430 L 3705,430 L 3655,430 L 3445,430 L 3395,430 L 3185,430 L 3135,430 L 2925,430 L 2665,430 L 2615,430 L 2355,430 L 2145,430 L 1885,430 L 1835,430 L 1575,430 L 1365,430 L 1105,430 L 1055,430 L 795,430 L 585,430 L 325,430 L 170,430 L 170,1685 L 5890,1685 L 5890,430 Z" /></g></g><g id="OD"><g class="l6d0"><path d="M 300,130 L 5760,130 L 5760,300 L 300,300 Z" /><path d="M 300,3070 L 5760,3070 L 5760,3240 L 300,3240 Z" /><path d="M 5345,770 L 5270,770 L 5210,770 L 5135,770 L 5035,770 L 5035,890 L 5135,890 L 5210,890 L 5270,890 L 5345,890 L 5395,890 L 5470,890 L 5530,890 L 5605,890 L 5705,890 L 5705,770 L 5605,770 L 5530,770 L 5470,770 L 5395,770 Z" /><path d="M 2275,890 L 2350,890 L 2410,890 L 2485,890 L 2585,890 L 2585,770 L 2485,770 L 2410,770 L 2350,770 L 2275,770 L 2225,770 L 2150,770 L 2090,770 L 2015,770 L 1915,770 L 1915,890 L 2015,890 L 2090,890 L 2150,890 L 2225,890 Z" /><path d="M 1495,890 L 1570,890 L 1630,890 L 1705,890 L 1805,890 L 1805,770 L 1705,770 L 1630,770 L 1570,770 L 1495,770 L 1445,770 L 1370,770 L 1310,770 L 1235,770 L 1135,770 L 1135,890 L 1235,890 L 1310,890 L 1370,890 L 1445,890 Z" /><path d="M 715,890 L 790,890 L 850,890 L 925,890 L 1025,890 L 1025,770 L 925,770 L 850,770 L 790,770 L 715,770 L 665,770 L 590,770 L 530,770 L 455,770 L 355,770 L 355,890 L 455,890 L 530,890 L 590,890 L 665,890 Z" /><path d="M 5050,2600 L 5135,2600 L 5210,2600 L 5270,2600 L 5345,2600 L 5395,2600 L 5470,2600 L 5530,2600 L 5605,2600 L 5690,2600 L 5690,2120 L 5605,2120 L 5530,2120 L 5470,2120 L 5395,2120 L 5345,2120 L 5270,2120 L 5210,2120 L 5135,2120 L 5050,2120 Z" /><path d="M 4230,770 L 4170,770 L 4095,770 L 4095,1250 L 4170,1250 L 4230,1250 L 4305,1250 L 4355,1250 L 4430,1250 L 4490,1250 L 4565,1250 L 4615,1250 L 4690,1250 L 4750,1250 L 4825,1250 L 4910,1250 L 4910,770 L 4825,770 L 4750,770 L 4690,770 L 4615,770 L 4565,770 L 4490,770 L 4430,770 L 4355,770 L 4305,770 Z" /><path d="M 3910,770 L 3835,770 L 3785,770 L 3710,770 L 3650,770 L 3575,770 L 3525,770 L 3450,770 L 3390,770 L 3315,770 L 3265,770 L 3190,770 L 3130,770 L 3055,770 L 3005,770 L 2930,770 L 2870,770 L 2795,770 L 2710,770 L 2710,1250 L 2795,1250 L 2870,1250 L 2930,1250 L 3005,1250 L 3055,1250 L 3130,1250 L 3190,1250 L 3265,1250 L 3315,1250 L 3390,1250 L 3450,1250 L 3525,1250 L 3575,1250 L 3650,1250 L 3710,1250 L 3785,1250 L 3835,1250 L 3910,1250 L 3970,1250 L 4045,1250 L 4094,1250 L 4094,770 L 4045,770 L 3970,770 Z" /><path d="M 4230,2360 L 4170,2360 L 4095,2360 L 4095,2600 L 4170,2600 L 4230,2600 L 4305,2600 L 4355,2600 L 4430,2600 L 4490,2600 L 4565,2600 L 4615,2600 L 4690,2600 L 4750,2600 L 4825,2600 L 4910,2600 L 4910,2360 L 4825,2360 L 4750,2360 L 4690,2360 L 4615,2360 L 4565,2360 L 4490,2360 L 4430,2360 L 4355,2360 L 4305,2360 Z" /><path d="M 4045,2600 L 4094,2600 L 4094,2360 L 4045,2360 L 3970,2360 L 3910,2360 L 3835,2360 L 3785,2360 L 3710,2360 L 3650,2360 L 3575,2360 L 3525,2360 L 3450,2360 L 3390,2360 L 3315,2360 L 3265,2360 L 3190,2360 L 3130,2360 L 3055,2360 L 3005,2360 L 2930,2360 L 2870,2360 L 2795,2360 L 2710,2360 L 2710,2600 L 2795,2600 L 2870,2600 L 2930,2600 L 3005,2600 L 3055,2600 L 3130,2600 L 3190,2600 L 3265,2600 L 3315,2600 L 3390,2600 L 3450,2600 L 3525,2600 L 3575,2600 L 3650,2600 L 3710,2600 L 3785,2600 L 3835,2600 L 3910,2600 L 3970,2600 Z" /><path d="M 2275,2600 L 2350,2600 L 2410,2600 L 2485,2600 L 2570,2600 L 2570,2360 L 2485,2360 L 2410,2360 L 2350,2360 L 2275,2360 L 2225,2360 L 2150,2360 L 2090,2360 L 2015,2360 L 1930,2360 L 1930,2600 L 2015,2600 L 2090,2600 L 2150,2600 L 2225,2600 Z" /><path d="M 1495,2600 L 1570,2600 L 1630,2600 L 1705,2600 L 1790,2600 L 1790,2360 L 1705,2360 L 1630,2360 L 1570,2360 L 1495,2360 L 1445,2360 L 1370,2360 L 1310,2360 L 1235,2360 L 1150,2360 L 1150,2600 L 1235,2600 L 1310,2600 L 1370,2600 L 1445,2600 Z" /><path d="M 715,2600 L 790,2600 L 850,2600 L 925,2600 L 1010,2600 L 1010,2360 L 925,2360 L 850,2360 L 790,2360 L 715,2360 L 665,2360 L 590,2360 L 530,2360 L 455,2360 L 370,2360 L 370,2600 L 455,2600 L 530,2600 L 590,2600 L 665,2600 Z" /></g></g><g id="PO"><g class="l17d0"><path d="M 2150,890 L 2150,770 L 2150,630 L 2090,630 L 2090,770 L 2090,890 L 2090,1030 L 2090,1125 L 2065,1125 L 2065,1295 L 2090,1295 L 2090,2220 L 2090,2360 L 2090,2600 L 2090,2740 L 2150,2740 L 2150,2600 L 2150,2360 L 2150,2220 L 2150,1295 L 2175,1295 L 2175,1125 L 2150,1125 L 2150,1030 Z" /><path d="M 2410,1030 L 2410,890 L 2410,770 L 2410,630 L 2350,630 L 2350,770 L 2350,890 L 2350,1030 L 2350,1315 L 2325,1315 L 2325,1485 L 2350,1485 L 2350,2220 L 2350,2360 L 2350,2600 L 2350,2740 L 2410,2740 L 2410,2600 L 2410,2360 L 2410,2220 L 2409,2220 L 2409,1485 L 2435,1485 L 2435,1315 L 2409,1315 L 2409,1030 Z" /><path d="M 1630,890 L 1630,770 L 1630,630 L 1570,630 L 1570,770 L 1570,890 L 1570,1030 L 1570,1315 L 1545,1315 L 1545,1485 L 1570,1485 L 1570,2220 L 1570,2360 L 1570,2600 L 1570,2740 L 1630,2740 L 1630,2600 L 1630,2360 L 1630,2220 L 1630,1485 L 1655,1485 L 1655,1315 L 1630,1315 L 1630,1030 Z" /><path d="M 1370,1030 L 1370,890 L 1370,770 L 1370,630 L 1310,630 L 1310,770 L 1310,890 L 1310,1030 L 1310,2075 L 1285,2075 L 1285,2245 L 1310,2245 L 1310,2360 L 1310,2600 L 1310,2740 L 1370,2740 L 1370,2600 L 1370,2360 L 1370,2245 L 1395,2245 L 1395,2075 L 1370,2075 Z" /><path d="M 850,1030 L 850,890 L 850,770 L 850,630 L 790,630 L 790,770 L 790,890 L 790,1030 L 790,2075 L 765,2075 L 765,2245 L 790,2245 L 790,2360 L 790,2600 L 790,2740 L 850,2740 L 850,2600 L 850,2360 L 850,2245 L 875,2245 L 875,2075 L 850,2075 Z" /><path d="M 590,890 L 590,770 L 590,630 L 530,630 L 530,770 L 530,890 L 530,1030 L 530,1885 L 505,1885 L 505,2055 L 530,2055 L 530,2220 L 530,2360 L 530,2600 L 530,2740 L 590,2740 L 590,2600 L 590,2360 L 590,2220 L 590,2055 L 615,2055 L 615,1885 L 590,1885 L 590,1030 Z" /><path d="M 5470,2120 L 5470,2600 L 5470,2740 L 5530,2740 L 5530,2600 L 5530,2120 L 5530,1980 L 5530,1485 L 5555,1485 L 5555,1315 L 5530,1315 L 5530,1030 L 5530,890 L 5530,770 L 5530,630 L 5470,630 L 5470,770 L 5470,890 L 5470,1030 L 5470,1315 L 5445,1315 L 5445,1485 L 5470,1485 L 5470,1980 Z" /><path d="M 5270,1030 L 5270,890 L 5270,770 L 5270,630 L 5210,630 L 5210,770 L 5210,890 L 5210,1030 L 5210,1885 L 5185,1885 L 5185,2055 L 5210,2055 L 5210,2120 L 5210,2600 L 5210,2740 L 5270,2740 L 5270,2600 L 5270,2120 L 5270,2055 L 5295,2055 L 5295,1885 L 5270,1885 Z" /><path d="M 4490,1250 L 4490,770 L 4490,630 L 4430,630 L 4430,770 L 4430,1250 L 4430,1390 L 4430,1695 L 4405,1695 L 4405,1865 L 4430,1865 L 4430,2220 L 4430,2360 L 4430,2600 L 4430,2740 L 4490,2740 L 4490,2600 L 4490,2360 L 4490,2220 L 4490,1865 L 4515,1865 L 4515,1695 L 4490,1695 L 4490,1390 Z" /><path d="M 4230,1250 L 4230,770 L 4230,630 L 4170,630 L 4170,770 L 4170,1250 L 4170,1390 L 4170,1885 L 4145,1885 L 4145,2055 L 4170,2055 L 4170,2220 L 4170,2360 L 4170,2600 L 4170,2740 L 4230,2740 L 4230,2600 L 4230,2360 L 4230,2220 L 4230,2055 L 4255,2055 L 4255,1885 L 4230,1885 L 4230,1390 Z" /><path d="M 3969,1390 L 3970,1390 L 3970,1250 L 3970,770 L 3970,630 L 3910,630 L 3910,770 L 3910,1250 L 3910,1390 L 3910,2075 L 3885,2075 L 3885,2245 L 3910,2245 L 3910,2360 L 3910,2600 L 3910,2740 L 3970,2740 L 3970,2600 L 3970,2360 L 3970,2245 L 3995,2245 L 3995,2075 L 3969,2075 Z" /><path d="M 3450,1390 L 3450,1250 L 3450,770 L 3450,630 L 3390,630 L 3390,770 L 3390,1250 L 3390,1390 L 3390,1885 L 3365,1885 L 3365,2055 L 3390,2055 L 3390,2220 L 3390,2360 L 3390,2600 L 3390,2740 L 3450,2740 L 3450,2600 L 3450,2360 L 3450,2220 L 3449,2220 L 3449,2055 L 3475,2055 L 3475,1885 L 3449,1885 L 3449,1390 Z" /><path d="M 3190,1250 L 3190,770 L 3190,630 L 3130,630 L 3130,770 L 3130,1250 L 3130,1390 L 3130,1695 L 3105,1695 L 3105,1865 L 3130,1865 L 3130,2220 L 3130,2360 L 3130,2600 L 3130,2740 L 3190,2740 L 3190,2600 L 3190,2360 L 3190,2220 L 3190,1865 L 3215,1865 L 3215,1695 L 3190,1695 L 3190,1390 Z" /><path d="M 2930,1390 L 2930,1250 L 2930,770 L 2930,630 L 2870,630 L 2870,770 L 2870,1250 L 2870,1390 L 2870,1505 L 2845,1505 L 2845,1675 L 2870,1675 L 2870,2220 L 2870,2360 L 2870,2600 L 2870,2740 L 2930,2740 L 2930,2600 L 2930,2360 L 2930,2220 L 2929,2220 L 2929,1675 L 2955,1675 L 2955,1505 L 2929,1505 L 2929,1390 Z" /><path d="M 4690,2220 L 4690,2360 L 4690,2600 L 4690,2740 L 4750,2740 L 4750,2600 L 4750,2360 L 4750,2220 L 4750,1675 L 4775,1675 L 4775,1505 L 4750,1505 L 4750,1390 L 4750,1250 L 4750,770 L 4750,630 L 4690,630 L 4690,770 L 4690,1250 L 4690,1390 L 4689,1390 L 4689,1505 L 4665,1505 L 4665,1675 L 4689,1675 L 4689,2220 Z" /><path d="M 3710,1250 L 3710,770 L 3710,630 L 3650,630 L 3650,770 L 3650,1250 L 3650,1390 L 3650,1505 L 3625,1505 L 3625,1675 L 3650,1675 L 3650,2220 L 3650,2360 L 3650,2600 L 3650,2740 L 3710,2740 L 3710,2600 L 3710,2360 L 3710,2220 L 3710,1675 L 3735,1675 L 3735,1505 L 3710,1505 L 3710,1390 Z" /></g></g><g id="CO"><g class="l30d0"><path d="M 3765,800 L 3855,800 L 3855,890 L 3765,890 Z" /><path d="M 3765,1130 L 3855,1130 L 3855,1220 L 3765,1220 Z" /><path d="M 4805,800 L 4895,800 L 4895,890 L 4805,890 Z" /><path d="M 4805,1130 L 4895,1130 L 4895,1220 L 4805,1220 Z" /><path d="M 2725,800 L 2815,800 L 2815,890 L 2725,890 Z" /><path d="M 2725,1130 L 2815,1130 L 2815,1220 L 2725,1220 Z" /><path d="M 5585,785 L 5675,785 L 5675,875 L 5585,875 Z" /><path d="M 5065,785 L 5155,785 L 5155,875 L 5065,875 Z" /><path d="M 5325,785 L 5415,785 L 5415,875 L 5325,875 Z" /><path d="M 2465,785 L 2555,785 L 2555,875 L 2465,875 Z" /><path d="M 1945,785 L 2035,785 L 2035,875 L 1945,875 Z" /><path d="M 2205,785 L 2295,785 L 2295,875 L 2205,875 Z" /><path d="M 1685,785 L 1775,785 L 1775,875 L 1685,875 Z" /><path d="M 1165,785 L 1255,785 L 1255,875 L 1165,875 Z" /><path d="M 1425,785 L 1515,785 L 1515,875 L 1425,875 Z" /><path d="M 905,785 L 995,785 L 995,875 L 905,875 Z" /><path d="M 385,785 L 475,785 L 475,875 L 385,875 Z" /><path d="M 645,785 L 735,785 L 735,875 L 645,875 Z" /><path d="M 5585,2480 L 5675,2480 L 5675,2570 L 5585,2570 Z" /><path d="M 5585,2150 L 5675,2150 L 5675,2240 L 5585,2240 Z" /><path d="M 5065,2150 L 5155,2150 L 5155,2240 L 5065,2240 Z" /><path d="M 5065,2480 L 5155,2480 L 5155,2570 L 5065,2570 Z" /><path d="M 3505,2435 L 3595,2435 L 3595,2525 L 3505,2525 Z" /><path d="M 2985,2435 L 3075,2435 L 3075,2525 L 2985,2525 Z" /><path d="M 4025,2435 L 4115,2435 L 4115,2525 L 4025,2525 Z" /><path d="M 4545,2435 L 4635,2435 L 4635,2525 L 4545,2525 Z" /><path d="M 905,2435 L 995,2435 L 995,2525 L 905,2525 Z" /><path d="M 1685,2435 L 1775,2435 L 1775,2525 L 1685,2525 Z" /><path d="M 2465,2435 L 2555,2435 L 2555,2525 L 2465,2525 Z" /><path d="M 4805,2435 L 4895,2435 L 4895,2525 L 4805,2525 Z" /><path d="M 2725,2435 L 2815,2435 L 2815,2525 L 2725,2525 Z" /><path d="M 1945,2435 L 2035,2435 L 2035,2525 L 1945,2525 Z" /><path d="M 1165,2435 L 1255,2435 L 1255,2525 L 1165,2525 Z" /><path d="M 385,2435 L 475,2435 L 475,2525 L 385,2525 Z" /><path d="M 4285,2435 L 4375,2435 L 4375,2525 L 4285,2525 Z" /><path d="M 3765,2435 L 3855,2435 L 3855,2525 L 3765,2525 Z" /><path d="M 3245,2435 L 3335,2435 L 3335,2525 L 3245,2525 Z" /><path d="M 2205,2435 L 2295,2435 L 2295,2525 L 2205,2525 Z" /><path d="M 1425,2435 L 1515,2435 L 1515,2525 L 1425,2525 Z" /><path d="M 645,2435 L 735,2435 L 735,2525 L 645,2525 Z" /><path d="M 5585,170 L 5675,170 L 5675,260 L 5585,260 Z" /><path d="M 5325,170 L 5415,170 L 5415,260 L 5325,260 Z" /><path d="M 5065,170 L 5155,170 L 5155,260 L 5065,260 Z" /><path d="M 4805,170 L 4895,170 L 4895,260 L 4805,260 Z" /><path d="M 4545,170 L 4635,170 L 4635,260 L 4545,260 Z" /><path d="M 4285,170 L 4375,170 L 4375,260 L 4285,260 Z" /><path d="M 4025,170 L 4115,170 L 4115,260 L 4025,260 Z" /><path d="M 3765,170 L 3855,170 L 3855,260 L 3765,260 Z" /><path d="M 3505,170 L 3595,170 L 3595,260 L 3505,260 Z" /><path d="M 3245,170 L 3335,170 L 3335,260 L 3245,260 Z" /><path d="M 2985,170 L 3075,170 L 3075,260 L 2985,260 Z" /><path d="M 2725,170 L 2815,170 L 2815,260 L 2725,260 Z" /><path d="M 2465,170 L 2555,170 L 2555,260 L 2465,260 Z" /><path d="M 2205,170 L 2295,170 L 2295,260 L 2205,260 Z" /><path d="M 1945,170 L 2035,170 L 2035,260 L 1945,260 Z" /><path d="M 1685,170 L 1775,170 L 1775,260 L 1685,260 Z" /><path d="M 385,170 L 475,170 L 475,260 L 385,260 Z" /><path d="M 645,170 L 735,170 L 735,260 L 645,260 Z" /><path d="M 905,170 L 995,170 L 995,260 L 905,260 Z" /><path d="M 1165,170 L 1255,170 L 1255,260 L 1165,260 Z" /><path d="M 1425,170 L 1515,170 L 1515,260 L 1425,260 Z" /><path d="M 5585,3110 L 5675,3110 L 5675,3200 L 5585,3200 Z" /><path d="M 5325,3110 L 5415,3110 L 5415,3200 L 5325,3200 Z" /><path d="M 5065,3110 L 5155,3110 L 5155,3200 L 5065,3200 Z" /><path d="M 4805,3110 L 4895,3110 L 4895,3200 L 4805,3200 Z" /><path d="M 4545,3110 L 4635,3110 L 4635,3200 L 4545,3200 Z" /><path d="M 4285,3110 L 4375,3110 L 4375,3200 L 4285,3200 Z" /><path d="M 4025,3110 L 4115,3110 L 4115,3200 L 4025,3200 Z" /><path d="M 3765,3110 L 3855,3110 L 3855,3200 L 3765,3200 Z" /><path d="M 3505,3110 L 3595,3110 L 3595,3200 L 3505,3200 Z" /><path d="M 3245,3110 L 3335,3110 L 3335,3200 L 3245,3200 Z" /><path d="M 2985,3110 L 3075,3110 L 3075,3200 L 2985,3200 Z" /><path d="M 2725,3110 L 2815,3110 L 2815,3200 L 2725,3200 Z" /><path d="M 2465,3110 L 2555,3110 L 2555,3200 L 2465,3200 Z" /><path d="M 2205,3110 L 2295,3110 L 2295,3200 L 2205,3200 Z" /><path d="M 1945,3110 L 2035,3110 L 2035,3200 L 1945,3200 Z" /><path d="M 1685,3110 L 1775,3110 L 1775,3200 L 1685,3200 Z" /><path d="M 1425,3110 L 1515,3110 L 1515,3200 L 1425,3200 Z" /><path d="M 1165,3110 L 1255,3110 L 1255,3200 L 1165,3200 Z" /><path d="M 905,3110 L 995,3110 L 995,3200 L 905,3200 Z" /><path d="M 645,3110 L 735,3110 L 735,3200 L 645,3200 Z" /><path d="M 385,3110 L 475,3110 L 475,3200 L 385,3200 Z" /><path d="M 2075,1165 L 2165,1165 L 2165,1255 L 2075,1255 Z" /><path d="M 2335,1355 L 2425,1355 L 2425,1445 L 2335,1445 Z" /><path d="M 1555,1355 L 1645,1355 L 1645,1445 L 1555,1445 Z" /><path d="M 1295,2115 L 1385,2115 L 1385,2205 L 1295,2205 Z" /><path d="M 775,2115 L 865,2115 L 865,2205 L 775,2205 Z" /><path d="M 515,1925 L 605,1925 L 605,2015 L 515,2015 Z" /><path d="M 5455,1355 L 5545,1355 L 5545,1445 L 5455,1445 Z" /><path d="M 5195,1925 L 5285,1925 L 5285,2015 L 5195,2015 Z" /><path d="M 4415,1735 L 4505,1735 L 4505,1825 L 4415,1825 Z" /><path d="M 4155,1925 L 4245,1925 L 4245,2015 L 4155,2015 Z" /><path d="M 3895,2115 L 3985,2115 L 3985,2205 L 3895,2205 Z" /><path d="M 3375,1925 L 3465,1925 L 3465,2015 L 3375,2015 Z" /><path d="M 3115,1735 L 3205,1735 L 3205,1825 L 3115,1825 Z" /><path d="M 2855,1545 L 2945,1545 L 2945,1635 L 2855,1635 Z" /><path d="M 4675,1545 L 4765,1545 L 4765,1635 L 4675,1635 Z" /><path d="M 3635,1545 L 3725,1545 L 3725,1635 L 3635,1635 Z" /></g></g><g id="M1"><g class="l31d0"><path d="M 5060,2245 L 5060,3060 L 4900,3060 L 4900,2530 L 4900,2395 L 4800,2395 L 4800,2530 L 4800,3060 L 4380,3060 L 4380,2530 L 4380,2395 L 4280,2395 L 4280,2530 L 4280,3060 L 3860,3060 L 3860,2530 L 3860,2395 L 3760,2395 L 3760,2530 L 3760,3060 L 3340,3060 L 3340,2530 L 3340,2395 L 3240,2395 L 3240,2530 L 3240,3060 L 2820,3060 L 2820,2530 L 2820,2395 L 2720,2395 L 2720,2530 L 2720,3060 L 2300,3060 L 2300,2530 L 2300,2395 L 2200,2395 L 2200,2530 L 2200,3060 L 1520,3060 L 1520,2530 L 1520,2395 L 1420,2395 L 1420,2530 L 1420,3060 L 740,3060 L 740,2530 L 740,2395 L 640,2395 L 640,2530 L 640,3060 L 290,3060 L 290,3250 L 5770,3250 L 5770,3060 L 5160,3060 L 5160,2245 L 5160,2110 L 5060,2110 Z" /><path d="M 640,780 L 640,915 L 740,915 L 740,780 L 740,310 L 1420,310 L 1420,780 L 1420,915 L 1520,915 L 1520,780 L 1520,310 L 2200,310 L 2200,780 L 2200,915 L 2300,915 L 2300,780 L 2300,310 L 3760,310 L 3760,1125 L 3760,1260 L 3860,1260 L 3860,1125 L 3860,310 L 5060,310 L 5060,780 L 5060,915 L 5160,915 L 5160,780 L 5160,310 L 5580,310 L 5580,780 L 5580,915 L 5680,915 L 5680,780 L 5680,310 L 5770,310 L 5770,120 L 290,120 L 290,310 L 640,310 Z" /><path d="M 5420,500 L 5320,500 L 5320,740 L 5320,920 L 5420,920 L 5420,740 Z" /><path d="M 4800,760 L 4800,895 L 4800,920 L 4800,1100 L 4800,1125 L 4800,1260 L 4900,1260 L 4900,1125 L 4900,1100 L 4900,920 L 4900,895 L 4900,760 Z" /><path d="M 2820,1260 L 2820,1125 L 2820,1100 L 2820,920 L 2820,895 L 2820,760 L 2720,760 L 2720,895 L 2720,920 L 2720,1100 L 2720,1125 L 2720,1260 Z" /><path d="M 480,500 L 380,500 L 380,740 L 380,920 L 480,920 L 480,740 Z" /><path d="M 1000,500 L 900,500 L 900,740 L 900,920 L 1000,920 L 1000,740 Z" /><path d="M 1260,500 L 1160,500 L 1160,740 L 1160,920 L 1260,920 L 1260,740 Z" /><path d="M 1780,500 L 1680,500 L 1680,740 L 1680,920 L 1780,920 L 1780,740 Z" /><path d="M 2040,500 L 1940,500 L 1940,740 L 1940,920 L 2040,920 L 2040,740 Z" /><path d="M 2560,500 L 2460,500 L 2460,740 L 2460,920 L 2560,920 L 2560,740 Z" /><path d="M 2460,2390 L 2460,2570 L 2460,2810 L 2560,2810 L 2560,2570 L 2560,2390 Z" /><path d="M 1940,2390 L 1940,2570 L 1940,2810 L 2040,2810 L 2040,2570 L 2040,2390 Z" /><path d="M 1680,2390 L 1680,2570 L 1680,2810 L 1780,2810 L 1780,2570 L 1780,2390 Z" /><path d="M 1160,2390 L 1160,2570 L 1160,2810 L 1260,2810 L 1260,2570 L 1260,2390 Z" /><path d="M 900,2390 L 900,2570 L 900,2810 L 1000,2810 L 1000,2570 L 1000,2390 Z" /><path d="M 380,2390 L 380,2570 L 380,2810 L 480,2810 L 480,2570 L 480,2390 Z" /><path d="M 5680,2610 L 5680,2475 L 5680,2450 L 5680,2270 L 5680,2245 L 5680,2110 L 5580,2110 L 5580,2245 L 5580,2270 L 5580,2450 L 5580,2475 L 5580,2610 Z" /><path d="M 4540,2390 L 4540,2570 L 4540,2810 L 4640,2810 L 4640,2570 L 4640,2390 Z" /><path d="M 4020,2390 L 4020,2570 L 4020,2810 L 4120,2810 L 4120,2570 L 4120,2390 Z" /><path d="M 3500,2390 L 3500,2570 L 3500,2810 L 3600,2810 L 3600,2570 L 3600,2390 Z" /><path d="M 2985,2390 L 2985,2570 L 2985,2810 L 3085,2810 L 3085,2570 L 3085,2390 Z" /><path d="M 1910,1160 L 1910,1260 L 2035,1260 L 2205,1260 L 2330,1260 L 2330,1160 L 2205,1160 L 2035,1160 Z" /><path d="M 2170,1350 L 2170,1450 L 2295,1450 L 2465,1450 L 2590,1450 L 2590,1350 L 2465,1350 L 2295,1350 Z" /><path d="M 1390,1350 L 1390,1450 L 1515,1450 L 1685,1450 L 1810,1450 L 1810,1350 L 1685,1350 L 1515,1350 Z" /><path d="M 1140,2110 L 1140,2210 L 1255,2210 L 1425,2210 L 1560,2210 L 1560,2110 L 1425,2110 L 1255,2110 Z" /><path d="M 610,2110 L 610,2210 L 735,2210 L 905,2210 L 1030,2210 L 1030,2110 L 905,2110 L 735,2110 Z" /><path d="M 350,1920 L 350,2020 L 475,2020 L 645,2020 L 770,2020 L 770,1920 L 645,1920 L 475,1920 Z" /><path d="M 4510,1540 L 4510,1640 L 4635,1640 L 4805,1640 L 4930,1640 L 4930,1540 L 4805,1540 L 4635,1540 Z" /><path d="M 3470,1540 L 3470,1640 L 3595,1640 L 3765,1640 L 3890,1640 L 3890,1540 L 3765,1540 L 3595,1540 Z" /><path d="M 5200,1350 L 5110,1350 L 5020,1350 L 5020,1450 L 5110,1450 L 5200,1450 L 5415,1450 L 5500,1450 L 5585,1450 L 5585,1350 L 5500,1350 L 5415,1350 Z" /><path d="M 4940,1920 L 4850,1920 L 4760,1920 L 4760,2020 L 4850,2020 L 4940,2020 L 5155,2020 L 5240,2020 L 5325,2020 L 5325,1920 L 5240,1920 L 5155,1920 Z" /><path d="M 4185,1730 L 4185,1830 L 4240,1830 L 4375,1830 L 4420,1830 L 4545,1830 L 4605,1830 L 4605,1730 L 4545,1730 L 4420,1730 L 4375,1730 L 4240,1730 Z" /><path d="M 3925,1920 L 3925,2020 L 3980,2020 L 4115,2020 L 4160,2020 L 4285,2020 L 4345,2020 L 4345,1920 L 4285,1920 L 4160,1920 L 4115,1920 L 3980,1920 Z" /><path d="M 2600,2110 L 2510,2110 L 2420,2110 L 2420,2210 L 2510,2210 L 2600,2210 L 3855,2210 L 3940,2210 L 4025,2210 L 4025,2110 L 3940,2110 L 3855,2110 Z" /><path d="M 1300,1920 L 1210,1920 L 1120,1920 L 1120,2020 L 1210,2020 L 1300,2020 L 3335,2020 L 3420,2020 L 3505,2020 L 3505,1920 L 3420,1920 L 3335,1920 Z" /><path d="M 1040,1730 L 950,1730 L 860,1730 L 860,1830 L 950,1830 L 1040,1830 L 3075,1830 L 3160,1830 L 3245,1830 L 3245,1730 L 3160,1730 L 3075,1730 Z" /><path d="M 520,1540 L 430,1540 L 340,1540 L 340,1640 L 430,1640 L 520,1640 L 2815,1640 L 2900,1640 L 2985,1640 L 2985,1540 L 2900,1540 L 2815,1540 Z" /></g></g><g id="VIA1"><g class="l51d0"><path d="M 5320,780 L 5420,780 L 5420,880 L 5320,880 Z" /><path d="M 4800,960 L 4900,960 L 4900,1060 L 4800,1060 Z" /><path d="M 2720,960 L 2820,960 L 2820,1060 L 2720,1060 Z" /><path d="M 380,880 L 480,880 L 480,780 L 380,780 Z" /><path d="M 900,880 L 1000,880 L 1000,780 L 900,780 Z" /><path d="M 1160,880 L 1260,880 L 1260,780 L 1160,780 Z" /><path d="M 1680,880 L 1780,880 L 1780,780 L 1680,780 Z" /><path d="M 1940,880 L 2040,880 L 2040,780 L 1940,780 Z" /><path d="M 2460,880 L 2560,880 L 2560,780 L 2460,780 Z" /><path d="M 2460,2430 L 2560,2430 L 2560,2530 L 2460,2530 Z" /><path d="M 1940,2430 L 2040,2430 L 2040,2530 L 1940,2530 Z" /><path d="M 1680,2430 L 1780,2430 L 1780,2530 L 1680,2530 Z" /><path d="M 1160,2430 L 1260,2430 L 1260,2530 L 1160,2530 Z" /><path d="M 900,2430 L 1000,2430 L 1000,2530 L 900,2530 Z" /><path d="M 380,2430 L 480,2430 L 480,2530 L 380,2530 Z" /><path d="M 5580,2310 L 5680,2310 L 5680,2410 L 5580,2410 Z" /><path d="M 4540,2430 L 4640,2430 L 4640,2530 L 4540,2530 Z" /><path d="M 4020,2430 L 4120,2430 L 4120,2530 L 4020,2530 Z" /><path d="M 3500,2430 L 3600,2430 L 3600,2530 L 3500,2530 Z" /><path d="M 2985,2430 L 3085,2430 L 3085,2530 L 2985,2530 Z" /><path d="M 5060,1350 L 5160,1350 L 5160,1450 L 5060,1450 Z" /><path d="M 4800,1920 L 4900,1920 L 4900,2020 L 4800,2020 Z" /><path d="M 4280,1730 L 4380,1730 L 4380,1830 L 4280,1830 Z" /><path d="M 4020,1920 L 4120,1920 L 4120,2020 L 4020,2020 Z" /><path d="M 2460,2110 L 2560,2110 L 2560,2210 L 2460,2210 Z" /><path d="M 1160,1920 L 1260,1920 L 1260,2020 L 1160,2020 Z" /><path d="M 900,1730 L 1000,1730 L 1000,1830 L 900,1830 Z" /><path d="M 380,1540 L 480,1540 L 480,1640 L 380,1640 Z" /></g></g><g id="M2"><g class="l32d0"><path d="M 5420,920 L 5420,830 L 5420,740 L 5320,740 L 5320,830 L 5320,920 L 5320,2310 L 5320,2409 L 5420,2409 L 5540,2409 L 5540,2410 L 5720,2410 L 5720,2310 L 5630,2310 L 5540,2310 L 5420,2310 Z" /><path d="M 4900,2530 L 4900,2430 L 4900,2060 L 4900,1880 L 4900,1100 L 4900,1010 L 4900,920 L 4800,920 L 4800,1010 L 4800,1100 L 4800,1880 L 4800,2060 L 4800,2430 L 4680,2430 L 4590,2430 L 4500,2430 L 4160,2430 L 4070,2430 L 3980,2430 L 3980,2530 L 4070,2530 L 4160,2530 L 4500,2530 L 4590,2530 L 4680,2530 L 4800,2530 Z" /><path d="M 2560,830 L 2560,740 L 2460,740 L 2460,830 L 2460,920 L 2460,2070 L 2460,2160 L 2460,2250 L 2460,2390 L 2460,2480 L 2460,2570 L 2560,2570 L 2560,2480 L 2560,2390 L 2560,2250 L 2560,2160 L 2560,2070 L 2560,920 Z" /><path d="M 1160,2060 L 1160,2390 L 1160,2480 L 1160,2570 L 1260,2570 L 1260,2480 L 1260,2390 L 1260,2060 L 1260,1970 L 1260,1880 L 1260,920 L 1260,830 L 1260,740 L 1160,740 L 1160,830 L 1160,920 L 1160,1880 L 1160,1970 Z" /><path d="M 1000,830 L 1000,740 L 900,740 L 900,830 L 900,920 L 900,1690 L 900,1780 L 900,1870 L 900,2390 L 900,2480 L 900,2570 L 1000,2570 L 1000,2480 L 1000,2390 L 1000,1870 L 1000,1780 L 1000,1690 L 1000,920 Z" /><path d="M 380,1680 L 380,2390 L 380,2480 L 380,2570 L 480,2570 L 480,2480 L 480,2390 L 480,1680 L 480,1590 L 480,1500 L 480,920 L 480,830 L 480,740 L 380,740 L 380,830 L 380,920 L 380,1500 L 380,1590 Z" /><path d="M 5160,1135 L 5060,1135 L 5060,1295 L 5060,1310 L 5060,1475 L 5060,1490 L 5060,1655 L 5160,1655 L 5160,1490 L 5160,1475 L 5160,1310 L 5160,1295 Z" /><path d="M 3035,2430 L 2945,2430 L 2820,2430 L 2820,1475 L 2820,1295 L 2820,1100 L 2820,1010 L 2820,920 L 2720,920 L 2720,1010 L 2720,1100 L 2720,1295 L 2720,1475 L 2720,2430 L 2720,2530 L 2820,2530 L 2945,2530 L 3035,2530 L 3125,2530 L 3460,2530 L 3550,2530 L 3640,2530 L 3640,2430 L 3550,2430 L 3460,2430 L 3125,2430 Z" /><path d="M 1780,830 L 1780,740 L 1680,740 L 1680,830 L 1680,920 L 1680,1495 L 1680,1585 L 1680,1675 L 1680,2390 L 1680,2480 L 1680,2570 L 1780,2570 L 1780,2480 L 1780,2390 L 1780,1675 L 1780,1585 L 1780,1495 L 1780,920 Z" /><path d="M 4280,1415 L 4280,1495 L 4280,1675 L 4280,1690 L 4280,1870 L 4280,1935 L 4380,1935 L 4380,1870 L 4380,1690 L 4380,1675 L 4380,1495 L 4380,1415 Z" /><path d="M 1940,1875 L 1940,2390 L 1940,2480 L 1940,2570 L 2040,2570 L 2040,2480 L 2040,2390 L 2040,1875 L 2040,1785 L 2040,1695 L 2040,920 L 2040,830 L 2040,740 L 1940,740 L 1940,830 L 1940,920 L 1940,1695 L 1940,1785 Z" /><path d="M 4020,1620 L 4020,1695 L 4020,1875 L 4020,1880 L 4020,2060 L 4020,2140 L 4120,2140 L 4120,2060 L 4120,1880 L 4120,1875 L 4120,1695 L 4120,1620 Z" /></g></g><g id="VIA2"><g class="l52d0"><path d="M 5060,1335 L 5160,1335 L 5160,1435 L 5060,1435 Z" /><path d="M 2720,1335 L 2820,1335 L 2820,1435 L 2720,1435 Z" /><path d="M 1680,1535 L 1780,1535 L 1780,1635 L 1680,1635 Z" /><path d="M 4280,1535 L 4380,1535 L 4380,1635 L 4280,1635 Z" /><path d="M 1940,1735 L 2040,1735 L 2040,1835 L 1940,1835 Z" /><path d="M 4020,1735 L 4120,1735 L 4120,1835 L 4020,1835 Z" /></g></g><g id="M3"><g class="l33d0"><path d="M 2860,1435 L 5020,1435 L 5110,1435 L 5200,1435 L 5200,1335 L 5110,1335 L 5020,1335 L 2860,1335 L 2770,1335 L 2680,1335 L 2680,1435 L 2770,1435 Z" /><path d="M 4240,1535 L 1820,1535 L 1730,1535 L 1640,1535 L 1640,1635 L 1730,1635 L 1820,1635 L 4240,1635 L 4330,1635 L 4420,1635 L 4420,1535 L 4330,1535 Z" /><path d="M 3980,1735 L 2080,1735 L 1990,1735 L 1900,1735 L 1900,1835 L 1990,1835 L 2080,1835 L 3980,1835 L 4070,1835 L 4160,1835 L 4160,1735 L 4070,1735 Z" /></g></g></g></svg>