<svg width="15690" height="3550" viewBox="-5 -3545 15690 3550" xmlns="http://www.w3.org/2000/svg" xmlns:xlink="http://www.w3.org/1999/xlink"><defs><style type="text/css">.l3d0 {fill: #fef9e7; fill-opacity: 0.5; stroke-width: 10; stroke: #f1c40f; stroke-linecap: round; stroke-linejoin: round; stroke-opacity: 0.2;}.l25d0 {fill: #8e44ad; fill-opacity: 0.05; stroke-width: 10; stroke: #8e44ad; stroke-linecap: round; stroke-linejoin: round; stroke-opacity: 1;}.l26d0 {fill: #ccd1d1; fill-opacity: 0.05; stroke-width: 10; stroke: #ccd1d1; stroke-linecap: round; stroke-linejoin: round; stroke-opacity: 1;}.l6d0 {fill: #f5b7b1; fill-opacity: 1; stroke-width: 10; stroke: #e74c3c; stroke-linecap: round; stroke-linejoin: round; stroke-opacity: 1;}.l17d0 {fill: #2980b9; fill-opacity: 1; stroke-width: 0; stroke: #000000; stroke-linecap: round; stroke-linejoin: round; stroke-opacity: 0;}.l30d0 {fill: #27ae60; fill-opacity: 1; stroke-width: 0; stroke: #000000; stroke-linecap: round; stroke-linejoin: round; stroke-opacity: 0;}.l31d0 {fill: #85c1e9; fill-opacity: 0.6; stroke-width: 0; stroke: #000000; stroke-linecap: round; stroke-linejoin: round; stroke-opacity: 0;}.l51d0 {fill: #f39c12; fill-opacity: 1; stroke-width: 10; stroke: #f39c12; stroke-linecap: round; stroke-linejoin: round; stroke-opacity: 1;}.l32d0 {fill: #f7dc6f; fill-opacity: 0.6; stroke-width: 0; stroke: #000000; stroke-linecap: round; stroke-linejoin: round; stroke-opacity: 0;}.l52d0 {fill: #a04000; fill-opacity: 1; stroke-width: 10; stroke: #a04000; stroke-linecap: round; stroke-linejoin: round; stroke-opacity: 1;}.l33d0 {fill: #16a085; fill-opacity: 0.6; stroke-width: 0; stroke: #000000; stroke-linecap: round; stroke-linejoin: round; stroke-opacity: 0;}.l53d0 {fill: #8e44ad; fill-opacity: 1; stroke-width: 10; stroke: #8e44ad; stroke-linecap: round; stroke-linejoin: round; stroke-opacity: 1;}.l34d0 {fill: #d2b4de; fill-opacity: 0.6; stroke-width: 0; stroke: #000000; stroke-linecap: round; stroke-linejoin: round; stroke-opacity: 0;}path {fill-rule: evenodd;}</style></defs><g transform="scale(1 -1)"><g id="NW"><g class="l3d0"><path d="M 13080,1900 L 12065,1900 L 11805,1900 L 11415,1900 L 11155,1900 L 11000,1900 L 10400,1900 L 9985,1900 L 9725,1900 L 9335,1900 L 9075,1900 L 8920,1900 L 8320,1900 L 7905,1900 L 7645,1900 L 7255,1900 L 6995,1900 L 6840,1900 L 6240,1900 L 5825,1900 L 5565,1900 L 5175,1900 L 4915,1900 L 4760,1900 L 4160,1900 L 3745,1900 L 3485,1900 L 3095,1900 L 2835,1900 L 2680,1900 L 2080,1900 L 1665,1900 L 1405,1900 L 1015,1900 L 755,1900 L 0,1900 L 0,3540 L 2080,3540 L 2680,3540 L 4160,3540 L 4760,3540 L 6240,3540 L 6840,3540 L 8320,3540 L 8920,3540 L 10400,3540 L 11000,3540 L 13080,3540 L 15680,3540 L 15680,1900 L 15445,1900 L 15185,1900 L 14795,1900 L 14535,1900 Z" /></g></g><g id="PP"><g class="l25d0"><path d="M 15510,430 L 15510,0 L 12910,0 L 10830,0 L 10570,0 L 8750,0 L 8490,0 L 6670,0 L 6410,0 L 4590,0 L 4330,0 L 2510,0 L 2250,0 L 170,0 L 170,430 L 2250,430 L 2510,430 L 4330,430 L 4590,430 L 6410,430 L 6670,430 L 8490,430 L 8750,430 L 10570,430 L 10830,430 L 12910,430 Z" /><path d="M 15510,1685 L 12910,1685 L 10830,1685 L 10570,1685 L 8750,1685 L 8490,1685 L 6670,1685 L 6410,1685 L 4590,1685 L 4330,1685 L 2510,1685 L 2250,1685 L 170,1685 L 170,2940 L 325,2940 L 795,2940 L 845,2940 L 1105,2940 L 1315,2940 L 1575,2940 L 1625,2940 L 1885,2940 L 2095,2940 L 2250,2940 L 2355,2940 L 2405,2940 L 2510,2940 L 2875,2940 L 2925,2940 L 3185,2940 L 3395,2940 L 3655,2940 L 3705,2940 L 3965,2940 L 4175,2940 L 4330,2940 L 4435,2940 L 4485,2940 L 4590,2940 L 4955,2940 L 5005,2940 L 5265,2940 L 5475,2940 L 5735,2940 L 5785,2940 L 6045,2940 L 6255,2940 L 6410,2940 L 6515,2940 L 6565,2940 L 6670,2940 L 7035,2940 L 7085,2940 L 7345,2940 L 7555,2940 L 7815,2940 L 7865,2940 L 8125,2940 L 8335,2940 L 8490,2940 L 8595,2940 L 8645,2940 L 8750,2940 L 9115,2940 L 9165,2940 L 9425,2940 L 9635,2940 L 9895,2940 L 9945,2940 L 10205,2940 L 10415,2940 L 10570,2940 L 10675,2940 L 10725,2940 L 10830,2940 L 11195,2940 L 11245,2940 L 11505,2940 L 11715,2940 L 11975,2940 L 12025,2940 L 12285,2940 L 12495,2940 L 12755,2940 L 12805,2940 L 12910,2940 L 13065,2940 L 13275,2940 L 13325,2940 L 13535,2940 L 13585,2940 L 13795,2940 L 13845,2940 L 14055,2940 L 14105,2940 L 14315,2940 L 14575,2940 L 14625,2940 L 14885,2940 L 15095,2940 L 15355,2940 L 15510,2940 Z" /></g></g><g id="NP"><g class="l26d0"><path d="M 15510,3370 L 15510,2940 L 12910,2940 L 10830,2940 L 10570,2940 L 8750,2940 L 8490,2940 L 6670,2940 L 6410,2940 L 4590,2940 L 4330,2940 L 2510,2940 L 2250,2940 L 170,2940 L 170,3370 L 2250,3370 L 2510,3370 L 4330,3370 L 4590,3370 L 6410,3370 L 6670,3370 L 8490,3370 L 8750,3370 L 10570,3370 L 10830,3370 L 12910,3370 Z" /><path d="M 12805,430 L 12755,430 L 12495,430 L 12285,430 L 12025,430 L 11975,430 L 11715,430 L 11505,430 L 11245,430 L 11195,430 L 10830,430 L 10725,430 L 10675,430 L 10570,430 L 10415,430 L 10205,430 L 9945,430 L 9895,430 L 9635,430 L 9425,430 L 9165,430 L 9115,430 L 8750,430 L 8645,430 L 8595,430 L 8490,430 L 8335,430 L 8125,430 L 7865,430 L 7815,430 L 7555,430 L 7345,430 L 7085,430 L 7035,430 L 6670,430 L 6565,430 L 6515,430 L 6410,430 L 6255,430 L 6045,430 L 5785,430 L 5735,430 L 5475,430 L 5265,430 L 5005,430 L 4955,430 L 4590,430 L 4485,430 L 4435,430 L 4330,430 L 4175,430 L 3965,430 L 3705,430 L 3655,430 L 3395,430 L 3185,430 L 2925,430 L 2875,430 L 2510,430 L 2405,430 L 2355,430 L 2250,430 L 2095,430 L 1885,430 L 1625,430 L 1575,430 L 1315,430 L 1105,430 L 845,430 L 795,430 L 325,430 L 170,430 L 170,1685 L 2250,1685 L 2510,1685 L 4330,1685 L 4590,1685 L 6410,1685 L 6670,1685 L 8490,1685 L 8750,1685 L 10570,1685 L 10830,1685 L 12910,1685 L 15510,1685 L 15510,430 L 15355,430 L 15095,430 L 14885,430 L 14625,430 L 14575,430 L 14315,430 L 14105,430 L 14055,430 L 13845,430 L 13795,430 L 13585,430 L 13535,430 L 13325,430 L 13275,430 L 13065,430 L 12910,430 Z" /></g></g><g id="OD"><g class="l6d0"><path d="M 12070,1010 L 12155,1010 L 12230,1010 L 12290,1010 L 12365,1010 L 12415,1010 L 12490,1010 L 12550,1010 L 12625,1010 L 12710,1010 L 12710,770 L 12625,770 L 12550,770 L 12490,770 L 12415,770 L 12365,770 L 12290,770 L 12230,770 L 12155,770 L 12070,770 Z" /><path d="M 11510,890 L 11585,890 L 11635,890 L 11710,890 L 11770,890 L 11845,890 L 11945,890 L 11945,770 L 11845,770 L 11770,770 L 11710,770 L 11635,770 L 11585,770 L 11510,770 L 11450,770 L 11375,770 L 11275,770 L 11165,770 L 11065,770 L 10990,770 L 10930,770 L 10855,770 L 10755,770 L 10755,890 L 10855,890 L 10930,890 L 10990,890 L 11065,890 L 11165,890 L 11275,890 L 11375,890 L 11450,890 Z" /><path d="M 12070,2600 L 12155,2600 L 12230,2600 L 12290,2600 L 12365,2600 L 12415,2600 L 12490,2600 L 12550,2600 L 12625,2600 L 12710,2600 L 12710,2360 L 12625,2360 L 12550,2360 L 12490,2360 L 12415,2360 L 12365,2360 L 12290,2360 L 12230,2360 L 12155,2360 L 12070,2360 Z" /><path d="M 11510,2600 L 11585,2600 L 11635,2600 L 11710,2600 L 11770,2600 L 11845,2600 L 11930,2600 L 11930,2120 L 11845,2120 L 11770,2120 L 11710,2120 L 11635,2120 L 11585,2120 L 11510,2120 L 11450,2120 L 11375,2120 L 11290,2120 L 11290,2360 L 11150,2360 L 11065,2360 L 10990,2360 L 10930,2360 L 10855,2360 L 10770,2360 L 10770,2600 L 10855,2600 L 10930,2600 L 10990,2600 L 11065,2600 L 11150,2600 L 11290,2600 L 11375,2600 L 11450,2600 Z" /><path d="M 9990,1010 L 10075,1010 L 10150,1010 L 10210,1010 L 10285,1010 L 10335,1010 L 10410,1010 L 10470,1010 L 10545,1010 L 10630,1010 L 10630,770 L 10545,770 L 10470,770 L 10410,770 L 10335,770 L 10285,770 L 10210,770 L 10150,770 L 10075,770 L 9990,770 Z" /><path d="M 9430,890 L 9505,890 L 9555,890 L 9630,890 L 9690,890 L 9765,890 L 9865,890 L 9865,770 L 9765,770 L 9690,770 L 9630,770 L 9555,770 L 9505,770 L 9430,770 L 9370,770 L 9295,770 L 9195,770 L 9085,770 L 8985,770 L 8910,770 L 8850,770 L 8775,770 L 8675,770 L 8675,890 L 8775,890 L 8850,890 L 8910,890 L 8985,890 L 9085,890 L 9195,890 L 9295,890 L 9370,890 Z" /><path d="M 9990,2600 L 10075,2600 L 10150,2600 L 10210,2600 L 10285,2600 L 10335,2600 L 10410,2600 L 10470,2600 L 10545,2600 L 10630,2600 L 10630,2360 L 10545,2360 L 10470,2360 L 10410,2360 L 10335,2360 L 10285,2360 L 10210,2360 L 10150,2360 L 10075,2360 L 9990,2360 Z" /><path d="M 9430,2600 L 9505,2600 L 9555,2600 L 9630,2600 L 9690,2600 L 9765,2600 L 9850,2600 L 9850,2120 L 9765,2120 L 9690,2120 L 9630,2120 L 9555,2120 L 9505,2120 L 9430,2120 L 9370,2120 L 9295,2120 L 9210,2120 L 9210,2360 L 9070,2360 L 8985,2360 L 8910,2360 L 8850,2360 L 8775,2360 L 8690,2360 L 8690,2600 L 8775,2600 L 8850,2600 L 8910,2600 L 8985,2600 L 9070,2600 L 9210,2600 L 9295,2600 L 9370,2600 Z" /><path d="M 7910,1010 L 7995,1010 L 8070,1010 L 8130,1010 L 8205,1010 L 8255,1010 L 8330,1010 L 8390,1010 L 8465,1010 L 8550,1010 L 8550,770 L 8465,770 L 8390,770 L 8330,770 L 8255,770 L 8205,770 L 8130,770 L 8070,770 L 7995,770 L 7910,770 Z" /><path d="M 7350,890 L 7425,890 L 7475,890 L 7550,890 L 7610,890 L 7685,890 L 7785,890 L 7785,770 L 7685,770 L 7610,770 L 7550,770 L 7475,770 L 7425,770 L 7350,770 L 7290,770 L 7215,770 L 7115,770 L 7005,770 L 6905,770 L 6830,770 L 6770,770 L 6695,770 L 6595,770 L 6595,890 L 6695,890 L 6770,890 L 6830,890 L 6905,890 L 7005,890 L 7115,890 L 7215,890 L 7290,890 Z" /><path d="M 7910,2600 L 7995,2600 L 8070,2600 L 8130,2600 L 8205,2600 L 8255,2600 L 8330,2600 L 8390,2600 L 8465,2600 L 8550,2600 L 8550,2360 L 8465,2360 L 8390,2360 L 8330,2360 L 8255,2360 L 8205,2360 L 8130,2360 L 8070,2360 L 7995,2360 L 7910,2360 Z" /><path d="M 7350,2600 L 7425,2600 L 7475,2600 L 7550,2600 L 7610,2600 L 7685,2600 L 7770,2600 L 7770,2120 L 7685,2120 L 7610,2120 L 7550,2120 L 7475,2120 L 7425,2120 L 7350,2120 L 7290,2120 L 7215,2120 L 7130,2120 L 7130,2360 L 6990,2360 L 6905,2360 L 6830,2360 L 6770,2360 L 6695,2360 L 6610,2360 L 6610,2600 L 6695,2600 L 6770,2600 L 6830,2600 L 6905,2600 L 6990,2600 L 7130,2600 L 7215,2600 L 7290,2600 Z" /><path d="M 5830,1010 L 5915,1010 L 5990,1010 L 6050,1010 L 6125,1010 L 6175,1010 L 6250,1010 L 6310,1010 L 6385,1010 L 6470,1010 L 6470,770 L 6385,770 L 6310,770 L 6250,770 L 6175,770 L 6125,770 L 6050,770 L 5990,770 L 5915,770 L 5830,770 Z" /><path d="M 5270,890 L 5345,890 L 5395,890 L 5470,890 L 5530,890 L 5605,890 L 5705,890 L 5705,770 L 5605,770 L 5530,770 L 5470,770 L 5395,770 L 5345,770 L 5270,770 L 5210,770 L 5135,770 L 5035,770 L 4925,770 L 4825,770 L 4750,770 L 4690,770 L 4615,770 L 4515,770 L 4515,890 L 4615,890 L 4690,890 L 4750,890 L 4825,890 L 4925,890 L 5035,890 L 5135,890 L 5210,890 Z" /><path d="M 5830,2600 L 5915,2600 L 5990,2600 L 6050,2600 L 6125,2600 L 6175,2600 L 6250,2600 L 6310,2600 L 6385,2600 L 6470,2600 L 6470,2360 L 6385,2360 L 6310,2360 L 6250,2360 L 6175,2360 L 6125,2360 L 6050,2360 L 5990,2360 L 5915,2360 L 5830,2360 Z" /><path d="M 5270,2600 L 5345,2600 L 5395,2600 L 5470,2600 L 5530,2600 L 5605,2600 L 5690,2600 L 5690,2120 L 5605,2120 L 5530,2120 L 5470,2120 L 5395,2120 L 5345,2120 L 5270,2120 L 5210,2120 L 5135,2120 L 5050,2120 L 5050,2360 L 4910,2360 L 4825,2360 L 4750,2360 L 4690,2360 L 4615,2360 L 4530,2360 L 4530,2600 L 4615,2600 L 4690,2600 L 4750,2600 L 4825,2600 L 4910,2600 L 5050,2600 L 5135,2600 L 5210,2600 Z" /><path d="M 3750,1010 L 3835,1010 L 3910,1010 L 3970,1010 L 4045,1010 L 4095,1010 L 4170,1010 L 4230,1010 L 4305,1010 L 4390,1010 L 4390,770 L 4305,770 L 4230,770 L 4170,770 L 4095,770 L 4045,770 L 3970,770 L 3910,770 L 3835,770 L 3750,770 Z" /><path d="M 3190,890 L 3265,890 L 3315,890 L 3390,890 L 3450,890 L 3525,890 L 3625,890 L 3625,770 L 3525,770 L 3450,770 L 3390,770 L 3315,770 L 3265,770 L 3190,770 L 3130,770 L 3055,770 L 2955,770 L 2845,770 L 2745,770 L 2670,770 L 2610,770 L 2535,770 L 2435,770 L 2435,890 L 2535,890 L 2610,890 L 2670,890 L 2745,890 L 2845,890 L 2955,890 L 3055,890 L 3130,890 Z" /><path d="M 3750,2600 L 3835,2600 L 3910,2600 L 3970,2600 L 4045,2600 L 4095,2600 L 4170,2600 L 4230,2600 L 4305,2600 L 4390,2600 L 4390,2360 L 4305,2360 L 4230,2360 L 4170,2360 L 4095,2360 L 4045,2360 L 3970,2360 L 3910,2360 L 3835,2360 L 3750,2360 Z" /><path d="M 3190,2600 L 3265,2600 L 3315,2600 L 3390,2600 L 3450,2600 L 3525,2600 L 3610,2600 L 3610,2120 L 3525,2120 L 3450,2120 L 3390,2120 L 3315,2120 L 3265,2120 L 3190,2120 L 3130,2120 L 3055,2120 L 2970,2120 L 2970,2360 L 2830,2360 L 2745,2360 L 2670,2360 L 2610,2360 L 2535,2360 L 2450,2360 L 2450,2600 L 2535,2600 L 2610,2600 L 2670,2600 L 2745,2600 L 2830,2600 L 2970,2600 L 3055,2600 L 3130,2600 Z" /><path d="M 15380,300 L 15380,130 L 12780,130 L 10700,130 L 8620,130 L 6540,130 L 4460,130 L 2380,130 L 300,130 L 300,300 L 2380,300 L 4460,300 L 6540,300 L 8620,300 L 10700,300 L 12780,300 Z" /><path d="M 15380,3240 L 15380,3070 L 12780,3070 L 10700,3070 L 8620,3070 L 6540,3070 L 4460,3070 L 2380,3070 L 300,3070 L 300,3240 L 2380,3240 L 4460,3240 L 6540,3240 L 8620,3240 L 10700,3240 L 12780,3240 Z" /><path d="M 1670,1010 L 1755,1010 L 1830,1010 L 1890,1010 L 1965,1010 L 2015,1010 L 2090,1010 L 2150,1010 L 2225,1010 L 2310,1010 L 2310,770 L 2225,770 L 2150,770 L 2090,770 L 2015,770 L 1965,770 L 1890,770 L 1830,770 L 1755,770 L 1670,770 Z" /><path d="M 1110,890 L 1185,890 L 1235,890 L 1310,890 L 1370,890 L 1445,890 L 1545,890 L 1545,770 L 1445,770 L 1370,770 L 1310,770 L 1235,770 L 1185,770 L 1110,770 L 1050,770 L 975,770 L 875,770 L 765,770 L 665,770 L 590,770 L 530,770 L 455,770 L 355,770 L 355,890 L 455,890 L 530,890 L 590,890 L 665,890 L 765,890 L 875,890 L 975,890 L 1050,890 Z" /><path d="M 1670,2600 L 1755,2600 L 1830,2600 L 1890,2600 L 1965,2600 L 2015,2600 L 2090,2600 L 2150,2600 L 2225,2600 L 2310,2600 L 2310,2360 L 2225,2360 L 2150,2360 L 2090,2360 L 2015,2360 L 1965,2360 L 1890,2360 L 1830,2360 L 1755,2360 L 1670,2360 Z" /><path d="M 1110,2600 L 1185,2600 L 1235,2600 L 1310,2600 L 1370,2600 L 1445,2600 L 1530,2600 L 1530,2120 L 1445,2120 L 1370,2120 L 1310,2120 L 1235,2120 L 1185,2120 L 1110,2120 L 1050,2120 L 975,2120 L 890,2120 L 890,2360 L 750,2360 L 665,2360 L 590,2360 L 530,2360 L 455,2360 L 370,2360 L 370,2600 L 455,2600 L 530,2600 L 590,2600 L 665,2600 L 750,2600 L 890,2600 L 975,2600 L 1050,2600 Z" /><path d="M 13925,2600 L 13975,2600 L 14050,2600 L 14110,2600 L 14185,2600 L 14235,2600 L 14310,2600 L 14370,2600 L 14445,2600 L 14530,2600 L 14530,2360 L 14445,2360 L 14370,2360 L 14310,2360 L 14235,2360 L 14185,2360 L 14110,2360 L 14050,2360 L 13975,2360 L 13925,2360 L 13850,2360 L 13790,2360 L 13715,2360 L 13665,2360 L 13590,2360 L 13530,2360 L 13455,2360 L 13405,2360 L 13330,2360 L 13270,2360 L 13195,2360 L 13145,2360 L 13070,2360 L 13010,2360 L 12935,2360 L 12850,2360 L 12850,2600 L 12935,2600 L 13010,2600 L 13070,2600 L 13145,2600 L 13195,2600 L 13270,2600 L 13330,2600 L 13405,2600 L 13455,2600 L 13530,2600 L 13590,2600 L 13665,2600 L 13715,2600 L 13790,2600 L 13850,2600 Z" /><path d="M 13925,1130 L 13975,1130 L 14050,1130 L 14110,1130 L 14185,1130 L 14235,1130 L 14310,1130 L 14370,1130 L 14445,1130 L 14530,1130 L 14530,770 L 14445,770 L 14370,770 L 14310,770 L 14235,770 L 14185,770 L 14110,770 L 14050,770 L 13975,770 L 13925,770 L 13850,770 L 13790,770 L 13715,770 L 13665,770 L 13590,770 L 13530,770 L 13455,770 L 13405,770 L 13330,770 L 13270,770 L 13195,770 L 13145,770 L 13070,770 L 13010,770 L 12935,770 L 12850,770 L 12850,1130 L 12935,1130 L 13010,1130 L 13070,1130 L 13145,1130 L 13195,1130 L 13270,1130 L 13330,1130 L 13405,1130 L 13455,1130 L 13530,1130 L 13590,1130 L 13665,1130 L 13715,1130 L 13790,1130 L 13850,1130 Z" /><path d="M 14670,2600 L 14755,2600 L 14830,2600 L 14890,2600 L 14965,2600 L 15015,2600 L 15090,2600 L 15150,2600 L 15225,2600 L 15310,2600 L 15310,2120 L 15225,2120 L 15150,2120 L 15090,2120 L 15015,2120 L 14965,2120 L 14890,2120 L 14830,2120 L 14755,2120 L 14670,2120 Z" /><path d="M 14965,770 L 14890,770 L 14830,770 L 14755,770 L 14655,770 L 14655,890 L 14755,890 L 14830,890 L 14890,890 L 14965,890 L 15015,890 L 15090,890 L 15150,890 L 15225,890 L 15325,890 L 15325,770 L 15225,770 L 15150,770 L 15090,770 L 15015,770 Z" /></g></g><g id="PO"><g class="l17d0"><path d="M 12290,1010 L 12290,770 L 12290,630 L 12230,630 L 12230,770 L 12230,1010 L 12230,1150 L 12230,1315 L 12205,1315 L 12205,1485 L 12230,1485 L 12230,2220 L 12230,2360 L 12230,2600 L 12230,2740 L 12290,2740 L 12290,2600 L 12290,2360 L 12290,2220 L 12290,1485 L 12315,1485 L 12315,1315 L 12290,1315 L 12290,1150 Z" /><path d="M 12550,1010 L 12550,770 L 12550,630 L 12490,630 L 12490,770 L 12490,1010 L 12490,1150 L 12490,1695 L 12465,1695 L 12465,1865 L 12490,1865 L 12490,2220 L 12490,2360 L 12490,2600 L 12490,2740 L 12550,2740 L 12550,2600 L 12550,2360 L 12550,2220 L 12550,1865 L 12575,1865 L 12575,1695 L 12550,1695 L 12550,1150 Z" /><path d="M 11770,890 L 11770,770 L 11770,630 L 11710,630 L 11710,770 L 11710,890 L 11710,1030 L 11710,1315 L 11685,1315 L 11685,1485 L 11710,1485 L 11710,1980 L 11710,2120 L 11710,2600 L 11710,2740 L 11770,2740 L 11770,2600 L 11770,2120 L 11770,1980 L 11770,1485 L 11795,1485 L 11795,1315 L 11770,1315 L 11770,1030 Z" /><path d="M 11510,890 L 11510,770 L 11510,630 L 11450,630 L 11450,770 L 11450,890 L 11450,1030 L 11450,1695 L 11425,1695 L 11425,1865 L 11450,1865 L 11450,1980 L 11450,2120 L 11450,2600 L 11450,2740 L 11510,2740 L 11510,2600 L 11510,2120 L 11510,1980 L 11510,1865 L 11535,1865 L 11535,1695 L 11510,1695 L 11510,1030 Z" /><path d="M 10990,890 L 10990,770 L 10990,630 L 10930,630 L 10930,770 L 10930,890 L 10930,1030 L 10930,1505 L 10905,1505 L 10905,1675 L 10930,1675 L 10930,2220 L 10930,2360 L 10930,2600 L 10930,2740 L 10990,2740 L 10990,2600 L 10990,2360 L 10990,2220 L 10990,1675 L 11015,1675 L 11015,1505 L 10990,1505 L 10990,1030 Z" /><path d="M 10210,1010 L 10210,770 L 10210,630 L 10150,630 L 10150,770 L 10150,1010 L 10150,1150 L 10150,1315 L 10125,1315 L 10125,1485 L 10150,1485 L 10150,2220 L 10150,2360 L 10150,2600 L 10150,2740 L 10210,2740 L 10210,2600 L 10210,2360 L 10210,2220 L 10210,1485 L 10235,1485 L 10235,1315 L 10210,1315 L 10210,1150 Z" /><path d="M 10470,1010 L 10470,770 L 10470,630 L 10410,630 L 10410,770 L 10410,1010 L 10410,1150 L 10410,1695 L 10385,1695 L 10385,1865 L 10410,1865 L 10410,2220 L 10410,2360 L 10410,2600 L 10410,2740 L 10470,2740 L 10470,2600 L 10470,2360 L 10470,2220 L 10470,1865 L 10495,1865 L 10495,1695 L 10470,1695 L 10470,1150 Z" /><path d="M 9690,890 L 9690,770 L 9690,630 L 9630,630 L 9630,770 L 9630,890 L 9630,1030 L 9630,1315 L 9605,1315 L 9605,1485 L 9630,1485 L 9630,1980 L 9630,2120 L 9630,2600 L 9630,2740 L 9690,2740 L 9690,2600 L 9690,2120 L 9690,1980 L 9690,1485 L 9715,1485 L 9715,1315 L 9690,1315 L 9690,1030 Z" /><path d="M 9430,890 L 9430,770 L 9430,630 L 9370,630 L 9370,770 L 9370,890 L 9370,1030 L 9370,1695 L 9345,1695 L 9345,1865 L 9370,1865 L 9370,1980 L 9370,2120 L 9370,2600 L 9370,2740 L 9430,2740 L 9430,2600 L 9430,2120 L 9430,1980 L 9430,1865 L 9455,1865 L 9455,1695 L 9430,1695 L 9430,1030 Z" /><path d="M 8910,890 L 8910,770 L 8910,630 L 8850,630 L 8850,770 L 8850,890 L 8850,1030 L 8850,1505 L 8825,1505 L 8825,1675 L 8850,1675 L 8850,2220 L 8850,2360 L 8850,2600 L 8850,2740 L 8910,2740 L 8910,2600 L 8910,2360 L 8910,2220 L 8910,1675 L 8935,1675 L 8935,1505 L 8910,1505 L 8910,1030 Z" /><path d="M 8130,1010 L 8130,770 L 8130,630 L 8070,630 L 8070,770 L 8070,1010 L 8070,1150 L 8070,1315 L 8045,1315 L 8045,1485 L 8070,1485 L 8070,2220 L 8070,2360 L 8070,2600 L 8070,2740 L 8130,2740 L 8130,2600 L 8130,2360 L 8130,2220 L 8130,1485 L 8155,1485 L 8155,1315 L 8130,1315 L 8130,1150 Z" /><path d="M 8390,1010 L 8390,770 L 8390,630 L 8330,630 L 8330,770 L 8330,1010 L 8330,1150 L 8330,1695 L 8305,1695 L 8305,1865 L 8330,1865 L 8330,2220 L 8330,2360 L 8330,2600 L 8330,2740 L 8390,2740 L 8390,2600 L 8390,2360 L 8390,2220 L 8390,1865 L 8415,1865 L 8415,1695 L 8390,1695 L 8390,1150 Z" /><path d="M 7610,890 L 7610,770 L 7610,630 L 7550,630 L 7550,770 L 7550,890 L 7550,1030 L 7550,1315 L 7525,1315 L 7525,1485 L 7550,1485 L 7550,1980 L 7550,2120 L 7550,2600 L 7550,2740 L 7610,2740 L 7610,2600 L 7610,2120 L 7610,1980 L 7610,1485 L 7635,1485 L 7635,1315 L 7610,1315 L 7610,1030 Z" /><path d="M 7350,890 L 7350,770 L 7350,630 L 7290,630 L 7290,770 L 7290,890 L 7290,1030 L 7290,1695 L 7265,1695 L 7265,1865 L 7290,1865 L 7290,1980 L 7290,2120 L 7290,2600 L 7290,2740 L 7350,2740 L 7350,2600 L 7350,2120 L 7350,1980 L 7350,1865 L 7375,1865 L 7375,1695 L 7350,1695 L 7350,1030 Z" /><path d="M 6830,890 L 6830,770 L 6830,630 L 6770,630 L 6770,770 L 6770,890 L 6770,1030 L 6770,1505 L 6745,1505 L 6745,1675 L 6770,1675 L 6770,2220 L 6770,2360 L 6770,2600 L 6770,2740 L 6830,2740 L 6830,2600 L 6830,2360 L 6830,2220 L 6830,1675 L 6855,1675 L 6855,1505 L 6830,1505 L 6830,1030 Z" /><path d="M 6050,1010 L 6050,770 L 6050,630 L 5990,630 L 5990,770 L 5990,1010 L 5990,1150 L 5990,1315 L 5965,1315 L 5965,1485 L 5990,1485 L 5990,2220 L 5990,2360 L 5990,2600 L 5990,2740 L 6050,2740 L 6050,2600 L 6050,2360 L 6050,2220 L 6050,1485 L 6075,1485 L 6075,1315 L 6050,1315 L 6050,1150 Z" /><path d="M 6310,1010 L 6310,770 L 6310,630 L 6250,630 L 6250,770 L 6250,1010 L 6250,1150 L 6250,1695 L 6225,1695 L 6225,1865 L 6250,1865 L 6250,2220 L 6250,2360 L 6250,2600 L 6250,2740 L 6310,2740 L 6310,2600 L 6310,2360 L 6310,2220 L 6310,1865 L 6335,1865 L 6335,1695 L 6310,1695 L 6310,1150 Z" /><path d="M 5530,890 L 5530,770 L 5530,630 L 5470,630 L 5470,770 L 5470,890 L 5470,1030 L 5470,1315 L 5445,1315 L 5445,1485 L 5470,1485 L 5470,1980 L 5470,2120 L 5470,2600 L 5470,2740 L 5530,2740 L 5530,2600 L 5530,2120 L 5530,1980 L 5530,1485 L 5555,1485 L 5555,1315 L 5530,1315 L 5530,1030 Z" /><path d="M 5270,890 L 5270,770 L 5270,630 L 5210,630 L 5210,770 L 5210,890 L 5210,1030 L 5210,1695 L 5185,1695 L 5185,1865 L 5210,1865 L 5210,1980 L 5210,2120 L 5210,2600 L 5210,2740 L 5270,2740 L 5270,2600 L 5270,2120 L 5270,1980 L 5270,1865 L 5295,1865 L 5295,1695 L 5270,1695 L 5270,1030 Z" /><path d="M 4750,890 L 4750,770 L 4750,630 L 4690,630 L 4690,770 L 4690,890 L 4690,1030 L 4690,1505 L 4665,1505 L 4665,1675 L 4690,1675 L 4690,2220 L 4690,2360 L 4690,2600 L 4690,2740 L 4750,2740 L 4750,2600 L 4750,2360 L 4750,2220 L 4750,1675 L 4775,1675 L 4775,1505 L 4750,1505 L 4750,1030 Z" /><path d="M 3970,1010 L 3970,770 L 3970,630 L 3910,630 L 3910,770 L 3910,1010 L 3910,1150 L 3910,1315 L 3885,1315 L 3885,1485 L 3910,1485 L 3910,2220 L 3910,2360 L 3910,2600 L 3910,2740 L 3970,2740 L 3970,2600 L 3970,2360 L 3970,2220 L 3970,1485 L 3995,1485 L 3995,1315 L 3970,1315 L 3970,1150 Z" /><path d="M 4230,1010 L 4230,770 L 4230,630 L 4170,630 L 4170,770 L 4170,1010 L 4170,1150 L 4170,1695 L 4145,1695 L 4145,1865 L 4170,1865 L 4170,2220 L 4170,2360 L 4170,2600 L 4170,2740 L 4230,2740 L 4230,2600 L 4230,2360 L 4230,2220 L 4230,1865 L 4255,1865 L 4255,1695 L 4230,1695 L 4230,1150 Z" /><path d="M 3450,890 L 3450,770 L 3450,630 L 3390,630 L 3390,770 L 3390,890 L 3390,1030 L 3390,1315 L 3365,1315 L 3365,1485 L 3390,1485 L 3390,1980 L 3390,2120 L 3390,2600 L 3390,2740 L 3450,2740 L 3450,2600 L 3450,2120 L 3450,1980 L 3450,1485 L 3475,1485 L 3475,1315 L 3450,1315 L 3450,1030 Z" /><path d="M 3190,890 L 3190,770 L 3190,630 L 3130,630 L 3130,770 L 3130,890 L 3130,1030 L 3130,1695 L 3105,1695 L 3105,1865 L 3130,1865 L 3130,1980 L 3130,2120 L 3130,2600 L 3130,2740 L 3190,2740 L 3190,2600 L 3190,2120 L 3190,1980 L 3190,1865 L 3215,1865 L 3215,1695 L 3190,1695 L 3190,1030 Z" /><path d="M 2670,890 L 2670,770 L 2670,630 L 2610,630 L 2610,770 L 2610,890 L 2610,1030 L 2610,1505 L 2585,1505 L 2585,1675 L 2610,1675 L 2610,2220 L 2610,2360 L 2610,2600 L 2610,2740 L 2670,2740 L 2670,2600 L 2670,2360 L 2670,2220 L 2670,1675 L 2695,1675 L 2695,1505 L 2670,1505 L 2670,1030 Z" /><path d="M 1890,1010 L 1890,770 L 1890,630 L 1830,630 L 1830,770 L 1830,1010 L 1830,1150 L 1830,1315 L 1805,1315 L 1805,1485 L 1830,1485 L 1830,2220 L 1830,2360 L 1830,2600 L 1830,2740 L 1890,2740 L 1890,2600 L 1890,2360 L 1890,2220 L 1890,1485 L 1915,1485 L 1915,1315 L 1890,1315 L 1890,1150 Z" /><path d="M 2150,1010 L 2150,770 L 2150,630 L 2090,630 L 2090,770 L 2090,1010 L 2090,1150 L 2090,1695 L 2065,1695 L 2065,1865 L 2090,1865 L 2090,2220 L 2090,2360 L 2090,2600 L 2090,2740 L 2150,2740 L 2150,2600 L 2150,2360 L 2150,2220 L 2150,1865 L 2175,1865 L 2175,1695 L 2150,1695 L 2150,1150 Z" /><path d="M 1370,890 L 1370,770 L 1370,630 L 1310,630 L 1310,770 L 1310,890 L 1310,1030 L 1310,1315 L 1285,1315 L 1285,1485 L 1310,1485 L 1310,1980 L 1310,2120 L 1310,2600 L 1310,2740 L 1370,2740 L 1370,2600 L 1370,2120 L 1370,1980 L 1370,1485 L 1395,1485 L 1395,1315 L 1370,1315 L 1370,1030 Z" /><path d="M 1110,890 L 1110,770 L 1110,630 L 1050,630 L 1050,770 L 1050,890 L 1050,1030 L 1050,1695 L 1025,1695 L 1025,1865 L 1050,1865 L 1050,1980 L 1050,2120 L 1050,2600 L 1050,2740 L 1110,2740 L 1110,2600 L 1110,2120 L 1110,1980 L 1110,1865 L 1135,1865 L 1135,1695 L 1110,1695 L 1110,1030 Z" /><path d="M 590,890 L 590,770 L 590,630 L 530,630 L 530,770 L 530,890 L 530,1030 L 530,1505 L 505,1505 L 505,1675 L 530,1675 L 530,2220 L 530,2360 L 530,2600 L 530,2740 L 590,2740 L 590,2600 L 590,2360 L 590,2220 L 590,1675 L 615,1675 L 615,1505 L 590,1505 L 590,1030 Z" /><path d="M 14890,1030 L 14890,890 L 14890,770 L 14890,630 L 14830,630 L 14830,770 L 14830,890 L 14830,1030 L 14830,1505 L 14805,1505 L 14805,1675 L 14830,1675 L 14830,1980 L 14830,2120 L 14830,2600 L 14830,2740 L 14890,2740 L 14890,2600 L 14890,2120 L 14890,1980 L 14889,1980 L 14889,1675 L 14915,1675 L 14915,1505 L 14889,1505 L 14889,1030 Z" /><path d="M 15090,2120 L 15090,2600 L 15090,2740 L 15150,2740 L 15150,2600 L 15150,2120 L 15150,1980 L 15150,1485 L 15175,1485 L 15175,1315 L 15150,1315 L 15150,1030 L 15150,890 L 15150,770 L 15150,630 L 15090,630 L 15090,770 L 15090,890 L 15090,1030 L 15090,1315 L 15065,1315 L 15065,1485 L 15090,1485 L 15090,1980 Z" /><path d="M 14310,2360 L 14310,2600 L 14310,2740 L 14370,2740 L 14370,2600 L 14370,2360 L 14370,2220 L 14370,2055 L 14395,2055 L 14395,1885 L 14370,1885 L 14370,1270 L 14370,1130 L 14370,770 L 14370,630 L 14310,630 L 14310,770 L 14310,1130 L 14310,1270 L 14310,1885 L 14285,1885 L 14285,2055 L 14310,2055 L 14310,2220 Z" /><path d="M 14050,2360 L 14050,2600 L 14050,2740 L 14110,2740 L 14110,2600 L 14110,2360 L 14110,2220 L 14110,1865 L 14135,1865 L 14135,1695 L 14110,1695 L 14110,1270 L 14110,1130 L 14110,770 L 14110,630 L 14050,630 L 14050,770 L 14050,1130 L 14050,1270 L 14050,1695 L 14025,1695 L 14025,1865 L 14050,1865 L 14050,2220 Z" /><path d="M 13790,2360 L 13790,2600 L 13790,2740 L 13850,2740 L 13850,2600 L 13850,2360 L 13850,2220 L 13850,1675 L 13875,1675 L 13875,1505 L 13850,1505 L 13850,1270 L 13850,1130 L 13850,770 L 13850,630 L 13790,630 L 13790,770 L 13790,1130 L 13790,1270 L 13790,1505 L 13765,1505 L 13765,1675 L 13790,1675 L 13790,2220 Z" /><path d="M 13590,1270 L 13590,1130 L 13590,770 L 13590,630 L 13530,630 L 13530,770 L 13530,1130 L 13530,1270 L 13530,2075 L 13505,2075 L 13505,2245 L 13530,2245 L 13530,2360 L 13530,2600 L 13530,2740 L 13590,2740 L 13590,2600 L 13590,2360 L 13590,2245 L 13615,2245 L 13615,2075 L 13590,2075 Z" /><path d="M 13270,2360 L 13270,2600 L 13270,2740 L 13330,2740 L 13330,2600 L 13330,2360 L 13330,2220 L 13330,2055 L 13355,2055 L 13355,1885 L 13330,1885 L 13330,1270 L 13330,1130 L 13330,770 L 13330,630 L 13270,630 L 13270,770 L 13270,1130 L 13270,1270 L 13270,1885 L 13245,1885 L 13245,2055 L 13270,2055 L 13270,2220 Z" /><path d="M 13010,2360 L 13010,2600 L 13010,2740 L 13070,2740 L 13070,2600 L 13070,2360 L 13070,2220 L 13070,1865 L 13095,1865 L 13095,1695 L 13070,1695 L 13070,1270 L 13070,1130 L 13070,770 L 13070,630 L 13010,630 L 13010,770 L 13010,1130 L 13010,1270 L 13010,1695 L 12985,1695 L 12985,1865 L 13010,1865 L 13010,2220 Z" /></g></g><g id="CO"><g class="l30d0"><path d="M 15205,2480 L 15295,2480 L 15295,2570 L 15205,2570 Z" /><path d="M 15205,2150 L 15295,2150 L 15295,2240 L 15205,2240 Z" /><path d="M 14685,785 L 14775,785 L 14775,875 L 14685,875 Z" /><path d="M 15205,785 L 15295,785 L 15295,875 L 15205,875 Z" /><path d="M 13645,1010 L 13735,1010 L 13735,1100 L 13645,1100 Z" /><path d="M 13645,800 L 13735,800 L 13735,890 L 13645,890 Z" /><path d="M 14945,785 L 15035,785 L 15035,875 L 14945,875 Z" /><path d="M 14685,2480 L 14775,2480 L 14775,2570 L 14685,2570 Z" /><path d="M 14685,2150 L 14775,2150 L 14775,2240 L 14685,2240 Z" /><path d="M 14425,1010 L 14515,1010 L 14515,1100 L 14425,1100 Z" /><path d="M 14425,800 L 14515,800 L 14515,890 L 14425,890 Z" /><path d="M 12865,800 L 12955,800 L 12955,890 L 12865,890 Z" /><path d="M 12865,1010 L 12955,1010 L 12955,1100 L 12865,1100 Z" /><path d="M 14165,2435 L 14255,2435 L 14255,2525 L 14165,2525 Z" /><path d="M 13905,2435 L 13995,2435 L 13995,2525 L 13905,2525 Z" /><path d="M 13385,2435 L 13475,2435 L 13475,2525 L 13385,2525 Z" /><path d="M 13645,2435 L 13735,2435 L 13735,2525 L 13645,2525 Z" /><path d="M 13125,2435 L 13215,2435 L 13215,2525 L 13125,2525 Z" /><path d="M 14425,2435 L 14515,2435 L 14515,2525 L 14425,2525 Z" /><path d="M 12865,2435 L 12955,2435 L 12955,2525 L 12865,2525 Z" /><path d="M 15205,170 L 15295,170 L 15295,260 L 15205,260 Z" /><path d="M 14945,170 L 15035,170 L 15035,260 L 14945,260 Z" /><path d="M 14685,170 L 14775,170 L 14775,260 L 14685,260 Z" /><path d="M 14425,170 L 14515,170 L 14515,260 L 14425,260 Z" /><path d="M 14165,170 L 14255,170 L 14255,260 L 14165,260 Z" /><path d="M 13905,170 L 13995,170 L 13995,260 L 13905,260 Z" /><path d="M 13645,170 L 13735,170 L 13735,260 L 13645,260 Z" /><path d="M 13385,170 L 13475,170 L 13475,260 L 13385,260 Z" /><path d="M 13125,170 L 13215,170 L 13215,260 L 13125,260 Z" /><path d="M 12865,170 L 12955,170 L 12955,260 L 12865,260 Z" /><path d="M 15205,3110 L 15295,3110 L 15295,3200 L 15205,3200 Z" /><path d="M 14945,3110 L 15035,3110 L 15035,3200 L 14945,3200 Z" /><path d="M 14685,3110 L 14775,3110 L 14775,3200 L 14685,3200 Z" /><path d="M 14425,3110 L 14515,3110 L 14515,3200 L 14425,3200 Z" /><path d="M 14165,3110 L 14255,3110 L 14255,3200 L 14165,3200 Z" /><path d="M 13905,3110 L 13995,3110 L 13995,3200 L 13905,3200 Z" /><path d="M 13645,3110 L 13735,3110 L 13735,3200 L 13645,3200 Z" /><path d="M 13385,3110 L 13475,3110 L 13475,3200 L 13385,3200 Z" /><path d="M 13125,3110 L 13215,3110 L 13215,3200 L 13125,3200 Z" /><path d="M 12865,3110 L 12955,3110 L 12955,3200 L 12865,3200 Z" /><path d="M 12085,845 L 12175,845 L 12175,935 L 12085,935 Z" /><path d="M 12605,845 L 12695,845 L 12695,935 L 12605,935 Z" /><path d="M 11565,785 L 11655,785 L 11655,875 L 11565,875 Z" /><path d="M 11305,785 L 11395,785 L 11395,875 L 11305,875 Z" /><path d="M 11825,785 L 11915,785 L 11915,875 L 11825,875 Z" /><path d="M 10785,785 L 10875,785 L 10875,875 L 10785,875 Z" /><path d="M 11045,785 L 11135,785 L 11135,875 L 11045,875 Z" /><path d="M 12345,2435 L 12435,2435 L 12435,2525 L 12345,2525 Z" /><path d="M 12085,2435 L 12175,2435 L 12175,2525 L 12085,2525 Z" /><path d="M 12605,2435 L 12695,2435 L 12695,2525 L 12605,2525 Z" /><path d="M 11825,2480 L 11915,2480 L 11915,2570 L 11825,2570 Z" /><path d="M 11825,2150 L 11915,2150 L 11915,2240 L 11825,2240 Z" /><path d="M 11305,2150 L 11395,2150 L 11395,2240 L 11305,2240 Z" /><path d="M 11305,2480 L 11395,2480 L 11395,2570 L 11305,2570 Z" /><path d="M 11045,2435 L 11135,2435 L 11135,2525 L 11045,2525 Z" /><path d="M 10785,2435 L 10875,2435 L 10875,2525 L 10785,2525 Z" /><path d="M 12605,170 L 12695,170 L 12695,260 L 12605,260 Z" /><path d="M 12345,170 L 12435,170 L 12435,260 L 12345,260 Z" /><path d="M 12085,170 L 12175,170 L 12175,260 L 12085,260 Z" /><path d="M 11825,170 L 11915,170 L 11915,260 L 11825,260 Z" /><path d="M 11565,170 L 11655,170 L 11655,260 L 11565,260 Z" /><path d="M 10785,170 L 10875,170 L 10875,260 L 10785,260 Z" /><path d="M 11045,170 L 11135,170 L 11135,260 L 11045,260 Z" /><path d="M 11305,170 L 11395,170 L 11395,260 L 11305,260 Z" /><path d="M 12605,3110 L 12695,3110 L 12695,3200 L 12605,3200 Z" /><path d="M 12345,3110 L 12435,3110 L 12435,3200 L 12345,3200 Z" /><path d="M 12085,3110 L 12175,3110 L 12175,3200 L 12085,3200 Z" /><path d="M 11825,3110 L 11915,3110 L 11915,3200 L 11825,3200 Z" /><path d="M 11565,3110 L 11655,3110 L 11655,3200 L 11565,3200 Z" /><path d="M 11305,3110 L 11395,3110 L 11395,3200 L 11305,3200 Z" /><path d="M 11045,3110 L 11135,3110 L 11135,3200 L 11045,3200 Z" /><path d="M 10785,3110 L 10875,3110 L 10875,3200 L 10785,3200 Z" /><path d="M 12215,1355 L 12305,1355 L 12305,1445 L 12215,1445 Z" /><path d="M 12475,1735 L 12565,1735 L 12565,1825 L 12475,1825 Z" /><path d="M 11695,1355 L 11785,1355 L 11785,1445 L 11695,1445 Z" /><path d="M 11435,1735 L 11525,1735 L 11525,1825 L 11435,1825 Z" /><path d="M 10915,1545 L 11005,1545 L 11005,1635 L 10915,1635 Z" /><path d="M 10005,845 L 10095,845 L 10095,935 L 10005,935 Z" /><path d="M 10525,845 L 10615,845 L 10615,935 L 10525,935 Z" /><path d="M 9485,785 L 9575,785 L 9575,875 L 9485,875 Z" /><path d="M 9225,785 L 9315,785 L 9315,875 L 9225,875 Z" /><path d="M 9745,785 L 9835,785 L 9835,875 L 9745,875 Z" /><path d="M 8705,785 L 8795,785 L 8795,875 L 8705,875 Z" /><path d="M 8965,785 L 9055,785 L 9055,875 L 8965,875 Z" /><path d="M 10265,2435 L 10355,2435 L 10355,2525 L 10265,2525 Z" /><path d="M 10005,2435 L 10095,2435 L 10095,2525 L 10005,2525 Z" /><path d="M 10525,2435 L 10615,2435 L 10615,2525 L 10525,2525 Z" /><path d="M 9745,2480 L 9835,2480 L 9835,2570 L 9745,2570 Z" /><path d="M 9745,2150 L 9835,2150 L 9835,2240 L 9745,2240 Z" /><path d="M 9225,2150 L 9315,2150 L 9315,2240 L 9225,2240 Z" /><path d="M 9225,2480 L 9315,2480 L 9315,2570 L 9225,2570 Z" /><path d="M 8965,2435 L 9055,2435 L 9055,2525 L 8965,2525 Z" /><path d="M 8705,2435 L 8795,2435 L 8795,2525 L 8705,2525 Z" /><path d="M 10525,170 L 10615,170 L 10615,260 L 10525,260 Z" /><path d="M 10265,170 L 10355,170 L 10355,260 L 10265,260 Z" /><path d="M 10005,170 L 10095,170 L 10095,260 L 10005,260 Z" /><path d="M 9745,170 L 9835,170 L 9835,260 L 9745,260 Z" /><path d="M 9485,170 L 9575,170 L 9575,260 L 9485,260 Z" /><path d="M 8705,170 L 8795,170 L 8795,260 L 8705,260 Z" /><path d="M 8965,170 L 9055,170 L 9055,260 L 8965,260 Z" /><path d="M 9225,170 L 9315,170 L 9315,260 L 9225,260 Z" /><path d="M 10525,3110 L 10615,3110 L 10615,3200 L 10525,3200 Z" /><path d="M 10265,3110 L 10355,3110 L 10355,3200 L 10265,3200 Z" /><path d="M 10005,3110 L 10095,3110 L 10095,3200 L 10005,3200 Z" /><path d="M 9745,3110 L 9835,3110 L 9835,3200 L 9745,3200 Z" /><path d="M 9485,3110 L 9575,3110 L 9575,3200 L 9485,3200 Z" /><path d="M 9225,3110 L 9315,3110 L 9315,3200 L 9225,3200 Z" /><path d="M 8965,3110 L 9055,3110 L 9055,3200 L 8965,3200 Z" /><path d="M 8705,3110 L 8795,3110 L 8795,3200 L 8705,3200 Z" /><path d="M 10135,1355 L 10225,1355 L 10225,1445 L 10135,1445 Z" /><path d="M 10395,1735 L 10485,1735 L 10485,1825 L 10395,1825 Z" /><path d="M 9615,1355 L 9705,1355 L 9705,1445 L 9615,1445 Z" /><path d="M 9355,1735 L 9445,1735 L 9445,1825 L 9355,1825 Z" /><path d="M 8835,1545 L 8925,1545 L 8925,1635 L 8835,1635 Z" /><path d="M 7925,845 L 8015,845 L 8015,935 L 7925,935 Z" /><path d="M 8445,845 L 8535,845 L 8535,935 L 8445,935 Z" /><path d="M 7405,785 L 7495,785 L 7495,875 L 7405,875 Z" /><path d="M 7145,785 L 7235,785 L 7235,875 L 7145,875 Z" /><path d="M 7665,785 L 7755,785 L 7755,875 L 7665,875 Z" /><path d="M 6625,785 L 6715,785 L 6715,875 L 6625,875 Z" /><path d="M 6885,785 L 6975,785 L 6975,875 L 6885,875 Z" /><path d="M 8185,2435 L 8275,2435 L 8275,2525 L 8185,2525 Z" /><path d="M 7925,2435 L 8015,2435 L 8015,2525 L 7925,2525 Z" /><path d="M 8445,2435 L 8535,2435 L 8535,2525 L 8445,2525 Z" /><path d="M 7665,2480 L 7755,2480 L 7755,2570 L 7665,2570 Z" /><path d="M 7665,2150 L 7755,2150 L 7755,2240 L 7665,2240 Z" /><path d="M 7145,2150 L 7235,2150 L 7235,2240 L 7145,2240 Z" /><path d="M 7145,2480 L 7235,2480 L 7235,2570 L 7145,2570 Z" /><path d="M 6885,2435 L 6975,2435 L 6975,2525 L 6885,2525 Z" /><path d="M 6625,2435 L 6715,2435 L 6715,2525 L 6625,2525 Z" /><path d="M 8445,170 L 8535,170 L 8535,260 L 8445,260 Z" /><path d="M 8185,170 L 8275,170 L 8275,260 L 8185,260 Z" /><path d="M 7925,170 L 8015,170 L 8015,260 L 7925,260 Z" /><path d="M 7665,170 L 7755,170 L 7755,260 L 7665,260 Z" /><path d="M 7405,170 L 7495,170 L 7495,260 L 7405,260 Z" /><path d="M 6625,170 L 6715,170 L 6715,260 L 6625,260 Z" /><path d="M 6885,170 L 6975,170 L 6975,260 L 6885,260 Z" /><path d="M 7145,170 L 7235,170 L 7235,260 L 7145,260 Z" /><path d="M 8445,3110 L 8535,3110 L 8535,3200 L 8445,3200 Z" /><path d="M 8185,3110 L 8275,3110 L 8275,3200 L 8185,3200 Z" /><path d="M 7925,3110 L 8015,3110 L 8015,3200 L 7925,3200 Z" /><path d="M 7665,3110 L 7755,3110 L 7755,3200 L 7665,3200 Z" /><path d="M 7405,3110 L 7495,3110 L 7495,3200 L 7405,3200 Z" /><path d="M 7145,3110 L 7235,3110 L 7235,3200 L 7145,3200 Z" /><path d="M 6885,3110 L 6975,3110 L 6975,3200 L 6885,3200 Z" /><path d="M 6625,3110 L 6715,3110 L 6715,3200 L 6625,3200 Z" /><path d="M 8055,1355 L 8145,1355 L 8145,1445 L 8055,1445 Z" /><path d="M 8315,1735 L 8405,1735 L 8405,1825 L 8315,1825 Z" /><path d="M 7535,1355 L 7625,1355 L 7625,1445 L 7535,1445 Z" /><path d="M 7275,1735 L 7365,1735 L 7365,1825 L 7275,1825 Z" /><path d="M 6755,1545 L 6845,1545 L 6845,1635 L 6755,1635 Z" /><path d="M 5845,845 L 5935,845 L 5935,935 L 5845,935 Z" /><path d="M 6365,845 L 6455,845 L 6455,935 L 6365,935 Z" /><path d="M 5325,785 L 5415,785 L 5415,875 L 5325,875 Z" /><path d="M 5065,785 L 5155,785 L 5155,875 L 5065,875 Z" /><path d="M 5585,785 L 5675,785 L 5675,875 L 5585,875 Z" /><path d="M 4545,785 L 4635,785 L 4635,875 L 4545,875 Z" /><path d="M 4805,785 L 4895,785 L 4895,875 L 4805,875 Z" /><path d="M 6105,2435 L 6195,2435 L 6195,2525 L 6105,2525 Z" /><path d="M 5845,2435 L 5935,2435 L 5935,2525 L 5845,2525 Z" /><path d="M 6365,2435 L 6455,2435 L 6455,2525 L 6365,2525 Z" /><path d="M 5585,2480 L 5675,2480 L 5675,2570 L 5585,2570 Z" /><path d="M 5585,2150 L 5675,2150 L 5675,2240 L 5585,2240 Z" /><path d="M 5065,2150 L 5155,2150 L 5155,2240 L 5065,2240 Z" /><path d="M 5065,2480 L 5155,2480 L 5155,2570 L 5065,2570 Z" /><path d="M 4805,2435 L 4895,2435 L 4895,2525 L 4805,2525 Z" /><path d="M 4545,2435 L 4635,2435 L 4635,2525 L 4545,2525 Z" /><path d="M 6365,170 L 6455,170 L 6455,260 L 6365,260 Z" /><path d="M 6105,170 L 6195,170 L 6195,260 L 6105,260 Z" /><path d="M 5845,170 L 5935,170 L 5935,260 L 5845,260 Z" /><path d="M 5585,170 L 5675,170 L 5675,260 L 5585,260 Z" /><path d="M 5325,170 L 5415,170 L 5415,260 L 5325,260 Z" /><path d="M 4545,170 L 4635,170 L 4635,260 L 4545,260 Z" /><path d="M 4805,170 L 4895,170 L 4895,260 L 4805,260 Z" /><path d="M 5065,170 L 5155,170 L 5155,260 L 5065,260 Z" /><path d="M 6365,3110 L 6455,3110 L 6455,3200 L 6365,3200 Z" /><path d="M 6105,3110 L 6195,3110 L 6195,3200 L 6105,3200 Z" /><path d="M 5845,3110 L 5935,3110 L 5935,3200 L 5845,3200 Z" /><path d="M 5585,3110 L 5675,3110 L 5675,3200 L 5585,3200 Z" /><path d="M 5325,3110 L 5415,3110 L 5415,3200 L 5325,3200 Z" /><path d="M 5065,3110 L 5155,3110 L 5155,3200 L 5065,3200 Z" /><path d="M 4805,3110 L 4895,3110 L 4895,3200 L 4805,3200 Z" /><path d="M 4545,3110 L 4635,3110 L 4635,3200 L 4545,3200 Z" /><path d="M 5975,1355 L 6065,1355 L 6065,1445 L 5975,1445 Z" /><path d="M 6235,1735 L 6325,1735 L 6325,1825 L 6235,1825 Z" /><path d="M 5455,1355 L 5545,1355 L 5545,1445 L 5455,1445 Z" /><path d="M 5195,1735 L 5285,1735 L 5285,1825 L 5195,1825 Z" /><path d="M 4675,1545 L 4765,1545 L 4765,1635 L 4675,1635 Z" /><path d="M 3765,845 L 3855,845 L 3855,935 L 3765,935 Z" /><path d="M 4285,845 L 4375,845 L 4375,935 L 4285,935 Z" /><path d="M 3245,785 L 3335,785 L 3335,875 L 3245,875 Z" /><path d="M 2985,785 L 3075,785 L 3075,875 L 2985,875 Z" /><path d="M 3505,785 L 3595,785 L 3595,875 L 3505,875 Z" /><path d="M 2465,785 L 2555,785 L 2555,875 L 2465,875 Z" /><path d="M 2725,785 L 2815,785 L 2815,875 L 2725,875 Z" /><path d="M 4025,2435 L 4115,2435 L 4115,2525 L 4025,2525 Z" /><path d="M 3765,2435 L 3855,2435 L 3855,2525 L 3765,2525 Z" /><path d="M 4285,2435 L 4375,2435 L 4375,2525 L 4285,2525 Z" /><path d="M 3505,2480 L 3595,2480 L 3595,2570 L 3505,2570 Z" /><path d="M 3505,2150 L 3595,2150 L 3595,2240 L 3505,2240 Z" /><path d="M 2985,2150 L 3075,2150 L 3075,2240 L 2985,2240 Z" /><path d="M 2985,2480 L 3075,2480 L 3075,2570 L 2985,2570 Z" /><path d="M 2725,2435 L 2815,2435 L 2815,2525 L 2725,2525 Z" /><path d="M 2465,2435 L 2555,2435 L 2555,2525 L 2465,2525 Z" /><path d="M 4285,170 L 4375,170 L 4375,260 L 4285,260 Z" /><path d="M 4025,170 L 4115,170 L 4115,260 L 4025,260 Z" /><path d="M 3765,170 L 3855,170 L 3855,260 L 3765,260 Z" /><path d="M 3505,170 L 3595,170 L 3595,260 L 3505,260 Z" /><path d="M 3245,170 L 3335,170 L 3335,260 L 3245,260 Z" /><path d="M 2465,170 L 2555,170 L 2555,260 L 2465,260 Z" /><path d="M 2725,170 L 2815,170 L 2815,260 L 2725,260 Z" /><path d="M 2985,170 L 3075,170 L 3075,260 L 2985,260 Z" /><path d="M 4285,3110 L 4375,3110 L 4375,3200 L 4285,3200 Z" /><path d="M 4025,3110 L 4115,3110 L 4115,3200 L 4025,3200 Z" /><path d="M 3765,3110 L 3855,3110 L 3855,3200 L 3765,3200 Z" /><path d="M 3505,3110 L 3595,3110 L 3595,3200 L 3505,3200 Z" /><path d="M 3245,3110 L 3335,3110 L 3335,3200 L 3245,3200 Z" /><path d="M 2985,3110 L 3075,3110 L 3075,3200 L 2985,3200 Z" /><path d="M 2725,3110 L 2815,3110 L 2815,3200 L 2725,3200 Z" /><path d="M 2465,3110 L 2555,3110 L 2555,3200 L 2465,3200 Z" /><path d="M 3895,1355 L 3985,1355 L 3985,1445 L 3895,1445 Z" /><path d="M 4155,1735 L 4245,1735 L 4245,1825 L 4155,1825 Z" /><path d="M 3375,1355 L 3465,1355 L 3465,1445 L 3375,1445 Z" /><path d="M 3115,1735 L 3205,1735 L 3205,1825 L 3115,1825 Z" /><path d="M 2595,1545 L 2685,1545 L 2685,1635 L 2595,1635 Z" /><path d="M 1685,845 L 1775,845 L 1775,935 L 1685,935 Z" /><path d="M 2205,845 L 2295,845 L 2295,935 L 2205,935 Z" /><path d="M 1165,785 L 1255,785 L 1255,875 L 1165,875 Z" /><path d="M 905,785 L 995,785 L 995,875 L 905,875 Z" /><path d="M 1425,785 L 1515,785 L 1515,875 L 1425,875 Z" /><path d="M 385,785 L 475,785 L 475,875 L 385,875 Z" /><path d="M 645,785 L 735,785 L 735,875 L 645,875 Z" /><path d="M 1945,2435 L 2035,2435 L 2035,2525 L 1945,2525 Z" /><path d="M 1685,2435 L 1775,2435 L 1775,2525 L 1685,2525 Z" /><path d="M 2205,2435 L 2295,2435 L 2295,2525 L 2205,2525 Z" /><path d="M 1425,2480 L 1515,2480 L 1515,2570 L 1425,2570 Z" /><path d="M 1425,2150 L 1515,2150 L 1515,2240 L 1425,2240 Z" /><path d="M 905,2150 L 995,2150 L 995,2240 L 905,2240 Z" /><path d="M 905,2480 L 995,2480 L 995,2570 L 905,2570 Z" /><path d="M 645,2435 L 735,2435 L 735,2525 L 645,2525 Z" /><path d="M 385,2435 L 475,2435 L 475,2525 L 385,2525 Z" /><path d="M 2205,170 L 2295,170 L 2295,260 L 2205,260 Z" /><path d="M 1945,170 L 2035,170 L 2035,260 L 1945,260 Z" /><path d="M 1685,170 L 1775,170 L 1775,260 L 1685,260 Z" /><path d="M 1425,170 L 1515,170 L 1515,260 L 1425,260 Z" /><path d="M 1165,170 L 1255,170 L 1255,260 L 1165,260 Z" /><path d="M 385,170 L 475,170 L 475,260 L 385,260 Z" /><path d="M 645,170 L 735,170 L 735,260 L 645,260 Z" /><path d="M 905,170 L 995,170 L 995,260 L 905,260 Z" /><path d="M 2205,3110 L 2295,3110 L 2295,3200 L 2205,3200 Z" /><path d="M 1945,3110 L 2035,3110 L 2035,3200 L 1945,3200 Z" /><path d="M 1685,3110 L 1775,3110 L 1775,3200 L 1685,3200 Z" /><path d="M 1425,3110 L 1515,3110 L 1515,3200 L 1425,3200 Z" /><path d="M 1165,3110 L 1255,3110 L 1255,3200 L 1165,3200 Z" /><path d="M 905,3110 L 995,3110 L 995,3200 L 905,3200 Z" /><path d="M 645,3110 L 735,3110 L 735,3200 L 645,3200 Z" /><path d="M 385,3110 L 475,3110 L 475,3200 L 385,3200 Z" /><path d="M 1815,1355 L 1905,1355 L 1905,1445 L 1815,1445 Z" /><path d="M 2075,1735 L 2165,1735 L 2165,1825 L 2075,1825 Z" /><path d="M 1295,1355 L 1385,1355 L 1385,1445 L 1295,1445 Z" /><path d="M 1035,1735 L 1125,1735 L 1125,1825 L 1035,1825 Z" /><path d="M 515,1545 L 605,1545 L 605,1635 L 515,1635 Z" /><path d="M 14815,1545 L 14905,1545 L 14905,1635 L 14815,1635 Z" /><path d="M 15075,1355 L 15165,1355 L 15165,1445 L 15075,1445 Z" /><path d="M 14295,1925 L 14385,1925 L 14385,2015 L 14295,2015 Z" /><path d="M 14035,1735 L 14125,1735 L 14125,1825 L 14035,1825 Z" /><path d="M 13775,1545 L 13865,1545 L 13865,1635 L 13775,1635 Z" /><path d="M 13515,2115 L 13605,2115 L 13605,2205 L 13515,2205 Z" /><path d="M 13255,1925 L 13345,1925 L 13345,2015 L 13255,2015 Z" /><path d="M 12995,1735 L 13085,1735 L 13085,1825 L 12995,1825 Z" /></g></g><g id="M1"><g class="l31d0"><path d="M 12340,2390 L 12340,2570 L 12340,2810 L 12440,2810 L 12440,2570 L 12440,2390 Z" /><path d="M 11820,2110 L 11820,2245 L 11820,2270 L 11820,2450 L 11820,2475 L 11820,2610 L 11920,2610 L 11920,2475 L 11920,2450 L 11920,2270 L 11920,2245 L 11920,2110 Z" /><path d="M 10880,500 L 10780,500 L 10780,740 L 10780,920 L 10880,920 L 10880,740 Z" /><path d="M 10780,2390 L 10780,2570 L 10780,2810 L 10880,2810 L 10880,2570 L 10880,2390 Z" /><path d="M 12700,560 L 12600,560 L 12600,800 L 12600,980 L 12700,980 L 12700,800 Z" /><path d="M 11660,500 L 11560,500 L 11560,740 L 11560,920 L 11660,920 L 11660,740 Z" /><path d="M 12040,1450 L 12175,1450 L 12220,1450 L 12345,1450 L 12460,1450 L 12460,1350 L 12345,1350 L 12220,1350 L 12175,1350 L 12040,1350 Z" /><path d="M 11960,1730 L 11870,1730 L 11780,1730 L 11780,1830 L 11870,1830 L 11960,1830 L 12435,1830 L 12520,1830 L 12605,1830 L 12605,1730 L 12520,1730 L 12435,1730 Z" /><path d="M 11520,1640 L 11610,1640 L 11700,1640 L 11700,1540 L 11610,1540 L 11520,1540 L 11045,1540 L 10960,1540 L 10875,1540 L 10875,1640 L 10960,1640 L 11045,1640 Z" /><path d="M 11180,1350 L 11100,1350 L 11000,1350 L 11000,1450 L 11100,1450 L 11180,1450 L 11655,1450 L 11740,1450 L 11825,1450 L 11825,1350 L 11740,1350 L 11655,1350 Z" /><path d="M 10920,1730 L 10830,1730 L 10740,1730 L 10740,1830 L 10830,1830 L 10920,1830 L 11395,1830 L 11480,1830 L 11565,1830 L 11565,1730 L 11480,1730 L 11395,1730 Z" /><path d="M 10260,2390 L 10260,2570 L 10260,2810 L 10360,2810 L 10360,2570 L 10360,2390 Z" /><path d="M 9740,2110 L 9740,2245 L 9740,2270 L 9740,2450 L 9740,2475 L 9740,2610 L 9840,2610 L 9840,2475 L 9840,2450 L 9840,2270 L 9840,2245 L 9840,2110 Z" /><path d="M 8800,500 L 8700,500 L 8700,740 L 8700,920 L 8800,920 L 8800,740 Z" /><path d="M 8700,2390 L 8700,2570 L 8700,2810 L 8800,2810 L 8800,2570 L 8800,2390 Z" /><path d="M 10620,560 L 10520,560 L 10520,800 L 10520,980 L 10620,980 L 10620,800 Z" /><path d="M 9580,500 L 9480,500 L 9480,740 L 9480,920 L 9580,920 L 9580,740 Z" /><path d="M 9960,1450 L 10095,1450 L 10140,1450 L 10265,1450 L 10380,1450 L 10380,1350 L 10265,1350 L 10140,1350 L 10095,1350 L 9960,1350 Z" /><path d="M 9880,1730 L 9790,1730 L 9700,1730 L 9700,1830 L 9790,1830 L 9880,1830 L 10355,1830 L 10440,1830 L 10525,1830 L 10525,1730 L 10440,1730 L 10355,1730 Z" /><path d="M 9440,1640 L 9530,1640 L 9620,1640 L 9620,1540 L 9530,1540 L 9440,1540 L 8965,1540 L 8880,1540 L 8795,1540 L 8795,1640 L 8880,1640 L 8965,1640 Z" /><path d="M 9100,1350 L 9020,1350 L 8920,1350 L 8920,1450 L 9020,1450 L 9100,1450 L 9575,1450 L 9660,1450 L 9745,1450 L 9745,1350 L 9660,1350 L 9575,1350 Z" /><path d="M 8840,1730 L 8750,1730 L 8660,1730 L 8660,1830 L 8750,1830 L 8840,1830 L 9315,1830 L 9400,1830 L 9485,1830 L 9485,1730 L 9400,1730 L 9315,1730 Z" /><path d="M 8180,2390 L 8180,2570 L 8180,2810 L 8280,2810 L 8280,2570 L 8280,2390 Z" /><path d="M 7660,2110 L 7660,2245 L 7660,2270 L 7660,2450 L 7660,2475 L 7660,2610 L 7760,2610 L 7760,2475 L 7760,2450 L 7760,2270 L 7760,2245 L 7760,2110 Z" /><path d="M 6720,500 L 6620,500 L 6620,740 L 6620,920 L 6720,920 L 6720,740 Z" /><path d="M 6620,2390 L 6620,2570 L 6620,2810 L 6720,2810 L 6720,2570 L 6720,2390 Z" /><path d="M 8540,560 L 8440,560 L 8440,800 L 8440,980 L 8540,980 L 8540,800 Z" /><path d="M 7500,500 L 7400,500 L 7400,740 L 7400,920 L 7500,920 L 7500,740 Z" /><path d="M 7880,1450 L 8015,1450 L 8060,1450 L 8185,1450 L 8300,1450 L 8300,1350 L 8185,1350 L 8060,1350 L 8015,1350 L 7880,1350 Z" /><path d="M 7800,1730 L 7710,1730 L 7620,1730 L 7620,1830 L 7710,1830 L 7800,1830 L 8275,1830 L 8360,1830 L 8445,1830 L 8445,1730 L 8360,1730 L 8275,1730 Z" /><path d="M 7360,1640 L 7450,1640 L 7540,1640 L 7540,1540 L 7450,1540 L 7360,1540 L 6885,1540 L 6800,1540 L 6715,1540 L 6715,1640 L 6800,1640 L 6885,1640 Z" /><path d="M 7020,1350 L 6940,1350 L 6840,1350 L 6840,1450 L 6940,1450 L 7020,1450 L 7495,1450 L 7580,1450 L 7665,1450 L 7665,1350 L 7580,1350 L 7495,1350 Z" /><path d="M 6760,1730 L 6670,1730 L 6580,1730 L 6580,1830 L 6670,1830 L 6760,1830 L 7235,1830 L 7320,1830 L 7405,1830 L 7405,1730 L 7320,1730 L 7235,1730 Z" /><path d="M 6100,2390 L 6100,2570 L 6100,2810 L 6200,2810 L 6200,2570 L 6200,2390 Z" /><path d="M 5580,2110 L 5580,2245 L 5580,2270 L 5580,2450 L 5580,2475 L 5580,2610 L 5680,2610 L 5680,2475 L 5680,2450 L 5680,2270 L 5680,2245 L 5680,2110 Z" /><path d="M 4640,500 L 4540,500 L 4540,740 L 4540,920 L 4640,920 L 4640,740 Z" /><path d="M 4540,2390 L 4540,2570 L 4540,2810 L 4640,2810 L 4640,2570 L 4640,2390 Z" /><path d="M 6460,560 L 6360,560 L 6360,800 L 6360,980 L 6460,980 L 6460,800 Z" /><path d="M 5420,500 L 5320,500 L 5320,740 L 5320,920 L 5420,920 L 5420,740 Z" /><path d="M 5800,1450 L 5935,1450 L 5980,1450 L 6105,1450 L 6220,1450 L 6220,1350 L 6105,1350 L 5980,1350 L 5935,1350 L 5800,1350 Z" /><path d="M 5720,1730 L 5630,1730 L 5540,1730 L 5540,1830 L 5630,1830 L 5720,1830 L 6195,1830 L 6280,1830 L 6365,1830 L 6365,1730 L 6280,1730 L 6195,1730 Z" /><path d="M 5280,1640 L 5370,1640 L 5460,1640 L 5460,1540 L 5370,1540 L 5280,1540 L 4805,1540 L 4720,1540 L 4635,1540 L 4635,1640 L 4720,1640 L 4805,1640 Z" /><path d="M 4940,1350 L 4860,1350 L 4760,1350 L 4760,1450 L 4860,1450 L 4940,1450 L 5415,1450 L 5500,1450 L 5585,1450 L 5585,1350 L 5500,1350 L 5415,1350 Z" /><path d="M 4680,1730 L 4590,1730 L 4500,1730 L 4500,1830 L 4590,1830 L 4680,1830 L 5155,1830 L 5240,1830 L 5325,1830 L 5325,1730 L 5240,1730 L 5155,1730 Z" /><path d="M 4020,2390 L 4020,2570 L 4020,2810 L 4120,2810 L 4120,2570 L 4120,2390 Z" /><path d="M 3500,2110 L 3500,2245 L 3500,2270 L 3500,2450 L 3500,2475 L 3500,2610 L 3600,2610 L 3600,2475 L 3600,2450 L 3600,2270 L 3600,2245 L 3600,2110 Z" /><path d="M 2560,500 L 2460,500 L 2460,740 L 2460,920 L 2560,920 L 2560,740 Z" /><path d="M 2460,2390 L 2460,2570 L 2460,2810 L 2560,2810 L 2560,2570 L 2560,2390 Z" /><path d="M 4380,560 L 4280,560 L 4280,800 L 4280,980 L 4380,980 L 4380,800 Z" /><path d="M 3340,500 L 3240,500 L 3240,740 L 3240,920 L 3340,920 L 3340,740 Z" /><path d="M 3720,1450 L 3855,1450 L 3900,1450 L 4025,1450 L 4140,1450 L 4140,1350 L 4025,1350 L 3900,1350 L 3855,1350 L 3720,1350 Z" /><path d="M 3640,1730 L 3550,1730 L 3460,1730 L 3460,1830 L 3550,1830 L 3640,1830 L 4115,1830 L 4200,1830 L 4285,1830 L 4285,1730 L 4200,1730 L 4115,1730 Z" /><path d="M 3200,1640 L 3290,1640 L 3380,1640 L 3380,1540 L 3290,1540 L 3200,1540 L 2725,1540 L 2640,1540 L 2555,1540 L 2555,1640 L 2640,1640 L 2725,1640 Z" /><path d="M 2860,1350 L 2780,1350 L 2680,1350 L 2680,1450 L 2780,1450 L 2860,1450 L 3335,1450 L 3420,1450 L 3505,1450 L 3505,1350 L 3420,1350 L 3335,1350 Z" /><path d="M 2600,1730 L 2510,1730 L 2420,1730 L 2420,1830 L 2510,1830 L 2600,1830 L 3075,1830 L 3160,1830 L 3245,1830 L 3245,1730 L 3160,1730 L 3075,1730 Z" /><path d="M 13639,310 L 13639,1005 L 13640,1005 L 13640,1140 L 13740,1140 L 13740,1005 L 13740,310 L 14680,310 L 14680,780 L 14680,915 L 14780,915 L 14780,780 L 14780,310 L 15200,310 L 15200,780 L 15200,915 L 15300,915 L 15300,780 L 15300,310 L 15390,310 L 15390,120 L 12790,120 L 10710,120 L 10690,120 L 8630,120 L 8610,120 L 6550,120 L 6530,120 L 4470,120 L 4450,120 L 2390,120 L 2370,120 L 290,120 L 290,310 L 640,310 L 640,780 L 640,915 L 740,915 L 740,780 L 740,310 L 900,310 L 900,780 L 900,915 L 1000,915 L 1000,780 L 1000,310 L 1420,310 L 1420,780 L 1420,915 L 1520,915 L 1520,780 L 1520,310 L 1680,310 L 1680,840 L 1680,975 L 1780,975 L 1780,840 L 1780,310 L 2370,310 L 2390,310 L 2720,310 L 2720,780 L 2720,915 L 2820,915 L 2820,780 L 2820,310 L 2980,310 L 2980,780 L 2980,915 L 3080,915 L 3080,780 L 3080,310 L 3500,310 L 3500,780 L 3500,915 L 3600,915 L 3600,780 L 3600,310 L 3760,310 L 3760,840 L 3760,975 L 3860,975 L 3860,840 L 3860,310 L 4450,310 L 4470,310 L 4800,310 L 4800,780 L 4800,915 L 4900,915 L 4900,780 L 4900,310 L 5060,310 L 5060,780 L 5060,915 L 5160,915 L 5160,780 L 5160,310 L 5580,310 L 5580,780 L 5580,915 L 5680,915 L 5680,780 L 5680,310 L 5840,310 L 5840,840 L 5840,975 L 5940,975 L 5940,840 L 5940,310 L 6530,310 L 6550,310 L 6880,310 L 6880,780 L 6880,915 L 6980,915 L 6980,780 L 6980,310 L 7140,310 L 7140,780 L 7140,915 L 7240,915 L 7240,780 L 7240,310 L 7660,310 L 7660,780 L 7660,915 L 7760,915 L 7760,780 L 7760,310 L 7920,310 L 7920,840 L 7920,975 L 8020,975 L 8020,840 L 8020,310 L 8610,310 L 8630,310 L 8960,310 L 8960,780 L 8960,915 L 9060,915 L 9060,780 L 9060,310 L 9220,310 L 9220,780 L 9220,915 L 9320,915 L 9320,780 L 9320,310 L 9740,310 L 9740,780 L 9740,915 L 9840,915 L 9840,780 L 9840,310 L 10000,310 L 10000,840 L 10000,975 L 10100,975 L 10100,840 L 10100,310 L 10690,310 L 10710,310 L 11040,310 L 11040,780 L 11040,915 L 11140,915 L 11140,780 L 11140,310 L 11300,310 L 11300,780 L 11300,915 L 11400,915 L 11400,780 L 11400,310 L 11820,310 L 11820,780 L 11820,915 L 11920,915 L 11920,780 L 11920,310 L 12080,310 L 12080,840 L 12080,975 L 12180,975 L 12180,840 L 12180,310 L 12790,310 Z" /><path d="M 14780,3060 L 14780,2245 L 14780,2110 L 14680,2110 L 14680,2245 L 14680,3060 L 14260,3060 L 14260,2530 L 14260,2395 L 14160,2395 L 14160,2530 L 14160,3060 L 13740,3060 L 13740,2530 L 13740,2395 L 13640,2395 L 13640,2530 L 13639,2530 L 13639,3060 L 13220,3060 L 13220,2530 L 13220,2395 L 13120,2395 L 13120,2530 L 13120,3060 L 12790,3060 L 12700,3060 L 12700,2530 L 12700,2395 L 12600,2395 L 12600,2530 L 12600,3060 L 12180,3060 L 12180,2530 L 12180,2395 L 12080,2395 L 12080,2530 L 12080,3060 L 11400,3060 L 11400,2245 L 11400,2110 L 11300,2110 L 11300,2245 L 11300,3060 L 11140,3060 L 11140,2530 L 11140,2395 L 11040,2395 L 11040,2530 L 11040,3060 L 10710,3060 L 10690,3060 L 10620,3060 L 10620,2530 L 10620,2395 L 10520,2395 L 10520,2530 L 10520,3060 L 10100,3060 L 10100,2530 L 10100,2395 L 10000,2395 L 10000,2530 L 10000,3060 L 9320,3060 L 9320,2245 L 9320,2110 L 9220,2110 L 9220,2245 L 9220,3060 L 9060,3060 L 9060,2530 L 9060,2395 L 8960,2395 L 8960,2530 L 8960,3060 L 8630,3060 L 8610,3060 L 8540,3060 L 8540,2530 L 8540,2395 L 8440,2395 L 8440,2530 L 8440,3060 L 8020,3060 L 8020,2530 L 8020,2395 L 7920,2395 L 7920,2530 L 7920,3060 L 7240,3060 L 7240,2245 L 7240,2110 L 7140,2110 L 7140,2245 L 7140,3060 L 6980,3060 L 6980,2530 L 6980,2395 L 6880,2395 L 6880,2530 L 6880,3060 L 6550,3060 L 6530,3060 L 6460,3060 L 6460,2530 L 6460,2395 L 6360,2395 L 6360,2530 L 6360,3060 L 5940,3060 L 5940,2530 L 5940,2395 L 5840,2395 L 5840,2530 L 5840,3060 L 5160,3060 L 5160,2245 L 5160,2110 L 5060,2110 L 5060,2245 L 5060,3060 L 4900,3060 L 4900,2530 L 4900,2395 L 4800,2395 L 4800,2530 L 4800,3060 L 4470,3060 L 4450,3060 L 4380,3060 L 4380,2530 L 4380,2395 L 4280,2395 L 4280,2530 L 4280,3060 L 3860,3060 L 3860,2530 L 3860,2395 L 3760,2395 L 3760,2530 L 3760,3060 L 3080,3060 L 3080,2245 L 3080,2110 L 2980,2110 L 2980,2245 L 2980,3060 L 2820,3060 L 2820,2530 L 2820,2395 L 2720,2395 L 2720,2530 L 2720,3060 L 2390,3060 L 2370,3060 L 2300,3060 L 2300,2530 L 2300,2395 L 2200,2395 L 2200,2530 L 2200,3060 L 1780,3060 L 1780,2530 L 1780,2395 L 1680,2395 L 1680,2530 L 1680,3060 L 1000,3060 L 1000,2245 L 1000,2110 L 900,2110 L 900,2245 L 900,3060 L 740,3060 L 740,2530 L 740,2395 L 640,2395 L 640,2530 L 640,3060 L 290,3060 L 290,3250 L 2370,3250 L 2390,3250 L 4450,3250 L 4470,3250 L 6530,3250 L 6550,3250 L 8610,3250 L 8630,3250 L 10690,3250 L 10710,3250 L 12790,3250 L 15390,3250 L 15390,3060 Z" /><path d="M 1940,2390 L 1940,2570 L 1940,2810 L 2040,2810 L 2040,2570 L 2040,2390 Z" /><path d="M 1420,2110 L 1420,2245 L 1420,2270 L 1420,2450 L 1420,2475 L 1420,2610 L 1520,2610 L 1520,2475 L 1520,2450 L 1520,2270 L 1520,2245 L 1520,2110 Z" /><path d="M 480,500 L 380,500 L 380,740 L 380,920 L 480,920 L 480,740 Z" /><path d="M 380,2390 L 380,2570 L 380,2810 L 480,2810 L 480,2570 L 480,2390 Z" /><path d="M 2300,560 L 2200,560 L 2200,800 L 2200,980 L 2300,980 L 2300,800 Z" /><path d="M 1260,500 L 1160,500 L 1160,740 L 1160,920 L 1260,920 L 1260,740 Z" /><path d="M 1640,1450 L 1775,1450 L 1820,1450 L 1945,1450 L 2060,1450 L 2060,1350 L 1945,1350 L 1820,1350 L 1775,1350 L 1640,1350 Z" /><path d="M 1560,1730 L 1470,1730 L 1380,1730 L 1380,1830 L 1470,1830 L 1560,1830 L 2035,1830 L 2120,1830 L 2205,1830 L 2205,1730 L 2120,1730 L 2035,1730 Z" /><path d="M 1120,1640 L 1210,1640 L 1300,1640 L 1300,1540 L 1210,1540 L 1120,1540 L 645,1540 L 560,1540 L 475,1540 L 475,1640 L 560,1640 L 645,1640 Z" /><path d="M 780,1350 L 700,1350 L 600,1350 L 600,1450 L 700,1450 L 780,1450 L 1255,1450 L 1340,1450 L 1425,1450 L 1425,1350 L 1340,1350 L 1255,1350 Z" /><path d="M 520,1730 L 430,1730 L 340,1730 L 340,1830 L 430,1830 L 520,1830 L 995,1830 L 1080,1830 L 1165,1830 L 1165,1730 L 1080,1730 L 995,1730 Z" /><path d="M 15040,500 L 14940,500 L 14940,740 L 14940,920 L 15040,920 L 15040,740 Z" /><path d="M 14420,2390 L 14420,2570 L 14420,2810 L 14520,2810 L 14520,2570 L 14520,2390 Z" /><path d="M 13900,2390 L 13900,2570 L 13900,2810 L 14000,2810 L 14000,2570 L 14000,2390 Z" /><path d="M 12860,2390 L 12860,2570 L 12860,2810 L 12960,2810 L 12960,2570 L 12960,2390 Z" /><path d="M 13380,2390 L 13380,2570 L 13380,2810 L 13480,2810 L 13480,2570 L 13480,2390 Z" /><path d="M 15200,2110 L 15200,2245 L 15200,2270 L 15200,2450 L 15200,2475 L 15200,2610 L 15300,2610 L 15300,2475 L 15300,2450 L 15300,2270 L 15300,2245 L 15300,2110 Z" /><path d="M 12960,1160 L 12960,1040 L 12960,1025 L 12960,875 L 12960,860 L 12960,740 L 12860,740 L 12860,860 L 12860,875 L 12860,1025 L 12860,1040 L 12860,1160 Z" /><path d="M 14420,740 L 14420,860 L 14420,875 L 14420,1025 L 14420,1040 L 14420,1160 L 14520,1160 L 14520,1040 L 14520,1025 L 14520,875 L 14520,860 L 14520,740 Z" /><path d="M 14560,1540 L 14470,1540 L 14380,1540 L 14380,1640 L 14470,1640 L 14560,1640 L 14775,1640 L 14860,1640 L 14945,1640 L 14945,1540 L 14860,1540 L 14775,1540 Z" /><path d="M 13000,1350 L 12910,1350 L 12820,1350 L 12820,1450 L 12910,1450 L 13000,1450 L 15035,1450 L 15120,1450 L 15205,1450 L 15205,1350 L 15120,1350 L 15035,1350 Z" /><path d="M 14050,1920 L 14050,2020 L 14120,2020 L 14255,2020 L 14300,2020 L 14425,2020 L 14470,2020 L 14470,1920 L 14425,1920 L 14300,1920 L 14255,1920 L 14120,1920 Z" /><path d="M 13790,1730 L 13790,1830 L 13860,1830 L 13995,1830 L 14040,1830 L 14165,1830 L 14210,1830 L 14210,1730 L 14165,1730 L 14040,1730 L 13995,1730 L 13860,1730 Z" /><path d="M 13530,1540 L 13530,1640 L 13600,1640 L 13735,1640 L 13780,1640 L 13905,1640 L 13950,1640 L 13950,1540 L 13905,1540 L 13780,1540 L 13735,1540 L 13600,1540 Z" /><path d="M 13430,2110 L 13430,2210 L 13475,2210 L 13600,2210 L 13645,2210 L 13780,2210 L 13850,2210 L 13850,2110 L 13780,2110 L 13645,2110 L 13600,2110 L 13475,2110 Z" /><path d="M 13170,1920 L 13170,2020 L 13215,2020 L 13340,2020 L 13385,2020 L 13520,2020 L 13590,2020 L 13590,1920 L 13520,1920 L 13385,1920 L 13340,1920 L 13215,1920 Z" /><path d="M 12910,1730 L 12910,1830 L 12955,1830 L 13080,1830 L 13125,1830 L 13260,1830 L 13330,1830 L 13330,1730 L 13260,1730 L 13125,1730 L 13080,1730 L 12955,1730 Z" /></g></g><g id="VIA1"><g class="l51d0"><path d="M 12340,2430 L 12440,2430 L 12440,2530 L 12340,2530 Z" /><path d="M 11820,2310 L 11920,2310 L 11920,2410 L 11820,2410 Z" /><path d="M 10780,880 L 10880,880 L 10880,780 L 10780,780 Z" /><path d="M 10780,2430 L 10880,2430 L 10880,2530 L 10780,2530 Z" /><path d="M 12600,940 L 12700,940 L 12700,840 L 12600,840 Z" /><path d="M 11560,880 L 11660,880 L 11660,780 L 11560,780 Z" /><path d="M 12080,1350 L 12180,1350 L 12180,1450 L 12080,1450 Z" /><path d="M 11820,1730 L 11920,1730 L 11920,1830 L 11820,1830 Z" /><path d="M 11560,1540 L 11660,1540 L 11660,1640 L 11560,1640 Z" /><path d="M 11040,1350 L 11140,1350 L 11140,1450 L 11040,1450 Z" /><path d="M 10780,1730 L 10880,1730 L 10880,1830 L 10780,1830 Z" /><path d="M 10260,2430 L 10360,2430 L 10360,2530 L 10260,2530 Z" /><path d="M 9740,2310 L 9840,2310 L 9840,2410 L 9740,2410 Z" /><path d="M 8700,880 L 8800,880 L 8800,780 L 8700,780 Z" /><path d="M 8700,2430 L 8800,2430 L 8800,2530 L 8700,2530 Z" /><path d="M 10520,940 L 10620,940 L 10620,840 L 10520,840 Z" /><path d="M 9480,880 L 9580,880 L 9580,780 L 9480,780 Z" /><path d="M 10000,1350 L 10100,1350 L 10100,1450 L 10000,1450 Z" /><path d="M 9740,1730 L 9840,1730 L 9840,1830 L 9740,1830 Z" /><path d="M 9480,1540 L 9580,1540 L 9580,1640 L 9480,1640 Z" /><path d="M 8960,1350 L 9060,1350 L 9060,1450 L 8960,1450 Z" /><path d="M 8700,1730 L 8800,1730 L 8800,1830 L 8700,1830 Z" /><path d="M 8180,2430 L 8280,2430 L 8280,2530 L 8180,2530 Z" /><path d="M 7660,2310 L 7760,2310 L 7760,2410 L 7660,2410 Z" /><path d="M 6620,880 L 6720,880 L 6720,780 L 6620,780 Z" /><path d="M 6620,2430 L 6720,2430 L 6720,2530 L 6620,2530 Z" /><path d="M 8440,940 L 8540,940 L 8540,840 L 8440,840 Z" /><path d="M 7400,880 L 7500,880 L 7500,780 L 7400,780 Z" /><path d="M 7920,1350 L 8020,1350 L 8020,1450 L 7920,1450 Z" /><path d="M 7660,1730 L 7760,1730 L 7760,1830 L 7660,1830 Z" /><path d="M 7400,1540 L 7500,1540 L 7500,1640 L 7400,1640 Z" /><path d="M 6880,1350 L 6980,1350 L 6980,1450 L 6880,1450 Z" /><path d="M 6620,1730 L 6720,1730 L 6720,1830 L 6620,1830 Z" /><path d="M 6100,2430 L 6200,2430 L 6200,2530 L 6100,2530 Z" /><path d="M 5580,2310 L 5680,2310 L 5680,2410 L 5580,2410 Z" /><path d="M 4540,880 L 4640,880 L 4640,780 L 4540,780 Z" /><path d="M 4540,2430 L 4640,2430 L 4640,2530 L 4540,2530 Z" /><path d="M 6360,940 L 6460,940 L 6460,840 L 6360,840 Z" /><path d="M 5320,880 L 5420,880 L 5420,780 L 5320,780 Z" /><path d="M 5840,1350 L 5940,1350 L 5940,1450 L 5840,1450 Z" /><path d="M 5580,1730 L 5680,1730 L 5680,1830 L 5580,1830 Z" /><path d="M 5320,1540 L 5420,1540 L 5420,1640 L 5320,1640 Z" /><path d="M 4800,1350 L 4900,1350 L 4900,1450 L 4800,1450 Z" /><path d="M 4540,1730 L 4640,1730 L 4640,1830 L 4540,1830 Z" /><path d="M 4020,2430 L 4120,2430 L 4120,2530 L 4020,2530 Z" /><path d="M 3500,2310 L 3600,2310 L 3600,2410 L 3500,2410 Z" /><path d="M 2460,880 L 2560,880 L 2560,780 L 2460,780 Z" /><path d="M 2460,2430 L 2560,2430 L 2560,2530 L 2460,2530 Z" /><path d="M 4280,940 L 4380,940 L 4380,840 L 4280,840 Z" /><path d="M 3240,880 L 3340,880 L 3340,780 L 3240,780 Z" /><path d="M 3760,1350 L 3860,1350 L 3860,1450 L 3760,1450 Z" /><path d="M 3500,1730 L 3600,1730 L 3600,1830 L 3500,1830 Z" /><path d="M 3240,1540 L 3340,1540 L 3340,1640 L 3240,1640 Z" /><path d="M 2720,1350 L 2820,1350 L 2820,1450 L 2720,1450 Z" /><path d="M 2460,1730 L 2560,1730 L 2560,1830 L 2460,1830 Z" /><path d="M 1940,2430 L 2040,2430 L 2040,2530 L 1940,2530 Z" /><path d="M 1420,2310 L 1520,2310 L 1520,2410 L 1420,2410 Z" /><path d="M 380,880 L 480,880 L 480,780 L 380,780 Z" /><path d="M 380,2430 L 480,2430 L 480,2530 L 380,2530 Z" /><path d="M 2200,940 L 2300,940 L 2300,840 L 2200,840 Z" /><path d="M 1160,880 L 1260,880 L 1260,780 L 1160,780 Z" /><path d="M 1680,1350 L 1780,1350 L 1780,1450 L 1680,1450 Z" /><path d="M 1420,1730 L 1520,1730 L 1520,1830 L 1420,1830 Z" /><path d="M 1160,1540 L 1260,1540 L 1260,1640 L 1160,1640 Z" /><path d="M 640,1350 L 740,1350 L 740,1450 L 640,1450 Z" /><path d="M 380,1730 L 480,1730 L 480,1830 L 380,1830 Z" /><path d="M 14940,780 L 15040,780 L 15040,880 L 14940,880 Z" /><path d="M 14420,2430 L 14520,2430 L 14520,2530 L 14420,2530 Z" /><path d="M 13900,2430 L 14000,2430 L 14000,2530 L 13900,2530 Z" /><path d="M 12860,2430 L 12960,2430 L 12960,2530 L 12860,2530 Z" /><path d="M 13380,2430 L 13480,2430 L 13480,2530 L 13380,2530 Z" /><path d="M 15200,2310 L 15300,2310 L 15300,2410 L 15200,2410 Z" /><path d="M 12860,900 L 12960,900 L 12960,1000 L 12860,1000 Z" /><path d="M 14420,900 L 14520,900 L 14520,1000 L 14420,1000 Z" /><path d="M 14420,1540 L 14520,1540 L 14520,1640 L 14420,1640 Z" /><path d="M 12860,1350 L 12960,1350 L 12960,1450 L 12860,1450 Z" /><path d="M 14160,1920 L 14260,1920 L 14260,2020 L 14160,2020 Z" /><path d="M 13900,1730 L 14000,1730 L 14000,1830 L 13900,1830 Z" /><path d="M 13640,1540 L 13740,1540 L 13740,1640 L 13640,1640 Z" /><path d="M 13640,2110 L 13740,2110 L 13740,2210 L 13640,2210 Z" /><path d="M 13380,1920 L 13480,1920 L 13480,2020 L 13380,2020 Z" /><path d="M 13120,1730 L 13220,1730 L 13220,1830 L 13120,1830 Z" /></g></g><g id="M2"><g class="l32d0"><path d="M 11610,780 L 11520,780 L 11520,880 L 11610,880 L 11700,880 L 11820,880 L 11820,1690 L 11820,1870 L 11820,2270 L 11820,2360 L 11820,2450 L 11920,2450 L 11920,2360 L 11920,2270 L 11920,1870 L 11920,1690 L 11920,880 L 11920,780 L 11820,780 L 11700,780 Z" /><path d="M 10880,1870 L 10880,1690 L 10880,920 L 10880,830 L 10880,740 L 10780,740 L 10780,830 L 10780,920 L 10780,1690 L 10780,1870 L 10780,2390 L 10780,2480 L 10780,2570 L 10880,2570 L 10880,2480 L 10880,2390 Z" /><path d="M 12080,1100 L 12080,1245 L 12080,1310 L 12080,1425 L 12080,1490 L 12080,1620 L 12180,1620 L 12180,1490 L 12180,1425 L 12180,1310 L 12180,1245 L 12180,1100 Z" /><path d="M 11560,1195 L 11560,1445 L 11560,1500 L 11560,1625 L 11560,1680 L 11560,1715 L 11660,1715 L 11660,1680 L 11660,1625 L 11660,1500 L 11660,1445 L 11660,1195 Z" /><path d="M 11040,1310 L 11040,1400 L 11040,1445 L 11040,1490 L 11040,1585 L 11040,1625 L 11040,1715 L 11140,1715 L 11140,1625 L 11140,1585 L 11140,1490 L 11140,1445 L 11140,1400 L 11140,1310 L 11140,1195 L 11040,1195 Z" /><path d="M 9530,780 L 9440,780 L 9440,880 L 9530,880 L 9620,880 L 9740,880 L 9740,1690 L 9740,1870 L 9740,2270 L 9740,2360 L 9740,2450 L 9840,2450 L 9840,2360 L 9840,2270 L 9840,1870 L 9840,1690 L 9840,880 L 9840,780 L 9740,780 L 9620,780 Z" /><path d="M 8800,1870 L 8800,1690 L 8800,920 L 8800,830 L 8800,740 L 8700,740 L 8700,830 L 8700,920 L 8700,1690 L 8700,1870 L 8700,2390 L 8700,2480 L 8700,2570 L 8800,2570 L 8800,2480 L 8800,2390 Z" /><path d="M 10000,1100 L 10000,1245 L 10000,1310 L 10000,1425 L 10000,1490 L 10000,1620 L 10100,1620 L 10100,1490 L 10100,1425 L 10100,1310 L 10100,1245 L 10100,1100 Z" /><path d="M 9480,1195 L 9480,1445 L 9480,1500 L 9480,1625 L 9480,1680 L 9480,1715 L 9580,1715 L 9580,1680 L 9580,1625 L 9580,1500 L 9580,1445 L 9580,1195 Z" /><path d="M 8960,1310 L 8960,1400 L 8960,1445 L 8960,1490 L 8960,1585 L 8960,1625 L 8960,1715 L 9060,1715 L 9060,1625 L 9060,1585 L 9060,1490 L 9060,1445 L 9060,1400 L 9060,1310 L 9060,1195 L 8960,1195 Z" /><path d="M 7450,780 L 7360,780 L 7360,880 L 7450,880 L 7540,880 L 7660,880 L 7660,1690 L 7660,1870 L 7660,2270 L 7660,2360 L 7660,2450 L 7760,2450 L 7760,2360 L 7760,2270 L 7760,1870 L 7760,1690 L 7760,880 L 7760,780 L 7660,780 L 7540,780 Z" /><path d="M 6720,1870 L 6720,1690 L 6720,920 L 6720,830 L 6720,740 L 6620,740 L 6620,830 L 6620,920 L 6620,1690 L 6620,1870 L 6620,2390 L 6620,2480 L 6620,2570 L 6720,2570 L 6720,2480 L 6720,2390 Z" /><path d="M 7920,1100 L 7920,1245 L 7920,1310 L 7920,1425 L 7920,1490 L 7920,1620 L 8020,1620 L 8020,1490 L 8020,1425 L 8020,1310 L 8020,1245 L 8020,1100 Z" /><path d="M 7400,1195 L 7400,1445 L 7400,1500 L 7400,1625 L 7400,1680 L 7400,1715 L 7500,1715 L 7500,1680 L 7500,1625 L 7500,1500 L 7500,1445 L 7500,1195 Z" /><path d="M 6880,1310 L 6880,1400 L 6880,1445 L 6880,1490 L 6880,1585 L 6880,1625 L 6880,1715 L 6980,1715 L 6980,1625 L 6980,1585 L 6980,1490 L 6980,1445 L 6980,1400 L 6980,1310 L 6980,1195 L 6880,1195 Z" /><path d="M 5370,780 L 5280,780 L 5280,880 L 5370,880 L 5460,880 L 5580,880 L 5580,1690 L 5580,1870 L 5580,2270 L 5580,2360 L 5580,2450 L 5680,2450 L 5680,2360 L 5680,2270 L 5680,1870 L 5680,1690 L 5680,880 L 5680,780 L 5580,780 L 5460,780 Z" /><path d="M 4640,1870 L 4640,1690 L 4640,920 L 4640,830 L 4640,740 L 4540,740 L 4540,830 L 4540,920 L 4540,1690 L 4540,1870 L 4540,2390 L 4540,2480 L 4540,2570 L 4640,2570 L 4640,2480 L 4640,2390 Z" /><path d="M 5840,1100 L 5840,1245 L 5840,1310 L 5840,1425 L 5840,1490 L 5840,1620 L 5940,1620 L 5940,1490 L 5940,1425 L 5940,1310 L 5940,1245 L 5940,1100 Z" /><path d="M 5320,1195 L 5320,1445 L 5320,1500 L 5320,1625 L 5320,1680 L 5320,1715 L 5420,1715 L 5420,1680 L 5420,1625 L 5420,1500 L 5420,1445 L 5420,1195 Z" /><path d="M 4800,1310 L 4800,1400 L 4800,1445 L 4800,1490 L 4800,1585 L 4800,1625 L 4800,1715 L 4900,1715 L 4900,1625 L 4900,1585 L 4900,1490 L 4900,1445 L 4900,1400 L 4900,1310 L 4900,1195 L 4800,1195 Z" /><path d="M 3290,780 L 3200,780 L 3200,880 L 3290,880 L 3380,880 L 3500,880 L 3500,1690 L 3500,1870 L 3500,2270 L 3500,2360 L 3500,2450 L 3600,2450 L 3600,2360 L 3600,2270 L 3600,1870 L 3600,1690 L 3600,880 L 3600,780 L 3500,780 L 3380,780 Z" /><path d="M 2560,1870 L 2560,1690 L 2560,920 L 2560,830 L 2560,740 L 2460,740 L 2460,830 L 2460,920 L 2460,1690 L 2460,1870 L 2460,2390 L 2460,2480 L 2460,2570 L 2560,2570 L 2560,2480 L 2560,2390 Z" /><path d="M 3760,1100 L 3760,1245 L 3760,1310 L 3760,1425 L 3760,1490 L 3760,1620 L 3860,1620 L 3860,1490 L 3860,1425 L 3860,1310 L 3860,1245 L 3860,1100 Z" /><path d="M 3240,1195 L 3240,1445 L 3240,1500 L 3240,1625 L 3240,1680 L 3240,1715 L 3340,1715 L 3340,1680 L 3340,1625 L 3340,1500 L 3340,1445 L 3340,1195 Z" /><path d="M 2720,1310 L 2720,1400 L 2720,1445 L 2720,1490 L 2720,1585 L 2720,1625 L 2720,1715 L 2820,1715 L 2820,1625 L 2820,1585 L 2820,1490 L 2820,1445 L 2820,1400 L 2820,1310 L 2820,1195 L 2720,1195 Z" /><path d="M 1210,780 L 1120,780 L 1120,880 L 1210,880 L 1300,880 L 1420,880 L 1420,1690 L 1420,1870 L 1420,2270 L 1420,2360 L 1420,2450 L 1520,2450 L 1520,2360 L 1520,2270 L 1520,1870 L 1520,1690 L 1520,880 L 1520,780 L 1420,780 L 1300,780 Z" /><path d="M 480,1870 L 480,1690 L 480,920 L 480,830 L 480,740 L 380,740 L 380,830 L 380,920 L 380,1690 L 380,1870 L 380,2390 L 380,2480 L 380,2570 L 480,2570 L 480,2480 L 480,2390 Z" /><path d="M 1680,1100 L 1680,1245 L 1680,1310 L 1680,1425 L 1680,1490 L 1680,1620 L 1780,1620 L 1780,1490 L 1780,1425 L 1780,1310 L 1780,1245 L 1780,1100 Z" /><path d="M 1160,1195 L 1160,1445 L 1160,1500 L 1160,1625 L 1160,1680 L 1160,1715 L 1260,1715 L 1260,1680 L 1260,1625 L 1260,1500 L 1260,1445 L 1260,1195 Z" /><path d="M 640,1310 L 640,1400 L 640,1445 L 640,1490 L 640,1585 L 640,1625 L 640,1715 L 740,1715 L 740,1625 L 740,1585 L 740,1490 L 740,1445 L 740,1400 L 740,1310 L 740,1195 L 640,1195 Z" /><path d="M 15080,780 L 14990,780 L 14900,780 L 14900,880 L 14990,880 L 15080,880 L 15200,880 L 15200,2270 L 15200,2360 L 15200,2450 L 15300,2450 L 15300,2360 L 15300,2270 L 15300,880 L 15300,780 L 15200,780 Z" /><path d="M 13950,2430 L 13860,2430 L 13860,2530 L 13950,2530 L 14040,2530 L 14380,2530 L 14420,2530 L 14520,2530 L 14560,2530 L 14560,2430 L 14520,2430 L 14520,1680 L 14520,1500 L 14520,1040 L 14520,950 L 14520,860 L 14420,860 L 14420,950 L 14420,1040 L 14420,1500 L 14420,1680 L 14420,2430 L 14380,2430 L 14040,2430 Z" /><path d="M 13520,2530 L 13520,2430 L 13430,2430 L 13340,2430 L 13000,2430 L 12960,2430 L 12960,1490 L 12960,1310 L 12960,1040 L 12960,950 L 12960,860 L 12860,860 L 12860,950 L 12860,1040 L 12860,1310 L 12860,1490 L 12860,2430 L 12820,2430 L 12820,2530 L 12860,2530 L 12910,2530 L 12960,2530 L 13000,2530 L 13340,2530 L 13430,2530 Z" /><path d="M 13640,1680 L 13740,1680 L 13740,1590 L 13740,1500 L 13740,825 L 13740,735 L 13740,645 L 13640,645 L 13640,735 L 13639,735 L 13639,1590 L 13640,1590 Z" /><path d="M 12560,940 L 12650,940 L 12740,940 L 12740,840 L 12650,840 L 12560,840 L 12440,840 L 12440,825 L 12440,735 L 12440,645 L 12340,645 L 12340,735 L 12340,825 L 12340,840 L 12340,940 L 12340,1620 L 12340,2390 L 12340,2480 L 12340,2570 L 12440,2570 L 12440,2480 L 12440,2390 L 12440,1620 L 12440,940 Z" /><path d="M 14000,1025 L 14000,935 L 14000,845 L 13900,845 L 13900,935 L 13900,1025 L 13900,1690 L 13900,1780 L 13900,1870 L 14000,1870 L 14000,1780 L 14000,1690 Z" /><path d="M 10360,1025 L 10360,940 L 10480,940 L 10570,940 L 10660,940 L 10660,840 L 10570,840 L 10480,840 L 10360,840 L 10260,840 L 10260,845 L 10260,935 L 10260,940 L 10260,1025 L 10260,1620 L 10260,2390 L 10260,2480 L 10260,2570 L 10360,2570 L 10360,2480 L 10360,2390 L 10360,1620 Z" /><path d="M 14260,1225 L 14260,1135 L 14260,1045 L 14160,1045 L 14160,1135 L 14160,1225 L 14160,1880 L 14160,1970 L 14160,2060 L 14260,2060 L 14260,1970 L 14260,1880 Z" /><path d="M 8280,1225 L 8280,1135 L 8280,1045 L 8280,940 L 8400,940 L 8490,940 L 8580,940 L 8580,840 L 8490,840 L 8400,840 L 8280,840 L 8180,840 L 8180,940 L 8180,1045 L 8180,1135 L 8180,1225 L 8180,1620 L 8180,2390 L 8180,2480 L 8180,2570 L 8280,2570 L 8280,2480 L 8280,2390 L 8280,1620 Z" /><path d="M 13640,2070 L 13640,2160 L 13639,2160 L 13639,2335 L 13640,2335 L 13640,2425 L 13640,2590 L 13740,2590 L 13740,2425 L 13740,2335 L 13740,2250 L 13740,2245 L 13740,2160 L 13740,2070 Z" /><path d="M 6100,2245 L 6100,2335 L 6100,2390 L 6100,2425 L 6100,2480 L 6100,2570 L 6200,2570 L 6200,2480 L 6200,2425 L 6200,2390 L 6200,2335 L 6200,2245 L 6200,1720 L 6200,940 L 6320,940 L 6410,940 L 6500,940 L 6500,840 L 6410,840 L 6320,840 L 6200,840 L 6100,840 L 6100,940 L 6100,1720 Z" /><path d="M 13380,1705 L 13380,1880 L 13380,1970 L 13379,1970 L 13379,2135 L 13380,2135 L 13380,2225 L 13480,2225 L 13480,2135 L 13480,2060 L 13480,2045 L 13480,1970 L 13480,1880 L 13480,1705 Z" /><path d="M 4020,2045 L 4020,2085 L 4020,2225 L 4020,2390 L 4020,2480 L 4020,2570 L 4120,2570 L 4120,2480 L 4120,2390 L 4120,2225 L 4120,2085 L 4120,2045 L 4120,1720 L 4120,940 L 4240,940 L 4330,940 L 4420,940 L 4420,840 L 4330,840 L 4240,840 L 4120,840 L 4020,840 L 4020,940 L 4020,1720 Z" /><path d="M 13120,1595 L 13120,1690 L 13120,1780 L 13120,1845 L 13120,1870 L 13120,1935 L 13120,2025 L 13120,2115 L 13220,2115 L 13220,2025 L 13220,1935 L 13220,1870 L 13220,1845 L 13220,1780 L 13220,1690 L 13220,1595 Z" /><path d="M 1940,2570 L 2040,2570 L 2040,2480 L 2040,2390 L 2040,2025 L 2040,1845 L 2040,940 L 2160,940 L 2250,940 L 2340,940 L 2340,840 L 2250,840 L 2160,840 L 2040,840 L 1940,840 L 1940,940 L 1940,1845 L 1940,2025 L 1940,2390 L 1940,2480 Z" /></g></g><g id="VIA2"><g class="l52d0"><path d="M 12080,1285 L 12180,1285 L 12180,1385 L 12080,1385 Z" /><path d="M 11560,1485 L 11660,1485 L 11660,1585 L 11560,1585 Z" /><path d="M 11040,1485 L 11140,1485 L 11140,1585 L 11040,1585 Z" /><path d="M 10000,1285 L 10100,1285 L 10100,1385 L 10000,1385 Z" /><path d="M 9480,1485 L 9580,1485 L 9580,1585 L 9480,1585 Z" /><path d="M 8960,1485 L 9060,1485 L 9060,1585 L 8960,1585 Z" /><path d="M 7920,1285 L 8020,1285 L 8020,1385 L 7920,1385 Z" /><path d="M 7400,1485 L 7500,1485 L 7500,1585 L 7400,1585 Z" /><path d="M 6880,1485 L 6980,1485 L 6980,1585 L 6880,1585 Z" /><path d="M 5840,1285 L 5940,1285 L 5940,1385 L 5840,1385 Z" /><path d="M 5320,1485 L 5420,1485 L 5420,1585 L 5320,1585 Z" /><path d="M 4800,1485 L 4900,1485 L 4900,1585 L 4800,1585 Z" /><path d="M 3760,1285 L 3860,1285 L 3860,1385 L 3760,1385 Z" /><path d="M 3240,1485 L 3340,1485 L 3340,1585 L 3240,1585 Z" /><path d="M 2720,1485 L 2820,1485 L 2820,1585 L 2720,1585 Z" /><path d="M 1680,1285 L 1780,1285 L 1780,1385 L 1680,1385 Z" /><path d="M 1160,1485 L 1260,1485 L 1260,1585 L 1160,1585 Z" /><path d="M 640,1485 L 740,1485 L 740,1585 L 640,1585 Z" /><path d="M 13640,685 L 13740,685 L 13740,785 L 13640,785 Z" /><path d="M 12340,685 L 12440,685 L 12440,785 L 12340,785 Z" /><path d="M 13900,885 L 14000,885 L 14000,985 L 13900,985 Z" /><path d="M 10260,885 L 10360,885 L 10360,985 L 10260,985 Z" /><path d="M 14160,1085 L 14260,1085 L 14260,1185 L 14160,1185 Z" /><path d="M 8180,1085 L 8280,1085 L 8280,1185 L 8180,1185 Z" /><path d="M 13640,2285 L 13740,2285 L 13740,2385 L 13640,2385 Z" /><path d="M 6100,2285 L 6200,2285 L 6200,2385 L 6100,2385 Z" /><path d="M 13380,2085 L 13480,2085 L 13480,2185 L 13380,2185 Z" /><path d="M 4020,2085 L 4120,2085 L 4120,2185 L 4020,2185 Z" /><path d="M 13120,1885 L 13220,1885 L 13220,1985 L 13120,1985 Z" /><path d="M 1940,1885 L 2040,1885 L 2040,1985 L 1940,1985 Z" /></g></g><g id="M3"><g class="l33d0"><path d="M 11870,1385 L 12040,1385 L 12220,1385 L 12390,1385 L 12390,1285 L 12220,1285 L 12040,1285 L 11870,1285 Z" /><path d="M 9790,1385 L 9960,1385 L 10140,1385 L 10310,1385 L 10310,1285 L 10140,1285 L 9960,1285 L 9790,1285 Z" /><path d="M 7710,1385 L 7880,1385 L 8060,1385 L 8230,1385 L 8230,1285 L 8060,1285 L 7880,1285 L 7710,1285 Z" /><path d="M 5630,1385 L 5800,1385 L 5980,1385 L 6150,1385 L 6150,1285 L 5980,1285 L 5800,1285 L 5630,1285 Z" /><path d="M 3550,1385 L 3720,1385 L 3900,1385 L 4070,1385 L 4070,1285 L 3900,1285 L 3720,1285 L 3550,1285 Z" /><path d="M 1470,1385 L 1640,1385 L 1820,1385 L 1990,1385 L 1990,1285 L 1820,1285 L 1640,1285 L 1470,1285 Z" /><path d="M 520,1685 L 430,1685 L 340,1685 L 340,1785 L 430,1785 L 520,1785 L 12820,1785 L 12910,1785 L 13000,1785 L 13000,1685 L 12910,1685 L 12820,1685 Z" /><path d="M 340,1585 L 520,1585 L 600,1585 L 690,1585 L 780,1585 L 820,1585 L 820,1485 L 780,1485 L 690,1485 L 600,1485 L 520,1485 L 340,1485 L 300,1485 L 300,1585 Z" /><path d="M 12820,1485 L 12780,1485 L 11700,1485 L 11610,1485 L 11520,1485 L 11520,1585 L 11610,1585 L 11700,1585 L 12780,1585 L 12820,1585 L 12910,1585 L 13000,1585 L 13000,1485 L 12910,1485 Z" /><path d="M 11090,1585 L 11180,1585 L 11220,1585 L 11220,1485 L 11180,1485 L 11090,1485 L 11000,1485 L 10920,1485 L 10740,1485 L 10700,1485 L 9620,1485 L 9530,1485 L 9440,1485 L 9440,1585 L 9530,1585 L 9620,1585 L 10700,1585 L 10740,1585 L 10920,1585 L 11000,1585 Z" /><path d="M 9010,1585 L 9100,1585 L 9140,1585 L 9140,1485 L 9100,1485 L 9010,1485 L 8920,1485 L 8840,1485 L 8660,1485 L 8620,1485 L 7540,1485 L 7450,1485 L 7360,1485 L 7360,1585 L 7450,1585 L 7540,1585 L 8620,1585 L 8660,1585 L 8840,1585 L 8920,1585 Z" /><path d="M 6930,1585 L 7020,1585 L 7060,1585 L 7060,1485 L 7020,1485 L 6930,1485 L 6840,1485 L 6760,1485 L 6580,1485 L 6540,1485 L 5460,1485 L 5370,1485 L 5280,1485 L 5280,1585 L 5370,1585 L 5460,1585 L 6540,1585 L 6580,1585 L 6760,1585 L 6840,1585 Z" /><path d="M 4850,1585 L 4940,1585 L 4980,1585 L 4980,1485 L 4940,1485 L 4850,1485 L 4760,1485 L 4680,1485 L 4500,1485 L 4460,1485 L 3380,1485 L 3290,1485 L 3200,1485 L 3200,1585 L 3290,1585 L 3380,1585 L 4460,1585 L 4500,1585 L 4680,1585 L 4760,1585 Z" /><path d="M 2770,1585 L 2860,1585 L 2900,1585 L 2900,1485 L 2860,1485 L 2770,1485 L 2680,1485 L 2600,1485 L 2420,1485 L 2380,1485 L 1300,1485 L 1210,1485 L 1120,1485 L 1120,1585 L 1210,1585 L 1300,1585 L 2380,1585 L 2420,1585 L 2600,1585 L 2680,1585 Z" /><path d="M 12480,785 L 13600,785 L 13730,785 L 13780,785 L 13780,685 L 13730,685 L 13730,684 L 12390,684 L 12390,685 L 12300,685 L 12300,785 L 12390,785 Z" /><path d="M 10400,985 L 13860,985 L 13965,985 L 14040,985 L 14040,885 L 13965,885 L 13860,885 L 10400,885 L 10310,885 L 10220,885 L 10220,985 L 10310,985 Z" /><path d="M 8320,1185 L 14120,1185 L 14225,1185 L 14300,1185 L 14300,1085 L 14225,1085 L 14120,1085 L 8320,1085 L 8230,1085 L 8140,1085 L 8140,1185 L 8230,1185 Z" /><path d="M 6240,2385 L 13600,2385 L 13715,2385 L 13780,2385 L 13780,2285 L 13715,2285 L 13600,2285 L 6240,2285 L 6150,2285 L 6060,2285 L 6060,2385 L 6150,2385 Z" /><path d="M 4160,2185 L 13340,2185 L 13455,2185 L 13520,2185 L 13520,2085 L 13455,2085 L 13340,2085 L 4160,2085 L 4070,2085 L 3980,2085 L 3980,2185 L 4070,2185 Z" /><path d="M 2080,1885 L 1990,1885 L 1900,1885 L 1900,1985 L 1990,1985 L 2080,1985 L 13080,1985 L 13195,1985 L 13260,1985 L 13260,1885 L 13195,1885 L 13080,1885 Z" /></g></g><g id="VIA3"><g class="l53d0"><path d="M 12080,1285 L 12180,1285 L 12180,1385 L 12080,1385 Z" /><path d="M 10000,1285 L 10100,1285 L 10100,1385 L 10000,1385 Z" /><path d="M 7920,1285 L 8020,1285 L 8020,1385 L 7920,1385 Z" /><path d="M 5840,1285 L 5940,1285 L 5940,1385 L 5840,1385 Z" /><path d="M 3760,1285 L 3860,1285 L 3860,1385 L 3760,1385 Z" /><path d="M 1680,1285 L 1780,1285 L 1780,1385 L 1680,1385 Z" /><path d="M 12860,1685 L 12960,1685 L 12960,1785 L 12860,1785 Z" /><path d="M 380,1685 L 480,1685 L 480,1785 L 380,1785 Z" /><path d="M 380,1485 L 480,1485 L 480,1585 L 380,1585 Z" /><path d="M 12860,1485 L 12960,1485 L 12960,1585 L 12860,1585 Z" /><path d="M 10780,1485 L 10880,1485 L 10880,1585 L 10780,1585 Z" /><path d="M 8700,1485 L 8800,1485 L 8800,1585 L 8700,1585 Z" /><path d="M 6620,1485 L 6720,1485 L 6720,1585 L 6620,1585 Z" /><path d="M 4540,1485 L 4640,1485 L 4640,1585 L 4540,1585 Z" /><path d="M 2460,1485 L 2560,1485 L 2560,1585 L 2460,1585 Z" /></g></g><g id="M4"><g class="l34d0"><path d="M 12180,1245 L 12180,215 L 12080,215 L 12080,1245 L 12080,1335 L 12080,1425 L 12180,1425 L 12180,1335 Z" /><path d="M 10100,1245 L 10100,215 L 10000,215 L 10000,1245 L 10000,1335 L 10000,1425 L 10100,1425 L 10100,1335 Z" /><path d="M 8020,1245 L 8020,215 L 7920,215 L 7920,1245 L 7920,1335 L 7920,1425 L 8020,1425 L 8020,1335 Z" /><path d="M 5940,1245 L 5940,215 L 5840,215 L 5840,1245 L 5840,1335 L 5840,1425 L 5940,1425 L 5940,1335 Z" /><path d="M 3860,1245 L 3860,215 L 3760,215 L 3760,1245 L 3760,1335 L 3760,1425 L 3860,1425 L 3860,1335 Z" /><path d="M 1780,1245 L 1780,215 L 1680,215 L 1680,1245 L 1680,1335 L 1680,1425 L 1780,1425 L 1780,1335 Z" /><path d="M 380,1445 L 380,1535 L 380,1625 L 380,1645 L 380,1735 L 380,1825 L 380,1895 L 480,1895 L 480,1825 L 480,1735 L 480,1645 L 480,1625 L 480,1535 L 480,1445 L 480,1375 L 380,1375 Z" /><path d="M 12960,1625 L 12960,1535 L 12960,1445 L 12960,215 L 12860,215 L 12860,1445 L 12860,1535 L 12860,1625 L 12860,1645 L 12860,1735 L 12860,1825 L 12960,1825 L 12960,1735 L 12960,1645 Z" /><path d="M 10880,1445 L 10880,215 L 10780,215 L 10780,1445 L 10780,1535 L 10780,1625 L 10880,1625 L 10880,1535 Z" /><path d="M 8800,1445 L 8800,215 L 8700,215 L 8700,1445 L 8700,1535 L 8700,1625 L 8800,1625 L 8800,1535 Z" /><path d="M 6720,1445 L 6720,215 L 6620,215 L 6620,1445 L 6620,1535 L 6620,1625 L 6720,1625 L 6720,1535 Z" /><path d="M 4640,1445 L 4640,215 L 4540,215 L 4540,1445 L 4540,1535 L 4540,1625 L 4640,1625 L 4640,1535 Z" /><path d="M 2560,1445 L 2560,215 L 2460,215 L 2460,1445 L 2460,1535 L 2460,1625 L 2560,1625 L 2560,1535 Z" /></g></g></g></svg>