<svg width="11010" height="6320" viewBox="-5 -6315 11010 6320" xmlns="http://www.w3.org/2000/svg" xmlns:xlink="http://www.w3.org/1999/xlink"><defs><style type="text/css">.l3d0 {fill: #fef9e7; fill-opacity: 0.5; stroke-width: 10; stroke: #f1c40f; stroke-linecap: round; stroke-linejoin: round; stroke-opacity: 0.2;}.l25d0 {fill: #8e44ad; fill-opacity: 0.05; stroke-width: 10; stroke: #8e44ad; stroke-linecap: round; stroke-linejoin: round; stroke-opacity: 1;}.l26d0 {fill: #ccd1d1; fill-opacity: 0.05; stroke-width: 10; stroke: #ccd1d1; stroke-linecap: round; stroke-linejoin: round; stroke-opacity: 1;}.l6d0 {fill: #f5b7b1; fill-opacity: 1; stroke-width: 10; stroke: #e74c3c; stroke-linecap: round; stroke-linejoin: round; stroke-opacity: 1;}.l17d0 {fill: #2980b9; fill-opacity: 1; stroke-width: 0; stroke: #000000; stroke-linecap: round; stroke-linejoin: round; stroke-opacity: 0;}.l30d0 {fill: #27ae60; fill-opacity: 1; stroke-width: 0; stroke: #000000; stroke-linecap: round; stroke-linejoin: round; stroke-opacity: 0;}.l31d0 {fill: #85c1e9; fill-opacity: 0.6; stroke-width: 0; stroke: #000000; stroke-linecap: round; stroke-linejoin: round; stroke-opacity: 0;}.l51d0 {fill: #f39c12; fill-opacity: 1; stroke-width: 10; stroke: #f39c12; stroke-linecap: round; stroke-linejoin: round; stroke-opacity: 1;}.l32d0 {fill: #f7dc6f; fill-opacity: 0.6; stroke-width: 0; stroke: #000000; stroke-linecap: round; stroke-linejoin: round; stroke-opacity: 0;}.l52d0 {fill: #a04000; fill-opacity: 1; stroke-width: 10; stroke: #a04000; stroke-linecap: round; stroke-linejoin: round; stroke-opacity: 1;}.l33d0 {fill: #16a085; fill-opacity: 0.6; stroke-width: 0; stroke: #000000; stroke-linecap: round; stroke-linejoin: round; stroke-opacity: 0;}path {fill-rule: evenodd;}</style></defs><g transform="scale(1 -1)"><g id="NW"><g class="l3d0"><path d="M 5800,1900 L 5720,1900 L 4265,1900 L 4005,1900 L 3745,1900 L 3615,1900 L 3485,1900 L 3355,1900 L 3095,1900 L 2835,1900 L 2600,1900 L 520,1900 L 0,1900 L 0,4410 L 2600,4410 L 5800,4410 L 7540,4410 L 7800,4410 L 10740,4410 L 11000,4410 L 11000,3540 L 11000,1900 L 9465,1900 L 9205,1900 L 8945,1900 L 8815,1900 L 8685,1900 L 8555,1900 L 8295,1900 L 8035,1900 L 7800,1900 Z" /></g></g><g id="PP"><g class="l25d0"><path d="M 5890,430 L 10830,430 L 10830,0 L 5890,0 L 5630,0 L 690,0 L 170,0 L 170,430 L 690,430 L 5630,430 Z" /><path d="M 5890,2940 L 6045,2940 L 6305,2940 L 6515,2940 L 6565,2940 L 6775,2940 L 6825,2940 L 7035,2940 L 7085,2940 L 7295,2940 L 7555,2940 L 7605,2940 L 7865,2940 L 8075,2940 L 8125,2940 L 8335,2940 L 8385,2940 L 8595,2940 L 8645,2940 L 8855,2940 L 8905,2940 L 9115,2940 L 9375,2940 L 9425,2940 L 9685,2940 L 9895,2940 L 9945,2940 L 10155,2940 L 10205,2940 L 10415,2940 L 10675,2940 L 10830,2940 L 10830,1685 L 5890,1685 L 5630,1685 L 690,1685 L 170,1685 L 170,2940 L 690,2940 L 845,2940 L 1105,2940 L 1315,2940 L 1365,2940 L 1575,2940 L 1625,2940 L 1835,2940 L 1885,2940 L 2095,2940 L 2355,2940 L 2405,2940 L 2665,2940 L 2875,2940 L 2925,2940 L 3135,2940 L 3185,2940 L 3395,2940 L 3445,2940 L 3655,2940 L 3705,2940 L 3915,2940 L 4175,2940 L 4225,2940 L 4485,2940 L 4695,2940 L 4745,2940 L 4955,2940 L 5005,2940 L 5215,2940 L 5475,2940 L 5630,2940 Z" /><path d="M 7710,5880 L 5630,5880 L 2770,5880 L 170,5880 L 170,6310 L 2770,6310 L 5630,6310 L 7710,6310 L 7970,6310 L 10570,6310 L 10830,6310 L 10830,5880 L 10570,5880 L 7970,5880 Z" /><path d="M 7865,3370 L 7710,3370 L 5630,3370 L 5475,3370 L 5215,3370 L 5005,3370 L 4745,3370 L 4695,3370 L 4435,3370 L 4225,3370 L 4175,3370 L 3965,3370 L 3915,3370 L 3705,3370 L 3445,3370 L 3395,3370 L 2925,3370 L 2770,3370 L 170,3370 L 170,4625 L 2770,4625 L 5630,4625 L 7710,4625 L 7970,4625 L 10570,4625 L 10830,4625 L 10830,3370 L 10570,3370 L 10415,3370 L 10155,3370 L 9945,3370 L 9685,3370 L 9635,3370 L 9375,3370 L 9165,3370 L 9115,3370 L 8905,3370 L 8855,3370 L 8645,3370 L 8385,3370 L 8335,3370 L 7970,3370 Z" /></g></g><g id="NP"><g class="l26d0"><path d="M 5890,1685 L 10830,1685 L 10830,430 L 10675,430 L 10415,430 L 10205,430 L 10155,430 L 9945,430 L 9895,430 L 9685,430 L 9425,430 L 9375,430 L 9115,430 L 8905,430 L 8855,430 L 8645,430 L 8595,430 L 8385,430 L 8335,430 L 8125,430 L 8075,430 L 7865,430 L 7605,430 L 7555,430 L 7295,430 L 7085,430 L 7035,430 L 6825,430 L 6775,430 L 6565,430 L 6515,430 L 6305,430 L 6045,430 L 5890,430 L 5630,430 L 5475,430 L 5215,430 L 5005,430 L 4955,430 L 4745,430 L 4695,430 L 4485,430 L 4225,430 L 4175,430 L 3915,430 L 3705,430 L 3655,430 L 3445,430 L 3395,430 L 3185,430 L 3135,430 L 2925,430 L 2875,430 L 2665,430 L 2405,430 L 2355,430 L 2095,430 L 1885,430 L 1835,430 L 1625,430 L 1575,430 L 1365,430 L 1315,430 L 1105,430 L 845,430 L 690,430 L 170,430 L 170,1685 L 690,1685 L 5630,1685 Z" /><path d="M 170,3370 L 690,3370 L 2770,3370 L 5630,3370 L 5890,3370 L 7710,3370 L 10570,3370 L 10830,3370 L 10830,2940 L 10570,2940 L 7710,2940 L 5890,2940 L 5630,2940 L 2770,2940 L 690,2940 L 170,2940 Z" /><path d="M 7710,4625 L 5630,4625 L 2770,4625 L 170,4625 L 170,5880 L 2770,5880 L 2925,5880 L 3395,5880 L 3445,5880 L 3705,5880 L 3915,5880 L 3965,5880 L 4175,5880 L 4225,5880 L 4435,5880 L 4695,5880 L 4745,5880 L 5005,5880 L 5215,5880 L 5475,5880 L 5630,5880 L 7710,5880 L 7865,5880 L 7970,5880 L 8335,5880 L 8385,5880 L 8645,5880 L 8855,5880 L 8905,5880 L 9115,5880 L 9165,5880 L 9375,5880 L 9635,5880 L 9685,5880 L 9945,5880 L 10155,5880 L 10415,5880 L 10570,5880 L 10830,5880 L 10830,4625 L 10570,4625 L 7970,4625 Z" /></g></g><g id="OD"><g class="l6d0"><path d="M 10210,770 L 10150,770 L 10075,770 L 10025,770 L 9950,770 L 9890,770 L 9815,770 L 9815,1010 L 9890,1010 L 9950,1010 L 10025,1010 L 10075,1010 L 10150,1010 L 10210,1010 L 10285,1010 L 10335,1010 L 10410,1010 L 10470,1010 L 10545,1010 L 10630,1010 L 10630,770 L 10545,770 L 10470,770 L 10410,770 L 10335,770 L 10285,770 Z" /><path d="M 9814,1010 L 9814,770 L 9765,770 L 9690,770 L 9630,770 L 9555,770 L 9470,770 L 9470,1010 L 9555,1010 L 9630,1010 L 9690,1010 L 9765,1010 Z" /><path d="M 10210,2360 L 10150,2360 L 10075,2360 L 10025,2360 L 9950,2360 L 9890,2360 L 9815,2360 L 9815,2600 L 9890,2600 L 9950,2600 L 10025,2600 L 10075,2600 L 10150,2600 L 10210,2600 L 10285,2600 L 10335,2600 L 10410,2600 L 10470,2600 L 10545,2600 L 10630,2600 L 10630,2360 L 10545,2360 L 10470,2360 L 10410,2360 L 10335,2360 L 10285,2360 Z" /><path d="M 9470,2360 L 9470,2600 L 9555,2600 L 9630,2600 L 9690,2600 L 9765,2600 L 9814,2600 L 9814,2360 L 9765,2360 L 9690,2360 L 9630,2360 L 9555,2360 Z" /><path d="M 6695,2360 L 6645,2360 L 6570,2360 L 6510,2360 L 6435,2360 L 6385,2360 L 6310,2360 L 6250,2360 L 6175,2360 L 6090,2360 L 6090,2600 L 6175,2600 L 6250,2600 L 6310,2600 L 6385,2600 L 6435,2600 L 6510,2600 L 6570,2600 L 6645,2600 L 6695,2600 L 6770,2600 L 6830,2600 L 6905,2600 L 6955,2600 L 7030,2600 L 7090,2600 L 7165,2600 L 7215,2600 L 7290,2600 L 7350,2600 L 7425,2600 L 7510,2600 L 7510,2360 L 7425,2360 L 7350,2360 L 7290,2360 L 7215,2360 L 7165,2360 L 7090,2360 L 7030,2360 L 6955,2360 L 6905,2360 L 6830,2360 L 6770,2360 Z" /><path d="M 9110,1130 L 9170,1130 L 9245,1130 L 9330,1130 L 9330,770 L 9245,770 L 9170,770 L 9110,770 L 9035,770 L 8985,770 L 8910,770 L 8850,770 L 8775,770 L 8725,770 L 8650,770 L 8590,770 L 8515,770 L 8465,770 L 8390,770 L 8330,770 L 8255,770 L 8205,770 L 8130,770 L 8070,770 L 7995,770 L 7945,770 L 7870,770 L 7810,770 L 7735,770 L 7650,770 L 7650,1010 L 7735,1010 L 7810,1010 L 7870,1010 L 7945,1010 L 7995,1010 L 8070,1010 L 8130,1010 L 8205,1010 L 8205,1130 L 8255,1130 L 8330,1130 L 8390,1130 L 8465,1130 L 8515,1130 L 8590,1130 L 8650,1130 L 8725,1130 L 8775,1130 L 8850,1130 L 8910,1130 L 8985,1130 L 9035,1130 Z" /><path d="M 6645,1010 L 6645,1130 L 6695,1130 L 6770,1130 L 6830,1130 L 6905,1130 L 6955,1130 L 7030,1130 L 7090,1130 L 7165,1130 L 7215,1130 L 7290,1130 L 7350,1130 L 7425,1130 L 7510,1130 L 7510,770 L 7425,770 L 7350,770 L 7290,770 L 7215,770 L 7165,770 L 7090,770 L 7030,770 L 6955,770 L 6905,770 L 6830,770 L 6770,770 L 6695,770 L 6645,770 L 6570,770 L 6510,770 L 6435,770 L 6385,770 L 6310,770 L 6250,770 L 6175,770 L 6090,770 L 6090,1010 L 6175,1010 L 6250,1010 L 6310,1010 L 6385,1010 L 6435,1010 L 6510,1010 L 6570,1010 Z" /><path d="M 9110,2600 L 9170,2600 L 9245,2600 L 9330,2600 L 9330,2120 L 9245,2120 L 9170,2120 L 9110,2120 L 9035,2120 L 8985,2120 L 8910,2120 L 8850,2120 L 8775,2120 L 8725,2120 L 8650,2120 L 8590,2120 L 8515,2120 L 8465,2120 L 8390,2120 L 8330,2120 L 8255,2120 L 8205,2120 L 8205,2360 L 8130,2360 L 8070,2360 L 7995,2360 L 7945,2360 L 7870,2360 L 7810,2360 L 7735,2360 L 7650,2360 L 7650,2600 L 7735,2600 L 7810,2600 L 7870,2600 L 7945,2600 L 7995,2600 L 8070,2600 L 8130,2600 L 8205,2600 L 8255,2600 L 8330,2600 L 8390,2600 L 8465,2600 L 8515,2600 L 8590,2600 L 8650,2600 L 8725,2600 L 8775,2600 L 8850,2600 L 8910,2600 L 8985,2600 L 9035,2600 Z" /><path d="M 6020,300 L 10700,300 L 10700,130 L 6020,130 L 5500,130 L 820,130 L 300,130 L 300,300 L 820,300 L 5500,300 Z" /><path d="M 5010,770 L 4950,770 L 4875,770 L 4825,770 L 4750,770 L 4690,770 L 4615,770 L 4615,1010 L 4690,1010 L 4750,1010 L 4825,1010 L 4875,1010 L 4950,1010 L 5010,1010 L 5085,1010 L 5135,1010 L 5210,1010 L 5270,1010 L 5345,1010 L 5430,1010 L 5430,770 L 5345,770 L 5270,770 L 5210,770 L 5135,770 L 5085,770 Z" /><path d="M 4614,1010 L 4614,770 L 4565,770 L 4490,770 L 4430,770 L 4355,770 L 4270,770 L 4270,1010 L 4355,1010 L 4430,1010 L 4490,1010 L 4565,1010 Z" /><path d="M 5010,2360 L 4950,2360 L 4875,2360 L 4825,2360 L 4750,2360 L 4690,2360 L 4615,2360 L 4615,2600 L 4690,2600 L 4750,2600 L 4825,2600 L 4875,2600 L 4950,2600 L 5010,2600 L 5085,2600 L 5135,2600 L 5210,2600 L 5270,2600 L 5345,2600 L 5430,2600 L 5430,2360 L 5345,2360 L 5270,2360 L 5210,2360 L 5135,2360 L 5085,2360 Z" /><path d="M 4270,2360 L 4270,2600 L 4355,2600 L 4430,2600 L 4490,2600 L 4565,2600 L 4614,2600 L 4614,2360 L 4565,2360 L 4490,2360 L 4430,2360 L 4355,2360 Z" /><path d="M 1495,2360 L 1445,2360 L 1370,2360 L 1310,2360 L 1235,2360 L 1185,2360 L 1110,2360 L 1050,2360 L 975,2360 L 890,2360 L 890,2600 L 975,2600 L 1050,2600 L 1110,2600 L 1185,2600 L 1235,2600 L 1310,2600 L 1370,2600 L 1445,2600 L 1495,2600 L 1570,2600 L 1630,2600 L 1705,2600 L 1755,2600 L 1830,2600 L 1890,2600 L 1965,2600 L 2015,2600 L 2090,2600 L 2150,2600 L 2225,2600 L 2310,2600 L 2310,2360 L 2225,2360 L 2150,2360 L 2090,2360 L 2015,2360 L 1965,2360 L 1890,2360 L 1830,2360 L 1755,2360 L 1705,2360 L 1630,2360 L 1570,2360 Z" /><path d="M 3910,1130 L 3970,1130 L 4045,1130 L 4130,1130 L 4130,770 L 4045,770 L 3970,770 L 3910,770 L 3835,770 L 3785,770 L 3710,770 L 3650,770 L 3575,770 L 3525,770 L 3450,770 L 3390,770 L 3315,770 L 3265,770 L 3190,770 L 3130,770 L 3055,770 L 3005,770 L 2930,770 L 2870,770 L 2795,770 L 2745,770 L 2670,770 L 2610,770 L 2535,770 L 2450,770 L 2450,1010 L 2535,1010 L 2610,1010 L 2670,1010 L 2745,1010 L 2795,1010 L 2870,1010 L 2930,1010 L 3005,1010 L 3005,1130 L 3055,1130 L 3130,1130 L 3190,1130 L 3265,1130 L 3315,1130 L 3390,1130 L 3450,1130 L 3525,1130 L 3575,1130 L 3650,1130 L 3710,1130 L 3785,1130 L 3835,1130 Z" /><path d="M 1445,1010 L 1445,1130 L 1495,1130 L 1570,1130 L 1630,1130 L 1705,1130 L 1755,1130 L 1830,1130 L 1890,1130 L 1965,1130 L 2015,1130 L 2090,1130 L 2150,1130 L 2225,1130 L 2310,1130 L 2310,770 L 2225,770 L 2150,770 L 2090,770 L 2015,770 L 1965,770 L 1890,770 L 1830,770 L 1755,770 L 1705,770 L 1630,770 L 1570,770 L 1495,770 L 1445,770 L 1370,770 L 1310,770 L 1235,770 L 1185,770 L 1110,770 L 1050,770 L 975,770 L 890,770 L 890,1010 L 975,1010 L 1050,1010 L 1110,1010 L 1185,1010 L 1235,1010 L 1310,1010 L 1370,1010 Z" /><path d="M 3910,2600 L 3970,2600 L 4045,2600 L 4130,2600 L 4130,2120 L 4045,2120 L 3970,2120 L 3910,2120 L 3835,2120 L 3785,2120 L 3710,2120 L 3650,2120 L 3575,2120 L 3525,2120 L 3450,2120 L 3390,2120 L 3315,2120 L 3265,2120 L 3190,2120 L 3130,2120 L 3055,2120 L 3005,2120 L 3005,2360 L 2930,2360 L 2870,2360 L 2795,2360 L 2745,2360 L 2670,2360 L 2610,2360 L 2535,2360 L 2450,2360 L 2450,2600 L 2535,2600 L 2610,2600 L 2670,2600 L 2745,2600 L 2795,2600 L 2870,2600 L 2930,2600 L 3005,2600 L 3055,2600 L 3130,2600 L 3190,2600 L 3265,2600 L 3315,2600 L 3390,2600 L 3450,2600 L 3525,2600 L 3575,2600 L 3650,2600 L 3710,2600 L 3785,2600 L 3835,2600 Z" /><path d="M 2970,5540 L 2970,5300 L 3055,5300 L 3130,5300 L 3190,5300 L 3265,5300 L 3350,5300 L 3350,5540 L 3265,5540 L 3190,5540 L 3130,5540 L 3055,5540 Z" /><path d="M 5085,5540 L 5010,5540 L 4950,5540 L 4875,5540 L 4790,5540 L 4790,5300 L 4875,5300 L 4950,5300 L 5010,5300 L 5085,5300 L 5135,5300 L 5210,5300 L 5270,5300 L 5345,5300 L 5430,5300 L 5430,5540 L 5345,5540 L 5270,5540 L 5210,5540 L 5135,5540 Z" /><path d="M 4170,5300 L 4230,5300 L 4305,5300 L 4355,5300 L 4430,5300 L 4490,5300 L 4565,5300 L 4650,5300 L 4650,5540 L 4565,5540 L 4490,5540 L 4430,5540 L 4355,5540 L 4305,5540 L 4230,5540 L 4170,5540 L 4095,5540 L 4045,5540 L 3970,5540 L 3910,5540 L 3835,5540 L 3785,5540 L 3710,5540 L 3650,5540 L 3575,5540 L 3490,5540 L 3490,5300 L 3575,5300 L 3650,5300 L 3710,5300 L 3785,5300 L 3835,5300 L 3910,5300 L 3970,5300 L 4045,5300 L 4095,5300 Z" /><path d="M 2970,3950 L 2970,3710 L 3055,3710 L 3130,3710 L 3190,3710 L 3265,3710 L 3350,3710 L 3350,3950 L 3265,3950 L 3190,3950 L 3130,3950 L 3055,3950 Z" /><path d="M 5085,3950 L 5010,3950 L 4950,3950 L 4875,3950 L 4790,3950 L 4790,3710 L 4875,3710 L 4950,3710 L 5010,3710 L 5085,3710 L 5135,3710 L 5210,3710 L 5270,3710 L 5345,3710 L 5430,3710 L 5430,3950 L 5345,3950 L 5270,3950 L 5210,3950 L 5135,3950 Z" /><path d="M 4170,3710 L 4230,3710 L 4305,3710 L 4355,3710 L 4430,3710 L 4490,3710 L 4565,3710 L 4650,3710 L 4650,3950 L 4565,3950 L 4490,3950 L 4430,3950 L 4355,3950 L 4305,3950 L 4230,3950 L 4170,3950 L 4095,3950 L 4045,3950 L 3970,3950 L 3910,3950 L 3835,3950 L 3785,3950 L 3710,3950 L 3650,3950 L 3575,3950 L 3490,3950 L 3490,3710 L 3575,3710 L 3650,3710 L 3710,3710 L 3785,3710 L 3835,3710 L 3910,3710 L 3970,3710 L 4045,3710 L 4095,3710 Z" /><path d="M 300,6180 L 2900,6180 L 5500,6180 L 7840,6180 L 8100,6180 L 10440,6180 L 10700,6180 L 10700,6010 L 10440,6010 L 8100,6010 L 7840,6010 L 5500,6010 L 2900,6010 L 300,6010 Z" /><path d="M 5500,3070 L 2900,3070 L 820,3070 L 300,3070 L 300,3240 L 820,3240 L 2900,3240 L 5500,3240 L 6020,3240 L 7840,3240 L 10440,3240 L 10700,3240 L 10700,3070 L 10440,3070 L 7840,3070 L 6020,3070 Z" /><path d="M 7910,5540 L 7910,5300 L 7995,5300 L 8070,5300 L 8130,5300 L 8205,5300 L 8290,5300 L 8290,5540 L 8205,5540 L 8130,5540 L 8070,5540 L 7995,5540 Z" /><path d="M 10025,5540 L 9950,5540 L 9890,5540 L 9815,5540 L 9730,5540 L 9730,5300 L 9815,5300 L 9890,5300 L 9950,5300 L 10025,5300 L 10075,5300 L 10150,5300 L 10210,5300 L 10285,5300 L 10370,5300 L 10370,5540 L 10285,5540 L 10210,5540 L 10150,5540 L 10075,5540 Z" /><path d="M 9110,5300 L 9170,5300 L 9245,5300 L 9295,5300 L 9370,5300 L 9430,5300 L 9505,5300 L 9590,5300 L 9590,5540 L 9505,5540 L 9430,5540 L 9370,5540 L 9295,5540 L 9245,5540 L 9170,5540 L 9110,5540 L 9035,5540 L 8985,5540 L 8910,5540 L 8850,5540 L 8775,5540 L 8725,5540 L 8650,5540 L 8590,5540 L 8515,5540 L 8430,5540 L 8430,5300 L 8515,5300 L 8590,5300 L 8650,5300 L 8725,5300 L 8775,5300 L 8850,5300 L 8910,5300 L 8985,5300 L 9035,5300 Z" /><path d="M 7910,3950 L 7910,3710 L 7995,3710 L 8070,3710 L 8130,3710 L 8205,3710 L 8290,3710 L 8290,3950 L 8205,3950 L 8130,3950 L 8070,3950 L 7995,3950 Z" /><path d="M 10025,3950 L 9950,3950 L 9890,3950 L 9815,3950 L 9730,3950 L 9730,3710 L 9815,3710 L 9890,3710 L 9950,3710 L 10025,3710 L 10075,3710 L 10150,3710 L 10210,3710 L 10285,3710 L 10370,3710 L 10370,3950 L 10285,3950 L 10210,3950 L 10150,3950 L 10075,3950 Z" /><path d="M 9110,3710 L 9170,3710 L 9245,3710 L 9295,3710 L 9370,3710 L 9430,3710 L 9505,3710 L 9590,3710 L 9590,3950 L 9505,3950 L 9430,3950 L 9370,3950 L 9295,3950 L 9245,3950 L 9170,3950 L 9110,3950 L 9035,3950 L 8985,3950 L 8910,3950 L 8850,3950 L 8775,3950 L 8725,3950 L 8650,3950 L 8590,3950 L 8515,3950 L 8430,3950 L 8430,3710 L 8515,3710 L 8590,3710 L 8650,3710 L 8725,3710 L 8775,3710 L 8850,3710 L 8910,3710 L 8985,3710 L 9035,3710 Z" /></g></g><g id="PO"><g class="l17d0"><path d="M 6310,1010 L 6310,770 L 6310,630 L 6250,630 L 6250,770 L 6250,1010 L 6250,1150 L 6250,1505 L 6225,1505 L 6225,1675 L 6250,1675 L 6250,2220 L 6250,2360 L 6250,2600 L 6250,2740 L 6310,2740 L 6310,2600 L 6310,2360 L 6310,2220 L 6310,1675 L 6335,1675 L 6335,1505 L 6310,1505 L 6310,1150 Z" /><path d="M 7870,1010 L 7870,770 L 7870,630 L 7810,630 L 7810,770 L 7810,1010 L 7810,1150 L 7810,1400 L 7810,2110 L 7785,2110 L 7785,2280 L 7810,2280 L 7810,2360 L 7810,2600 L 7810,2740 L 7870,2740 L 7870,2600 L 7870,2360 L 7870,2280 L 7895,2280 L 7895,2110 L 7870,2110 L 7870,1400 L 7870,1150 Z" /><path d="M 6510,2360 L 6510,2600 L 6510,2740 L 6570,2740 L 6570,2600 L 6570,2360 L 6570,2220 L 6570,2055 L 6595,2055 L 6595,1885 L 6570,1885 L 6570,1150 L 6570,1010 L 6570,770 L 6570,630 L 6510,630 L 6510,770 L 6510,1010 L 6510,1150 L 6510,1885 L 6485,1885 L 6485,2055 L 6510,2055 L 6510,2220 Z" /><path d="M 6770,2360 L 6770,2600 L 6770,2740 L 6830,2740 L 6830,2600 L 6830,2360 L 6830,2220 L 6830,1865 L 6860,1865 L 6860,1695 L 6830,1695 L 6830,1270 L 6830,1130 L 6830,770 L 6830,630 L 6770,630 L 6770,770 L 6770,1130 L 6770,1270 L 6770,1695 L 6740,1695 L 6740,1865 L 6770,1865 L 6770,2220 Z" /><path d="M 8390,1130 L 8390,770 L 8390,630 L 8330,630 L 8330,770 L 8330,1130 L 8330,1270 L 8330,1315 L 8300,1315 L 8300,1485 L 8330,1485 L 8330,1980 L 8330,2120 L 8330,2600 L 8330,2740 L 8390,2740 L 8390,2600 L 8390,2120 L 8390,1980 L 8390,1485 L 8420,1485 L 8420,1315 L 8390,1315 L 8390,1270 Z" /><path d="M 8650,1270 L 8650,1130 L 8650,770 L 8650,630 L 8590,630 L 8590,770 L 8590,1130 L 8590,1270 L 8590,1695 L 8560,1695 L 8560,1865 L 8590,1865 L 8590,1980 L 8590,2120 L 8590,2600 L 8590,2740 L 8650,2740 L 8650,2600 L 8650,2120 L 8650,1980 L 8649,1980 L 8649,1865 L 8680,1865 L 8680,1695 L 8649,1695 L 8649,1270 Z" /><path d="M 8130,1150 L 8130,1010 L 8130,770 L 8130,630 L 8070,630 L 8070,770 L 8070,1010 L 8070,1150 L 8070,1695 L 8040,1695 L 8040,1865 L 8070,1865 L 8070,2220 L 8070,2360 L 8070,2600 L 8070,2740 L 8130,2740 L 8130,2600 L 8130,2360 L 8130,2220 L 8129,2220 L 8129,1865 L 8160,1865 L 8160,1695 L 8129,1695 L 8129,1150 Z" /><path d="M 7290,2360 L 7290,2600 L 7290,2740 L 7350,2740 L 7350,2600 L 7350,2360 L 7350,2220 L 7350,1865 L 7380,1865 L 7380,1695 L 7350,1695 L 7350,1270 L 7350,1130 L 7350,770 L 7350,630 L 7290,630 L 7290,770 L 7290,1130 L 7290,1270 L 7290,1695 L 7260,1695 L 7260,1865 L 7290,1865 L 7290,2220 Z" /><path d="M 7030,2360 L 7030,2600 L 7030,2740 L 7090,2740 L 7090,2600 L 7090,2360 L 7090,2220 L 7090,1485 L 7120,1485 L 7120,1315 L 7090,1315 L 7090,1270 L 7090,1130 L 7090,770 L 7090,630 L 7030,630 L 7030,770 L 7030,1130 L 7030,1270 L 7030,1315 L 7000,1315 L 7000,1485 L 7030,1485 L 7030,2220 Z" /><path d="M 9170,1270 L 9170,1130 L 9170,770 L 9170,630 L 9110,630 L 9110,770 L 9110,1130 L 9110,1270 L 9110,1505 L 9080,1505 L 9080,1675 L 9110,1675 L 9110,1980 L 9110,2120 L 9110,2600 L 9110,2740 L 9170,2740 L 9170,2600 L 9170,2120 L 9170,1980 L 9169,1980 L 9169,1675 L 9200,1675 L 9200,1505 L 9169,1505 L 9169,1270 Z" /><path d="M 10210,1010 L 10210,770 L 10210,630 L 10150,630 L 10150,770 L 10150,1010 L 10150,1150 L 10150,2110 L 10120,2110 L 10120,2280 L 10150,2280 L 10150,2360 L 10150,2600 L 10150,2740 L 10210,2740 L 10210,2600 L 10210,2360 L 10210,2280 L 10240,2280 L 10240,2110 L 10210,2110 L 10210,1150 Z" /><path d="M 8910,1130 L 8910,770 L 8910,630 L 8850,630 L 8850,770 L 8850,1130 L 8850,1270 L 8850,1885 L 8820,1885 L 8820,2055 L 8850,2055 L 8850,2120 L 8850,2600 L 8850,2740 L 8910,2740 L 8910,2600 L 8910,2120 L 8910,2055 L 8940,2055 L 8940,1885 L 8910,1885 L 8910,1270 Z" /><path d="M 10410,2220 L 10410,2360 L 10410,2600 L 10410,2740 L 10470,2740 L 10470,2600 L 10470,2360 L 10470,2220 L 10470,1865 L 10500,1865 L 10500,1695 L 10470,1695 L 10470,1150 L 10470,1010 L 10470,770 L 10470,630 L 10410,630 L 10410,770 L 10410,1010 L 10410,1150 L 10409,1150 L 10409,1695 L 10380,1695 L 10380,1865 L 10409,1865 L 10409,2220 Z" /><path d="M 9950,1010 L 9950,770 L 9950,630 L 9890,630 L 9890,770 L 9890,1010 L 9890,1150 L 9890,1505 L 9860,1505 L 9860,1675 L 9890,1675 L 9890,2220 L 9890,2360 L 9890,2600 L 9890,2740 L 9950,2740 L 9950,2600 L 9950,2360 L 9950,2220 L 9950,1675 L 9980,1675 L 9980,1505 L 9950,1505 L 9950,1150 Z" /><path d="M 9690,1150 L 9690,1010 L 9690,770 L 9690,630 L 9630,630 L 9630,770 L 9630,1010 L 9630,1150 L 9630,1885 L 9600,1885 L 9600,2055 L 9630,2055 L 9630,2220 L 9630,2360 L 9630,2600 L 9630,2740 L 9690,2740 L 9690,2600 L 9690,2360 L 9690,2220 L 9689,2220 L 9689,2055 L 9720,2055 L 9720,1885 L 9689,1885 L 9689,1150 Z" /><path d="M 1110,1010 L 1110,770 L 1110,630 L 1050,630 L 1050,770 L 1050,1010 L 1050,1150 L 1050,1505 L 1025,1505 L 1025,1675 L 1050,1675 L 1050,2220 L 1050,2360 L 1050,2600 L 1050,2740 L 1110,2740 L 1110,2600 L 1110,2360 L 1110,2220 L 1110,1675 L 1135,1675 L 1135,1505 L 1110,1505 L 1110,1150 Z" /><path d="M 2670,1010 L 2670,770 L 2670,630 L 2610,630 L 2610,770 L 2610,1010 L 2610,1150 L 2610,1400 L 2610,2110 L 2585,2110 L 2585,2280 L 2610,2280 L 2610,2360 L 2610,2600 L 2610,2740 L 2670,2740 L 2670,2600 L 2670,2360 L 2670,2280 L 2695,2280 L 2695,2110 L 2670,2110 L 2670,1400 L 2670,1150 Z" /><path d="M 1310,2360 L 1310,2600 L 1310,2740 L 1370,2740 L 1370,2600 L 1370,2360 L 1370,2220 L 1370,2055 L 1395,2055 L 1395,1885 L 1370,1885 L 1370,1150 L 1370,1010 L 1370,770 L 1370,630 L 1310,630 L 1310,770 L 1310,1010 L 1310,1150 L 1310,1885 L 1285,1885 L 1285,2055 L 1310,2055 L 1310,2220 Z" /><path d="M 1570,2360 L 1570,2600 L 1570,2740 L 1630,2740 L 1630,2600 L 1630,2360 L 1630,2220 L 1630,1865 L 1660,1865 L 1660,1695 L 1630,1695 L 1630,1270 L 1630,1130 L 1630,770 L 1630,630 L 1570,630 L 1570,770 L 1570,1130 L 1570,1270 L 1570,1695 L 1540,1695 L 1540,1865 L 1570,1865 L 1570,2220 Z" /><path d="M 3190,1130 L 3190,770 L 3190,630 L 3130,630 L 3130,770 L 3130,1130 L 3130,1270 L 3130,1315 L 3100,1315 L 3100,1485 L 3130,1485 L 3130,1980 L 3130,2120 L 3130,2600 L 3130,2740 L 3190,2740 L 3190,2600 L 3190,2120 L 3190,1980 L 3190,1485 L 3220,1485 L 3220,1315 L 3190,1315 L 3190,1270 Z" /><path d="M 3450,1270 L 3450,1130 L 3450,770 L 3450,630 L 3390,630 L 3390,770 L 3390,1130 L 3390,1270 L 3390,1695 L 3360,1695 L 3360,1865 L 3390,1865 L 3390,1980 L 3390,2120 L 3390,2600 L 3390,2740 L 3450,2740 L 3450,2600 L 3450,2120 L 3450,1980 L 3449,1980 L 3449,1865 L 3480,1865 L 3480,1695 L 3449,1695 L 3449,1270 Z" /><path d="M 2930,1150 L 2930,1010 L 2930,770 L 2930,630 L 2870,630 L 2870,770 L 2870,1010 L 2870,1150 L 2870,1695 L 2840,1695 L 2840,1865 L 2870,1865 L 2870,2220 L 2870,2360 L 2870,2600 L 2870,2740 L 2930,2740 L 2930,2600 L 2930,2360 L 2930,2220 L 2929,2220 L 2929,1865 L 2960,1865 L 2960,1695 L 2929,1695 L 2929,1150 Z" /><path d="M 2090,2360 L 2090,2600 L 2090,2740 L 2150,2740 L 2150,2600 L 2150,2360 L 2150,2220 L 2150,1865 L 2180,1865 L 2180,1695 L 2150,1695 L 2150,1270 L 2150,1130 L 2150,770 L 2150,630 L 2090,630 L 2090,770 L 2090,1130 L 2090,1270 L 2090,1695 L 2060,1695 L 2060,1865 L 2090,1865 L 2090,2220 Z" /><path d="M 1830,2360 L 1830,2600 L 1830,2740 L 1890,2740 L 1890,2600 L 1890,2360 L 1890,2220 L 1890,1485 L 1920,1485 L 1920,1315 L 1890,1315 L 1890,1270 L 1890,1130 L 1890,770 L 1890,630 L 1830,630 L 1830,770 L 1830,1130 L 1830,1270 L 1830,1315 L 1800,1315 L 1800,1485 L 1830,1485 L 1830,2220 Z" /><path d="M 3970,1270 L 3970,1130 L 3970,770 L 3970,630 L 3910,630 L 3910,770 L 3910,1130 L 3910,1270 L 3910,1505 L 3880,1505 L 3880,1675 L 3910,1675 L 3910,1980 L 3910,2120 L 3910,2600 L 3910,2740 L 3970,2740 L 3970,2600 L 3970,2120 L 3970,1980 L 3969,1980 L 3969,1675 L 4000,1675 L 4000,1505 L 3969,1505 L 3969,1270 Z" /><path d="M 5010,1010 L 5010,770 L 5010,630 L 4950,630 L 4950,770 L 4950,1010 L 4950,1150 L 4950,2110 L 4920,2110 L 4920,2280 L 4950,2280 L 4950,2360 L 4950,2600 L 4950,2740 L 5010,2740 L 5010,2600 L 5010,2360 L 5010,2280 L 5040,2280 L 5040,2110 L 5010,2110 L 5010,1150 Z" /><path d="M 3710,1130 L 3710,770 L 3710,630 L 3650,630 L 3650,770 L 3650,1130 L 3650,1270 L 3650,1885 L 3620,1885 L 3620,2055 L 3650,2055 L 3650,2120 L 3650,2600 L 3650,2740 L 3710,2740 L 3710,2600 L 3710,2120 L 3710,2055 L 3740,2055 L 3740,1885 L 3710,1885 L 3710,1270 Z" /><path d="M 5210,2220 L 5210,2360 L 5210,2600 L 5210,2740 L 5270,2740 L 5270,2600 L 5270,2360 L 5270,2220 L 5270,1865 L 5300,1865 L 5300,1695 L 5270,1695 L 5270,1150 L 5270,1010 L 5270,770 L 5270,630 L 5210,630 L 5210,770 L 5210,1010 L 5210,1150 L 5209,1150 L 5209,1695 L 5180,1695 L 5180,1865 L 5209,1865 L 5209,2220 Z" /><path d="M 4750,1010 L 4750,770 L 4750,630 L 4690,630 L 4690,770 L 4690,1010 L 4690,1150 L 4690,1505 L 4660,1505 L 4660,1675 L 4690,1675 L 4690,2220 L 4690,2360 L 4690,2600 L 4690,2740 L 4750,2740 L 4750,2600 L 4750,2360 L 4750,2220 L 4750,1675 L 4780,1675 L 4780,1505 L 4750,1505 L 4750,1150 Z" /><path d="M 4490,1150 L 4490,1010 L 4490,770 L 4490,630 L 4430,630 L 4430,770 L 4430,1010 L 4430,1150 L 4430,1885 L 4400,1885 L 4400,2055 L 4430,2055 L 4430,2220 L 4430,2360 L 4430,2600 L 4430,2740 L 4490,2740 L 4490,2600 L 4490,2360 L 4490,2220 L 4489,2220 L 4489,2055 L 4520,2055 L 4520,1885 L 4489,1885 L 4489,1150 Z" /><path d="M 4490,5300 L 4490,5540 L 4490,5680 L 4430,5680 L 4430,5540 L 4430,5300 L 4430,5160 L 4430,4995 L 4405,4995 L 4405,4825 L 4430,4825 L 4430,4090 L 4430,3950 L 4430,3710 L 4430,3570 L 4490,3570 L 4490,3710 L 4490,3950 L 4490,4090 L 4490,4825 L 4515,4825 L 4515,4995 L 4490,4995 L 4490,5160 Z" /><path d="M 3190,5280 L 3190,5300 L 3190,5540 L 3190,5680 L 3130,5680 L 3130,5540 L 3130,5300 L 3130,5280 L 3130,5160 L 3130,4995 L 3105,4995 L 3105,4825 L 3130,4825 L 3130,4090 L 3130,3950 L 3130,3710 L 3130,3570 L 3190,3570 L 3190,3710 L 3190,3950 L 3190,4090 L 3190,4825 L 3215,4825 L 3215,4995 L 3190,4995 L 3190,5160 Z" /><path d="M 4230,5300 L 4230,5540 L 4230,5680 L 4170,5680 L 4170,5540 L 4170,5300 L 4170,5160 L 4170,4425 L 4145,4425 L 4145,4255 L 4170,4255 L 4170,4090 L 4170,3950 L 4170,3710 L 4170,3570 L 4230,3570 L 4230,3710 L 4230,3950 L 4230,4090 L 4230,4255 L 4255,4255 L 4255,4425 L 4230,4425 L 4230,5160 Z" /><path d="M 3710,5300 L 3710,5540 L 3710,5680 L 3650,5680 L 3650,5540 L 3650,5300 L 3650,5160 L 3650,4425 L 3625,4425 L 3625,4255 L 3650,4255 L 3650,4090 L 3650,3950 L 3650,3710 L 3650,3570 L 3710,3570 L 3710,3710 L 3710,3950 L 3710,4090 L 3710,4255 L 3735,4255 L 3735,4425 L 3710,4425 L 3710,5160 Z" /><path d="M 5270,5300 L 5270,5540 L 5270,5680 L 5210,5680 L 5210,5540 L 5210,5300 L 5210,5160 L 5210,4805 L 5185,4805 L 5185,4635 L 5210,4635 L 5210,4090 L 5210,3950 L 5210,3710 L 5210,3570 L 5270,3570 L 5270,3710 L 5270,3950 L 5270,4090 L 5270,4635 L 5295,4635 L 5295,4805 L 5270,4805 L 5270,5160 Z" /><path d="M 5010,5160 L 5010,5300 L 5010,5540 L 5010,5680 L 4950,5680 L 4950,5540 L 4950,5300 L 4950,5160 L 4950,4615 L 4925,4615 L 4925,4445 L 4950,4445 L 4950,4090 L 4950,3950 L 4950,3710 L 4950,3570 L 5010,3570 L 5010,3710 L 5010,3950 L 5010,4090 L 5009,4090 L 5009,4445 L 5035,4445 L 5035,4615 L 5009,4615 L 5009,5160 Z" /><path d="M 3970,5300 L 3970,5540 L 3970,5680 L 3910,5680 L 3910,5540 L 3910,5300 L 3910,5160 L 3910,4615 L 3885,4615 L 3885,4445 L 3910,4445 L 3910,4090 L 3910,3950 L 3910,3710 L 3910,3570 L 3970,3570 L 3970,3710 L 3970,3950 L 3970,4090 L 3970,4445 L 3995,4445 L 3995,4615 L 3970,4615 L 3970,5160 Z" /><path d="M 9430,5300 L 9430,5540 L 9430,5680 L 9370,5680 L 9370,5540 L 9370,5300 L 9370,5160 L 9370,4995 L 9345,4995 L 9345,4825 L 9370,4825 L 9370,4090 L 9370,3950 L 9370,3710 L 9370,3570 L 9430,3570 L 9430,3710 L 9430,3950 L 9430,4090 L 9430,4825 L 9455,4825 L 9455,4995 L 9430,4995 L 9430,5160 Z" /><path d="M 8130,5280 L 8130,5300 L 8130,5540 L 8130,5680 L 8070,5680 L 8070,5540 L 8070,5300 L 8070,5280 L 8070,5160 L 8070,4995 L 8045,4995 L 8045,4825 L 8070,4825 L 8070,4090 L 8070,3950 L 8070,3710 L 8070,3570 L 8130,3570 L 8130,3710 L 8130,3950 L 8130,4090 L 8130,4825 L 8155,4825 L 8155,4995 L 8130,4995 L 8130,5160 Z" /><path d="M 9170,5300 L 9170,5540 L 9170,5680 L 9110,5680 L 9110,5540 L 9110,5300 L 9110,5160 L 9110,4425 L 9085,4425 L 9085,4255 L 9110,4255 L 9110,4090 L 9110,3950 L 9110,3710 L 9110,3570 L 9170,3570 L 9170,3710 L 9170,3950 L 9170,4090 L 9170,4255 L 9195,4255 L 9195,4425 L 9170,4425 L 9170,5160 Z" /><path d="M 8650,5300 L 8650,5540 L 8650,5680 L 8590,5680 L 8590,5540 L 8590,5300 L 8590,5160 L 8590,4425 L 8565,4425 L 8565,4255 L 8590,4255 L 8590,4090 L 8590,3950 L 8590,3710 L 8590,3570 L 8650,3570 L 8650,3710 L 8650,3950 L 8650,4090 L 8650,4255 L 8675,4255 L 8675,4425 L 8650,4425 L 8650,5160 Z" /><path d="M 10210,5300 L 10210,5540 L 10210,5680 L 10150,5680 L 10150,5540 L 10150,5300 L 10150,5160 L 10150,4805 L 10125,4805 L 10125,4635 L 10150,4635 L 10150,4090 L 10150,3950 L 10150,3710 L 10150,3570 L 10210,3570 L 10210,3710 L 10210,3950 L 10210,4090 L 10210,4635 L 10235,4635 L 10235,4805 L 10210,4805 L 10210,5160 Z" /><path d="M 9950,5160 L 9950,5300 L 9950,5540 L 9950,5680 L 9890,5680 L 9890,5540 L 9890,5300 L 9890,5160 L 9890,4615 L 9865,4615 L 9865,4445 L 9890,4445 L 9890,4090 L 9890,3950 L 9890,3710 L 9890,3570 L 9950,3570 L 9950,3710 L 9950,3950 L 9950,4090 L 9949,4090 L 9949,4445 L 9975,4445 L 9975,4615 L 9949,4615 L 9949,5160 Z" /><path d="M 8910,5300 L 8910,5540 L 8910,5680 L 8850,5680 L 8850,5540 L 8850,5300 L 8850,5160 L 8850,4615 L 8825,4615 L 8825,4445 L 8850,4445 L 8850,4090 L 8850,3950 L 8850,3710 L 8850,3570 L 8910,3570 L 8910,3710 L 8910,3950 L 8910,4090 L 8910,4445 L 8935,4445 L 8935,4615 L 8910,4615 L 8910,5160 Z" /></g></g><g id="CO"><g class="l30d0"><path d="M 7665,6050 L 7665,6140 L 7755,6140 L 7755,6050 Z" /><path d="M 7405,6050 L 7495,6050 L 7495,6140 L 7405,6140 Z" /><path d="M 7145,6050 L 7235,6050 L 7235,6140 L 7145,6140 Z" /><path d="M 6885,6050 L 6975,6050 L 6975,6140 L 6885,6140 Z" /><path d="M 6625,6050 L 6715,6050 L 6715,6140 L 6625,6140 Z" /><path d="M 6365,6050 L 6455,6050 L 6455,6140 L 6365,6140 Z" /><path d="M 6105,6050 L 6195,6050 L 6195,6140 L 6105,6140 Z" /><path d="M 5845,6050 L 5935,6050 L 5935,6140 L 5845,6140 Z" /><path d="M 5585,6050 L 5675,6050 L 5675,6140 L 5585,6140 Z" /><path d="M 385,6050 L 475,6050 L 475,6140 L 385,6140 Z" /><path d="M 645,6050 L 735,6050 L 735,6140 L 645,6140 Z" /><path d="M 905,6050 L 995,6050 L 995,6140 L 905,6140 Z" /><path d="M 1165,6050 L 1255,6050 L 1255,6140 L 1165,6140 Z" /><path d="M 1425,6050 L 1515,6050 L 1515,6140 L 1425,6140 Z" /><path d="M 1685,6050 L 1775,6050 L 1775,6140 L 1685,6140 Z" /><path d="M 1945,6050 L 2035,6050 L 2035,6140 L 1945,6140 Z" /><path d="M 2205,6050 L 2295,6050 L 2295,6140 L 2205,6140 Z" /><path d="M 2465,6050 L 2555,6050 L 2555,6140 L 2465,6140 Z" /><path d="M 2725,6050 L 2815,6050 L 2815,6140 L 2725,6140 Z" /><path d="M 385,3110 L 475,3110 L 475,3200 L 385,3200 Z" /><path d="M 645,3110 L 735,3110 L 735,3200 L 645,3200 Z" /><path d="M 10525,6050 L 10615,6050 L 10615,6140 L 10525,6140 Z" /><path d="M 5585,170 L 5675,170 L 5675,260 L 5585,260 Z" /><path d="M 5845,170 L 5935,170 L 5935,260 L 5845,260 Z" /><path d="M 5585,3110 L 5675,3110 L 5675,3200 L 5585,3200 Z" /><path d="M 5845,3110 L 5935,3110 L 5935,3200 L 5845,3200 Z" /><path d="M 645,170 L 735,170 L 735,260 L 645,260 Z" /><path d="M 385,170 L 475,170 L 475,260 L 385,260 Z" /><path d="M 8965,2480 L 9055,2480 L 9055,2570 L 8965,2570 Z" /><path d="M 8445,2480 L 8535,2480 L 8535,2570 L 8445,2570 Z" /><path d="M 10265,2435 L 10355,2435 L 10355,2525 L 10265,2525 Z" /><path d="M 10005,2435 L 10095,2435 L 10095,2525 L 10005,2525 Z" /><path d="M 9745,2435 L 9835,2435 L 9835,2525 L 9745,2525 Z" /><path d="M 8705,2150 L 8795,2150 L 8795,2240 L 8705,2240 Z" /><path d="M 8705,2480 L 8795,2480 L 8795,2570 L 8705,2570 Z" /><path d="M 10525,170 L 10615,170 L 10615,260 L 10525,260 Z" /><path d="M 10265,170 L 10355,170 L 10355,260 L 10265,260 Z" /><path d="M 10005,170 L 10095,170 L 10095,260 L 10005,260 Z" /><path d="M 9745,170 L 9835,170 L 9835,260 L 9745,260 Z" /><path d="M 9485,170 L 9575,170 L 9575,260 L 9485,260 Z" /><path d="M 9225,170 L 9315,170 L 9315,260 L 9225,260 Z" /><path d="M 8965,170 L 9055,170 L 9055,260 L 8965,260 Z" /><path d="M 8705,170 L 8795,170 L 8795,260 L 8705,260 Z" /><path d="M 8445,170 L 8535,170 L 8535,260 L 8445,260 Z" /><path d="M 8185,170 L 8275,170 L 8275,260 L 8185,260 Z" /><path d="M 7925,170 L 8015,170 L 8015,260 L 7925,260 Z" /><path d="M 7665,170 L 7755,170 L 7755,260 L 7665,260 Z" /><path d="M 7405,170 L 7495,170 L 7495,260 L 7405,260 Z" /><path d="M 7145,170 L 7235,170 L 7235,260 L 7145,260 Z" /><path d="M 6885,170 L 6975,170 L 6975,260 L 6885,260 Z" /><path d="M 6625,170 L 6715,170 L 6715,260 L 6625,260 Z" /><path d="M 6365,170 L 6455,170 L 6455,260 L 6365,260 Z" /><path d="M 6105,170 L 6195,170 L 6195,260 L 6105,260 Z" /><path d="M 10525,3110 L 10615,3110 L 10615,3200 L 10525,3200 Z" /><path d="M 6365,2435 L 6455,2435 L 6455,2525 L 6365,2525 Z" /><path d="M 7145,2435 L 7235,2435 L 7235,2525 L 7145,2525 Z" /><path d="M 6885,2435 L 6975,2435 L 6975,2525 L 6885,2525 Z" /><path d="M 6625,2435 L 6715,2435 L 6715,2525 L 6625,2525 Z" /><path d="M 7145,3110 L 7235,3110 L 7235,3200 L 7145,3200 Z" /><path d="M 6105,3110 L 6195,3110 L 6195,3200 L 6105,3200 Z" /><path d="M 6365,3110 L 6455,3110 L 6455,3200 L 6365,3200 Z" /><path d="M 6625,3110 L 6715,3110 L 6715,3200 L 6625,3200 Z" /><path d="M 6885,3110 L 6975,3110 L 6975,3200 L 6885,3200 Z" /><path d="M 7925,2435 L 8015,2435 L 8015,2525 L 7925,2525 Z" /><path d="M 7405,3110 L 7495,3110 L 7495,3200 L 7405,3200 Z" /><path d="M 7665,3110 L 7755,3110 L 7755,3200 L 7665,3200 Z" /><path d="M 10525,845 L 10615,845 L 10615,935 L 10525,935 Z" /><path d="M 9485,845 L 9575,845 L 9575,935 L 9485,935 Z" /><path d="M 9225,1010 L 9315,1010 L 9315,1100 L 9225,1100 Z" /><path d="M 9225,800 L 9315,800 L 9315,890 L 9225,890 Z" /><path d="M 8445,800 L 8535,800 L 8535,890 L 8445,890 Z" /><path d="M 8185,845 L 8275,845 L 8275,935 L 8185,935 Z" /><path d="M 7665,845 L 7755,845 L 7755,935 L 7665,935 Z" /><path d="M 7405,1010 L 7495,1010 L 7495,1100 L 7405,1100 Z" /><path d="M 7405,800 L 7495,800 L 7495,890 L 7405,890 Z" /><path d="M 10005,845 L 10095,845 L 10095,935 L 10005,935 Z" /><path d="M 6105,845 L 6195,845 L 6195,935 L 6105,935 Z" /><path d="M 6105,2435 L 6195,2435 L 6195,2525 L 6105,2525 Z" /><path d="M 10525,2435 L 10615,2435 L 10615,2525 L 10525,2525 Z" /><path d="M 9485,2435 L 9575,2435 L 9575,2525 L 9485,2525 Z" /><path d="M 9225,2150 L 9315,2150 L 9315,2240 L 9225,2240 Z" /><path d="M 8445,1010 L 8535,1010 L 8535,1100 L 8445,1100 Z" /><path d="M 8185,2435 L 8275,2435 L 8275,2525 L 8185,2525 Z" /><path d="M 7665,2435 L 7755,2435 L 7755,2525 L 7665,2525 Z" /><path d="M 7405,2435 L 7495,2435 L 7495,2525 L 7405,2525 Z" /><path d="M 6625,845 L 6715,845 L 6715,935 L 6625,935 Z" /><path d="M 9225,2480 L 9315,2480 L 9315,2570 L 9225,2570 Z" /><path d="M 6235,1545 L 6325,1545 L 6325,1635 L 6235,1635 Z" /><path d="M 7795,2150 L 7885,2150 L 7885,2240 L 7795,2240 Z" /><path d="M 6495,1925 L 6585,1925 L 6585,2015 L 6495,2015 Z" /><path d="M 6755,1735 L 6845,1735 L 6845,1825 L 6755,1825 Z" /><path d="M 8315,1355 L 8405,1355 L 8405,1445 L 8315,1445 Z" /><path d="M 8575,1735 L 8665,1735 L 8665,1825 L 8575,1825 Z" /><path d="M 8055,1735 L 8145,1735 L 8145,1825 L 8055,1825 Z" /><path d="M 7275,1735 L 7365,1735 L 7365,1825 L 7275,1825 Z" /><path d="M 7015,1355 L 7105,1355 L 7105,1445 L 7015,1445 Z" /><path d="M 9095,1545 L 9185,1545 L 9185,1635 L 9095,1635 Z" /><path d="M 10135,2150 L 10225,2150 L 10225,2240 L 10135,2240 Z" /><path d="M 8835,1925 L 8925,1925 L 8925,2015 L 8835,2015 Z" /><path d="M 10395,1735 L 10485,1735 L 10485,1825 L 10395,1825 Z" /><path d="M 9875,1545 L 9965,1545 L 9965,1635 L 9875,1635 Z" /><path d="M 9615,1925 L 9705,1925 L 9705,2015 L 9615,2015 Z" /><path d="M 3765,2480 L 3855,2480 L 3855,2570 L 3765,2570 Z" /><path d="M 3245,2480 L 3335,2480 L 3335,2570 L 3245,2570 Z" /><path d="M 5065,2435 L 5155,2435 L 5155,2525 L 5065,2525 Z" /><path d="M 4805,2435 L 4895,2435 L 4895,2525 L 4805,2525 Z" /><path d="M 4545,2435 L 4635,2435 L 4635,2525 L 4545,2525 Z" /><path d="M 3505,2150 L 3595,2150 L 3595,2240 L 3505,2240 Z" /><path d="M 3505,2480 L 3595,2480 L 3595,2570 L 3505,2570 Z" /><path d="M 5325,170 L 5415,170 L 5415,260 L 5325,260 Z" /><path d="M 5065,170 L 5155,170 L 5155,260 L 5065,260 Z" /><path d="M 4805,170 L 4895,170 L 4895,260 L 4805,260 Z" /><path d="M 4545,170 L 4635,170 L 4635,260 L 4545,260 Z" /><path d="M 4285,170 L 4375,170 L 4375,260 L 4285,260 Z" /><path d="M 4025,170 L 4115,170 L 4115,260 L 4025,260 Z" /><path d="M 3765,170 L 3855,170 L 3855,260 L 3765,260 Z" /><path d="M 3505,170 L 3595,170 L 3595,260 L 3505,260 Z" /><path d="M 3245,170 L 3335,170 L 3335,260 L 3245,260 Z" /><path d="M 2985,170 L 3075,170 L 3075,260 L 2985,260 Z" /><path d="M 2725,170 L 2815,170 L 2815,260 L 2725,260 Z" /><path d="M 2465,170 L 2555,170 L 2555,260 L 2465,260 Z" /><path d="M 2205,170 L 2295,170 L 2295,260 L 2205,260 Z" /><path d="M 1945,170 L 2035,170 L 2035,260 L 1945,260 Z" /><path d="M 1685,170 L 1775,170 L 1775,260 L 1685,260 Z" /><path d="M 1425,170 L 1515,170 L 1515,260 L 1425,260 Z" /><path d="M 1165,170 L 1255,170 L 1255,260 L 1165,260 Z" /><path d="M 905,170 L 995,170 L 995,260 L 905,260 Z" /><path d="M 1165,2435 L 1255,2435 L 1255,2525 L 1165,2525 Z" /><path d="M 1945,2435 L 2035,2435 L 2035,2525 L 1945,2525 Z" /><path d="M 1685,2435 L 1775,2435 L 1775,2525 L 1685,2525 Z" /><path d="M 1425,2435 L 1515,2435 L 1515,2525 L 1425,2525 Z" /><path d="M 1945,3110 L 2035,3110 L 2035,3200 L 1945,3200 Z" /><path d="M 905,3110 L 995,3110 L 995,3200 L 905,3200 Z" /><path d="M 1165,3110 L 1255,3110 L 1255,3200 L 1165,3200 Z" /><path d="M 1425,3110 L 1515,3110 L 1515,3200 L 1425,3200 Z" /><path d="M 1685,3110 L 1775,3110 L 1775,3200 L 1685,3200 Z" /><path d="M 2725,2435 L 2815,2435 L 2815,2525 L 2725,2525 Z" /><path d="M 2205,3110 L 2295,3110 L 2295,3200 L 2205,3200 Z" /><path d="M 2465,3110 L 2555,3110 L 2555,3200 L 2465,3200 Z" /><path d="M 2725,3110 L 2815,3110 L 2815,3200 L 2725,3200 Z" /><path d="M 5325,845 L 5415,845 L 5415,935 L 5325,935 Z" /><path d="M 4285,845 L 4375,845 L 4375,935 L 4285,935 Z" /><path d="M 4025,1010 L 4115,1010 L 4115,1100 L 4025,1100 Z" /><path d="M 4025,800 L 4115,800 L 4115,890 L 4025,890 Z" /><path d="M 3245,800 L 3335,800 L 3335,890 L 3245,890 Z" /><path d="M 2985,845 L 3075,845 L 3075,935 L 2985,935 Z" /><path d="M 2465,845 L 2555,845 L 2555,935 L 2465,935 Z" /><path d="M 2205,1010 L 2295,1010 L 2295,1100 L 2205,1100 Z" /><path d="M 2205,800 L 2295,800 L 2295,890 L 2205,890 Z" /><path d="M 4805,845 L 4895,845 L 4895,935 L 4805,935 Z" /><path d="M 905,845 L 995,845 L 995,935 L 905,935 Z" /><path d="M 905,2435 L 995,2435 L 995,2525 L 905,2525 Z" /><path d="M 5325,2435 L 5415,2435 L 5415,2525 L 5325,2525 Z" /><path d="M 4285,2435 L 4375,2435 L 4375,2525 L 4285,2525 Z" /><path d="M 4025,2150 L 4115,2150 L 4115,2240 L 4025,2240 Z" /><path d="M 3245,1010 L 3335,1010 L 3335,1100 L 3245,1100 Z" /><path d="M 2985,2435 L 3075,2435 L 3075,2525 L 2985,2525 Z" /><path d="M 2465,2435 L 2555,2435 L 2555,2525 L 2465,2525 Z" /><path d="M 2205,2435 L 2295,2435 L 2295,2525 L 2205,2525 Z" /><path d="M 1425,845 L 1515,845 L 1515,935 L 1425,935 Z" /><path d="M 4025,2480 L 4115,2480 L 4115,2570 L 4025,2570 Z" /><path d="M 1035,1545 L 1125,1545 L 1125,1635 L 1035,1635 Z" /><path d="M 2595,2150 L 2685,2150 L 2685,2240 L 2595,2240 Z" /><path d="M 1295,1925 L 1385,1925 L 1385,2015 L 1295,2015 Z" /><path d="M 1555,1735 L 1645,1735 L 1645,1825 L 1555,1825 Z" /><path d="M 3115,1355 L 3205,1355 L 3205,1445 L 3115,1445 Z" /><path d="M 3375,1735 L 3465,1735 L 3465,1825 L 3375,1825 Z" /><path d="M 2855,1735 L 2945,1735 L 2945,1825 L 2855,1825 Z" /><path d="M 2075,1735 L 2165,1735 L 2165,1825 L 2075,1825 Z" /><path d="M 1815,1355 L 1905,1355 L 1905,1445 L 1815,1445 Z" /><path d="M 3895,1545 L 3985,1545 L 3985,1635 L 3895,1635 Z" /><path d="M 4935,2150 L 5025,2150 L 5025,2240 L 4935,2240 Z" /><path d="M 3635,1925 L 3725,1925 L 3725,2015 L 3635,2015 Z" /><path d="M 5195,1735 L 5285,1735 L 5285,1825 L 5195,1825 Z" /><path d="M 4675,1545 L 4765,1545 L 4765,1635 L 4675,1635 Z" /><path d="M 4415,1925 L 4505,1925 L 4505,2015 L 4415,2015 Z" /><path d="M 4285,3875 L 4375,3875 L 4375,3785 L 4285,3785 Z" /><path d="M 3765,3875 L 3855,3875 L 3855,3785 L 3765,3785 Z" /><path d="M 5325,5465 L 5415,5465 L 5415,5375 L 5325,5375 Z" /><path d="M 4805,5465 L 4895,5465 L 4895,5375 L 4805,5375 Z" /><path d="M 4545,5465 L 4635,5465 L 4635,5375 L 4545,5375 Z" /><path d="M 4025,5465 L 4115,5465 L 4115,5375 L 4025,5375 Z" /><path d="M 3505,5465 L 3595,5465 L 3595,5375 L 3505,5375 Z" /><path d="M 3245,5465 L 3335,5465 L 3335,5375 L 3245,5375 Z" /><path d="M 2985,5465 L 3075,5465 L 3075,5375 L 2985,5375 Z" /><path d="M 2985,3875 L 3075,3875 L 3075,3785 L 2985,3785 Z" /><path d="M 3245,3875 L 3335,3875 L 3335,3785 L 3245,3785 Z" /><path d="M 3505,3875 L 3595,3875 L 3595,3785 L 3505,3785 Z" /><path d="M 4025,3875 L 4115,3875 L 4115,3785 L 4025,3785 Z" /><path d="M 4545,3875 L 4635,3875 L 4635,3785 L 4545,3785 Z" /><path d="M 4805,3875 L 4895,3875 L 4895,3785 L 4805,3785 Z" /><path d="M 5325,3875 L 5415,3875 L 5415,3785 L 5325,3785 Z" /><path d="M 5065,3875 L 5155,3875 L 5155,3785 L 5065,3785 Z" /><path d="M 2985,6140 L 3075,6140 L 3075,6050 L 2985,6050 Z" /><path d="M 3245,6140 L 3335,6140 L 3335,6050 L 3245,6050 Z" /><path d="M 3505,6140 L 3595,6140 L 3595,6050 L 3505,6050 Z" /><path d="M 3765,6140 L 3855,6140 L 3855,6050 L 3765,6050 Z" /><path d="M 4025,6140 L 4115,6140 L 4115,6050 L 4025,6050 Z" /><path d="M 4285,6140 L 4375,6140 L 4375,6050 L 4285,6050 Z" /><path d="M 4545,6140 L 4635,6140 L 4635,6050 L 4545,6050 Z" /><path d="M 4805,6140 L 4895,6140 L 4895,6050 L 4805,6050 Z" /><path d="M 5325,6140 L 5415,6140 L 5415,6050 L 5325,6050 Z" /><path d="M 5065,6140 L 5155,6140 L 5155,6050 L 5065,6050 Z" /><path d="M 2985,3110 L 2985,3200 L 3075,3200 L 3075,3110 Z" /><path d="M 3245,3110 L 3245,3200 L 3335,3200 L 3335,3110 Z" /><path d="M 3505,3110 L 3505,3200 L 3595,3200 L 3595,3110 Z" /><path d="M 3765,3110 L 3765,3200 L 3855,3200 L 3855,3110 Z" /><path d="M 4025,3110 L 4025,3200 L 4115,3200 L 4115,3110 Z" /><path d="M 4285,3110 L 4285,3200 L 4375,3200 L 4375,3110 Z" /><path d="M 4545,3110 L 4545,3200 L 4635,3200 L 4635,3110 Z" /><path d="M 4805,3110 L 4805,3200 L 4895,3200 L 4895,3110 Z" /><path d="M 5325,3110 L 5325,3200 L 5415,3200 L 5415,3110 Z" /><path d="M 5065,3110 L 5065,3200 L 5155,3200 L 5155,3110 Z" /><path d="M 4415,4955 L 4505,4955 L 4505,4865 L 4415,4865 Z" /><path d="M 3115,4955 L 3205,4955 L 3205,4865 L 3115,4865 Z" /><path d="M 4155,4385 L 4245,4385 L 4245,4295 L 4155,4295 Z" /><path d="M 3635,4385 L 3725,4385 L 3725,4295 L 3635,4295 Z" /><path d="M 5195,4765 L 5285,4765 L 5285,4675 L 5195,4675 Z" /><path d="M 4935,4575 L 5025,4575 L 5025,4485 L 4935,4485 Z" /><path d="M 3895,4575 L 3985,4575 L 3985,4485 L 3895,4485 Z" /><path d="M 9225,3875 L 9315,3875 L 9315,3785 L 9225,3785 Z" /><path d="M 8705,3875 L 8795,3875 L 8795,3785 L 8705,3785 Z" /><path d="M 10265,5465 L 10355,5465 L 10355,5375 L 10265,5375 Z" /><path d="M 9745,5465 L 9835,5465 L 9835,5375 L 9745,5375 Z" /><path d="M 9485,5465 L 9575,5465 L 9575,5375 L 9485,5375 Z" /><path d="M 8965,5465 L 9055,5465 L 9055,5375 L 8965,5375 Z" /><path d="M 8445,5465 L 8535,5465 L 8535,5375 L 8445,5375 Z" /><path d="M 8185,5465 L 8275,5465 L 8275,5375 L 8185,5375 Z" /><path d="M 7925,5465 L 8015,5465 L 8015,5375 L 7925,5375 Z" /><path d="M 7925,3875 L 8015,3875 L 8015,3785 L 7925,3785 Z" /><path d="M 8185,3875 L 8275,3875 L 8275,3785 L 8185,3785 Z" /><path d="M 8445,3875 L 8535,3875 L 8535,3785 L 8445,3785 Z" /><path d="M 8965,3875 L 9055,3875 L 9055,3785 L 8965,3785 Z" /><path d="M 9485,3875 L 9575,3875 L 9575,3785 L 9485,3785 Z" /><path d="M 9745,3875 L 9835,3875 L 9835,3785 L 9745,3785 Z" /><path d="M 10265,3875 L 10355,3875 L 10355,3785 L 10265,3785 Z" /><path d="M 10005,3875 L 10095,3875 L 10095,3785 L 10005,3785 Z" /><path d="M 7925,6140 L 8015,6140 L 8015,6050 L 7925,6050 Z" /><path d="M 8185,6140 L 8275,6140 L 8275,6050 L 8185,6050 Z" /><path d="M 8445,6140 L 8535,6140 L 8535,6050 L 8445,6050 Z" /><path d="M 8705,6140 L 8795,6140 L 8795,6050 L 8705,6050 Z" /><path d="M 8965,6140 L 9055,6140 L 9055,6050 L 8965,6050 Z" /><path d="M 9225,6140 L 9315,6140 L 9315,6050 L 9225,6050 Z" /><path d="M 9485,6140 L 9575,6140 L 9575,6050 L 9485,6050 Z" /><path d="M 9745,6140 L 9835,6140 L 9835,6050 L 9745,6050 Z" /><path d="M 10265,6140 L 10355,6140 L 10355,6050 L 10265,6050 Z" /><path d="M 10005,6140 L 10095,6140 L 10095,6050 L 10005,6050 Z" /><path d="M 7925,3110 L 7925,3200 L 8015,3200 L 8015,3110 Z" /><path d="M 8185,3110 L 8185,3200 L 8275,3200 L 8275,3110 Z" /><path d="M 8445,3110 L 8445,3200 L 8535,3200 L 8535,3110 Z" /><path d="M 8705,3110 L 8705,3200 L 8795,3200 L 8795,3110 Z" /><path d="M 8965,3110 L 8965,3200 L 9055,3200 L 9055,3110 Z" /><path d="M 9225,3110 L 9225,3200 L 9315,3200 L 9315,3110 Z" /><path d="M 9485,3110 L 9485,3200 L 9575,3200 L 9575,3110 Z" /><path d="M 9745,3110 L 9745,3200 L 9835,3200 L 9835,3110 Z" /><path d="M 10265,3110 L 10265,3200 L 10355,3200 L 10355,3110 Z" /><path d="M 10005,3110 L 10005,3200 L 10095,3200 L 10095,3110 Z" /><path d="M 9355,4955 L 9445,4955 L 9445,4865 L 9355,4865 Z" /><path d="M 8055,4955 L 8145,4955 L 8145,4865 L 8055,4865 Z" /><path d="M 9095,4385 L 9185,4385 L 9185,4295 L 9095,4295 Z" /><path d="M 8575,4385 L 8665,4385 L 8665,4295 L 8575,4295 Z" /><path d="M 10135,4765 L 10225,4765 L 10225,4675 L 10135,4675 Z" /><path d="M 9875,4575 L 9965,4575 L 9965,4485 L 9875,4485 Z" /><path d="M 8835,4575 L 8925,4575 L 8925,4485 L 8835,4485 Z" /></g></g><g id="M1"><g class="l31d0"><path d="M 8960,2575 L 8960,2700 L 8540,2700 L 8540,2575 L 8540,2440 L 8440,2440 L 8440,2575 L 8440,2700 L 8440,2800 L 8540,2800 L 8960,2800 L 9060,2800 L 9060,2700 L 9060,2575 L 9060,2440 L 8960,2440 Z" /><path d="M 7920,2390 L 7920,2570 L 7920,2810 L 8020,2810 L 8020,2570 L 8020,2390 Z" /><path d="M 7500,720 L 7400,720 L 7400,860 L 7400,1040 L 7400,1140 L 7500,1140 L 7500,1040 L 7500,860 Z" /><path d="M 6360,2390 L 6360,2570 L 6360,2810 L 6460,2810 L 6460,2570 L 6460,2390 Z" /><path d="M 9740,2390 L 9740,2570 L 9740,2810 L 9840,2810 L 9840,2570 L 9840,2390 Z" /><path d="M 10260,2390 L 10260,2570 L 10260,2810 L 10360,2810 L 10360,2570 L 10360,2390 Z" /><path d="M 8540,720 L 8440,720 L 8440,860 L 8440,1040 L 8440,1140 L 8540,1140 L 8540,1040 L 8540,860 Z" /><path d="M 7625,940 L 7760,940 L 7880,940 L 7970,940 L 8060,940 L 8060,840 L 7970,840 L 7880,840 L 7760,840 L 7625,840 Z" /><path d="M 6065,940 L 6320,940 L 6410,940 L 6500,940 L 6500,840 L 6410,840 L 6320,840 L 6065,840 Z" /><path d="M 9445,940 L 9580,940 L 9700,940 L 9790,940 L 9880,940 L 9880,840 L 9790,840 L 9700,840 L 9580,840 L 9445,840 Z" /><path d="M 10655,840 L 10520,840 L 10400,840 L 10310,840 L 10220,840 L 10220,940 L 10310,940 L 10400,940 L 10520,940 L 10655,940 Z" /><path d="M 8470,1830 L 8535,1830 L 8660,1830 L 8705,1830 L 8840,1830 L 8890,1830 L 8890,1730 L 8840,1730 L 8705,1730 L 8660,1730 L 8535,1730 L 8470,1730 Z" /><path d="M 6995,1830 L 7100,1830 L 7235,1830 L 7280,1830 L 7405,1830 L 7415,1830 L 7415,1730 L 7405,1730 L 7280,1730 L 7235,1730 L 7100,1730 L 6995,1730 Z" /><path d="M 6975,1450 L 7060,1450 L 7145,1450 L 7145,1350 L 7060,1350 L 6975,1350 L 6500,1350 L 6410,1350 L 6320,1350 L 6320,1450 L 6410,1450 L 6500,1450 Z" /><path d="M 6365,1540 L 6280,1540 L 6195,1540 L 6195,1640 L 6280,1640 L 6365,1640 L 7880,1640 L 7970,1640 L 8060,1640 L 9055,1640 L 9140,1640 L 9225,1640 L 9225,1540 L 9140,1540 L 9055,1540 L 8060,1540 L 7970,1540 L 7880,1540 Z" /><path d="M 8665,2245 L 8700,2245 L 8700,2475 L 8700,2610 L 8800,2610 L 8800,2475 L 8800,2245 L 9220,2245 L 9220,2475 L 9220,2610 L 9320,2610 L 9320,2475 L 9320,2245 L 9355,2245 L 9355,2244 L 10095,2244 L 10095,2245 L 10265,2245 L 10265,2145 L 10180,2145 L 10095,2145 L 9355,2145 L 8665,2145 L 8580,2145 L 8490,2145 L 8400,2145 L 7925,2145 L 7840,2145 L 7755,2145 L 7755,2245 L 7925,2245 L 7925,2244 L 8400,2244 L 8400,2245 L 8580,2245 L 8580,2244 L 8665,2244 Z" /><path d="M 10355,1730 L 9880,1730 L 9790,1730 L 9700,1730 L 9700,1830 L 9790,1830 L 9880,1830 L 10355,1830 L 10440,1830 L 10525,1830 L 10525,1730 L 10440,1730 Z" /><path d="M 10005,1640 L 10220,1640 L 10310,1640 L 10400,1640 L 10400,1540 L 10310,1540 L 10220,1540 L 10005,1540 L 9920,1540 L 9835,1540 L 9835,1640 L 9920,1640 Z" /><path d="M 8795,2020 L 8965,2020 L 9575,2020 L 9660,2020 L 9745,2020 L 9745,1920 L 9660,1920 L 9575,1920 L 8965,1920 L 8795,1920 L 7540,1920 L 7450,1920 L 7360,1920 L 6625,1920 L 6540,1920 L 6455,1920 L 6455,2020 L 6540,2020 L 6625,2020 L 6880,2020 L 6880,2565 L 6980,2565 L 6980,2020 L 7360,2020 L 7400,2020 L 7400,2565 L 7500,2565 L 7500,2020 L 7540,2020 Z" /><path d="M 3760,2575 L 3760,2700 L 3340,2700 L 3340,2575 L 3340,2440 L 3240,2440 L 3240,2575 L 3240,2700 L 3240,2800 L 3340,2800 L 3760,2800 L 3860,2800 L 3860,2700 L 3860,2575 L 3860,2440 L 3760,2440 Z" /><path d="M 5510,310 L 6010,310 L 6620,310 L 6620,840 L 6620,975 L 6720,975 L 6720,840 L 6720,310 L 8180,310 L 8180,840 L 8180,975 L 8280,975 L 8280,840 L 8280,310 L 9220,310 L 9220,795 L 9220,1140 L 9320,1140 L 9320,795 L 9320,310 L 10000,310 L 10000,840 L 10000,975 L 10100,975 L 10100,840 L 10100,310 L 10710,310 L 10710,120 L 6010,120 L 5510,120 L 5490,120 L 810,120 L 290,120 L 290,310 L 810,310 L 1420,310 L 1420,840 L 1420,975 L 1520,975 L 1520,840 L 1520,310 L 2980,310 L 2980,840 L 2980,975 L 3080,975 L 3080,840 L 3080,310 L 4020,310 L 4020,795 L 4020,1140 L 4120,1140 L 4120,795 L 4120,310 L 4800,310 L 4800,840 L 4800,975 L 4900,975 L 4900,840 L 4900,310 L 5490,310 Z" /><path d="M 2720,2390 L 2720,2570 L 2720,2810 L 2820,2810 L 2820,2570 L 2820,2390 Z" /><path d="M 2300,720 L 2200,720 L 2200,860 L 2200,1040 L 2200,1140 L 2300,1140 L 2300,1040 L 2300,860 Z" /><path d="M 1160,2390 L 1160,2570 L 1160,2810 L 1260,2810 L 1260,2570 L 1260,2390 Z" /><path d="M 4540,2390 L 4540,2570 L 4540,2810 L 4640,2810 L 4640,2570 L 4640,2390 Z" /><path d="M 5060,2390 L 5060,2570 L 5060,2810 L 5160,2810 L 5160,2570 L 5160,2390 Z" /><path d="M 3340,720 L 3240,720 L 3240,860 L 3240,1040 L 3240,1140 L 3340,1140 L 3340,1040 L 3340,860 Z" /><path d="M 2425,940 L 2560,940 L 2680,940 L 2770,940 L 2860,940 L 2860,840 L 2770,840 L 2680,840 L 2560,840 L 2425,840 Z" /><path d="M 865,940 L 1120,940 L 1210,940 L 1300,940 L 1300,840 L 1210,840 L 1120,840 L 865,840 Z" /><path d="M 4245,940 L 4380,940 L 4500,940 L 4590,940 L 4680,940 L 4680,840 L 4590,840 L 4500,840 L 4380,840 L 4245,840 Z" /><path d="M 5455,840 L 5320,840 L 5200,840 L 5110,840 L 5020,840 L 5020,940 L 5110,940 L 5200,940 L 5320,940 L 5455,940 Z" /><path d="M 3270,1830 L 3335,1830 L 3460,1830 L 3505,1830 L 3640,1830 L 3690,1830 L 3690,1730 L 3640,1730 L 3505,1730 L 3460,1730 L 3335,1730 L 3270,1730 Z" /><path d="M 1795,1830 L 1900,1830 L 2035,1830 L 2080,1830 L 2205,1830 L 2215,1830 L 2215,1730 L 2205,1730 L 2080,1730 L 2035,1730 L 1900,1730 L 1795,1730 Z" /><path d="M 1775,1450 L 1860,1450 L 1945,1450 L 1945,1350 L 1860,1350 L 1775,1350 L 1300,1350 L 1210,1350 L 1120,1350 L 1120,1450 L 1210,1450 L 1300,1450 Z" /><path d="M 1165,1540 L 1080,1540 L 995,1540 L 995,1640 L 1080,1640 L 1165,1640 L 2680,1640 L 2770,1640 L 2860,1640 L 3855,1640 L 3940,1640 L 4025,1640 L 4025,1540 L 3940,1540 L 3855,1540 L 2860,1540 L 2770,1540 L 2680,1540 Z" /><path d="M 3465,2245 L 3500,2245 L 3500,2475 L 3500,2610 L 3600,2610 L 3600,2475 L 3600,2245 L 4020,2245 L 4020,2475 L 4020,2610 L 4120,2610 L 4120,2475 L 4120,2245 L 4155,2245 L 4155,2244 L 4895,2244 L 4895,2245 L 5065,2245 L 5065,2145 L 4980,2145 L 4895,2145 L 4155,2145 L 3465,2145 L 3380,2145 L 3290,2145 L 3200,2145 L 2725,2145 L 2640,2145 L 2555,2145 L 2555,2245 L 2725,2245 L 2725,2244 L 3200,2244 L 3200,2245 L 3380,2245 L 3380,2244 L 3465,2244 Z" /><path d="M 5155,1730 L 4680,1730 L 4590,1730 L 4500,1730 L 4500,1830 L 4590,1830 L 4680,1830 L 5155,1830 L 5240,1830 L 5325,1830 L 5325,1730 L 5240,1730 Z" /><path d="M 4805,1640 L 5020,1640 L 5110,1640 L 5200,1640 L 5200,1540 L 5110,1540 L 5020,1540 L 4805,1540 L 4720,1540 L 4635,1540 L 4635,1640 L 4720,1640 Z" /><path d="M 3595,2020 L 3765,2020 L 4375,2020 L 4460,2020 L 4545,2020 L 4545,1920 L 4460,1920 L 4375,1920 L 3765,1920 L 3595,1920 L 2340,1920 L 2250,1920 L 2160,1920 L 1425,1920 L 1340,1920 L 1255,1920 L 1255,2020 L 1340,2020 L 1425,2020 L 1680,2020 L 1680,2565 L 1780,2565 L 1780,2020 L 2160,2020 L 2200,2020 L 2200,2565 L 2300,2565 L 2300,2020 L 2340,2020 Z" /><path d="M 5060,3920 L 5060,3915 L 5060,3745 L 5060,3740 L 5060,3500 L 5160,3500 L 5160,3740 L 5160,3745 L 5160,3915 L 5160,3920 Z" /><path d="M 5320,5750 L 5320,5510 L 5320,5505 L 5320,5335 L 5320,5330 L 5420,5330 L 5420,5335 L 5420,5505 L 5420,5510 L 5420,5750 Z" /><path d="M 4280,3920 L 4280,3915 L 4280,3745 L 4280,3740 L 4280,3500 L 4380,3500 L 4380,3740 L 4380,3745 L 4380,3915 L 4380,3920 Z" /><path d="M 4540,5750 L 4540,5510 L 4540,5505 L 4540,5335 L 4540,5330 L 4640,5330 L 4640,5335 L 4640,5505 L 4640,5510 L 4640,5750 Z" /><path d="M 3500,5750 L 3500,5510 L 3500,5505 L 3500,5335 L 3500,5330 L 3600,5330 L 3600,5335 L 3600,5505 L 3600,5510 L 3600,5750 Z" /><path d="M 3760,3920 L 3760,3915 L 3760,3745 L 3760,3740 L 3760,3500 L 3860,3500 L 3860,3740 L 3860,3745 L 3860,3915 L 3860,3920 Z" /><path d="M 3240,5750 L 3240,5510 L 3240,5505 L 3240,5335 L 3240,5330 L 3340,5330 L 3340,5335 L 3340,5505 L 3340,5510 L 3340,5750 Z" /><path d="M 3240,3920 L 3240,3915 L 3240,3745 L 3240,3740 L 3240,3500 L 3340,3500 L 3340,3740 L 3340,3745 L 3340,3915 L 3340,3920 Z" /><path d="M 3640,4770 L 3550,4770 L 3460,4770 L 3460,4670 L 3550,4670 L 3640,4670 L 5155,4670 L 5240,4670 L 5325,4670 L 5325,4770 L 5240,4770 L 5155,4770 Z" /><path d="M 3380,4580 L 3290,4580 L 3200,4580 L 3200,4480 L 3290,4480 L 3380,4480 L 3855,4480 L 3940,4480 L 4025,4480 L 4025,4580 L 3940,4580 L 3855,4580 Z" /><path d="M 4420,4580 L 4330,4580 L 4240,4580 L 4240,4480 L 4330,4480 L 4420,4480 L 4895,4480 L 4980,4480 L 5065,4480 L 5065,4580 L 4980,4580 L 4895,4580 Z" /><path d="M 5420,3060 L 5420,2530 L 5420,2395 L 5320,2395 L 5320,2530 L 5320,3060 L 4900,3060 L 4900,2530 L 4900,2395 L 4800,2395 L 4800,2530 L 4800,3060 L 4380,3060 L 4380,2530 L 4380,2395 L 4280,2395 L 4280,2530 L 4280,3060 L 3080,3060 L 3080,2530 L 3080,2395 L 2980,2395 L 2980,2530 L 2980,3060 L 2890,3060 L 2560,3060 L 2560,2530 L 2560,2395 L 2460,2395 L 2460,2530 L 2460,3060 L 2040,3060 L 2040,2530 L 2040,2395 L 1940,2395 L 1940,2530 L 1940,3060 L 1520,3060 L 1520,2530 L 1520,2395 L 1420,2395 L 1420,2530 L 1420,3060 L 1000,3060 L 1000,2530 L 1000,2395 L 900,2395 L 900,2530 L 900,3060 L 810,3060 L 290,3060 L 290,3250 L 810,3250 L 2890,3250 L 2980,3250 L 2980,3745 L 2980,3915 L 3080,3915 L 3080,3745 L 3080,3250 L 3500,3250 L 3500,3745 L 3500,3915 L 3600,3915 L 3600,3745 L 3600,3250 L 4020,3250 L 4020,3745 L 4020,3915 L 4120,3915 L 4120,3745 L 4120,3250 L 4540,3250 L 4540,3745 L 4540,3915 L 4640,3915 L 4640,3745 L 4640,3250 L 4800,3250 L 4800,3745 L 4800,3915 L 4900,3915 L 4900,3745 L 4900,3250 L 5320,3250 L 5320,3745 L 5320,3915 L 5420,3915 L 5420,3745 L 5420,3250 L 5490,3250 L 5510,3250 L 6010,3250 L 7830,3250 L 7920,3250 L 7920,3745 L 7920,3915 L 8020,3915 L 8020,3745 L 8020,3250 L 8440,3250 L 8440,3745 L 8440,3915 L 8540,3915 L 8540,3745 L 8540,3250 L 8960,3250 L 8960,3745 L 8960,3915 L 9060,3915 L 9060,3745 L 9060,3250 L 9480,3250 L 9480,3745 L 9480,3915 L 9580,3915 L 9580,3745 L 9580,3250 L 9740,3250 L 9740,3745 L 9740,3915 L 9840,3915 L 9840,3745 L 9840,3250 L 10260,3250 L 10260,3745 L 10260,3915 L 10360,3915 L 10360,3745 L 10360,3250 L 10450,3250 L 10710,3250 L 10710,3060 L 10620,3060 L 10620,2530 L 10620,2395 L 10520,2395 L 10520,2530 L 10520,3060 L 10450,3060 L 10100,3060 L 10100,2530 L 10100,2395 L 10000,2395 L 10000,2530 L 10000,3060 L 9580,3060 L 9580,2530 L 9580,2395 L 9480,2395 L 9480,2530 L 9480,3060 L 8280,3060 L 8280,2530 L 8280,2395 L 8180,2395 L 8180,2530 L 8180,3060 L 7830,3060 L 7760,3060 L 7760,2530 L 7760,2395 L 7660,2395 L 7660,2530 L 7660,3060 L 7240,3060 L 7240,2530 L 7240,2395 L 7140,2395 L 7140,2530 L 7140,3060 L 6720,3060 L 6720,2530 L 6720,2395 L 6620,2395 L 6620,2530 L 6620,3060 L 6200,3060 L 6200,2530 L 6200,2395 L 6100,2395 L 6100,2530 L 6100,3060 L 6010,3060 L 5510,3060 L 5490,3060 Z" /><path d="M 290,6190 L 2890,6190 L 5510,6190 L 7830,6190 L 8090,6190 L 10450,6190 L 10710,6190 L 10710,6000 L 10450,6000 L 9840,6000 L 9840,5505 L 9840,5335 L 9740,5335 L 9740,5505 L 9740,6000 L 9060,6000 L 9060,5505 L 9060,5335 L 8960,5335 L 8960,5505 L 8960,6000 L 8090,6000 L 8020,6000 L 8020,5505 L 8020,5335 L 7920,5335 L 7920,5505 L 7920,6000 L 7830,6000 L 5510,6000 L 4900,6000 L 4900,5505 L 4900,5335 L 4800,5335 L 4800,5505 L 4800,6000 L 4120,6000 L 4120,5505 L 4120,5335 L 4020,5335 L 4020,5505 L 4020,6000 L 3080,6000 L 3080,5505 L 3080,5335 L 2980,5335 L 2980,5505 L 2980,6000 L 2890,6000 L 290,6000 Z" /><path d="M 10000,3920 L 10000,3915 L 10000,3745 L 10000,3740 L 10000,3500 L 10100,3500 L 10100,3740 L 10100,3745 L 10100,3915 L 10100,3920 Z" /><path d="M 10260,5750 L 10260,5510 L 10260,5505 L 10260,5335 L 10260,5330 L 10360,5330 L 10360,5335 L 10360,5505 L 10360,5510 L 10360,5750 Z" /><path d="M 9220,3920 L 9220,3915 L 9220,3745 L 9220,3740 L 9220,3500 L 9320,3500 L 9320,3740 L 9320,3745 L 9320,3915 L 9320,3920 Z" /><path d="M 9480,5750 L 9480,5510 L 9480,5505 L 9480,5335 L 9480,5330 L 9580,5330 L 9580,5335 L 9580,5505 L 9580,5510 L 9580,5750 Z" /><path d="M 8440,5750 L 8440,5510 L 8440,5505 L 8440,5335 L 8440,5330 L 8540,5330 L 8540,5335 L 8540,5505 L 8540,5510 L 8540,5750 Z" /><path d="M 8700,3920 L 8700,3915 L 8700,3745 L 8700,3740 L 8700,3500 L 8800,3500 L 8800,3740 L 8800,3745 L 8800,3915 L 8800,3920 Z" /><path d="M 8180,5750 L 8180,5510 L 8180,5505 L 8180,5335 L 8180,5330 L 8280,5330 L 8280,5335 L 8280,5505 L 8280,5510 L 8280,5750 Z" /><path d="M 8180,3920 L 8180,3915 L 8180,3745 L 8180,3740 L 8180,3500 L 8280,3500 L 8280,3740 L 8280,3745 L 8280,3915 L 8280,3920 Z" /><path d="M 8580,4770 L 8490,4770 L 8400,4770 L 8400,4670 L 8490,4670 L 8580,4670 L 10095,4670 L 10180,4670 L 10265,4670 L 10265,4770 L 10180,4770 L 10095,4770 Z" /><path d="M 8320,4580 L 8230,4580 L 8140,4580 L 8140,4480 L 8230,4480 L 8320,4480 L 8795,4480 L 8880,4480 L 8965,4480 L 8965,4580 L 8880,4580 L 8795,4580 Z" /><path d="M 9360,4580 L 9270,4580 L 9180,4580 L 9180,4480 L 9270,4480 L 9360,4480 L 9835,4480 L 9920,4480 L 10005,4480 L 10005,4580 L 9920,4580 L 9835,4580 Z" /><path d="M 7890,1730 L 7800,1730 L 7620,1730 L 7620,1830 L 7800,1830 L 7890,1830 L 8015,1830 L 8050,1830 L 8185,1830 L 8310,1830 L 8310,1730 L 8185,1730 L 8050,1730 L 8015,1730 Z" /><path d="M 9055,4290 L 8920,4290 L 8920,4390 L 9055,4390 L 9100,4390 L 9225,4390 L 9475,4390 L 9475,4290 L 9225,4290 L 9100,4290 Z" /><path d="M 2690,1730 L 2600,1730 L 2420,1730 L 2420,1830 L 2600,1830 L 2690,1830 L 2815,1830 L 2850,1830 L 2985,1830 L 3110,1830 L 3110,1730 L 2985,1730 L 2850,1730 L 2815,1730 Z" /><path d="M 8275,1450 L 8320,1450 L 8445,1450 L 8570,1450 L 8570,1350 L 8445,1350 L 8320,1350 L 8275,1350 L 8150,1350 L 8140,1350 L 8140,1450 L 8150,1450 Z" /><path d="M 3075,1450 L 3120,1450 L 3245,1450 L 3370,1450 L 3370,1350 L 3245,1350 L 3120,1350 L 3075,1350 L 2950,1350 L 2940,1350 L 2940,1450 L 2950,1450 Z" /><path d="M 6465,1830 L 6580,1830 L 6715,1830 L 6760,1830 L 6885,1830 L 6885,1730 L 6760,1730 L 6715,1730 L 6580,1730 L 6465,1730 Z" /><path d="M 1265,1830 L 1380,1830 L 1515,1830 L 1560,1830 L 1685,1830 L 1685,1730 L 1560,1730 L 1515,1730 L 1380,1730 L 1265,1730 Z" /><path d="M 4115,4290 L 3980,4290 L 3980,4390 L 4115,4390 L 4160,4390 L 4285,4390 L 4535,4390 L 4535,4290 L 4285,4290 L 4160,4290 Z" /><path d="M 8185,4960 L 8920,4960 L 9010,4960 L 9100,4960 L 9315,4960 L 9400,4960 L 9485,4960 L 9485,4860 L 9400,4860 L 9315,4860 L 9100,4860 L 9010,4860 L 8920,4860 L 8185,4860 L 8150,4860 L 8050,4860 L 8015,4860 L 8015,4960 L 8050,4960 L 8150,4960 Z" /><path d="M 3245,4960 L 3980,4960 L 4070,4960 L 4160,4960 L 4375,4960 L 4460,4960 L 4545,4960 L 4545,4860 L 4460,4860 L 4375,4860 L 4160,4860 L 4070,4860 L 3980,4860 L 3245,4860 L 3210,4860 L 3110,4860 L 3075,4860 L 3075,4960 L 3110,4960 L 3210,4960 Z" /><path d="M 8280,4290 L 8060,4290 L 7950,4290 L 7880,4290 L 7880,4390 L 7950,4390 L 8060,4390 L 8280,4390 L 8535,4390 L 8570,4390 L 8700,4390 L 8705,4390 L 8705,4290 L 8700,4290 L 8570,4290 L 8535,4290 Z" /><path d="M 3340,4290 L 3120,4290 L 2940,4290 L 2940,4390 L 3120,4390 L 3340,4390 L 3595,4390 L 3630,4390 L 3760,4390 L 3765,4390 L 3765,4290 L 3760,4290 L 3630,4290 L 3595,4290 Z" /></g></g><g id="VIA1"><g class="l51d0"><path d="M 7920,2430 L 8020,2430 L 8020,2530 L 7920,2530 Z" /><path d="M 7400,900 L 7500,900 L 7500,1000 L 7400,1000 Z" /><path d="M 6360,2430 L 6460,2430 L 6460,2530 L 6360,2530 Z" /><path d="M 9740,2430 L 9840,2430 L 9840,2530 L 9740,2530 Z" /><path d="M 10260,2430 L 10360,2430 L 10360,2530 L 10260,2530 Z" /><path d="M 8440,900 L 8540,900 L 8540,1000 L 8440,1000 Z" /><path d="M 7140,1730 L 7240,1730 L 7240,1830 L 7140,1830 Z" /><path d="M 8700,1730 L 8800,1730 L 8800,1830 L 8700,1830 Z" /><path d="M 7920,1540 L 8020,1540 L 8020,1640 L 7920,1640 Z" /><path d="M 7920,840 L 8020,840 L 8020,940 L 7920,940 Z" /><path d="M 7400,1920 L 7500,1920 L 7500,2020 L 7400,2020 Z" /><path d="M 6360,1350 L 6460,1350 L 6460,1450 L 6360,1450 Z" /><path d="M 6360,840 L 6460,840 L 6460,940 L 6360,940 Z" /><path d="M 10260,1540 L 10360,1540 L 10360,1640 L 10260,1640 Z" /><path d="M 9740,1730 L 9840,1730 L 9840,1830 L 9740,1830 Z" /><path d="M 9740,840 L 9840,840 L 9840,940 L 9740,940 Z" /><path d="M 10260,840 L 10360,840 L 10360,940 L 10260,940 Z" /><path d="M 8440,2145 L 8540,2145 L 8540,2245 L 8440,2245 Z" /><path d="M 2720,2430 L 2820,2430 L 2820,2530 L 2720,2530 Z" /><path d="M 2200,900 L 2300,900 L 2300,1000 L 2200,1000 Z" /><path d="M 1160,2430 L 1260,2430 L 1260,2530 L 1160,2530 Z" /><path d="M 4540,2430 L 4640,2430 L 4640,2530 L 4540,2530 Z" /><path d="M 5060,2430 L 5160,2430 L 5160,2530 L 5060,2530 Z" /><path d="M 3240,900 L 3340,900 L 3340,1000 L 3240,1000 Z" /><path d="M 1940,1730 L 2040,1730 L 2040,1830 L 1940,1830 Z" /><path d="M 3500,1730 L 3600,1730 L 3600,1830 L 3500,1830 Z" /><path d="M 2720,1540 L 2820,1540 L 2820,1640 L 2720,1640 Z" /><path d="M 2720,840 L 2820,840 L 2820,940 L 2720,940 Z" /><path d="M 2200,1920 L 2300,1920 L 2300,2020 L 2200,2020 Z" /><path d="M 1160,1350 L 1260,1350 L 1260,1450 L 1160,1450 Z" /><path d="M 1160,840 L 1260,840 L 1260,940 L 1160,940 Z" /><path d="M 5060,1540 L 5160,1540 L 5160,1640 L 5060,1640 Z" /><path d="M 4540,1730 L 4640,1730 L 4640,1830 L 4540,1830 Z" /><path d="M 4540,840 L 4640,840 L 4640,940 L 4540,940 Z" /><path d="M 5060,840 L 5160,840 L 5160,940 L 5060,940 Z" /><path d="M 3240,2145 L 3340,2145 L 3340,2245 L 3240,2245 Z" /><path d="M 5060,3880 L 5160,3880 L 5160,3780 L 5060,3780 Z" /><path d="M 5320,5470 L 5420,5470 L 5420,5370 L 5320,5370 Z" /><path d="M 4280,3880 L 4380,3880 L 4380,3780 L 4280,3780 Z" /><path d="M 4540,5470 L 4640,5470 L 4640,5370 L 4540,5370 Z" /><path d="M 3500,5470 L 3600,5470 L 3600,5370 L 3500,5370 Z" /><path d="M 3760,3880 L 3860,3880 L 3860,3780 L 3760,3780 Z" /><path d="M 3240,5470 L 3340,5470 L 3340,5370 L 3240,5370 Z" /><path d="M 3240,3880 L 3340,3880 L 3340,3780 L 3240,3780 Z" /><path d="M 3500,4770 L 3600,4770 L 3600,4670 L 3500,4670 Z" /><path d="M 3240,4580 L 3340,4580 L 3340,4480 L 3240,4480 Z" /><path d="M 4280,4580 L 4380,4580 L 4380,4480 L 4280,4480 Z" /><path d="M 10000,3880 L 10100,3880 L 10100,3780 L 10000,3780 Z" /><path d="M 10260,5470 L 10360,5470 L 10360,5370 L 10260,5370 Z" /><path d="M 9220,3880 L 9320,3880 L 9320,3780 L 9220,3780 Z" /><path d="M 9480,5470 L 9580,5470 L 9580,5370 L 9480,5370 Z" /><path d="M 8440,5470 L 8540,5470 L 8540,5370 L 8440,5370 Z" /><path d="M 8700,3880 L 8800,3880 L 8800,3780 L 8700,3780 Z" /><path d="M 8180,5470 L 8280,5470 L 8280,5370 L 8180,5370 Z" /><path d="M 8180,3880 L 8280,3880 L 8280,3780 L 8180,3780 Z" /><path d="M 8440,4770 L 8540,4770 L 8540,4670 L 8440,4670 Z" /><path d="M 8180,4580 L 8280,4580 L 8280,4480 L 8180,4480 Z" /><path d="M 9220,4580 L 9320,4580 L 9320,4480 L 9220,4480 Z" /><path d="M 7660,1730 L 7760,1730 L 7760,1830 L 7660,1830 Z" /><path d="M 8960,4290 L 9060,4290 L 9060,4390 L 8960,4390 Z" /><path d="M 2460,1730 L 2560,1730 L 2560,1830 L 2460,1830 Z" /><path d="M 8180,1350 L 8280,1350 L 8280,1450 L 8180,1450 Z" /><path d="M 2980,1350 L 3080,1350 L 3080,1450 L 2980,1450 Z" /><path d="M 6620,1730 L 6720,1730 L 6720,1830 L 6620,1830 Z" /><path d="M 1420,1730 L 1520,1730 L 1520,1830 L 1420,1830 Z" /><path d="M 4020,4290 L 4120,4290 L 4120,4390 L 4020,4390 Z" /><path d="M 8960,4860 L 9060,4860 L 9060,4960 L 8960,4960 Z" /><path d="M 4020,4860 L 4120,4860 L 4120,4960 L 4020,4960 Z" /><path d="M 7920,4290 L 8020,4290 L 8020,4390 L 7920,4390 Z" /><path d="M 2980,4290 L 3080,4290 L 3080,4390 L 2980,4390 Z" /></g></g><g id="M2"><g class="l32d0"><path d="M 8020,1590 L 8020,1500 L 8020,980 L 8020,890 L 8020,800 L 7920,800 L 7920,890 L 7920,980 L 7920,1500 L 7920,1590 L 7920,1680 L 7920,2390 L 7920,2480 L 7920,2570 L 8020,2570 L 8020,2480 L 8020,2390 L 8020,1680 Z" /><path d="M 7400,1880 L 7400,1970 L 7400,2060 L 7500,2060 L 7500,1970 L 7500,1880 L 7500,1040 L 7500,950 L 7500,860 L 7400,860 L 7400,950 L 7400,1040 Z" /><path d="M 6460,1400 L 6460,1310 L 6460,980 L 6460,890 L 6460,800 L 6360,800 L 6360,890 L 6360,980 L 6360,1310 L 6360,1400 L 6360,1490 L 6360,2390 L 6360,2480 L 6360,2570 L 6460,2570 L 6460,2480 L 6460,2390 L 6460,1490 Z" /><path d="M 10360,1590 L 10360,1500 L 10360,980 L 10360,890 L 10360,800 L 10260,800 L 10260,890 L 10260,980 L 10260,1500 L 10260,1590 L 10260,1680 L 10260,2390 L 10260,2480 L 10260,2570 L 10360,2570 L 10360,2480 L 10360,2390 L 10360,1680 Z" /><path d="M 8440,2105 L 8440,2195 L 8440,2285 L 8540,2285 L 8540,2195 L 8540,2105 L 8540,1040 L 8540,950 L 8540,860 L 8440,860 L 8440,950 L 8440,1040 Z" /><path d="M 8700,1520 L 8700,1690 L 8700,1695 L 8700,1870 L 8700,1875 L 8700,2040 L 8800,2040 L 8800,1875 L 8800,1870 L 8800,1695 L 8800,1690 L 8800,1520 Z" /><path d="M 7140,1520 L 7140,1690 L 7140,1695 L 7140,1870 L 7140,1875 L 7140,2040 L 7240,2040 L 7240,1875 L 7240,1870 L 7240,1695 L 7240,1690 L 7240,1520 Z" /><path d="M 2820,1590 L 2820,1500 L 2820,980 L 2820,890 L 2820,800 L 2720,800 L 2720,890 L 2720,980 L 2720,1500 L 2720,1590 L 2720,1680 L 2720,2390 L 2720,2480 L 2720,2570 L 2820,2570 L 2820,2480 L 2820,2390 L 2820,1680 Z" /><path d="M 2200,1880 L 2200,1970 L 2200,2060 L 2300,2060 L 2300,1970 L 2300,1880 L 2300,1040 L 2300,950 L 2300,860 L 2200,860 L 2200,950 L 2200,1040 Z" /><path d="M 1260,1400 L 1260,1310 L 1260,980 L 1260,890 L 1260,800 L 1160,800 L 1160,890 L 1160,980 L 1160,1310 L 1160,1400 L 1160,1490 L 1160,2390 L 1160,2480 L 1160,2570 L 1260,2570 L 1260,2480 L 1260,2390 L 1260,1490 Z" /><path d="M 5160,1590 L 5160,1500 L 5160,980 L 5160,890 L 5160,800 L 5060,800 L 5060,890 L 5060,980 L 5060,1500 L 5060,1590 L 5060,1680 L 5060,2390 L 5060,2480 L 5060,2570 L 5160,2570 L 5160,2480 L 5160,2390 L 5160,1680 Z" /><path d="M 3240,2105 L 3240,2195 L 3240,2285 L 3340,2285 L 3340,2195 L 3340,2105 L 3340,1040 L 3340,950 L 3340,860 L 3240,860 L 3240,950 L 3240,1040 Z" /><path d="M 3500,1520 L 3500,1690 L 3500,1695 L 3500,1870 L 3500,1875 L 3500,2040 L 3600,2040 L 3600,1875 L 3600,1870 L 3600,1695 L 3600,1690 L 3600,1520 Z" /><path d="M 1940,1520 L 1940,1690 L 1940,1695 L 1940,1870 L 1940,1875 L 1940,2040 L 2040,2040 L 2040,1875 L 2040,1870 L 2040,1695 L 2040,1690 L 2040,1520 Z" /><path d="M 3760,3830 L 3760,3740 L 3860,3740 L 3860,3830 L 3860,3920 L 3860,4575 L 3860,4675 L 3760,4675 L 3600,4675 L 3600,4720 L 3600,4810 L 3600,5330 L 3600,5420 L 3600,5510 L 3500,5510 L 3500,5420 L 3500,5330 L 3500,4810 L 3500,4720 L 3500,4675 L 3500,4630 L 3500,4575 L 3600,4575 L 3760,4575 L 3760,3920 Z" /><path d="M 3340,5480 L 3340,5510 L 3240,5510 L 3240,5480 L 3240,5330 L 3240,4620 L 3240,4530 L 3240,4440 L 3240,3920 L 3240,3830 L 3240,3740 L 3340,3740 L 3340,3830 L 3340,3920 L 3340,4440 L 3340,4530 L 3340,4620 L 3340,5330 Z" /><path d="M 4280,3740 L 4380,3740 L 4380,3830 L 4380,3920 L 4380,4440 L 4380,4530 L 4380,4575 L 4540,4575 L 4640,4575 L 4640,4675 L 4640,5330 L 4640,5420 L 4640,5510 L 4540,5510 L 4540,5420 L 4540,5330 L 4540,4675 L 4380,4675 L 4280,4675 L 4280,4620 L 4280,4575 L 4280,4530 L 4280,4440 L 4280,3920 L 4280,3830 Z" /><path d="M 8700,3830 L 8700,3740 L 8800,3740 L 8800,3830 L 8800,3920 L 8800,4575 L 8800,4675 L 8700,4675 L 8540,4675 L 8540,4720 L 8540,4810 L 8540,5330 L 8540,5420 L 8540,5510 L 8440,5510 L 8440,5420 L 8440,5330 L 8440,4810 L 8440,4720 L 8440,4675 L 8440,4630 L 8440,4575 L 8540,4575 L 8700,4575 L 8700,3920 Z" /><path d="M 8280,5480 L 8280,5510 L 8180,5510 L 8180,5480 L 8180,5330 L 8180,4620 L 8180,4530 L 8180,4440 L 8180,3920 L 8180,3830 L 8180,3740 L 8280,3740 L 8280,3830 L 8280,3920 L 8280,4440 L 8280,4530 L 8280,4620 L 8280,5330 Z" /><path d="M 9220,3740 L 9320,3740 L 9320,3830 L 9320,3920 L 9320,4440 L 9320,4530 L 9320,4575 L 9480,4575 L 9580,4575 L 9580,4675 L 9580,5330 L 9580,5420 L 9580,5510 L 9480,5510 L 9480,5420 L 9480,5330 L 9480,4675 L 9320,4675 L 9220,4675 L 9220,4620 L 9220,4575 L 9220,4530 L 9220,4440 L 9220,3920 L 9220,3830 Z" /><path d="M 7660,4435 L 7660,4525 L 7660,4615 L 7760,4615 L 7760,4525 L 7760,4435 L 7760,1870 L 7760,1780 L 7760,1690 L 7660,1690 L 7660,1780 L 7660,1870 Z" /><path d="M 10000,4675 L 10100,4675 L 10260,4675 L 10260,5330 L 10260,5420 L 10260,5510 L 10360,5510 L 10360,5420 L 10360,5330 L 10360,4675 L 10360,4575 L 10260,4575 L 10100,4575 L 10100,4435 L 10100,3920 L 10100,3830 L 10100,3740 L 10000,3740 L 10000,3830 L 10000,3920 L 10000,4435 L 10000,4575 L 10000,4615 Z" /><path d="M 4640,4235 L 4640,2570 L 4640,2480 L 4640,2390 L 4640,1870 L 4640,1830 L 4640,1780 L 4640,1690 L 4640,980 L 4640,890 L 4640,800 L 4540,800 L 4540,890 L 4540,980 L 4540,1690 L 4540,1780 L 4540,1830 L 4540,1870 L 4540,2390 L 4540,2480 L 4540,2570 L 4540,4235 L 4540,4360 L 4540,4415 L 4640,4415 L 4640,4360 Z" /><path d="M 9060,3910 L 8960,3910 L 8960,4235 L 8960,4250 L 8960,4415 L 8960,4430 L 9060,4430 L 9060,4415 L 9060,4250 L 9060,4235 Z" /><path d="M 2460,4435 L 2460,4525 L 2460,4615 L 2560,4615 L 2560,4525 L 2560,4435 L 2560,1870 L 2560,1780 L 2560,1690 L 2460,1690 L 2460,1780 L 2460,1870 Z" /><path d="M 5060,4675 L 5160,4675 L 5320,4675 L 5320,5330 L 5320,5420 L 5320,5510 L 5420,5510 L 5420,5420 L 5420,5330 L 5420,4675 L 5420,4575 L 5320,4575 L 5160,4575 L 5160,4435 L 5160,3920 L 5160,3830 L 5160,3740 L 5060,3740 L 5060,3830 L 5060,3920 L 5060,4435 L 5060,4575 L 5060,4615 Z" /><path d="M 8180,1200 L 8180,1310 L 8180,1490 L 8180,1495 L 8180,1675 L 8180,1720 L 8280,1720 L 8280,1675 L 8280,1495 L 8280,1490 L 8280,1310 L 8280,1200 Z" /><path d="M 2980,1200 L 2980,1310 L 2980,1490 L 2980,1495 L 2980,1675 L 2980,1720 L 3080,1720 L 3080,1675 L 3080,1495 L 3080,1490 L 3080,1310 L 3080,1200 Z" /><path d="M 6620,1615 L 6620,1690 L 6620,1870 L 6620,1895 L 6620,2075 L 6620,2135 L 6720,2135 L 6720,2075 L 6720,1895 L 6720,1870 L 6720,1690 L 6720,1615 Z" /><path d="M 1420,1615 L 1420,1690 L 1420,1870 L 1420,1895 L 1420,2075 L 1420,2135 L 1520,2135 L 1520,2075 L 1520,1895 L 1520,1870 L 1520,1690 L 1520,1615 Z" /><path d="M 9740,2390 L 9740,2480 L 9740,2570 L 9740,4235 L 9740,4275 L 9740,4415 L 9840,4415 L 9840,4275 L 9840,4235 L 9840,2570 L 9840,2480 L 9840,2390 L 9840,1870 L 9840,1830 L 9840,1780 L 9840,1690 L 9840,980 L 9840,890 L 9840,800 L 9740,800 L 9740,890 L 9740,980 L 9740,1690 L 9740,1780 L 9740,1830 L 9740,1870 Z" /><path d="M 4120,3910 L 4020,3910 L 4020,4235 L 4020,4250 L 4020,4415 L 4020,4430 L 4120,4430 L 4120,4415 L 4120,4250 L 4120,4235 Z" /><path d="M 8960,4635 L 8960,4815 L 8960,4820 L 8960,5000 L 8960,5155 L 9060,5155 L 9060,5000 L 9060,4820 L 9060,4815 L 9060,4635 Z" /><path d="M 4020,4635 L 4020,4815 L 4020,4820 L 4020,5000 L 4020,5155 L 4120,5155 L 4120,5000 L 4120,4820 L 4120,4815 L 4120,4635 Z" /><path d="M 9740,5015 L 9740,6095 L 9840,6095 L 9840,5015 L 9840,4900 L 9840,4835 L 9740,4835 L 9740,4900 Z" /><path d="M 7920,4835 L 7920,4875 L 7920,5015 L 8020,5015 L 8020,4875 L 8020,4835 L 8020,4430 L 8020,4340 L 8020,4250 L 7920,4250 L 7920,4340 L 7920,4430 Z" /><path d="M 5060,5015 L 5060,6095 L 5160,6095 L 5160,5015 L 5160,4900 L 5160,4835 L 5060,4835 L 5060,4900 Z" /><path d="M 2980,4835 L 2980,4925 L 2980,5015 L 3080,5015 L 3080,4925 L 3080,4835 L 3080,4430 L 3080,4340 L 3080,4250 L 2980,4250 L 2980,4340 L 2980,4430 Z" /></g></g><g id="VIA2"><g class="l52d0"><path d="M 8700,1735 L 8800,1735 L 8800,1835 L 8700,1835 Z" /><path d="M 7140,1735 L 7240,1735 L 7240,1835 L 7140,1835 Z" /><path d="M 3500,1735 L 3600,1735 L 3600,1835 L 3500,1835 Z" /><path d="M 1940,1735 L 2040,1735 L 2040,1835 L 1940,1835 Z" /><path d="M 7660,4475 L 7760,4475 L 7760,4575 L 7660,4575 Z" /><path d="M 10000,4475 L 10100,4475 L 10100,4575 L 10000,4575 Z" /><path d="M 4540,4275 L 4640,4275 L 4640,4375 L 4540,4375 Z" /><path d="M 8960,4275 L 9060,4275 L 9060,4375 L 8960,4375 Z" /><path d="M 2460,4475 L 2560,4475 L 2560,4575 L 2460,4575 Z" /><path d="M 5060,4475 L 5160,4475 L 5160,4575 L 5060,4575 Z" /><path d="M 8180,1535 L 8280,1535 L 8280,1635 L 8180,1635 Z" /><path d="M 2980,1535 L 3080,1535 L 3080,1635 L 2980,1635 Z" /><path d="M 6620,1935 L 6720,1935 L 6720,2035 L 6620,2035 Z" /><path d="M 1420,1935 L 1520,1935 L 1520,2035 L 1420,2035 Z" /><path d="M 9740,4275 L 9840,4275 L 9840,4375 L 9740,4375 Z" /><path d="M 4020,4275 L 4120,4275 L 4120,4375 L 4020,4375 Z" /><path d="M 8960,4675 L 9060,4675 L 9060,4775 L 8960,4775 Z" /><path d="M 4020,4675 L 4120,4675 L 4120,4775 L 4020,4775 Z" /><path d="M 9740,4875 L 9840,4875 L 9840,4975 L 9740,4975 Z" /><path d="M 7920,4875 L 8020,4875 L 8020,4975 L 7920,4975 Z" /><path d="M 5060,4875 L 5160,4875 L 5160,4975 L 5060,4975 Z" /><path d="M 2980,4875 L 3080,4875 L 3080,4975 L 2980,4975 Z" /></g></g><g id="M3"><g class="l33d0"><path d="M 2080,1835 L 3460,1835 L 3550,1835 L 3640,1835 L 7100,1835 L 7140,1835 L 7190,1835 L 7240,1835 L 7280,1835 L 8660,1835 L 8750,1835 L 8840,1835 L 10700,1835 L 10700,1735 L 8840,1735 L 8750,1735 L 8660,1735 L 7280,1735 L 7240,1735 L 7190,1735 L 7140,1735 L 7100,1735 L 3640,1735 L 3550,1735 L 3460,1735 L 2080,1735 L 2040,1735 L 1990,1735 L 1940,1735 L 1900,1735 L 300,1735 L 300,1835 L 1900,1835 L 1940,1835 L 1990,1835 L 2040,1835 Z" /><path d="M 9960,4575 L 10050,4575 L 10140,4575 L 10140,4475 L 10050,4475 L 9960,4475 L 7800,4475 L 7675,4475 L 7620,4475 L 7620,4575 L 7675,4575 L 7800,4575 Z" /><path d="M 8920,4275 L 4680,4275 L 4590,4275 L 4500,4275 L 4500,4375 L 4590,4375 L 4680,4375 L 8920,4375 L 9010,4375 L 9100,4375 L 9100,4275 L 9010,4275 Z" /><path d="M 5020,4575 L 5110,4575 L 5200,4575 L 5200,4475 L 5110,4475 L 5020,4475 L 2600,4475 L 2465,4475 L 2420,4475 L 2420,4575 L 2465,4575 L 2600,4575 Z" /><path d="M 2940,1635 L 3030,1635 L 3120,1635 L 8140,1635 L 8230,1635 L 8320,1635 L 10700,1635 L 10700,1535 L 8320,1535 L 8230,1535 L 8140,1535 L 3120,1535 L 3030,1535 L 2940,1535 L 300,1535 L 300,1635 Z" /><path d="M 1380,2035 L 1470,2035 L 1560,2035 L 6580,2035 L 6670,2035 L 6760,2035 L 10700,2035 L 10700,1935 L 6760,1935 L 6670,1935 L 6580,1935 L 1560,1935 L 1470,1935 L 1380,1935 L 300,1935 L 300,2035 Z" /><path d="M 9880,4375 L 10700,4375 L 10700,4275 L 9880,4275 L 9790,4275 L 9700,4275 L 9700,4375 L 9790,4375 Z" /><path d="M 3980,4275 L 300,4275 L 300,4375 L 3980,4375 L 4070,4375 L 4160,4375 L 4160,4275 L 4070,4275 Z" /><path d="M 3980,4775 L 4070,4775 L 4160,4775 L 8920,4775 L 9010,4775 L 9100,4775 L 10700,4775 L 10700,4675 L 9100,4675 L 9010,4675 L 8920,4675 L 4160,4675 L 4070,4675 L 3980,4675 L 300,4675 L 300,4775 Z" /><path d="M 8060,4975 L 9700,4975 L 9790,4975 L 9880,4975 L 9880,4875 L 9790,4875 L 9700,4875 L 8060,4875 L 7955,4875 L 7880,4875 L 7880,4975 L 7955,4975 Z" /><path d="M 3120,4975 L 5020,4975 L 5110,4975 L 5200,4975 L 5200,4875 L 5110,4875 L 5020,4875 L 3120,4875 L 3030,4875 L 2940,4875 L 2940,4975 L 3030,4975 Z" /></g></g></g></svg>