<svg width="2950" height="3550" viewBox="-5 -3545 2950 3550" xmlns="http://www.w3.org/2000/svg" xmlns:xlink="http://www.w3.org/1999/xlink"><defs><style type="text/css">.l3d0 {fill: #fef9e7; fill-opacity: 0.5; stroke-width: 10; stroke: #f1c40f; stroke-linecap: round; stroke-linejoin: round; stroke-opacity: 0.2;}.l25d0 {fill: #8e44ad; fill-opacity: 0.05; stroke-width: 10; stroke: #8e44ad; stroke-linecap: round; stroke-linejoin: round; stroke-opacity: 1;}.l26d0 {fill: #ccd1d1; fill-opacity: 0.05; stroke-width: 10; stroke: #ccd1d1; stroke-linecap: round; stroke-linejoin: round; stroke-opacity: 1;}.l6d0 {fill: #f5b7b1; fill-opacity: 1; stroke-width: 10; stroke: #e74c3c; stroke-linecap: round; stroke-linejoin: round; stroke-opacity: 1;}.l17d0 {fill: #2980b9; fill-opacity: 1; stroke-width: 0; stroke: #000000; stroke-linecap: round; stroke-linejoin: round; stroke-opacity: 0;}.l30d0 {fill: #27ae60; fill-opacity: 1; stroke-width: 0; stroke: #000000; stroke-linecap: round; stroke-linejoin: round; stroke-opacity: 0;}.l31d0 {fill: #85c1e9; fill-opacity: 0.6; stroke-width: 0; stroke: #000000; stroke-linecap: round; stroke-linejoin: round; stroke-opacity: 0;}.l51d0 {fill: #f39c12; fill-opacity: 1; stroke-width: 10; stroke: #f39c12; stroke-linecap: round; stroke-linejoin: round; stroke-opacity: 1;}.l32d0 {fill: #f7dc6f; fill-opacity: 0.6; stroke-width: 0; stroke: #000000; stroke-linecap: round; stroke-linejoin: round; stroke-opacity: 0;}.l52d0 {fill: #a04000; fill-opacity: 1; stroke-width: 10; stroke: #a04000; stroke-linecap: round; stroke-linejoin: round; stroke-opacity: 1;}.l33d0 {fill: #16a085; fill-opacity: 0.6; stroke-width: 0; stroke: #000000; stroke-linecap: round; stroke-linejoin: round; stroke-opacity: 0;}path {fill-rule: evenodd;}</style></defs><g transform="scale(1 -1)"><g id="NW"><g class="l3d0"><path d="M 0,1900 L 0,3540 L 2940,3540 L 2940,1900 L 2705,1900 L 1665,1900 L 1275,1900 L 235,1900 Z" /></g></g><g id="PP"><g class="l25d0"><path d="M 170,0 L 2770,0 L 2770,430 L 170,430 Z" /><path d="M 2770,2940 L 2770,1685 L 170,1685 L 170,2940 L 325,2940 L 1365,2940 L 1575,2940 L 2615,2940 Z" /></g></g><g id="NP"><g class="l26d0"><path d="M 170,2940 L 2770,2940 L 2770,3370 L 170,3370 Z" /><path d="M 170,430 L 170,1685 L 2770,1685 L 2770,430 L 2615,430 L 1575,430 L 1365,430 L 325,430 Z" /></g></g><g id="OD"><g class="l6d0"><path d="M 300,130 L 2640,130 L 2640,300 L 300,300 Z" /><path d="M 300,3070 L 2640,3070 L 2640,3240 L 300,3240 Z" /><path d="M 370,2600 L 455,2600 L 530,2600 L 590,2600 L 1370,2600 L 1445,2600 L 1495,2600 L 1570,2600 L 1630,2600 L 2410,2600 L 2485,2600 L 2570,2600 L 2570,2120 L 2485,2120 L 2410,2120 L 1630,2120 L 1570,2120 L 1495,2120 L 1445,2120 L 1370,2120 L 590,2120 L 530,2120 L 455,2120 L 370,2120 Z" /><path d="M 2570,770 L 2485,770 L 2410,770 L 1630,770 L 1570,770 L 1495,770 L 1445,770 L 1370,770 L 590,770 L 530,770 L 455,770 L 370,770 L 370,1250 L 455,1250 L 530,1250 L 590,1250 L 1370,1250 L 1445,1250 L 1495,1250 L 1570,1250 L 1630,1250 L 2410,1250 L 2485,1250 L 2570,1250 Z" /></g></g><g id="PO"><g class="l17d0"><path d="M 2410,1390 L 2410,1250 L 2410,770 L 2410,630 L 2350,630 L 2350,770 L 2350,1250 L 2350,1390 L 2350,1695 L 2325,1695 L 2325,1865 L 2350,1865 L 2350,1980 L 2350,2120 L 2350,2600 L 2350,2740 L 2410,2740 L 2410,2600 L 2410,2120 L 2410,1980 L 2409,1980 L 2409,1865 L 2435,1865 L 2435,1695 L 2409,1695 L 2409,1390 Z" /><path d="M 2150,1250 L 2150,770 L 2150,630 L 2090,630 L 2090,770 L 2090,1250 L 2090,1390 L 2090,1695 L 2065,1695 L 2065,1865 L 2090,1865 L 2090,1980 L 2090,2120 L 2090,2600 L 2090,2740 L 2150,2740 L 2150,2600 L 2150,2120 L 2150,1980 L 2150,1865 L 2175,1865 L 2175,1695 L 2150,1695 L 2150,1390 Z" /><path d="M 1890,1250 L 1890,770 L 1890,630 L 1830,630 L 1830,770 L 1830,1250 L 1830,1390 L 1830,1695 L 1805,1695 L 1805,1865 L 1830,1865 L 1830,1980 L 1830,2120 L 1830,2600 L 1830,2740 L 1890,2740 L 1890,2600 L 1890,2120 L 1890,1980 L 1890,1865 L 1915,1865 L 1915,1695 L 1890,1695 L 1890,1390 Z" /><path d="M 1570,2120 L 1570,2600 L 1570,2740 L 1630,2740 L 1630,2600 L 1630,2120 L 1630,1980 L 1630,1865 L 1655,1865 L 1655,1695 L 1630,1695 L 1630,1390 L 1630,1250 L 1630,770 L 1630,630 L 1570,630 L 1570,770 L 1570,1250 L 1570,1390 L 1570,1695 L 1545,1695 L 1545,1865 L 1570,1865 L 1570,1980 Z" /><path d="M 1370,1250 L 1370,770 L 1370,630 L 1310,630 L 1310,770 L 1310,1250 L 1310,1390 L 1310,1505 L 1285,1505 L 1285,1675 L 1310,1675 L 1310,1980 L 1310,2120 L 1310,2600 L 1310,2740 L 1370,2740 L 1370,2600 L 1370,2120 L 1370,1980 L 1370,1675 L 1395,1675 L 1395,1505 L 1370,1505 L 1370,1390 Z" /><path d="M 1110,1250 L 1110,770 L 1110,630 L 1050,630 L 1050,770 L 1050,1250 L 1050,1390 L 1050,1505 L 1025,1505 L 1025,1675 L 1050,1675 L 1050,1980 L 1050,2120 L 1050,2600 L 1050,2740 L 1110,2740 L 1110,2600 L 1110,2120 L 1110,1980 L 1110,1675 L 1135,1675 L 1135,1505 L 1110,1505 L 1110,1390 Z" /><path d="M 850,1250 L 850,770 L 850,630 L 790,630 L 790,770 L 790,1250 L 790,1390 L 790,1505 L 765,1505 L 765,1675 L 790,1675 L 790,1980 L 790,2120 L 790,2600 L 790,2740 L 850,2740 L 850,2600 L 850,2120 L 850,1980 L 850,1675 L 875,1675 L 875,1505 L 850,1505 L 850,1390 Z" /><path d="M 530,2120 L 530,2600 L 530,2740 L 590,2740 L 590,2600 L 590,2120 L 590,1980 L 590,1675 L 615,1675 L 615,1505 L 590,1505 L 590,1390 L 590,1250 L 590,770 L 590,630 L 530,630 L 530,770 L 530,1250 L 530,1390 L 530,1505 L 505,1505 L 505,1675 L 530,1675 L 530,1980 Z" /></g></g><g id="CO"><g class="l30d0"><path d="M 1425,2150 L 1515,2150 L 1515,2240 L 1425,2240 Z" /><path d="M 1425,2480 L 1515,2480 L 1515,2570 L 1425,2570 Z" /><path d="M 1425,800 L 1515,800 L 1515,890 L 1425,890 Z" /><path d="M 1425,1130 L 1515,1130 L 1515,1220 L 1425,1220 Z" /><path d="M 2465,1130 L 2555,1130 L 2555,1220 L 2465,1220 Z" /><path d="M 2465,800 L 2555,800 L 2555,890 L 2465,890 Z" /><path d="M 385,1130 L 475,1130 L 475,1220 L 385,1220 Z" /><path d="M 385,800 L 475,800 L 475,890 L 385,890 Z" /><path d="M 385,2480 L 475,2480 L 475,2570 L 385,2570 Z" /><path d="M 385,2150 L 475,2150 L 475,2240 L 385,2240 Z" /><path d="M 2465,2150 L 2555,2150 L 2555,2240 L 2465,2240 Z" /><path d="M 2465,2480 L 2555,2480 L 2555,2570 L 2465,2570 Z" /><path d="M 2465,170 L 2555,170 L 2555,260 L 2465,260 Z" /><path d="M 2205,170 L 2295,170 L 2295,260 L 2205,260 Z" /><path d="M 1945,170 L 2035,170 L 2035,260 L 1945,260 Z" /><path d="M 1685,170 L 1775,170 L 1775,260 L 1685,260 Z" /><path d="M 1425,170 L 1515,170 L 1515,260 L 1425,260 Z" /><path d="M 1165,170 L 1255,170 L 1255,260 L 1165,260 Z" /><path d="M 905,170 L 995,170 L 995,260 L 905,260 Z" /><path d="M 385,170 L 475,170 L 475,260 L 385,260 Z" /><path d="M 645,170 L 735,170 L 735,260 L 645,260 Z" /><path d="M 2465,3110 L 2555,3110 L 2555,3200 L 2465,3200 Z" /><path d="M 2205,3110 L 2295,3110 L 2295,3200 L 2205,3200 Z" /><path d="M 1945,3110 L 2035,3110 L 2035,3200 L 1945,3200 Z" /><path d="M 1685,3110 L 1775,3110 L 1775,3200 L 1685,3200 Z" /><path d="M 1425,3110 L 1515,3110 L 1515,3200 L 1425,3200 Z" /><path d="M 1165,3110 L 1255,3110 L 1255,3200 L 1165,3200 Z" /><path d="M 905,3110 L 995,3110 L 995,3200 L 905,3200 Z" /><path d="M 645,3110 L 735,3110 L 735,3200 L 645,3200 Z" /><path d="M 385,3110 L 475,3110 L 475,3200 L 385,3200 Z" /><path d="M 645,2480 L 735,2480 L 735,2570 L 645,2570 Z" /><path d="M 645,2150 L 735,2150 L 735,2240 L 645,2240 Z" /><path d="M 905,2480 L 995,2480 L 995,2570 L 905,2570 Z" /><path d="M 905,2150 L 995,2150 L 995,2240 L 905,2240 Z" /><path d="M 1165,2480 L 1255,2480 L 1255,2570 L 1165,2570 Z" /><path d="M 1165,2150 L 1255,2150 L 1255,2240 L 1165,2240 Z" /><path d="M 1685,2480 L 1775,2480 L 1775,2570 L 1685,2570 Z" /><path d="M 1685,2150 L 1775,2150 L 1775,2240 L 1685,2240 Z" /><path d="M 1945,2480 L 2035,2480 L 2035,2570 L 1945,2570 Z" /><path d="M 1945,2150 L 2035,2150 L 2035,2240 L 1945,2240 Z" /><path d="M 2205,2480 L 2295,2480 L 2295,2570 L 2205,2570 Z" /><path d="M 2205,2150 L 2295,2150 L 2295,2240 L 2205,2240 Z" /><path d="M 1685,1130 L 1775,1130 L 1775,1220 L 1685,1220 Z" /><path d="M 1685,800 L 1775,800 L 1775,890 L 1685,890 Z" /><path d="M 1945,1130 L 2035,1130 L 2035,1220 L 1945,1220 Z" /><path d="M 1945,800 L 2035,800 L 2035,890 L 1945,890 Z" /><path d="M 2205,1130 L 2295,1130 L 2295,1220 L 2205,1220 Z" /><path d="M 2205,800 L 2295,800 L 2295,890 L 2205,890 Z" /><path d="M 645,1130 L 735,1130 L 735,1220 L 645,1220 Z" /><path d="M 645,800 L 735,800 L 735,890 L 645,890 Z" /><path d="M 905,1130 L 995,1130 L 995,1220 L 905,1220 Z" /><path d="M 905,800 L 995,800 L 995,890 L 905,890 Z" /><path d="M 1165,1130 L 1255,1130 L 1255,1220 L 1165,1220 Z" /><path d="M 1165,800 L 1255,800 L 1255,890 L 1165,890 Z" /><path d="M 2335,1735 L 2425,1735 L 2425,1825 L 2335,1825 Z" /><path d="M 2075,1735 L 2165,1735 L 2165,1825 L 2075,1825 Z" /><path d="M 1815,1735 L 1905,1735 L 1905,1825 L 1815,1825 Z" /><path d="M 1555,1735 L 1645,1735 L 1645,1825 L 1555,1825 Z" /><path d="M 1295,1545 L 1385,1545 L 1385,1635 L 1295,1635 Z" /><path d="M 1035,1545 L 1125,1545 L 1125,1635 L 1035,1635 Z" /><path d="M 775,1545 L 865,1545 L 865,1635 L 775,1635 Z" /><path d="M 515,1545 L 605,1545 L 605,1635 L 515,1635 Z" /></g></g><g id="M1"><g class="l31d0"><path d="M 2460,2245 L 2460,3060 L 2040,3060 L 2040,2610 L 2040,2475 L 2040,2245 L 2040,2110 L 2035,2110 L 1945,2110 L 1940,2110 L 1940,2245 L 1940,2475 L 1940,2610 L 1940,3060 L 1520,3060 L 1520,2245 L 1520,2110 L 1420,2110 L 1420,2245 L 1420,3060 L 1000,3060 L 1000,2610 L 1000,2475 L 1000,2245 L 1000,2110 L 995,2110 L 905,2110 L 900,2110 L 900,2245 L 900,2475 L 900,2610 L 900,3060 L 480,3060 L 480,2245 L 480,2110 L 380,2110 L 380,2245 L 380,3060 L 290,3060 L 290,3250 L 2650,3250 L 2650,3060 L 2560,3060 L 2560,2245 L 2560,2110 L 2460,2110 Z" /><path d="M 900,1260 L 905,1260 L 995,1260 L 1000,1260 L 1000,1125 L 1000,895 L 1000,760 L 1000,310 L 1420,310 L 1420,1125 L 1420,1260 L 1520,1260 L 1520,1125 L 1520,310 L 1940,310 L 1940,760 L 1940,895 L 1940,1125 L 1940,1260 L 1945,1260 L 2035,1260 L 2040,1260 L 2040,1125 L 2040,895 L 2040,760 L 2040,310 L 2460,310 L 2460,1125 L 2460,1260 L 2560,1260 L 2560,1125 L 2560,310 L 2650,310 L 2650,120 L 290,120 L 290,310 L 380,310 L 380,1125 L 380,1260 L 480,1260 L 480,1125 L 480,310 L 900,310 L 900,760 L 900,895 L 900,1125 Z" /><path d="M 735,2110 L 645,2110 L 640,2110 L 640,2245 L 640,2270 L 640,2450 L 640,2475 L 640,2610 L 645,2610 L 735,2610 L 740,2610 L 740,2475 L 740,2450 L 740,2270 L 740,2245 L 740,2110 Z" /><path d="M 1255,2110 L 1165,2110 L 1160,2110 L 1160,2245 L 1160,2270 L 1160,2450 L 1160,2475 L 1160,2610 L 1165,2610 L 1255,2610 L 1260,2610 L 1260,2475 L 1260,2450 L 1260,2270 L 1260,2245 L 1260,2110 Z" /><path d="M 1775,2110 L 1685,2110 L 1680,2110 L 1680,2245 L 1680,2270 L 1680,2450 L 1680,2475 L 1680,2610 L 1685,2610 L 1775,2610 L 1780,2610 L 1780,2475 L 1780,2450 L 1780,2270 L 1780,2245 L 1780,2110 Z" /><path d="M 2295,2110 L 2205,2110 L 2200,2110 L 2200,2245 L 2200,2270 L 2200,2450 L 2200,2475 L 2200,2610 L 2205,2610 L 2295,2610 L 2300,2610 L 2300,2475 L 2300,2450 L 2300,2270 L 2300,2245 L 2300,2110 Z" /><path d="M 2295,760 L 2205,760 L 2200,760 L 2200,895 L 2200,920 L 2200,1100 L 2200,1125 L 2200,1260 L 2205,1260 L 2295,1260 L 2300,1260 L 2300,1125 L 2300,1100 L 2300,920 L 2300,895 L 2300,760 Z" /><path d="M 1775,760 L 1685,760 L 1680,760 L 1680,895 L 1680,920 L 1680,1100 L 1680,1125 L 1680,1260 L 1685,1260 L 1775,1260 L 1780,1260 L 1780,1125 L 1780,1100 L 1780,920 L 1780,895 L 1780,760 Z" /><path d="M 1255,760 L 1165,760 L 1160,760 L 1160,895 L 1160,920 L 1160,1100 L 1160,1125 L 1160,1260 L 1165,1260 L 1255,1260 L 1260,1260 L 1260,1125 L 1260,1100 L 1260,920 L 1260,895 L 1260,760 Z" /><path d="M 735,760 L 645,760 L 640,760 L 640,895 L 640,920 L 640,1100 L 640,1125 L 640,1260 L 645,1260 L 735,1260 L 740,1260 L 740,1125 L 740,1100 L 740,920 L 740,895 L 740,760 Z" /><path d="M 995,1540 L 905,1540 L 820,1540 L 735,1540 L 645,1540 L 560,1540 L 475,1540 L 475,1640 L 560,1640 L 645,1640 L 735,1640 L 820,1640 L 905,1640 L 995,1640 L 1080,1640 L 1165,1640 L 1255,1640 L 1340,1640 L 1425,1640 L 1425,1540 L 1340,1540 L 1255,1540 L 1165,1540 L 1080,1540 Z" /><path d="M 1860,1730 L 1775,1730 L 1685,1730 L 1600,1730 L 1515,1730 L 1300,1730 L 1210,1730 L 1120,1730 L 780,1730 L 690,1730 L 600,1730 L 600,1830 L 690,1830 L 780,1830 L 1120,1830 L 1210,1830 L 1300,1830 L 1515,1830 L 1600,1830 L 1685,1830 L 1775,1830 L 1860,1830 L 1945,1830 L 2035,1830 L 2120,1830 L 2205,1830 L 2295,1830 L 2380,1830 L 2465,1830 L 2465,1730 L 2380,1730 L 2295,1730 L 2205,1730 L 2120,1730 L 2035,1730 L 1945,1730 Z" /></g></g><g id="VIA1"><g class="l51d0"><path d="M 640,2310 L 740,2310 L 740,2410 L 640,2410 Z" /><path d="M 1160,2310 L 1260,2310 L 1260,2410 L 1160,2410 Z" /><path d="M 1680,2310 L 1780,2310 L 1780,2410 L 1680,2410 Z" /><path d="M 2200,2310 L 2300,2310 L 2300,2410 L 2200,2410 Z" /><path d="M 2200,960 L 2300,960 L 2300,1060 L 2200,1060 Z" /><path d="M 1680,960 L 1780,960 L 1780,1060 L 1680,1060 Z" /><path d="M 1160,960 L 1260,960 L 1260,1060 L 1160,1060 Z" /><path d="M 640,960 L 740,960 L 740,1060 L 640,1060 Z" /><path d="M 640,1730 L 740,1730 L 740,1830 L 640,1830 Z" /><path d="M 1160,1730 L 1260,1730 L 1260,1830 L 1160,1830 Z" /></g></g><g id="M2"><g class="l32d0"><path d="M 1260,1695 L 1260,1690 L 1260,1100 L 1260,1010 L 1260,920 L 1160,920 L 1160,1010 L 1160,1100 L 1160,1690 L 1160,1695 L 1160,1780 L 1160,1870 L 1160,1875 L 1160,2270 L 1160,2360 L 1160,2450 L 1260,2450 L 1260,2360 L 1260,2270 L 1260,1875 L 1260,1870 L 1260,1780 Z" /><path d="M 640,2360 L 640,2450 L 740,2450 L 740,2360 L 740,2270 L 740,1875 L 740,1870 L 740,1780 L 740,1695 L 740,1690 L 740,1100 L 740,1010 L 740,920 L 640,920 L 640,1010 L 640,1100 L 640,1690 L 640,1695 L 640,1780 L 640,1870 L 640,1875 L 640,2270 Z" /><path d="M 2300,1495 L 2300,1100 L 2300,1010 L 2300,920 L 2200,920 L 2200,1010 L 2200,1100 L 2200,1495 L 2200,1585 L 2200,1675 L 2200,2270 L 2200,2360 L 2200,2450 L 2300,2450 L 2300,2360 L 2300,2270 L 2300,1675 L 2300,1585 Z" /><path d="M 1680,1495 L 1680,1675 L 1680,2270 L 1680,2360 L 1680,2450 L 1780,2450 L 1780,2360 L 1780,2270 L 1780,1675 L 1780,1495 L 1780,1100 L 1780,1010 L 1780,920 L 1680,920 L 1680,1010 L 1680,1100 Z" /></g></g><g id="VIA2"><g class="l52d0"><path d="M 1160,1735 L 1260,1735 L 1260,1835 L 1160,1835 Z" /><path d="M 640,1735 L 740,1735 L 740,1835 L 640,1835 Z" /><path d="M 2200,1535 L 2300,1535 L 2300,1635 L 2200,1635 Z" /><path d="M 1680,1535 L 1780,1535 L 1780,1635 L 1680,1635 Z" /></g></g><g id="M3"><g class="l33d0"><path d="M 1300,1735 L 1210,1735 L 1120,1735 L 780,1735 L 690,1735 L 600,1735 L 600,1835 L 690,1835 L 780,1835 L 1120,1835 L 1210,1835 L 1300,1835 L 2340,1835 L 2340,1735 Z" /><path d="M 1820,1635 L 2160,1635 L 2250,1635 L 2340,1635 L 2340,1535 L 2250,1535 L 2160,1535 L 1820,1535 L 1730,1535 L 1640,1535 L 1640,1635 L 1730,1635 Z" /></g></g></g></svg>