<svg width="3990" height="3550" viewBox="-5 -3545 3990 3550" xmlns="http://www.w3.org/2000/svg" xmlns:xlink="http://www.w3.org/1999/xlink"><defs><style type="text/css">.l3d0 {fill: #fef9e7; fill-opacity: 0.5; stroke-width: 10; stroke: #f1c40f; stroke-linecap: round; stroke-linejoin: round; stroke-opacity: 0.2;}.l25d0 {fill: #8e44ad; fill-opacity: 0.05; stroke-width: 10; stroke: #8e44ad; stroke-linecap: round; stroke-linejoin: round; stroke-opacity: 1;}.l26d0 {fill: #ccd1d1; fill-opacity: 0.05; stroke-width: 10; stroke: #ccd1d1; stroke-linecap: round; stroke-linejoin: round; stroke-opacity: 1;}.l6d0 {fill: #f5b7b1; fill-opacity: 1; stroke-width: 10; stroke: #e74c3c; stroke-linecap: round; stroke-linejoin: round; stroke-opacity: 1;}.l17d0 {fill: #2980b9; fill-opacity: 1; stroke-width: 0; stroke: #000000; stroke-linecap: round; stroke-linejoin: round; stroke-opacity: 0;}.l30d0 {fill: #27ae60; fill-opacity: 1; stroke-width: 0; stroke: #000000; stroke-linecap: round; stroke-linejoin: round; stroke-opacity: 0;}.l31d0 {fill: #85c1e9; fill-opacity: 0.6; stroke-width: 0; stroke: #000000; stroke-linecap: round; stroke-linejoin: round; stroke-opacity: 0;}.l51d0 {fill: #f39c12; fill-opacity: 1; stroke-width: 10; stroke: #f39c12; stroke-linecap: round; stroke-linejoin: round; stroke-opacity: 1;}.l32d0 {fill: #f7dc6f; fill-opacity: 0.6; stroke-width: 0; stroke: #000000; stroke-linecap: round; stroke-linejoin: round; stroke-opacity: 0;}path {fill-rule: evenodd;}</style></defs><g transform="scale(1 -1)"><g id="NW"><g class="l3d0"><path d="M 0,3540 L 3980,3540 L 3980,1900 L 0,1900 Z" /></g></g><g id="PP"><g class="l25d0"><path d="M 170,0 L 3810,0 L 3810,430 L 170,430 Z" /><path d="M 170,1685 L 170,2940 L 325,2940 L 585,2940 L 795,2940 L 1055,2940 L 1105,2940 L 1365,2940 L 1575,2940 L 1625,2940 L 1835,2940 L 1885,2940 L 2095,2940 L 2355,2940 L 2405,2940 L 2665,2940 L 2875,2940 L 2925,2940 L 3135,2940 L 3185,2940 L 3395,2940 L 3655,2940 L 3810,2940 L 3810,1685 Z" /></g></g><g id="NP"><g class="l26d0"><path d="M 170,2940 L 3810,2940 L 3810,3370 L 170,3370 Z" /><path d="M 3810,1685 L 3810,430 L 3655,430 L 3395,430 L 3185,430 L 3135,430 L 2925,430 L 2875,430 L 2665,430 L 2405,430 L 2355,430 L 2095,430 L 1885,430 L 1835,430 L 1625,430 L 1575,430 L 1365,430 L 1105,430 L 1055,430 L 795,430 L 585,430 L 325,430 L 170,430 L 170,1685 Z" /></g></g><g id="OD"><g class="l6d0"><path d="M 300,130 L 3680,130 L 3680,300 L 300,300 Z" /><path d="M 300,3070 L 3680,3070 L 3680,3240 L 300,3240 Z" /><path d="M 1025,770 L 925,770 L 850,770 L 790,770 L 715,770 L 665,770 L 590,770 L 530,770 L 455,770 L 355,770 L 355,890 L 455,890 L 530,890 L 590,890 L 665,890 L 715,890 L 790,890 L 850,890 L 925,890 L 1025,890 Z" /><path d="M 3090,2600 L 3130,2600 L 3190,2600 L 3265,2600 L 3315,2600 L 3390,2600 L 3450,2600 L 3525,2600 L 3610,2600 L 3610,2360 L 3525,2360 L 3450,2360 L 3390,2360 L 3315,2360 L 3265,2360 L 3190,2360 L 3130,2360 L 3090,2360 L 3055,2360 L 3005,2360 L 2970,2360 L 2930,2360 L 2870,2360 L 2795,2360 L 2745,2360 L 2670,2360 L 2610,2360 L 2535,2360 L 2450,2360 L 2450,2600 L 2535,2600 L 2610,2600 L 2670,2600 L 2745,2600 L 2795,2600 L 2870,2600 L 2930,2600 L 2970,2600 L 3005,2600 L 3055,2600 Z" /><path d="M 1790,2600 L 1830,2600 L 1890,2600 L 1965,2600 L 2015,2600 L 2090,2600 L 2150,2600 L 2225,2600 L 2310,2600 L 2310,2360 L 2225,2360 L 2150,2360 L 2090,2360 L 2015,2360 L 1965,2360 L 1890,2360 L 1830,2360 L 1790,2360 L 1755,2360 L 1705,2360 L 1670,2360 L 1630,2360 L 1570,2360 L 1495,2360 L 1445,2360 L 1370,2360 L 1310,2360 L 1235,2360 L 1150,2360 L 1150,2600 L 1235,2600 L 1310,2600 L 1370,2600 L 1445,2600 L 1495,2600 L 1570,2600 L 1630,2600 L 1670,2600 L 1705,2600 L 1755,2600 Z" /><path d="M 715,2600 L 790,2600 L 850,2600 L 925,2600 L 1010,2600 L 1010,2360 L 925,2360 L 850,2360 L 790,2360 L 715,2360 L 665,2360 L 590,2360 L 530,2360 L 455,2360 L 370,2360 L 370,2600 L 455,2600 L 530,2600 L 590,2600 L 665,2600 Z" /><path d="M 3090,1010 L 3130,1010 L 3190,1010 L 3265,1010 L 3315,1010 L 3390,1010 L 3450,1010 L 3525,1010 L 3610,1010 L 3610,770 L 3525,770 L 3450,770 L 3390,770 L 3315,770 L 3265,770 L 3190,770 L 3130,770 L 3090,770 L 3055,770 L 3005,770 L 2970,770 L 2930,770 L 2870,770 L 2795,770 L 2745,770 L 2670,770 L 2610,770 L 2535,770 L 2450,770 L 2450,1010 L 2535,1010 L 2610,1010 L 2670,1010 L 2745,1010 L 2795,1010 L 2870,1010 L 2930,1010 L 2970,1010 L 3005,1010 L 3055,1010 Z" /><path d="M 1790,1010 L 1830,1010 L 1890,1010 L 1965,1010 L 2015,1010 L 2090,1010 L 2150,1010 L 2225,1010 L 2310,1010 L 2310,770 L 2225,770 L 2150,770 L 2090,770 L 2015,770 L 1965,770 L 1890,770 L 1830,770 L 1790,770 L 1755,770 L 1705,770 L 1670,770 L 1630,770 L 1570,770 L 1495,770 L 1445,770 L 1370,770 L 1310,770 L 1235,770 L 1150,770 L 1150,1010 L 1235,1010 L 1310,1010 L 1370,1010 L 1445,1010 L 1495,1010 L 1570,1010 L 1630,1010 L 1670,1010 L 1705,1010 L 1755,1010 Z" /></g></g><g id="PO"><g class="l17d0"><path d="M 1890,1010 L 1890,770 L 1890,630 L 1830,630 L 1830,770 L 1830,1010 L 1830,1150 L 1830,1885 L 1805,1885 L 1805,2055 L 1830,2055 L 1830,2220 L 1830,2360 L 1830,2600 L 1830,2740 L 1890,2740 L 1890,2600 L 1890,2360 L 1890,2220 L 1890,2055 L 1915,2055 L 1915,1885 L 1890,1885 L 1890,1150 Z" /><path d="M 1630,1010 L 1630,770 L 1630,630 L 1570,630 L 1570,770 L 1570,1010 L 1570,1150 L 1570,1885 L 1545,1885 L 1545,2055 L 1570,2055 L 1570,2220 L 1570,2360 L 1570,2600 L 1570,2740 L 1630,2740 L 1630,2600 L 1630,2360 L 1630,2220 L 1630,2055 L 1655,2055 L 1655,1885 L 1630,1885 L 1630,1150 Z" /><path d="M 2670,1010 L 2670,770 L 2670,630 L 2610,630 L 2610,770 L 2610,1010 L 2610,1150 L 2610,1315 L 2585,1315 L 2585,1485 L 2610,1485 L 2610,2220 L 2610,2360 L 2610,2600 L 2610,2740 L 2670,2740 L 2670,2600 L 2670,2360 L 2670,2220 L 2670,1485 L 2695,1485 L 2695,1315 L 2670,1315 L 2670,1150 Z" /><path d="M 1370,1010 L 1370,770 L 1370,630 L 1310,630 L 1310,770 L 1310,1010 L 1310,1150 L 1310,1315 L 1285,1315 L 1285,1485 L 1310,1485 L 1310,2220 L 1310,2360 L 1310,2600 L 1310,2740 L 1370,2740 L 1370,2600 L 1370,2360 L 1370,2220 L 1370,1485 L 1395,1485 L 1395,1315 L 1370,1315 L 1370,1150 Z" /><path d="M 3190,1010 L 3190,770 L 3190,630 L 3130,630 L 3130,770 L 3130,1010 L 3130,1150 L 3130,1505 L 3105,1505 L 3105,1675 L 3130,1675 L 3130,2220 L 3130,2360 L 3130,2600 L 3130,2740 L 3190,2740 L 3190,2600 L 3190,2360 L 3190,2220 L 3190,1675 L 3215,1675 L 3215,1505 L 3190,1505 L 3190,1150 Z" /><path d="M 2930,1150 L 2930,1010 L 2930,770 L 2930,630 L 2870,630 L 2870,770 L 2870,1010 L 2870,1150 L 2870,1505 L 2845,1505 L 2845,1675 L 2870,1675 L 2870,2220 L 2870,2360 L 2870,2600 L 2870,2740 L 2930,2740 L 2930,2600 L 2930,2360 L 2930,2220 L 2929,2220 L 2929,1675 L 2955,1675 L 2955,1505 L 2929,1505 L 2929,1150 Z" /><path d="M 3450,1150 L 3450,1010 L 3450,770 L 3450,630 L 3390,630 L 3390,770 L 3390,1010 L 3390,1150 L 3390,1695 L 3365,1695 L 3365,1865 L 3390,1865 L 3390,2220 L 3390,2360 L 3390,2600 L 3390,2740 L 3450,2740 L 3450,2600 L 3450,2360 L 3450,2220 L 3449,2220 L 3449,1865 L 3475,1865 L 3475,1695 L 3449,1695 L 3449,1150 Z" /><path d="M 2150,1010 L 2150,770 L 2150,630 L 2090,630 L 2090,770 L 2090,1010 L 2090,1150 L 2090,1695 L 2065,1695 L 2065,1865 L 2090,1865 L 2090,2220 L 2090,2360 L 2090,2600 L 2090,2740 L 2150,2740 L 2150,2600 L 2150,2360 L 2150,2220 L 2150,1865 L 2175,1865 L 2175,1695 L 2150,1695 L 2150,1150 Z" /><path d="M 850,890 L 850,770 L 850,630 L 790,630 L 790,770 L 790,890 L 790,1030 L 790,1505 L 765,1505 L 765,1675 L 790,1675 L 790,2220 L 790,2360 L 790,2600 L 790,2740 L 850,2740 L 850,2600 L 850,2360 L 850,2220 L 850,1675 L 875,1675 L 875,1505 L 850,1505 L 850,1030 Z" /><path d="M 590,890 L 590,770 L 590,630 L 530,630 L 530,770 L 530,890 L 530,1030 L 530,1695 L 505,1695 L 505,1865 L 530,1865 L 530,2220 L 530,2360 L 530,2600 L 530,2740 L 590,2740 L 590,2600 L 590,2360 L 590,2220 L 590,1865 L 615,1865 L 615,1695 L 590,1695 L 590,1030 Z" /></g></g><g id="CO"><g class="l30d0"><path d="M 3505,845 L 3595,845 L 3595,935 L 3505,935 Z" /><path d="M 2985,845 L 2985,935 L 3075,935 L 3075,845 Z" /><path d="M 2465,845 L 2555,845 L 2555,935 L 2465,935 Z" /><path d="M 2205,845 L 2295,845 L 2295,935 L 2205,935 Z" /><path d="M 1685,845 L 1685,935 L 1775,935 L 1775,845 Z" /><path d="M 1165,845 L 1255,845 L 1255,935 L 1165,935 Z" /><path d="M 905,785 L 995,785 L 995,875 L 905,875 Z" /><path d="M 645,785 L 735,785 L 735,875 L 645,875 Z" /><path d="M 385,785 L 475,785 L 475,875 L 385,875 Z" /><path d="M 3505,2435 L 3595,2435 L 3595,2525 L 3505,2525 Z" /><path d="M 3245,2435 L 3335,2435 L 3335,2525 L 3245,2525 Z" /><path d="M 2985,2435 L 2985,2525 L 3075,2525 L 3075,2435 Z" /><path d="M 2725,2435 L 2815,2435 L 2815,2525 L 2725,2525 Z" /><path d="M 2465,2435 L 2555,2435 L 2555,2525 L 2465,2525 Z" /><path d="M 2205,2435 L 2295,2435 L 2295,2525 L 2205,2525 Z" /><path d="M 1945,2435 L 2035,2435 L 2035,2525 L 1945,2525 Z" /><path d="M 1685,2435 L 1685,2525 L 1775,2525 L 1775,2435 Z" /><path d="M 1425,2435 L 1515,2435 L 1515,2525 L 1425,2525 Z" /><path d="M 1165,2435 L 1255,2435 L 1255,2525 L 1165,2525 Z" /><path d="M 905,2435 L 995,2435 L 995,2525 L 905,2525 Z" /><path d="M 645,2435 L 735,2435 L 735,2525 L 645,2525 Z" /><path d="M 385,2435 L 475,2435 L 475,2525 L 385,2525 Z" /><path d="M 3505,170 L 3595,170 L 3595,260 L 3505,260 Z" /><path d="M 3245,170 L 3335,170 L 3335,260 L 3245,260 Z" /><path d="M 2985,170 L 3075,170 L 3075,260 L 2985,260 Z" /><path d="M 2725,170 L 2815,170 L 2815,260 L 2725,260 Z" /><path d="M 2465,170 L 2555,170 L 2555,260 L 2465,260 Z" /><path d="M 2205,170 L 2295,170 L 2295,260 L 2205,260 Z" /><path d="M 1945,170 L 2035,170 L 2035,260 L 1945,260 Z" /><path d="M 1685,170 L 1775,170 L 1775,260 L 1685,260 Z" /><path d="M 1425,170 L 1515,170 L 1515,260 L 1425,260 Z" /><path d="M 1165,170 L 1255,170 L 1255,260 L 1165,260 Z" /><path d="M 905,170 L 995,170 L 995,260 L 905,260 Z" /><path d="M 645,170 L 735,170 L 735,260 L 645,260 Z" /><path d="M 385,170 L 475,170 L 475,260 L 385,260 Z" /><path d="M 3505,3110 L 3595,3110 L 3595,3200 L 3505,3200 Z" /><path d="M 3245,3110 L 3335,3110 L 3335,3200 L 3245,3200 Z" /><path d="M 2985,3110 L 3075,3110 L 3075,3200 L 2985,3200 Z" /><path d="M 2725,3110 L 2815,3110 L 2815,3200 L 2725,3200 Z" /><path d="M 2465,3110 L 2555,3110 L 2555,3200 L 2465,3200 Z" /><path d="M 2205,3110 L 2295,3110 L 2295,3200 L 2205,3200 Z" /><path d="M 1945,3110 L 2035,3110 L 2035,3200 L 1945,3200 Z" /><path d="M 1685,3110 L 1775,3110 L 1775,3200 L 1685,3200 Z" /><path d="M 1425,3110 L 1515,3110 L 1515,3200 L 1425,3200 Z" /><path d="M 1165,3110 L 1255,3110 L 1255,3200 L 1165,3200 Z" /><path d="M 905,3110 L 995,3110 L 995,3200 L 905,3200 Z" /><path d="M 645,3110 L 735,3110 L 735,3200 L 645,3200 Z" /><path d="M 385,3110 L 475,3110 L 475,3200 L 385,3200 Z" /><path d="M 1815,1925 L 1905,1925 L 1905,2015 L 1815,2015 Z" /><path d="M 1555,1925 L 1645,1925 L 1645,2015 L 1555,2015 Z" /><path d="M 2595,1355 L 2685,1355 L 2685,1445 L 2595,1445 Z" /><path d="M 1295,1355 L 1385,1355 L 1385,1445 L 1295,1445 Z" /><path d="M 3115,1545 L 3205,1545 L 3205,1635 L 3115,1635 Z" /><path d="M 2855,1545 L 2945,1545 L 2945,1635 L 2855,1635 Z" /><path d="M 3375,1735 L 3465,1735 L 3465,1825 L 3375,1825 Z" /><path d="M 2075,1735 L 2165,1735 L 2165,1825 L 2075,1825 Z" /><path d="M 775,1545 L 865,1545 L 865,1635 L 775,1635 Z" /><path d="M 515,1735 L 605,1735 L 605,1825 L 515,1825 Z" /></g></g><g id="M1"><g class="l31d0"><path d="M 290,120 L 290,310 L 640,310 L 640,780 L 640,915 L 740,915 L 740,780 L 740,310 L 1680,310 L 1680,840 L 1680,975 L 1780,975 L 1780,840 L 1780,310 L 2980,310 L 2980,840 L 2980,975 L 3080,975 L 3080,840 L 3080,310 L 3690,310 L 3690,120 Z" /><path d="M 3600,2395 L 3500,2395 L 3500,2530 L 3500,3060 L 3080,3060 L 3080,2530 L 3080,2395 L 2980,2395 L 2980,2530 L 2980,3060 L 2560,3060 L 2560,2530 L 2560,2395 L 2460,2395 L 2460,2530 L 2460,3060 L 2300,3060 L 2300,2530 L 2300,2395 L 2200,2395 L 2200,2530 L 2200,3060 L 1780,3060 L 1780,2530 L 1780,2395 L 1680,2395 L 1680,2530 L 1680,3060 L 1260,3060 L 1260,2530 L 1260,2395 L 1160,2395 L 1160,2530 L 1160,3060 L 740,3060 L 740,2530 L 740,2395 L 640,2395 L 640,2530 L 640,3060 L 290,3060 L 290,3250 L 3690,3250 L 3690,3060 L 3600,3060 L 3600,2530 Z" /><path d="M 3600,560 L 3500,560 L 3500,800 L 3500,980 L 3600,980 L 3600,800 Z" /><path d="M 2560,560 L 2460,560 L 2460,800 L 2460,980 L 2560,980 L 2560,800 Z" /><path d="M 2300,560 L 2200,560 L 2200,800 L 2200,980 L 2300,980 L 2300,800 Z" /><path d="M 1260,560 L 1160,560 L 1160,800 L 1160,980 L 1260,980 L 1260,800 Z" /><path d="M 1000,500 L 900,500 L 900,740 L 900,920 L 1000,920 L 1000,740 Z" /><path d="M 480,500 L 380,500 L 380,740 L 380,920 L 480,920 L 480,740 Z" /><path d="M 900,2390 L 900,2570 L 900,2810 L 1000,2810 L 1000,2570 L 1000,2390 Z" /><path d="M 380,2390 L 380,2570 L 380,2810 L 480,2810 L 480,2570 L 480,2390 Z" /><path d="M 3240,2390 L 3240,2570 L 3240,2810 L 3340,2810 L 3340,2570 L 3340,2390 Z" /><path d="M 2720,2390 L 2720,2570 L 2720,2810 L 2820,2810 L 2820,2570 L 2820,2390 Z" /><path d="M 1940,2390 L 1940,2570 L 1940,2810 L 2040,2810 L 2040,2570 L 2040,2390 Z" /><path d="M 1420,2390 L 1420,2570 L 1420,2810 L 1520,2810 L 1520,2570 L 1520,2390 Z" /><path d="M 2900,1540 L 2815,1540 L 905,1540 L 820,1540 L 735,1540 L 735,1640 L 820,1640 L 905,1640 L 2815,1640 L 2900,1640 L 2985,1640 L 3075,1640 L 3160,1640 L 3245,1640 L 3245,1540 L 3160,1540 L 3075,1540 L 2985,1540 Z" /><path d="M 2120,1730 L 2035,1730 L 645,1730 L 560,1730 L 475,1730 L 475,1830 L 560,1830 L 645,1830 L 2035,1830 L 2120,1830 L 2205,1830 L 3335,1830 L 3420,1830 L 3505,1830 L 3505,1730 L 3420,1730 L 3335,1730 L 2205,1730 Z" /><path d="M 1600,1920 L 1515,1920 L 1040,1920 L 950,1920 L 860,1920 L 860,2020 L 950,2020 L 1040,2020 L 1515,2020 L 1600,2020 L 1685,2020 L 1775,2020 L 1860,2020 L 1945,2020 L 1945,1920 L 1860,1920 L 1775,1920 L 1685,1920 Z" /><path d="M 1340,1350 L 1255,1350 L 520,1350 L 430,1350 L 340,1350 L 340,1450 L 430,1450 L 520,1450 L 1255,1450 L 1340,1450 L 1425,1450 L 2555,1450 L 2640,1450 L 2725,1450 L 2725,1350 L 2640,1350 L 2555,1350 L 1425,1350 Z" /></g></g><g id="VIA1"><g class="l51d0"><path d="M 3500,940 L 3600,940 L 3600,840 L 3500,840 Z" /><path d="M 2460,940 L 2560,940 L 2560,840 L 2460,840 Z" /><path d="M 2200,940 L 2300,940 L 2300,840 L 2200,840 Z" /><path d="M 1160,940 L 1260,940 L 1260,840 L 1160,840 Z" /><path d="M 900,880 L 1000,880 L 1000,780 L 900,780 Z" /><path d="M 380,880 L 480,880 L 480,780 L 380,780 Z" /><path d="M 900,2430 L 1000,2430 L 1000,2530 L 900,2530 Z" /><path d="M 380,2430 L 480,2430 L 480,2530 L 380,2530 Z" /><path d="M 3240,2430 L 3340,2430 L 3340,2530 L 3240,2530 Z" /><path d="M 2720,2430 L 2820,2430 L 2820,2530 L 2720,2530 Z" /><path d="M 1940,2430 L 2040,2430 L 2040,2530 L 1940,2530 Z" /><path d="M 1420,2430 L 1520,2430 L 1520,2530 L 1420,2530 Z" /><path d="M 900,1920 L 1000,1920 L 1000,2020 L 900,2020 Z" /><path d="M 380,1350 L 480,1350 L 480,1450 L 380,1450 Z" /></g></g><g id="M2"><g class="l32d0"><path d="M 3600,890 L 3600,800 L 3500,800 L 3500,890 L 3500,980 L 3500,2430 L 3380,2430 L 3290,2430 L 3200,2430 L 3200,2530 L 3290,2530 L 3380,2530 L 3500,2530 L 3600,2530 L 3600,2430 L 3600,980 Z" /><path d="M 2680,2430 L 2560,2430 L 2560,980 L 2560,890 L 2560,800 L 2460,800 L 2460,890 L 2460,980 L 2460,2430 L 2460,2530 L 2560,2530 L 2680,2530 L 2770,2530 L 2860,2530 L 2860,2430 L 2770,2430 Z" /><path d="M 2300,890 L 2300,800 L 2200,800 L 2200,890 L 2200,980 L 2200,2430 L 2080,2430 L 1990,2430 L 1900,2430 L 1900,2530 L 1990,2530 L 2080,2530 L 2200,2530 L 2300,2530 L 2300,2430 L 2300,980 Z" /><path d="M 1380,2430 L 1260,2430 L 1260,980 L 1260,890 L 1260,800 L 1160,800 L 1160,890 L 1160,980 L 1160,2430 L 1160,2530 L 1260,2530 L 1380,2530 L 1470,2530 L 1560,2530 L 1560,2430 L 1470,2430 Z" /><path d="M 900,2480 L 900,2570 L 1000,2570 L 1000,2480 L 1000,2390 L 1000,2060 L 1000,1880 L 1000,920 L 1000,830 L 1000,740 L 900,740 L 900,830 L 900,920 L 900,1880 L 900,2060 L 900,2390 Z" /><path d="M 480,1490 L 480,1310 L 480,920 L 480,830 L 480,740 L 380,740 L 380,830 L 380,920 L 380,1310 L 380,1490 L 380,2390 L 380,2480 L 380,2570 L 480,2570 L 480,2480 L 480,2390 Z" /></g></g></g></svg>