<svg width="2170" height="9430" viewBox="-5 -9425 2170 9430" xmlns="http://www.w3.org/2000/svg" xmlns:xlink="http://www.w3.org/1999/xlink"><defs><style type="text/css">.l3d0 {fill: #fef9e7; fill-opacity: 0.5; stroke-width: 10; stroke: #f1c40f; stroke-linecap: round; stroke-linejoin: round; stroke-opacity: 0.2;}.l25d0 {fill: #8e44ad; fill-opacity: 0.05; stroke-width: 10; stroke: #8e44ad; stroke-linecap: round; stroke-linejoin: round; stroke-opacity: 1;}.l26d0 {fill: #ccd1d1; fill-opacity: 0.05; stroke-width: 10; stroke: #ccd1d1; stroke-linecap: round; stroke-linejoin: round; stroke-opacity: 1;}.l6d0 {fill: #f5b7b1; fill-opacity: 1; stroke-width: 10; stroke: #e74c3c; stroke-linecap: round; stroke-linejoin: round; stroke-opacity: 1;}.l17d0 {fill: #2980b9; fill-opacity: 1; stroke-width: 0; stroke: #000000; stroke-linecap: round; stroke-linejoin: round; stroke-opacity: 0;}.l30d0 {fill: #27ae60; fill-opacity: 1; stroke-width: 0; stroke: #000000; stroke-linecap: round; stroke-linejoin: round; stroke-opacity: 0;}.l31d0 {fill: #85c1e9; fill-opacity: 0.6; stroke-width: 0; stroke: #000000; stroke-linecap: round; stroke-linejoin: round; stroke-opacity: 0;}.l51d0 {fill: #f39c12; fill-opacity: 1; stroke-width: 10; stroke: #f39c12; stroke-linecap: round; stroke-linejoin: round; stroke-opacity: 1;}.l32d0 {fill: #f7dc6f; fill-opacity: 0.6; stroke-width: 0; stroke: #000000; stroke-linecap: round; stroke-linejoin: round; stroke-opacity: 0;}.l52d0 {fill: #a04000; fill-opacity: 1; stroke-width: 10; stroke: #a04000; stroke-linecap: round; stroke-linejoin: round; stroke-opacity: 1;}.l33d0 {fill: #16a085; fill-opacity: 0.6; stroke-width: 0; stroke: #000000; stroke-linecap: round; stroke-linejoin: round; stroke-opacity: 0;}.l53d0 {fill: #8e44ad; fill-opacity: 1; stroke-width: 10; stroke: #8e44ad; stroke-linecap: round; stroke-linejoin: round; stroke-opacity: 1;}.l34d0 {fill: #d2b4de; fill-opacity: 0.6; stroke-width: 0; stroke: #000000; stroke-linecap: round; stroke-linejoin: round; stroke-opacity: 0;}path {fill-rule: evenodd;}</style></defs><g transform="scale(1 -1)"><g id="NW"><g class="l3d0"><path d="M 0,9420 L 2160,9420 L 2160,7780 L 0,7780 Z" /><path d="M 0,1900 L 0,2770 L 0,3540 L 0,4410 L 2160,4410 L 2160,3540 L 2160,2770 L 2160,1900 Z" /></g></g><g id="PP"><g class="l25d0"><path d="M 170,5880 L 1990,5880 L 1990,6310 L 170,6310 Z" /><path d="M 170,0 L 1990,0 L 1990,430 L 170,430 Z" /><path d="M 170,4625 L 1990,4625 L 1990,3370 L 1835,3370 L 1575,3370 L 1365,3370 L 1105,3370 L 1055,3370 L 795,3370 L 585,3370 L 325,3370 L 170,3370 Z" /><path d="M 1990,7565 L 170,7565 L 170,8820 L 325,8820 L 585,8820 L 795,8820 L 1055,8820 L 1105,8820 L 1365,8820 L 1575,8820 L 1835,8820 L 1990,8820 Z" /><path d="M 1990,1685 L 170,1685 L 170,2940 L 325,2940 L 585,2940 L 795,2940 L 1055,2940 L 1105,2940 L 1365,2940 L 1575,2940 L 1835,2940 L 1990,2940 Z" /></g></g><g id="NP"><g class="l26d0"><path d="M 170,8820 L 1990,8820 L 1990,9250 L 170,9250 Z" /><path d="M 170,2940 L 1990,2940 L 1990,3370 L 170,3370 Z" /><path d="M 1990,4625 L 170,4625 L 170,5880 L 325,5880 L 585,5880 L 795,5880 L 1055,5880 L 1105,5880 L 1365,5880 L 1575,5880 L 1835,5880 L 1990,5880 Z" /><path d="M 170,7565 L 1990,7565 L 1990,6310 L 1835,6310 L 1575,6310 L 1365,6310 L 1105,6310 L 1055,6310 L 795,6310 L 585,6310 L 325,6310 L 170,6310 Z" /><path d="M 170,1685 L 1990,1685 L 1990,430 L 1835,430 L 1575,430 L 1365,430 L 1105,430 L 1055,430 L 795,430 L 585,430 L 325,430 L 170,430 Z" /></g></g><g id="OD"><g class="l6d0"><path d="M 300,130 L 1860,130 L 1860,300 L 300,300 Z" /><path d="M 300,3070 L 1860,3070 L 1860,3240 L 300,3240 Z" /><path d="M 300,8950 L 1860,8950 L 1860,9120 L 300,9120 Z" /><path d="M 300,6010 L 1860,6010 L 1860,6180 L 300,6180 Z" /><path d="M 1495,5540 L 1570,5540 L 1630,5540 L 1705,5540 L 1805,5540 L 1805,5420 L 1705,5420 L 1630,5420 L 1570,5420 L 1495,5420 L 1445,5420 L 1370,5420 L 1310,5420 L 1235,5420 L 1135,5420 L 1135,5540 L 1235,5540 L 1310,5540 L 1370,5540 L 1445,5540 Z" /><path d="M 1495,6770 L 1570,6770 L 1630,6770 L 1705,6770 L 1805,6770 L 1805,6650 L 1705,6650 L 1630,6650 L 1570,6650 L 1495,6650 L 1445,6650 L 1370,6650 L 1310,6650 L 1235,6650 L 1135,6650 L 1135,6770 L 1235,6770 L 1310,6770 L 1370,6770 L 1445,6770 Z" /><path d="M 1495,890 L 1570,890 L 1630,890 L 1705,890 L 1805,890 L 1805,770 L 1705,770 L 1630,770 L 1570,770 L 1495,770 L 1445,770 L 1370,770 L 1310,770 L 1235,770 L 1135,770 L 1135,890 L 1235,890 L 1310,890 L 1370,890 L 1445,890 Z" /><path d="M 715,5540 L 790,5540 L 850,5540 L 925,5540 L 1025,5540 L 1025,5420 L 925,5420 L 850,5420 L 790,5420 L 715,5420 L 665,5420 L 590,5420 L 530,5420 L 455,5420 L 355,5420 L 355,5540 L 455,5540 L 530,5540 L 590,5540 L 665,5540 Z" /><path d="M 715,6770 L 790,6770 L 850,6770 L 925,6770 L 1025,6770 L 1025,6650 L 925,6650 L 850,6650 L 790,6650 L 715,6650 L 665,6650 L 590,6650 L 530,6650 L 455,6650 L 355,6650 L 355,6770 L 455,6770 L 530,6770 L 590,6770 L 665,6770 Z" /><path d="M 715,890 L 790,890 L 850,890 L 925,890 L 1025,890 L 1025,770 L 925,770 L 850,770 L 790,770 L 715,770 L 665,770 L 590,770 L 530,770 L 455,770 L 355,770 L 355,890 L 455,890 L 530,890 L 590,890 L 665,890 Z" /><path d="M 1495,3830 L 1570,3830 L 1630,3830 L 1705,3830 L 1805,3830 L 1805,3710 L 1705,3710 L 1630,3710 L 1570,3710 L 1495,3710 L 1445,3710 L 1370,3710 L 1310,3710 L 1235,3710 L 1135,3710 L 1135,3830 L 1235,3830 L 1310,3830 L 1370,3830 L 1445,3830 Z" /><path d="M 1495,8480 L 1570,8480 L 1630,8480 L 1705,8480 L 1805,8480 L 1805,8360 L 1705,8360 L 1630,8360 L 1570,8360 L 1495,8360 L 1445,8360 L 1370,8360 L 1310,8360 L 1235,8360 L 1135,8360 L 1135,8480 L 1235,8480 L 1310,8480 L 1370,8480 L 1445,8480 Z" /><path d="M 1495,2600 L 1570,2600 L 1630,2600 L 1705,2600 L 1805,2600 L 1805,2480 L 1705,2480 L 1630,2480 L 1570,2480 L 1495,2480 L 1445,2480 L 1370,2480 L 1310,2480 L 1235,2480 L 1135,2480 L 1135,2600 L 1235,2600 L 1310,2600 L 1370,2600 L 1445,2600 Z" /><path d="M 715,3830 L 790,3830 L 850,3830 L 925,3830 L 1025,3830 L 1025,3710 L 925,3710 L 850,3710 L 790,3710 L 715,3710 L 665,3710 L 590,3710 L 530,3710 L 455,3710 L 355,3710 L 355,3830 L 455,3830 L 530,3830 L 590,3830 L 665,3830 Z" /><path d="M 715,8480 L 790,8480 L 850,8480 L 925,8480 L 1025,8480 L 1025,8360 L 925,8360 L 850,8360 L 790,8360 L 715,8360 L 665,8360 L 590,8360 L 530,8360 L 455,8360 L 355,8360 L 355,8480 L 455,8480 L 530,8480 L 590,8480 L 665,8480 Z" /><path d="M 715,2600 L 790,2600 L 850,2600 L 925,2600 L 1025,2600 L 1025,2480 L 925,2480 L 850,2480 L 790,2480 L 715,2480 L 665,2480 L 590,2480 L 530,2480 L 455,2480 L 355,2480 L 355,2600 L 455,2600 L 530,2600 L 590,2600 L 665,2600 Z" /></g></g><g id="PO"><g class="l17d0"><path d="M 1570,8360 L 1570,8480 L 1570,8620 L 1630,8620 L 1630,8480 L 1630,8360 L 1630,8220 L 1630,7555 L 1655,7555 L 1655,7385 L 1630,7385 L 1630,6910 L 1630,6770 L 1630,6650 L 1630,6510 L 1570,6510 L 1570,6650 L 1570,6770 L 1570,6910 L 1570,7385 L 1545,7385 L 1545,7555 L 1570,7555 L 1570,8220 Z" /><path d="M 1630,890 L 1630,770 L 1630,630 L 1570,630 L 1570,770 L 1570,890 L 1570,1030 L 1570,1505 L 1545,1505 L 1545,1675 L 1570,1675 L 1570,2340 L 1570,2480 L 1570,2600 L 1570,2740 L 1630,2740 L 1630,2600 L 1630,2480 L 1630,2340 L 1630,1675 L 1655,1675 L 1655,1505 L 1630,1505 L 1630,1030 Z" /><path d="M 1570,5420 L 1570,5540 L 1570,5680 L 1630,5680 L 1630,5540 L 1630,5420 L 1630,5280 L 1630,4805 L 1655,4805 L 1655,4635 L 1630,4635 L 1630,3970 L 1630,3830 L 1630,3710 L 1630,3570 L 1570,3570 L 1570,3710 L 1570,3830 L 1570,3970 L 1570,4635 L 1545,4635 L 1545,4805 L 1570,4805 L 1570,5280 Z" /><path d="M 1370,6770 L 1370,6650 L 1370,6510 L 1310,6510 L 1310,6650 L 1310,6770 L 1310,6910 L 1310,7575 L 1285,7575 L 1285,7745 L 1310,7745 L 1310,8220 L 1310,8360 L 1310,8480 L 1310,8620 L 1370,8620 L 1370,8480 L 1370,8360 L 1370,8220 L 1370,7745 L 1395,7745 L 1395,7575 L 1370,7575 L 1370,6910 Z" /><path d="M 1370,890 L 1370,770 L 1370,630 L 1310,630 L 1310,770 L 1310,890 L 1310,1030 L 1310,1695 L 1285,1695 L 1285,1865 L 1310,1865 L 1310,2340 L 1310,2480 L 1310,2600 L 1310,2740 L 1370,2740 L 1370,2600 L 1370,2480 L 1370,2340 L 1370,1865 L 1395,1865 L 1395,1695 L 1370,1695 L 1370,1030 Z" /><path d="M 1310,5420 L 1310,5540 L 1310,5680 L 1370,5680 L 1370,5540 L 1370,5420 L 1370,5280 L 1370,4615 L 1395,4615 L 1395,4445 L 1370,4445 L 1370,3970 L 1370,3830 L 1370,3710 L 1370,3570 L 1310,3570 L 1310,3710 L 1310,3830 L 1310,3970 L 1310,4445 L 1285,4445 L 1285,4615 L 1310,4615 L 1310,5280 Z" /><path d="M 850,890 L 850,770 L 850,630 L 790,630 L 790,770 L 790,890 L 790,1030 L 790,2075 L 765,2075 L 765,2245 L 790,2245 L 790,2340 L 790,2480 L 790,2600 L 790,2740 L 850,2740 L 850,2600 L 850,2480 L 850,2340 L 850,2245 L 875,2245 L 875,2075 L 850,2075 L 850,1030 Z" /><path d="M 790,5420 L 790,5540 L 790,5680 L 850,5680 L 850,5540 L 850,5420 L 850,5280 L 850,4235 L 875,4235 L 875,4065 L 850,4065 L 850,3970 L 850,3830 L 850,3710 L 850,3570 L 790,3570 L 790,3710 L 790,3830 L 790,3970 L 790,4065 L 765,4065 L 765,4235 L 790,4235 L 790,5280 Z" /><path d="M 850,6770 L 850,6650 L 850,6510 L 790,6510 L 790,6650 L 790,6770 L 790,6910 L 790,7955 L 765,7955 L 765,8125 L 790,8125 L 790,8220 L 790,8360 L 790,8480 L 790,8620 L 850,8620 L 850,8480 L 850,8360 L 850,8220 L 850,8125 L 875,8125 L 875,7955 L 850,7955 L 850,6910 Z" /><path d="M 590,890 L 590,770 L 590,630 L 530,630 L 530,770 L 530,890 L 530,1030 L 530,1505 L 505,1505 L 505,1675 L 530,1675 L 530,2340 L 530,2480 L 530,2600 L 530,2740 L 590,2740 L 590,2600 L 590,2480 L 590,2340 L 590,1675 L 615,1675 L 615,1505 L 590,1505 L 590,1030 Z" /><path d="M 530,5420 L 530,5540 L 530,5680 L 590,5680 L 590,5540 L 590,5420 L 590,5280 L 590,4805 L 615,4805 L 615,4635 L 590,4635 L 590,3970 L 590,3830 L 590,3710 L 590,3570 L 530,3570 L 530,3710 L 530,3830 L 530,3970 L 530,4635 L 505,4635 L 505,4805 L 530,4805 L 530,5280 Z" /><path d="M 590,6770 L 590,6650 L 590,6510 L 530,6510 L 530,6650 L 530,6770 L 530,6910 L 530,7385 L 505,7385 L 505,7555 L 530,7555 L 530,8220 L 530,8360 L 530,8480 L 530,8620 L 590,8620 L 590,8480 L 590,8360 L 590,8220 L 590,7555 L 615,7555 L 615,7385 L 590,7385 L 590,6910 Z" /></g></g><g id="CO"><g class="l30d0"><path d="M 1685,5435 L 1775,5435 L 1775,5525 L 1685,5525 Z" /><path d="M 1685,8375 L 1775,8375 L 1775,8465 L 1685,8465 Z" /><path d="M 1685,6665 L 1775,6665 L 1775,6755 L 1685,6755 Z" /><path d="M 1685,2495 L 1775,2495 L 1775,2585 L 1685,2585 Z" /><path d="M 1685,785 L 1775,785 L 1775,875 L 1685,875 Z" /><path d="M 1685,3725 L 1775,3725 L 1775,3815 L 1685,3815 Z" /><path d="M 1425,5435 L 1515,5435 L 1515,5525 L 1425,5525 Z" /><path d="M 1425,8375 L 1515,8375 L 1515,8465 L 1425,8465 Z" /><path d="M 1425,6665 L 1515,6665 L 1515,6755 L 1425,6755 Z" /><path d="M 1425,2495 L 1515,2495 L 1515,2585 L 1425,2585 Z" /><path d="M 1425,785 L 1515,785 L 1515,875 L 1425,875 Z" /><path d="M 1425,3725 L 1515,3725 L 1515,3815 L 1425,3815 Z" /><path d="M 1165,8375 L 1255,8375 L 1255,8465 L 1165,8465 Z" /><path d="M 1165,6665 L 1255,6665 L 1255,6755 L 1165,6755 Z" /><path d="M 1165,2495 L 1255,2495 L 1255,2585 L 1165,2585 Z" /><path d="M 1165,785 L 1255,785 L 1255,875 L 1165,875 Z" /><path d="M 1685,8990 L 1775,8990 L 1775,9080 L 1685,9080 Z" /><path d="M 1685,170 L 1685,260 L 1775,260 L 1775,170 Z" /><path d="M 1685,3110 L 1685,3200 L 1775,3200 L 1775,3110 Z" /><path d="M 1685,6050 L 1685,6140 L 1775,6140 L 1775,6050 Z" /><path d="M 1425,8990 L 1515,8990 L 1515,9080 L 1425,9080 Z" /><path d="M 1425,170 L 1425,260 L 1515,260 L 1515,170 Z" /><path d="M 1425,3110 L 1425,3200 L 1515,3200 L 1515,3110 Z" /><path d="M 1425,6050 L 1425,6140 L 1515,6140 L 1515,6050 Z" /><path d="M 1165,8990 L 1255,8990 L 1255,9080 L 1165,9080 Z" /><path d="M 1165,170 L 1165,260 L 1255,260 L 1255,170 Z" /><path d="M 1165,3110 L 1165,3200 L 1255,3200 L 1255,3110 Z" /><path d="M 1165,6050 L 1165,6140 L 1255,6140 L 1255,6050 Z" /><path d="M 905,5435 L 995,5435 L 995,5525 L 905,5525 Z" /><path d="M 905,8990 L 995,8990 L 995,9080 L 905,9080 Z" /><path d="M 905,8375 L 995,8375 L 995,8465 L 905,8465 Z" /><path d="M 905,2495 L 995,2495 L 995,2585 L 905,2585 Z" /><path d="M 905,785 L 995,785 L 995,875 L 905,875 Z" /><path d="M 905,170 L 905,260 L 995,260 L 995,170 Z" /><path d="M 905,3110 L 905,3200 L 995,3200 L 995,3110 Z" /><path d="M 905,6050 L 905,6140 L 995,6140 L 995,6050 Z" /><path d="M 905,3725 L 995,3725 L 995,3815 L 905,3815 Z" /><path d="M 905,6665 L 995,6665 L 995,6755 L 905,6755 Z" /><path d="M 645,8990 L 735,8990 L 735,9080 L 645,9080 Z" /><path d="M 645,8375 L 735,8375 L 735,8465 L 645,8465 Z" /><path d="M 645,2495 L 735,2495 L 735,2585 L 645,2585 Z" /><path d="M 645,170 L 645,260 L 735,260 L 735,170 Z" /><path d="M 645,3110 L 645,3200 L 735,3200 L 735,3110 Z" /><path d="M 645,6050 L 645,6140 L 735,6140 L 735,6050 Z" /><path d="M 645,3725 L 735,3725 L 735,3815 L 645,3815 Z" /><path d="M 385,5435 L 475,5435 L 475,5525 L 385,5525 Z" /><path d="M 385,8990 L 475,8990 L 475,9080 L 385,9080 Z" /><path d="M 385,8375 L 475,8375 L 475,8465 L 385,8465 Z" /><path d="M 385,2495 L 475,2495 L 475,2585 L 385,2585 Z" /><path d="M 385,785 L 475,785 L 475,875 L 385,875 Z" /><path d="M 385,170 L 385,260 L 475,260 L 475,170 Z" /><path d="M 385,3110 L 385,3200 L 475,3200 L 475,3110 Z" /><path d="M 385,6050 L 385,6140 L 475,6140 L 475,6050 Z" /><path d="M 385,3725 L 475,3725 L 475,3815 L 385,3815 Z" /><path d="M 385,6665 L 475,6665 L 475,6755 L 385,6755 Z" /><path d="M 1165,5435 L 1255,5435 L 1255,5525 L 1165,5525 Z" /><path d="M 1165,3725 L 1255,3725 L 1255,3815 L 1165,3815 Z" /><path d="M 1555,7425 L 1645,7425 L 1645,7515 L 1555,7515 Z" /><path d="M 1555,1545 L 1645,1545 L 1645,1635 L 1555,1635 Z" /><path d="M 1555,4765 L 1645,4765 L 1645,4675 L 1555,4675 Z" /><path d="M 1295,7615 L 1385,7615 L 1385,7705 L 1295,7705 Z" /><path d="M 1295,1735 L 1385,1735 L 1385,1825 L 1295,1825 Z" /><path d="M 1295,4575 L 1385,4575 L 1385,4485 L 1295,4485 Z" /><path d="M 775,2115 L 865,2115 L 865,2205 L 775,2205 Z" /><path d="M 775,4105 L 865,4105 L 865,4195 L 775,4195 Z" /><path d="M 775,7995 L 865,7995 L 865,8085 L 775,8085 Z" /><path d="M 515,1545 L 605,1545 L 605,1635 L 515,1635 Z" /><path d="M 515,4675 L 605,4675 L 605,4765 L 515,4765 Z" /><path d="M 515,7425 L 605,7425 L 605,7515 L 515,7515 Z" /></g></g><g id="M1"><g class="l31d0"><path d="M 1520,915 L 1520,745 L 1520,310 L 1870,310 L 1870,120 L 290,120 L 290,310 L 380,310 L 380,745 L 380,915 L 480,915 L 480,745 L 480,310 L 1420,310 L 1420,745 L 1420,915 Z" /><path d="M 1420,8505 L 1420,8940 L 1000,8940 L 1000,8505 L 1000,8335 L 900,8335 L 900,8505 L 900,8940 L 480,8940 L 480,8505 L 480,8335 L 380,8335 L 380,8505 L 380,8940 L 290,8940 L 290,9130 L 1870,9130 L 1870,8940 L 1520,8940 L 1520,8505 L 1520,8335 L 1420,8335 Z" /><path d="M 1870,3060 L 1520,3060 L 1520,2625 L 1520,2455 L 1420,2455 L 1420,2625 L 1420,3060 L 1000,3060 L 1000,2625 L 1000,2455 L 900,2455 L 900,2625 L 900,3060 L 480,3060 L 480,2625 L 480,2455 L 380,2455 L 380,2625 L 380,3060 L 290,3060 L 290,3250 L 380,3250 L 380,3685 L 380,3855 L 480,3855 L 480,3685 L 480,3250 L 900,3250 L 900,3685 L 900,3855 L 1000,3855 L 1000,3685 L 1000,3250 L 1420,3250 L 1420,3685 L 1420,3855 L 1520,3855 L 1520,3685 L 1520,3250 L 1870,3250 Z" /><path d="M 1420,6000 L 480,6000 L 480,5565 L 480,5395 L 380,5395 L 380,5565 L 380,6000 L 290,6000 L 290,6190 L 380,6190 L 380,6625 L 380,6795 L 480,6795 L 480,6625 L 480,6190 L 1420,6190 L 1420,6625 L 1420,6795 L 1520,6795 L 1520,6625 L 1520,6190 L 1870,6190 L 1870,6000 L 1520,6000 L 1520,5565 L 1520,5395 L 1420,5395 L 1420,5565 Z" /><path d="M 1300,1540 L 1210,1540 L 1120,1540 L 1120,1640 L 1210,1640 L 1300,1640 L 1515,1640 L 1600,1640 L 1685,1640 L 1685,1540 L 1600,1540 L 1515,1540 Z" /><path d="M 1300,7420 L 1210,7420 L 1120,7420 L 1120,7520 L 1210,7520 L 1300,7520 L 1515,7520 L 1600,7520 L 1685,7520 L 1685,7420 L 1600,7420 L 1515,7420 Z" /><path d="M 1300,4670 L 1210,4670 L 1120,4670 L 1120,4770 L 1210,4770 L 1300,4770 L 1515,4770 L 1600,4770 L 1685,4770 L 1685,4670 L 1600,4670 L 1515,4670 Z" /><path d="M 680,2110 L 680,2210 L 735,2210 L 860,2210 L 905,2210 L 1040,2210 L 1100,2210 L 1100,2110 L 1040,2110 L 905,2110 L 860,2110 L 735,2110 Z" /><path d="M 680,4100 L 680,4200 L 735,4200 L 860,4200 L 905,4200 L 1040,4200 L 1100,4200 L 1100,4100 L 1040,4100 L 905,4100 L 860,4100 L 735,4100 Z" /><path d="M 680,7990 L 680,8090 L 735,8090 L 860,8090 L 905,8090 L 1040,8090 L 1100,8090 L 1100,7990 L 1040,7990 L 905,7990 L 860,7990 L 735,7990 Z" /><path d="M 780,7610 L 690,7610 L 600,7610 L 600,7710 L 690,7710 L 780,7710 L 1255,7710 L 1340,7710 L 1425,7710 L 1425,7610 L 1340,7610 L 1255,7610 Z" /><path d="M 780,4480 L 690,4480 L 600,4480 L 600,4580 L 690,4580 L 780,4580 L 1255,4580 L 1340,4580 L 1425,4580 L 1425,4480 L 1340,4480 L 1255,4480 Z" /><path d="M 780,1730 L 690,1730 L 600,1730 L 600,1830 L 690,1830 L 780,1830 L 1255,1830 L 1340,1830 L 1425,1830 L 1425,1730 L 1340,1730 L 1255,1730 Z" /><path d="M 340,4670 L 340,4770 L 475,4770 L 520,4770 L 645,4770 L 760,4770 L 760,4670 L 645,4670 L 520,4670 L 475,4670 Z" /><path d="M 340,1540 L 340,1640 L 475,1640 L 520,1640 L 645,1640 L 760,1640 L 760,1540 L 645,1540 L 520,1540 L 475,1540 Z" /><path d="M 340,7420 L 340,7520 L 475,7520 L 520,7520 L 645,7520 L 760,7520 L 760,7420 L 645,7420 L 520,7420 L 475,7420 Z" /><path d="M 1780,3680 L 1780,3440 L 1680,3440 L 1680,3680 L 1680,3685 L 1680,3855 L 1680,3860 L 1780,3860 L 1780,3855 L 1780,3685 Z" /><path d="M 1780,6620 L 1780,6380 L 1680,6380 L 1680,6620 L 1680,6625 L 1680,6795 L 1680,6800 L 1780,6800 L 1780,6795 L 1780,6625 Z" /><path d="M 1780,8330 L 1680,8330 L 1680,8335 L 1680,8505 L 1680,8510 L 1680,8750 L 1780,8750 L 1780,8510 L 1780,8505 L 1780,8335 Z" /><path d="M 1780,2450 L 1680,2450 L 1680,2455 L 1680,2625 L 1680,2630 L 1680,2870 L 1780,2870 L 1780,2630 L 1780,2625 L 1780,2455 Z" /><path d="M 1780,5390 L 1680,5390 L 1680,5395 L 1680,5565 L 1680,5570 L 1680,5810 L 1780,5810 L 1780,5570 L 1780,5565 L 1780,5395 Z" /><path d="M 1780,740 L 1780,500 L 1680,500 L 1680,740 L 1680,745 L 1680,915 L 1680,920 L 1780,920 L 1780,915 L 1780,745 Z" /><path d="M 1260,5390 L 1160,5390 L 1160,5395 L 1160,5565 L 1160,5570 L 1160,5810 L 1260,5810 L 1260,5570 L 1260,5565 L 1260,5395 Z" /><path d="M 1260,740 L 1260,500 L 1160,500 L 1160,740 L 1160,745 L 1160,915 L 1160,920 L 1260,920 L 1260,915 L 1260,745 Z" /><path d="M 1260,3680 L 1260,3440 L 1160,3440 L 1160,3680 L 1160,3685 L 1160,3855 L 1160,3860 L 1260,3860 L 1260,3855 L 1260,3685 Z" /><path d="M 1260,6620 L 1260,6380 L 1160,6380 L 1160,6620 L 1160,6625 L 1160,6795 L 1160,6800 L 1260,6800 L 1260,6795 L 1260,6625 Z" /><path d="M 1260,8330 L 1160,8330 L 1160,8335 L 1160,8505 L 1160,8510 L 1160,8750 L 1260,8750 L 1260,8510 L 1260,8505 L 1260,8335 Z" /><path d="M 1260,2450 L 1160,2450 L 1160,2455 L 1160,2625 L 1160,2630 L 1160,2870 L 1260,2870 L 1260,2630 L 1260,2625 L 1260,2455 Z" /><path d="M 1000,740 L 1000,500 L 900,500 L 900,740 L 900,745 L 900,915 L 900,920 L 1000,920 L 1000,915 L 1000,745 Z" /><path d="M 1000,6620 L 1000,6380 L 900,6380 L 900,6620 L 900,6625 L 900,6795 L 900,6800 L 1000,6800 L 1000,6795 L 1000,6625 Z" /><path d="M 1000,5390 L 900,5390 L 900,5395 L 900,5565 L 900,5570 L 900,5810 L 1000,5810 L 1000,5570 L 1000,5565 L 1000,5395 Z" /><path d="M 740,8330 L 640,8330 L 640,8335 L 640,8505 L 640,8510 L 640,8750 L 740,8750 L 740,8510 L 740,8505 L 740,8335 Z" /><path d="M 740,2450 L 640,2450 L 640,2455 L 640,2625 L 640,2630 L 640,2870 L 740,2870 L 740,2630 L 740,2625 L 740,2455 Z" /><path d="M 740,3680 L 740,3440 L 640,3440 L 640,3680 L 640,3685 L 640,3855 L 640,3860 L 740,3860 L 740,3855 L 740,3685 Z" /></g></g><g id="VIA1"><g class="l51d0"><path d="M 1160,1540 L 1260,1540 L 1260,1640 L 1160,1640 Z" /><path d="M 1160,7420 L 1260,7420 L 1260,7520 L 1160,7520 Z" /><path d="M 1160,4770 L 1260,4770 L 1260,4670 L 1160,4670 Z" /><path d="M 900,2110 L 1000,2110 L 1000,2210 L 900,2210 Z" /><path d="M 900,4100 L 1000,4100 L 1000,4200 L 900,4200 Z" /><path d="M 900,7990 L 1000,7990 L 1000,8090 L 900,8090 Z" /><path d="M 640,7610 L 740,7610 L 740,7710 L 640,7710 Z" /><path d="M 640,4580 L 740,4580 L 740,4480 L 640,4480 Z" /><path d="M 640,1730 L 740,1730 L 740,1830 L 640,1830 Z" /><path d="M 380,4670 L 480,4670 L 480,4770 L 380,4770 Z" /><path d="M 380,1540 L 480,1540 L 480,1640 L 380,1640 Z" /><path d="M 380,7420 L 480,7420 L 480,7520 L 380,7520 Z" /><path d="M 1680,3820 L 1780,3820 L 1780,3720 L 1680,3720 Z" /><path d="M 1680,6660 L 1780,6660 L 1780,6760 L 1680,6760 Z" /><path d="M 1680,8370 L 1780,8370 L 1780,8470 L 1680,8470 Z" /><path d="M 1680,2490 L 1780,2490 L 1780,2590 L 1680,2590 Z" /><path d="M 1680,5530 L 1780,5530 L 1780,5430 L 1680,5430 Z" /><path d="M 1680,780 L 1780,780 L 1780,880 L 1680,880 Z" /><path d="M 1160,5530 L 1260,5530 L 1260,5430 L 1160,5430 Z" /><path d="M 1160,780 L 1260,780 L 1260,880 L 1160,880 Z" /><path d="M 1160,3820 L 1260,3820 L 1260,3720 L 1160,3720 Z" /><path d="M 1160,6660 L 1260,6660 L 1260,6760 L 1160,6760 Z" /><path d="M 1160,8370 L 1260,8370 L 1260,8470 L 1160,8470 Z" /><path d="M 1160,2490 L 1260,2490 L 1260,2590 L 1160,2590 Z" /><path d="M 900,780 L 1000,780 L 1000,880 L 900,880 Z" /><path d="M 900,6660 L 1000,6660 L 1000,6760 L 900,6760 Z" /><path d="M 900,5530 L 1000,5530 L 1000,5430 L 900,5430 Z" /><path d="M 640,8370 L 740,8370 L 740,8470 L 640,8470 Z" /><path d="M 640,2490 L 740,2490 L 740,2590 L 640,2590 Z" /><path d="M 640,3820 L 740,3820 L 740,3720 L 640,3720 Z" /></g></g><g id="M2"><g class="l32d0"><path d="M 480,4720 L 480,4630 L 480,1680 L 480,1590 L 480,1500 L 380,1500 L 380,1590 L 380,1680 L 380,4630 L 380,4720 L 380,4810 L 380,7380 L 380,7470 L 380,7560 L 480,7560 L 480,7470 L 480,7380 L 480,4810 Z" /><path d="M 1160,4810 L 1160,5390 L 1160,5480 L 1160,5570 L 1260,5570 L 1260,5480 L 1260,5390 L 1260,4810 L 1260,4630 L 1260,3860 L 1260,3770 L 1260,3680 L 1160,3680 L 1160,3770 L 1160,3860 L 1160,4630 Z" /><path d="M 1260,7380 L 1260,6800 L 1260,6710 L 1260,6620 L 1160,6620 L 1160,6710 L 1160,6800 L 1160,7380 L 1160,7560 L 1160,8330 L 1160,8420 L 1160,8510 L 1260,8510 L 1260,8420 L 1260,8330 L 1260,7560 Z" /><path d="M 1260,1500 L 1260,920 L 1260,830 L 1260,740 L 1160,740 L 1160,830 L 1160,920 L 1160,1500 L 1160,1680 L 1160,2450 L 1160,2540 L 1160,2630 L 1260,2630 L 1260,2540 L 1260,2450 L 1260,1680 Z" /><path d="M 640,7570 L 640,7615 L 640,7750 L 640,8330 L 640,8420 L 640,8510 L 740,8510 L 740,8420 L 740,8330 L 740,7750 L 740,7615 L 900,7615 L 1000,7615 L 1000,7515 L 1000,6800 L 1000,6710 L 1000,6620 L 900,6620 L 900,6710 L 900,6800 L 900,7515 L 740,7515 L 640,7515 Z" /><path d="M 640,1690 L 640,1735 L 640,1870 L 640,2450 L 640,2540 L 640,2630 L 740,2630 L 740,2540 L 740,2450 L 740,1870 L 740,1735 L 900,1735 L 1000,1735 L 1000,1635 L 1000,920 L 1000,830 L 1000,740 L 900,740 L 900,830 L 900,920 L 900,1635 L 740,1635 L 640,1635 Z" /><path d="M 740,4575 L 740,4440 L 740,3860 L 740,3770 L 740,3680 L 640,3680 L 640,3770 L 640,3860 L 640,4440 L 640,4575 L 640,4620 L 640,4675 L 740,4675 L 900,4675 L 900,5390 L 900,5480 L 900,5570 L 1000,5570 L 1000,5480 L 1000,5390 L 1000,4675 L 1000,4575 L 900,4575 Z" /><path d="M 1680,1495 L 1680,1675 L 1680,2450 L 1680,2540 L 1680,2630 L 1780,2630 L 1780,2540 L 1780,2450 L 1780,1675 L 1780,1495 L 1780,920 L 1780,830 L 1780,740 L 1680,740 L 1680,830 L 1680,920 Z" /><path d="M 1680,8420 L 1680,8510 L 1780,8510 L 1780,8420 L 1780,8330 L 1780,7555 L 1780,7375 L 1780,6800 L 1780,6710 L 1780,6620 L 1680,6620 L 1680,6710 L 1680,6800 L 1680,7375 L 1680,7555 L 1680,8330 Z" /><path d="M 1780,4815 L 1780,4635 L 1780,3860 L 1780,3770 L 1780,3680 L 1680,3680 L 1680,3770 L 1680,3860 L 1680,4635 L 1680,4815 L 1680,5390 L 1680,5480 L 1680,5570 L 1780,5570 L 1780,5480 L 1780,5390 Z" /><path d="M 1000,3895 L 900,3895 L 900,4060 L 900,4235 L 900,4240 L 900,4415 L 1000,4415 L 1000,4240 L 1000,4235 L 1000,4060 Z" /><path d="M 900,1895 L 900,2070 L 900,2075 L 900,2250 L 900,2415 L 1000,2415 L 1000,2250 L 1000,2075 L 1000,2070 L 1000,1895 Z" /><path d="M 900,7775 L 900,7950 L 900,7955 L 900,8130 L 900,8295 L 1000,8295 L 1000,8130 L 1000,7955 L 1000,7950 L 1000,7775 Z" /></g></g><g id="VIA2"><g class="l52d0"><path d="M 1680,1535 L 1780,1535 L 1780,1635 L 1680,1635 Z" /><path d="M 1680,7415 L 1780,7415 L 1780,7515 L 1680,7515 Z" /><path d="M 1680,4675 L 1780,4675 L 1780,4775 L 1680,4775 Z" /><path d="M 900,4375 L 1000,4375 L 1000,4275 L 900,4275 Z" /><path d="M 900,1935 L 1000,1935 L 1000,2035 L 900,2035 Z" /><path d="M 900,7815 L 1000,7815 L 1000,7915 L 900,7915 Z" /></g></g><g id="M3"><g class="l33d0"><path d="M 780,1535 L 690,1535 L 600,1535 L 600,1635 L 690,1635 L 780,1635 L 1640,1635 L 1730,1635 L 1820,1635 L 1820,1535 L 1730,1535 L 1640,1535 Z" /><path d="M 690,4275 L 690,4375 L 860,4375 L 1040,4375 L 1210,4375 L 1210,4275 L 1040,4275 L 860,4275 Z" /><path d="M 600,7915 L 780,7915 L 860,7915 L 1040,7915 L 1120,7915 L 1120,7815 L 1040,7815 L 860,7815 L 780,7815 L 600,7815 Z" /><path d="M 690,1935 L 690,2035 L 860,2035 L 1040,2035 L 1210,2035 L 1210,1935 L 1040,1935 L 860,1935 Z" /><path d="M 1780,6815 L 1780,6715 L 1780,6615 L 1680,6615 L 1000,6615 L 1000,6515 L 1040,6515 L 1140,6515 L 1140,6415 L 1140,6315 L 1140,6215 L 1040,6215 L 1000,6215 L 1000,6155 L 1000,6065 L 1000,5975 L 900,5975 L 900,6065 L 900,6155 L 900,6215 L 900,6315 L 1000,6315 L 1040,6315 L 1040,6415 L 1000,6415 L 900,6415 L 900,6515 L 900,6615 L 900,6715 L 1000,6715 L 1680,6715 L 1680,6815 L 1000,6815 L 900,6815 L 900,6915 L 900,7015 L 900,7115 L 1000,7115 L 1680,7115 L 1680,7215 L 1000,7215 L 900,7215 L 900,7315 L 900,7415 L 900,7515 L 1000,7515 L 1640,7515 L 1730,7515 L 1820,7515 L 1820,7415 L 1730,7415 L 1640,7415 L 1000,7415 L 1000,7315 L 1680,7315 L 1780,7315 L 1780,7215 L 1780,7115 L 1780,7015 L 1680,7015 L 1000,7015 L 1000,6915 L 1680,6915 L 1780,6915 Z" /><path d="M 1780,3675 L 1780,3574 L 1780,3475 L 1680,3475 L 1000,3475 L 1000,3375 L 1600,3375 L 1700,3375 L 1700,3275 L 1700,3175 L 1700,3075 L 1600,3075 L 1000,3075 L 1000,3015 L 1000,2875 L 1000,2835 L 900,2835 L 900,2875 L 900,3015 L 900,3175 L 950,3175 L 1000,3175 L 1600,3175 L 1600,3275 L 1000,3275 L 900,3275 L 900,3375 L 900,3475 L 900,3574 L 1000,3574 L 1680,3574 L 1680,3675 L 1000,3675 L 900,3675 L 900,3775 L 900,3875 L 900,3975 L 1000,3975 L 1680,3975 L 1680,4475 L 1360,4475 L 1260,4475 L 1260,4575 L 1260,4675 L 1260,4775 L 1360,4775 L 1640,4775 L 1730,4775 L 1820,4775 L 1820,4675 L 1730,4675 L 1640,4675 L 1360,4675 L 1360,4575 L 1680,4575 L 1780,4575 L 1780,4475 L 1780,3975 L 1780,3875 L 1680,3875 L 1000,3875 L 1000,3775 L 1680,3775 L 1780,3775 Z" /></g></g><g id="VIA3"><g class="l53d0"><path d="M 640,1535 L 740,1535 L 740,1635 L 640,1635 Z" /><path d="M 900,4275 L 1000,4275 L 1000,4375 L 900,4375 Z" /><path d="M 640,7815 L 740,7815 L 740,7915 L 640,7915 Z" /><path d="M 900,1935 L 1000,1935 L 1000,2035 L 900,2035 Z" /><path d="M 900,6015 L 1000,6015 L 1000,6115 L 900,6115 Z" /><path d="M 900,2875 L 1000,2875 L 1000,2975 L 900,2975 Z" /></g></g><g id="M4"><g class="l34d0"><path d="M 640,7775 L 640,7880 L 640,7955 L 740,7955 L 740,7880 L 740,7775 L 740,1675 L 740,1585 L 740,1495 L 640,1495 L 640,1585 L 640,1675 Z" /><path d="M 1000,5975 L 1000,4415 L 1000,4335 L 1000,4235 L 900,4235 L 900,4335 L 900,4415 L 900,5975 L 900,6065 L 900,6155 L 1000,6155 L 1000,6065 Z" /><path d="M 1000,2835 L 1000,2075 L 1000,1985 L 1000,1895 L 900,1895 L 900,1985 L 900,2075 L 900,2835 L 900,2925 L 900,3015 L 1000,3015 L 1000,2925 Z" /></g></g></g></svg>