<svg width="2690" height="3550" viewBox="-5 -3545 2690 3550" xmlns="http://www.w3.org/2000/svg" xmlns:xlink="http://www.w3.org/1999/xlink"><defs><style type="text/css">.l3d0 {fill: #fef9e7; fill-opacity: 0.5; stroke-width: 10; stroke: #f1c40f; stroke-linecap: round; stroke-linejoin: round; stroke-opacity: 0.2;}.l25d0 {fill: #8e44ad; fill-opacity: 0.05; stroke-width: 10; stroke: #8e44ad; stroke-linecap: round; stroke-linejoin: round; stroke-opacity: 1;}.l26d0 {fill: #ccd1d1; fill-opacity: 0.05; stroke-width: 10; stroke: #ccd1d1; stroke-linecap: round; stroke-linejoin: round; stroke-opacity: 1;}.l6d0 {fill: #f5b7b1; fill-opacity: 1; stroke-width: 10; stroke: #e74c3c; stroke-linecap: round; stroke-linejoin: round; stroke-opacity: 1;}.l17d0 {fill: #2980b9; fill-opacity: 1; stroke-width: 0; stroke: #000000; stroke-linecap: round; stroke-linejoin: round; stroke-opacity: 0;}.l30d0 {fill: #27ae60; fill-opacity: 1; stroke-width: 0; stroke: #000000; stroke-linecap: round; stroke-linejoin: round; stroke-opacity: 0;}.l31d0 {fill: #85c1e9; fill-opacity: 0.6; stroke-width: 0; stroke: #000000; stroke-linecap: round; stroke-linejoin: round; stroke-opacity: 0;}.l51d0 {fill: #f39c12; fill-opacity: 1; stroke-width: 10; stroke: #f39c12; stroke-linecap: round; stroke-linejoin: round; stroke-opacity: 1;}.l32d0 {fill: #f7dc6f; fill-opacity: 0.6; stroke-width: 0; stroke: #000000; stroke-linecap: round; stroke-linejoin: round; stroke-opacity: 0;}.l52d0 {fill: #a04000; fill-opacity: 1; stroke-width: 10; stroke: #a04000; stroke-linecap: round; stroke-linejoin: round; stroke-opacity: 1;}.l33d0 {fill: #16a085; fill-opacity: 0.6; stroke-width: 0; stroke: #000000; stroke-linecap: round; stroke-linejoin: round; stroke-opacity: 0;}.l53d0 {fill: #8e44ad; fill-opacity: 1; stroke-width: 10; stroke: #8e44ad; stroke-linecap: round; stroke-linejoin: round; stroke-opacity: 1;}.l34d0 {fill: #d2b4de; fill-opacity: 0.6; stroke-width: 0; stroke: #000000; stroke-linecap: round; stroke-linejoin: round; stroke-opacity: 0;}path {fill-rule: evenodd;}</style></defs><g transform="scale(1 -1)"><g id="NW"><g class="l3d0"><path d="M 0,1900 L 0,3540 L 2680,3540 L 2680,1900 L 1665,1900 L 1405,1900 L 1015,1900 L 755,1900 Z" /></g></g><g id="PP"><g class="l25d0"><path d="M 170,0 L 2510,0 L 2510,430 L 170,430 Z" /><path d="M 170,1685 L 170,2940 L 325,2940 L 795,2940 L 845,2940 L 1105,2940 L 1315,2940 L 1575,2940 L 1625,2940 L 1885,2940 L 2095,2940 L 2355,2940 L 2510,2940 L 2510,1685 Z" /></g></g><g id="NP"><g class="l26d0"><path d="M 170,2940 L 2510,2940 L 2510,3370 L 170,3370 Z" /><path d="M 2510,1685 L 2510,430 L 2355,430 L 2095,430 L 1885,430 L 1625,430 L 1575,430 L 1315,430 L 1105,430 L 845,430 L 795,430 L 325,430 L 170,430 L 170,1685 Z" /></g></g><g id="OD"><g class="l6d0"><path d="M 300,130 L 2380,130 L 2380,300 L 300,300 Z" /><path d="M 300,3070 L 2380,3070 L 2380,3240 L 300,3240 Z" /><path d="M 1670,1010 L 1755,1010 L 1830,1010 L 1890,1010 L 1965,1010 L 2015,1010 L 2090,1010 L 2150,1010 L 2225,1010 L 2310,1010 L 2310,770 L 2225,770 L 2150,770 L 2090,770 L 2015,770 L 1965,770 L 1890,770 L 1830,770 L 1755,770 L 1670,770 Z" /><path d="M 1110,890 L 1185,890 L 1235,890 L 1310,890 L 1370,890 L 1445,890 L 1545,890 L 1545,770 L 1445,770 L 1370,770 L 1310,770 L 1235,770 L 1185,770 L 1110,770 L 1050,770 L 975,770 L 875,770 L 765,770 L 665,770 L 590,770 L 530,770 L 455,770 L 355,770 L 355,890 L 455,890 L 530,890 L 590,890 L 665,890 L 765,890 L 875,890 L 975,890 L 1050,890 Z" /><path d="M 1670,2600 L 1755,2600 L 1830,2600 L 1890,2600 L 1965,2600 L 2015,2600 L 2090,2600 L 2150,2600 L 2225,2600 L 2310,2600 L 2310,2360 L 2225,2360 L 2150,2360 L 2090,2360 L 2015,2360 L 1965,2360 L 1890,2360 L 1830,2360 L 1755,2360 L 1670,2360 Z" /><path d="M 1110,2600 L 1185,2600 L 1235,2600 L 1310,2600 L 1370,2600 L 1445,2600 L 1530,2600 L 1530,2120 L 1445,2120 L 1370,2120 L 1310,2120 L 1235,2120 L 1185,2120 L 1110,2120 L 1050,2120 L 975,2120 L 890,2120 L 890,2360 L 750,2360 L 665,2360 L 590,2360 L 530,2360 L 455,2360 L 370,2360 L 370,2600 L 455,2600 L 530,2600 L 590,2600 L 665,2600 L 750,2600 L 890,2600 L 975,2600 L 1050,2600 Z" /></g></g><g id="PO"><g class="l17d0"><path d="M 1890,1010 L 1890,770 L 1890,630 L 1830,630 L 1830,770 L 1830,1010 L 1830,1150 L 1830,1315 L 1805,1315 L 1805,1485 L 1830,1485 L 1830,2220 L 1830,2360 L 1830,2600 L 1830,2740 L 1890,2740 L 1890,2600 L 1890,2360 L 1890,2220 L 1890,1485 L 1915,1485 L 1915,1315 L 1890,1315 L 1890,1150 Z" /><path d="M 2150,1010 L 2150,770 L 2150,630 L 2090,630 L 2090,770 L 2090,1010 L 2090,1150 L 2090,1695 L 2065,1695 L 2065,1865 L 2090,1865 L 2090,2220 L 2090,2360 L 2090,2600 L 2090,2740 L 2150,2740 L 2150,2600 L 2150,2360 L 2150,2220 L 2150,1865 L 2175,1865 L 2175,1695 L 2150,1695 L 2150,1150 Z" /><path d="M 1370,890 L 1370,770 L 1370,630 L 1310,630 L 1310,770 L 1310,890 L 1310,1030 L 1310,1315 L 1285,1315 L 1285,1485 L 1310,1485 L 1310,1980 L 1310,2120 L 1310,2600 L 1310,2740 L 1370,2740 L 1370,2600 L 1370,2120 L 1370,1980 L 1370,1485 L 1395,1485 L 1395,1315 L 1370,1315 L 1370,1030 Z" /><path d="M 1110,890 L 1110,770 L 1110,630 L 1050,630 L 1050,770 L 1050,890 L 1050,1030 L 1050,1695 L 1025,1695 L 1025,1865 L 1050,1865 L 1050,1980 L 1050,2120 L 1050,2600 L 1050,2740 L 1110,2740 L 1110,2600 L 1110,2120 L 1110,1980 L 1110,1865 L 1135,1865 L 1135,1695 L 1110,1695 L 1110,1030 Z" /><path d="M 590,890 L 590,770 L 590,630 L 530,630 L 530,770 L 530,890 L 530,1030 L 530,1505 L 505,1505 L 505,1675 L 530,1675 L 530,2220 L 530,2360 L 530,2600 L 530,2740 L 590,2740 L 590,2600 L 590,2360 L 590,2220 L 590,1675 L 615,1675 L 615,1505 L 590,1505 L 590,1030 Z" /></g></g><g id="CO"><g class="l30d0"><path d="M 1685,845 L 1775,845 L 1775,935 L 1685,935 Z" /><path d="M 2205,845 L 2295,845 L 2295,935 L 2205,935 Z" /><path d="M 1165,785 L 1255,785 L 1255,875 L 1165,875 Z" /><path d="M 905,785 L 995,785 L 995,875 L 905,875 Z" /><path d="M 1425,785 L 1515,785 L 1515,875 L 1425,875 Z" /><path d="M 385,785 L 475,785 L 475,875 L 385,875 Z" /><path d="M 645,785 L 735,785 L 735,875 L 645,875 Z" /><path d="M 1945,2435 L 2035,2435 L 2035,2525 L 1945,2525 Z" /><path d="M 1685,2435 L 1775,2435 L 1775,2525 L 1685,2525 Z" /><path d="M 2205,2435 L 2295,2435 L 2295,2525 L 2205,2525 Z" /><path d="M 1425,2480 L 1515,2480 L 1515,2570 L 1425,2570 Z" /><path d="M 1425,2150 L 1515,2150 L 1515,2240 L 1425,2240 Z" /><path d="M 905,2150 L 995,2150 L 995,2240 L 905,2240 Z" /><path d="M 905,2480 L 995,2480 L 995,2570 L 905,2570 Z" /><path d="M 645,2435 L 735,2435 L 735,2525 L 645,2525 Z" /><path d="M 385,2435 L 475,2435 L 475,2525 L 385,2525 Z" /><path d="M 2205,170 L 2295,170 L 2295,260 L 2205,260 Z" /><path d="M 1945,170 L 2035,170 L 2035,260 L 1945,260 Z" /><path d="M 1685,170 L 1775,170 L 1775,260 L 1685,260 Z" /><path d="M 1425,170 L 1515,170 L 1515,260 L 1425,260 Z" /><path d="M 1165,170 L 1255,170 L 1255,260 L 1165,260 Z" /><path d="M 385,170 L 475,170 L 475,260 L 385,260 Z" /><path d="M 645,170 L 735,170 L 735,260 L 645,260 Z" /><path d="M 905,170 L 995,170 L 995,260 L 905,260 Z" /><path d="M 2205,3110 L 2295,3110 L 2295,3200 L 2205,3200 Z" /><path d="M 1945,3110 L 2035,3110 L 2035,3200 L 1945,3200 Z" /><path d="M 1685,3110 L 1775,3110 L 1775,3200 L 1685,3200 Z" /><path d="M 1425,3110 L 1515,3110 L 1515,3200 L 1425,3200 Z" /><path d="M 1165,3110 L 1255,3110 L 1255,3200 L 1165,3200 Z" /><path d="M 905,3110 L 995,3110 L 995,3200 L 905,3200 Z" /><path d="M 645,3110 L 735,3110 L 735,3200 L 645,3200 Z" /><path d="M 385,3110 L 475,3110 L 475,3200 L 385,3200 Z" /><path d="M 1815,1355 L 1905,1355 L 1905,1445 L 1815,1445 Z" /><path d="M 2075,1735 L 2165,1735 L 2165,1825 L 2075,1825 Z" /><path d="M 1295,1355 L 1385,1355 L 1385,1445 L 1295,1445 Z" /><path d="M 1035,1735 L 1125,1735 L 1125,1825 L 1035,1825 Z" /><path d="M 515,1545 L 605,1545 L 605,1635 L 515,1635 Z" /></g></g><g id="M1"><g class="l31d0"><path d="M 290,310 L 640,310 L 640,780 L 640,915 L 740,915 L 740,780 L 740,310 L 900,310 L 900,780 L 900,915 L 1000,915 L 1000,780 L 1000,310 L 1420,310 L 1420,780 L 1420,915 L 1520,915 L 1520,780 L 1520,310 L 1680,310 L 1680,840 L 1680,975 L 1780,975 L 1780,840 L 1780,310 L 2390,310 L 2390,120 L 290,120 Z" /><path d="M 2390,3060 L 2300,3060 L 2300,2530 L 2300,2395 L 2200,2395 L 2200,2530 L 2200,3060 L 1780,3060 L 1780,2530 L 1780,2395 L 1680,2395 L 1680,2530 L 1680,3060 L 1000,3060 L 1000,2245 L 1000,2110 L 900,2110 L 900,2245 L 900,3060 L 740,3060 L 740,2530 L 740,2395 L 640,2395 L 640,2530 L 640,3060 L 290,3060 L 290,3250 L 2390,3250 Z" /><path d="M 1940,2390 L 1940,2570 L 1940,2810 L 2040,2810 L 2040,2570 L 2040,2390 Z" /><path d="M 1420,2110 L 1420,2245 L 1420,2270 L 1420,2450 L 1420,2475 L 1420,2610 L 1520,2610 L 1520,2475 L 1520,2450 L 1520,2270 L 1520,2245 L 1520,2110 Z" /><path d="M 480,500 L 380,500 L 380,740 L 380,920 L 480,920 L 480,740 Z" /><path d="M 380,2390 L 380,2570 L 380,2810 L 480,2810 L 480,2570 L 480,2390 Z" /><path d="M 2300,560 L 2200,560 L 2200,800 L 2200,980 L 2300,980 L 2300,800 Z" /><path d="M 1260,500 L 1160,500 L 1160,740 L 1160,920 L 1260,920 L 1260,740 Z" /><path d="M 1640,1350 L 1640,1450 L 1775,1450 L 1820,1450 L 1945,1450 L 2060,1450 L 2060,1350 L 1945,1350 L 1820,1350 L 1775,1350 Z" /><path d="M 1560,1730 L 1470,1730 L 1380,1730 L 1380,1830 L 1470,1830 L 1560,1830 L 2035,1830 L 2120,1830 L 2205,1830 L 2205,1730 L 2120,1730 L 2035,1730 Z" /><path d="M 1120,1640 L 1210,1640 L 1300,1640 L 1300,1540 L 1210,1540 L 1120,1540 L 645,1540 L 560,1540 L 475,1540 L 475,1640 L 560,1640 L 645,1640 Z" /><path d="M 780,1350 L 700,1350 L 600,1350 L 600,1450 L 700,1450 L 780,1450 L 1255,1450 L 1340,1450 L 1425,1450 L 1425,1350 L 1340,1350 L 1255,1350 Z" /><path d="M 520,1730 L 430,1730 L 340,1730 L 340,1830 L 430,1830 L 520,1830 L 995,1830 L 1080,1830 L 1165,1830 L 1165,1730 L 1080,1730 L 995,1730 Z" /></g></g><g id="VIA1"><g class="l51d0"><path d="M 1940,2430 L 2040,2430 L 2040,2530 L 1940,2530 Z" /><path d="M 1420,2310 L 1520,2310 L 1520,2410 L 1420,2410 Z" /><path d="M 380,880 L 480,880 L 480,780 L 380,780 Z" /><path d="M 380,2430 L 480,2430 L 480,2530 L 380,2530 Z" /><path d="M 2200,940 L 2300,940 L 2300,840 L 2200,840 Z" /><path d="M 1160,880 L 1260,880 L 1260,780 L 1160,780 Z" /><path d="M 1680,1350 L 1780,1350 L 1780,1450 L 1680,1450 Z" /><path d="M 1420,1730 L 1520,1730 L 1520,1830 L 1420,1830 Z" /><path d="M 1160,1540 L 1260,1540 L 1260,1640 L 1160,1640 Z" /><path d="M 640,1350 L 740,1350 L 740,1450 L 640,1450 Z" /><path d="M 380,1730 L 480,1730 L 480,1830 L 380,1830 Z" /></g></g><g id="M2"><g class="l32d0"><path d="M 1940,2480 L 1940,2570 L 2040,2570 L 2040,2480 L 2040,2390 L 2040,940 L 2160,940 L 2250,940 L 2340,940 L 2340,840 L 2250,840 L 2160,840 L 2040,840 L 1940,840 L 1940,940 L 1940,2390 Z" /><path d="M 1210,780 L 1120,780 L 1120,880 L 1210,880 L 1300,880 L 1420,880 L 1420,1690 L 1420,1870 L 1420,2270 L 1420,2360 L 1420,2450 L 1520,2450 L 1520,2360 L 1520,2270 L 1520,1870 L 1520,1690 L 1520,880 L 1520,780 L 1420,780 L 1300,780 Z" /><path d="M 480,1870 L 480,1690 L 480,920 L 480,830 L 480,740 L 380,740 L 380,830 L 380,920 L 380,1690 L 380,1870 L 380,2390 L 380,2480 L 380,2570 L 480,2570 L 480,2480 L 480,2390 Z" /><path d="M 1780,1100 L 1680,1100 L 1680,1245 L 1680,1310 L 1680,1425 L 1680,1490 L 1680,1620 L 1780,1620 L 1780,1490 L 1780,1425 L 1780,1310 L 1780,1245 Z" /><path d="M 1260,1195 L 1160,1195 L 1160,1445 L 1160,1500 L 1160,1625 L 1160,1680 L 1160,1715 L 1260,1715 L 1260,1680 L 1260,1625 L 1260,1500 L 1260,1445 Z" /><path d="M 640,1195 L 640,1310 L 640,1400 L 640,1445 L 640,1490 L 640,1585 L 640,1625 L 640,1715 L 740,1715 L 740,1625 L 740,1585 L 740,1490 L 740,1445 L 740,1400 L 740,1310 L 740,1195 Z" /></g></g><g id="VIA2"><g class="l52d0"><path d="M 1680,1285 L 1780,1285 L 1780,1385 L 1680,1385 Z" /><path d="M 1160,1485 L 1260,1485 L 1260,1585 L 1160,1585 Z" /><path d="M 640,1485 L 740,1485 L 740,1585 L 640,1585 Z" /></g></g><g id="M3"><g class="l33d0"><path d="M 1300,1585 L 2380,1585 L 2380,1485 L 1300,1485 L 1210,1485 L 1120,1485 L 1120,1585 L 1210,1585 Z" /><path d="M 300,1585 L 600,1585 L 690,1585 L 780,1585 L 820,1585 L 820,1485 L 780,1485 L 690,1485 L 600,1485 L 300,1485 Z" /><path d="M 1470,1285 L 1470,1385 L 1640,1385 L 1820,1385 L 1990,1385 L 1990,1285 L 1820,1285 L 1640,1285 Z" /></g></g><g id="VIA3"><g class="l53d0"><path d="M 1680,1285 L 1780,1285 L 1780,1385 L 1680,1385 Z" /></g></g><g id="M4"><g class="l34d0"><path d="M 1780,1245 L 1780,215 L 1680,215 L 1680,1245 L 1680,1335 L 1680,1425 L 1780,1425 L 1780,1335 Z" /></g></g></g></svg>