<svg width="11530" height="3550" viewBox="-5 -3545 11530 3550" xmlns="http://www.w3.org/2000/svg" xmlns:xlink="http://www.w3.org/1999/xlink"><defs><style type="text/css">.l3d0 {fill: #fef9e7; fill-opacity: 0.5; stroke-width: 10; stroke: #f1c40f; stroke-linecap: round; stroke-linejoin: round; stroke-opacity: 0.2;}.l25d0 {fill: #8e44ad; fill-opacity: 0.05; stroke-width: 10; stroke: #8e44ad; stroke-linecap: round; stroke-linejoin: round; stroke-opacity: 1;}.l26d0 {fill: #ccd1d1; fill-opacity: 0.05; stroke-width: 10; stroke: #ccd1d1; stroke-linecap: round; stroke-linejoin: round; stroke-opacity: 1;}.l6d0 {fill: #f5b7b1; fill-opacity: 1; stroke-width: 10; stroke: #e74c3c; stroke-linecap: round; stroke-linejoin: round; stroke-opacity: 1;}.l17d0 {fill: #2980b9; fill-opacity: 1; stroke-width: 0; stroke: #000000; stroke-linecap: round; stroke-linejoin: round; stroke-opacity: 0;}.l30d0 {fill: #27ae60; fill-opacity: 1; stroke-width: 0; stroke: #000000; stroke-linecap: round; stroke-linejoin: round; stroke-opacity: 0;}.l31d0 {fill: #85c1e9; fill-opacity: 0.6; stroke-width: 0; stroke: #000000; stroke-linecap: round; stroke-linejoin: round; stroke-opacity: 0;}.l51d0 {fill: #f39c12; fill-opacity: 1; stroke-width: 10; stroke: #f39c12; stroke-linecap: round; stroke-linejoin: round; stroke-opacity: 1;}.l32d0 {fill: #f7dc6f; fill-opacity: 0.6; stroke-width: 0; stroke: #000000; stroke-linecap: round; stroke-linejoin: round; stroke-opacity: 0;}.l52d0 {fill: #a04000; fill-opacity: 1; stroke-width: 10; stroke: #a04000; stroke-linecap: round; stroke-linejoin: round; stroke-opacity: 1;}.l33d0 {fill: #16a085; fill-opacity: 0.6; stroke-width: 0; stroke: #000000; stroke-linecap: round; stroke-linejoin: round; stroke-opacity: 0;}path {fill-rule: evenodd;}</style></defs><g transform="scale(1 -1)"><g id="NW"><g class="l3d0"><path d="M 9205,1900 L 8945,1900 L 8685,1900 L 8555,1900 L 8425,1900 L 8295,1900 L 8035,1900 L 7775,1900 L 6060,1900 L 5460,1900 L 5280,1900 L 3745,1900 L 3485,1900 L 3225,1900 L 3095,1900 L 2965,1900 L 2835,1900 L 2575,1900 L 2315,1900 L 0,1900 L 0,3540 L 5280,3540 L 5460,3540 L 6060,3540 L 10740,3540 L 11520,3540 L 11520,1900 L 10740,1900 Z" /></g></g><g id="PP"><g class="l25d0"><path d="M 11350,0 L 10570,0 L 5890,0 L 5630,0 L 5110,0 L 170,0 L 170,430 L 5110,430 L 5630,430 L 5890,430 L 10570,430 L 11350,430 Z" /><path d="M 5890,1685 L 5630,1685 L 5110,1685 L 170,1685 L 170,2940 L 325,2940 L 585,2940 L 795,2940 L 845,2940 L 1055,2940 L 1105,2940 L 1315,2940 L 1365,2940 L 1575,2940 L 1835,2940 L 1885,2940 L 2145,2940 L 2355,2940 L 2405,2940 L 2615,2940 L 2665,2940 L 2875,2940 L 2925,2940 L 3135,2940 L 3185,2940 L 3395,2940 L 3655,2940 L 3705,2940 L 3965,2940 L 4175,2940 L 4225,2940 L 4435,2940 L 4485,2940 L 4695,2940 L 4955,2940 L 5005,2940 L 5110,2940 L 5265,2940 L 5475,2940 L 5630,2940 L 5735,2940 L 5785,2940 L 5890,2940 L 6045,2940 L 6255,2940 L 6305,2940 L 6515,2940 L 6565,2940 L 6775,2940 L 6825,2940 L 7035,2940 L 7295,2940 L 7345,2940 L 7605,2940 L 7815,2940 L 7865,2940 L 8075,2940 L 8125,2940 L 8335,2940 L 8385,2940 L 8595,2940 L 8645,2940 L 8855,2940 L 9115,2940 L 9165,2940 L 9425,2940 L 9635,2940 L 9685,2940 L 9895,2940 L 9945,2940 L 10155,2940 L 10415,2940 L 10465,2940 L 10570,2940 L 10725,2940 L 10935,2940 L 11195,2940 L 11350,2940 L 11350,1685 L 10570,1685 Z" /></g></g><g id="NP"><g class="l26d0"><path d="M 11350,2940 L 10570,2940 L 5890,2940 L 5630,2940 L 5110,2940 L 170,2940 L 170,3370 L 5110,3370 L 5630,3370 L 5890,3370 L 10570,3370 L 11350,3370 Z" /><path d="M 10935,430 L 10725,430 L 10570,430 L 10465,430 L 10415,430 L 10155,430 L 9945,430 L 9895,430 L 9685,430 L 9635,430 L 9425,430 L 9165,430 L 9115,430 L 8855,430 L 8645,430 L 8595,430 L 8385,430 L 8335,430 L 8125,430 L 8075,430 L 7865,430 L 7815,430 L 7605,430 L 7345,430 L 7295,430 L 7035,430 L 6825,430 L 6775,430 L 6565,430 L 6515,430 L 6305,430 L 6255,430 L 6045,430 L 5890,430 L 5785,430 L 5735,430 L 5630,430 L 5475,430 L 5265,430 L 5110,430 L 5005,430 L 4955,430 L 4695,430 L 4485,430 L 4435,430 L 4225,430 L 4175,430 L 3965,430 L 3705,430 L 3655,430 L 3395,430 L 3185,430 L 3135,430 L 2925,430 L 2875,430 L 2665,430 L 2615,430 L 2405,430 L 2355,430 L 2145,430 L 1885,430 L 1835,430 L 1575,430 L 1365,430 L 1315,430 L 1105,430 L 1055,430 L 845,430 L 795,430 L 585,430 L 325,430 L 170,430 L 170,1685 L 5110,1685 L 5630,1685 L 5890,1685 L 10570,1685 L 11350,1685 L 11350,430 L 11195,430 Z" /></g></g><g id="OD"><g class="l6d0"><path d="M 9950,770 L 9890,770 L 9815,770 L 9765,770 L 9690,770 L 9630,770 L 9555,770 L 9555,1010 L 9630,1010 L 9690,1010 L 9765,1010 L 9815,1010 L 9890,1010 L 9950,1010 L 10025,1010 L 10075,1010 L 10150,1010 L 10210,1010 L 10285,1010 L 10370,1010 L 10370,770 L 10285,770 L 10210,770 L 10150,770 L 10075,770 L 10025,770 Z" /><path d="M 9554,1010 L 9554,770 L 9505,770 L 9430,770 L 9370,770 L 9295,770 L 9210,770 L 9210,1010 L 9295,1010 L 9370,1010 L 9430,1010 L 9505,1010 Z" /><path d="M 9950,2360 L 9890,2360 L 9815,2360 L 9765,2360 L 9690,2360 L 9630,2360 L 9555,2360 L 9555,2600 L 9630,2600 L 9690,2600 L 9765,2600 L 9815,2600 L 9890,2600 L 9950,2600 L 10025,2600 L 10075,2600 L 10150,2600 L 10210,2600 L 10285,2600 L 10370,2600 L 10370,2360 L 10285,2360 L 10210,2360 L 10150,2360 L 10075,2360 L 10025,2360 Z" /><path d="M 9210,2360 L 9210,2600 L 9295,2600 L 9370,2600 L 9430,2600 L 9505,2600 L 9554,2600 L 9554,2360 L 9505,2360 L 9430,2360 L 9370,2360 L 9295,2360 Z" /><path d="M 6435,2360 L 6385,2360 L 6310,2360 L 6250,2360 L 6175,2360 L 6125,2360 L 6050,2360 L 5990,2360 L 5915,2360 L 5830,2360 L 5830,2600 L 5915,2600 L 5990,2600 L 6050,2600 L 6125,2600 L 6175,2600 L 6250,2600 L 6310,2600 L 6385,2600 L 6435,2600 L 6510,2600 L 6570,2600 L 6645,2600 L 6695,2600 L 6770,2600 L 6830,2600 L 6905,2600 L 6955,2600 L 7030,2600 L 7090,2600 L 7165,2600 L 7250,2600 L 7250,2360 L 7165,2360 L 7090,2360 L 7030,2360 L 6955,2360 L 6905,2360 L 6830,2360 L 6770,2360 L 6695,2360 L 6645,2360 L 6570,2360 L 6510,2360 Z" /><path d="M 8850,1130 L 8910,1130 L 8985,1130 L 9070,1130 L 9070,770 L 8985,770 L 8910,770 L 8850,770 L 8775,770 L 8725,770 L 8650,770 L 8590,770 L 8515,770 L 8465,770 L 8390,770 L 8330,770 L 8255,770 L 8205,770 L 8130,770 L 8070,770 L 7995,770 L 7945,770 L 7870,770 L 7810,770 L 7735,770 L 7685,770 L 7610,770 L 7550,770 L 7475,770 L 7390,770 L 7390,1010 L 7475,1010 L 7550,1010 L 7610,1010 L 7685,1010 L 7735,1010 L 7810,1010 L 7870,1010 L 7945,1010 L 7945,1130 L 7995,1130 L 8070,1130 L 8130,1130 L 8205,1130 L 8255,1130 L 8330,1130 L 8390,1130 L 8465,1130 L 8515,1130 L 8590,1130 L 8650,1130 L 8725,1130 L 8775,1130 Z" /><path d="M 6385,1010 L 6385,1130 L 6435,1130 L 6510,1130 L 6570,1130 L 6645,1130 L 6695,1130 L 6770,1130 L 6830,1130 L 6905,1130 L 6955,1130 L 7030,1130 L 7090,1130 L 7165,1130 L 7250,1130 L 7250,770 L 7165,770 L 7090,770 L 7030,770 L 6955,770 L 6905,770 L 6830,770 L 6770,770 L 6695,770 L 6645,770 L 6570,770 L 6510,770 L 6435,770 L 6385,770 L 6310,770 L 6250,770 L 6175,770 L 6125,770 L 6050,770 L 5990,770 L 5915,770 L 5830,770 L 5830,1010 L 5915,1010 L 5990,1010 L 6050,1010 L 6125,1010 L 6175,1010 L 6250,1010 L 6310,1010 Z" /><path d="M 8850,2600 L 8910,2600 L 8985,2600 L 9070,2600 L 9070,2120 L 8985,2120 L 8910,2120 L 8850,2120 L 8775,2120 L 8725,2120 L 8650,2120 L 8590,2120 L 8515,2120 L 8465,2120 L 8390,2120 L 8330,2120 L 8255,2120 L 8205,2120 L 8130,2120 L 8070,2120 L 7995,2120 L 7945,2120 L 7945,2360 L 7870,2360 L 7810,2360 L 7735,2360 L 7685,2360 L 7610,2360 L 7550,2360 L 7475,2360 L 7390,2360 L 7390,2600 L 7475,2600 L 7550,2600 L 7610,2600 L 7685,2600 L 7735,2600 L 7810,2600 L 7870,2600 L 7945,2600 L 7995,2600 L 8070,2600 L 8130,2600 L 8205,2600 L 8255,2600 L 8330,2600 L 8390,2600 L 8465,2600 L 8515,2600 L 8590,2600 L 8650,2600 L 8725,2600 L 8775,2600 Z" /><path d="M 10855,890 L 10930,890 L 10990,890 L 11065,890 L 11165,890 L 11165,770 L 11065,770 L 10990,770 L 10930,770 L 10855,770 L 10805,770 L 10730,770 L 10670,770 L 10595,770 L 10495,770 L 10495,890 L 10595,890 L 10670,890 L 10730,890 L 10805,890 Z" /><path d="M 10855,2600 L 10930,2600 L 10990,2600 L 11065,2600 L 11150,2600 L 11150,2360 L 11065,2360 L 10990,2360 L 10930,2360 L 10855,2360 L 10805,2360 L 10730,2360 L 10670,2360 L 10595,2360 L 10510,2360 L 10510,2600 L 10595,2600 L 10670,2600 L 10730,2600 L 10805,2600 Z" /><path d="M 11220,130 L 10440,130 L 5760,130 L 4980,130 L 300,130 L 300,300 L 4980,300 L 5760,300 L 10440,300 L 11220,300 Z" /><path d="M 11220,3070 L 10440,3070 L 5760,3070 L 4980,3070 L 300,3070 L 300,3240 L 4980,3240 L 5760,3240 L 10440,3240 L 11220,3240 Z" /><path d="M 4490,770 L 4430,770 L 4355,770 L 4305,770 L 4230,770 L 4170,770 L 4095,770 L 4095,1010 L 4170,1010 L 4230,1010 L 4305,1010 L 4355,1010 L 4430,1010 L 4490,1010 L 4565,1010 L 4615,1010 L 4690,1010 L 4750,1010 L 4825,1010 L 4910,1010 L 4910,770 L 4825,770 L 4750,770 L 4690,770 L 4615,770 L 4565,770 Z" /><path d="M 4094,1010 L 4094,770 L 4045,770 L 3970,770 L 3910,770 L 3835,770 L 3750,770 L 3750,1010 L 3835,1010 L 3910,1010 L 3970,1010 L 4045,1010 Z" /><path d="M 4490,2360 L 4430,2360 L 4355,2360 L 4305,2360 L 4230,2360 L 4170,2360 L 4095,2360 L 4095,2600 L 4170,2600 L 4230,2600 L 4305,2600 L 4355,2600 L 4430,2600 L 4490,2600 L 4565,2600 L 4615,2600 L 4690,2600 L 4750,2600 L 4825,2600 L 4910,2600 L 4910,2360 L 4825,2360 L 4750,2360 L 4690,2360 L 4615,2360 L 4565,2360 Z" /><path d="M 3750,2360 L 3750,2600 L 3835,2600 L 3910,2600 L 3970,2600 L 4045,2600 L 4094,2600 L 4094,2360 L 4045,2360 L 3970,2360 L 3910,2360 L 3835,2360 Z" /><path d="M 975,2360 L 925,2360 L 850,2360 L 790,2360 L 715,2360 L 665,2360 L 590,2360 L 530,2360 L 455,2360 L 370,2360 L 370,2600 L 455,2600 L 530,2600 L 590,2600 L 665,2600 L 715,2600 L 790,2600 L 850,2600 L 925,2600 L 975,2600 L 1050,2600 L 1110,2600 L 1185,2600 L 1235,2600 L 1310,2600 L 1370,2600 L 1445,2600 L 1495,2600 L 1570,2600 L 1630,2600 L 1705,2600 L 1790,2600 L 1790,2360 L 1705,2360 L 1630,2360 L 1570,2360 L 1495,2360 L 1445,2360 L 1370,2360 L 1310,2360 L 1235,2360 L 1185,2360 L 1110,2360 L 1050,2360 Z" /><path d="M 3390,1130 L 3450,1130 L 3525,1130 L 3610,1130 L 3610,770 L 3525,770 L 3450,770 L 3390,770 L 3315,770 L 3265,770 L 3190,770 L 3130,770 L 3055,770 L 3005,770 L 2930,770 L 2870,770 L 2795,770 L 2745,770 L 2670,770 L 2610,770 L 2535,770 L 2485,770 L 2410,770 L 2350,770 L 2275,770 L 2225,770 L 2150,770 L 2090,770 L 2015,770 L 1930,770 L 1930,1010 L 2015,1010 L 2090,1010 L 2150,1010 L 2225,1010 L 2275,1010 L 2350,1010 L 2410,1010 L 2485,1010 L 2485,1130 L 2535,1130 L 2610,1130 L 2670,1130 L 2745,1130 L 2795,1130 L 2870,1130 L 2930,1130 L 3005,1130 L 3055,1130 L 3130,1130 L 3190,1130 L 3265,1130 L 3315,1130 Z" /><path d="M 925,1010 L 925,1130 L 975,1130 L 1050,1130 L 1110,1130 L 1185,1130 L 1235,1130 L 1310,1130 L 1370,1130 L 1445,1130 L 1495,1130 L 1570,1130 L 1630,1130 L 1705,1130 L 1790,1130 L 1790,770 L 1705,770 L 1630,770 L 1570,770 L 1495,770 L 1445,770 L 1370,770 L 1310,770 L 1235,770 L 1185,770 L 1110,770 L 1050,770 L 975,770 L 925,770 L 850,770 L 790,770 L 715,770 L 665,770 L 590,770 L 530,770 L 455,770 L 370,770 L 370,1010 L 455,1010 L 530,1010 L 590,1010 L 665,1010 L 715,1010 L 790,1010 L 850,1010 Z" /><path d="M 3390,2600 L 3450,2600 L 3525,2600 L 3610,2600 L 3610,2120 L 3525,2120 L 3450,2120 L 3390,2120 L 3315,2120 L 3265,2120 L 3190,2120 L 3130,2120 L 3055,2120 L 3005,2120 L 2930,2120 L 2870,2120 L 2795,2120 L 2745,2120 L 2670,2120 L 2610,2120 L 2535,2120 L 2485,2120 L 2485,2360 L 2410,2360 L 2350,2360 L 2275,2360 L 2225,2360 L 2150,2360 L 2090,2360 L 2015,2360 L 1930,2360 L 1930,2600 L 2015,2600 L 2090,2600 L 2150,2600 L 2225,2600 L 2275,2600 L 2350,2600 L 2410,2600 L 2485,2600 L 2535,2600 L 2610,2600 L 2670,2600 L 2745,2600 L 2795,2600 L 2870,2600 L 2930,2600 L 3005,2600 L 3055,2600 L 3130,2600 L 3190,2600 L 3265,2600 L 3315,2600 Z" /><path d="M 5395,890 L 5470,890 L 5530,890 L 5605,890 L 5705,890 L 5705,770 L 5605,770 L 5530,770 L 5470,770 L 5395,770 L 5345,770 L 5270,770 L 5210,770 L 5135,770 L 5035,770 L 5035,890 L 5135,890 L 5210,890 L 5270,890 L 5345,890 Z" /><path d="M 5395,2600 L 5470,2600 L 5530,2600 L 5605,2600 L 5690,2600 L 5690,2360 L 5605,2360 L 5530,2360 L 5470,2360 L 5395,2360 L 5345,2360 L 5270,2360 L 5210,2360 L 5135,2360 L 5050,2360 L 5050,2600 L 5135,2600 L 5210,2600 L 5270,2600 L 5345,2600 Z" /></g></g><g id="PO"><g class="l17d0"><path d="M 6050,1010 L 6050,770 L 6050,630 L 5990,630 L 5990,770 L 5990,1010 L 5990,1150 L 5990,1505 L 5965,1505 L 5965,1675 L 5990,1675 L 5990,2220 L 5990,2360 L 5990,2600 L 5990,2740 L 6050,2740 L 6050,2600 L 6050,2360 L 6050,2220 L 6050,1675 L 6075,1675 L 6075,1505 L 6050,1505 L 6050,1150 Z" /><path d="M 7610,1010 L 7610,770 L 7610,630 L 7550,630 L 7550,770 L 7550,1010 L 7550,1150 L 7550,1400 L 7550,2110 L 7525,2110 L 7525,2280 L 7550,2280 L 7550,2360 L 7550,2600 L 7550,2740 L 7610,2740 L 7610,2600 L 7610,2360 L 7610,2280 L 7635,2280 L 7635,2110 L 7610,2110 L 7610,1400 L 7610,1150 Z" /><path d="M 6250,2360 L 6250,2600 L 6250,2740 L 6310,2740 L 6310,2600 L 6310,2360 L 6310,2220 L 6310,2055 L 6335,2055 L 6335,1885 L 6310,1885 L 6310,1150 L 6310,1010 L 6310,770 L 6310,630 L 6250,630 L 6250,770 L 6250,1010 L 6250,1150 L 6250,1885 L 6225,1885 L 6225,2055 L 6250,2055 L 6250,2220 Z" /><path d="M 6510,2360 L 6510,2600 L 6510,2740 L 6570,2740 L 6570,2600 L 6570,2360 L 6570,2220 L 6570,1865 L 6600,1865 L 6600,1695 L 6570,1695 L 6570,1270 L 6570,1130 L 6570,770 L 6570,630 L 6510,630 L 6510,770 L 6510,1130 L 6510,1270 L 6510,1695 L 6480,1695 L 6480,1865 L 6510,1865 L 6510,2220 Z" /><path d="M 8130,1130 L 8130,770 L 8130,630 L 8070,630 L 8070,770 L 8070,1130 L 8070,1270 L 8070,1315 L 8040,1315 L 8040,1485 L 8070,1485 L 8070,1980 L 8070,2120 L 8070,2600 L 8070,2740 L 8130,2740 L 8130,2600 L 8130,2120 L 8130,1980 L 8130,1485 L 8160,1485 L 8160,1315 L 8130,1315 L 8130,1270 Z" /><path d="M 8390,1270 L 8390,1130 L 8390,770 L 8390,630 L 8330,630 L 8330,770 L 8330,1130 L 8330,1270 L 8330,1695 L 8300,1695 L 8300,1865 L 8330,1865 L 8330,1980 L 8330,2120 L 8330,2600 L 8330,2740 L 8390,2740 L 8390,2600 L 8390,2120 L 8390,1980 L 8389,1980 L 8389,1865 L 8420,1865 L 8420,1695 L 8389,1695 L 8389,1270 Z" /><path d="M 7870,1150 L 7870,1010 L 7870,770 L 7870,630 L 7810,630 L 7810,770 L 7810,1010 L 7810,1150 L 7810,1695 L 7780,1695 L 7780,1865 L 7810,1865 L 7810,2220 L 7810,2360 L 7810,2600 L 7810,2740 L 7870,2740 L 7870,2600 L 7870,2360 L 7870,2220 L 7869,2220 L 7869,1865 L 7900,1865 L 7900,1695 L 7869,1695 L 7869,1150 Z" /><path d="M 7030,2360 L 7030,2600 L 7030,2740 L 7090,2740 L 7090,2600 L 7090,2360 L 7090,2220 L 7090,1865 L 7120,1865 L 7120,1695 L 7090,1695 L 7090,1270 L 7090,1130 L 7090,770 L 7090,630 L 7030,630 L 7030,770 L 7030,1130 L 7030,1270 L 7030,1695 L 7000,1695 L 7000,1865 L 7030,1865 L 7030,2220 Z" /><path d="M 6770,2360 L 6770,2600 L 6770,2740 L 6830,2740 L 6830,2600 L 6830,2360 L 6830,2220 L 6830,1485 L 6860,1485 L 6860,1315 L 6830,1315 L 6830,1270 L 6830,1130 L 6830,770 L 6830,630 L 6770,630 L 6770,770 L 6770,1130 L 6770,1270 L 6770,1315 L 6740,1315 L 6740,1485 L 6770,1485 L 6770,2220 Z" /><path d="M 8910,1270 L 8910,1130 L 8910,770 L 8910,630 L 8850,630 L 8850,770 L 8850,1130 L 8850,1270 L 8850,1505 L 8820,1505 L 8820,1675 L 8850,1675 L 8850,1980 L 8850,2120 L 8850,2600 L 8850,2740 L 8910,2740 L 8910,2600 L 8910,2120 L 8910,1980 L 8909,1980 L 8909,1675 L 8940,1675 L 8940,1505 L 8909,1505 L 8909,1270 Z" /><path d="M 9950,1010 L 9950,770 L 9950,630 L 9890,630 L 9890,770 L 9890,1010 L 9890,1150 L 9890,2110 L 9860,2110 L 9860,2280 L 9890,2280 L 9890,2360 L 9890,2600 L 9890,2740 L 9950,2740 L 9950,2600 L 9950,2360 L 9950,2280 L 9980,2280 L 9980,2110 L 9950,2110 L 9950,1150 Z" /><path d="M 8650,1130 L 8650,770 L 8650,630 L 8590,630 L 8590,770 L 8590,1130 L 8590,1270 L 8590,1885 L 8560,1885 L 8560,2055 L 8590,2055 L 8590,2120 L 8590,2600 L 8590,2740 L 8650,2740 L 8650,2600 L 8650,2120 L 8650,2055 L 8680,2055 L 8680,1885 L 8650,1885 L 8650,1270 Z" /><path d="M 10150,2220 L 10150,2360 L 10150,2600 L 10150,2740 L 10210,2740 L 10210,2600 L 10210,2360 L 10210,2220 L 10210,1865 L 10240,1865 L 10240,1695 L 10210,1695 L 10210,1150 L 10210,1010 L 10210,770 L 10210,630 L 10150,630 L 10150,770 L 10150,1010 L 10150,1150 L 10149,1150 L 10149,1695 L 10120,1695 L 10120,1865 L 10149,1865 L 10149,2220 Z" /><path d="M 9690,1010 L 9690,770 L 9690,630 L 9630,630 L 9630,770 L 9630,1010 L 9630,1150 L 9630,1505 L 9600,1505 L 9600,1675 L 9630,1675 L 9630,2220 L 9630,2360 L 9630,2600 L 9630,2740 L 9690,2740 L 9690,2600 L 9690,2360 L 9690,2220 L 9690,1675 L 9720,1675 L 9720,1505 L 9690,1505 L 9690,1150 Z" /><path d="M 9430,1150 L 9430,1010 L 9430,770 L 9430,630 L 9370,630 L 9370,770 L 9370,1010 L 9370,1150 L 9370,1885 L 9340,1885 L 9340,2055 L 9370,2055 L 9370,2220 L 9370,2360 L 9370,2600 L 9370,2740 L 9430,2740 L 9430,2600 L 9430,2360 L 9430,2220 L 9429,2220 L 9429,2055 L 9460,2055 L 9460,1885 L 9429,1885 L 9429,1150 Z" /><path d="M 10990,890 L 10990,770 L 10990,630 L 10930,630 L 10930,770 L 10930,890 L 10930,1030 L 10930,1695 L 10900,1695 L 10900,1865 L 10930,1865 L 10930,2220 L 10930,2360 L 10930,2600 L 10930,2740 L 10990,2740 L 10990,2600 L 10990,2360 L 10990,2220 L 10990,1865 L 11020,1865 L 11020,1695 L 10990,1695 L 10990,1030 Z" /><path d="M 10670,2360 L 10670,2600 L 10670,2740 L 10730,2740 L 10730,2600 L 10730,2360 L 10730,2220 L 10730,1675 L 10760,1675 L 10760,1505 L 10730,1505 L 10730,1030 L 10730,890 L 10730,770 L 10730,630 L 10670,630 L 10670,770 L 10670,890 L 10670,1030 L 10670,1505 L 10640,1505 L 10640,1675 L 10670,1675 L 10670,2220 Z" /><path d="M 590,1010 L 590,770 L 590,630 L 530,630 L 530,770 L 530,1010 L 530,1150 L 530,1505 L 505,1505 L 505,1675 L 530,1675 L 530,2220 L 530,2360 L 530,2600 L 530,2740 L 590,2740 L 590,2600 L 590,2360 L 590,2220 L 590,1675 L 615,1675 L 615,1505 L 590,1505 L 590,1150 Z" /><path d="M 2150,1010 L 2150,770 L 2150,630 L 2090,630 L 2090,770 L 2090,1010 L 2090,1150 L 2090,1400 L 2090,2110 L 2065,2110 L 2065,2280 L 2090,2280 L 2090,2360 L 2090,2600 L 2090,2740 L 2150,2740 L 2150,2600 L 2150,2360 L 2150,2280 L 2175,2280 L 2175,2110 L 2150,2110 L 2150,1400 L 2150,1150 Z" /><path d="M 790,2360 L 790,2600 L 790,2740 L 850,2740 L 850,2600 L 850,2360 L 850,2220 L 850,2055 L 875,2055 L 875,1885 L 850,1885 L 850,1150 L 850,1010 L 850,770 L 850,630 L 790,630 L 790,770 L 790,1010 L 790,1150 L 790,1885 L 765,1885 L 765,2055 L 790,2055 L 790,2220 Z" /><path d="M 1050,2360 L 1050,2600 L 1050,2740 L 1110,2740 L 1110,2600 L 1110,2360 L 1110,2220 L 1110,1865 L 1140,1865 L 1140,1695 L 1110,1695 L 1110,1270 L 1110,1130 L 1110,770 L 1110,630 L 1050,630 L 1050,770 L 1050,1130 L 1050,1270 L 1050,1695 L 1020,1695 L 1020,1865 L 1050,1865 L 1050,2220 Z" /><path d="M 2670,1130 L 2670,770 L 2670,630 L 2610,630 L 2610,770 L 2610,1130 L 2610,1270 L 2610,1315 L 2580,1315 L 2580,1485 L 2610,1485 L 2610,1980 L 2610,2120 L 2610,2600 L 2610,2740 L 2670,2740 L 2670,2600 L 2670,2120 L 2670,1980 L 2670,1485 L 2700,1485 L 2700,1315 L 2670,1315 L 2670,1270 Z" /><path d="M 2930,1270 L 2930,1130 L 2930,770 L 2930,630 L 2870,630 L 2870,770 L 2870,1130 L 2870,1270 L 2870,1695 L 2840,1695 L 2840,1865 L 2870,1865 L 2870,1980 L 2870,2120 L 2870,2600 L 2870,2740 L 2930,2740 L 2930,2600 L 2930,2120 L 2930,1980 L 2929,1980 L 2929,1865 L 2960,1865 L 2960,1695 L 2929,1695 L 2929,1270 Z" /><path d="M 2410,1150 L 2410,1010 L 2410,770 L 2410,630 L 2350,630 L 2350,770 L 2350,1010 L 2350,1150 L 2350,1695 L 2320,1695 L 2320,1865 L 2350,1865 L 2350,2220 L 2350,2360 L 2350,2600 L 2350,2740 L 2410,2740 L 2410,2600 L 2410,2360 L 2410,2220 L 2409,2220 L 2409,1865 L 2440,1865 L 2440,1695 L 2409,1695 L 2409,1150 Z" /><path d="M 1570,2360 L 1570,2600 L 1570,2740 L 1630,2740 L 1630,2600 L 1630,2360 L 1630,2220 L 1630,1865 L 1660,1865 L 1660,1695 L 1630,1695 L 1630,1270 L 1630,1130 L 1630,770 L 1630,630 L 1570,630 L 1570,770 L 1570,1130 L 1570,1270 L 1570,1695 L 1540,1695 L 1540,1865 L 1570,1865 L 1570,2220 Z" /><path d="M 1310,2360 L 1310,2600 L 1310,2740 L 1370,2740 L 1370,2600 L 1370,2360 L 1370,2220 L 1370,1485 L 1400,1485 L 1400,1315 L 1370,1315 L 1370,1270 L 1370,1130 L 1370,770 L 1370,630 L 1310,630 L 1310,770 L 1310,1130 L 1310,1270 L 1310,1315 L 1280,1315 L 1280,1485 L 1310,1485 L 1310,2220 Z" /><path d="M 3450,1270 L 3450,1130 L 3450,770 L 3450,630 L 3390,630 L 3390,770 L 3390,1130 L 3390,1270 L 3390,1505 L 3360,1505 L 3360,1675 L 3390,1675 L 3390,1980 L 3390,2120 L 3390,2600 L 3390,2740 L 3450,2740 L 3450,2600 L 3450,2120 L 3450,1980 L 3449,1980 L 3449,1675 L 3480,1675 L 3480,1505 L 3449,1505 L 3449,1270 Z" /><path d="M 4490,1010 L 4490,770 L 4490,630 L 4430,630 L 4430,770 L 4430,1010 L 4430,1150 L 4430,2110 L 4400,2110 L 4400,2280 L 4430,2280 L 4430,2360 L 4430,2600 L 4430,2740 L 4490,2740 L 4490,2600 L 4490,2360 L 4490,2280 L 4520,2280 L 4520,2110 L 4490,2110 L 4490,1150 Z" /><path d="M 3190,1130 L 3190,770 L 3190,630 L 3130,630 L 3130,770 L 3130,1130 L 3130,1270 L 3130,1885 L 3100,1885 L 3100,2055 L 3130,2055 L 3130,2120 L 3130,2600 L 3130,2740 L 3190,2740 L 3190,2600 L 3190,2120 L 3190,2055 L 3220,2055 L 3220,1885 L 3190,1885 L 3190,1270 Z" /><path d="M 4690,2220 L 4690,2360 L 4690,2600 L 4690,2740 L 4750,2740 L 4750,2600 L 4750,2360 L 4750,2220 L 4750,1865 L 4780,1865 L 4780,1695 L 4750,1695 L 4750,1150 L 4750,1010 L 4750,770 L 4750,630 L 4690,630 L 4690,770 L 4690,1010 L 4690,1150 L 4689,1150 L 4689,1695 L 4660,1695 L 4660,1865 L 4689,1865 L 4689,2220 Z" /><path d="M 4230,1010 L 4230,770 L 4230,630 L 4170,630 L 4170,770 L 4170,1010 L 4170,1150 L 4170,1505 L 4140,1505 L 4140,1675 L 4170,1675 L 4170,2220 L 4170,2360 L 4170,2600 L 4170,2740 L 4230,2740 L 4230,2600 L 4230,2360 L 4230,2220 L 4230,1675 L 4260,1675 L 4260,1505 L 4230,1505 L 4230,1150 Z" /><path d="M 3970,1150 L 3970,1010 L 3970,770 L 3970,630 L 3910,630 L 3910,770 L 3910,1010 L 3910,1150 L 3910,1885 L 3880,1885 L 3880,2055 L 3910,2055 L 3910,2220 L 3910,2360 L 3910,2600 L 3910,2740 L 3970,2740 L 3970,2600 L 3970,2360 L 3970,2220 L 3969,2220 L 3969,2055 L 4000,2055 L 4000,1885 L 3969,1885 L 3969,1150 Z" /><path d="M 5530,890 L 5530,770 L 5530,630 L 5470,630 L 5470,770 L 5470,890 L 5470,1030 L 5470,1695 L 5440,1695 L 5440,1865 L 5470,1865 L 5470,2220 L 5470,2360 L 5470,2600 L 5470,2740 L 5530,2740 L 5530,2600 L 5530,2360 L 5530,2220 L 5530,1865 L 5560,1865 L 5560,1695 L 5530,1695 L 5530,1030 Z" /><path d="M 5210,2360 L 5210,2600 L 5210,2740 L 5270,2740 L 5270,2600 L 5270,2360 L 5270,2220 L 5270,1675 L 5300,1675 L 5300,1505 L 5270,1505 L 5270,1030 L 5270,890 L 5270,770 L 5270,630 L 5210,630 L 5210,770 L 5210,890 L 5210,1030 L 5210,1505 L 5180,1505 L 5180,1675 L 5210,1675 L 5210,2220 Z" /></g></g><g id="CO"><g class="l30d0"><path d="M 11045,170 L 11135,170 L 11135,260 L 11045,260 Z" /><path d="M 10785,170 L 10875,170 L 10875,260 L 10785,260 Z" /><path d="M 10525,170 L 10615,170 L 10615,260 L 10525,260 Z" /><path d="M 11045,3110 L 11135,3110 L 11135,3200 L 11045,3200 Z" /><path d="M 10785,3110 L 10875,3110 L 10875,3200 L 10785,3200 Z" /><path d="M 10525,3110 L 10615,3110 L 10615,3200 L 10525,3200 Z" /><path d="M 11045,785 L 11135,785 L 11135,875 L 11045,875 Z" /><path d="M 10785,785 L 10875,785 L 10875,875 L 10785,875 Z" /><path d="M 10525,785 L 10615,785 L 10615,875 L 10525,875 Z" /><path d="M 11045,2435 L 11135,2435 L 11135,2525 L 11045,2525 Z" /><path d="M 10785,2435 L 10875,2435 L 10875,2525 L 10785,2525 Z" /><path d="M 10525,2435 L 10615,2435 L 10615,2525 L 10525,2525 Z" /><path d="M 8705,2480 L 8795,2480 L 8795,2570 L 8705,2570 Z" /><path d="M 8185,2480 L 8275,2480 L 8275,2570 L 8185,2570 Z" /><path d="M 10005,2435 L 10095,2435 L 10095,2525 L 10005,2525 Z" /><path d="M 9745,2435 L 9835,2435 L 9835,2525 L 9745,2525 Z" /><path d="M 9485,2435 L 9575,2435 L 9575,2525 L 9485,2525 Z" /><path d="M 8445,2150 L 8535,2150 L 8535,2240 L 8445,2240 Z" /><path d="M 8445,2480 L 8535,2480 L 8535,2570 L 8445,2570 Z" /><path d="M 10265,170 L 10355,170 L 10355,260 L 10265,260 Z" /><path d="M 10005,170 L 10095,170 L 10095,260 L 10005,260 Z" /><path d="M 9745,170 L 9835,170 L 9835,260 L 9745,260 Z" /><path d="M 9485,170 L 9575,170 L 9575,260 L 9485,260 Z" /><path d="M 9225,170 L 9315,170 L 9315,260 L 9225,260 Z" /><path d="M 8965,170 L 9055,170 L 9055,260 L 8965,260 Z" /><path d="M 8705,170 L 8795,170 L 8795,260 L 8705,260 Z" /><path d="M 8445,170 L 8535,170 L 8535,260 L 8445,260 Z" /><path d="M 8185,170 L 8275,170 L 8275,260 L 8185,260 Z" /><path d="M 7925,170 L 8015,170 L 8015,260 L 7925,260 Z" /><path d="M 7665,170 L 7755,170 L 7755,260 L 7665,260 Z" /><path d="M 7405,170 L 7495,170 L 7495,260 L 7405,260 Z" /><path d="M 7145,170 L 7235,170 L 7235,260 L 7145,260 Z" /><path d="M 6885,170 L 6975,170 L 6975,260 L 6885,260 Z" /><path d="M 6625,170 L 6715,170 L 6715,260 L 6625,260 Z" /><path d="M 6365,170 L 6455,170 L 6455,260 L 6365,260 Z" /><path d="M 6105,170 L 6195,170 L 6195,260 L 6105,260 Z" /><path d="M 5845,170 L 5935,170 L 5935,260 L 5845,260 Z" /><path d="M 10265,3110 L 10355,3110 L 10355,3200 L 10265,3200 Z" /><path d="M 6105,2435 L 6195,2435 L 6195,2525 L 6105,2525 Z" /><path d="M 6885,2435 L 6975,2435 L 6975,2525 L 6885,2525 Z" /><path d="M 6625,2435 L 6715,2435 L 6715,2525 L 6625,2525 Z" /><path d="M 6365,2435 L 6455,2435 L 6455,2525 L 6365,2525 Z" /><path d="M 6885,3110 L 6975,3110 L 6975,3200 L 6885,3200 Z" /><path d="M 5845,3110 L 5935,3110 L 5935,3200 L 5845,3200 Z" /><path d="M 6105,3110 L 6195,3110 L 6195,3200 L 6105,3200 Z" /><path d="M 6365,3110 L 6455,3110 L 6455,3200 L 6365,3200 Z" /><path d="M 6625,3110 L 6715,3110 L 6715,3200 L 6625,3200 Z" /><path d="M 10005,3110 L 10095,3110 L 10095,3200 L 10005,3200 Z" /><path d="M 8705,3110 L 8795,3110 L 8795,3200 L 8705,3200 Z" /><path d="M 8965,3110 L 9055,3110 L 9055,3200 L 8965,3200 Z" /><path d="M 9225,3110 L 9315,3110 L 9315,3200 L 9225,3200 Z" /><path d="M 9485,3110 L 9575,3110 L 9575,3200 L 9485,3200 Z" /><path d="M 9745,3110 L 9835,3110 L 9835,3200 L 9745,3200 Z" /><path d="M 7665,2435 L 7755,2435 L 7755,2525 L 7665,2525 Z" /><path d="M 8445,3110 L 8535,3110 L 8535,3200 L 8445,3200 Z" /><path d="M 7145,3110 L 7235,3110 L 7235,3200 L 7145,3200 Z" /><path d="M 7405,3110 L 7495,3110 L 7495,3200 L 7405,3200 Z" /><path d="M 7665,3110 L 7755,3110 L 7755,3200 L 7665,3200 Z" /><path d="M 7925,3110 L 8015,3110 L 8015,3200 L 7925,3200 Z" /><path d="M 8185,3110 L 8275,3110 L 8275,3200 L 8185,3200 Z" /><path d="M 10265,845 L 10355,845 L 10355,935 L 10265,935 Z" /><path d="M 9225,845 L 9315,845 L 9315,935 L 9225,935 Z" /><path d="M 8965,1010 L 9055,1010 L 9055,1100 L 8965,1100 Z" /><path d="M 8965,800 L 9055,800 L 9055,890 L 8965,890 Z" /><path d="M 8185,800 L 8275,800 L 8275,890 L 8185,890 Z" /><path d="M 7925,845 L 8015,845 L 8015,935 L 7925,935 Z" /><path d="M 7405,845 L 7495,845 L 7495,935 L 7405,935 Z" /><path d="M 7145,1010 L 7235,1010 L 7235,1100 L 7145,1100 Z" /><path d="M 7145,800 L 7235,800 L 7235,890 L 7145,890 Z" /><path d="M 9745,845 L 9835,845 L 9835,935 L 9745,935 Z" /><path d="M 5845,845 L 5935,845 L 5935,935 L 5845,935 Z" /><path d="M 5845,2435 L 5935,2435 L 5935,2525 L 5845,2525 Z" /><path d="M 10265,2435 L 10355,2435 L 10355,2525 L 10265,2525 Z" /><path d="M 9225,2435 L 9315,2435 L 9315,2525 L 9225,2525 Z" /><path d="M 8965,2150 L 9055,2150 L 9055,2240 L 8965,2240 Z" /><path d="M 8185,1010 L 8275,1010 L 8275,1100 L 8185,1100 Z" /><path d="M 7925,2435 L 8015,2435 L 8015,2525 L 7925,2525 Z" /><path d="M 7405,2435 L 7495,2435 L 7495,2525 L 7405,2525 Z" /><path d="M 7145,2435 L 7235,2435 L 7235,2525 L 7145,2525 Z" /><path d="M 6365,845 L 6455,845 L 6455,935 L 6365,935 Z" /><path d="M 8965,2480 L 9055,2480 L 9055,2570 L 8965,2570 Z" /><path d="M 5975,1545 L 6065,1545 L 6065,1635 L 5975,1635 Z" /><path d="M 7535,2150 L 7625,2150 L 7625,2240 L 7535,2240 Z" /><path d="M 6235,1925 L 6325,1925 L 6325,2015 L 6235,2015 Z" /><path d="M 6495,1735 L 6585,1735 L 6585,1825 L 6495,1825 Z" /><path d="M 8055,1355 L 8145,1355 L 8145,1445 L 8055,1445 Z" /><path d="M 8315,1735 L 8405,1735 L 8405,1825 L 8315,1825 Z" /><path d="M 7795,1735 L 7885,1735 L 7885,1825 L 7795,1825 Z" /><path d="M 7015,1735 L 7105,1735 L 7105,1825 L 7015,1825 Z" /><path d="M 6755,1355 L 6845,1355 L 6845,1445 L 6755,1445 Z" /><path d="M 8835,1545 L 8925,1545 L 8925,1635 L 8835,1635 Z" /><path d="M 9875,2150 L 9965,2150 L 9965,2240 L 9875,2240 Z" /><path d="M 8575,1925 L 8665,1925 L 8665,2015 L 8575,2015 Z" /><path d="M 10135,1735 L 10225,1735 L 10225,1825 L 10135,1825 Z" /><path d="M 9615,1545 L 9705,1545 L 9705,1635 L 9615,1635 Z" /><path d="M 9355,1925 L 9445,1925 L 9445,2015 L 9355,2015 Z" /><path d="M 10915,1735 L 11005,1735 L 11005,1825 L 10915,1825 Z" /><path d="M 10655,1545 L 10745,1545 L 10745,1635 L 10655,1635 Z" /><path d="M 5585,170 L 5675,170 L 5675,260 L 5585,260 Z" /><path d="M 5325,170 L 5415,170 L 5415,260 L 5325,260 Z" /><path d="M 5065,170 L 5155,170 L 5155,260 L 5065,260 Z" /><path d="M 5585,3110 L 5675,3110 L 5675,3200 L 5585,3200 Z" /><path d="M 5325,3110 L 5415,3110 L 5415,3200 L 5325,3200 Z" /><path d="M 5065,3110 L 5155,3110 L 5155,3200 L 5065,3200 Z" /><path d="M 5585,785 L 5675,785 L 5675,875 L 5585,875 Z" /><path d="M 5325,785 L 5415,785 L 5415,875 L 5325,875 Z" /><path d="M 5065,785 L 5155,785 L 5155,875 L 5065,875 Z" /><path d="M 5585,2435 L 5675,2435 L 5675,2525 L 5585,2525 Z" /><path d="M 5325,2435 L 5415,2435 L 5415,2525 L 5325,2525 Z" /><path d="M 5065,2435 L 5155,2435 L 5155,2525 L 5065,2525 Z" /><path d="M 3245,2480 L 3335,2480 L 3335,2570 L 3245,2570 Z" /><path d="M 2725,2480 L 2815,2480 L 2815,2570 L 2725,2570 Z" /><path d="M 4545,2435 L 4635,2435 L 4635,2525 L 4545,2525 Z" /><path d="M 4285,2435 L 4375,2435 L 4375,2525 L 4285,2525 Z" /><path d="M 4025,2435 L 4115,2435 L 4115,2525 L 4025,2525 Z" /><path d="M 2985,2150 L 3075,2150 L 3075,2240 L 2985,2240 Z" /><path d="M 2985,2480 L 3075,2480 L 3075,2570 L 2985,2570 Z" /><path d="M 4805,170 L 4895,170 L 4895,260 L 4805,260 Z" /><path d="M 4545,170 L 4635,170 L 4635,260 L 4545,260 Z" /><path d="M 4285,170 L 4375,170 L 4375,260 L 4285,260 Z" /><path d="M 4025,170 L 4115,170 L 4115,260 L 4025,260 Z" /><path d="M 3765,170 L 3855,170 L 3855,260 L 3765,260 Z" /><path d="M 3505,170 L 3595,170 L 3595,260 L 3505,260 Z" /><path d="M 3245,170 L 3335,170 L 3335,260 L 3245,260 Z" /><path d="M 2985,170 L 3075,170 L 3075,260 L 2985,260 Z" /><path d="M 2725,170 L 2815,170 L 2815,260 L 2725,260 Z" /><path d="M 2465,170 L 2555,170 L 2555,260 L 2465,260 Z" /><path d="M 2205,170 L 2295,170 L 2295,260 L 2205,260 Z" /><path d="M 1945,170 L 2035,170 L 2035,260 L 1945,260 Z" /><path d="M 1685,170 L 1775,170 L 1775,260 L 1685,260 Z" /><path d="M 1425,170 L 1515,170 L 1515,260 L 1425,260 Z" /><path d="M 1165,170 L 1255,170 L 1255,260 L 1165,260 Z" /><path d="M 905,170 L 995,170 L 995,260 L 905,260 Z" /><path d="M 645,170 L 735,170 L 735,260 L 645,260 Z" /><path d="M 385,170 L 475,170 L 475,260 L 385,260 Z" /><path d="M 4805,3110 L 4895,3110 L 4895,3200 L 4805,3200 Z" /><path d="M 645,2435 L 735,2435 L 735,2525 L 645,2525 Z" /><path d="M 1425,2435 L 1515,2435 L 1515,2525 L 1425,2525 Z" /><path d="M 1165,2435 L 1255,2435 L 1255,2525 L 1165,2525 Z" /><path d="M 905,2435 L 995,2435 L 995,2525 L 905,2525 Z" /><path d="M 1425,3110 L 1515,3110 L 1515,3200 L 1425,3200 Z" /><path d="M 385,3110 L 475,3110 L 475,3200 L 385,3200 Z" /><path d="M 645,3110 L 735,3110 L 735,3200 L 645,3200 Z" /><path d="M 905,3110 L 995,3110 L 995,3200 L 905,3200 Z" /><path d="M 1165,3110 L 1255,3110 L 1255,3200 L 1165,3200 Z" /><path d="M 4545,3110 L 4635,3110 L 4635,3200 L 4545,3200 Z" /><path d="M 3245,3110 L 3335,3110 L 3335,3200 L 3245,3200 Z" /><path d="M 3505,3110 L 3595,3110 L 3595,3200 L 3505,3200 Z" /><path d="M 3765,3110 L 3855,3110 L 3855,3200 L 3765,3200 Z" /><path d="M 4025,3110 L 4115,3110 L 4115,3200 L 4025,3200 Z" /><path d="M 4285,3110 L 4375,3110 L 4375,3200 L 4285,3200 Z" /><path d="M 2205,2435 L 2295,2435 L 2295,2525 L 2205,2525 Z" /><path d="M 2985,3110 L 3075,3110 L 3075,3200 L 2985,3200 Z" /><path d="M 1685,3110 L 1775,3110 L 1775,3200 L 1685,3200 Z" /><path d="M 1945,3110 L 2035,3110 L 2035,3200 L 1945,3200 Z" /><path d="M 2205,3110 L 2295,3110 L 2295,3200 L 2205,3200 Z" /><path d="M 2465,3110 L 2555,3110 L 2555,3200 L 2465,3200 Z" /><path d="M 2725,3110 L 2815,3110 L 2815,3200 L 2725,3200 Z" /><path d="M 4805,845 L 4895,845 L 4895,935 L 4805,935 Z" /><path d="M 3765,845 L 3855,845 L 3855,935 L 3765,935 Z" /><path d="M 3505,1010 L 3595,1010 L 3595,1100 L 3505,1100 Z" /><path d="M 3505,800 L 3595,800 L 3595,890 L 3505,890 Z" /><path d="M 2725,800 L 2815,800 L 2815,890 L 2725,890 Z" /><path d="M 2465,845 L 2555,845 L 2555,935 L 2465,935 Z" /><path d="M 1945,845 L 2035,845 L 2035,935 L 1945,935 Z" /><path d="M 1685,1010 L 1775,1010 L 1775,1100 L 1685,1100 Z" /><path d="M 1685,800 L 1775,800 L 1775,890 L 1685,890 Z" /><path d="M 4285,845 L 4375,845 L 4375,935 L 4285,935 Z" /><path d="M 385,845 L 475,845 L 475,935 L 385,935 Z" /><path d="M 385,2435 L 475,2435 L 475,2525 L 385,2525 Z" /><path d="M 4805,2435 L 4895,2435 L 4895,2525 L 4805,2525 Z" /><path d="M 3765,2435 L 3855,2435 L 3855,2525 L 3765,2525 Z" /><path d="M 3505,2150 L 3595,2150 L 3595,2240 L 3505,2240 Z" /><path d="M 2725,1010 L 2815,1010 L 2815,1100 L 2725,1100 Z" /><path d="M 2465,2435 L 2555,2435 L 2555,2525 L 2465,2525 Z" /><path d="M 1945,2435 L 2035,2435 L 2035,2525 L 1945,2525 Z" /><path d="M 1685,2435 L 1775,2435 L 1775,2525 L 1685,2525 Z" /><path d="M 905,845 L 995,845 L 995,935 L 905,935 Z" /><path d="M 3505,2480 L 3595,2480 L 3595,2570 L 3505,2570 Z" /><path d="M 515,1545 L 605,1545 L 605,1635 L 515,1635 Z" /><path d="M 2075,2150 L 2165,2150 L 2165,2240 L 2075,2240 Z" /><path d="M 775,1925 L 865,1925 L 865,2015 L 775,2015 Z" /><path d="M 1035,1735 L 1125,1735 L 1125,1825 L 1035,1825 Z" /><path d="M 2595,1355 L 2685,1355 L 2685,1445 L 2595,1445 Z" /><path d="M 2855,1735 L 2945,1735 L 2945,1825 L 2855,1825 Z" /><path d="M 2335,1735 L 2425,1735 L 2425,1825 L 2335,1825 Z" /><path d="M 1555,1735 L 1645,1735 L 1645,1825 L 1555,1825 Z" /><path d="M 1295,1355 L 1385,1355 L 1385,1445 L 1295,1445 Z" /><path d="M 3375,1545 L 3465,1545 L 3465,1635 L 3375,1635 Z" /><path d="M 4415,2150 L 4505,2150 L 4505,2240 L 4415,2240 Z" /><path d="M 3115,1925 L 3205,1925 L 3205,2015 L 3115,2015 Z" /><path d="M 4675,1735 L 4765,1735 L 4765,1825 L 4675,1825 Z" /><path d="M 4155,1545 L 4245,1545 L 4245,1635 L 4155,1635 Z" /><path d="M 3895,1925 L 3985,1925 L 3985,2015 L 3895,2015 Z" /><path d="M 5455,1735 L 5545,1735 L 5545,1825 L 5455,1825 Z" /><path d="M 5195,1545 L 5285,1545 L 5285,1635 L 5195,1635 Z" /></g></g><g id="M1"><g class="l31d0"><path d="M 8700,2575 L 8700,2700 L 8280,2700 L 8280,2575 L 8280,2440 L 8180,2440 L 8180,2575 L 8180,2700 L 8180,2800 L 8280,2800 L 8700,2800 L 8800,2800 L 8800,2700 L 8800,2575 L 8800,2440 L 8700,2440 Z" /><path d="M 7660,2390 L 7660,2570 L 7660,2810 L 7760,2810 L 7760,2570 L 7760,2390 Z" /><path d="M 7240,720 L 7140,720 L 7140,860 L 7140,1040 L 7140,1140 L 7240,1140 L 7240,1040 L 7240,860 Z" /><path d="M 6100,2390 L 6100,2570 L 6100,2810 L 6200,2810 L 6200,2570 L 6200,2390 Z" /><path d="M 9480,2390 L 9480,2570 L 9480,2810 L 9580,2810 L 9580,2570 L 9580,2390 Z" /><path d="M 10000,2390 L 10000,2570 L 10000,2810 L 10100,2810 L 10100,2570 L 10100,2390 Z" /><path d="M 8280,720 L 8180,720 L 8180,860 L 8180,1040 L 8180,1140 L 8280,1140 L 8280,1040 L 8280,860 Z" /><path d="M 7365,940 L 7500,940 L 7620,940 L 7710,940 L 7800,940 L 7800,840 L 7710,840 L 7620,840 L 7500,840 L 7365,840 Z" /><path d="M 5805,940 L 6060,940 L 6150,940 L 6240,940 L 6240,840 L 6150,840 L 6060,840 L 5805,840 Z" /><path d="M 9185,940 L 9320,940 L 9440,940 L 9530,940 L 9620,940 L 9620,840 L 9530,840 L 9440,840 L 9320,840 L 9185,840 Z" /><path d="M 10395,840 L 10260,840 L 10140,840 L 10050,840 L 9960,840 L 9960,940 L 10050,940 L 10140,940 L 10260,940 L 10395,940 Z" /><path d="M 8210,1830 L 8275,1830 L 8400,1830 L 8445,1830 L 8580,1830 L 8630,1830 L 8630,1730 L 8580,1730 L 8445,1730 L 8400,1730 L 8275,1730 L 8210,1730 Z" /><path d="M 6735,1830 L 6840,1830 L 6975,1830 L 7020,1830 L 7145,1830 L 7155,1830 L 7155,1730 L 7145,1730 L 7020,1730 L 6975,1730 L 6840,1730 L 6735,1730 Z" /><path d="M 6715,1450 L 6800,1450 L 6885,1450 L 6885,1350 L 6800,1350 L 6715,1350 L 6240,1350 L 6150,1350 L 6060,1350 L 6060,1450 L 6150,1450 L 6240,1450 Z" /><path d="M 6105,1540 L 6020,1540 L 5935,1540 L 5935,1640 L 6020,1640 L 6105,1640 L 7620,1640 L 7710,1640 L 7800,1640 L 8795,1640 L 8880,1640 L 8965,1640 L 8965,1540 L 8880,1540 L 8795,1540 L 7800,1540 L 7710,1540 L 7620,1540 Z" /><path d="M 8405,2245 L 8440,2245 L 8440,2475 L 8440,2610 L 8540,2610 L 8540,2475 L 8540,2245 L 8960,2245 L 8960,2475 L 8960,2610 L 9060,2610 L 9060,2475 L 9060,2245 L 9095,2245 L 9095,2244 L 9835,2244 L 9835,2245 L 10005,2245 L 10005,2145 L 9920,2145 L 9835,2145 L 9095,2145 L 8405,2145 L 8320,2145 L 8230,2145 L 8140,2145 L 7665,2145 L 7580,2145 L 7495,2145 L 7495,2245 L 7665,2245 L 7665,2244 L 8140,2244 L 8140,2245 L 8320,2245 L 8320,2244 L 8405,2244 Z" /><path d="M 8535,2020 L 8705,2020 L 9315,2020 L 9400,2020 L 9485,2020 L 9485,1920 L 9400,1920 L 9315,1920 L 8705,1920 L 8535,1920 L 7280,1920 L 7190,1920 L 7100,1920 L 6365,1920 L 6280,1920 L 6195,1920 L 6195,2020 L 6280,2020 L 6365,2020 L 6620,2020 L 6620,2565 L 6720,2565 L 6720,2020 L 7100,2020 L 7140,2020 L 7140,2565 L 7240,2565 L 7240,2020 L 7280,2020 Z" /><path d="M 10520,2390 L 10520,2570 L 10520,2810 L 10620,2810 L 10620,2570 L 10620,2390 Z" /><path d="M 11040,2390 L 11040,2570 L 11040,2810 L 11140,2810 L 11140,2570 L 11140,2390 Z" /><path d="M 11140,500 L 11040,500 L 11040,740 L 11040,920 L 11140,920 L 11140,740 Z" /><path d="M 10620,500 L 10520,500 L 10520,740 L 10520,920 L 10620,920 L 10620,740 Z" /><path d="M 10180,1730 L 10095,1730 L 9620,1730 L 9530,1730 L 9440,1730 L 9440,1830 L 9530,1830 L 9620,1830 L 10095,1830 L 10180,1830 L 10265,1830 L 10875,1830 L 10960,1830 L 11045,1830 L 11045,1730 L 10960,1730 L 10875,1730 L 10265,1730 Z" /><path d="M 10050,1540 L 9960,1540 L 9745,1540 L 9660,1540 L 9575,1540 L 9575,1640 L 9660,1640 L 9745,1640 L 9960,1640 L 10050,1640 L 10140,1640 L 10615,1640 L 10700,1640 L 10785,1640 L 10785,1540 L 10700,1540 L 10615,1540 L 10140,1540 Z" /><path d="M 3240,2575 L 3240,2700 L 2820,2700 L 2820,2575 L 2820,2440 L 2720,2440 L 2720,2575 L 2720,2700 L 2720,2800 L 2820,2800 L 3240,2800 L 3340,2800 L 3340,2700 L 3340,2575 L 3340,2440 L 3240,2440 Z" /><path d="M 10450,120 L 5770,120 L 5750,120 L 4990,120 L 290,120 L 290,310 L 900,310 L 900,840 L 900,975 L 1000,975 L 1000,840 L 1000,310 L 2460,310 L 2460,840 L 2460,975 L 2560,975 L 2560,840 L 2560,310 L 3500,310 L 3500,795 L 3500,1140 L 3600,1140 L 3600,795 L 3600,310 L 4280,310 L 4280,840 L 4280,975 L 4380,975 L 4380,840 L 4380,310 L 4990,310 L 5320,310 L 5320,745 L 5320,915 L 5420,915 L 5420,745 L 5420,310 L 5750,310 L 5770,310 L 6360,310 L 6360,840 L 6360,975 L 6460,975 L 6460,840 L 6460,310 L 7920,310 L 7920,840 L 7920,975 L 8020,975 L 8020,840 L 8020,310 L 8960,310 L 8960,795 L 8960,1140 L 9060,1140 L 9060,795 L 9060,310 L 9740,310 L 9740,840 L 9740,975 L 9840,975 L 9840,840 L 9840,310 L 10450,310 L 10780,310 L 10780,745 L 10780,915 L 10880,915 L 10880,745 L 10880,310 L 11230,310 L 11230,120 Z" /><path d="M 11230,3060 L 10880,3060 L 10880,2565 L 10880,2395 L 10780,2395 L 10780,2565 L 10780,3060 L 10450,3060 L 10360,3060 L 10360,2530 L 10360,2395 L 10260,2395 L 10260,2530 L 10260,3060 L 9840,3060 L 9840,2530 L 9840,2395 L 9740,2395 L 9740,2530 L 9740,3060 L 9320,3060 L 9320,2530 L 9320,2395 L 9220,2395 L 9220,2530 L 9220,3060 L 8020,3060 L 8020,2530 L 8020,2395 L 7920,2395 L 7920,2530 L 7920,3060 L 7500,3060 L 7500,2530 L 7500,2395 L 7400,2395 L 7400,2530 L 7400,3060 L 6980,3060 L 6980,2530 L 6980,2395 L 6880,2395 L 6880,2530 L 6880,3060 L 6460,3060 L 6460,2530 L 6460,2395 L 6360,2395 L 6360,2530 L 6360,3060 L 5940,3060 L 5940,2530 L 5940,2395 L 5840,2395 L 5840,2530 L 5840,3060 L 5770,3060 L 5750,3060 L 5420,3060 L 5420,2565 L 5420,2395 L 5320,2395 L 5320,2565 L 5320,3060 L 4990,3060 L 4900,3060 L 4900,2530 L 4900,2395 L 4800,2395 L 4800,2530 L 4800,3060 L 4380,3060 L 4380,2530 L 4380,2395 L 4280,2395 L 4280,2530 L 4280,3060 L 3860,3060 L 3860,2530 L 3860,2395 L 3760,2395 L 3760,2530 L 3760,3060 L 2560,3060 L 2560,2530 L 2560,2395 L 2460,2395 L 2460,2530 L 2460,3060 L 2040,3060 L 2040,2530 L 2040,2395 L 1940,2395 L 1940,2530 L 1940,3060 L 1520,3060 L 1520,2530 L 1520,2395 L 1420,2395 L 1420,2530 L 1420,3060 L 1000,3060 L 1000,2530 L 1000,2395 L 900,2395 L 900,2530 L 900,3060 L 480,3060 L 480,2530 L 480,2395 L 380,2395 L 380,2530 L 380,3060 L 290,3060 L 290,3250 L 4990,3250 L 5750,3250 L 5770,3250 L 10450,3250 L 11230,3250 Z" /><path d="M 2200,2390 L 2200,2570 L 2200,2810 L 2300,2810 L 2300,2570 L 2300,2390 Z" /><path d="M 1780,720 L 1680,720 L 1680,860 L 1680,1040 L 1680,1140 L 1780,1140 L 1780,1040 L 1780,860 Z" /><path d="M 640,2390 L 640,2570 L 640,2810 L 740,2810 L 740,2570 L 740,2390 Z" /><path d="M 4020,2390 L 4020,2570 L 4020,2810 L 4120,2810 L 4120,2570 L 4120,2390 Z" /><path d="M 4540,2390 L 4540,2570 L 4540,2810 L 4640,2810 L 4640,2570 L 4640,2390 Z" /><path d="M 2820,720 L 2720,720 L 2720,860 L 2720,1040 L 2720,1140 L 2820,1140 L 2820,1040 L 2820,860 Z" /><path d="M 1905,940 L 2040,940 L 2160,940 L 2250,940 L 2340,940 L 2340,840 L 2250,840 L 2160,840 L 2040,840 L 1905,840 Z" /><path d="M 345,940 L 600,940 L 690,940 L 780,940 L 780,840 L 690,840 L 600,840 L 345,840 Z" /><path d="M 3725,940 L 3860,940 L 3980,940 L 4070,940 L 4160,940 L 4160,840 L 4070,840 L 3980,840 L 3860,840 L 3725,840 Z" /><path d="M 4935,840 L 4800,840 L 4680,840 L 4590,840 L 4500,840 L 4500,940 L 4590,940 L 4680,940 L 4800,940 L 4935,940 Z" /><path d="M 2750,1830 L 2815,1830 L 2940,1830 L 2985,1830 L 3120,1830 L 3170,1830 L 3170,1730 L 3120,1730 L 2985,1730 L 2940,1730 L 2815,1730 L 2750,1730 Z" /><path d="M 2170,1730 L 2170,1830 L 2295,1830 L 2465,1830 L 2590,1830 L 2590,1730 L 2465,1730 L 2295,1730 Z" /><path d="M 1275,1830 L 1380,1830 L 1515,1830 L 1560,1830 L 1685,1830 L 1695,1830 L 1695,1730 L 1685,1730 L 1560,1730 L 1515,1730 L 1380,1730 L 1275,1730 Z" /><path d="M 1255,1450 L 1340,1450 L 1425,1450 L 1425,1350 L 1340,1350 L 1255,1350 L 780,1350 L 690,1350 L 600,1350 L 600,1450 L 690,1450 L 780,1450 Z" /><path d="M 645,1540 L 560,1540 L 475,1540 L 475,1640 L 560,1640 L 645,1640 L 2160,1640 L 2250,1640 L 2340,1640 L 3335,1640 L 3420,1640 L 3505,1640 L 3505,1540 L 3420,1540 L 3335,1540 L 2340,1540 L 2250,1540 L 2160,1540 Z" /><path d="M 2945,2245 L 2980,2245 L 2980,2475 L 2980,2610 L 3080,2610 L 3080,2475 L 3080,2245 L 3500,2245 L 3500,2475 L 3500,2610 L 3600,2610 L 3600,2475 L 3600,2245 L 3635,2245 L 3635,2244 L 4375,2244 L 4375,2245 L 4545,2245 L 4545,2145 L 4460,2145 L 4375,2145 L 3635,2145 L 2945,2145 L 2860,2145 L 2770,2145 L 2680,2145 L 2205,2145 L 2120,2145 L 2035,2145 L 2035,2245 L 2205,2245 L 2205,2244 L 2680,2244 L 2680,2245 L 2860,2245 L 2860,2244 L 2945,2244 Z" /><path d="M 3075,2020 L 3245,2020 L 3855,2020 L 3940,2020 L 4025,2020 L 4025,1920 L 3940,1920 L 3855,1920 L 3245,1920 L 3075,1920 L 1820,1920 L 1730,1920 L 1640,1920 L 905,1920 L 820,1920 L 735,1920 L 735,2020 L 820,2020 L 905,2020 L 1160,2020 L 1160,2565 L 1260,2565 L 1260,2020 L 1640,2020 L 1680,2020 L 1680,2565 L 1780,2565 L 1780,2020 L 1820,2020 Z" /><path d="M 5060,2390 L 5060,2570 L 5060,2810 L 5160,2810 L 5160,2570 L 5160,2390 Z" /><path d="M 5580,2390 L 5580,2570 L 5580,2810 L 5680,2810 L 5680,2570 L 5680,2390 Z" /><path d="M 5680,500 L 5580,500 L 5580,740 L 5580,920 L 5680,920 L 5680,740 Z" /><path d="M 5160,500 L 5060,500 L 5060,740 L 5060,920 L 5160,920 L 5160,740 Z" /><path d="M 4720,1730 L 4635,1730 L 4160,1730 L 4070,1730 L 3980,1730 L 3980,1830 L 4070,1830 L 4160,1830 L 4635,1830 L 4720,1830 L 4805,1830 L 5415,1830 L 5500,1830 L 5585,1830 L 5585,1730 L 5500,1730 L 5415,1730 L 4805,1730 Z" /><path d="M 4590,1540 L 4500,1540 L 4285,1540 L 4200,1540 L 4115,1540 L 4115,1640 L 4200,1640 L 4285,1640 L 4500,1640 L 4590,1640 L 4680,1640 L 5155,1640 L 5240,1640 L 5325,1640 L 5325,1540 L 5240,1540 L 5155,1540 L 4680,1540 Z" /><path d="M 7540,1830 L 7630,1830 L 7755,1830 L 7790,1830 L 7925,1830 L 8050,1830 L 8050,1730 L 7925,1730 L 7790,1730 L 7755,1730 L 7630,1730 L 7540,1730 L 7450,1730 L 7360,1730 L 7360,1830 L 7450,1830 Z" /><path d="M 8015,1450 L 8060,1450 L 8185,1450 L 8310,1450 L 8310,1350 L 8185,1350 L 8060,1350 L 8015,1350 L 7890,1350 L 7880,1350 L 7880,1450 L 7890,1450 Z" /><path d="M 2555,1450 L 2600,1450 L 2725,1450 L 2850,1450 L 2850,1350 L 2725,1350 L 2600,1350 L 2555,1350 L 2430,1350 L 2420,1350 L 2420,1450 L 2430,1450 Z" /><path d="M 6205,1830 L 6320,1830 L 6455,1830 L 6500,1830 L 6625,1830 L 6625,1730 L 6500,1730 L 6455,1730 L 6320,1730 L 6205,1730 Z" /><path d="M 745,1830 L 860,1830 L 995,1830 L 1040,1830 L 1165,1830 L 1165,1730 L 1040,1730 L 995,1730 L 860,1730 L 745,1730 Z" /></g></g><g id="VIA1"><g class="l51d0"><path d="M 7660,2430 L 7760,2430 L 7760,2530 L 7660,2530 Z" /><path d="M 7140,900 L 7240,900 L 7240,1000 L 7140,1000 Z" /><path d="M 6100,2430 L 6200,2430 L 6200,2530 L 6100,2530 Z" /><path d="M 9480,2430 L 9580,2430 L 9580,2530 L 9480,2530 Z" /><path d="M 10000,2430 L 10100,2430 L 10100,2530 L 10000,2530 Z" /><path d="M 8180,900 L 8280,900 L 8280,1000 L 8180,1000 Z" /><path d="M 6880,1730 L 6980,1730 L 6980,1830 L 6880,1830 Z" /><path d="M 8440,1730 L 8540,1730 L 8540,1830 L 8440,1830 Z" /><path d="M 7660,1540 L 7760,1540 L 7760,1640 L 7660,1640 Z" /><path d="M 7660,840 L 7760,840 L 7760,940 L 7660,940 Z" /><path d="M 7140,1920 L 7240,1920 L 7240,2020 L 7140,2020 Z" /><path d="M 6100,1350 L 6200,1350 L 6200,1450 L 6100,1450 Z" /><path d="M 6100,840 L 6200,840 L 6200,940 L 6100,940 Z" /><path d="M 9480,840 L 9580,840 L 9580,940 L 9480,940 Z" /><path d="M 10000,840 L 10100,840 L 10100,940 L 10000,940 Z" /><path d="M 8180,2145 L 8280,2145 L 8280,2245 L 8180,2245 Z" /><path d="M 9480,1730 L 9480,1830 L 9580,1830 L 9580,1730 Z" /><path d="M 10000,1540 L 10000,1640 L 10100,1640 L 10100,1540 Z" /><path d="M 10520,2530 L 10620,2530 L 10620,2430 L 10520,2430 Z" /><path d="M 11040,2530 L 11140,2530 L 11140,2430 L 11040,2430 Z" /><path d="M 11040,780 L 11140,780 L 11140,880 L 11040,880 Z" /><path d="M 10520,780 L 10620,780 L 10620,880 L 10520,880 Z" /><path d="M 2200,2430 L 2300,2430 L 2300,2530 L 2200,2530 Z" /><path d="M 1680,900 L 1780,900 L 1780,1000 L 1680,1000 Z" /><path d="M 640,2430 L 740,2430 L 740,2530 L 640,2530 Z" /><path d="M 4020,2430 L 4120,2430 L 4120,2530 L 4020,2530 Z" /><path d="M 4540,2430 L 4640,2430 L 4640,2530 L 4540,2530 Z" /><path d="M 2720,900 L 2820,900 L 2820,1000 L 2720,1000 Z" /><path d="M 1420,1730 L 1520,1730 L 1520,1830 L 1420,1830 Z" /><path d="M 2980,1730 L 3080,1730 L 3080,1830 L 2980,1830 Z" /><path d="M 2200,1540 L 2300,1540 L 2300,1640 L 2200,1640 Z" /><path d="M 2200,840 L 2300,840 L 2300,940 L 2200,940 Z" /><path d="M 1680,1920 L 1780,1920 L 1780,2020 L 1680,2020 Z" /><path d="M 640,1350 L 740,1350 L 740,1450 L 640,1450 Z" /><path d="M 640,840 L 740,840 L 740,940 L 640,940 Z" /><path d="M 4020,840 L 4120,840 L 4120,940 L 4020,940 Z" /><path d="M 4540,840 L 4640,840 L 4640,940 L 4540,940 Z" /><path d="M 2720,2145 L 2820,2145 L 2820,2245 L 2720,2245 Z" /><path d="M 4020,1730 L 4020,1830 L 4120,1830 L 4120,1730 Z" /><path d="M 4540,1540 L 4540,1640 L 4640,1640 L 4640,1540 Z" /><path d="M 5060,2530 L 5160,2530 L 5160,2430 L 5060,2430 Z" /><path d="M 5580,2530 L 5680,2530 L 5680,2430 L 5580,2430 Z" /><path d="M 5580,780 L 5680,780 L 5680,880 L 5580,880 Z" /><path d="M 5060,780 L 5160,780 L 5160,880 L 5060,880 Z" /><path d="M 7400,1730 L 7500,1730 L 7500,1830 L 7400,1830 Z" /><path d="M 7920,1350 L 8020,1350 L 8020,1450 L 7920,1450 Z" /><path d="M 2460,1350 L 2560,1350 L 2560,1450 L 2460,1450 Z" /><path d="M 6360,1730 L 6460,1730 L 6460,1830 L 6360,1830 Z" /><path d="M 900,1730 L 1000,1730 L 1000,1830 L 900,1830 Z" /></g></g><g id="M2"><g class="l32d0"><path d="M 7760,1590 L 7760,1500 L 7760,980 L 7760,890 L 7760,800 L 7660,800 L 7660,890 L 7660,980 L 7660,1500 L 7660,1590 L 7660,1680 L 7660,2390 L 7660,2480 L 7660,2570 L 7760,2570 L 7760,2480 L 7760,2390 L 7760,1680 Z" /><path d="M 7140,1880 L 7140,1970 L 7140,2060 L 7240,2060 L 7240,1970 L 7240,1880 L 7240,1040 L 7240,950 L 7240,860 L 7140,860 L 7140,950 L 7140,1040 Z" /><path d="M 6200,1400 L 6200,1310 L 6200,980 L 6200,890 L 6200,800 L 6100,800 L 6100,890 L 6100,980 L 6100,1310 L 6100,1400 L 6100,1490 L 6100,2390 L 6100,2480 L 6100,2570 L 6200,2570 L 6200,2480 L 6200,2390 L 6200,1490 Z" /><path d="M 8180,2105 L 8180,2195 L 8180,2285 L 8280,2285 L 8280,2195 L 8280,2105 L 8280,1040 L 8280,950 L 8280,860 L 8180,860 L 8180,950 L 8180,1040 Z" /><path d="M 8440,1520 L 8440,1690 L 8440,1695 L 8440,1870 L 8440,1875 L 8440,2040 L 8540,2040 L 8540,1875 L 8540,1870 L 8540,1695 L 8540,1690 L 8540,1520 Z" /><path d="M 6880,1520 L 6880,1690 L 6880,1695 L 6880,1870 L 6880,1875 L 6880,2040 L 6980,2040 L 6980,1875 L 6980,1870 L 6980,1695 L 6980,1690 L 6980,1520 Z" /><path d="M 9580,1690 L 9580,980 L 9580,890 L 9580,800 L 9480,800 L 9480,890 L 9480,980 L 9480,1690 L 9480,1780 L 9480,1870 L 9480,2390 L 9480,2480 L 9480,2570 L 9580,2570 L 9580,2480 L 9580,2390 L 9580,1870 L 9580,1780 Z" /><path d="M 10100,1500 L 10100,980 L 10100,890 L 10100,800 L 10000,800 L 10000,890 L 10000,980 L 10000,1500 L 10000,1590 L 10000,1680 L 10000,2390 L 10000,2480 L 10000,2570 L 10100,2570 L 10100,2480 L 10100,2390 L 10100,1680 L 10100,1590 Z" /><path d="M 11040,920 L 11040,2390 L 11040,2480 L 11040,2570 L 11140,2570 L 11140,2480 L 11140,2390 L 11140,920 L 11140,830 L 11140,740 L 11040,740 L 11040,830 Z" /><path d="M 10620,920 L 10620,830 L 10620,740 L 10520,740 L 10520,830 L 10520,920 L 10520,2390 L 10520,2480 L 10520,2570 L 10620,2570 L 10620,2480 L 10620,2390 Z" /><path d="M 2300,1590 L 2300,1500 L 2300,980 L 2300,890 L 2300,800 L 2200,800 L 2200,890 L 2200,980 L 2200,1500 L 2200,1590 L 2200,1680 L 2200,2390 L 2200,2480 L 2200,2570 L 2300,2570 L 2300,2480 L 2300,2390 L 2300,1680 Z" /><path d="M 1680,1880 L 1680,1970 L 1680,2060 L 1780,2060 L 1780,1970 L 1780,1880 L 1780,1040 L 1780,950 L 1780,860 L 1680,860 L 1680,950 L 1680,1040 Z" /><path d="M 740,1400 L 740,1310 L 740,980 L 740,890 L 740,800 L 640,800 L 640,890 L 640,980 L 640,1310 L 640,1400 L 640,1490 L 640,2390 L 640,2480 L 640,2570 L 740,2570 L 740,2480 L 740,2390 L 740,1490 Z" /><path d="M 2720,2105 L 2720,2195 L 2720,2285 L 2820,2285 L 2820,2195 L 2820,2105 L 2820,1040 L 2820,950 L 2820,860 L 2720,860 L 2720,950 L 2720,1040 Z" /><path d="M 2980,1520 L 2980,1690 L 2980,1695 L 2980,1870 L 2980,1875 L 2980,2040 L 3080,2040 L 3080,1875 L 3080,1870 L 3080,1695 L 3080,1690 L 3080,1520 Z" /><path d="M 1420,1520 L 1420,1690 L 1420,1695 L 1420,1870 L 1420,1875 L 1420,2040 L 1520,2040 L 1520,1875 L 1520,1870 L 1520,1695 L 1520,1690 L 1520,1520 Z" /><path d="M 4120,1690 L 4120,980 L 4120,890 L 4120,800 L 4020,800 L 4020,890 L 4020,980 L 4020,1690 L 4020,1780 L 4020,1870 L 4020,2390 L 4020,2480 L 4020,2570 L 4120,2570 L 4120,2480 L 4120,2390 L 4120,1870 L 4120,1780 Z" /><path d="M 4640,1500 L 4640,980 L 4640,890 L 4640,800 L 4540,800 L 4540,890 L 4540,980 L 4540,1500 L 4540,1590 L 4540,1680 L 4540,2390 L 4540,2480 L 4540,2570 L 4640,2570 L 4640,2480 L 4640,2390 L 4640,1680 L 4640,1590 Z" /><path d="M 5580,920 L 5580,2390 L 5580,2480 L 5580,2570 L 5680,2570 L 5680,2480 L 5680,2390 L 5680,920 L 5680,830 L 5680,740 L 5580,740 L 5580,830 Z" /><path d="M 5060,1735 L 5060,2095 L 5060,2185 L 5060,2275 L 5060,2390 L 5060,2480 L 5060,2570 L 5160,2570 L 5160,2480 L 5160,2390 L 5160,2275 L 5160,2185 L 5160,2095 L 5160,1735 L 5160,1635 L 5160,920 L 5160,830 L 5160,740 L 5060,740 L 5060,830 L 5060,920 L 5060,1635 Z" /><path d="M 7500,2095 L 7500,1870 L 7500,1780 L 7500,1690 L 7400,1690 L 7400,1780 L 7400,1870 L 7400,2095 L 7400,2185 L 7400,2275 L 7500,2275 L 7500,2185 Z" /><path d="M 2460,1235 L 2460,1310 L 2460,1490 L 2460,1495 L 2460,1675 L 2460,1755 L 2560,1755 L 2560,1675 L 2560,1495 L 2560,1490 L 2560,1310 L 2560,1235 Z" /><path d="M 7920,1235 L 7920,1310 L 7920,1490 L 7920,1495 L 7920,1675 L 7920,1755 L 8020,1755 L 8020,1675 L 8020,1495 L 8020,1490 L 8020,1310 L 8020,1235 Z" /><path d="M 6360,1620 L 6360,1690 L 6360,1870 L 6360,1895 L 6360,2075 L 6360,2140 L 6460,2140 L 6460,2075 L 6460,1895 L 6460,1870 L 6460,1690 L 6460,1620 Z" /><path d="M 900,1620 L 900,1690 L 900,1870 L 900,1895 L 900,2075 L 900,2140 L 1000,2140 L 1000,2075 L 1000,1895 L 1000,1870 L 1000,1690 L 1000,1620 Z" /></g></g><g id="VIA2"><g class="l52d0"><path d="M 8440,1735 L 8540,1735 L 8540,1835 L 8440,1835 Z" /><path d="M 6880,1735 L 6980,1735 L 6980,1835 L 6880,1835 Z" /><path d="M 2980,1735 L 3080,1735 L 3080,1835 L 2980,1835 Z" /><path d="M 1420,1735 L 1520,1735 L 1520,1835 L 1420,1835 Z" /><path d="M 5060,2135 L 5160,2135 L 5160,2235 L 5060,2235 Z" /><path d="M 7400,2135 L 7500,2135 L 7500,2235 L 7400,2235 Z" /><path d="M 2460,1535 L 2560,1535 L 2560,1635 L 2460,1635 Z" /><path d="M 7920,1535 L 8020,1535 L 8020,1635 L 7920,1635 Z" /><path d="M 6360,1935 L 6460,1935 L 6460,2035 L 6360,2035 Z" /><path d="M 900,1935 L 1000,1935 L 1000,2035 L 900,2035 Z" /></g></g><g id="M3"><g class="l33d0"><path d="M 1560,1835 L 2940,1835 L 3030,1835 L 3120,1835 L 6840,1835 L 6880,1835 L 6930,1835 L 7020,1835 L 8400,1835 L 8490,1835 L 8580,1835 L 8580,1735 L 8490,1735 L 8400,1735 L 7020,1735 L 6930,1735 L 6880,1735 L 6840,1735 L 3120,1735 L 3030,1735 L 2940,1735 L 1560,1735 L 1520,1735 L 1470,1735 L 1380,1735 L 1380,1835 L 1470,1835 L 1520,1835 Z" /><path d="M 7360,2235 L 7450,2235 L 7540,2235 L 7540,2135 L 7450,2135 L 7360,2135 L 5200,2135 L 5110,2135 L 5020,2135 L 5020,2235 L 5110,2235 L 5200,2235 Z" /><path d="M 7880,1635 L 7970,1635 L 8060,1635 L 8060,1535 L 7970,1535 L 7880,1535 L 2600,1535 L 2510,1535 L 2420,1535 L 2420,1635 L 2510,1635 L 2600,1635 Z" /><path d="M 1040,2035 L 6320,2035 L 6355,2035 L 6500,2035 L 6500,1935 L 6355,1935 L 6320,1935 L 1040,1935 L 950,1935 L 860,1935 L 860,2035 L 950,2035 Z" /></g></g></g></svg>