<svg width="6070" height="9430" viewBox="-5 -9425 6070 9430" xmlns="http://www.w3.org/2000/svg" xmlns:xlink="http://www.w3.org/1999/xlink"><defs><style type="text/css">.l3d0 {fill: #fef9e7; fill-opacity: 0.5; stroke-width: 10; stroke: #f1c40f; stroke-linecap: round; stroke-linejoin: round; stroke-opacity: 0.2;}.l25d0 {fill: #8e44ad; fill-opacity: 0.05; stroke-width: 10; stroke: #8e44ad; stroke-linecap: round; stroke-linejoin: round; stroke-opacity: 1;}.l26d0 {fill: #ccd1d1; fill-opacity: 0.05; stroke-width: 10; stroke: #ccd1d1; stroke-linecap: round; stroke-linejoin: round; stroke-opacity: 1;}.l6d0 {fill: #f5b7b1; fill-opacity: 1; stroke-width: 10; stroke: #e74c3c; stroke-linecap: round; stroke-linejoin: round; stroke-opacity: 1;}.l17d0 {fill: #2980b9; fill-opacity: 1; stroke-width: 0; stroke: #000000; stroke-linecap: round; stroke-linejoin: round; stroke-opacity: 0;}.l30d0 {fill: #27ae60; fill-opacity: 1; stroke-width: 0; stroke: #000000; stroke-linecap: round; stroke-linejoin: round; stroke-opacity: 0;}.l31d0 {fill: #85c1e9; fill-opacity: 0.6; stroke-width: 0; stroke: #000000; stroke-linecap: round; stroke-linejoin: round; stroke-opacity: 0;}.l51d0 {fill: #f39c12; fill-opacity: 1; stroke-width: 10; stroke: #f39c12; stroke-linecap: round; stroke-linejoin: round; stroke-opacity: 1;}.l32d0 {fill: #f7dc6f; fill-opacity: 0.6; stroke-width: 0; stroke: #000000; stroke-linecap: round; stroke-linejoin: round; stroke-opacity: 0;}.l52d0 {fill: #a04000; fill-opacity: 1; stroke-width: 10; stroke: #a04000; stroke-linecap: round; stroke-linejoin: round; stroke-opacity: 1;}.l33d0 {fill: #16a085; fill-opacity: 0.6; stroke-width: 0; stroke: #000000; stroke-linecap: round; stroke-linejoin: round; stroke-opacity: 0;}path {fill-rule: evenodd;}</style></defs><g transform="scale(1 -1)"><g id="NW"><g class="l3d0"><path d="M 3745,1900 L 3485,1900 L 3225,1900 L 3095,1900 L 2965,1900 L 2835,1900 L 2575,1900 L 2315,1900 L 0,1900 L 0,2770 L 0,3540 L 0,4410 L 2315,4410 L 2575,4410 L 2835,4410 L 2965,4410 L 3095,4410 L 3225,4410 L 3485,4410 L 3745,4410 L 5280,4410 L 6060,4410 L 6060,3540 L 6060,2770 L 6060,1900 L 5280,1900 Z" /><path d="M 5280,7780 L 3745,7780 L 3485,7780 L 3225,7780 L 3095,7780 L 2965,7780 L 2835,7780 L 2575,7780 L 2315,7780 L 0,7780 L 0,9420 L 5280,9420 L 6060,9420 L 6060,7780 Z" /></g></g><g id="PP"><g class="l25d0"><path d="M 5890,430 L 5890,0 L 5110,0 L 170,0 L 170,430 L 5110,430 Z" /><path d="M 5110,1685 L 170,1685 L 170,2940 L 325,2940 L 585,2940 L 795,2940 L 845,2940 L 1055,2940 L 1105,2940 L 1315,2940 L 1365,2940 L 1575,2940 L 1835,2940 L 1885,2940 L 2145,2940 L 2355,2940 L 2405,2940 L 2615,2940 L 2665,2940 L 2875,2940 L 2925,2940 L 3135,2940 L 3185,2940 L 3395,2940 L 3655,2940 L 3705,2940 L 3965,2940 L 4175,2940 L 4225,2940 L 4435,2940 L 4485,2940 L 4695,2940 L 4955,2940 L 5005,2940 L 5110,2940 L 5265,2940 L 5475,2940 L 5735,2940 L 5890,2940 L 5890,1685 Z" /><path d="M 5110,4625 L 170,4625 L 170,3370 L 325,3370 L 585,3370 L 795,3370 L 845,3370 L 1055,3370 L 1105,3370 L 1315,3370 L 1365,3370 L 1575,3370 L 1835,3370 L 1885,3370 L 2145,3370 L 2355,3370 L 2405,3370 L 2615,3370 L 2665,3370 L 2875,3370 L 2925,3370 L 3135,3370 L 3185,3370 L 3395,3370 L 3655,3370 L 3705,3370 L 3965,3370 L 4175,3370 L 4225,3370 L 4435,3370 L 4485,3370 L 4695,3370 L 4955,3370 L 5005,3370 L 5110,3370 L 5265,3370 L 5475,3370 L 5735,3370 L 5890,3370 L 5890,4625 Z" /><path d="M 5890,5880 L 5110,5880 L 170,5880 L 170,6310 L 5110,6310 L 5890,6310 Z" /><path d="M 5110,7565 L 170,7565 L 170,8820 L 325,8820 L 585,8820 L 795,8820 L 845,8820 L 1055,8820 L 1105,8820 L 1315,8820 L 1365,8820 L 1575,8820 L 1835,8820 L 1885,8820 L 2145,8820 L 2355,8820 L 2405,8820 L 2615,8820 L 2665,8820 L 2875,8820 L 2925,8820 L 3135,8820 L 3185,8820 L 3395,8820 L 3655,8820 L 3705,8820 L 3965,8820 L 4175,8820 L 4225,8820 L 4435,8820 L 4485,8820 L 4695,8820 L 4955,8820 L 5005,8820 L 5110,8820 L 5265,8820 L 5475,8820 L 5735,8820 L 5890,8820 L 5890,7565 Z" /></g></g><g id="NP"><g class="l26d0"><path d="M 5735,430 L 5475,430 L 5265,430 L 5110,430 L 5005,430 L 4955,430 L 4695,430 L 4485,430 L 4435,430 L 4225,430 L 4175,430 L 3965,430 L 3705,430 L 3655,430 L 3395,430 L 3185,430 L 3135,430 L 2925,430 L 2875,430 L 2665,430 L 2615,430 L 2405,430 L 2355,430 L 2145,430 L 1885,430 L 1835,430 L 1575,430 L 1365,430 L 1315,430 L 1105,430 L 1055,430 L 845,430 L 795,430 L 585,430 L 325,430 L 170,430 L 170,1685 L 5110,1685 L 5890,1685 L 5890,430 Z" /><path d="M 5890,2940 L 5110,2940 L 170,2940 L 170,3370 L 5110,3370 L 5890,3370 Z" /><path d="M 5735,5880 L 5475,5880 L 5265,5880 L 5110,5880 L 5005,5880 L 4955,5880 L 4695,5880 L 4485,5880 L 4435,5880 L 4225,5880 L 4175,5880 L 3965,5880 L 3705,5880 L 3655,5880 L 3395,5880 L 3185,5880 L 3135,5880 L 2925,5880 L 2875,5880 L 2665,5880 L 2615,5880 L 2405,5880 L 2355,5880 L 2145,5880 L 1885,5880 L 1835,5880 L 1575,5880 L 1365,5880 L 1315,5880 L 1105,5880 L 1055,5880 L 845,5880 L 795,5880 L 585,5880 L 325,5880 L 170,5880 L 170,4625 L 5110,4625 L 5890,4625 L 5890,5880 Z" /><path d="M 5890,9250 L 5890,8820 L 5110,8820 L 170,8820 L 170,9250 L 5110,9250 Z" /><path d="M 5735,6310 L 5475,6310 L 5265,6310 L 5110,6310 L 5005,6310 L 4955,6310 L 4695,6310 L 4485,6310 L 4435,6310 L 4225,6310 L 4175,6310 L 3965,6310 L 3705,6310 L 3655,6310 L 3395,6310 L 3185,6310 L 3135,6310 L 2925,6310 L 2875,6310 L 2665,6310 L 2615,6310 L 2405,6310 L 2355,6310 L 2145,6310 L 1885,6310 L 1835,6310 L 1575,6310 L 1365,6310 L 1315,6310 L 1105,6310 L 1055,6310 L 845,6310 L 795,6310 L 585,6310 L 325,6310 L 170,6310 L 170,7565 L 5110,7565 L 5890,7565 L 5890,6310 Z" /></g></g><g id="OD"><g class="l6d0"><path d="M 5760,300 L 5760,130 L 4980,130 L 300,130 L 300,300 L 4980,300 Z" /><path d="M 4490,770 L 4430,770 L 4355,770 L 4305,770 L 4230,770 L 4170,770 L 4095,770 L 4095,1010 L 4170,1010 L 4230,1010 L 4305,1010 L 4355,1010 L 4430,1010 L 4490,1010 L 4565,1010 L 4615,1010 L 4690,1010 L 4750,1010 L 4825,1010 L 4910,1010 L 4910,770 L 4825,770 L 4750,770 L 4690,770 L 4615,770 L 4565,770 Z" /><path d="M 4094,1010 L 4094,770 L 4045,770 L 3970,770 L 3910,770 L 3835,770 L 3750,770 L 3750,1010 L 3835,1010 L 3910,1010 L 3970,1010 L 4045,1010 Z" /><path d="M 4490,2360 L 4430,2360 L 4355,2360 L 4305,2360 L 4230,2360 L 4170,2360 L 4095,2360 L 4095,2600 L 4170,2600 L 4230,2600 L 4305,2600 L 4355,2600 L 4430,2600 L 4490,2600 L 4565,2600 L 4615,2600 L 4690,2600 L 4750,2600 L 4825,2600 L 4910,2600 L 4910,2360 L 4825,2360 L 4750,2360 L 4690,2360 L 4615,2360 L 4565,2360 Z" /><path d="M 3750,2360 L 3750,2600 L 3835,2600 L 3910,2600 L 3970,2600 L 4045,2600 L 4094,2600 L 4094,2360 L 4045,2360 L 3970,2360 L 3910,2360 L 3835,2360 Z" /><path d="M 975,2360 L 925,2360 L 850,2360 L 790,2360 L 715,2360 L 665,2360 L 590,2360 L 530,2360 L 455,2360 L 370,2360 L 370,2600 L 455,2600 L 530,2600 L 590,2600 L 665,2600 L 715,2600 L 790,2600 L 850,2600 L 925,2600 L 975,2600 L 1050,2600 L 1110,2600 L 1185,2600 L 1235,2600 L 1310,2600 L 1370,2600 L 1445,2600 L 1495,2600 L 1570,2600 L 1630,2600 L 1705,2600 L 1790,2600 L 1790,2360 L 1705,2360 L 1630,2360 L 1570,2360 L 1495,2360 L 1445,2360 L 1370,2360 L 1310,2360 L 1235,2360 L 1185,2360 L 1110,2360 L 1050,2360 Z" /><path d="M 3390,1130 L 3450,1130 L 3525,1130 L 3610,1130 L 3610,770 L 3525,770 L 3450,770 L 3390,770 L 3315,770 L 3265,770 L 3190,770 L 3130,770 L 3055,770 L 3005,770 L 2930,770 L 2870,770 L 2795,770 L 2745,770 L 2670,770 L 2610,770 L 2535,770 L 2485,770 L 2410,770 L 2350,770 L 2275,770 L 2225,770 L 2150,770 L 2090,770 L 2015,770 L 1930,770 L 1930,1010 L 2015,1010 L 2090,1010 L 2150,1010 L 2225,1010 L 2275,1010 L 2350,1010 L 2410,1010 L 2485,1010 L 2485,1130 L 2535,1130 L 2610,1130 L 2670,1130 L 2745,1130 L 2795,1130 L 2870,1130 L 2930,1130 L 3005,1130 L 3055,1130 L 3130,1130 L 3190,1130 L 3265,1130 L 3315,1130 Z" /><path d="M 925,1010 L 925,1130 L 975,1130 L 1050,1130 L 1110,1130 L 1185,1130 L 1235,1130 L 1310,1130 L 1370,1130 L 1445,1130 L 1495,1130 L 1570,1130 L 1630,1130 L 1705,1130 L 1790,1130 L 1790,770 L 1705,770 L 1630,770 L 1570,770 L 1495,770 L 1445,770 L 1370,770 L 1310,770 L 1235,770 L 1185,770 L 1110,770 L 1050,770 L 975,770 L 925,770 L 850,770 L 790,770 L 715,770 L 665,770 L 590,770 L 530,770 L 455,770 L 370,770 L 370,1010 L 455,1010 L 530,1010 L 590,1010 L 665,1010 L 715,1010 L 790,1010 L 850,1010 Z" /><path d="M 3390,2600 L 3450,2600 L 3525,2600 L 3610,2600 L 3610,2120 L 3525,2120 L 3450,2120 L 3390,2120 L 3315,2120 L 3265,2120 L 3190,2120 L 3130,2120 L 3055,2120 L 3005,2120 L 2930,2120 L 2870,2120 L 2795,2120 L 2745,2120 L 2670,2120 L 2610,2120 L 2535,2120 L 2485,2120 L 2485,2360 L 2410,2360 L 2350,2360 L 2275,2360 L 2225,2360 L 2150,2360 L 2090,2360 L 2015,2360 L 1930,2360 L 1930,2600 L 2015,2600 L 2090,2600 L 2150,2600 L 2225,2600 L 2275,2600 L 2350,2600 L 2410,2600 L 2485,2600 L 2535,2600 L 2610,2600 L 2670,2600 L 2745,2600 L 2795,2600 L 2870,2600 L 2930,2600 L 3005,2600 L 3055,2600 L 3130,2600 L 3190,2600 L 3265,2600 L 3315,2600 Z" /><path d="M 5395,890 L 5470,890 L 5530,890 L 5605,890 L 5705,890 L 5705,770 L 5605,770 L 5530,770 L 5470,770 L 5395,770 L 5345,770 L 5270,770 L 5210,770 L 5135,770 L 5035,770 L 5035,890 L 5135,890 L 5210,890 L 5270,890 L 5345,890 Z" /><path d="M 5395,2600 L 5470,2600 L 5530,2600 L 5605,2600 L 5690,2600 L 5690,2360 L 5605,2360 L 5530,2360 L 5470,2360 L 5395,2360 L 5345,2360 L 5270,2360 L 5210,2360 L 5135,2360 L 5050,2360 L 5050,2600 L 5135,2600 L 5210,2600 L 5270,2600 L 5345,2600 Z" /><path d="M 5760,3070 L 4980,3070 L 300,3070 L 300,3240 L 4980,3240 L 5760,3240 Z" /><path d="M 4490,5540 L 4430,5540 L 4355,5540 L 4305,5540 L 4230,5540 L 4170,5540 L 4095,5540 L 4095,5300 L 4170,5300 L 4230,5300 L 4305,5300 L 4355,5300 L 4430,5300 L 4490,5300 L 4565,5300 L 4615,5300 L 4690,5300 L 4750,5300 L 4825,5300 L 4910,5300 L 4910,5540 L 4825,5540 L 4750,5540 L 4690,5540 L 4615,5540 L 4565,5540 Z" /><path d="M 4094,5300 L 4094,5540 L 4045,5540 L 3970,5540 L 3910,5540 L 3835,5540 L 3750,5540 L 3750,5300 L 3835,5300 L 3910,5300 L 3970,5300 L 4045,5300 Z" /><path d="M 4490,3950 L 4430,3950 L 4355,3950 L 4305,3950 L 4230,3950 L 4170,3950 L 4095,3950 L 4095,3710 L 4170,3710 L 4230,3710 L 4305,3710 L 4355,3710 L 4430,3710 L 4490,3710 L 4565,3710 L 4615,3710 L 4690,3710 L 4750,3710 L 4825,3710 L 4910,3710 L 4910,3950 L 4825,3950 L 4750,3950 L 4690,3950 L 4615,3950 L 4565,3950 Z" /><path d="M 3750,3950 L 3750,3710 L 3835,3710 L 3910,3710 L 3970,3710 L 4045,3710 L 4094,3710 L 4094,3950 L 4045,3950 L 3970,3950 L 3910,3950 L 3835,3950 Z" /><path d="M 975,3950 L 925,3950 L 850,3950 L 790,3950 L 715,3950 L 665,3950 L 590,3950 L 530,3950 L 455,3950 L 370,3950 L 370,3710 L 455,3710 L 530,3710 L 590,3710 L 665,3710 L 715,3710 L 790,3710 L 850,3710 L 925,3710 L 975,3710 L 1050,3710 L 1110,3710 L 1185,3710 L 1235,3710 L 1310,3710 L 1370,3710 L 1445,3710 L 1495,3710 L 1570,3710 L 1630,3710 L 1705,3710 L 1790,3710 L 1790,3950 L 1705,3950 L 1630,3950 L 1570,3950 L 1495,3950 L 1445,3950 L 1370,3950 L 1310,3950 L 1235,3950 L 1185,3950 L 1110,3950 L 1050,3950 Z" /><path d="M 3390,5180 L 3450,5180 L 3525,5180 L 3610,5180 L 3610,5540 L 3525,5540 L 3450,5540 L 3390,5540 L 3315,5540 L 3265,5540 L 3190,5540 L 3130,5540 L 3055,5540 L 3005,5540 L 2930,5540 L 2870,5540 L 2795,5540 L 2745,5540 L 2670,5540 L 2610,5540 L 2535,5540 L 2485,5540 L 2410,5540 L 2350,5540 L 2275,5540 L 2225,5540 L 2150,5540 L 2090,5540 L 2015,5540 L 1930,5540 L 1930,5300 L 2015,5300 L 2090,5300 L 2150,5300 L 2225,5300 L 2275,5300 L 2350,5300 L 2410,5300 L 2485,5300 L 2485,5180 L 2535,5180 L 2610,5180 L 2670,5180 L 2745,5180 L 2795,5180 L 2870,5180 L 2930,5180 L 3005,5180 L 3055,5180 L 3130,5180 L 3190,5180 L 3265,5180 L 3315,5180 Z" /><path d="M 925,5300 L 925,5180 L 975,5180 L 1050,5180 L 1110,5180 L 1185,5180 L 1235,5180 L 1310,5180 L 1370,5180 L 1445,5180 L 1495,5180 L 1570,5180 L 1630,5180 L 1705,5180 L 1790,5180 L 1790,5540 L 1705,5540 L 1630,5540 L 1570,5540 L 1495,5540 L 1445,5540 L 1370,5540 L 1310,5540 L 1235,5540 L 1185,5540 L 1110,5540 L 1050,5540 L 975,5540 L 925,5540 L 850,5540 L 790,5540 L 715,5540 L 665,5540 L 590,5540 L 530,5540 L 455,5540 L 370,5540 L 370,5300 L 455,5300 L 530,5300 L 590,5300 L 665,5300 L 715,5300 L 790,5300 L 850,5300 Z" /><path d="M 3390,3710 L 3450,3710 L 3525,3710 L 3610,3710 L 3610,4190 L 3525,4190 L 3450,4190 L 3390,4190 L 3315,4190 L 3265,4190 L 3190,4190 L 3130,4190 L 3055,4190 L 3005,4190 L 2930,4190 L 2870,4190 L 2795,4190 L 2745,4190 L 2670,4190 L 2610,4190 L 2535,4190 L 2485,4190 L 2485,3950 L 2410,3950 L 2350,3950 L 2275,3950 L 2225,3950 L 2150,3950 L 2090,3950 L 2015,3950 L 1930,3950 L 1930,3710 L 2015,3710 L 2090,3710 L 2150,3710 L 2225,3710 L 2275,3710 L 2350,3710 L 2410,3710 L 2485,3710 L 2535,3710 L 2610,3710 L 2670,3710 L 2745,3710 L 2795,3710 L 2870,3710 L 2930,3710 L 3005,3710 L 3055,3710 L 3130,3710 L 3190,3710 L 3265,3710 L 3315,3710 Z" /><path d="M 5395,5420 L 5470,5420 L 5530,5420 L 5605,5420 L 5705,5420 L 5705,5540 L 5605,5540 L 5530,5540 L 5470,5540 L 5395,5540 L 5345,5540 L 5270,5540 L 5210,5540 L 5135,5540 L 5035,5540 L 5035,5420 L 5135,5420 L 5210,5420 L 5270,5420 L 5345,5420 Z" /><path d="M 5395,3710 L 5470,3710 L 5530,3710 L 5605,3710 L 5690,3710 L 5690,3950 L 5605,3950 L 5530,3950 L 5470,3950 L 5395,3950 L 5345,3950 L 5270,3950 L 5210,3950 L 5135,3950 L 5050,3950 L 5050,3710 L 5135,3710 L 5210,3710 L 5270,3710 L 5345,3710 Z" /><path d="M 5760,6010 L 4980,6010 L 300,6010 L 300,6180 L 4980,6180 L 5760,6180 Z" /><path d="M 5760,9120 L 5760,8950 L 4980,8950 L 300,8950 L 300,9120 L 4980,9120 Z" /><path d="M 4490,6650 L 4430,6650 L 4355,6650 L 4305,6650 L 4230,6650 L 4170,6650 L 4095,6650 L 4095,6890 L 4170,6890 L 4230,6890 L 4305,6890 L 4355,6890 L 4430,6890 L 4490,6890 L 4565,6890 L 4615,6890 L 4690,6890 L 4750,6890 L 4825,6890 L 4910,6890 L 4910,6650 L 4825,6650 L 4750,6650 L 4690,6650 L 4615,6650 L 4565,6650 Z" /><path d="M 4094,6890 L 4094,6650 L 4045,6650 L 3970,6650 L 3910,6650 L 3835,6650 L 3750,6650 L 3750,6890 L 3835,6890 L 3910,6890 L 3970,6890 L 4045,6890 Z" /><path d="M 4490,8240 L 4430,8240 L 4355,8240 L 4305,8240 L 4230,8240 L 4170,8240 L 4095,8240 L 4095,8480 L 4170,8480 L 4230,8480 L 4305,8480 L 4355,8480 L 4430,8480 L 4490,8480 L 4565,8480 L 4615,8480 L 4690,8480 L 4750,8480 L 4825,8480 L 4910,8480 L 4910,8240 L 4825,8240 L 4750,8240 L 4690,8240 L 4615,8240 L 4565,8240 Z" /><path d="M 3750,8240 L 3750,8480 L 3835,8480 L 3910,8480 L 3970,8480 L 4045,8480 L 4094,8480 L 4094,8240 L 4045,8240 L 3970,8240 L 3910,8240 L 3835,8240 Z" /><path d="M 975,8240 L 925,8240 L 850,8240 L 790,8240 L 715,8240 L 665,8240 L 590,8240 L 530,8240 L 455,8240 L 370,8240 L 370,8480 L 455,8480 L 530,8480 L 590,8480 L 665,8480 L 715,8480 L 790,8480 L 850,8480 L 925,8480 L 975,8480 L 1050,8480 L 1110,8480 L 1185,8480 L 1235,8480 L 1310,8480 L 1370,8480 L 1445,8480 L 1495,8480 L 1570,8480 L 1630,8480 L 1705,8480 L 1790,8480 L 1790,8240 L 1705,8240 L 1630,8240 L 1570,8240 L 1495,8240 L 1445,8240 L 1370,8240 L 1310,8240 L 1235,8240 L 1185,8240 L 1110,8240 L 1050,8240 Z" /><path d="M 3390,7010 L 3450,7010 L 3525,7010 L 3610,7010 L 3610,6650 L 3525,6650 L 3450,6650 L 3390,6650 L 3315,6650 L 3265,6650 L 3190,6650 L 3130,6650 L 3055,6650 L 3005,6650 L 2930,6650 L 2870,6650 L 2795,6650 L 2745,6650 L 2670,6650 L 2610,6650 L 2535,6650 L 2485,6650 L 2410,6650 L 2350,6650 L 2275,6650 L 2225,6650 L 2150,6650 L 2090,6650 L 2015,6650 L 1930,6650 L 1930,6890 L 2015,6890 L 2090,6890 L 2150,6890 L 2225,6890 L 2275,6890 L 2350,6890 L 2410,6890 L 2485,6890 L 2485,7010 L 2535,7010 L 2610,7010 L 2670,7010 L 2745,7010 L 2795,7010 L 2870,7010 L 2930,7010 L 3005,7010 L 3055,7010 L 3130,7010 L 3190,7010 L 3265,7010 L 3315,7010 Z" /><path d="M 925,6890 L 925,7010 L 975,7010 L 1050,7010 L 1110,7010 L 1185,7010 L 1235,7010 L 1310,7010 L 1370,7010 L 1445,7010 L 1495,7010 L 1570,7010 L 1630,7010 L 1705,7010 L 1790,7010 L 1790,6650 L 1705,6650 L 1630,6650 L 1570,6650 L 1495,6650 L 1445,6650 L 1370,6650 L 1310,6650 L 1235,6650 L 1185,6650 L 1110,6650 L 1050,6650 L 975,6650 L 925,6650 L 850,6650 L 790,6650 L 715,6650 L 665,6650 L 590,6650 L 530,6650 L 455,6650 L 370,6650 L 370,6890 L 455,6890 L 530,6890 L 590,6890 L 665,6890 L 715,6890 L 790,6890 L 850,6890 Z" /><path d="M 3390,8480 L 3450,8480 L 3525,8480 L 3610,8480 L 3610,8000 L 3525,8000 L 3450,8000 L 3390,8000 L 3315,8000 L 3265,8000 L 3190,8000 L 3130,8000 L 3055,8000 L 3005,8000 L 2930,8000 L 2870,8000 L 2795,8000 L 2745,8000 L 2670,8000 L 2610,8000 L 2535,8000 L 2485,8000 L 2485,8240 L 2410,8240 L 2350,8240 L 2275,8240 L 2225,8240 L 2150,8240 L 2090,8240 L 2015,8240 L 1930,8240 L 1930,8480 L 2015,8480 L 2090,8480 L 2150,8480 L 2225,8480 L 2275,8480 L 2350,8480 L 2410,8480 L 2485,8480 L 2535,8480 L 2610,8480 L 2670,8480 L 2745,8480 L 2795,8480 L 2870,8480 L 2930,8480 L 3005,8480 L 3055,8480 L 3130,8480 L 3190,8480 L 3265,8480 L 3315,8480 Z" /><path d="M 5395,6770 L 5470,6770 L 5530,6770 L 5605,6770 L 5705,6770 L 5705,6650 L 5605,6650 L 5530,6650 L 5470,6650 L 5395,6650 L 5345,6650 L 5270,6650 L 5210,6650 L 5135,6650 L 5035,6650 L 5035,6770 L 5135,6770 L 5210,6770 L 5270,6770 L 5345,6770 Z" /><path d="M 5395,8480 L 5470,8480 L 5530,8480 L 5605,8480 L 5690,8480 L 5690,8240 L 5605,8240 L 5530,8240 L 5470,8240 L 5395,8240 L 5345,8240 L 5270,8240 L 5210,8240 L 5135,8240 L 5050,8240 L 5050,8480 L 5135,8480 L 5210,8480 L 5270,8480 L 5345,8480 Z" /></g></g><g id="PO"><g class="l17d0"><path d="M 590,1010 L 590,770 L 590,630 L 530,630 L 530,770 L 530,1010 L 530,1150 L 530,1505 L 505,1505 L 505,1675 L 530,1675 L 530,2220 L 530,2360 L 530,2600 L 530,2740 L 590,2740 L 590,2600 L 590,2360 L 590,2220 L 590,1675 L 615,1675 L 615,1505 L 590,1505 L 590,1150 Z" /><path d="M 2150,1010 L 2150,770 L 2150,630 L 2090,630 L 2090,770 L 2090,1010 L 2090,1150 L 2090,1400 L 2090,2110 L 2065,2110 L 2065,2280 L 2090,2280 L 2090,2360 L 2090,2600 L 2090,2740 L 2150,2740 L 2150,2600 L 2150,2360 L 2150,2280 L 2175,2280 L 2175,2110 L 2150,2110 L 2150,1400 L 2150,1150 Z" /><path d="M 790,2360 L 790,2600 L 790,2740 L 850,2740 L 850,2600 L 850,2360 L 850,2220 L 850,2055 L 875,2055 L 875,1885 L 850,1885 L 850,1150 L 850,1010 L 850,770 L 850,630 L 790,630 L 790,770 L 790,1010 L 790,1150 L 790,1885 L 765,1885 L 765,2055 L 790,2055 L 790,2220 Z" /><path d="M 1050,2360 L 1050,2600 L 1050,2740 L 1110,2740 L 1110,2600 L 1110,2360 L 1110,2220 L 1110,1865 L 1140,1865 L 1140,1695 L 1110,1695 L 1110,1270 L 1110,1130 L 1110,770 L 1110,630 L 1050,630 L 1050,770 L 1050,1130 L 1050,1270 L 1050,1695 L 1020,1695 L 1020,1865 L 1050,1865 L 1050,2220 Z" /><path d="M 2670,1130 L 2670,770 L 2670,630 L 2610,630 L 2610,770 L 2610,1130 L 2610,1270 L 2610,1315 L 2580,1315 L 2580,1485 L 2610,1485 L 2610,1980 L 2610,2120 L 2610,2600 L 2610,2740 L 2670,2740 L 2670,2600 L 2670,2120 L 2670,1980 L 2670,1485 L 2700,1485 L 2700,1315 L 2670,1315 L 2670,1270 Z" /><path d="M 2930,1270 L 2930,1130 L 2930,770 L 2930,630 L 2870,630 L 2870,770 L 2870,1130 L 2870,1270 L 2870,1695 L 2840,1695 L 2840,1865 L 2870,1865 L 2870,1980 L 2870,2120 L 2870,2600 L 2870,2740 L 2930,2740 L 2930,2600 L 2930,2120 L 2930,1980 L 2929,1980 L 2929,1865 L 2960,1865 L 2960,1695 L 2929,1695 L 2929,1270 Z" /><path d="M 2410,1150 L 2410,1010 L 2410,770 L 2410,630 L 2350,630 L 2350,770 L 2350,1010 L 2350,1150 L 2350,1695 L 2320,1695 L 2320,1865 L 2350,1865 L 2350,2220 L 2350,2360 L 2350,2600 L 2350,2740 L 2410,2740 L 2410,2600 L 2410,2360 L 2410,2220 L 2409,2220 L 2409,1865 L 2440,1865 L 2440,1695 L 2409,1695 L 2409,1150 Z" /><path d="M 1570,2360 L 1570,2600 L 1570,2740 L 1630,2740 L 1630,2600 L 1630,2360 L 1630,2220 L 1630,1865 L 1660,1865 L 1660,1695 L 1630,1695 L 1630,1270 L 1630,1130 L 1630,770 L 1630,630 L 1570,630 L 1570,770 L 1570,1130 L 1570,1270 L 1570,1695 L 1540,1695 L 1540,1865 L 1570,1865 L 1570,2220 Z" /><path d="M 1310,2360 L 1310,2600 L 1310,2740 L 1370,2740 L 1370,2600 L 1370,2360 L 1370,2220 L 1370,1485 L 1400,1485 L 1400,1315 L 1370,1315 L 1370,1270 L 1370,1130 L 1370,770 L 1370,630 L 1310,630 L 1310,770 L 1310,1130 L 1310,1270 L 1310,1315 L 1280,1315 L 1280,1485 L 1310,1485 L 1310,2220 Z" /><path d="M 3450,1270 L 3450,1130 L 3450,770 L 3450,630 L 3390,630 L 3390,770 L 3390,1130 L 3390,1270 L 3390,1505 L 3360,1505 L 3360,1675 L 3390,1675 L 3390,1980 L 3390,2120 L 3390,2600 L 3390,2740 L 3450,2740 L 3450,2600 L 3450,2120 L 3450,1980 L 3449,1980 L 3449,1675 L 3480,1675 L 3480,1505 L 3449,1505 L 3449,1270 Z" /><path d="M 4490,1010 L 4490,770 L 4490,630 L 4430,630 L 4430,770 L 4430,1010 L 4430,1150 L 4430,2110 L 4400,2110 L 4400,2280 L 4430,2280 L 4430,2360 L 4430,2600 L 4430,2740 L 4490,2740 L 4490,2600 L 4490,2360 L 4490,2280 L 4520,2280 L 4520,2110 L 4490,2110 L 4490,1150 Z" /><path d="M 3190,1130 L 3190,770 L 3190,630 L 3130,630 L 3130,770 L 3130,1130 L 3130,1270 L 3130,1885 L 3100,1885 L 3100,2055 L 3130,2055 L 3130,2120 L 3130,2600 L 3130,2740 L 3190,2740 L 3190,2600 L 3190,2120 L 3190,2055 L 3220,2055 L 3220,1885 L 3190,1885 L 3190,1270 Z" /><path d="M 4690,2220 L 4690,2360 L 4690,2600 L 4690,2740 L 4750,2740 L 4750,2600 L 4750,2360 L 4750,2220 L 4750,1865 L 4780,1865 L 4780,1695 L 4750,1695 L 4750,1150 L 4750,1010 L 4750,770 L 4750,630 L 4690,630 L 4690,770 L 4690,1010 L 4690,1150 L 4689,1150 L 4689,1695 L 4660,1695 L 4660,1865 L 4689,1865 L 4689,2220 Z" /><path d="M 4230,1010 L 4230,770 L 4230,630 L 4170,630 L 4170,770 L 4170,1010 L 4170,1150 L 4170,1505 L 4140,1505 L 4140,1675 L 4170,1675 L 4170,2220 L 4170,2360 L 4170,2600 L 4170,2740 L 4230,2740 L 4230,2600 L 4230,2360 L 4230,2220 L 4230,1675 L 4260,1675 L 4260,1505 L 4230,1505 L 4230,1150 Z" /><path d="M 3970,1150 L 3970,1010 L 3970,770 L 3970,630 L 3910,630 L 3910,770 L 3910,1010 L 3910,1150 L 3910,1885 L 3880,1885 L 3880,2055 L 3910,2055 L 3910,2220 L 3910,2360 L 3910,2600 L 3910,2740 L 3970,2740 L 3970,2600 L 3970,2360 L 3970,2220 L 3969,2220 L 3969,2055 L 4000,2055 L 4000,1885 L 3969,1885 L 3969,1150 Z" /><path d="M 5530,890 L 5530,770 L 5530,630 L 5470,630 L 5470,770 L 5470,890 L 5470,1030 L 5470,1695 L 5440,1695 L 5440,1865 L 5470,1865 L 5470,2220 L 5470,2360 L 5470,2600 L 5470,2740 L 5530,2740 L 5530,2600 L 5530,2360 L 5530,2220 L 5530,1865 L 5560,1865 L 5560,1695 L 5530,1695 L 5530,1030 Z" /><path d="M 5210,2360 L 5210,2600 L 5210,2740 L 5270,2740 L 5270,2600 L 5270,2360 L 5270,2220 L 5270,1675 L 5300,1675 L 5300,1505 L 5270,1505 L 5270,1030 L 5270,890 L 5270,770 L 5270,630 L 5210,630 L 5210,770 L 5210,890 L 5210,1030 L 5210,1505 L 5180,1505 L 5180,1675 L 5210,1675 L 5210,2220 Z" /><path d="M 590,5300 L 590,5540 L 590,5680 L 530,5680 L 530,5540 L 530,5300 L 530,5160 L 530,4805 L 505,4805 L 505,4635 L 530,4635 L 530,4090 L 530,3950 L 530,3710 L 530,3570 L 590,3570 L 590,3710 L 590,3950 L 590,4090 L 590,4635 L 615,4635 L 615,4805 L 590,4805 L 590,5160 Z" /><path d="M 2150,5300 L 2150,5540 L 2150,5680 L 2090,5680 L 2090,5540 L 2090,5300 L 2090,5160 L 2090,4910 L 2090,4200 L 2065,4200 L 2065,4030 L 2090,4030 L 2090,3950 L 2090,3710 L 2090,3570 L 2150,3570 L 2150,3710 L 2150,3950 L 2150,4030 L 2175,4030 L 2175,4200 L 2150,4200 L 2150,4910 L 2150,5160 Z" /><path d="M 790,3950 L 790,3710 L 790,3570 L 850,3570 L 850,3710 L 850,3950 L 850,4090 L 850,4255 L 875,4255 L 875,4425 L 850,4425 L 850,5160 L 850,5300 L 850,5540 L 850,5680 L 790,5680 L 790,5540 L 790,5300 L 790,5160 L 790,4425 L 765,4425 L 765,4255 L 790,4255 L 790,4090 Z" /><path d="M 1050,3950 L 1050,3710 L 1050,3570 L 1110,3570 L 1110,3710 L 1110,3950 L 1110,4090 L 1110,4445 L 1140,4445 L 1140,4615 L 1110,4615 L 1110,5040 L 1110,5180 L 1110,5540 L 1110,5680 L 1050,5680 L 1050,5540 L 1050,5180 L 1050,5040 L 1050,4615 L 1020,4615 L 1020,4445 L 1050,4445 L 1050,4090 Z" /><path d="M 2670,5180 L 2670,5540 L 2670,5680 L 2610,5680 L 2610,5540 L 2610,5180 L 2610,5040 L 2610,4995 L 2580,4995 L 2580,4825 L 2610,4825 L 2610,4330 L 2610,4190 L 2610,3710 L 2610,3570 L 2670,3570 L 2670,3710 L 2670,4190 L 2670,4330 L 2670,4825 L 2700,4825 L 2700,4995 L 2670,4995 L 2670,5040 Z" /><path d="M 2930,5040 L 2930,5180 L 2930,5540 L 2930,5680 L 2870,5680 L 2870,5540 L 2870,5180 L 2870,5040 L 2870,4615 L 2840,4615 L 2840,4445 L 2870,4445 L 2870,4330 L 2870,4190 L 2870,3710 L 2870,3570 L 2930,3570 L 2930,3710 L 2930,4190 L 2930,4330 L 2929,4330 L 2929,4445 L 2960,4445 L 2960,4615 L 2929,4615 L 2929,5040 Z" /><path d="M 2410,5160 L 2410,5300 L 2410,5540 L 2410,5680 L 2350,5680 L 2350,5540 L 2350,5300 L 2350,5160 L 2350,4615 L 2320,4615 L 2320,4445 L 2350,4445 L 2350,4090 L 2350,3950 L 2350,3710 L 2350,3570 L 2410,3570 L 2410,3710 L 2410,3950 L 2410,4090 L 2409,4090 L 2409,4445 L 2440,4445 L 2440,4615 L 2409,4615 L 2409,5160 Z" /><path d="M 1570,3950 L 1570,3710 L 1570,3570 L 1630,3570 L 1630,3710 L 1630,3950 L 1630,4090 L 1630,4445 L 1660,4445 L 1660,4615 L 1630,4615 L 1630,5040 L 1630,5180 L 1630,5540 L 1630,5680 L 1570,5680 L 1570,5540 L 1570,5180 L 1570,5040 L 1570,4615 L 1540,4615 L 1540,4445 L 1570,4445 L 1570,4090 Z" /><path d="M 1310,3950 L 1310,3710 L 1310,3570 L 1370,3570 L 1370,3710 L 1370,3950 L 1370,4090 L 1370,4825 L 1400,4825 L 1400,4995 L 1370,4995 L 1370,5040 L 1370,5180 L 1370,5540 L 1370,5680 L 1310,5680 L 1310,5540 L 1310,5180 L 1310,5040 L 1310,4995 L 1280,4995 L 1280,4825 L 1310,4825 L 1310,4090 Z" /><path d="M 3450,5040 L 3450,5180 L 3450,5540 L 3450,5680 L 3390,5680 L 3390,5540 L 3390,5180 L 3390,5040 L 3390,4805 L 3360,4805 L 3360,4635 L 3390,4635 L 3390,4330 L 3390,4190 L 3390,3710 L 3390,3570 L 3450,3570 L 3450,3710 L 3450,4190 L 3450,4330 L 3449,4330 L 3449,4635 L 3480,4635 L 3480,4805 L 3449,4805 L 3449,5040 Z" /><path d="M 4490,5300 L 4490,5540 L 4490,5680 L 4430,5680 L 4430,5540 L 4430,5300 L 4430,5160 L 4430,4200 L 4400,4200 L 4400,4030 L 4430,4030 L 4430,3950 L 4430,3710 L 4430,3570 L 4490,3570 L 4490,3710 L 4490,3950 L 4490,4030 L 4520,4030 L 4520,4200 L 4490,4200 L 4490,5160 Z" /><path d="M 3190,5180 L 3190,5540 L 3190,5680 L 3130,5680 L 3130,5540 L 3130,5180 L 3130,5040 L 3130,4425 L 3100,4425 L 3100,4255 L 3130,4255 L 3130,4190 L 3130,3710 L 3130,3570 L 3190,3570 L 3190,3710 L 3190,4190 L 3190,4255 L 3220,4255 L 3220,4425 L 3190,4425 L 3190,5040 Z" /><path d="M 4690,4090 L 4690,3950 L 4690,3710 L 4690,3570 L 4750,3570 L 4750,3710 L 4750,3950 L 4750,4090 L 4750,4445 L 4780,4445 L 4780,4615 L 4750,4615 L 4750,5160 L 4750,5300 L 4750,5540 L 4750,5680 L 4690,5680 L 4690,5540 L 4690,5300 L 4690,5160 L 4689,5160 L 4689,4615 L 4660,4615 L 4660,4445 L 4689,4445 L 4689,4090 Z" /><path d="M 4230,5300 L 4230,5540 L 4230,5680 L 4170,5680 L 4170,5540 L 4170,5300 L 4170,5160 L 4170,4805 L 4140,4805 L 4140,4635 L 4170,4635 L 4170,4090 L 4170,3950 L 4170,3710 L 4170,3570 L 4230,3570 L 4230,3710 L 4230,3950 L 4230,4090 L 4230,4635 L 4260,4635 L 4260,4805 L 4230,4805 L 4230,5160 Z" /><path d="M 3970,5160 L 3970,5300 L 3970,5540 L 3970,5680 L 3910,5680 L 3910,5540 L 3910,5300 L 3910,5160 L 3910,4425 L 3880,4425 L 3880,4255 L 3910,4255 L 3910,4090 L 3910,3950 L 3910,3710 L 3910,3570 L 3970,3570 L 3970,3710 L 3970,3950 L 3970,4090 L 3969,4090 L 3969,4255 L 4000,4255 L 4000,4425 L 3969,4425 L 3969,5160 Z" /><path d="M 5530,5420 L 5530,5540 L 5530,5680 L 5470,5680 L 5470,5540 L 5470,5420 L 5470,5280 L 5470,4615 L 5440,4615 L 5440,4445 L 5470,4445 L 5470,4090 L 5470,3950 L 5470,3710 L 5470,3570 L 5530,3570 L 5530,3710 L 5530,3950 L 5530,4090 L 5530,4445 L 5560,4445 L 5560,4615 L 5530,4615 L 5530,5280 Z" /><path d="M 5210,3950 L 5210,3710 L 5210,3570 L 5270,3570 L 5270,3710 L 5270,3950 L 5270,4090 L 5270,4635 L 5300,4635 L 5300,4805 L 5270,4805 L 5270,5280 L 5270,5420 L 5270,5540 L 5270,5680 L 5210,5680 L 5210,5540 L 5210,5420 L 5210,5280 L 5210,4805 L 5180,4805 L 5180,4635 L 5210,4635 L 5210,4090 Z" /><path d="M 590,6890 L 590,6650 L 590,6510 L 530,6510 L 530,6650 L 530,6890 L 530,7030 L 530,7385 L 505,7385 L 505,7555 L 530,7555 L 530,8100 L 530,8240 L 530,8480 L 530,8620 L 590,8620 L 590,8480 L 590,8240 L 590,8100 L 590,7555 L 615,7555 L 615,7385 L 590,7385 L 590,7030 Z" /><path d="M 2150,6890 L 2150,6650 L 2150,6510 L 2090,6510 L 2090,6650 L 2090,6890 L 2090,7030 L 2090,7280 L 2090,7990 L 2065,7990 L 2065,8160 L 2090,8160 L 2090,8240 L 2090,8480 L 2090,8620 L 2150,8620 L 2150,8480 L 2150,8240 L 2150,8160 L 2175,8160 L 2175,7990 L 2150,7990 L 2150,7280 L 2150,7030 Z" /><path d="M 790,8240 L 790,8480 L 790,8620 L 850,8620 L 850,8480 L 850,8240 L 850,8100 L 850,7935 L 875,7935 L 875,7765 L 850,7765 L 850,7030 L 850,6890 L 850,6650 L 850,6510 L 790,6510 L 790,6650 L 790,6890 L 790,7030 L 790,7765 L 765,7765 L 765,7935 L 790,7935 L 790,8100 Z" /><path d="M 1050,8240 L 1050,8480 L 1050,8620 L 1110,8620 L 1110,8480 L 1110,8240 L 1110,8100 L 1110,7745 L 1140,7745 L 1140,7575 L 1110,7575 L 1110,7150 L 1110,7010 L 1110,6650 L 1110,6510 L 1050,6510 L 1050,6650 L 1050,7010 L 1050,7150 L 1050,7575 L 1020,7575 L 1020,7745 L 1050,7745 L 1050,8100 Z" /><path d="M 2670,7010 L 2670,6650 L 2670,6510 L 2610,6510 L 2610,6650 L 2610,7010 L 2610,7150 L 2610,7195 L 2580,7195 L 2580,7365 L 2610,7365 L 2610,7860 L 2610,8000 L 2610,8480 L 2610,8620 L 2670,8620 L 2670,8480 L 2670,8000 L 2670,7860 L 2670,7365 L 2700,7365 L 2700,7195 L 2670,7195 L 2670,7150 Z" /><path d="M 2930,7150 L 2930,7010 L 2930,6650 L 2930,6510 L 2870,6510 L 2870,6650 L 2870,7010 L 2870,7150 L 2870,7575 L 2840,7575 L 2840,7745 L 2870,7745 L 2870,7860 L 2870,8000 L 2870,8480 L 2870,8620 L 2930,8620 L 2930,8480 L 2930,8000 L 2930,7860 L 2929,7860 L 2929,7745 L 2960,7745 L 2960,7575 L 2929,7575 L 2929,7150 Z" /><path d="M 2410,7030 L 2410,6890 L 2410,6650 L 2410,6510 L 2350,6510 L 2350,6650 L 2350,6890 L 2350,7030 L 2350,7575 L 2320,7575 L 2320,7745 L 2350,7745 L 2350,8100 L 2350,8240 L 2350,8480 L 2350,8620 L 2410,8620 L 2410,8480 L 2410,8240 L 2410,8100 L 2409,8100 L 2409,7745 L 2440,7745 L 2440,7575 L 2409,7575 L 2409,7030 Z" /><path d="M 1570,8240 L 1570,8480 L 1570,8620 L 1630,8620 L 1630,8480 L 1630,8240 L 1630,8100 L 1630,7745 L 1660,7745 L 1660,7575 L 1630,7575 L 1630,7150 L 1630,7010 L 1630,6650 L 1630,6510 L 1570,6510 L 1570,6650 L 1570,7010 L 1570,7150 L 1570,7575 L 1540,7575 L 1540,7745 L 1570,7745 L 1570,8100 Z" /><path d="M 1310,8240 L 1310,8480 L 1310,8620 L 1370,8620 L 1370,8480 L 1370,8240 L 1370,8100 L 1370,7365 L 1400,7365 L 1400,7195 L 1370,7195 L 1370,7150 L 1370,7010 L 1370,6650 L 1370,6510 L 1310,6510 L 1310,6650 L 1310,7010 L 1310,7150 L 1310,7195 L 1280,7195 L 1280,7365 L 1310,7365 L 1310,8100 Z" /><path d="M 3450,7150 L 3450,7010 L 3450,6650 L 3450,6510 L 3390,6510 L 3390,6650 L 3390,7010 L 3390,7150 L 3390,7385 L 3360,7385 L 3360,7555 L 3390,7555 L 3390,7860 L 3390,8000 L 3390,8480 L 3390,8620 L 3450,8620 L 3450,8480 L 3450,8000 L 3450,7860 L 3449,7860 L 3449,7555 L 3480,7555 L 3480,7385 L 3449,7385 L 3449,7150 Z" /><path d="M 4490,6890 L 4490,6650 L 4490,6510 L 4430,6510 L 4430,6650 L 4430,6890 L 4430,7030 L 4430,7990 L 4400,7990 L 4400,8160 L 4430,8160 L 4430,8240 L 4430,8480 L 4430,8620 L 4490,8620 L 4490,8480 L 4490,8240 L 4490,8160 L 4520,8160 L 4520,7990 L 4490,7990 L 4490,7030 Z" /><path d="M 3190,7010 L 3190,6650 L 3190,6510 L 3130,6510 L 3130,6650 L 3130,7010 L 3130,7150 L 3130,7765 L 3100,7765 L 3100,7935 L 3130,7935 L 3130,8000 L 3130,8480 L 3130,8620 L 3190,8620 L 3190,8480 L 3190,8000 L 3190,7935 L 3220,7935 L 3220,7765 L 3190,7765 L 3190,7150 Z" /><path d="M 4690,8100 L 4690,8240 L 4690,8480 L 4690,8620 L 4750,8620 L 4750,8480 L 4750,8240 L 4750,8100 L 4750,7745 L 4780,7745 L 4780,7575 L 4750,7575 L 4750,7030 L 4750,6890 L 4750,6650 L 4750,6510 L 4690,6510 L 4690,6650 L 4690,6890 L 4690,7030 L 4689,7030 L 4689,7575 L 4660,7575 L 4660,7745 L 4689,7745 L 4689,8100 Z" /><path d="M 4230,6890 L 4230,6650 L 4230,6510 L 4170,6510 L 4170,6650 L 4170,6890 L 4170,7030 L 4170,7385 L 4140,7385 L 4140,7555 L 4170,7555 L 4170,8100 L 4170,8240 L 4170,8480 L 4170,8620 L 4230,8620 L 4230,8480 L 4230,8240 L 4230,8100 L 4230,7555 L 4260,7555 L 4260,7385 L 4230,7385 L 4230,7030 Z" /><path d="M 3970,7030 L 3970,6890 L 3970,6650 L 3970,6510 L 3910,6510 L 3910,6650 L 3910,6890 L 3910,7030 L 3910,7765 L 3880,7765 L 3880,7935 L 3910,7935 L 3910,8100 L 3910,8240 L 3910,8480 L 3910,8620 L 3970,8620 L 3970,8480 L 3970,8240 L 3970,8100 L 3969,8100 L 3969,7935 L 4000,7935 L 4000,7765 L 3969,7765 L 3969,7030 Z" /><path d="M 5530,6770 L 5530,6650 L 5530,6510 L 5470,6510 L 5470,6650 L 5470,6770 L 5470,6910 L 5470,7575 L 5440,7575 L 5440,7745 L 5470,7745 L 5470,8100 L 5470,8240 L 5470,8480 L 5470,8620 L 5530,8620 L 5530,8480 L 5530,8240 L 5530,8100 L 5530,7745 L 5560,7745 L 5560,7575 L 5530,7575 L 5530,6910 Z" /><path d="M 5210,8240 L 5210,8480 L 5210,8620 L 5270,8620 L 5270,8480 L 5270,8240 L 5270,8100 L 5270,7555 L 5300,7555 L 5300,7385 L 5270,7385 L 5270,6910 L 5270,6770 L 5270,6650 L 5270,6510 L 5210,6510 L 5210,6650 L 5210,6770 L 5210,6910 L 5210,7385 L 5180,7385 L 5180,7555 L 5210,7555 L 5210,8100 Z" /></g></g><g id="CO"><g class="l30d0"><path d="M 5585,170 L 5675,170 L 5675,260 L 5585,260 Z" /><path d="M 5325,170 L 5415,170 L 5415,260 L 5325,260 Z" /><path d="M 5065,170 L 5155,170 L 5155,260 L 5065,260 Z" /><path d="M 5585,785 L 5675,785 L 5675,875 L 5585,875 Z" /><path d="M 5325,785 L 5415,785 L 5415,875 L 5325,875 Z" /><path d="M 5065,785 L 5155,785 L 5155,875 L 5065,875 Z" /><path d="M 5585,2435 L 5675,2435 L 5675,2525 L 5585,2525 Z" /><path d="M 5325,2435 L 5415,2435 L 5415,2525 L 5325,2525 Z" /><path d="M 5065,2435 L 5155,2435 L 5155,2525 L 5065,2525 Z" /><path d="M 3245,2480 L 3335,2480 L 3335,2570 L 3245,2570 Z" /><path d="M 2725,2480 L 2815,2480 L 2815,2570 L 2725,2570 Z" /><path d="M 4545,2435 L 4635,2435 L 4635,2525 L 4545,2525 Z" /><path d="M 4285,2435 L 4375,2435 L 4375,2525 L 4285,2525 Z" /><path d="M 4025,2435 L 4115,2435 L 4115,2525 L 4025,2525 Z" /><path d="M 2985,2150 L 3075,2150 L 3075,2240 L 2985,2240 Z" /><path d="M 2985,2480 L 3075,2480 L 3075,2570 L 2985,2570 Z" /><path d="M 4805,170 L 4895,170 L 4895,260 L 4805,260 Z" /><path d="M 4545,170 L 4635,170 L 4635,260 L 4545,260 Z" /><path d="M 4285,170 L 4375,170 L 4375,260 L 4285,260 Z" /><path d="M 4025,170 L 4115,170 L 4115,260 L 4025,260 Z" /><path d="M 3765,170 L 3855,170 L 3855,260 L 3765,260 Z" /><path d="M 3505,170 L 3595,170 L 3595,260 L 3505,260 Z" /><path d="M 3245,170 L 3335,170 L 3335,260 L 3245,260 Z" /><path d="M 2985,170 L 3075,170 L 3075,260 L 2985,260 Z" /><path d="M 2725,170 L 2815,170 L 2815,260 L 2725,260 Z" /><path d="M 2465,170 L 2555,170 L 2555,260 L 2465,260 Z" /><path d="M 2205,170 L 2295,170 L 2295,260 L 2205,260 Z" /><path d="M 1945,170 L 2035,170 L 2035,260 L 1945,260 Z" /><path d="M 1685,170 L 1775,170 L 1775,260 L 1685,260 Z" /><path d="M 1425,170 L 1515,170 L 1515,260 L 1425,260 Z" /><path d="M 1165,170 L 1255,170 L 1255,260 L 1165,260 Z" /><path d="M 905,170 L 995,170 L 995,260 L 905,260 Z" /><path d="M 645,170 L 735,170 L 735,260 L 645,260 Z" /><path d="M 385,170 L 475,170 L 475,260 L 385,260 Z" /><path d="M 645,2435 L 735,2435 L 735,2525 L 645,2525 Z" /><path d="M 1425,2435 L 1515,2435 L 1515,2525 L 1425,2525 Z" /><path d="M 1165,2435 L 1255,2435 L 1255,2525 L 1165,2525 Z" /><path d="M 905,2435 L 995,2435 L 995,2525 L 905,2525 Z" /><path d="M 2205,2435 L 2295,2435 L 2295,2525 L 2205,2525 Z" /><path d="M 4805,845 L 4895,845 L 4895,935 L 4805,935 Z" /><path d="M 3765,845 L 3855,845 L 3855,935 L 3765,935 Z" /><path d="M 3505,1010 L 3595,1010 L 3595,1100 L 3505,1100 Z" /><path d="M 3505,800 L 3595,800 L 3595,890 L 3505,890 Z" /><path d="M 2725,800 L 2815,800 L 2815,890 L 2725,890 Z" /><path d="M 2465,845 L 2555,845 L 2555,935 L 2465,935 Z" /><path d="M 1945,845 L 2035,845 L 2035,935 L 1945,935 Z" /><path d="M 1685,1010 L 1775,1010 L 1775,1100 L 1685,1100 Z" /><path d="M 1685,800 L 1775,800 L 1775,890 L 1685,890 Z" /><path d="M 4285,845 L 4375,845 L 4375,935 L 4285,935 Z" /><path d="M 385,845 L 475,845 L 475,935 L 385,935 Z" /><path d="M 385,2435 L 475,2435 L 475,2525 L 385,2525 Z" /><path d="M 4805,2435 L 4895,2435 L 4895,2525 L 4805,2525 Z" /><path d="M 3765,2435 L 3855,2435 L 3855,2525 L 3765,2525 Z" /><path d="M 3505,2150 L 3595,2150 L 3595,2240 L 3505,2240 Z" /><path d="M 2725,1010 L 2815,1010 L 2815,1100 L 2725,1100 Z" /><path d="M 2465,2435 L 2555,2435 L 2555,2525 L 2465,2525 Z" /><path d="M 1945,2435 L 2035,2435 L 2035,2525 L 1945,2525 Z" /><path d="M 1685,2435 L 1775,2435 L 1775,2525 L 1685,2525 Z" /><path d="M 905,845 L 995,845 L 995,935 L 905,935 Z" /><path d="M 3505,2480 L 3595,2480 L 3595,2570 L 3505,2570 Z" /><path d="M 515,1545 L 605,1545 L 605,1635 L 515,1635 Z" /><path d="M 2075,2150 L 2165,2150 L 2165,2240 L 2075,2240 Z" /><path d="M 775,1925 L 865,1925 L 865,2015 L 775,2015 Z" /><path d="M 1035,1735 L 1125,1735 L 1125,1825 L 1035,1825 Z" /><path d="M 2595,1355 L 2685,1355 L 2685,1445 L 2595,1445 Z" /><path d="M 2855,1735 L 2945,1735 L 2945,1825 L 2855,1825 Z" /><path d="M 2335,1735 L 2425,1735 L 2425,1825 L 2335,1825 Z" /><path d="M 1555,1735 L 1645,1735 L 1645,1825 L 1555,1825 Z" /><path d="M 1295,1355 L 1385,1355 L 1385,1445 L 1295,1445 Z" /><path d="M 3375,1545 L 3465,1545 L 3465,1635 L 3375,1635 Z" /><path d="M 4415,2150 L 4505,2150 L 4505,2240 L 4415,2240 Z" /><path d="M 3115,1925 L 3205,1925 L 3205,2015 L 3115,2015 Z" /><path d="M 4675,1735 L 4765,1735 L 4765,1825 L 4675,1825 Z" /><path d="M 4155,1545 L 4245,1545 L 4245,1635 L 4155,1635 Z" /><path d="M 3895,1925 L 3985,1925 L 3985,2015 L 3895,2015 Z" /><path d="M 5455,1735 L 5545,1735 L 5545,1825 L 5455,1825 Z" /><path d="M 5195,1545 L 5285,1545 L 5285,1635 L 5195,1635 Z" /><path d="M 5585,3110 L 5585,3200 L 5675,3200 L 5675,3110 Z" /><path d="M 5325,3110 L 5325,3200 L 5415,3200 L 5415,3110 Z" /><path d="M 5065,3110 L 5065,3200 L 5155,3200 L 5155,3110 Z" /><path d="M 5585,5525 L 5675,5525 L 5675,5435 L 5585,5435 Z" /><path d="M 5325,5525 L 5415,5525 L 5415,5435 L 5325,5435 Z" /><path d="M 5065,5525 L 5155,5525 L 5155,5435 L 5065,5435 Z" /><path d="M 5585,3875 L 5675,3875 L 5675,3785 L 5585,3785 Z" /><path d="M 5325,3875 L 5415,3875 L 5415,3785 L 5325,3785 Z" /><path d="M 5065,3875 L 5155,3875 L 5155,3785 L 5065,3785 Z" /><path d="M 3245,3830 L 3335,3830 L 3335,3740 L 3245,3740 Z" /><path d="M 2725,3830 L 2815,3830 L 2815,3740 L 2725,3740 Z" /><path d="M 4545,3875 L 4635,3875 L 4635,3785 L 4545,3785 Z" /><path d="M 4285,3875 L 4375,3875 L 4375,3785 L 4285,3785 Z" /><path d="M 4025,3875 L 4115,3875 L 4115,3785 L 4025,3785 Z" /><path d="M 2985,4160 L 3075,4160 L 3075,4070 L 2985,4070 Z" /><path d="M 2985,3830 L 3075,3830 L 3075,3740 L 2985,3740 Z" /><path d="M 4805,3110 L 4805,3200 L 4895,3200 L 4895,3110 Z" /><path d="M 645,3875 L 735,3875 L 735,3785 L 645,3785 Z" /><path d="M 1425,3875 L 1515,3875 L 1515,3785 L 1425,3785 Z" /><path d="M 1165,3875 L 1255,3875 L 1255,3785 L 1165,3785 Z" /><path d="M 905,3875 L 995,3875 L 995,3785 L 905,3785 Z" /><path d="M 1425,3110 L 1425,3200 L 1515,3200 L 1515,3110 Z" /><path d="M 385,3110 L 385,3200 L 475,3200 L 475,3110 Z" /><path d="M 645,3110 L 645,3200 L 735,3200 L 735,3110 Z" /><path d="M 905,3110 L 905,3200 L 995,3200 L 995,3110 Z" /><path d="M 1165,3110 L 1165,3200 L 1255,3200 L 1255,3110 Z" /><path d="M 4545,3110 L 4545,3200 L 4635,3200 L 4635,3110 Z" /><path d="M 3245,3110 L 3245,3200 L 3335,3200 L 3335,3110 Z" /><path d="M 3505,3110 L 3505,3200 L 3595,3200 L 3595,3110 Z" /><path d="M 3765,3110 L 3765,3200 L 3855,3200 L 3855,3110 Z" /><path d="M 4025,3110 L 4025,3200 L 4115,3200 L 4115,3110 Z" /><path d="M 4285,3110 L 4285,3200 L 4375,3200 L 4375,3110 Z" /><path d="M 2205,3875 L 2295,3875 L 2295,3785 L 2205,3785 Z" /><path d="M 2985,3110 L 2985,3200 L 3075,3200 L 3075,3110 Z" /><path d="M 1685,3110 L 1685,3200 L 1775,3200 L 1775,3110 Z" /><path d="M 1945,3110 L 1945,3200 L 2035,3200 L 2035,3110 Z" /><path d="M 2205,3110 L 2205,3200 L 2295,3200 L 2295,3110 Z" /><path d="M 2465,3110 L 2465,3200 L 2555,3200 L 2555,3110 Z" /><path d="M 2725,3110 L 2725,3200 L 2815,3200 L 2815,3110 Z" /><path d="M 4805,5465 L 4895,5465 L 4895,5375 L 4805,5375 Z" /><path d="M 3765,5465 L 3855,5465 L 3855,5375 L 3765,5375 Z" /><path d="M 3505,5300 L 3595,5300 L 3595,5210 L 3505,5210 Z" /><path d="M 3505,5510 L 3595,5510 L 3595,5420 L 3505,5420 Z" /><path d="M 2725,5510 L 2815,5510 L 2815,5420 L 2725,5420 Z" /><path d="M 2465,5465 L 2555,5465 L 2555,5375 L 2465,5375 Z" /><path d="M 1945,5465 L 2035,5465 L 2035,5375 L 1945,5375 Z" /><path d="M 1685,5300 L 1775,5300 L 1775,5210 L 1685,5210 Z" /><path d="M 1685,5510 L 1775,5510 L 1775,5420 L 1685,5420 Z" /><path d="M 4285,5465 L 4375,5465 L 4375,5375 L 4285,5375 Z" /><path d="M 385,5465 L 475,5465 L 475,5375 L 385,5375 Z" /><path d="M 385,3875 L 475,3875 L 475,3785 L 385,3785 Z" /><path d="M 4805,3875 L 4895,3875 L 4895,3785 L 4805,3785 Z" /><path d="M 3765,3875 L 3855,3875 L 3855,3785 L 3765,3785 Z" /><path d="M 3505,4160 L 3595,4160 L 3595,4070 L 3505,4070 Z" /><path d="M 2725,5300 L 2815,5300 L 2815,5210 L 2725,5210 Z" /><path d="M 2465,3875 L 2555,3875 L 2555,3785 L 2465,3785 Z" /><path d="M 1945,3875 L 2035,3875 L 2035,3785 L 1945,3785 Z" /><path d="M 1685,3875 L 1775,3875 L 1775,3785 L 1685,3785 Z" /><path d="M 905,5465 L 995,5465 L 995,5375 L 905,5375 Z" /><path d="M 3505,3830 L 3595,3830 L 3595,3740 L 3505,3740 Z" /><path d="M 515,4765 L 605,4765 L 605,4675 L 515,4675 Z" /><path d="M 2075,4160 L 2165,4160 L 2165,4070 L 2075,4070 Z" /><path d="M 775,4385 L 865,4385 L 865,4295 L 775,4295 Z" /><path d="M 1035,4575 L 1125,4575 L 1125,4485 L 1035,4485 Z" /><path d="M 2595,4955 L 2685,4955 L 2685,4865 L 2595,4865 Z" /><path d="M 2855,4575 L 2945,4575 L 2945,4485 L 2855,4485 Z" /><path d="M 2335,4575 L 2425,4575 L 2425,4485 L 2335,4485 Z" /><path d="M 1555,4575 L 1645,4575 L 1645,4485 L 1555,4485 Z" /><path d="M 1295,4955 L 1385,4955 L 1385,4865 L 1295,4865 Z" /><path d="M 3375,4765 L 3465,4765 L 3465,4675 L 3375,4675 Z" /><path d="M 4415,4160 L 4505,4160 L 4505,4070 L 4415,4070 Z" /><path d="M 3115,4385 L 3205,4385 L 3205,4295 L 3115,4295 Z" /><path d="M 4675,4575 L 4765,4575 L 4765,4485 L 4675,4485 Z" /><path d="M 4155,4765 L 4245,4765 L 4245,4675 L 4155,4675 Z" /><path d="M 3895,4385 L 3985,4385 L 3985,4295 L 3895,4295 Z" /><path d="M 5455,4575 L 5545,4575 L 5545,4485 L 5455,4485 Z" /><path d="M 5195,4765 L 5285,4765 L 5285,4675 L 5195,4675 Z" /><path d="M 5675,6140 L 5675,6050 L 5585,6050 L 5585,6140 Z" /><path d="M 5415,6140 L 5415,6050 L 5325,6050 L 5325,6140 Z" /><path d="M 5155,6140 L 5155,6050 L 5065,6050 L 5065,6140 Z" /><path d="M 5585,8990 L 5675,8990 L 5675,9080 L 5585,9080 Z" /><path d="M 5325,8990 L 5415,8990 L 5415,9080 L 5325,9080 Z" /><path d="M 5065,8990 L 5155,8990 L 5155,9080 L 5065,9080 Z" /><path d="M 5585,6665 L 5675,6665 L 5675,6755 L 5585,6755 Z" /><path d="M 5325,6665 L 5415,6665 L 5415,6755 L 5325,6755 Z" /><path d="M 5065,6665 L 5155,6665 L 5155,6755 L 5065,6755 Z" /><path d="M 5585,8315 L 5675,8315 L 5675,8405 L 5585,8405 Z" /><path d="M 5325,8315 L 5415,8315 L 5415,8405 L 5325,8405 Z" /><path d="M 5065,8315 L 5155,8315 L 5155,8405 L 5065,8405 Z" /><path d="M 3245,8360 L 3335,8360 L 3335,8450 L 3245,8450 Z" /><path d="M 2725,8360 L 2815,8360 L 2815,8450 L 2725,8450 Z" /><path d="M 4545,8315 L 4635,8315 L 4635,8405 L 4545,8405 Z" /><path d="M 4285,8315 L 4375,8315 L 4375,8405 L 4285,8405 Z" /><path d="M 4025,8315 L 4115,8315 L 4115,8405 L 4025,8405 Z" /><path d="M 2985,8030 L 3075,8030 L 3075,8120 L 2985,8120 Z" /><path d="M 2985,8360 L 3075,8360 L 3075,8450 L 2985,8450 Z" /><path d="M 4895,6140 L 4895,6050 L 4805,6050 L 4805,6140 Z" /><path d="M 4635,6140 L 4635,6050 L 4545,6050 L 4545,6140 Z" /><path d="M 4375,6140 L 4375,6050 L 4285,6050 L 4285,6140 Z" /><path d="M 4115,6140 L 4115,6050 L 4025,6050 L 4025,6140 Z" /><path d="M 3855,6140 L 3855,6050 L 3765,6050 L 3765,6140 Z" /><path d="M 3595,6140 L 3595,6050 L 3505,6050 L 3505,6140 Z" /><path d="M 3335,6140 L 3335,6050 L 3245,6050 L 3245,6140 Z" /><path d="M 3075,6140 L 3075,6050 L 2985,6050 L 2985,6140 Z" /><path d="M 2815,6140 L 2815,6050 L 2725,6050 L 2725,6140 Z" /><path d="M 2555,6140 L 2555,6050 L 2465,6050 L 2465,6140 Z" /><path d="M 2295,6140 L 2295,6050 L 2205,6050 L 2205,6140 Z" /><path d="M 2035,6140 L 2035,6050 L 1945,6050 L 1945,6140 Z" /><path d="M 1775,6140 L 1775,6050 L 1685,6050 L 1685,6140 Z" /><path d="M 1515,6140 L 1515,6050 L 1425,6050 L 1425,6140 Z" /><path d="M 1255,6140 L 1255,6050 L 1165,6050 L 1165,6140 Z" /><path d="M 995,6140 L 995,6050 L 905,6050 L 905,6140 Z" /><path d="M 735,6140 L 735,6050 L 645,6050 L 645,6140 Z" /><path d="M 475,6140 L 475,6050 L 385,6050 L 385,6140 Z" /><path d="M 4805,8990 L 4895,8990 L 4895,9080 L 4805,9080 Z" /><path d="M 645,8315 L 735,8315 L 735,8405 L 645,8405 Z" /><path d="M 1425,8315 L 1515,8315 L 1515,8405 L 1425,8405 Z" /><path d="M 1165,8315 L 1255,8315 L 1255,8405 L 1165,8405 Z" /><path d="M 905,8315 L 995,8315 L 995,8405 L 905,8405 Z" /><path d="M 1425,8990 L 1515,8990 L 1515,9080 L 1425,9080 Z" /><path d="M 385,8990 L 475,8990 L 475,9080 L 385,9080 Z" /><path d="M 645,8990 L 735,8990 L 735,9080 L 645,9080 Z" /><path d="M 905,8990 L 995,8990 L 995,9080 L 905,9080 Z" /><path d="M 1165,8990 L 1255,8990 L 1255,9080 L 1165,9080 Z" /><path d="M 4545,8990 L 4635,8990 L 4635,9080 L 4545,9080 Z" /><path d="M 3245,8990 L 3335,8990 L 3335,9080 L 3245,9080 Z" /><path d="M 3505,8990 L 3595,8990 L 3595,9080 L 3505,9080 Z" /><path d="M 3765,8990 L 3855,8990 L 3855,9080 L 3765,9080 Z" /><path d="M 4025,8990 L 4115,8990 L 4115,9080 L 4025,9080 Z" /><path d="M 4285,8990 L 4375,8990 L 4375,9080 L 4285,9080 Z" /><path d="M 2205,8315 L 2295,8315 L 2295,8405 L 2205,8405 Z" /><path d="M 2985,8990 L 3075,8990 L 3075,9080 L 2985,9080 Z" /><path d="M 1685,8990 L 1775,8990 L 1775,9080 L 1685,9080 Z" /><path d="M 1945,8990 L 2035,8990 L 2035,9080 L 1945,9080 Z" /><path d="M 2205,8990 L 2295,8990 L 2295,9080 L 2205,9080 Z" /><path d="M 2465,8990 L 2555,8990 L 2555,9080 L 2465,9080 Z" /><path d="M 2725,8990 L 2815,8990 L 2815,9080 L 2725,9080 Z" /><path d="M 4805,6725 L 4895,6725 L 4895,6815 L 4805,6815 Z" /><path d="M 3765,6725 L 3855,6725 L 3855,6815 L 3765,6815 Z" /><path d="M 3505,6890 L 3595,6890 L 3595,6980 L 3505,6980 Z" /><path d="M 3505,6680 L 3595,6680 L 3595,6770 L 3505,6770 Z" /><path d="M 2725,6680 L 2815,6680 L 2815,6770 L 2725,6770 Z" /><path d="M 2465,6725 L 2555,6725 L 2555,6815 L 2465,6815 Z" /><path d="M 1945,6725 L 2035,6725 L 2035,6815 L 1945,6815 Z" /><path d="M 1685,6890 L 1775,6890 L 1775,6980 L 1685,6980 Z" /><path d="M 1685,6680 L 1775,6680 L 1775,6770 L 1685,6770 Z" /><path d="M 4285,6725 L 4375,6725 L 4375,6815 L 4285,6815 Z" /><path d="M 385,6725 L 475,6725 L 475,6815 L 385,6815 Z" /><path d="M 385,8315 L 475,8315 L 475,8405 L 385,8405 Z" /><path d="M 4805,8315 L 4895,8315 L 4895,8405 L 4805,8405 Z" /><path d="M 3765,8315 L 3855,8315 L 3855,8405 L 3765,8405 Z" /><path d="M 3505,8030 L 3595,8030 L 3595,8120 L 3505,8120 Z" /><path d="M 2725,6890 L 2815,6890 L 2815,6980 L 2725,6980 Z" /><path d="M 2465,8315 L 2555,8315 L 2555,8405 L 2465,8405 Z" /><path d="M 1945,8315 L 2035,8315 L 2035,8405 L 1945,8405 Z" /><path d="M 1685,8315 L 1775,8315 L 1775,8405 L 1685,8405 Z" /><path d="M 905,6725 L 995,6725 L 995,6815 L 905,6815 Z" /><path d="M 3505,8360 L 3595,8360 L 3595,8450 L 3505,8450 Z" /><path d="M 515,7425 L 605,7425 L 605,7515 L 515,7515 Z" /><path d="M 2075,8030 L 2165,8030 L 2165,8120 L 2075,8120 Z" /><path d="M 775,7805 L 865,7805 L 865,7895 L 775,7895 Z" /><path d="M 1035,7615 L 1125,7615 L 1125,7705 L 1035,7705 Z" /><path d="M 2595,7235 L 2685,7235 L 2685,7325 L 2595,7325 Z" /><path d="M 2855,7615 L 2945,7615 L 2945,7705 L 2855,7705 Z" /><path d="M 2335,7615 L 2425,7615 L 2425,7705 L 2335,7705 Z" /><path d="M 1555,7615 L 1645,7615 L 1645,7705 L 1555,7705 Z" /><path d="M 1295,7235 L 1385,7235 L 1385,7325 L 1295,7325 Z" /><path d="M 3375,7425 L 3465,7425 L 3465,7515 L 3375,7515 Z" /><path d="M 4415,8030 L 4505,8030 L 4505,8120 L 4415,8120 Z" /><path d="M 3115,7805 L 3205,7805 L 3205,7895 L 3115,7895 Z" /><path d="M 4675,7615 L 4765,7615 L 4765,7705 L 4675,7705 Z" /><path d="M 4155,7425 L 4245,7425 L 4245,7515 L 4155,7515 Z" /><path d="M 3895,7805 L 3985,7805 L 3985,7895 L 3895,7895 Z" /><path d="M 5455,7615 L 5545,7615 L 5545,7705 L 5455,7705 Z" /><path d="M 5195,7425 L 5285,7425 L 5285,7515 L 5195,7515 Z" /></g></g><g id="M1"><g class="l31d0"><path d="M 3240,2575 L 3240,2700 L 2820,2700 L 2820,2575 L 2820,2440 L 2720,2440 L 2720,2575 L 2720,2700 L 2720,2800 L 2820,2800 L 3240,2800 L 3340,2800 L 3340,2700 L 3340,2575 L 3340,2440 L 3240,2440 Z" /><path d="M 5770,120 L 4990,120 L 290,120 L 290,310 L 900,310 L 900,840 L 900,975 L 1000,975 L 1000,840 L 1000,310 L 2460,310 L 2460,840 L 2460,975 L 2560,975 L 2560,840 L 2560,310 L 3500,310 L 3500,795 L 3500,1140 L 3600,1140 L 3600,795 L 3600,310 L 4280,310 L 4280,840 L 4280,975 L 4380,975 L 4380,840 L 4380,310 L 4990,310 L 5320,310 L 5320,745 L 5320,915 L 5420,915 L 5420,745 L 5420,310 L 5770,310 Z" /><path d="M 2200,2390 L 2200,2570 L 2200,2810 L 2300,2810 L 2300,2570 L 2300,2390 Z" /><path d="M 1780,720 L 1680,720 L 1680,860 L 1680,1040 L 1680,1140 L 1780,1140 L 1780,1040 L 1780,860 Z" /><path d="M 640,2390 L 640,2570 L 640,2810 L 740,2810 L 740,2570 L 740,2390 Z" /><path d="M 4020,2390 L 4020,2570 L 4020,2810 L 4120,2810 L 4120,2570 L 4120,2390 Z" /><path d="M 4540,2390 L 4540,2570 L 4540,2810 L 4640,2810 L 4640,2570 L 4640,2390 Z" /><path d="M 2820,720 L 2720,720 L 2720,860 L 2720,1040 L 2720,1140 L 2820,1140 L 2820,1040 L 2820,860 Z" /><path d="M 1905,940 L 2040,940 L 2160,940 L 2250,940 L 2340,940 L 2340,840 L 2250,840 L 2160,840 L 2040,840 L 1905,840 Z" /><path d="M 345,940 L 600,940 L 690,940 L 780,940 L 780,840 L 690,840 L 600,840 L 345,840 Z" /><path d="M 3725,940 L 3860,940 L 3980,940 L 4070,940 L 4160,940 L 4160,840 L 4070,840 L 3980,840 L 3860,840 L 3725,840 Z" /><path d="M 4935,840 L 4800,840 L 4680,840 L 4590,840 L 4500,840 L 4500,940 L 4590,940 L 4680,940 L 4800,940 L 4935,940 Z" /><path d="M 2750,1830 L 2815,1830 L 2940,1830 L 2985,1830 L 3120,1830 L 3170,1830 L 3170,1730 L 3120,1730 L 2985,1730 L 2940,1730 L 2815,1730 L 2750,1730 Z" /><path d="M 1275,1830 L 1380,1830 L 1515,1830 L 1560,1830 L 1685,1830 L 1695,1830 L 1695,1730 L 1685,1730 L 1560,1730 L 1515,1730 L 1380,1730 L 1275,1730 Z" /><path d="M 1255,1450 L 1340,1450 L 1425,1450 L 1425,1350 L 1340,1350 L 1255,1350 L 780,1350 L 690,1350 L 600,1350 L 600,1450 L 690,1450 L 780,1450 Z" /><path d="M 645,1540 L 560,1540 L 475,1540 L 475,1640 L 560,1640 L 645,1640 L 2160,1640 L 2250,1640 L 2340,1640 L 3335,1640 L 3420,1640 L 3505,1640 L 3505,1540 L 3420,1540 L 3335,1540 L 2340,1540 L 2250,1540 L 2160,1540 Z" /><path d="M 2945,2245 L 2980,2245 L 2980,2475 L 2980,2610 L 3080,2610 L 3080,2475 L 3080,2245 L 3500,2245 L 3500,2475 L 3500,2610 L 3600,2610 L 3600,2475 L 3600,2245 L 3635,2245 L 3635,2244 L 4375,2244 L 4375,2245 L 4545,2245 L 4545,2145 L 4460,2145 L 4375,2145 L 3635,2145 L 2945,2145 L 2860,2145 L 2770,2145 L 2680,2145 L 2205,2145 L 2120,2145 L 2035,2145 L 2035,2245 L 2205,2245 L 2205,2244 L 2680,2244 L 2680,2245 L 2860,2245 L 2860,2244 L 2945,2244 Z" /><path d="M 3075,2020 L 3245,2020 L 3855,2020 L 3940,2020 L 4025,2020 L 4025,1920 L 3940,1920 L 3855,1920 L 3245,1920 L 3075,1920 L 1820,1920 L 1730,1920 L 1640,1920 L 905,1920 L 820,1920 L 735,1920 L 735,2020 L 820,2020 L 905,2020 L 1160,2020 L 1160,2565 L 1260,2565 L 1260,2020 L 1640,2020 L 1680,2020 L 1680,2565 L 1780,2565 L 1780,2020 L 1820,2020 Z" /><path d="M 5060,2390 L 5060,2570 L 5060,2810 L 5160,2810 L 5160,2570 L 5160,2390 Z" /><path d="M 5580,2390 L 5580,2570 L 5580,2810 L 5680,2810 L 5680,2570 L 5680,2390 Z" /><path d="M 5680,500 L 5580,500 L 5580,740 L 5580,920 L 5680,920 L 5680,740 Z" /><path d="M 5160,500 L 5060,500 L 5060,740 L 5060,920 L 5160,920 L 5160,740 Z" /><path d="M 4720,1730 L 4635,1730 L 4160,1730 L 4070,1730 L 3980,1730 L 3980,1830 L 4070,1830 L 4160,1830 L 4635,1830 L 4720,1830 L 4805,1830 L 5415,1830 L 5500,1830 L 5585,1830 L 5585,1730 L 5500,1730 L 5415,1730 L 4805,1730 Z" /><path d="M 4590,1540 L 4500,1540 L 4285,1540 L 4200,1540 L 4115,1540 L 4115,1640 L 4200,1640 L 4285,1640 L 4500,1640 L 4590,1640 L 4680,1640 L 5155,1640 L 5240,1640 L 5325,1640 L 5325,1540 L 5240,1540 L 5155,1540 L 4680,1540 Z" /><path d="M 3240,3735 L 3240,3610 L 2820,3610 L 2820,3735 L 2820,3870 L 2720,3870 L 2720,3735 L 2720,3610 L 2720,3510 L 2820,3510 L 3240,3510 L 3340,3510 L 3340,3610 L 3340,3735 L 3340,3870 L 3240,3870 Z" /><path d="M 5770,3060 L 5420,3060 L 5420,2565 L 5420,2395 L 5320,2395 L 5320,2565 L 5320,3060 L 4990,3060 L 4900,3060 L 4900,2530 L 4900,2395 L 4800,2395 L 4800,2530 L 4800,3060 L 4380,3060 L 4380,2530 L 4380,2395 L 4280,2395 L 4280,2530 L 4280,3060 L 3860,3060 L 3860,2530 L 3860,2395 L 3760,2395 L 3760,2530 L 3760,3060 L 2560,3060 L 2560,2530 L 2560,2395 L 2460,2395 L 2460,2530 L 2460,3060 L 2040,3060 L 2040,2530 L 2040,2395 L 1940,2395 L 1940,2530 L 1940,3060 L 1520,3060 L 1520,2530 L 1520,2395 L 1420,2395 L 1420,2530 L 1420,3060 L 1000,3060 L 1000,2530 L 1000,2395 L 900,2395 L 900,2530 L 900,3060 L 480,3060 L 480,2530 L 480,2395 L 380,2395 L 380,2530 L 380,3060 L 290,3060 L 290,3250 L 380,3250 L 380,3780 L 380,3915 L 480,3915 L 480,3780 L 480,3250 L 900,3250 L 900,3780 L 900,3915 L 1000,3915 L 1000,3780 L 1000,3250 L 1420,3250 L 1420,3780 L 1420,3915 L 1520,3915 L 1520,3780 L 1520,3250 L 1940,3250 L 1940,3780 L 1940,3915 L 2040,3915 L 2040,3780 L 2040,3250 L 2460,3250 L 2460,3780 L 2460,3915 L 2560,3915 L 2560,3780 L 2560,3250 L 3760,3250 L 3760,3780 L 3760,3915 L 3860,3915 L 3860,3780 L 3860,3250 L 4280,3250 L 4280,3780 L 4280,3915 L 4380,3915 L 4380,3780 L 4380,3250 L 4800,3250 L 4800,3780 L 4800,3915 L 4900,3915 L 4900,3780 L 4900,3250 L 4990,3250 L 5320,3250 L 5320,3745 L 5320,3915 L 5420,3915 L 5420,3745 L 5420,3250 L 5770,3250 Z" /><path d="M 2200,3920 L 2200,3740 L 2200,3500 L 2300,3500 L 2300,3740 L 2300,3920 Z" /><path d="M 1780,5590 L 1680,5590 L 1680,5450 L 1680,5270 L 1680,5170 L 1780,5170 L 1780,5270 L 1780,5450 Z" /><path d="M 640,3920 L 640,3740 L 640,3500 L 740,3500 L 740,3740 L 740,3920 Z" /><path d="M 4020,3920 L 4020,3740 L 4020,3500 L 4120,3500 L 4120,3740 L 4120,3920 Z" /><path d="M 4540,3920 L 4540,3740 L 4540,3500 L 4640,3500 L 4640,3740 L 4640,3920 Z" /><path d="M 2820,5590 L 2720,5590 L 2720,5450 L 2720,5270 L 2720,5170 L 2820,5170 L 2820,5270 L 2820,5450 Z" /><path d="M 1905,5370 L 2040,5370 L 2160,5370 L 2250,5370 L 2340,5370 L 2340,5470 L 2250,5470 L 2160,5470 L 2040,5470 L 1905,5470 Z" /><path d="M 345,5370 L 600,5370 L 690,5370 L 780,5370 L 780,5470 L 690,5470 L 600,5470 L 345,5470 Z" /><path d="M 3725,5370 L 3860,5370 L 3980,5370 L 4070,5370 L 4160,5370 L 4160,5470 L 4070,5470 L 3980,5470 L 3860,5470 L 3725,5470 Z" /><path d="M 4935,5470 L 4800,5470 L 4680,5470 L 4590,5470 L 4500,5470 L 4500,5370 L 4590,5370 L 4680,5370 L 4800,5370 L 4935,5370 Z" /><path d="M 2750,4480 L 2815,4480 L 2940,4480 L 2985,4480 L 3120,4480 L 3170,4480 L 3170,4580 L 3120,4580 L 2985,4580 L 2940,4580 L 2815,4580 L 2750,4580 Z" /><path d="M 1275,4480 L 1380,4480 L 1515,4480 L 1560,4480 L 1685,4480 L 1695,4480 L 1695,4580 L 1685,4580 L 1560,4580 L 1515,4580 L 1380,4580 L 1275,4580 Z" /><path d="M 1255,4860 L 1340,4860 L 1425,4860 L 1425,4960 L 1340,4960 L 1255,4960 L 780,4960 L 690,4960 L 600,4960 L 600,4860 L 690,4860 L 780,4860 Z" /><path d="M 645,4770 L 560,4770 L 475,4770 L 475,4670 L 560,4670 L 645,4670 L 2160,4670 L 2250,4670 L 2340,4670 L 3335,4670 L 3420,4670 L 3505,4670 L 3505,4770 L 3420,4770 L 3335,4770 L 2340,4770 L 2250,4770 L 2160,4770 Z" /><path d="M 2945,4065 L 2980,4065 L 2980,3835 L 2980,3700 L 3080,3700 L 3080,3835 L 3080,4065 L 3500,4065 L 3500,3835 L 3500,3700 L 3600,3700 L 3600,3835 L 3600,4065 L 3635,4065 L 3635,4066 L 4375,4066 L 4375,4065 L 4545,4065 L 4545,4165 L 4460,4165 L 4375,4165 L 3635,4165 L 2945,4165 L 2860,4165 L 2770,4165 L 2680,4165 L 2205,4165 L 2120,4165 L 2035,4165 L 2035,4065 L 2205,4065 L 2205,4066 L 2680,4066 L 2680,4065 L 2860,4065 L 2860,4066 L 2945,4066 Z" /><path d="M 3075,4290 L 3245,4290 L 3855,4290 L 3940,4290 L 4025,4290 L 4025,4390 L 3940,4390 L 3855,4390 L 3245,4390 L 3075,4390 L 1820,4390 L 1730,4390 L 1640,4390 L 905,4390 L 820,4390 L 735,4390 L 735,4290 L 820,4290 L 905,4290 L 1160,4290 L 1160,3745 L 1260,3745 L 1260,4290 L 1640,4290 L 1680,4290 L 1680,3745 L 1780,3745 L 1780,4290 L 1820,4290 Z" /><path d="M 5060,3920 L 5060,3740 L 5060,3500 L 5160,3500 L 5160,3740 L 5160,3920 Z" /><path d="M 5580,3920 L 5580,3740 L 5580,3500 L 5680,3500 L 5680,3740 L 5680,3920 Z" /><path d="M 5680,5810 L 5580,5810 L 5580,5570 L 5580,5390 L 5680,5390 L 5680,5570 Z" /><path d="M 5160,5810 L 5060,5810 L 5060,5570 L 5060,5390 L 5160,5390 L 5160,5570 Z" /><path d="M 4720,4580 L 4635,4580 L 4160,4580 L 4070,4580 L 3980,4580 L 3980,4480 L 4070,4480 L 4160,4480 L 4635,4480 L 4720,4480 L 4805,4480 L 5415,4480 L 5500,4480 L 5585,4480 L 5585,4580 L 5500,4580 L 5415,4580 L 4805,4580 Z" /><path d="M 4590,4770 L 4500,4770 L 4285,4770 L 4200,4770 L 4115,4770 L 4115,4670 L 4200,4670 L 4285,4670 L 4500,4670 L 4590,4670 L 4680,4670 L 5155,4670 L 5240,4670 L 5325,4670 L 5325,4770 L 5240,4770 L 5155,4770 L 4680,4770 Z" /><path d="M 3240,8455 L 3240,8580 L 2820,8580 L 2820,8455 L 2820,8320 L 2720,8320 L 2720,8455 L 2720,8580 L 2720,8680 L 2820,8680 L 3240,8680 L 3340,8680 L 3340,8580 L 3340,8455 L 3340,8320 L 3240,8320 Z" /><path d="M 5770,6190 L 5770,6000 L 5420,6000 L 5420,5565 L 5420,5395 L 5320,5395 L 5320,5565 L 5320,6000 L 4990,6000 L 4380,6000 L 4380,5470 L 4380,5335 L 4280,5335 L 4280,5470 L 4280,6000 L 3600,6000 L 3600,5515 L 3600,5170 L 3500,5170 L 3500,5515 L 3500,6000 L 2560,6000 L 2560,5470 L 2560,5335 L 2460,5335 L 2460,5470 L 2460,6000 L 1000,6000 L 1000,5470 L 1000,5335 L 900,5335 L 900,5470 L 900,6000 L 290,6000 L 290,6190 L 900,6190 L 900,6720 L 900,6855 L 1000,6855 L 1000,6720 L 1000,6190 L 2460,6190 L 2460,6720 L 2460,6855 L 2560,6855 L 2560,6720 L 2560,6190 L 3500,6190 L 3500,6675 L 3500,7020 L 3600,7020 L 3600,6675 L 3600,6190 L 4280,6190 L 4280,6720 L 4280,6855 L 4380,6855 L 4380,6720 L 4380,6190 L 4990,6190 L 5320,6190 L 5320,6625 L 5320,6795 L 5420,6795 L 5420,6625 L 5420,6190 Z" /><path d="M 5770,9130 L 5770,8940 L 5420,8940 L 5420,8445 L 5420,8275 L 5320,8275 L 5320,8445 L 5320,8940 L 4990,8940 L 4900,8940 L 4900,8410 L 4900,8275 L 4800,8275 L 4800,8410 L 4800,8940 L 4380,8940 L 4380,8410 L 4380,8275 L 4280,8275 L 4280,8410 L 4280,8940 L 3860,8940 L 3860,8410 L 3860,8275 L 3760,8275 L 3760,8410 L 3760,8940 L 2560,8940 L 2560,8410 L 2560,8275 L 2460,8275 L 2460,8410 L 2460,8940 L 2040,8940 L 2040,8410 L 2040,8275 L 1940,8275 L 1940,8410 L 1940,8940 L 1520,8940 L 1520,8410 L 1520,8275 L 1420,8275 L 1420,8410 L 1420,8940 L 1000,8940 L 1000,8410 L 1000,8275 L 900,8275 L 900,8410 L 900,8940 L 480,8940 L 480,8410 L 480,8275 L 380,8275 L 380,8410 L 380,8940 L 290,8940 L 290,9130 L 4990,9130 Z" /><path d="M 2200,8270 L 2200,8450 L 2200,8690 L 2300,8690 L 2300,8450 L 2300,8270 Z" /><path d="M 1780,6600 L 1680,6600 L 1680,6740 L 1680,6920 L 1680,7020 L 1780,7020 L 1780,6920 L 1780,6740 Z" /><path d="M 640,8270 L 640,8450 L 640,8690 L 740,8690 L 740,8450 L 740,8270 Z" /><path d="M 4020,8270 L 4020,8450 L 4020,8690 L 4120,8690 L 4120,8450 L 4120,8270 Z" /><path d="M 4540,8270 L 4540,8450 L 4540,8690 L 4640,8690 L 4640,8450 L 4640,8270 Z" /><path d="M 2820,6600 L 2720,6600 L 2720,6740 L 2720,6920 L 2720,7020 L 2820,7020 L 2820,6920 L 2820,6740 Z" /><path d="M 1905,6820 L 2040,6820 L 2160,6820 L 2250,6820 L 2340,6820 L 2340,6720 L 2250,6720 L 2160,6720 L 2040,6720 L 1905,6720 Z" /><path d="M 345,6820 L 600,6820 L 690,6820 L 780,6820 L 780,6720 L 690,6720 L 600,6720 L 345,6720 Z" /><path d="M 3725,6820 L 3860,6820 L 3980,6820 L 4070,6820 L 4160,6820 L 4160,6720 L 4070,6720 L 3980,6720 L 3860,6720 L 3725,6720 Z" /><path d="M 4935,6720 L 4800,6720 L 4680,6720 L 4590,6720 L 4500,6720 L 4500,6820 L 4590,6820 L 4680,6820 L 4800,6820 L 4935,6820 Z" /><path d="M 2750,7710 L 2815,7710 L 2940,7710 L 2985,7710 L 3120,7710 L 3170,7710 L 3170,7610 L 3120,7610 L 2985,7610 L 2940,7610 L 2815,7610 L 2750,7610 Z" /><path d="M 2170,7610 L 2170,7710 L 2295,7710 L 2465,7710 L 2590,7710 L 2590,7610 L 2465,7610 L 2295,7610 Z" /><path d="M 1275,7710 L 1380,7710 L 1515,7710 L 1560,7710 L 1685,7710 L 1695,7710 L 1695,7610 L 1685,7610 L 1560,7610 L 1515,7610 L 1380,7610 L 1275,7610 Z" /><path d="M 1255,7330 L 1340,7330 L 1425,7330 L 1425,7230 L 1340,7230 L 1255,7230 L 780,7230 L 690,7230 L 600,7230 L 600,7330 L 690,7330 L 780,7330 Z" /><path d="M 645,7420 L 560,7420 L 475,7420 L 475,7520 L 560,7520 L 645,7520 L 2160,7520 L 2250,7520 L 2340,7520 L 3335,7520 L 3420,7520 L 3505,7520 L 3505,7420 L 3420,7420 L 3335,7420 L 2340,7420 L 2250,7420 L 2160,7420 Z" /><path d="M 2945,8125 L 2980,8125 L 2980,8355 L 2980,8490 L 3080,8490 L 3080,8355 L 3080,8125 L 3500,8125 L 3500,8355 L 3500,8490 L 3600,8490 L 3600,8355 L 3600,8125 L 3635,8125 L 3635,8124 L 4375,8124 L 4375,8125 L 4545,8125 L 4545,8025 L 4460,8025 L 4375,8025 L 3635,8025 L 2945,8025 L 2860,8025 L 2770,8025 L 2680,8025 L 2205,8025 L 2120,8025 L 2035,8025 L 2035,8125 L 2205,8125 L 2205,8124 L 2680,8124 L 2680,8125 L 2860,8125 L 2860,8124 L 2945,8124 Z" /><path d="M 3075,7900 L 3245,7900 L 3855,7900 L 3940,7900 L 4025,7900 L 4025,7800 L 3940,7800 L 3855,7800 L 3245,7800 L 3075,7800 L 1820,7800 L 1730,7800 L 1640,7800 L 905,7800 L 820,7800 L 735,7800 L 735,7900 L 820,7900 L 905,7900 L 1160,7900 L 1160,8445 L 1260,8445 L 1260,7900 L 1640,7900 L 1680,7900 L 1680,8445 L 1780,8445 L 1780,7900 L 1820,7900 Z" /><path d="M 5060,8270 L 5060,8450 L 5060,8690 L 5160,8690 L 5160,8450 L 5160,8270 Z" /><path d="M 5580,8270 L 5580,8450 L 5580,8690 L 5680,8690 L 5680,8450 L 5680,8270 Z" /><path d="M 5680,6380 L 5580,6380 L 5580,6620 L 5580,6800 L 5680,6800 L 5680,6620 Z" /><path d="M 5160,6380 L 5060,6380 L 5060,6620 L 5060,6800 L 5160,6800 L 5160,6620 Z" /><path d="M 4720,7610 L 4635,7610 L 4160,7610 L 4070,7610 L 3980,7610 L 3980,7710 L 4070,7710 L 4160,7710 L 4635,7710 L 4720,7710 L 4805,7710 L 5415,7710 L 5500,7710 L 5585,7710 L 5585,7610 L 5500,7610 L 5415,7610 L 4805,7610 Z" /><path d="M 4590,7420 L 4500,7420 L 4285,7420 L 4200,7420 L 4115,7420 L 4115,7520 L 4200,7520 L 4285,7520 L 4500,7520 L 4590,7520 L 4680,7520 L 5155,7520 L 5240,7520 L 5325,7520 L 5325,7420 L 5240,7420 L 5155,7420 L 4680,7420 Z" /><path d="M 2080,1830 L 2170,1830 L 2295,1830 L 2330,1830 L 2465,1830 L 2590,1830 L 2590,1730 L 2465,1730 L 2330,1730 L 2295,1730 L 2170,1730 L 2080,1730 L 1990,1730 L 1900,1730 L 1900,1830 L 1990,1830 Z" /><path d="M 2080,4580 L 2170,4580 L 2295,4580 L 2330,4580 L 2465,4580 L 2590,4580 L 2590,4480 L 2465,4480 L 2330,4480 L 2295,4480 L 2170,4480 L 2080,4480 L 1990,4480 L 1900,4480 L 1900,4580 L 1990,4580 Z" /><path d="M 745,7710 L 860,7710 L 995,7710 L 1040,7710 L 1165,7710 L 1165,7610 L 1040,7610 L 995,7610 L 860,7610 L 745,7610 Z" /><path d="M 745,4480 L 745,4580 L 860,4580 L 995,4580 L 1040,4580 L 1165,4580 L 1165,4480 L 1040,4480 L 995,4480 L 860,4480 Z" /><path d="M 745,1830 L 860,1830 L 995,1830 L 1040,1830 L 1165,1830 L 1165,1730 L 1040,1730 L 995,1730 L 860,1730 L 745,1730 Z" /><path d="M 2555,1450 L 2600,1450 L 2725,1450 L 2850,1450 L 2850,1350 L 2725,1350 L 2600,1350 L 2555,1350 L 2430,1350 L 2420,1350 L 2420,1450 L 2430,1450 Z" /><path d="M 2430,4860 L 2420,4860 L 2420,4960 L 2430,4960 L 2555,4960 L 2600,4960 L 2725,4960 L 2850,4960 L 2850,4860 L 2725,4860 L 2600,4860 L 2555,4860 Z" /><path d="M 2555,7330 L 2600,7330 L 2725,7330 L 2850,7330 L 2850,7230 L 2725,7230 L 2600,7230 L 2555,7230 L 2430,7230 L 2420,7230 L 2420,7330 L 2430,7330 Z" /></g></g><g id="VIA1"><g class="l51d0"><path d="M 2200,2430 L 2300,2430 L 2300,2530 L 2200,2530 Z" /><path d="M 1680,900 L 1780,900 L 1780,1000 L 1680,1000 Z" /><path d="M 640,2430 L 740,2430 L 740,2530 L 640,2530 Z" /><path d="M 4020,2430 L 4120,2430 L 4120,2530 L 4020,2530 Z" /><path d="M 4540,2430 L 4640,2430 L 4640,2530 L 4540,2530 Z" /><path d="M 2720,900 L 2820,900 L 2820,1000 L 2720,1000 Z" /><path d="M 1420,1730 L 1520,1730 L 1520,1830 L 1420,1830 Z" /><path d="M 2980,1730 L 3080,1730 L 3080,1830 L 2980,1830 Z" /><path d="M 2200,1540 L 2300,1540 L 2300,1640 L 2200,1640 Z" /><path d="M 2200,840 L 2300,840 L 2300,940 L 2200,940 Z" /><path d="M 1680,1920 L 1780,1920 L 1780,2020 L 1680,2020 Z" /><path d="M 640,1350 L 740,1350 L 740,1450 L 640,1450 Z" /><path d="M 640,840 L 740,840 L 740,940 L 640,940 Z" /><path d="M 4020,840 L 4120,840 L 4120,940 L 4020,940 Z" /><path d="M 4540,840 L 4640,840 L 4640,940 L 4540,940 Z" /><path d="M 2720,2145 L 2820,2145 L 2820,2245 L 2720,2245 Z" /><path d="M 4020,1730 L 4020,1830 L 4120,1830 L 4120,1730 Z" /><path d="M 4540,1540 L 4540,1640 L 4640,1640 L 4640,1540 Z" /><path d="M 5060,2530 L 5160,2530 L 5160,2430 L 5060,2430 Z" /><path d="M 5580,2530 L 5680,2530 L 5680,2430 L 5580,2430 Z" /><path d="M 5580,780 L 5680,780 L 5680,880 L 5580,880 Z" /><path d="M 5060,780 L 5160,780 L 5160,880 L 5060,880 Z" /><path d="M 2200,3880 L 2300,3880 L 2300,3780 L 2200,3780 Z" /><path d="M 1680,5410 L 1780,5410 L 1780,5310 L 1680,5310 Z" /><path d="M 640,3880 L 740,3880 L 740,3780 L 640,3780 Z" /><path d="M 4020,3880 L 4120,3880 L 4120,3780 L 4020,3780 Z" /><path d="M 4540,3880 L 4640,3880 L 4640,3780 L 4540,3780 Z" /><path d="M 2720,5410 L 2820,5410 L 2820,5310 L 2720,5310 Z" /><path d="M 1420,4580 L 1520,4580 L 1520,4480 L 1420,4480 Z" /><path d="M 2980,4580 L 3080,4580 L 3080,4480 L 2980,4480 Z" /><path d="M 2200,4770 L 2300,4770 L 2300,4670 L 2200,4670 Z" /><path d="M 2200,5470 L 2300,5470 L 2300,5370 L 2200,5370 Z" /><path d="M 1680,4390 L 1780,4390 L 1780,4290 L 1680,4290 Z" /><path d="M 640,4960 L 740,4960 L 740,4860 L 640,4860 Z" /><path d="M 640,5470 L 740,5470 L 740,5370 L 640,5370 Z" /><path d="M 4020,5470 L 4120,5470 L 4120,5370 L 4020,5370 Z" /><path d="M 4540,5470 L 4640,5470 L 4640,5370 L 4540,5370 Z" /><path d="M 2720,4165 L 2820,4165 L 2820,4065 L 2720,4065 Z" /><path d="M 4020,4580 L 4020,4480 L 4120,4480 L 4120,4580 Z" /><path d="M 4540,4770 L 4540,4670 L 4640,4670 L 4640,4770 Z" /><path d="M 5060,3780 L 5160,3780 L 5160,3880 L 5060,3880 Z" /><path d="M 5580,3780 L 5680,3780 L 5680,3880 L 5580,3880 Z" /><path d="M 5580,5530 L 5680,5530 L 5680,5430 L 5580,5430 Z" /><path d="M 5060,5530 L 5160,5530 L 5160,5430 L 5060,5430 Z" /><path d="M 2200,8310 L 2300,8310 L 2300,8410 L 2200,8410 Z" /><path d="M 1680,6780 L 1780,6780 L 1780,6880 L 1680,6880 Z" /><path d="M 640,8310 L 740,8310 L 740,8410 L 640,8410 Z" /><path d="M 4020,8310 L 4120,8310 L 4120,8410 L 4020,8410 Z" /><path d="M 4540,8310 L 4640,8310 L 4640,8410 L 4540,8410 Z" /><path d="M 2720,6780 L 2820,6780 L 2820,6880 L 2720,6880 Z" /><path d="M 1420,7610 L 1520,7610 L 1520,7710 L 1420,7710 Z" /><path d="M 2980,7610 L 3080,7610 L 3080,7710 L 2980,7710 Z" /><path d="M 2200,7420 L 2300,7420 L 2300,7520 L 2200,7520 Z" /><path d="M 2200,6720 L 2300,6720 L 2300,6820 L 2200,6820 Z" /><path d="M 1680,7800 L 1780,7800 L 1780,7900 L 1680,7900 Z" /><path d="M 640,7230 L 740,7230 L 740,7330 L 640,7330 Z" /><path d="M 640,6720 L 740,6720 L 740,6820 L 640,6820 Z" /><path d="M 4020,6720 L 4120,6720 L 4120,6820 L 4020,6820 Z" /><path d="M 4540,6720 L 4640,6720 L 4640,6820 L 4540,6820 Z" /><path d="M 2720,8025 L 2820,8025 L 2820,8125 L 2720,8125 Z" /><path d="M 4020,7610 L 4020,7710 L 4120,7710 L 4120,7610 Z" /><path d="M 4540,7420 L 4540,7520 L 4640,7520 L 4640,7420 Z" /><path d="M 5060,8410 L 5160,8410 L 5160,8310 L 5060,8310 Z" /><path d="M 5580,8410 L 5680,8410 L 5680,8310 L 5580,8310 Z" /><path d="M 5580,6660 L 5680,6660 L 5680,6760 L 5580,6760 Z" /><path d="M 5060,6660 L 5160,6660 L 5160,6760 L 5060,6760 Z" /><path d="M 1940,1730 L 2040,1730 L 2040,1830 L 1940,1830 Z" /><path d="M 1940,4480 L 2040,4480 L 2040,4580 L 1940,4580 Z" /><path d="M 900,7610 L 1000,7610 L 1000,7710 L 900,7710 Z" /><path d="M 900,4480 L 1000,4480 L 1000,4580 L 900,4580 Z" /><path d="M 900,1730 L 1000,1730 L 1000,1830 L 900,1830 Z" /><path d="M 2460,1350 L 2560,1350 L 2560,1450 L 2460,1450 Z" /><path d="M 2460,4860 L 2560,4860 L 2560,4960 L 2460,4960 Z" /><path d="M 2460,7230 L 2560,7230 L 2560,7330 L 2460,7330 Z" /></g></g><g id="M2"><g class="l32d0"><path d="M 2300,1590 L 2300,1500 L 2300,980 L 2300,890 L 2300,800 L 2200,800 L 2200,890 L 2200,980 L 2200,1500 L 2200,1590 L 2200,1680 L 2200,2390 L 2200,2480 L 2200,2570 L 2300,2570 L 2300,2480 L 2300,2390 L 2300,1680 Z" /><path d="M 1680,1880 L 1680,1970 L 1680,2060 L 1780,2060 L 1780,1970 L 1780,1880 L 1780,1040 L 1780,950 L 1780,860 L 1680,860 L 1680,950 L 1680,1040 Z" /><path d="M 740,1400 L 740,1310 L 740,980 L 740,890 L 740,800 L 640,800 L 640,890 L 640,980 L 640,1310 L 640,1400 L 640,1490 L 640,2390 L 640,2480 L 640,2570 L 740,2570 L 740,2480 L 740,2390 L 740,1490 Z" /><path d="M 2720,2105 L 2720,2195 L 2720,2285 L 2820,2285 L 2820,2195 L 2820,2105 L 2820,1040 L 2820,950 L 2820,860 L 2720,860 L 2720,950 L 2720,1040 Z" /><path d="M 2980,1520 L 2980,1690 L 2980,1695 L 2980,1870 L 2980,1875 L 2980,2040 L 3080,2040 L 3080,1875 L 3080,1870 L 3080,1695 L 3080,1690 L 3080,1520 Z" /><path d="M 4120,1690 L 4120,980 L 4120,890 L 4120,800 L 4020,800 L 4020,890 L 4020,980 L 4020,1690 L 4020,1780 L 4020,1870 L 4020,2390 L 4020,2480 L 4020,2570 L 4120,2570 L 4120,2480 L 4120,2390 L 4120,1870 L 4120,1780 Z" /><path d="M 4640,1500 L 4640,980 L 4640,890 L 4640,800 L 4540,800 L 4540,890 L 4540,980 L 4540,1500 L 4540,1590 L 4540,1680 L 4540,2390 L 4540,2480 L 4540,2570 L 4640,2570 L 4640,2480 L 4640,2390 L 4640,1680 L 4640,1590 Z" /><path d="M 5580,920 L 5580,2390 L 5580,2480 L 5580,2570 L 5680,2570 L 5680,2480 L 5680,2390 L 5680,920 L 5680,830 L 5680,740 L 5580,740 L 5580,830 Z" /><path d="M 5160,920 L 5160,830 L 5160,740 L 5060,740 L 5060,830 L 5060,920 L 5060,2390 L 5060,2480 L 5060,2570 L 5160,2570 L 5160,2480 L 5160,2390 Z" /><path d="M 2300,4720 L 2300,4810 L 2300,5330 L 2300,5420 L 2300,5510 L 2200,5510 L 2200,5420 L 2200,5330 L 2200,4810 L 2200,4720 L 2200,4630 L 2200,3920 L 2200,3830 L 2200,3740 L 2300,3740 L 2300,3830 L 2300,3920 L 2300,4630 Z" /><path d="M 1680,4430 L 1680,4340 L 1680,4250 L 1780,4250 L 1780,4340 L 1780,4430 L 1780,5270 L 1780,5360 L 1780,5450 L 1680,5450 L 1680,5360 L 1680,5270 Z" /><path d="M 740,4910 L 740,5000 L 740,5330 L 740,5420 L 740,5510 L 640,5510 L 640,5420 L 640,5330 L 640,5000 L 640,4910 L 640,4820 L 640,3920 L 640,3830 L 640,3740 L 740,3740 L 740,3830 L 740,3920 L 740,4820 Z" /><path d="M 2720,4205 L 2720,4115 L 2720,4025 L 2820,4025 L 2820,4115 L 2820,4205 L 2820,5270 L 2820,5360 L 2820,5450 L 2720,5450 L 2720,5360 L 2720,5270 Z" /><path d="M 2980,4790 L 2980,4620 L 2980,4615 L 2980,4440 L 2980,4435 L 2980,4270 L 3080,4270 L 3080,4435 L 3080,4440 L 3080,4615 L 3080,4620 L 3080,4790 Z" /><path d="M 4120,4620 L 4120,5330 L 4120,5420 L 4120,5510 L 4020,5510 L 4020,5420 L 4020,5330 L 4020,4620 L 4020,4530 L 4020,4440 L 4020,3920 L 4020,3830 L 4020,3740 L 4120,3740 L 4120,3830 L 4120,3920 L 4120,4440 L 4120,4530 Z" /><path d="M 4640,4810 L 4640,5330 L 4640,5420 L 4640,5510 L 4540,5510 L 4540,5420 L 4540,5330 L 4540,4810 L 4540,4720 L 4540,4630 L 4540,3920 L 4540,3830 L 4540,3740 L 4640,3740 L 4640,3830 L 4640,3920 L 4640,4630 L 4640,4720 Z" /><path d="M 5580,5390 L 5580,3920 L 5580,3830 L 5580,3740 L 5680,3740 L 5680,3830 L 5680,3920 L 5680,5390 L 5680,5480 L 5680,5570 L 5580,5570 L 5580,5480 Z" /><path d="M 2300,7470 L 2300,7380 L 2300,6860 L 2300,6770 L 2300,6680 L 2200,6680 L 2200,6770 L 2200,6860 L 2200,7380 L 2200,7470 L 2200,7560 L 2200,8270 L 2200,8360 L 2200,8450 L 2300,8450 L 2300,8360 L 2300,8270 L 2300,7560 Z" /><path d="M 1680,7760 L 1680,7850 L 1680,7940 L 1780,7940 L 1780,7850 L 1780,7760 L 1780,6920 L 1780,6830 L 1780,6740 L 1680,6740 L 1680,6830 L 1680,6920 Z" /><path d="M 740,7280 L 740,7190 L 740,6860 L 740,6770 L 740,6680 L 640,6680 L 640,6770 L 640,6860 L 640,7190 L 640,7280 L 640,7370 L 640,8270 L 640,8360 L 640,8450 L 740,8450 L 740,8360 L 740,8270 L 740,7370 Z" /><path d="M 2720,7985 L 2720,8075 L 2720,8165 L 2820,8165 L 2820,8075 L 2820,7985 L 2820,6920 L 2820,6830 L 2820,6740 L 2720,6740 L 2720,6830 L 2720,6920 Z" /><path d="M 2980,7400 L 2980,7570 L 2980,7575 L 2980,7750 L 2980,7755 L 2980,7920 L 3080,7920 L 3080,7755 L 3080,7750 L 3080,7575 L 3080,7570 L 3080,7400 Z" /><path d="M 4120,7570 L 4120,6860 L 4120,6770 L 4120,6680 L 4020,6680 L 4020,6770 L 4020,6860 L 4020,7570 L 4020,7660 L 4020,7750 L 4020,8270 L 4020,8360 L 4020,8450 L 4120,8450 L 4120,8360 L 4120,8270 L 4120,7750 L 4120,7660 Z" /><path d="M 4640,7380 L 4640,6860 L 4640,6770 L 4640,6680 L 4540,6680 L 4540,6770 L 4540,6860 L 4540,7380 L 4540,7470 L 4540,7560 L 4540,8270 L 4540,8360 L 4540,8450 L 4640,8450 L 4640,8360 L 4640,8270 L 4640,7560 L 4640,7470 Z" /><path d="M 5580,6800 L 5580,8270 L 5580,8360 L 5580,8450 L 5680,8450 L 5680,8360 L 5680,8270 L 5680,6800 L 5680,6710 L 5680,6620 L 5580,6620 L 5580,6710 Z" /><path d="M 5160,4215 L 5160,4125 L 5160,4035 L 5160,3920 L 5160,3830 L 5160,3740 L 5060,3740 L 5060,3830 L 5060,3920 L 5060,4035 L 5060,4125 L 5060,4215 L 5060,4575 L 5060,5390 L 5060,5480 L 5060,5570 L 5160,5570 L 5160,5480 L 5160,5390 L 5160,4575 Z" /><path d="M 5160,7355 L 5160,7265 L 5160,7175 L 5160,6800 L 5160,6710 L 5160,6620 L 5060,6620 L 5060,6710 L 5060,6800 L 5060,7175 L 5060,7265 L 5060,7355 L 5060,7515 L 5060,8270 L 5060,8360 L 5060,8450 L 5160,8450 L 5160,8360 L 5160,8270 L 5160,7515 Z" /><path d="M 1520,4620 L 1520,4615 L 1520,4525 L 1520,4440 L 1520,4435 L 1520,4270 L 1520,2040 L 1520,1875 L 1520,1870 L 1520,1785 L 1520,1695 L 1520,1690 L 1520,1520 L 1420,1520 L 1420,1690 L 1420,1695 L 1420,1785 L 1420,1870 L 1420,1875 L 1420,2040 L 1420,4270 L 1420,4435 L 1420,4440 L 1420,4525 L 1420,4615 L 1420,4620 L 1420,4790 L 1420,7400 L 1420,7570 L 1420,7575 L 1420,7665 L 1420,7750 L 1420,7755 L 1420,7920 L 1520,7920 L 1520,7755 L 1520,7750 L 1520,7665 L 1520,7575 L 1520,7570 L 1520,7400 L 1520,4790 Z" /><path d="M 2040,1870 L 2040,1780 L 2040,1690 L 1940,1690 L 1940,1780 L 1940,1870 L 1940,4035 L 1940,4125 L 1940,4215 L 2040,4215 L 2040,4125 L 2040,4035 Z" /><path d="M 2040,4620 L 2040,4530 L 2040,4440 L 1940,4440 L 1940,4530 L 1940,4620 L 1940,7175 L 1940,7265 L 1940,7355 L 2040,7355 L 2040,7265 L 2040,7175 Z" /><path d="M 900,4530 L 900,4620 L 900,7570 L 900,7660 L 900,7750 L 1000,7750 L 1000,7660 L 1000,7570 L 1000,4620 L 1000,4530 L 1000,4440 L 1000,1870 L 1000,1780 L 1000,1690 L 900,1690 L 900,1780 L 900,1870 L 900,4440 Z" /><path d="M 2560,4910 L 2560,4820 L 2560,1490 L 2560,1400 L 2560,1310 L 2460,1310 L 2460,1400 L 2460,1490 L 2460,4820 L 2460,4910 L 2460,5000 L 2460,7190 L 2460,7280 L 2460,7370 L 2560,7370 L 2560,7280 L 2560,7190 L 2560,5000 Z" /></g></g><g id="VIA2"><g class="l52d0"><path d="M 2980,1735 L 3080,1735 L 3080,1835 L 2980,1835 Z" /><path d="M 2980,4575 L 3080,4575 L 3080,4475 L 2980,4475 Z" /><path d="M 2980,7615 L 3080,7615 L 3080,7715 L 2980,7715 Z" /><path d="M 5060,4075 L 5160,4075 L 5160,4175 L 5060,4175 Z" /><path d="M 1940,4075 L 2040,4075 L 2040,4175 L 1940,4175 Z" /><path d="M 5060,7215 L 5160,7215 L 5160,7315 L 5060,7315 Z" /><path d="M 1940,7215 L 2040,7215 L 2040,7315 L 1940,7315 Z" /><path d="M 1420,1735 L 1420,1835 L 1520,1835 L 1520,1735 Z" /><path d="M 1520,4575 L 1520,4475 L 1420,4475 L 1420,4575 Z" /><path d="M 1420,7615 L 1420,7715 L 1520,7715 L 1520,7615 Z" /></g></g><g id="M3"><g class="l33d0"><path d="M 2080,4075 L 1990,4075 L 1900,4075 L 1900,4175 L 1990,4175 L 2080,4175 L 5020,4175 L 5110,4175 L 5200,4175 L 5200,4075 L 5110,4075 L 5020,4075 Z" /><path d="M 2080,7215 L 1990,7215 L 1900,7215 L 1900,7315 L 1990,7315 L 2080,7315 L 5020,7315 L 5110,7315 L 5200,7315 L 5200,7215 L 5110,7215 L 5020,7215 Z" /><path d="M 1470,1735 L 1380,1735 L 1380,1835 L 1470,1835 L 1560,1835 L 2940,1835 L 3030,1835 L 3120,1835 L 3120,1735 L 3030,1735 L 2940,1735 L 1560,1735 Z" /><path d="M 1560,4575 L 2940,4575 L 3030,4575 L 3120,4575 L 3120,4475 L 3030,4475 L 2940,4475 L 1560,4475 L 1470,4475 L 1380,4475 L 1380,4575 L 1470,4575 Z" /><path d="M 1470,7615 L 1380,7615 L 1380,7715 L 1470,7715 L 1560,7715 L 2940,7715 L 3030,7715 L 3120,7715 L 3120,7615 L 3030,7615 L 2940,7615 L 1560,7615 Z" /></g></g></g></svg>