<svg width="6850" height="3550" viewBox="-5 -3545 6850 3550" xmlns="http://www.w3.org/2000/svg" xmlns:xlink="http://www.w3.org/1999/xlink"><defs><style type="text/css">.l3d0 {fill: #fef9e7; fill-opacity: 0.5; stroke-width: 10; stroke: #f1c40f; stroke-linecap: round; stroke-linejoin: round; stroke-opacity: 0.2;}.l25d0 {fill: #8e44ad; fill-opacity: 0.05; stroke-width: 10; stroke: #8e44ad; stroke-linecap: round; stroke-linejoin: round; stroke-opacity: 1;}.l26d0 {fill: #ccd1d1; fill-opacity: 0.05; stroke-width: 10; stroke: #ccd1d1; stroke-linecap: round; stroke-linejoin: round; stroke-opacity: 1;}.l6d0 {fill: #f5b7b1; fill-opacity: 1; stroke-width: 10; stroke: #e74c3c; stroke-linecap: round; stroke-linejoin: round; stroke-opacity: 1;}.l17d0 {fill: #2980b9; fill-opacity: 1; stroke-width: 0; stroke: #000000; stroke-linecap: round; stroke-linejoin: round; stroke-opacity: 0;}.l30d0 {fill: #27ae60; fill-opacity: 1; stroke-width: 0; stroke: #000000; stroke-linecap: round; stroke-linejoin: round; stroke-opacity: 0;}.l31d0 {fill: #85c1e9; fill-opacity: 0.6; stroke-width: 0; stroke: #000000; stroke-linecap: round; stroke-linejoin: round; stroke-opacity: 0;}.l51d0 {fill: #f39c12; fill-opacity: 1; stroke-width: 10; stroke: #f39c12; stroke-linecap: round; stroke-linejoin: round; stroke-opacity: 1;}.l32d0 {fill: #f7dc6f; fill-opacity: 0.6; stroke-width: 0; stroke: #000000; stroke-linecap: round; stroke-linejoin: round; stroke-opacity: 0;}path {fill-rule: evenodd;}</style></defs><g transform="scale(1 -1)"><g id="NW"><g class="l3d0"><path d="M 0,1900 L 0,3540 L 6840,3540 L 6840,1900 L 6605,1900 L 6345,1900 L 6085,1900 L 5955,1900 L 5825,1900 L 5695,1900 L 5565,1900 L 5435,1900 L 5305,1900 L 5175,1900 L 5045,1900 L 4915,1900 L 4785,1900 L 4655,1900 L 4525,1900 L 4395,1900 L 4265,1900 L 4135,1900 L 4005,1900 L 3875,1900 L 3745,1900 L 3615,1900 L 3485,1900 L 3355,1900 L 3225,1900 L 3095,1900 L 2965,1900 L 2835,1900 L 2705,1900 L 2575,1900 L 2445,1900 L 2315,1900 L 2185,1900 L 2055,1900 L 1925,1900 L 1795,1900 L 1665,1900 L 1535,1900 L 1405,1900 L 1275,1900 L 1015,1900 L 755,1900 Z" /></g></g><g id="PP"><g class="l25d0"><path d="M 170,0 L 6670,0 L 6670,430 L 170,430 Z" /><path d="M 6670,1685 L 170,1685 L 170,2940 L 325,2940 L 795,2940 L 845,2940 L 1105,2940 L 1315,2940 L 1365,2940 L 1575,2940 L 1625,2940 L 1835,2940 L 1885,2940 L 2095,2940 L 2145,2940 L 2355,2940 L 2405,2940 L 2615,2940 L 2665,2940 L 2875,2940 L 2925,2940 L 3135,2940 L 3185,2940 L 3395,2940 L 3445,2940 L 3655,2940 L 3705,2940 L 3915,2940 L 3965,2940 L 4175,2940 L 4225,2940 L 4435,2940 L 4485,2940 L 4695,2940 L 4745,2940 L 4955,2940 L 5005,2940 L 5215,2940 L 5265,2940 L 5475,2940 L 5525,2940 L 5735,2940 L 5785,2940 L 5995,2940 L 6045,2940 L 6255,2940 L 6515,2940 L 6670,2940 Z" /></g></g><g id="NP"><g class="l26d0"><path d="M 170,2940 L 6670,2940 L 6670,3370 L 170,3370 Z" /><path d="M 170,1685 L 6670,1685 L 6670,430 L 6515,430 L 6255,430 L 6045,430 L 5995,430 L 5785,430 L 5735,430 L 5525,430 L 5475,430 L 5265,430 L 5215,430 L 5005,430 L 4955,430 L 4745,430 L 4695,430 L 4485,430 L 4435,430 L 4225,430 L 4175,430 L 3965,430 L 3915,430 L 3705,430 L 3655,430 L 3445,430 L 3395,430 L 3185,430 L 3135,430 L 2925,430 L 2875,430 L 2665,430 L 2615,430 L 2405,430 L 2355,430 L 2145,430 L 2095,430 L 1885,430 L 1835,430 L 1625,430 L 1575,430 L 1365,430 L 1315,430 L 1105,430 L 845,430 L 795,430 L 325,430 L 170,430 Z" /></g></g><g id="OD"><g class="l6d0"><path d="M 300,130 L 6540,130 L 6540,300 L 300,300 Z" /><path d="M 300,3070 L 6540,3070 L 6540,3240 L 300,3240 Z" /><path d="M 315,2600 L 355,2600 L 455,2600 L 530,2600 L 590,2600 L 665,2600 L 765,2600 L 765,2480 L 665,2480 L 590,2480 L 530,2480 L 455,2480 L 355,2480 L 315,2480 Z" /><path d="M 765,890 L 765,770 L 665,770 L 590,770 L 530,770 L 455,770 L 355,770 L 315,770 L 315,890 L 355,890 L 455,890 L 530,890 L 590,890 L 665,890 Z" /><path d="M 5990,770 L 5915,770 L 5865,770 L 5790,770 L 5730,770 L 5655,770 L 5605,770 L 5530,770 L 5470,770 L 5395,770 L 5345,770 L 5270,770 L 5210,770 L 5135,770 L 5085,770 L 5010,770 L 4950,770 L 4875,770 L 4825,770 L 4750,770 L 4690,770 L 4615,770 L 4565,770 L 4490,770 L 4430,770 L 4355,770 L 4305,770 L 4230,770 L 4170,770 L 4095,770 L 4095,1250 L 4170,1250 L 4230,1250 L 4305,1250 L 4355,1250 L 4430,1250 L 4490,1250 L 4565,1250 L 4615,1250 L 4690,1250 L 4750,1250 L 4825,1250 L 4875,1250 L 4950,1250 L 5010,1250 L 5085,1250 L 5135,1250 L 5210,1250 L 5270,1250 L 5345,1250 L 5395,1250 L 5470,1250 L 5530,1250 L 5605,1250 L 5655,1250 L 5730,1250 L 5790,1250 L 5865,1250 L 5915,1250 L 5990,1250 L 6050,1250 L 6125,1250 L 6175,1250 L 6250,1250 L 6310,1250 L 6385,1250 L 6470,1250 L 6470,770 L 6385,770 L 6310,770 L 6250,770 L 6175,770 L 6125,770 L 6050,770 Z" /><path d="M 3785,770 L 3710,770 L 3650,770 L 3575,770 L 3525,770 L 3450,770 L 3390,770 L 3315,770 L 3265,770 L 3190,770 L 3130,770 L 3055,770 L 3005,770 L 2930,770 L 2870,770 L 2795,770 L 2745,770 L 2670,770 L 2610,770 L 2535,770 L 2485,770 L 2410,770 L 2350,770 L 2275,770 L 2225,770 L 2150,770 L 2090,770 L 2015,770 L 1965,770 L 1890,770 L 1830,770 L 1755,770 L 1705,770 L 1630,770 L 1570,770 L 1495,770 L 1445,770 L 1370,770 L 1310,770 L 1235,770 L 1185,770 L 1110,770 L 1050,770 L 975,770 L 890,770 L 890,1250 L 975,1250 L 1050,1250 L 1110,1250 L 1185,1250 L 1235,1250 L 1310,1250 L 1370,1250 L 1445,1250 L 1495,1250 L 1570,1250 L 1630,1250 L 1705,1250 L 1755,1250 L 1830,1250 L 1890,1250 L 1965,1250 L 2015,1250 L 2090,1250 L 2150,1250 L 2225,1250 L 2275,1250 L 2350,1250 L 2410,1250 L 2485,1250 L 2535,1250 L 2610,1250 L 2670,1250 L 2745,1250 L 2795,1250 L 2870,1250 L 2930,1250 L 3005,1250 L 3055,1250 L 3130,1250 L 3190,1250 L 3265,1250 L 3315,1250 L 3390,1250 L 3450,1250 L 3525,1250 L 3575,1250 L 3650,1250 L 3710,1250 L 3785,1250 L 3835,1250 L 3910,1250 L 3970,1250 L 4045,1250 L 4094,1250 L 4094,770 L 4045,770 L 3970,770 L 3910,770 L 3835,770 Z" /><path d="M 6310,2120 L 6250,2120 L 6175,2120 L 6125,2120 L 6050,2120 L 5990,2120 L 5915,2120 L 5865,2120 L 5790,2120 L 5730,2120 L 5655,2120 L 5605,2120 L 5530,2120 L 5470,2120 L 5395,2120 L 5345,2120 L 5270,2120 L 5210,2120 L 5135,2120 L 5085,2120 L 5010,2120 L 4950,2120 L 4875,2120 L 4825,2120 L 4750,2120 L 4690,2120 L 4615,2120 L 4565,2120 L 4490,2120 L 4430,2120 L 4355,2120 L 4305,2120 L 4230,2120 L 4170,2120 L 4095,2120 L 4095,2600 L 4170,2600 L 4230,2600 L 4305,2600 L 4355,2600 L 4430,2600 L 4490,2600 L 4565,2600 L 4615,2600 L 4690,2600 L 4750,2600 L 4825,2600 L 4875,2600 L 4950,2600 L 5010,2600 L 5085,2600 L 5135,2600 L 5210,2600 L 5270,2600 L 5345,2600 L 5395,2600 L 5470,2600 L 5530,2600 L 5605,2600 L 5655,2600 L 5730,2600 L 5790,2600 L 5865,2600 L 5915,2600 L 5990,2600 L 6050,2600 L 6125,2600 L 6175,2600 L 6250,2600 L 6310,2600 L 6385,2600 L 6470,2600 L 6470,2120 L 6385,2120 Z" /><path d="M 3835,2120 L 3785,2120 L 3710,2120 L 3650,2120 L 3575,2120 L 3525,2120 L 3450,2120 L 3390,2120 L 3315,2120 L 3265,2120 L 3190,2120 L 3130,2120 L 3055,2120 L 3005,2120 L 2930,2120 L 2870,2120 L 2795,2120 L 2745,2120 L 2670,2120 L 2610,2120 L 2535,2120 L 2485,2120 L 2410,2120 L 2350,2120 L 2275,2120 L 2225,2120 L 2150,2120 L 2090,2120 L 2015,2120 L 1965,2120 L 1890,2120 L 1830,2120 L 1755,2120 L 1705,2120 L 1630,2120 L 1570,2120 L 1495,2120 L 1445,2120 L 1370,2120 L 1310,2120 L 1235,2120 L 1185,2120 L 1110,2120 L 1050,2120 L 975,2120 L 890,2120 L 890,2600 L 975,2600 L 1050,2600 L 1110,2600 L 1185,2600 L 1235,2600 L 1310,2600 L 1370,2600 L 1445,2600 L 1495,2600 L 1570,2600 L 1630,2600 L 1705,2600 L 1755,2600 L 1830,2600 L 1890,2600 L 1965,2600 L 2015,2600 L 2090,2600 L 2150,2600 L 2225,2600 L 2275,2600 L 2350,2600 L 2410,2600 L 2485,2600 L 2535,2600 L 2610,2600 L 2670,2600 L 2745,2600 L 2795,2600 L 2870,2600 L 2930,2600 L 3005,2600 L 3055,2600 L 3130,2600 L 3190,2600 L 3265,2600 L 3315,2600 L 3390,2600 L 3450,2600 L 3525,2600 L 3575,2600 L 3650,2600 L 3710,2600 L 3785,2600 L 3835,2600 L 3910,2600 L 3970,2600 L 4045,2600 L 4094,2600 L 4094,2120 L 4045,2120 L 3970,2120 L 3910,2120 Z" /></g></g><g id="PO"><g class="l17d0"><path d="M 6310,1250 L 6310,770 L 6310,630 L 6250,630 L 6250,770 L 6250,1250 L 6250,1390 L 6250,1505 L 6225,1505 L 6225,1675 L 6250,1675 L 6250,1980 L 6250,2120 L 6250,2600 L 6250,2740 L 6310,2740 L 6310,2600 L 6310,2120 L 6310,1980 L 6310,1675 L 6335,1675 L 6335,1505 L 6310,1505 L 6310,1390 Z" /><path d="M 6050,1250 L 6050,770 L 6050,630 L 5990,630 L 5990,770 L 5990,1250 L 5990,1390 L 5990,1505 L 5965,1505 L 5965,1675 L 5990,1675 L 5990,1980 L 5990,2120 L 5990,2600 L 5990,2740 L 6050,2740 L 6050,2600 L 6050,2120 L 6050,1980 L 6050,1675 L 6075,1675 L 6075,1505 L 6050,1505 L 6050,1390 Z" /><path d="M 5790,1250 L 5790,770 L 5790,630 L 5730,630 L 5730,770 L 5730,1250 L 5730,1390 L 5729,1390 L 5729,1505 L 5705,1505 L 5705,1675 L 5729,1675 L 5729,1980 L 5730,1980 L 5730,2120 L 5730,2600 L 5730,2740 L 5790,2740 L 5790,2600 L 5790,2120 L 5790,1980 L 5790,1675 L 5815,1675 L 5815,1505 L 5790,1505 L 5790,1390 Z" /><path d="M 5530,1250 L 5530,770 L 5530,630 L 5470,630 L 5470,770 L 5470,1250 L 5470,1390 L 5470,1505 L 5445,1505 L 5445,1675 L 5470,1675 L 5470,1980 L 5470,2120 L 5470,2600 L 5470,2740 L 5530,2740 L 5530,2600 L 5530,2120 L 5530,1980 L 5530,1675 L 5555,1675 L 5555,1505 L 5530,1505 L 5530,1390 Z" /><path d="M 5270,1250 L 5270,770 L 5270,630 L 5210,630 L 5210,770 L 5210,1250 L 5210,1390 L 5210,1505 L 5185,1505 L 5185,1675 L 5210,1675 L 5210,1980 L 5210,2120 L 5210,2600 L 5210,2740 L 5270,2740 L 5270,2600 L 5270,2120 L 5270,1980 L 5270,1675 L 5295,1675 L 5295,1505 L 5270,1505 L 5270,1390 Z" /><path d="M 5010,1250 L 5010,770 L 5010,630 L 4950,630 L 4950,770 L 4950,1250 L 4950,1390 L 4950,1505 L 4925,1505 L 4925,1675 L 4950,1675 L 4950,1980 L 4950,2120 L 4950,2600 L 4950,2740 L 5010,2740 L 5010,2600 L 5010,2120 L 5010,1980 L 5010,1675 L 5035,1675 L 5035,1505 L 5010,1505 L 5010,1390 Z" /><path d="M 4750,1250 L 4750,770 L 4750,630 L 4690,630 L 4690,770 L 4690,1250 L 4690,1390 L 4689,1390 L 4689,1505 L 4665,1505 L 4665,1675 L 4689,1675 L 4689,1980 L 4690,1980 L 4690,2120 L 4690,2600 L 4690,2740 L 4750,2740 L 4750,2600 L 4750,2120 L 4750,1980 L 4750,1675 L 4775,1675 L 4775,1505 L 4750,1505 L 4750,1390 Z" /><path d="M 4490,1250 L 4490,770 L 4490,630 L 4430,630 L 4430,770 L 4430,1250 L 4430,1390 L 4430,1505 L 4405,1505 L 4405,1675 L 4430,1675 L 4430,1980 L 4430,2120 L 4430,2600 L 4430,2740 L 4490,2740 L 4490,2600 L 4490,2120 L 4490,1980 L 4490,1675 L 4515,1675 L 4515,1505 L 4490,1505 L 4490,1390 Z" /><path d="M 4230,1250 L 4230,770 L 4230,630 L 4170,630 L 4170,770 L 4170,1250 L 4170,1390 L 4170,1505 L 4145,1505 L 4145,1675 L 4170,1675 L 4170,1980 L 4170,2120 L 4170,2600 L 4170,2740 L 4230,2740 L 4230,2600 L 4230,2120 L 4230,1980 L 4230,1675 L 4255,1675 L 4255,1505 L 4230,1505 L 4230,1390 Z" /><path d="M 3970,1390 L 3970,1250 L 3970,770 L 3970,630 L 3910,630 L 3910,770 L 3910,1250 L 3910,1390 L 3910,1505 L 3885,1505 L 3885,1675 L 3910,1675 L 3910,1980 L 3910,2120 L 3910,2600 L 3910,2740 L 3970,2740 L 3970,2600 L 3970,2120 L 3970,1980 L 3969,1980 L 3969,1675 L 3995,1675 L 3995,1505 L 3969,1505 L 3969,1390 Z" /><path d="M 3710,1250 L 3710,770 L 3710,630 L 3650,630 L 3650,770 L 3650,1250 L 3650,1390 L 3650,1505 L 3625,1505 L 3625,1675 L 3650,1675 L 3650,1980 L 3650,2120 L 3650,2600 L 3650,2740 L 3710,2740 L 3710,2600 L 3710,2120 L 3710,1980 L 3710,1675 L 3735,1675 L 3735,1505 L 3710,1505 L 3710,1390 Z" /><path d="M 3450,1390 L 3450,1250 L 3450,770 L 3450,630 L 3390,630 L 3390,770 L 3390,1250 L 3390,1390 L 3390,1505 L 3365,1505 L 3365,1675 L 3390,1675 L 3390,1980 L 3390,2120 L 3390,2600 L 3390,2740 L 3450,2740 L 3450,2600 L 3450,2120 L 3450,1980 L 3449,1980 L 3449,1675 L 3475,1675 L 3475,1505 L 3449,1505 L 3449,1390 Z" /><path d="M 3190,1250 L 3190,770 L 3190,630 L 3130,630 L 3130,770 L 3130,1250 L 3130,1390 L 3130,1505 L 3105,1505 L 3105,1675 L 3130,1675 L 3130,1980 L 3130,2120 L 3130,2600 L 3130,2740 L 3190,2740 L 3190,2600 L 3190,2120 L 3190,1980 L 3190,1675 L 3215,1675 L 3215,1505 L 3190,1505 L 3190,1390 Z" /><path d="M 2930,1390 L 2930,1250 L 2930,770 L 2930,630 L 2870,630 L 2870,770 L 2870,1250 L 2870,1390 L 2870,1505 L 2845,1505 L 2845,1675 L 2870,1675 L 2870,1980 L 2870,2120 L 2870,2600 L 2870,2740 L 2930,2740 L 2930,2600 L 2930,2120 L 2930,1980 L 2929,1980 L 2929,1675 L 2955,1675 L 2955,1505 L 2929,1505 L 2929,1390 Z" /><path d="M 2670,1250 L 2670,770 L 2670,630 L 2610,630 L 2610,770 L 2610,1250 L 2610,1390 L 2610,1505 L 2585,1505 L 2585,1675 L 2610,1675 L 2610,1980 L 2610,2120 L 2610,2600 L 2610,2740 L 2670,2740 L 2670,2600 L 2670,2120 L 2670,1980 L 2670,1675 L 2695,1675 L 2695,1505 L 2670,1505 L 2670,1390 Z" /><path d="M 2410,1390 L 2410,1250 L 2410,770 L 2410,630 L 2350,630 L 2350,770 L 2350,1250 L 2350,1390 L 2350,1505 L 2325,1505 L 2325,1675 L 2350,1675 L 2350,1980 L 2350,2120 L 2350,2600 L 2350,2740 L 2410,2740 L 2410,2600 L 2410,2120 L 2410,1980 L 2409,1980 L 2409,1675 L 2435,1675 L 2435,1505 L 2409,1505 L 2409,1390 Z" /><path d="M 2150,1250 L 2150,770 L 2150,630 L 2090,630 L 2090,770 L 2090,1250 L 2090,1390 L 2090,1695 L 2065,1695 L 2065,1865 L 2090,1865 L 2090,1980 L 2090,2120 L 2090,2600 L 2090,2740 L 2150,2740 L 2150,2600 L 2150,2120 L 2150,1980 L 2150,1865 L 2175,1865 L 2175,1695 L 2150,1695 L 2150,1390 Z" /><path d="M 1890,1250 L 1890,770 L 1890,630 L 1830,630 L 1830,770 L 1830,1250 L 1830,1390 L 1830,1695 L 1805,1695 L 1805,1865 L 1830,1865 L 1830,1980 L 1830,2120 L 1830,2600 L 1830,2740 L 1890,2740 L 1890,2600 L 1890,2120 L 1890,1980 L 1890,1865 L 1915,1865 L 1915,1695 L 1890,1695 L 1890,1390 Z" /><path d="M 1630,1250 L 1630,770 L 1630,630 L 1570,630 L 1570,770 L 1570,1250 L 1570,1390 L 1570,1695 L 1545,1695 L 1545,1865 L 1570,1865 L 1570,1980 L 1570,2120 L 1570,2600 L 1570,2740 L 1630,2740 L 1630,2600 L 1630,2120 L 1630,1980 L 1630,1865 L 1655,1865 L 1655,1695 L 1630,1695 L 1630,1390 Z" /><path d="M 1370,1250 L 1370,770 L 1370,630 L 1310,630 L 1310,770 L 1310,1250 L 1310,1390 L 1310,1695 L 1285,1695 L 1285,1865 L 1310,1865 L 1310,1980 L 1310,2120 L 1310,2600 L 1310,2740 L 1370,2740 L 1370,2600 L 1370,2120 L 1370,1980 L 1370,1865 L 1395,1865 L 1395,1695 L 1370,1695 L 1370,1390 Z" /><path d="M 1110,1250 L 1110,770 L 1110,630 L 1050,630 L 1050,770 L 1050,1250 L 1050,1390 L 1050,1505 L 1025,1505 L 1025,1675 L 1050,1675 L 1050,1980 L 1050,2120 L 1050,2600 L 1050,2740 L 1110,2740 L 1110,2600 L 1110,2120 L 1110,1980 L 1110,1675 L 1135,1675 L 1135,1505 L 1110,1505 L 1110,1390 Z" /><path d="M 530,2480 L 530,2600 L 530,2740 L 590,2740 L 590,2600 L 590,2480 L 590,2340 L 590,1865 L 615,1865 L 615,1695 L 590,1695 L 590,1030 L 590,890 L 590,770 L 590,630 L 530,630 L 530,770 L 530,890 L 530,1030 L 530,1695 L 505,1695 L 505,1865 L 530,1865 L 530,2340 Z" /></g></g><g id="CO"><g class="l30d0"><path d="M 6105,1130 L 6195,1130 L 6195,1220 L 6105,1220 Z" /><path d="M 6105,800 L 6195,800 L 6195,890 L 6105,890 Z" /><path d="M 5585,1130 L 5675,1130 L 5675,1220 L 5585,1220 Z" /><path d="M 5585,800 L 5675,800 L 5675,890 L 5585,890 Z" /><path d="M 5065,1130 L 5155,1130 L 5155,1220 L 5065,1220 Z" /><path d="M 5065,800 L 5155,800 L 5155,890 L 5065,890 Z" /><path d="M 4545,1130 L 4635,1130 L 4635,1220 L 4545,1220 Z" /><path d="M 4545,800 L 4635,800 L 4635,890 L 4545,890 Z" /><path d="M 4025,1130 L 4115,1130 L 4115,1220 L 4025,1220 Z" /><path d="M 4025,800 L 4115,800 L 4115,890 L 4025,890 Z" /><path d="M 3505,1130 L 3595,1130 L 3595,1220 L 3505,1220 Z" /><path d="M 3505,800 L 3595,800 L 3595,890 L 3505,890 Z" /><path d="M 2985,1130 L 3075,1130 L 3075,1220 L 2985,1220 Z" /><path d="M 2985,800 L 3075,800 L 3075,890 L 2985,890 Z" /><path d="M 2465,1130 L 2555,1130 L 2555,1220 L 2465,1220 Z" /><path d="M 2465,800 L 2555,800 L 2555,890 L 2465,890 Z" /><path d="M 1945,1130 L 2035,1130 L 2035,1220 L 1945,1220 Z" /><path d="M 1945,800 L 2035,800 L 2035,890 L 1945,890 Z" /><path d="M 1425,1130 L 1515,1130 L 1515,1220 L 1425,1220 Z" /><path d="M 1425,800 L 1515,800 L 1515,890 L 1425,890 Z" /><path d="M 6365,1130 L 6455,1130 L 6455,1220 L 6365,1220 Z" /><path d="M 6365,800 L 6455,800 L 6455,890 L 6365,890 Z" /><path d="M 5845,800 L 5935,800 L 5935,890 L 5845,890 Z" /><path d="M 5845,1130 L 5935,1130 L 5935,1220 L 5845,1220 Z" /><path d="M 5325,800 L 5415,800 L 5415,890 L 5325,890 Z" /><path d="M 5325,1130 L 5415,1130 L 5415,1220 L 5325,1220 Z" /><path d="M 4805,800 L 4895,800 L 4895,890 L 4805,890 Z" /><path d="M 4805,1130 L 4895,1130 L 4895,1220 L 4805,1220 Z" /><path d="M 4285,800 L 4375,800 L 4375,890 L 4285,890 Z" /><path d="M 4285,1130 L 4375,1130 L 4375,1220 L 4285,1220 Z" /><path d="M 3765,800 L 3855,800 L 3855,890 L 3765,890 Z" /><path d="M 3765,1130 L 3855,1130 L 3855,1220 L 3765,1220 Z" /><path d="M 3245,800 L 3335,800 L 3335,890 L 3245,890 Z" /><path d="M 3245,1130 L 3335,1130 L 3335,1220 L 3245,1220 Z" /><path d="M 2725,800 L 2815,800 L 2815,890 L 2725,890 Z" /><path d="M 2725,1130 L 2815,1130 L 2815,1220 L 2725,1220 Z" /><path d="M 2205,800 L 2295,800 L 2295,890 L 2205,890 Z" /><path d="M 2205,1130 L 2295,1130 L 2295,1220 L 2205,1220 Z" /><path d="M 1685,800 L 1775,800 L 1775,890 L 1685,890 Z" /><path d="M 1685,1130 L 1775,1130 L 1775,1220 L 1685,1220 Z" /><path d="M 1165,800 L 1255,800 L 1255,890 L 1165,890 Z" /><path d="M 1165,1130 L 1255,1130 L 1255,1220 L 1165,1220 Z" /><path d="M 905,1130 L 995,1130 L 995,1220 L 905,1220 Z" /><path d="M 905,800 L 995,800 L 995,890 L 905,890 Z" /><path d="M 6365,2480 L 6455,2480 L 6455,2570 L 6365,2570 Z" /><path d="M 6365,2150 L 6455,2150 L 6455,2240 L 6365,2240 Z" /><path d="M 6105,2480 L 6195,2480 L 6195,2570 L 6105,2570 Z" /><path d="M 6105,2150 L 6195,2150 L 6195,2240 L 6105,2240 Z" /><path d="M 5845,2480 L 5935,2480 L 5935,2570 L 5845,2570 Z" /><path d="M 5845,2150 L 5935,2150 L 5935,2240 L 5845,2240 Z" /><path d="M 5585,2480 L 5675,2480 L 5675,2570 L 5585,2570 Z" /><path d="M 5585,2150 L 5675,2150 L 5675,2240 L 5585,2240 Z" /><path d="M 5325,2480 L 5415,2480 L 5415,2570 L 5325,2570 Z" /><path d="M 5325,2150 L 5415,2150 L 5415,2240 L 5325,2240 Z" /><path d="M 5065,2480 L 5155,2480 L 5155,2570 L 5065,2570 Z" /><path d="M 5065,2150 L 5155,2150 L 5155,2240 L 5065,2240 Z" /><path d="M 4805,2480 L 4895,2480 L 4895,2570 L 4805,2570 Z" /><path d="M 4805,2150 L 4895,2150 L 4895,2240 L 4805,2240 Z" /><path d="M 4545,2480 L 4635,2480 L 4635,2570 L 4545,2570 Z" /><path d="M 4545,2150 L 4635,2150 L 4635,2240 L 4545,2240 Z" /><path d="M 4285,2480 L 4375,2480 L 4375,2570 L 4285,2570 Z" /><path d="M 4285,2150 L 4375,2150 L 4375,2240 L 4285,2240 Z" /><path d="M 4025,2480 L 4115,2480 L 4115,2570 L 4025,2570 Z" /><path d="M 4025,2150 L 4115,2150 L 4115,2240 L 4025,2240 Z" /><path d="M 3765,2480 L 3855,2480 L 3855,2570 L 3765,2570 Z" /><path d="M 3765,2150 L 3855,2150 L 3855,2240 L 3765,2240 Z" /><path d="M 3505,2480 L 3595,2480 L 3595,2570 L 3505,2570 Z" /><path d="M 3505,2150 L 3595,2150 L 3595,2240 L 3505,2240 Z" /><path d="M 3245,2480 L 3335,2480 L 3335,2570 L 3245,2570 Z" /><path d="M 3245,2150 L 3335,2150 L 3335,2240 L 3245,2240 Z" /><path d="M 2985,2480 L 3075,2480 L 3075,2570 L 2985,2570 Z" /><path d="M 2985,2150 L 3075,2150 L 3075,2240 L 2985,2240 Z" /><path d="M 2725,2480 L 2815,2480 L 2815,2570 L 2725,2570 Z" /><path d="M 2725,2150 L 2815,2150 L 2815,2240 L 2725,2240 Z" /><path d="M 2465,2480 L 2555,2480 L 2555,2570 L 2465,2570 Z" /><path d="M 2465,2150 L 2555,2150 L 2555,2240 L 2465,2240 Z" /><path d="M 2205,2480 L 2295,2480 L 2295,2570 L 2205,2570 Z" /><path d="M 2205,2150 L 2295,2150 L 2295,2240 L 2205,2240 Z" /><path d="M 1945,2480 L 2035,2480 L 2035,2570 L 1945,2570 Z" /><path d="M 1945,2150 L 2035,2150 L 2035,2240 L 1945,2240 Z" /><path d="M 1685,2480 L 1775,2480 L 1775,2570 L 1685,2570 Z" /><path d="M 1685,2150 L 1775,2150 L 1775,2240 L 1685,2240 Z" /><path d="M 1425,2480 L 1515,2480 L 1515,2570 L 1425,2570 Z" /><path d="M 1425,2150 L 1515,2150 L 1515,2240 L 1425,2240 Z" /><path d="M 1165,2150 L 1255,2150 L 1255,2240 L 1165,2240 Z" /><path d="M 1165,2480 L 1255,2480 L 1255,2570 L 1165,2570 Z" /><path d="M 905,2150 L 995,2150 L 995,2240 L 905,2240 Z" /><path d="M 905,2480 L 995,2480 L 995,2570 L 905,2570 Z" /><path d="M 385,785 L 475,785 L 475,875 L 385,875 Z" /><path d="M 645,785 L 735,785 L 735,875 L 645,875 Z" /><path d="M 385,2495 L 475,2495 L 475,2585 L 385,2585 Z" /><path d="M 645,2495 L 735,2495 L 735,2585 L 645,2585 Z" /><path d="M 6365,170 L 6455,170 L 6455,260 L 6365,260 Z" /><path d="M 6105,170 L 6195,170 L 6195,260 L 6105,260 Z" /><path d="M 5845,170 L 5935,170 L 5935,260 L 5845,260 Z" /><path d="M 5585,170 L 5675,170 L 5675,260 L 5585,260 Z" /><path d="M 5325,170 L 5415,170 L 5415,260 L 5325,260 Z" /><path d="M 5065,170 L 5155,170 L 5155,260 L 5065,260 Z" /><path d="M 4805,170 L 4895,170 L 4895,260 L 4805,260 Z" /><path d="M 4545,170 L 4635,170 L 4635,260 L 4545,260 Z" /><path d="M 4285,170 L 4375,170 L 4375,260 L 4285,260 Z" /><path d="M 4025,170 L 4115,170 L 4115,260 L 4025,260 Z" /><path d="M 3765,170 L 3855,170 L 3855,260 L 3765,260 Z" /><path d="M 3505,170 L 3595,170 L 3595,260 L 3505,260 Z" /><path d="M 3245,170 L 3335,170 L 3335,260 L 3245,260 Z" /><path d="M 2985,170 L 3075,170 L 3075,260 L 2985,260 Z" /><path d="M 2725,170 L 2815,170 L 2815,260 L 2725,260 Z" /><path d="M 2465,170 L 2555,170 L 2555,260 L 2465,260 Z" /><path d="M 2205,170 L 2295,170 L 2295,260 L 2205,260 Z" /><path d="M 1945,170 L 2035,170 L 2035,260 L 1945,260 Z" /><path d="M 1685,170 L 1775,170 L 1775,260 L 1685,260 Z" /><path d="M 1425,170 L 1515,170 L 1515,260 L 1425,260 Z" /><path d="M 1165,170 L 1255,170 L 1255,260 L 1165,260 Z" /><path d="M 905,170 L 995,170 L 995,260 L 905,260 Z" /><path d="M 385,170 L 475,170 L 475,260 L 385,260 Z" /><path d="M 645,170 L 735,170 L 735,260 L 645,260 Z" /><path d="M 6365,3110 L 6455,3110 L 6455,3200 L 6365,3200 Z" /><path d="M 6105,3110 L 6195,3110 L 6195,3200 L 6105,3200 Z" /><path d="M 5845,3110 L 5935,3110 L 5935,3200 L 5845,3200 Z" /><path d="M 5585,3110 L 5675,3110 L 5675,3200 L 5585,3200 Z" /><path d="M 5325,3110 L 5415,3110 L 5415,3200 L 5325,3200 Z" /><path d="M 5065,3110 L 5155,3110 L 5155,3200 L 5065,3200 Z" /><path d="M 4805,3110 L 4895,3110 L 4895,3200 L 4805,3200 Z" /><path d="M 4545,3110 L 4635,3110 L 4635,3200 L 4545,3200 Z" /><path d="M 4285,3110 L 4375,3110 L 4375,3200 L 4285,3200 Z" /><path d="M 4025,3110 L 4115,3110 L 4115,3200 L 4025,3200 Z" /><path d="M 3765,3110 L 3855,3110 L 3855,3200 L 3765,3200 Z" /><path d="M 3505,3110 L 3595,3110 L 3595,3200 L 3505,3200 Z" /><path d="M 3245,3110 L 3335,3110 L 3335,3200 L 3245,3200 Z" /><path d="M 2985,3110 L 3075,3110 L 3075,3200 L 2985,3200 Z" /><path d="M 2725,3110 L 2815,3110 L 2815,3200 L 2725,3200 Z" /><path d="M 2465,3110 L 2555,3110 L 2555,3200 L 2465,3200 Z" /><path d="M 2205,3110 L 2295,3110 L 2295,3200 L 2205,3200 Z" /><path d="M 1945,3110 L 2035,3110 L 2035,3200 L 1945,3200 Z" /><path d="M 1685,3110 L 1775,3110 L 1775,3200 L 1685,3200 Z" /><path d="M 1425,3110 L 1515,3110 L 1515,3200 L 1425,3200 Z" /><path d="M 1165,3110 L 1255,3110 L 1255,3200 L 1165,3200 Z" /><path d="M 905,3110 L 995,3110 L 995,3200 L 905,3200 Z" /><path d="M 645,3110 L 735,3110 L 735,3200 L 645,3200 Z" /><path d="M 385,3110 L 475,3110 L 475,3200 L 385,3200 Z" /><path d="M 6235,1545 L 6325,1545 L 6325,1635 L 6235,1635 Z" /><path d="M 5975,1545 L 6065,1545 L 6065,1635 L 5975,1635 Z" /><path d="M 5715,1545 L 5805,1545 L 5805,1635 L 5715,1635 Z" /><path d="M 5455,1545 L 5545,1545 L 5545,1635 L 5455,1635 Z" /><path d="M 5195,1545 L 5285,1545 L 5285,1635 L 5195,1635 Z" /><path d="M 4935,1545 L 5025,1545 L 5025,1635 L 4935,1635 Z" /><path d="M 4675,1545 L 4765,1545 L 4765,1635 L 4675,1635 Z" /><path d="M 4415,1545 L 4505,1545 L 4505,1635 L 4415,1635 Z" /><path d="M 4155,1545 L 4245,1545 L 4245,1635 L 4155,1635 Z" /><path d="M 3895,1545 L 3985,1545 L 3985,1635 L 3895,1635 Z" /><path d="M 3635,1545 L 3725,1545 L 3725,1635 L 3635,1635 Z" /><path d="M 3375,1545 L 3465,1545 L 3465,1635 L 3375,1635 Z" /><path d="M 3115,1545 L 3205,1545 L 3205,1635 L 3115,1635 Z" /><path d="M 2855,1545 L 2945,1545 L 2945,1635 L 2855,1635 Z" /><path d="M 2595,1545 L 2685,1545 L 2685,1635 L 2595,1635 Z" /><path d="M 2335,1545 L 2425,1545 L 2425,1635 L 2335,1635 Z" /><path d="M 2075,1735 L 2165,1735 L 2165,1825 L 2075,1825 Z" /><path d="M 1815,1735 L 1905,1735 L 1905,1825 L 1815,1825 Z" /><path d="M 1555,1735 L 1645,1735 L 1645,1825 L 1555,1825 Z" /><path d="M 1295,1735 L 1385,1735 L 1385,1825 L 1295,1825 Z" /><path d="M 1035,1545 L 1125,1545 L 1125,1635 L 1035,1635 Z" /><path d="M 515,1735 L 605,1735 L 605,1825 L 515,1825 Z" /></g></g><g id="M1"><g class="l31d0"><path d="M 2820,2245 L 2820,2110 L 2720,2110 L 2720,2245 L 2720,3060 L 2300,3060 L 2300,2245 L 2300,2110 L 2200,2110 L 2200,2245 L 2200,3060 L 1780,3060 L 1780,2245 L 1780,2110 L 1680,2110 L 1680,2245 L 1680,3060 L 1260,3060 L 1260,2245 L 1260,2110 L 1160,2110 L 1160,2245 L 1160,3060 L 480,3060 L 480,2590 L 480,2455 L 380,2455 L 380,2590 L 380,3060 L 290,3060 L 290,3250 L 6550,3250 L 6550,3060 L 6460,3060 L 6460,2245 L 6460,2110 L 6360,2110 L 6360,2245 L 6360,3060 L 5939,3060 L 5939,2245 L 5940,2245 L 5940,2110 L 5840,2110 L 5840,2245 L 5840,3060 L 5420,3060 L 5420,2245 L 5420,2110 L 5320,2110 L 5320,2245 L 5320,3060 L 4900,3060 L 4900,2245 L 4900,2110 L 4800,2110 L 4800,2245 L 4800,3060 L 4380,3060 L 4380,2245 L 4380,2110 L 4280,2110 L 4280,2245 L 4280,3060 L 3860,3060 L 3860,2245 L 3860,2110 L 3760,2110 L 3760,2245 L 3760,3060 L 3340,3060 L 3340,2245 L 3340,2110 L 3240,2110 L 3240,2245 L 3240,3060 L 2820,3060 Z" /><path d="M 4800,1125 L 4800,1260 L 4900,1260 L 4900,1125 L 4900,310 L 5320,310 L 5320,1125 L 5320,1260 L 5420,1260 L 5420,1125 L 5420,310 L 5840,310 L 5840,1125 L 5840,1260 L 5940,1260 L 5940,1125 L 5939,1125 L 5939,310 L 6360,310 L 6360,1125 L 6360,1260 L 6460,1260 L 6460,1125 L 6460,310 L 6550,310 L 6550,120 L 290,120 L 290,310 L 380,310 L 380,780 L 380,915 L 480,915 L 480,780 L 480,310 L 1160,310 L 1160,1125 L 1160,1260 L 1260,1260 L 1260,1125 L 1260,310 L 1680,310 L 1680,1125 L 1680,1260 L 1780,1260 L 1780,1125 L 1780,310 L 2200,310 L 2200,1125 L 2200,1260 L 2300,1260 L 2300,1125 L 2300,310 L 2720,310 L 2720,1125 L 2720,1260 L 2820,1260 L 2820,1125 L 2820,310 L 3240,310 L 3240,1125 L 3240,1260 L 3340,1260 L 3340,1125 L 3340,310 L 3760,310 L 3760,1125 L 3760,1260 L 3860,1260 L 3860,1125 L 3860,310 L 4280,310 L 4280,1125 L 4280,1260 L 4380,1260 L 4380,1125 L 4380,310 L 4800,310 Z" /><path d="M 330,1730 L 330,1830 L 475,1830 L 645,1830 L 750,1830 L 750,1730 L 645,1730 L 475,1730 Z" /><path d="M 5580,760 L 5580,895 L 5580,920 L 5580,1100 L 5580,1125 L 5580,1260 L 5680,1260 L 5680,1125 L 5680,1100 L 5680,920 L 5680,895 L 5680,760 Z" /><path d="M 6100,760 L 6100,895 L 6100,920 L 6100,1100 L 6100,1125 L 6100,1260 L 6200,1260 L 6200,1125 L 6200,1100 L 6200,920 L 6200,895 L 6200,760 Z" /><path d="M 4020,760 L 4020,895 L 4020,920 L 4020,1100 L 4020,1125 L 4020,1260 L 4120,1260 L 4120,1125 L 4120,1100 L 4120,920 L 4120,895 L 4120,760 Z" /><path d="M 4540,760 L 4540,895 L 4540,920 L 4540,1100 L 4540,1125 L 4540,1260 L 4640,1260 L 4640,1125 L 4640,1100 L 4640,920 L 4640,895 L 4640,760 Z" /><path d="M 5060,760 L 5060,895 L 5060,920 L 5060,1100 L 5060,1125 L 5060,1260 L 5160,1260 L 5160,1125 L 5160,1100 L 5160,920 L 5160,895 L 5160,760 Z" /><path d="M 2460,760 L 2460,895 L 2460,920 L 2460,1100 L 2460,1125 L 2460,1260 L 2560,1260 L 2560,1125 L 2560,1100 L 2560,920 L 2560,895 L 2560,760 Z" /><path d="M 2980,760 L 2980,895 L 2980,920 L 2980,1100 L 2980,1125 L 2980,1260 L 3080,1260 L 3080,1125 L 3080,1100 L 3080,920 L 3080,895 L 3080,760 Z" /><path d="M 3500,760 L 3500,895 L 3500,920 L 3500,1100 L 3500,1125 L 3500,1260 L 3600,1260 L 3600,1125 L 3600,1100 L 3600,920 L 3600,895 L 3600,760 Z" /><path d="M 1940,760 L 1940,895 L 1940,920 L 1940,1100 L 1940,1125 L 1940,1260 L 2040,1260 L 2040,1125 L 2040,1100 L 2040,920 L 2040,895 L 2040,760 Z" /><path d="M 1420,760 L 1420,895 L 1420,920 L 1420,1100 L 1420,1125 L 1420,1260 L 1520,1260 L 1520,1125 L 1520,1100 L 1520,920 L 1520,895 L 1520,760 Z" /><path d="M 5680,2610 L 5680,2475 L 5680,2450 L 5680,2270 L 5680,2245 L 5680,2110 L 5580,2110 L 5580,2245 L 5580,2270 L 5580,2450 L 5580,2475 L 5580,2610 Z" /><path d="M 6200,2610 L 6200,2475 L 6200,2450 L 6200,2270 L 6200,2245 L 6200,2110 L 6100,2110 L 6100,2245 L 6100,2270 L 6100,2450 L 6100,2475 L 6100,2610 Z" /><path d="M 900,760 L 900,895 L 900,920 L 900,1100 L 900,1125 L 900,1260 L 1000,1260 L 1000,1125 L 1000,1100 L 1000,920 L 1000,895 L 1000,760 Z" /><path d="M 4120,2610 L 4120,2475 L 4120,2450 L 4120,2270 L 4120,2245 L 4120,2110 L 4020,2110 L 4020,2245 L 4020,2270 L 4020,2450 L 4020,2475 L 4020,2610 Z" /><path d="M 4640,2610 L 4640,2475 L 4640,2450 L 4640,2270 L 4640,2245 L 4640,2110 L 4540,2110 L 4540,2245 L 4540,2270 L 4540,2450 L 4540,2475 L 4540,2610 Z" /><path d="M 5160,2610 L 5160,2475 L 5160,2450 L 5160,2270 L 5160,2245 L 5160,2110 L 5060,2110 L 5060,2245 L 5060,2270 L 5060,2450 L 5060,2475 L 5060,2610 Z" /><path d="M 2560,2610 L 2560,2475 L 2560,2450 L 2560,2270 L 2560,2245 L 2560,2110 L 2460,2110 L 2460,2245 L 2460,2270 L 2460,2450 L 2460,2475 L 2460,2610 Z" /><path d="M 3080,2610 L 3080,2475 L 3080,2450 L 3080,2270 L 3080,2245 L 3080,2110 L 2980,2110 L 2980,2245 L 2980,2270 L 2980,2450 L 2980,2475 L 2980,2610 Z" /><path d="M 3600,2610 L 3600,2475 L 3600,2450 L 3600,2270 L 3600,2245 L 3600,2110 L 3500,2110 L 3500,2245 L 3500,2270 L 3500,2450 L 3500,2475 L 3500,2610 Z" /><path d="M 2040,2610 L 2040,2475 L 2040,2450 L 2040,2270 L 2040,2245 L 2040,2110 L 1940,2110 L 1940,2245 L 1940,2270 L 1940,2450 L 1940,2475 L 1940,2610 Z" /><path d="M 1520,2610 L 1520,2475 L 1520,2450 L 1520,2270 L 1520,2245 L 1520,2110 L 1420,2110 L 1420,2245 L 1420,2270 L 1420,2450 L 1420,2475 L 1420,2610 Z" /><path d="M 1000,2610 L 1000,2475 L 1000,2450 L 1000,2270 L 1000,2245 L 1000,2110 L 900,2110 L 900,2245 L 900,2270 L 900,2450 L 900,2475 L 900,2610 Z" /><path d="M 640,2450 L 640,2630 L 640,2870 L 740,2870 L 740,2630 L 740,2450 Z" /><path d="M 740,500 L 640,500 L 640,740 L 640,920 L 740,920 L 740,740 Z" /><path d="M 6240,1350 L 6150,1350 L 6060,1350 L 5720,1350 L 5630,1350 L 5540,1350 L 5200,1350 L 5110,1350 L 5020,1350 L 4680,1350 L 4590,1350 L 4500,1350 L 4160,1350 L 4070,1350 L 3980,1350 L 3640,1350 L 3550,1350 L 3460,1350 L 3120,1350 L 3030,1350 L 2940,1350 L 2600,1350 L 2510,1350 L 2420,1350 L 2420,1450 L 2510,1450 L 2600,1450 L 2940,1450 L 3030,1450 L 3120,1450 L 3460,1450 L 3550,1450 L 3640,1450 L 3980,1450 L 4070,1450 L 4160,1450 L 4500,1450 L 4590,1450 L 4680,1450 L 5020,1450 L 5110,1450 L 5200,1450 L 5540,1450 L 5630,1450 L 5720,1450 L 6060,1450 L 6150,1450 L 6240,1450 Z" /><path d="M 3640,1830 L 3980,1830 L 4070,1830 L 4160,1830 L 4500,1830 L 4590,1830 L 4680,1830 L 5020,1830 L 5110,1830 L 5200,1830 L 5540,1830 L 5630,1830 L 5720,1830 L 6060,1830 L 6150,1830 L 6240,1830 L 6240,1730 L 6150,1730 L 6060,1730 L 5720,1730 L 5630,1730 L 5540,1730 L 5200,1730 L 5110,1730 L 5020,1730 L 4680,1730 L 4590,1730 L 4500,1730 L 4160,1730 L 4070,1730 L 3980,1730 L 3640,1730 L 3550,1730 L 3460,1730 L 3120,1730 L 3030,1730 L 2940,1730 L 2600,1730 L 2510,1730 L 2420,1730 L 2420,1830 L 2510,1830 L 2600,1830 L 2940,1830 L 3030,1830 L 3120,1830 L 3460,1830 L 3550,1830 Z" /><path d="M 4200,1640 L 4285,1640 L 4375,1640 L 4460,1640 L 4545,1640 L 4635,1640 L 4720,1640 L 4805,1640 L 4895,1640 L 4980,1640 L 5065,1640 L 5155,1640 L 5240,1640 L 5325,1640 L 5415,1640 L 5500,1640 L 5585,1640 L 5675,1640 L 5760,1640 L 5845,1640 L 5935,1640 L 6020,1640 L 6105,1640 L 6195,1640 L 6280,1640 L 6365,1640 L 6365,1540 L 6280,1540 L 6195,1540 L 6105,1540 L 6020,1540 L 5935,1540 L 5845,1540 L 5760,1540 L 5675,1540 L 5585,1540 L 5500,1540 L 5415,1540 L 5325,1540 L 5240,1540 L 5155,1540 L 5065,1540 L 4980,1540 L 4895,1540 L 4805,1540 L 4720,1540 L 4635,1540 L 4545,1540 L 4460,1540 L 4375,1540 L 4285,1540 L 4200,1540 L 4115,1540 L 4025,1540 L 3940,1540 L 3855,1540 L 3765,1540 L 3680,1540 L 3595,1540 L 3505,1540 L 3420,1540 L 3335,1540 L 3245,1540 L 3160,1540 L 3075,1540 L 2985,1540 L 2900,1540 L 2815,1540 L 2725,1540 L 2640,1540 L 2555,1540 L 2465,1540 L 2380,1540 L 2295,1540 L 2080,1540 L 1990,1540 L 1900,1540 L 1560,1540 L 1470,1540 L 1380,1540 L 1380,1640 L 1470,1640 L 1560,1640 L 1900,1640 L 1990,1640 L 2080,1640 L 2295,1640 L 2380,1640 L 2465,1640 L 2555,1640 L 2640,1640 L 2725,1640 L 2815,1640 L 2900,1640 L 2985,1640 L 3075,1640 L 3160,1640 L 3245,1640 L 3335,1640 L 3420,1640 L 3505,1640 L 3595,1640 L 3680,1640 L 3765,1640 L 3855,1640 L 3940,1640 L 4025,1640 L 4115,1640 Z" /><path d="M 1040,1830 L 1255,1830 L 1340,1830 L 1425,1830 L 1515,1830 L 1600,1830 L 1685,1830 L 1775,1830 L 1860,1830 L 1945,1830 L 2035,1830 L 2120,1830 L 2205,1830 L 2205,1730 L 2120,1730 L 2035,1730 L 1945,1730 L 1860,1730 L 1775,1730 L 1685,1730 L 1600,1730 L 1515,1730 L 1425,1730 L 1340,1730 L 1255,1730 L 1040,1730 L 950,1730 L 860,1730 L 860,1830 L 950,1830 Z" /><path d="M 780,1540 L 690,1540 L 600,1540 L 600,1640 L 690,1640 L 780,1640 L 995,1640 L 1080,1640 L 1165,1640 L 1165,1540 L 1080,1540 L 995,1540 Z" /></g></g><g id="VIA1"><g class="l51d0"><path d="M 5580,960 L 5680,960 L 5680,1060 L 5580,1060 Z" /><path d="M 6100,960 L 6200,960 L 6200,1060 L 6100,1060 Z" /><path d="M 4020,960 L 4120,960 L 4120,1060 L 4020,1060 Z" /><path d="M 4540,960 L 4640,960 L 4640,1060 L 4540,1060 Z" /><path d="M 5060,960 L 5160,960 L 5160,1060 L 5060,1060 Z" /><path d="M 2460,960 L 2560,960 L 2560,1060 L 2460,1060 Z" /><path d="M 2980,960 L 3080,960 L 3080,1060 L 2980,1060 Z" /><path d="M 3500,960 L 3600,960 L 3600,1060 L 3500,1060 Z" /><path d="M 1940,960 L 2040,960 L 2040,1060 L 1940,1060 Z" /><path d="M 1420,960 L 1520,960 L 1520,1060 L 1420,1060 Z" /><path d="M 5580,2310 L 5680,2310 L 5680,2410 L 5580,2410 Z" /><path d="M 6100,2310 L 6200,2310 L 6200,2410 L 6100,2410 Z" /><path d="M 900,960 L 1000,960 L 1000,1060 L 900,1060 Z" /><path d="M 4020,2310 L 4120,2310 L 4120,2410 L 4020,2410 Z" /><path d="M 4540,2310 L 4640,2310 L 4640,2410 L 4540,2410 Z" /><path d="M 5060,2310 L 5160,2310 L 5160,2410 L 5060,2410 Z" /><path d="M 2460,2310 L 2560,2310 L 2560,2410 L 2460,2410 Z" /><path d="M 2980,2310 L 3080,2310 L 3080,2410 L 2980,2410 Z" /><path d="M 3500,2310 L 3600,2310 L 3600,2410 L 3500,2410 Z" /><path d="M 1940,2310 L 2040,2310 L 2040,2410 L 1940,2410 Z" /><path d="M 1420,2310 L 1520,2310 L 1520,2410 L 1420,2410 Z" /><path d="M 900,2310 L 1000,2310 L 1000,2410 L 900,2410 Z" /><path d="M 640,2590 L 740,2590 L 740,2490 L 640,2490 Z" /><path d="M 640,780 L 740,780 L 740,880 L 640,880 Z" /><path d="M 6100,1350 L 6200,1350 L 6200,1450 L 6100,1450 Z" /><path d="M 5580,1350 L 5680,1350 L 5680,1450 L 5580,1450 Z" /><path d="M 5060,1350 L 5160,1350 L 5160,1450 L 5060,1450 Z" /><path d="M 4540,1350 L 4640,1350 L 4640,1450 L 4540,1450 Z" /><path d="M 4020,1350 L 4120,1350 L 4120,1450 L 4020,1450 Z" /><path d="M 3500,1350 L 3600,1350 L 3600,1450 L 3500,1450 Z" /><path d="M 2980,1350 L 3080,1350 L 3080,1450 L 2980,1450 Z" /><path d="M 2460,1350 L 2560,1350 L 2560,1450 L 2460,1450 Z" /><path d="M 6100,1730 L 6200,1730 L 6200,1830 L 6100,1830 Z" /><path d="M 5580,1730 L 5680,1730 L 5680,1830 L 5580,1830 Z" /><path d="M 5060,1730 L 5160,1730 L 5160,1830 L 5060,1830 Z" /><path d="M 4540,1730 L 4640,1730 L 4640,1830 L 4540,1830 Z" /><path d="M 4020,1730 L 4120,1730 L 4120,1830 L 4020,1830 Z" /><path d="M 3500,1730 L 3600,1730 L 3600,1830 L 3500,1830 Z" /><path d="M 2980,1730 L 3080,1730 L 3080,1830 L 2980,1830 Z" /><path d="M 2460,1730 L 2560,1730 L 2560,1830 L 2460,1830 Z" /><path d="M 1940,1540 L 2040,1540 L 2040,1640 L 1940,1640 Z" /><path d="M 1420,1540 L 1520,1540 L 1520,1640 L 1420,1640 Z" /><path d="M 900,1730 L 1000,1730 L 1000,1830 L 900,1830 Z" /><path d="M 640,1540 L 740,1540 L 740,1640 L 640,1640 Z" /></g></g><g id="M2"><g class="l32d0"><path d="M 6200,920 L 6100,920 L 6100,1010 L 6100,1100 L 6100,1310 L 6100,1490 L 6100,1690 L 6100,1780 L 6100,1870 L 6100,2270 L 6100,2360 L 6100,2450 L 6200,2450 L 6200,2360 L 6200,2270 L 6200,1870 L 6200,1780 L 6200,1690 L 6200,1490 L 6200,1310 L 6200,1100 L 6200,1010 Z" /><path d="M 5680,920 L 5580,920 L 5580,1010 L 5580,1100 L 5580,1310 L 5580,1490 L 5580,1690 L 5580,1780 L 5580,1870 L 5580,2270 L 5580,2360 L 5580,2450 L 5680,2450 L 5680,2360 L 5680,2270 L 5680,1870 L 5680,1780 L 5680,1690 L 5680,1490 L 5680,1310 L 5680,1100 L 5680,1010 Z" /><path d="M 5160,920 L 5060,920 L 5060,1010 L 5060,1100 L 5060,1310 L 5060,1490 L 5060,1690 L 5060,1780 L 5060,1870 L 5060,2270 L 5060,2360 L 5060,2450 L 5160,2450 L 5160,2360 L 5160,2270 L 5160,1870 L 5160,1780 L 5160,1690 L 5160,1490 L 5160,1310 L 5160,1100 L 5160,1010 Z" /><path d="M 4640,920 L 4540,920 L 4540,1010 L 4540,1100 L 4540,1310 L 4540,1490 L 4540,1690 L 4540,1780 L 4540,1870 L 4540,2270 L 4540,2360 L 4540,2450 L 4640,2450 L 4640,2360 L 4640,2270 L 4640,1870 L 4640,1780 L 4640,1690 L 4640,1490 L 4640,1310 L 4640,1100 L 4640,1010 Z" /><path d="M 4120,920 L 4020,920 L 4020,1010 L 4020,1100 L 4020,1310 L 4020,1490 L 4020,1690 L 4020,1780 L 4020,1870 L 4020,2270 L 4020,2360 L 4020,2450 L 4120,2450 L 4120,2360 L 4120,2270 L 4120,1870 L 4120,1780 L 4120,1690 L 4120,1490 L 4120,1310 L 4120,1100 L 4120,1010 Z" /><path d="M 3600,920 L 3500,920 L 3500,1010 L 3500,1100 L 3500,1310 L 3500,1490 L 3500,1690 L 3500,1780 L 3500,1870 L 3500,2270 L 3500,2360 L 3500,2450 L 3600,2450 L 3600,2360 L 3600,2270 L 3600,1870 L 3600,1780 L 3600,1690 L 3600,1490 L 3600,1310 L 3600,1100 L 3600,1010 Z" /><path d="M 3080,920 L 2980,920 L 2980,1010 L 2980,1100 L 2980,1310 L 2980,1490 L 2980,1690 L 2980,1780 L 2980,1870 L 2980,2270 L 2980,2360 L 2980,2450 L 3080,2450 L 3080,2360 L 3080,2270 L 3080,1870 L 3080,1780 L 3080,1690 L 3080,1490 L 3080,1310 L 3080,1100 L 3080,1010 Z" /><path d="M 2560,1310 L 2560,1100 L 2560,1010 L 2560,920 L 2460,920 L 2460,1010 L 2460,1100 L 2460,1310 L 2460,1490 L 2460,1690 L 2460,1870 L 2460,2270 L 2460,2360 L 2460,2450 L 2560,2450 L 2560,2360 L 2560,2270 L 2560,1870 L 2560,1690 L 2560,1490 Z" /><path d="M 2040,1010 L 2040,920 L 1940,920 L 1940,1010 L 1940,1100 L 1940,1500 L 1940,1590 L 1940,1680 L 1940,2270 L 1940,2360 L 1940,2450 L 2040,2450 L 2040,2360 L 2040,2270 L 2040,1680 L 2040,1590 L 2040,1500 L 2040,1100 Z" /><path d="M 1520,1680 L 1520,1500 L 1520,1100 L 1520,1010 L 1520,920 L 1420,920 L 1420,1010 L 1420,1100 L 1420,1500 L 1420,1680 L 1420,2270 L 1420,2360 L 1420,2450 L 1520,2450 L 1520,2360 L 1520,2270 Z" /><path d="M 1000,1870 L 1000,1690 L 1000,1100 L 1000,1010 L 1000,920 L 900,920 L 900,1010 L 900,1100 L 900,1690 L 900,1870 L 900,2270 L 900,2360 L 900,2450 L 1000,2450 L 1000,2360 L 1000,2270 Z" /><path d="M 740,830 L 740,740 L 640,740 L 640,830 L 640,920 L 640,1500 L 640,1680 L 640,2450 L 640,2540 L 640,2630 L 740,2630 L 740,2540 L 740,2450 L 740,1680 L 740,1500 L 740,920 Z" /></g></g></g></svg>