<svg width="6070" height="3550" viewBox="-5 -3545 6070 3550" xmlns="http://www.w3.org/2000/svg" xmlns:xlink="http://www.w3.org/1999/xlink"><defs><style type="text/css">.l3d0 {fill: #fef9e7; fill-opacity: 0.5; stroke-width: 10; stroke: #f1c40f; stroke-linecap: round; stroke-linejoin: round; stroke-opacity: 0.2;}.l25d0 {fill: #8e44ad; fill-opacity: 0.05; stroke-width: 10; stroke: #8e44ad; stroke-linecap: round; stroke-linejoin: round; stroke-opacity: 1;}.l26d0 {fill: #ccd1d1; fill-opacity: 0.05; stroke-width: 10; stroke: #ccd1d1; stroke-linecap: round; stroke-linejoin: round; stroke-opacity: 1;}.l6d0 {fill: #f5b7b1; fill-opacity: 1; stroke-width: 10; stroke: #e74c3c; stroke-linecap: round; stroke-linejoin: round; stroke-opacity: 1;}.l17d0 {fill: #2980b9; fill-opacity: 1; stroke-width: 0; stroke: #000000; stroke-linecap: round; stroke-linejoin: round; stroke-opacity: 0;}.l30d0 {fill: #27ae60; fill-opacity: 1; stroke-width: 0; stroke: #000000; stroke-linecap: round; stroke-linejoin: round; stroke-opacity: 0;}.l31d0 {fill: #85c1e9; fill-opacity: 0.6; stroke-width: 0; stroke: #000000; stroke-linecap: round; stroke-linejoin: round; stroke-opacity: 0;}.l51d0 {fill: #f39c12; fill-opacity: 1; stroke-width: 10; stroke: #f39c12; stroke-linecap: round; stroke-linejoin: round; stroke-opacity: 1;}.l32d0 {fill: #f7dc6f; fill-opacity: 0.6; stroke-width: 0; stroke: #000000; stroke-linecap: round; stroke-linejoin: round; stroke-opacity: 0;}.l52d0 {fill: #a04000; fill-opacity: 1; stroke-width: 10; stroke: #a04000; stroke-linecap: round; stroke-linejoin: round; stroke-opacity: 1;}.l33d0 {fill: #16a085; fill-opacity: 0.6; stroke-width: 0; stroke: #000000; stroke-linecap: round; stroke-linejoin: round; stroke-opacity: 0;}path {fill-rule: evenodd;}</style></defs><g transform="scale(1 -1)"><g id="NW"><g class="l3d0"><path d="M 0,1900 L 0,3540 L 6060,3540 L 6060,1900 L 5825,1900 L 5565,1900 L 5175,1900 L 4915,1900 Z" /></g></g><g id="PP"><g class="l25d0"><path d="M 170,0 L 5890,0 L 5890,430 L 170,430 Z" /><path d="M 1365,2940 L 1575,2940 L 1835,2940 L 1885,2940 L 2355,2940 L 2405,2940 L 2665,2940 L 2875,2940 L 2925,2940 L 3135,2940 L 3185,2940 L 3395,2940 L 3655,2940 L 3705,2940 L 3965,2940 L 4175,2940 L 4225,2940 L 4435,2940 L 4485,2940 L 4695,2940 L 4955,2940 L 5005,2940 L 5265,2940 L 5475,2940 L 5735,2940 L 5890,2940 L 5890,1685 L 170,1685 L 170,2940 L 325,2940 L 585,2940 L 795,2940 L 1055,2940 L 1105,2940 Z" /></g></g><g id="NP"><g class="l26d0"><path d="M 170,2940 L 5890,2940 L 5890,3370 L 170,3370 Z" /><path d="M 5475,430 L 5265,430 L 5005,430 L 4955,430 L 4695,430 L 4485,430 L 4435,430 L 4225,430 L 4175,430 L 3965,430 L 3705,430 L 3655,430 L 3395,430 L 3185,430 L 3135,430 L 2925,430 L 2875,430 L 2665,430 L 2405,430 L 2355,430 L 1885,430 L 1835,430 L 1575,430 L 1365,430 L 1105,430 L 1055,430 L 795,430 L 585,430 L 325,430 L 170,430 L 170,1685 L 5890,1685 L 5890,430 L 5735,430 Z" /></g></g><g id="OD"><g class="l6d0"><path d="M 300,130 L 5760,130 L 5760,300 L 300,300 Z" /><path d="M 300,3070 L 5760,3070 L 5760,3240 L 300,3240 Z" /><path d="M 5345,770 L 5270,770 L 5210,770 L 5135,770 L 5035,770 L 5035,890 L 5135,890 L 5210,890 L 5270,890 L 5345,890 L 5395,890 L 5470,890 L 5530,890 L 5605,890 L 5705,890 L 5705,770 L 5605,770 L 5530,770 L 5470,770 L 5395,770 Z" /><path d="M 1495,890 L 1570,890 L 1630,890 L 1705,890 L 1805,890 L 1805,770 L 1705,770 L 1630,770 L 1570,770 L 1495,770 L 1445,770 L 1370,770 L 1310,770 L 1235,770 L 1135,770 L 1135,890 L 1235,890 L 1310,890 L 1370,890 L 1445,890 Z" /><path d="M 715,890 L 790,890 L 850,890 L 925,890 L 1025,890 L 1025,770 L 925,770 L 850,770 L 790,770 L 715,770 L 665,770 L 590,770 L 530,770 L 455,770 L 355,770 L 355,890 L 455,890 L 530,890 L 590,890 L 665,890 Z" /><path d="M 5050,2600 L 5135,2600 L 5210,2600 L 5270,2600 L 5345,2600 L 5395,2600 L 5470,2600 L 5530,2600 L 5605,2600 L 5690,2600 L 5690,2120 L 5605,2120 L 5530,2120 L 5470,2120 L 5395,2120 L 5345,2120 L 5270,2120 L 5210,2120 L 5135,2120 L 5050,2120 Z" /><path d="M 3750,770 L 3750,1250 L 3835,1250 L 3910,1250 L 3970,1250 L 4045,1250 L 4094,1250 L 4094,770 L 4045,770 L 3970,770 L 3910,770 L 3835,770 Z" /><path d="M 4230,770 L 4170,770 L 4095,770 L 4095,1250 L 4170,1250 L 4230,1250 L 4305,1250 L 4355,1250 L 4430,1250 L 4490,1250 L 4565,1250 L 4615,1250 L 4690,1250 L 4750,1250 L 4825,1250 L 4910,1250 L 4910,770 L 4825,770 L 4750,770 L 4690,770 L 4615,770 L 4565,770 L 4490,770 L 4430,770 L 4355,770 L 4305,770 Z" /><path d="M 2150,890 L 2225,890 L 2450,890 L 2450,1250 L 2535,1250 L 2610,1250 L 2670,1250 L 2745,1250 L 2795,1250 L 2870,1250 L 2930,1250 L 3005,1250 L 3055,1250 L 3130,1250 L 3190,1250 L 3265,1250 L 3315,1250 L 3390,1250 L 3450,1250 L 3525,1250 L 3610,1250 L 3610,770 L 3525,770 L 3450,770 L 3390,770 L 3315,770 L 3265,770 L 3190,770 L 3130,770 L 3055,770 L 3005,770 L 2930,770 L 2870,770 L 2795,770 L 2745,770 L 2670,770 L 2610,770 L 2535,770 L 2450,770 L 2225,770 L 2150,770 L 2090,770 L 2015,770 L 1915,770 L 1915,890 L 2015,890 L 2090,890 Z" /><path d="M 4094,2600 L 4094,2360 L 4045,2360 L 3970,2360 L 3910,2360 L 3835,2360 L 3750,2360 L 3750,2600 L 3835,2600 L 3910,2600 L 3970,2600 L 4045,2600 Z" /><path d="M 4230,2360 L 4170,2360 L 4095,2360 L 4095,2600 L 4170,2600 L 4230,2600 L 4305,2600 L 4355,2600 L 4430,2600 L 4490,2600 L 4565,2600 L 4615,2600 L 4690,2600 L 4750,2600 L 4825,2600 L 4910,2600 L 4910,2360 L 4825,2360 L 4750,2360 L 4690,2360 L 4615,2360 L 4565,2360 L 4490,2360 L 4430,2360 L 4355,2360 L 4305,2360 Z" /><path d="M 2535,2600 L 2610,2600 L 2670,2600 L 2745,2600 L 2795,2600 L 2870,2600 L 2930,2600 L 3005,2600 L 3055,2600 L 3130,2600 L 3190,2600 L 3265,2600 L 3315,2600 L 3390,2600 L 3450,2600 L 3525,2600 L 3610,2600 L 3610,2360 L 3525,2360 L 3450,2360 L 3390,2360 L 3315,2360 L 3265,2360 L 3190,2360 L 3130,2360 L 3055,2360 L 3005,2360 L 2930,2360 L 2870,2360 L 2795,2360 L 2745,2360 L 2670,2360 L 2610,2360 L 2535,2360 L 2275,2360 L 2225,2360 L 2150,2360 L 2090,2360 L 2015,2360 L 1930,2360 L 1930,2600 L 2015,2600 L 2090,2600 L 2150,2600 L 2225,2600 L 2275,2600 Z" /><path d="M 1495,2600 L 1570,2600 L 1630,2600 L 1705,2600 L 1790,2600 L 1790,2360 L 1705,2360 L 1630,2360 L 1570,2360 L 1495,2360 L 1445,2360 L 1370,2360 L 1310,2360 L 1235,2360 L 1150,2360 L 1150,2600 L 1235,2600 L 1310,2600 L 1370,2600 L 1445,2600 Z" /><path d="M 715,2600 L 790,2600 L 850,2600 L 925,2600 L 1010,2600 L 1010,2360 L 925,2360 L 850,2360 L 790,2360 L 715,2360 L 665,2360 L 590,2360 L 530,2360 L 455,2360 L 370,2360 L 370,2600 L 455,2600 L 530,2600 L 590,2600 L 665,2600 Z" /></g></g><g id="PO"><g class="l17d0"><path d="M 5530,890 L 5530,770 L 5530,630 L 5470,630 L 5470,770 L 5470,890 L 5470,1030 L 5470,1315 L 5445,1315 L 5445,1485 L 5470,1485 L 5470,1980 L 5470,2120 L 5470,2600 L 5470,2740 L 5530,2740 L 5530,2600 L 5530,2120 L 5530,1980 L 5530,1485 L 5555,1485 L 5555,1315 L 5530,1315 L 5530,1030 Z" /><path d="M 5270,890 L 5270,770 L 5270,630 L 5210,630 L 5210,770 L 5210,890 L 5210,1030 L 5210,1505 L 5185,1505 L 5185,1675 L 5210,1675 L 5210,1980 L 5210,2120 L 5210,2600 L 5210,2740 L 5270,2740 L 5270,2600 L 5270,2120 L 5270,1980 L 5270,1675 L 5295,1675 L 5295,1505 L 5270,1505 L 5270,1030 Z" /><path d="M 2150,890 L 2150,770 L 2150,630 L 2090,630 L 2090,770 L 2090,890 L 2090,1030 L 2090,1315 L 2065,1315 L 2065,1485 L 2090,1485 L 2090,2220 L 2090,2360 L 2090,2600 L 2090,2740 L 2150,2740 L 2150,2600 L 2150,2360 L 2150,2220 L 2150,1485 L 2175,1485 L 2175,1315 L 2150,1315 L 2150,1030 Z" /><path d="M 1630,890 L 1630,770 L 1630,630 L 1570,630 L 1570,770 L 1570,890 L 1570,1030 L 1570,1885 L 1545,1885 L 1545,2055 L 1570,2055 L 1570,2220 L 1570,2360 L 1570,2600 L 1570,2740 L 1630,2740 L 1630,2600 L 1630,2360 L 1630,2220 L 1630,2055 L 1655,2055 L 1655,1885 L 1630,1885 L 1630,1030 Z" /><path d="M 1370,890 L 1370,770 L 1370,630 L 1310,630 L 1310,770 L 1310,890 L 1310,1030 L 1310,1315 L 1285,1315 L 1285,1485 L 1310,1485 L 1310,2220 L 1310,2360 L 1310,2600 L 1310,2740 L 1370,2740 L 1370,2600 L 1370,2360 L 1370,2220 L 1370,1485 L 1395,1485 L 1395,1315 L 1370,1315 L 1370,1030 Z" /><path d="M 850,890 L 850,770 L 850,630 L 790,630 L 790,770 L 790,890 L 790,1030 L 790,1885 L 765,1885 L 765,2055 L 790,2055 L 790,2220 L 790,2360 L 790,2600 L 790,2740 L 850,2740 L 850,2600 L 850,2360 L 850,2220 L 850,2055 L 875,2055 L 875,1885 L 850,1885 L 850,1030 Z" /><path d="M 590,890 L 590,770 L 590,630 L 530,630 L 530,770 L 530,890 L 530,1030 L 530,1315 L 505,1315 L 505,1485 L 530,1485 L 530,2220 L 530,2360 L 530,2600 L 530,2740 L 590,2740 L 590,2600 L 590,2360 L 590,2220 L 590,1485 L 615,1485 L 615,1315 L 590,1315 L 590,1030 Z" /><path d="M 4750,1250 L 4750,770 L 4750,630 L 4690,630 L 4690,770 L 4690,1250 L 4690,1390 L 4689,1390 L 4689,1885 L 4665,1885 L 4665,2055 L 4689,2055 L 4689,2220 L 4690,2220 L 4690,2360 L 4690,2600 L 4690,2740 L 4750,2740 L 4750,2600 L 4750,2360 L 4750,2220 L 4750,2055 L 4775,2055 L 4775,1885 L 4750,1885 L 4750,1390 Z" /><path d="M 4490,1250 L 4490,770 L 4490,630 L 4430,630 L 4430,770 L 4430,1250 L 4430,1390 L 4430,1505 L 4405,1505 L 4405,1675 L 4430,1675 L 4430,2220 L 4430,2360 L 4430,2600 L 4430,2740 L 4490,2740 L 4490,2600 L 4490,2360 L 4490,2220 L 4490,1675 L 4515,1675 L 4515,1505 L 4490,1505 L 4490,1390 Z" /><path d="M 4230,1250 L 4230,770 L 4230,630 L 4170,630 L 4170,770 L 4170,1250 L 4170,1390 L 4170,1695 L 4145,1695 L 4145,1865 L 4170,1865 L 4170,2220 L 4170,2360 L 4170,2600 L 4170,2740 L 4230,2740 L 4230,2600 L 4230,2360 L 4230,2220 L 4230,1865 L 4255,1865 L 4255,1695 L 4230,1695 L 4230,1390 Z" /><path d="M 3970,1390 L 3970,1250 L 3970,770 L 3970,630 L 3910,630 L 3910,770 L 3910,1250 L 3910,1390 L 3910,1885 L 3885,1885 L 3885,2055 L 3910,2055 L 3910,2220 L 3910,2360 L 3910,2600 L 3910,2740 L 3970,2740 L 3970,2600 L 3970,2360 L 3970,2220 L 3969,2220 L 3969,2055 L 3995,2055 L 3995,1885 L 3969,1885 L 3969,1390 Z" /><path d="M 2870,2220 L 2870,2360 L 2870,2600 L 2870,2740 L 2930,2740 L 2930,2600 L 2930,2360 L 2930,2220 L 2929,2220 L 2929,1485 L 2955,1485 L 2955,1315 L 2930,1315 L 2930,1250 L 2930,770 L 2930,630 L 2870,630 L 2870,770 L 2870,1250 L 2870,1315 L 2845,1315 L 2845,1485 L 2870,1485 Z" /><path d="M 3450,1390 L 3450,1250 L 3450,770 L 3450,630 L 3390,630 L 3390,770 L 3390,1250 L 3390,1390 L 3390,1505 L 3365,1505 L 3365,1675 L 3390,1675 L 3390,2220 L 3390,2360 L 3390,2600 L 3390,2740 L 3450,2740 L 3450,2600 L 3450,2360 L 3450,2220 L 3449,2220 L 3449,1675 L 3475,1675 L 3475,1505 L 3449,1505 L 3449,1390 Z" /><path d="M 3190,1250 L 3190,770 L 3190,630 L 3130,630 L 3130,770 L 3130,1250 L 3130,1390 L 3130,1695 L 3105,1695 L 3105,1865 L 3130,1865 L 3130,2220 L 3130,2360 L 3130,2600 L 3130,2740 L 3190,2740 L 3190,2600 L 3190,2360 L 3190,2220 L 3190,1865 L 3215,1865 L 3215,1695 L 3190,1695 L 3190,1390 Z" /><path d="M 2670,1250 L 2670,770 L 2670,630 L 2610,630 L 2610,770 L 2610,1250 L 2610,1390 L 2610,1885 L 2585,1885 L 2585,2055 L 2610,2055 L 2610,2220 L 2610,2360 L 2610,2600 L 2610,2740 L 2670,2740 L 2670,2600 L 2670,2360 L 2670,2220 L 2670,2055 L 2695,2055 L 2695,1885 L 2670,1885 L 2670,1390 Z" /></g></g><g id="CO"><g class="l30d0"><path d="M 2465,2435 L 2555,2435 L 2555,2525 L 2465,2525 Z" /><path d="M 2465,1130 L 2555,1130 L 2555,1220 L 2465,1220 Z" /><path d="M 2465,170 L 2555,170 L 2555,260 L 2465,260 Z" /><path d="M 2465,3110 L 2555,3110 L 2555,3200 L 2465,3200 Z" /><path d="M 5065,2150 L 5155,2150 L 5155,2240 L 5065,2240 Z" /><path d="M 5065,2480 L 5155,2480 L 5155,2570 L 5065,2570 Z" /><path d="M 5585,2150 L 5675,2150 L 5675,2240 L 5585,2240 Z" /><path d="M 5585,2480 L 5675,2480 L 5675,2570 L 5585,2570 Z" /><path d="M 3765,1130 L 3855,1130 L 3855,1220 L 3765,1220 Z" /><path d="M 3765,800 L 3855,800 L 3855,890 L 3765,890 Z" /><path d="M 4805,1130 L 4895,1130 L 4895,1220 L 4805,1220 Z" /><path d="M 4805,800 L 4895,800 L 4895,890 L 4805,890 Z" /><path d="M 3505,1130 L 3595,1130 L 3595,1220 L 3505,1220 Z" /><path d="M 3505,800 L 3595,800 L 3595,890 L 3505,890 Z" /><path d="M 905,2435 L 995,2435 L 995,2525 L 905,2525 Z" /><path d="M 1685,2435 L 1775,2435 L 1775,2525 L 1685,2525 Z" /><path d="M 3505,2435 L 3595,2435 L 3595,2525 L 3505,2525 Z" /><path d="M 4805,2435 L 4895,2435 L 4895,2525 L 4805,2525 Z" /><path d="M 3765,2435 L 3855,2435 L 3855,2525 L 3765,2525 Z" /><path d="M 1945,2435 L 2035,2435 L 2035,2525 L 1945,2525 Z" /><path d="M 1165,2435 L 1255,2435 L 1255,2525 L 1165,2525 Z" /><path d="M 385,2435 L 475,2435 L 475,2525 L 385,2525 Z" /><path d="M 1945,785 L 2035,785 L 2035,875 L 1945,875 Z" /><path d="M 5065,785 L 5155,785 L 5155,875 L 5065,875 Z" /><path d="M 1165,785 L 1255,785 L 1255,875 L 1165,875 Z" /><path d="M 385,785 L 475,785 L 475,875 L 385,875 Z" /><path d="M 905,785 L 995,785 L 995,875 L 905,875 Z" /><path d="M 1685,785 L 1775,785 L 1775,875 L 1685,875 Z" /><path d="M 5585,785 L 5675,785 L 5675,875 L 5585,875 Z" /><path d="M 5325,785 L 5415,785 L 5415,875 L 5325,875 Z" /><path d="M 2465,800 L 2555,800 L 2555,890 L 2465,890 Z" /><path d="M 2205,785 L 2295,785 L 2295,875 L 2205,875 Z" /><path d="M 1425,785 L 1515,785 L 1515,875 L 1425,875 Z" /><path d="M 645,785 L 735,785 L 735,875 L 645,875 Z" /><path d="M 4545,2435 L 4635,2435 L 4635,2525 L 4545,2525 Z" /><path d="M 4285,2435 L 4375,2435 L 4375,2525 L 4285,2525 Z" /><path d="M 4025,2435 L 4115,2435 L 4115,2525 L 4025,2525 Z" /><path d="M 3245,2435 L 3335,2435 L 3335,2525 L 3245,2525 Z" /><path d="M 2985,2435 L 3075,2435 L 3075,2525 L 2985,2525 Z" /><path d="M 2725,2435 L 2815,2435 L 2815,2525 L 2725,2525 Z" /><path d="M 2205,2435 L 2295,2435 L 2295,2525 L 2205,2525 Z" /><path d="M 1425,2435 L 1515,2435 L 1515,2525 L 1425,2525 Z" /><path d="M 645,2435 L 735,2435 L 735,2525 L 645,2525 Z" /><path d="M 5585,170 L 5675,170 L 5675,260 L 5585,260 Z" /><path d="M 5325,170 L 5415,170 L 5415,260 L 5325,260 Z" /><path d="M 5065,170 L 5155,170 L 5155,260 L 5065,260 Z" /><path d="M 4805,170 L 4895,170 L 4895,260 L 4805,260 Z" /><path d="M 4545,170 L 4635,170 L 4635,260 L 4545,260 Z" /><path d="M 4285,170 L 4375,170 L 4375,260 L 4285,260 Z" /><path d="M 4025,170 L 4115,170 L 4115,260 L 4025,260 Z" /><path d="M 3765,170 L 3855,170 L 3855,260 L 3765,260 Z" /><path d="M 3505,170 L 3595,170 L 3595,260 L 3505,260 Z" /><path d="M 3245,170 L 3335,170 L 3335,260 L 3245,260 Z" /><path d="M 2985,170 L 3075,170 L 3075,260 L 2985,260 Z" /><path d="M 2725,170 L 2815,170 L 2815,260 L 2725,260 Z" /><path d="M 2205,170 L 2295,170 L 2295,260 L 2205,260 Z" /><path d="M 1945,170 L 2035,170 L 2035,260 L 1945,260 Z" /><path d="M 1685,170 L 1775,170 L 1775,260 L 1685,260 Z" /><path d="M 1425,170 L 1515,170 L 1515,260 L 1425,260 Z" /><path d="M 1165,170 L 1255,170 L 1255,260 L 1165,260 Z" /><path d="M 905,170 L 995,170 L 995,260 L 905,260 Z" /><path d="M 385,170 L 475,170 L 475,260 L 385,260 Z" /><path d="M 645,170 L 735,170 L 735,260 L 645,260 Z" /><path d="M 5585,3110 L 5675,3110 L 5675,3200 L 5585,3200 Z" /><path d="M 5325,3110 L 5415,3110 L 5415,3200 L 5325,3200 Z" /><path d="M 5065,3110 L 5155,3110 L 5155,3200 L 5065,3200 Z" /><path d="M 4805,3110 L 4895,3110 L 4895,3200 L 4805,3200 Z" /><path d="M 4545,3110 L 4635,3110 L 4635,3200 L 4545,3200 Z" /><path d="M 4285,3110 L 4375,3110 L 4375,3200 L 4285,3200 Z" /><path d="M 4025,3110 L 4115,3110 L 4115,3200 L 4025,3200 Z" /><path d="M 3765,3110 L 3855,3110 L 3855,3200 L 3765,3200 Z" /><path d="M 3505,3110 L 3595,3110 L 3595,3200 L 3505,3200 Z" /><path d="M 3245,3110 L 3335,3110 L 3335,3200 L 3245,3200 Z" /><path d="M 2985,3110 L 3075,3110 L 3075,3200 L 2985,3200 Z" /><path d="M 2725,3110 L 2815,3110 L 2815,3200 L 2725,3200 Z" /><path d="M 2205,3110 L 2295,3110 L 2295,3200 L 2205,3200 Z" /><path d="M 1945,3110 L 2035,3110 L 2035,3200 L 1945,3200 Z" /><path d="M 1685,3110 L 1775,3110 L 1775,3200 L 1685,3200 Z" /><path d="M 1425,3110 L 1515,3110 L 1515,3200 L 1425,3200 Z" /><path d="M 1165,3110 L 1255,3110 L 1255,3200 L 1165,3200 Z" /><path d="M 905,3110 L 995,3110 L 995,3200 L 905,3200 Z" /><path d="M 645,3110 L 735,3110 L 735,3200 L 645,3200 Z" /><path d="M 385,3110 L 475,3110 L 475,3200 L 385,3200 Z" /><path d="M 5455,1355 L 5545,1355 L 5545,1445 L 5455,1445 Z" /><path d="M 5195,1545 L 5285,1545 L 5285,1635 L 5195,1635 Z" /><path d="M 2075,1355 L 2165,1355 L 2165,1445 L 2075,1445 Z" /><path d="M 1555,1925 L 1645,1925 L 1645,2015 L 1555,2015 Z" /><path d="M 1295,1355 L 1385,1355 L 1385,1445 L 1295,1445 Z" /><path d="M 775,1925 L 865,1925 L 865,2015 L 775,2015 Z" /><path d="M 515,1355 L 605,1355 L 605,1445 L 515,1445 Z" /><path d="M 4675,1925 L 4765,1925 L 4765,2015 L 4675,2015 Z" /><path d="M 4415,1545 L 4505,1545 L 4505,1635 L 4415,1635 Z" /><path d="M 4155,1735 L 4245,1735 L 4245,1825 L 4155,1825 Z" /><path d="M 3895,1925 L 3985,1925 L 3985,2015 L 3895,2015 Z" /><path d="M 2855,1355 L 2945,1355 L 2945,1445 L 2855,1445 Z" /><path d="M 3375,1545 L 3465,1545 L 3465,1635 L 3375,1635 Z" /><path d="M 3115,1735 L 3205,1735 L 3205,1825 L 3115,1825 Z" /><path d="M 2595,1925 L 2685,1925 L 2685,2015 L 2595,2015 Z" /></g></g><g id="M1"><g class="l31d0"><path d="M 2200,915 L 2300,915 L 2300,780 L 2300,310 L 2460,310 L 2460,1125 L 2460,1260 L 2560,1260 L 2560,1125 L 2560,310 L 3760,310 L 3760,1125 L 3760,1260 L 3860,1260 L 3860,1125 L 3860,310 L 5060,310 L 5060,780 L 5060,915 L 5160,915 L 5160,780 L 5160,310 L 5580,310 L 5580,780 L 5580,915 L 5680,915 L 5680,780 L 5680,310 L 5770,310 L 5770,120 L 290,120 L 290,310 L 640,310 L 640,780 L 640,915 L 740,915 L 740,780 L 740,310 L 1420,310 L 1420,780 L 1420,915 L 1520,915 L 1520,780 L 1520,310 L 2200,310 L 2200,780 Z" /><path d="M 2980,3060 L 2560,3060 L 2560,2530 L 2560,2395 L 2460,2395 L 2460,2530 L 2460,3060 L 2300,3060 L 2300,2530 L 2300,2395 L 2200,2395 L 2200,2530 L 2200,3060 L 1520,3060 L 1520,2530 L 1520,2395 L 1420,2395 L 1420,2530 L 1420,3060 L 740,3060 L 740,2530 L 740,2395 L 640,2395 L 640,2530 L 640,3060 L 290,3060 L 290,3250 L 5770,3250 L 5770,3060 L 5160,3060 L 5160,2245 L 5160,2110 L 5060,2110 L 5060,2245 L 5060,3060 L 4900,3060 L 4900,2530 L 4900,2395 L 4800,2395 L 4800,2530 L 4800,3060 L 4380,3060 L 4380,2530 L 4380,2395 L 4280,2395 L 4280,2530 L 4280,3060 L 3860,3060 L 3860,2530 L 3860,2395 L 3760,2395 L 3760,2530 L 3760,3060 L 3600,3060 L 3600,2530 L 3600,2395 L 3500,2395 L 3500,2530 L 3500,3060 L 3080,3060 L 3080,2530 L 3080,2395 L 2980,2395 L 2980,2530 Z" /><path d="M 5680,2610 L 5680,2475 L 5680,2450 L 5680,2270 L 5680,2245 L 5680,2110 L 5580,2110 L 5580,2245 L 5580,2270 L 5580,2450 L 5580,2475 L 5580,2610 Z" /><path d="M 4800,760 L 4800,895 L 4800,920 L 4800,1100 L 4800,1125 L 4800,1260 L 4900,1260 L 4900,1125 L 4900,1100 L 4900,920 L 4900,895 L 4900,760 Z" /><path d="M 3500,760 L 3500,895 L 3500,920 L 3500,1100 L 3500,1125 L 3500,1260 L 3600,1260 L 3600,1125 L 3600,1100 L 3600,920 L 3600,895 L 3600,760 Z" /><path d="M 480,500 L 380,500 L 380,740 L 380,920 L 480,920 L 480,740 Z" /><path d="M 1000,500 L 900,500 L 900,740 L 900,920 L 1000,920 L 1000,740 Z" /><path d="M 1260,500 L 1160,500 L 1160,740 L 1160,920 L 1260,920 L 1260,740 Z" /><path d="M 1780,500 L 1680,500 L 1680,740 L 1680,920 L 1780,920 L 1780,740 Z" /><path d="M 2040,500 L 1940,500 L 1940,740 L 1940,920 L 2040,920 L 2040,740 Z" /><path d="M 1940,2390 L 1940,2570 L 1940,2810 L 2040,2810 L 2040,2570 L 2040,2390 Z" /><path d="M 1680,2390 L 1680,2570 L 1680,2810 L 1780,2810 L 1780,2570 L 1780,2390 Z" /><path d="M 1160,2390 L 1160,2570 L 1160,2810 L 1260,2810 L 1260,2570 L 1260,2390 Z" /><path d="M 900,2390 L 900,2570 L 900,2810 L 1000,2810 L 1000,2570 L 1000,2390 Z" /><path d="M 380,2390 L 380,2570 L 380,2810 L 480,2810 L 480,2570 L 480,2390 Z" /><path d="M 4120,2430 L 4120,2244 L 4540,2244 L 4540,2430 L 4540,2565 L 4640,2565 L 4640,2430 L 4640,2244 L 4760,2244 L 4760,2245 L 4940,2245 L 4940,2145 L 4850,2145 L 4760,2145 L 4640,2145 L 4540,2145 L 4120,2145 L 4020,2145 L 4020,2244 L 4020,2430 L 4020,2565 L 4120,2565 Z" /><path d="M 2820,2145 L 2720,2145 L 2720,2244 L 2720,2430 L 2720,2565 L 2820,2565 L 2820,2430 L 2820,2244 L 3240,2244 L 3240,2430 L 3240,2565 L 3340,2565 L 3340,2430 L 3340,2244 L 3460,2244 L 3460,2245 L 3640,2245 L 3640,2145 L 3550,2145 L 3460,2145 L 3340,2145 L 3240,2145 Z" /><path d="M 5420,500 L 5320,500 L 5320,740 L 5320,920 L 5420,920 L 5420,740 Z" /><path d="M 5220,1350 L 5220,1450 L 5280,1450 L 5415,1450 L 5460,1450 L 5585,1450 L 5640,1450 L 5640,1350 L 5585,1350 L 5460,1350 L 5415,1350 L 5280,1350 Z" /><path d="M 5155,1540 L 4940,1540 L 4850,1540 L 4760,1540 L 4760,1640 L 4850,1640 L 4940,1640 L 5155,1640 L 5240,1640 L 5325,1640 L 5325,1540 L 5240,1540 Z" /><path d="M 1910,1350 L 1910,1450 L 2035,1450 L 2205,1450 L 2330,1450 L 2330,1350 L 2205,1350 L 2035,1350 Z" /><path d="M 1390,1920 L 1390,2020 L 1515,2020 L 1685,2020 L 1810,2020 L 1810,1920 L 1685,1920 L 1515,1920 Z" /><path d="M 1130,1350 L 1130,1450 L 1255,1450 L 1425,1450 L 1550,1450 L 1550,1350 L 1425,1350 L 1255,1350 Z" /><path d="M 610,1920 L 610,2020 L 735,2020 L 905,2020 L 1030,2020 L 1030,1920 L 905,1920 L 735,1920 Z" /><path d="M 350,1350 L 350,1450 L 475,1450 L 645,1450 L 770,1450 L 770,1350 L 645,1350 L 475,1350 Z" /><path d="M 4440,1920 L 4440,2020 L 4500,2020 L 4635,2020 L 4680,2020 L 4805,2020 L 4860,2020 L 4860,1920 L 4805,1920 L 4680,1920 L 4635,1920 L 4500,1920 Z" /><path d="M 4250,1540 L 4250,1640 L 4375,1640 L 4545,1640 L 4670,1640 L 4670,1540 L 4545,1540 L 4375,1540 Z" /><path d="M 3925,1730 L 3925,1830 L 3980,1830 L 4115,1830 L 4160,1830 L 4285,1830 L 4345,1830 L 4345,1730 L 4285,1730 L 4160,1730 L 4115,1730 L 3980,1730 Z" /><path d="M 3660,1920 L 3660,2020 L 3720,2020 L 3855,2020 L 3900,2020 L 4025,2020 L 4080,2020 L 4080,1920 L 4025,1920 L 3900,1920 L 3855,1920 L 3720,1920 Z" /><path d="M 2815,1350 L 2815,1450 L 2985,1450 L 3235,1450 L 3235,1350 L 2985,1350 Z" /><path d="M 3335,1540 L 520,1540 L 430,1540 L 340,1540 L 340,1640 L 430,1640 L 520,1640 L 3335,1640 L 3420,1640 L 3505,1640 L 3505,1540 L 3420,1540 Z" /><path d="M 3075,1730 L 1040,1730 L 950,1730 L 860,1730 L 860,1830 L 950,1830 L 1040,1830 L 3075,1830 L 3160,1830 L 3245,1830 L 3245,1730 L 3160,1730 Z" /><path d="M 2430,1920 L 2430,2020 L 2555,2020 L 2725,2020 L 2850,2020 L 2850,1920 L 2725,1920 L 2555,1920 Z" /></g></g><g id="VIA1"><g class="l51d0"><path d="M 5580,2310 L 5680,2310 L 5680,2410 L 5580,2410 Z" /><path d="M 4800,960 L 4900,960 L 4900,1060 L 4800,1060 Z" /><path d="M 3500,960 L 3600,960 L 3600,1060 L 3500,1060 Z" /><path d="M 380,880 L 480,880 L 480,780 L 380,780 Z" /><path d="M 900,880 L 1000,880 L 1000,780 L 900,780 Z" /><path d="M 1160,880 L 1260,880 L 1260,780 L 1160,780 Z" /><path d="M 1680,880 L 1780,880 L 1780,780 L 1680,780 Z" /><path d="M 1940,880 L 2040,880 L 2040,780 L 1940,780 Z" /><path d="M 1940,2430 L 2040,2430 L 2040,2530 L 1940,2530 Z" /><path d="M 1680,2430 L 1780,2430 L 1780,2530 L 1680,2530 Z" /><path d="M 1160,2430 L 1260,2430 L 1260,2530 L 1160,2530 Z" /><path d="M 900,2430 L 1000,2430 L 1000,2530 L 900,2530 Z" /><path d="M 380,2430 L 480,2430 L 480,2530 L 380,2530 Z" /><path d="M 5320,1350 L 5420,1350 L 5420,1450 L 5320,1450 Z" /><path d="M 4800,1540 L 4900,1540 L 4900,1640 L 4800,1640 Z" /><path d="M 4540,1920 L 4640,1920 L 4640,2020 L 4540,2020 Z" /><path d="M 4020,1730 L 4120,1730 L 4120,1830 L 4020,1830 Z" /><path d="M 3760,1920 L 3860,1920 L 3860,2020 L 3760,2020 Z" /><path d="M 380,1540 L 480,1540 L 480,1640 L 380,1640 Z" /><path d="M 900,1730 L 1000,1730 L 1000,1830 L 900,1830 Z" /><path d="M 4800,2145 L 4900,2145 L 4900,2245 L 4800,2245 Z" /><path d="M 3500,2145 L 3600,2145 L 3600,2245 L 3500,2245 Z" /><path d="M 5320,780 L 5420,780 L 5420,880 L 5320,880 Z" /></g></g><g id="M2"><g class="l32d0"><path d="M 380,1680 L 380,2390 L 380,2480 L 380,2570 L 480,2570 L 480,2480 L 480,2390 L 480,1680 L 480,1590 L 480,1500 L 480,920 L 480,830 L 480,740 L 380,740 L 380,830 L 380,920 L 380,1500 L 380,1590 Z" /><path d="M 1000,830 L 1000,740 L 900,740 L 900,830 L 900,920 L 900,1690 L 900,1780 L 900,1870 L 900,2390 L 900,2480 L 900,2570 L 1000,2570 L 1000,2480 L 1000,2390 L 1000,1870 L 1000,1780 L 1000,1690 L 1000,920 Z" /><path d="M 4900,1100 L 4900,1010 L 4900,920 L 4800,920 L 4800,1010 L 4800,1100 L 4800,1500 L 4800,1590 L 4800,1680 L 4800,2105 L 4800,2195 L 4800,2285 L 4900,2285 L 4900,2195 L 4900,2105 L 4900,1680 L 4900,1590 L 4900,1500 Z" /><path d="M 5460,780 L 5370,780 L 5280,780 L 5280,880 L 5370,880 L 5460,880 L 5580,880 L 5580,2270 L 5580,2360 L 5580,2450 L 5680,2450 L 5680,2360 L 5680,2270 L 5680,880 L 5680,780 L 5580,780 Z" /><path d="M 5320,1240 L 5320,1310 L 5320,1490 L 5320,1495 L 5320,1675 L 5320,1760 L 5420,1760 L 5420,1675 L 5420,1495 L 5420,1490 L 5420,1310 L 5420,1240 Z" /><path d="M 3500,2195 L 3500,2285 L 3600,2285 L 3600,2195 L 3600,2105 L 3600,1675 L 3600,1495 L 3600,1100 L 3600,1010 L 3600,920 L 3500,920 L 3500,1010 L 3500,1100 L 3500,1495 L 3500,1675 L 3500,2105 Z" /><path d="M 1160,2275 L 1160,2390 L 1160,2480 L 1160,2570 L 1260,2570 L 1260,2480 L 1260,2390 L 1260,2275 L 1260,2185 L 1260,2095 L 1260,920 L 1260,830 L 1260,740 L 1160,740 L 1160,830 L 1160,920 L 1160,2095 L 1160,2185 Z" /><path d="M 4540,1815 L 4540,1880 L 4540,2060 L 4540,2095 L 4540,2275 L 4540,2335 L 4640,2335 L 4640,2275 L 4640,2095 L 4640,2060 L 4640,1880 L 4640,1815 Z" /><path d="M 1780,830 L 1780,740 L 1680,740 L 1680,830 L 1680,920 L 1680,1895 L 1680,1985 L 1680,2075 L 1680,2390 L 1680,2480 L 1680,2570 L 1780,2570 L 1780,2480 L 1780,2390 L 1780,2075 L 1780,1985 L 1780,1895 L 1780,920 Z" /><path d="M 4020,1625 L 4020,1690 L 4020,1870 L 4020,1895 L 4020,2075 L 4020,2145 L 4120,2145 L 4120,2075 L 4120,1895 L 4120,1870 L 4120,1690 L 4120,1625 Z" /><path d="M 1940,1875 L 1940,2390 L 1940,2480 L 1940,2570 L 2040,2570 L 2040,2480 L 2040,2390 L 2040,1875 L 2040,1785 L 2040,1695 L 2040,920 L 2040,830 L 2040,740 L 1940,740 L 1940,830 L 1940,920 L 1940,1695 L 1940,1785 Z" /><path d="M 3760,1625 L 3760,1695 L 3760,1875 L 3760,1880 L 3760,2060 L 3760,2145 L 3860,2145 L 3860,2060 L 3860,1880 L 3860,1875 L 3860,1695 L 3860,1625 Z" /></g></g><g id="VIA2"><g class="l52d0"><path d="M 5320,1535 L 5420,1535 L 5420,1635 L 5320,1635 Z" /><path d="M 3500,1535 L 3600,1535 L 3600,1635 L 3500,1635 Z" /><path d="M 1160,2135 L 1260,2135 L 1260,2235 L 1160,2235 Z" /><path d="M 4540,2135 L 4640,2135 L 4640,2235 L 4540,2235 Z" /><path d="M 1680,1935 L 1780,1935 L 1780,2035 L 1680,2035 Z" /><path d="M 4020,1935 L 4120,1935 L 4120,2035 L 4020,2035 Z" /><path d="M 1940,1735 L 2040,1735 L 2040,1835 L 1940,1835 Z" /><path d="M 3760,1735 L 3860,1735 L 3860,1835 L 3760,1835 Z" /></g></g><g id="M3"><g class="l33d0"><path d="M 3640,1635 L 5280,1635 L 5370,1635 L 5460,1635 L 5460,1535 L 5370,1535 L 5280,1535 L 3640,1535 L 3550,1535 L 3460,1535 L 3460,1635 L 3550,1635 Z" /><path d="M 4500,2135 L 1300,2135 L 1210,2135 L 1120,2135 L 1120,2235 L 1210,2235 L 1300,2235 L 4500,2235 L 4590,2235 L 4680,2235 L 4680,2135 L 4590,2135 Z" /><path d="M 3980,1935 L 1820,1935 L 1730,1935 L 1640,1935 L 1640,2035 L 1730,2035 L 1820,2035 L 3980,2035 L 4070,2035 L 4160,2035 L 4160,1935 L 4070,1935 Z" /><path d="M 3720,1735 L 2080,1735 L 1990,1735 L 1900,1735 L 1900,1835 L 1990,1835 L 2080,1835 L 3720,1835 L 3810,1835 L 3900,1835 L 3900,1735 L 3810,1735 Z" /></g></g></g></svg>