<svg width="3730" height="3550" viewBox="-5 -3545 3730 3550" xmlns="http://www.w3.org/2000/svg" xmlns:xlink="http://www.w3.org/1999/xlink"><defs><style type="text/css">.l3d0 {fill: #fef9e7; fill-opacity: 0.5; stroke-width: 10; stroke: #f1c40f; stroke-linecap: round; stroke-linejoin: round; stroke-opacity: 0.2;}.l25d0 {fill: #8e44ad; fill-opacity: 0.05; stroke-width: 10; stroke: #8e44ad; stroke-linecap: round; stroke-linejoin: round; stroke-opacity: 1;}.l26d0 {fill: #ccd1d1; fill-opacity: 0.05; stroke-width: 10; stroke: #ccd1d1; stroke-linecap: round; stroke-linejoin: round; stroke-opacity: 1;}.l6d0 {fill: #f5b7b1; fill-opacity: 1; stroke-width: 10; stroke: #e74c3c; stroke-linecap: round; stroke-linejoin: round; stroke-opacity: 1;}.l17d0 {fill: #2980b9; fill-opacity: 1; stroke-width: 0; stroke: #000000; stroke-linecap: round; stroke-linejoin: round; stroke-opacity: 0;}.l30d0 {fill: #27ae60; fill-opacity: 1; stroke-width: 0; stroke: #000000; stroke-linecap: round; stroke-linejoin: round; stroke-opacity: 0;}.l31d0 {fill: #85c1e9; fill-opacity: 0.6; stroke-width: 0; stroke: #000000; stroke-linecap: round; stroke-linejoin: round; stroke-opacity: 0;}.l51d0 {fill: #f39c12; fill-opacity: 1; stroke-width: 10; stroke: #f39c12; stroke-linecap: round; stroke-linejoin: round; stroke-opacity: 1;}.l32d0 {fill: #f7dc6f; fill-opacity: 0.6; stroke-width: 0; stroke: #000000; stroke-linecap: round; stroke-linejoin: round; stroke-opacity: 0;}path {fill-rule: evenodd;}</style></defs><g transform="scale(1 -1)"><g id="NW"><g class="l3d0"><path d="M 0,3540 L 3720,3540 L 3720,1900 L 0,1900 Z" /></g></g><g id="PP"><g class="l25d0"><path d="M 170,0 L 3550,0 L 3550,430 L 170,430 Z" /><path d="M 170,2940 L 325,2940 L 585,2940 L 795,2940 L 1055,2940 L 1105,2940 L 1365,2940 L 1575,2940 L 1835,2940 L 1885,2940 L 2145,2940 L 2355,2940 L 2615,2940 L 2665,2940 L 2925,2940 L 3135,2940 L 3395,2940 L 3550,2940 L 3550,1685 L 170,1685 Z" /></g></g><g id="NP"><g class="l26d0"><path d="M 170,2940 L 3550,2940 L 3550,3370 L 170,3370 Z" /><path d="M 3550,430 L 3395,430 L 3135,430 L 2925,430 L 2665,430 L 2615,430 L 2355,430 L 2145,430 L 1885,430 L 1835,430 L 1575,430 L 1365,430 L 1105,430 L 1055,430 L 795,430 L 585,430 L 325,430 L 170,430 L 170,1685 L 3550,1685 Z" /></g></g><g id="OD"><g class="l6d0"><path d="M 300,3070 L 3420,3070 L 3420,3240 L 300,3240 Z" /><path d="M 300,130 L 3420,130 L 3420,300 L 300,300 Z" /><path d="M 3055,2600 L 3130,2600 L 3190,2600 L 3265,2600 L 3350,2600 L 3350,2360 L 3265,2360 L 3190,2360 L 3130,2360 L 3055,2360 L 3005,2360 L 2930,2360 L 2870,2360 L 2795,2360 L 2710,2360 L 2710,2600 L 2795,2600 L 2870,2600 L 2930,2600 L 3005,2600 Z" /><path d="M 2275,2600 L 2350,2600 L 2410,2600 L 2485,2600 L 2570,2600 L 2570,2360 L 2485,2360 L 2410,2360 L 2350,2360 L 2275,2360 L 2225,2360 L 2150,2360 L 2090,2360 L 2015,2360 L 1930,2360 L 1930,2600 L 2015,2600 L 2090,2600 L 2150,2600 L 2225,2600 Z" /><path d="M 1495,2600 L 1570,2600 L 1630,2600 L 1705,2600 L 1790,2600 L 1790,2360 L 1705,2360 L 1630,2360 L 1570,2360 L 1495,2360 L 1445,2360 L 1370,2360 L 1310,2360 L 1235,2360 L 1150,2360 L 1150,2600 L 1235,2600 L 1310,2600 L 1370,2600 L 1445,2600 Z" /><path d="M 715,2600 L 790,2600 L 850,2600 L 925,2600 L 1010,2600 L 1010,2360 L 925,2360 L 850,2360 L 790,2360 L 715,2360 L 665,2360 L 590,2360 L 530,2360 L 455,2360 L 370,2360 L 370,2600 L 455,2600 L 530,2600 L 590,2600 L 665,2600 Z" /><path d="M 3055,890 L 3130,890 L 3190,890 L 3265,890 L 3365,890 L 3365,770 L 3265,770 L 3190,770 L 3130,770 L 3055,770 L 3005,770 L 2930,770 L 2870,770 L 2795,770 L 2695,770 L 2695,890 L 2795,890 L 2870,890 L 2930,890 L 3005,890 Z" /><path d="M 2275,890 L 2350,890 L 2410,890 L 2485,890 L 2585,890 L 2585,770 L 2485,770 L 2410,770 L 2350,770 L 2275,770 L 2225,770 L 2150,770 L 2090,770 L 2015,770 L 1915,770 L 1915,890 L 2015,890 L 2090,890 L 2150,890 L 2225,890 Z" /><path d="M 1495,890 L 1570,890 L 1630,890 L 1705,890 L 1805,890 L 1805,770 L 1705,770 L 1630,770 L 1570,770 L 1495,770 L 1445,770 L 1370,770 L 1310,770 L 1235,770 L 1135,770 L 1135,890 L 1235,890 L 1310,890 L 1370,890 L 1445,890 Z" /><path d="M 715,890 L 790,890 L 850,890 L 925,890 L 1025,890 L 1025,770 L 925,770 L 850,770 L 790,770 L 715,770 L 665,770 L 590,770 L 530,770 L 455,770 L 355,770 L 355,890 L 455,890 L 530,890 L 590,890 L 665,890 Z" /></g></g><g id="PO"><g class="l17d0"><path d="M 2870,2360 L 2870,2600 L 2870,2740 L 2930,2740 L 2930,2600 L 2930,2360 L 2930,2220 L 2929,2220 L 2929,2055 L 2955,2055 L 2955,1885 L 2929,1885 L 2929,1030 L 2930,1030 L 2930,890 L 2930,770 L 2930,630 L 2870,630 L 2870,770 L 2870,890 L 2870,1030 L 2870,1885 L 2845,1885 L 2845,2055 L 2870,2055 L 2870,2220 Z" /><path d="M 3130,2360 L 3130,2600 L 3130,2740 L 3190,2740 L 3190,2600 L 3190,2360 L 3190,2220 L 3190,1485 L 3215,1485 L 3215,1315 L 3190,1315 L 3190,1030 L 3190,890 L 3190,770 L 3190,630 L 3130,630 L 3130,770 L 3130,890 L 3130,1030 L 3130,1315 L 3105,1315 L 3105,1485 L 3130,1485 L 3130,2220 Z" /><path d="M 2090,2360 L 2090,2600 L 2090,2740 L 2150,2740 L 2150,2600 L 2150,2360 L 2150,2220 L 2150,2055 L 2175,2055 L 2175,1885 L 2150,1885 L 2150,1030 L 2150,890 L 2150,770 L 2150,630 L 2090,630 L 2090,770 L 2090,890 L 2090,1030 L 2090,1885 L 2065,1885 L 2065,2055 L 2090,2055 L 2090,2220 Z" /><path d="M 2350,2360 L 2350,2600 L 2350,2740 L 2410,2740 L 2410,2600 L 2410,2360 L 2410,2220 L 2409,2220 L 2409,1485 L 2435,1485 L 2435,1315 L 2409,1315 L 2409,1030 L 2410,1030 L 2410,890 L 2410,770 L 2410,630 L 2350,630 L 2350,770 L 2350,890 L 2350,1030 L 2350,1315 L 2325,1315 L 2325,1485 L 2350,1485 L 2350,2220 Z" /><path d="M 1310,2360 L 1310,2600 L 1310,2740 L 1370,2740 L 1370,2600 L 1370,2360 L 1370,2220 L 1370,2055 L 1395,2055 L 1395,1885 L 1370,1885 L 1370,1030 L 1370,890 L 1370,770 L 1370,630 L 1310,630 L 1310,770 L 1310,890 L 1310,1030 L 1310,1885 L 1285,1885 L 1285,2055 L 1310,2055 L 1310,2220 Z" /><path d="M 1570,2360 L 1570,2600 L 1570,2740 L 1630,2740 L 1630,2600 L 1630,2360 L 1630,2220 L 1630,1485 L 1655,1485 L 1655,1315 L 1630,1315 L 1630,1030 L 1630,890 L 1630,770 L 1630,630 L 1570,630 L 1570,770 L 1570,890 L 1570,1030 L 1570,1315 L 1545,1315 L 1545,1485 L 1570,1485 L 1570,2220 Z" /><path d="M 790,2360 L 790,2600 L 790,2740 L 850,2740 L 850,2600 L 850,2360 L 850,2220 L 850,1485 L 875,1485 L 875,1315 L 850,1315 L 850,1030 L 850,890 L 850,770 L 850,630 L 790,630 L 790,770 L 790,890 L 790,1030 L 790,1315 L 765,1315 L 765,1485 L 790,1485 L 790,2220 Z" /><path d="M 530,2360 L 530,2600 L 530,2740 L 590,2740 L 590,2600 L 590,2360 L 590,2220 L 590,2055 L 615,2055 L 615,1885 L 590,1885 L 590,1030 L 590,890 L 590,770 L 590,630 L 530,630 L 530,770 L 530,890 L 530,1030 L 530,1885 L 505,1885 L 505,2055 L 530,2055 L 530,2220 Z" /></g></g><g id="CO"><g class="l30d0"><path d="M 385,3110 L 475,3110 L 475,3200 L 385,3200 Z" /><path d="M 645,3110 L 735,3110 L 735,3200 L 645,3200 Z" /><path d="M 905,3110 L 995,3110 L 995,3200 L 905,3200 Z" /><path d="M 1165,3110 L 1255,3110 L 1255,3200 L 1165,3200 Z" /><path d="M 1425,3110 L 1515,3110 L 1515,3200 L 1425,3200 Z" /><path d="M 1685,3110 L 1775,3110 L 1775,3200 L 1685,3200 Z" /><path d="M 1945,3110 L 2035,3110 L 2035,3200 L 1945,3200 Z" /><path d="M 2205,3110 L 2295,3110 L 2295,3200 L 2205,3200 Z" /><path d="M 2465,3110 L 2555,3110 L 2555,3200 L 2465,3200 Z" /><path d="M 2725,3110 L 2815,3110 L 2815,3200 L 2725,3200 Z" /><path d="M 2985,3110 L 3075,3110 L 3075,3200 L 2985,3200 Z" /><path d="M 3245,3110 L 3335,3110 L 3335,3200 L 3245,3200 Z" /><path d="M 385,170 L 475,170 L 475,260 L 385,260 Z" /><path d="M 645,170 L 735,170 L 735,260 L 645,260 Z" /><path d="M 905,170 L 995,170 L 995,260 L 905,260 Z" /><path d="M 1165,170 L 1255,170 L 1255,260 L 1165,260 Z" /><path d="M 1425,170 L 1515,170 L 1515,260 L 1425,260 Z" /><path d="M 1685,170 L 1775,170 L 1775,260 L 1685,260 Z" /><path d="M 1945,170 L 2035,170 L 2035,260 L 1945,260 Z" /><path d="M 2205,170 L 2295,170 L 2295,260 L 2205,260 Z" /><path d="M 2465,170 L 2555,170 L 2555,260 L 2465,260 Z" /><path d="M 2725,170 L 2815,170 L 2815,260 L 2725,260 Z" /><path d="M 2985,170 L 3075,170 L 3075,260 L 2985,260 Z" /><path d="M 3245,170 L 3335,170 L 3335,260 L 3245,260 Z" /><path d="M 905,785 L 995,785 L 995,875 L 905,875 Z" /><path d="M 385,785 L 475,785 L 475,875 L 385,875 Z" /><path d="M 645,785 L 735,785 L 735,875 L 645,875 Z" /><path d="M 1685,785 L 1775,785 L 1775,875 L 1685,875 Z" /><path d="M 1165,785 L 1255,785 L 1255,875 L 1165,875 Z" /><path d="M 1425,785 L 1515,785 L 1515,875 L 1425,875 Z" /><path d="M 2465,785 L 2555,785 L 2555,875 L 2465,875 Z" /><path d="M 1945,785 L 2035,785 L 2035,875 L 1945,875 Z" /><path d="M 2205,785 L 2295,785 L 2295,875 L 2205,875 Z" /><path d="M 3245,785 L 3335,785 L 3335,875 L 3245,875 Z" /><path d="M 2725,785 L 2815,785 L 2815,875 L 2725,875 Z" /><path d="M 2985,785 L 3075,785 L 3075,875 L 2985,875 Z" /><path d="M 3245,2435 L 3335,2435 L 3335,2525 L 3245,2525 Z" /><path d="M 2725,2435 L 2815,2435 L 2815,2525 L 2725,2525 Z" /><path d="M 2985,2435 L 3075,2435 L 3075,2525 L 2985,2525 Z" /><path d="M 2465,2435 L 2555,2435 L 2555,2525 L 2465,2525 Z" /><path d="M 1945,2435 L 2035,2435 L 2035,2525 L 1945,2525 Z" /><path d="M 2205,2435 L 2295,2435 L 2295,2525 L 2205,2525 Z" /><path d="M 1685,2435 L 1775,2435 L 1775,2525 L 1685,2525 Z" /><path d="M 1165,2435 L 1255,2435 L 1255,2525 L 1165,2525 Z" /><path d="M 1425,2435 L 1515,2435 L 1515,2525 L 1425,2525 Z" /><path d="M 905,2435 L 995,2435 L 995,2525 L 905,2525 Z" /><path d="M 385,2435 L 475,2435 L 475,2525 L 385,2525 Z" /><path d="M 645,2435 L 735,2435 L 735,2525 L 645,2525 Z" /><path d="M 2855,1925 L 2945,1925 L 2945,2015 L 2855,2015 Z" /><path d="M 3115,1355 L 3205,1355 L 3205,1445 L 3115,1445 Z" /><path d="M 2075,1925 L 2165,1925 L 2165,2015 L 2075,2015 Z" /><path d="M 2335,1355 L 2425,1355 L 2425,1445 L 2335,1445 Z" /><path d="M 1295,1925 L 1385,1925 L 1385,2015 L 1295,2015 Z" /><path d="M 1555,1355 L 1645,1355 L 1645,1445 L 1555,1445 Z" /><path d="M 775,1355 L 865,1355 L 865,1445 L 775,1445 Z" /><path d="M 515,1925 L 605,1925 L 605,2015 L 515,2015 Z" /></g></g><g id="M1"><g class="l31d0"><path d="M 290,310 L 640,310 L 640,745 L 640,915 L 740,915 L 740,745 L 740,310 L 1420,310 L 1420,745 L 1420,915 L 1520,915 L 1520,745 L 1520,310 L 2200,310 L 2200,745 L 2200,915 L 2300,915 L 2300,745 L 2300,310 L 2980,310 L 2980,745 L 2980,915 L 3080,915 L 3080,745 L 3080,310 L 3430,310 L 3430,120 L 290,120 Z" /><path d="M 3430,3060 L 3080,3060 L 3080,2565 L 3080,2395 L 2980,2395 L 2980,2565 L 2980,3060 L 2300,3060 L 2300,2565 L 2300,2395 L 2200,2395 L 2200,2565 L 2200,3060 L 1520,3060 L 1520,2565 L 1520,2395 L 1420,2395 L 1420,2565 L 1420,3060 L 740,3060 L 740,2565 L 740,2395 L 640,2395 L 640,2565 L 640,3060 L 290,3060 L 290,3250 L 3430,3250 Z" /><path d="M 380,500 L 380,740 L 380,745 L 380,915 L 380,920 L 480,920 L 480,915 L 480,745 L 480,740 L 480,500 Z" /><path d="M 2720,500 L 2720,740 L 2720,745 L 2720,915 L 2720,920 L 2820,920 L 2820,915 L 2820,745 L 2820,740 L 2820,500 Z" /><path d="M 3240,500 L 3240,740 L 3240,745 L 3240,915 L 3240,920 L 3340,920 L 3340,915 L 3340,745 L 3340,740 L 3340,500 Z" /><path d="M 1940,500 L 1940,740 L 1940,745 L 1940,915 L 1940,920 L 2040,920 L 2040,915 L 2040,745 L 2040,740 L 2040,500 Z" /><path d="M 2460,500 L 2460,740 L 2460,745 L 2460,915 L 2460,920 L 2560,920 L 2560,915 L 2560,745 L 2560,740 L 2560,500 Z" /><path d="M 1160,500 L 1160,740 L 1160,745 L 1160,915 L 1160,920 L 1260,920 L 1260,915 L 1260,745 L 1260,740 L 1260,500 Z" /><path d="M 1680,500 L 1680,740 L 1680,745 L 1680,915 L 1680,920 L 1780,920 L 1780,915 L 1780,745 L 1780,740 L 1780,500 Z" /><path d="M 900,500 L 900,740 L 900,745 L 900,915 L 900,920 L 1000,920 L 1000,915 L 1000,745 L 1000,740 L 1000,500 Z" /><path d="M 2720,2390 L 2720,2395 L 2720,2565 L 2720,2570 L 2720,2810 L 2820,2810 L 2820,2570 L 2820,2565 L 2820,2395 L 2820,2390 Z" /><path d="M 3240,2390 L 3240,2395 L 3240,2565 L 3240,2570 L 3240,2810 L 3340,2810 L 3340,2570 L 3340,2565 L 3340,2395 L 3340,2390 Z" /><path d="M 1940,2390 L 1940,2395 L 1940,2565 L 1940,2570 L 1940,2810 L 2040,2810 L 2040,2570 L 2040,2565 L 2040,2395 L 2040,2390 Z" /><path d="M 2460,2390 L 2460,2395 L 2460,2565 L 2460,2570 L 2460,2810 L 2560,2810 L 2560,2570 L 2560,2565 L 2560,2395 L 2560,2390 Z" /><path d="M 1160,2390 L 1160,2395 L 1160,2565 L 1160,2570 L 1160,2810 L 1260,2810 L 1260,2570 L 1260,2565 L 1260,2395 L 1260,2390 Z" /><path d="M 1680,2390 L 1680,2395 L 1680,2565 L 1680,2570 L 1680,2810 L 1780,2810 L 1780,2570 L 1780,2565 L 1780,2395 L 1780,2390 Z" /><path d="M 900,2390 L 900,2395 L 900,2565 L 900,2570 L 900,2810 L 1000,2810 L 1000,2570 L 1000,2565 L 1000,2395 L 1000,2390 Z" /><path d="M 380,2390 L 380,2395 L 380,2565 L 380,2570 L 380,2810 L 480,2810 L 480,2570 L 480,2565 L 480,2395 L 480,2390 Z" /><path d="M 2690,1920 L 2690,2020 L 2815,2020 L 2985,2020 L 3110,2020 L 3110,1920 L 2985,1920 L 2815,1920 Z" /><path d="M 2950,1350 L 2950,1450 L 3075,1450 L 3245,1450 L 3370,1450 L 3370,1350 L 3245,1350 L 3075,1350 Z" /><path d="M 1910,1920 L 1910,2020 L 2035,2020 L 2205,2020 L 2330,2020 L 2330,1920 L 2205,1920 L 2035,1920 Z" /><path d="M 2170,1350 L 2170,1450 L 2295,1450 L 2465,1450 L 2590,1450 L 2590,1350 L 2465,1350 L 2295,1350 Z" /><path d="M 1130,1920 L 1130,2020 L 1255,2020 L 1425,2020 L 1550,2020 L 1550,1920 L 1425,1920 L 1255,1920 Z" /><path d="M 1390,1350 L 1390,1450 L 1515,1450 L 1685,1450 L 1810,1450 L 1810,1350 L 1685,1350 L 1515,1350 Z" /><path d="M 610,1350 L 610,1450 L 735,1450 L 905,1450 L 1030,1450 L 1030,1350 L 905,1350 L 735,1350 Z" /><path d="M 350,1920 L 350,2020 L 475,2020 L 645,2020 L 770,2020 L 770,1920 L 645,1920 L 475,1920 Z" /></g></g><g id="VIA1"><g class="l51d0"><path d="M 380,780 L 480,780 L 480,880 L 380,880 Z" /><path d="M 2720,780 L 2820,780 L 2820,880 L 2720,880 Z" /><path d="M 3240,780 L 3340,780 L 3340,880 L 3240,880 Z" /><path d="M 1940,780 L 2040,780 L 2040,880 L 1940,880 Z" /><path d="M 2460,780 L 2560,780 L 2560,880 L 2460,880 Z" /><path d="M 1160,780 L 1260,780 L 1260,880 L 1160,880 Z" /><path d="M 1680,780 L 1780,780 L 1780,880 L 1680,880 Z" /><path d="M 900,780 L 1000,780 L 1000,880 L 900,880 Z" /><path d="M 2720,2430 L 2820,2430 L 2820,2530 L 2720,2530 Z" /><path d="M 3240,2430 L 3340,2430 L 3340,2530 L 3240,2530 Z" /><path d="M 1940,2430 L 2040,2430 L 2040,2530 L 1940,2530 Z" /><path d="M 2460,2430 L 2560,2430 L 2560,2530 L 2460,2530 Z" /><path d="M 1160,2430 L 1260,2430 L 1260,2530 L 1160,2530 Z" /><path d="M 1680,2430 L 1780,2430 L 1780,2530 L 1680,2530 Z" /><path d="M 900,2430 L 1000,2430 L 1000,2530 L 900,2530 Z" /><path d="M 380,2430 L 480,2430 L 480,2530 L 380,2530 Z" /></g></g><g id="M2"><g class="l32d0"><path d="M 2820,2390 L 2820,920 L 2820,830 L 2820,740 L 2720,740 L 2720,830 L 2720,920 L 2720,2390 L 2720,2480 L 2720,2570 L 2820,2570 L 2820,2480 Z" /><path d="M 3240,2390 L 3240,2480 L 3240,2570 L 3340,2570 L 3340,2480 L 3340,2390 L 3340,920 L 3340,830 L 3340,740 L 3240,740 L 3240,830 L 3240,920 Z" /><path d="M 2040,2390 L 2040,920 L 2040,830 L 2040,740 L 1940,740 L 1940,830 L 1940,920 L 1940,2390 L 1940,2480 L 1940,2570 L 2040,2570 L 2040,2480 Z" /><path d="M 2460,2390 L 2460,2480 L 2460,2570 L 2560,2570 L 2560,2480 L 2560,2390 L 2560,920 L 2560,830 L 2560,740 L 2460,740 L 2460,830 L 2460,920 Z" /><path d="M 1260,2390 L 1260,920 L 1260,830 L 1260,740 L 1160,740 L 1160,830 L 1160,920 L 1160,2390 L 1160,2480 L 1160,2570 L 1260,2570 L 1260,2480 Z" /><path d="M 1680,2390 L 1680,2480 L 1680,2570 L 1780,2570 L 1780,2480 L 1780,2390 L 1780,920 L 1780,830 L 1780,740 L 1680,740 L 1680,830 L 1680,920 Z" /><path d="M 900,2390 L 900,2480 L 900,2570 L 1000,2570 L 1000,2480 L 1000,2390 L 1000,920 L 1000,830 L 1000,740 L 900,740 L 900,830 L 900,920 Z" /><path d="M 480,2390 L 480,920 L 480,830 L 480,740 L 380,740 L 380,830 L 380,920 L 380,2390 L 380,2480 L 380,2570 L 480,2570 L 480,2480 Z" /></g></g></g></svg>