<svg width="2950" height="9430" viewBox="-5 -9425 2950 9430" xmlns="http://www.w3.org/2000/svg" xmlns:xlink="http://www.w3.org/1999/xlink"><defs><style type="text/css">.l3d0 {fill: #fef9e7; fill-opacity: 0.5; stroke-width: 10; stroke: #f1c40f; stroke-linecap: round; stroke-linejoin: round; stroke-opacity: 0.2;}.l25d0 {fill: #8e44ad; fill-opacity: 0.05; stroke-width: 10; stroke: #8e44ad; stroke-linecap: round; stroke-linejoin: round; stroke-opacity: 1;}.l26d0 {fill: #ccd1d1; fill-opacity: 0.05; stroke-width: 10; stroke: #ccd1d1; stroke-linecap: round; stroke-linejoin: round; stroke-opacity: 1;}.l6d0 {fill: #f5b7b1; fill-opacity: 1; stroke-width: 10; stroke: #e74c3c; stroke-linecap: round; stroke-linejoin: round; stroke-opacity: 1;}.l17d0 {fill: #2980b9; fill-opacity: 1; stroke-width: 0; stroke: #000000; stroke-linecap: round; stroke-linejoin: round; stroke-opacity: 0;}.l30d0 {fill: #27ae60; fill-opacity: 1; stroke-width: 0; stroke: #000000; stroke-linecap: round; stroke-linejoin: round; stroke-opacity: 0;}.l31d0 {fill: #85c1e9; fill-opacity: 0.6; stroke-width: 0; stroke: #000000; stroke-linecap: round; stroke-linejoin: round; stroke-opacity: 0;}.l51d0 {fill: #f39c12; fill-opacity: 1; stroke-width: 10; stroke: #f39c12; stroke-linecap: round; stroke-linejoin: round; stroke-opacity: 1;}.l32d0 {fill: #f7dc6f; fill-opacity: 0.6; stroke-width: 0; stroke: #000000; stroke-linecap: round; stroke-linejoin: round; stroke-opacity: 0;}.l52d0 {fill: #a04000; fill-opacity: 1; stroke-width: 10; stroke: #a04000; stroke-linecap: round; stroke-linejoin: round; stroke-opacity: 1;}.l33d0 {fill: #16a085; fill-opacity: 0.6; stroke-width: 0; stroke: #000000; stroke-linecap: round; stroke-linejoin: round; stroke-opacity: 0;}.l53d0 {fill: #8e44ad; fill-opacity: 1; stroke-width: 10; stroke: #8e44ad; stroke-linecap: round; stroke-linejoin: round; stroke-opacity: 1;}.l34d0 {fill: #d2b4de; fill-opacity: 0.6; stroke-width: 0; stroke: #000000; stroke-linecap: round; stroke-linejoin: round; stroke-opacity: 0;}path {fill-rule: evenodd;}</style></defs><g transform="scale(1 -1)"><g id="NW"><g class="l3d0"><path d="M 0,9420 L 2940,9420 L 2940,7780 L 0,7780 Z" /><path d="M 0,1900 L 0,2770 L 0,3540 L 0,4410 L 2940,4410 L 2940,3540 L 2940,2770 L 2940,1900 Z" /></g></g><g id="PP"><g class="l25d0"><path d="M 170,5880 L 2770,5880 L 2770,6310 L 170,6310 Z" /><path d="M 170,0 L 2770,0 L 2770,430 L 170,430 Z" /><path d="M 2770,4625 L 2770,3370 L 2615,3370 L 2355,3370 L 2145,3370 L 1885,3370 L 1835,3370 L 1575,3370 L 1365,3370 L 1105,3370 L 1055,3370 L 795,3370 L 585,3370 L 325,3370 L 170,3370 L 170,4625 Z" /><path d="M 170,7565 L 170,8820 L 325,8820 L 585,8820 L 795,8820 L 1055,8820 L 1105,8820 L 1365,8820 L 1575,8820 L 1835,8820 L 1885,8820 L 2145,8820 L 2355,8820 L 2615,8820 L 2770,8820 L 2770,7565 Z" /><path d="M 170,1685 L 170,2940 L 325,2940 L 585,2940 L 795,2940 L 1055,2940 L 1105,2940 L 1365,2940 L 1575,2940 L 1835,2940 L 1885,2940 L 2145,2940 L 2355,2940 L 2615,2940 L 2770,2940 L 2770,1685 Z" /></g></g><g id="NP"><g class="l26d0"><path d="M 170,8820 L 2770,8820 L 2770,9250 L 170,9250 Z" /><path d="M 170,2940 L 2770,2940 L 2770,3370 L 170,3370 Z" /><path d="M 170,4625 L 170,5880 L 325,5880 L 585,5880 L 795,5880 L 1055,5880 L 1105,5880 L 1365,5880 L 1575,5880 L 1835,5880 L 1885,5880 L 2145,5880 L 2355,5880 L 2615,5880 L 2770,5880 L 2770,4625 Z" /><path d="M 2770,7565 L 2770,6310 L 2615,6310 L 2355,6310 L 2145,6310 L 1885,6310 L 1835,6310 L 1575,6310 L 1365,6310 L 1105,6310 L 1055,6310 L 795,6310 L 585,6310 L 325,6310 L 170,6310 L 170,7565 Z" /><path d="M 2770,1685 L 2770,430 L 2615,430 L 2355,430 L 2145,430 L 1885,430 L 1835,430 L 1575,430 L 1365,430 L 1105,430 L 1055,430 L 795,430 L 585,430 L 325,430 L 170,430 L 170,1685 Z" /></g></g><g id="OD"><g class="l6d0"><path d="M 300,6010 L 2640,6010 L 2640,6180 L 300,6180 Z" /><path d="M 300,8950 L 2640,8950 L 2640,9120 L 300,9120 Z" /><path d="M 300,3070 L 2640,3070 L 2640,3240 L 300,3240 Z" /><path d="M 300,130 L 2640,130 L 2640,300 L 300,300 Z" /><path d="M 355,5540 L 455,5540 L 530,5540 L 590,5540 L 665,5540 L 715,5540 L 790,5540 L 850,5540 L 925,5540 L 1025,5540 L 1025,5420 L 925,5420 L 850,5420 L 790,5420 L 715,5420 L 665,5420 L 590,5420 L 530,5420 L 455,5420 L 355,5420 Z" /><path d="M 355,6770 L 455,6770 L 530,6770 L 590,6770 L 665,6770 L 715,6770 L 790,6770 L 850,6770 L 925,6770 L 1025,6770 L 1025,6650 L 925,6650 L 850,6650 L 790,6650 L 715,6650 L 665,6650 L 590,6650 L 530,6650 L 455,6650 L 355,6650 Z" /><path d="M 1135,5540 L 1235,5540 L 1310,5540 L 1370,5540 L 1445,5540 L 1495,5540 L 1570,5540 L 1630,5540 L 1705,5540 L 1805,5540 L 1805,5420 L 1705,5420 L 1630,5420 L 1570,5420 L 1495,5420 L 1445,5420 L 1370,5420 L 1310,5420 L 1235,5420 L 1135,5420 Z" /><path d="M 1135,6770 L 1235,6770 L 1310,6770 L 1370,6770 L 1445,6770 L 1495,6770 L 1570,6770 L 1630,6770 L 1705,6770 L 1805,6770 L 1805,6650 L 1705,6650 L 1630,6650 L 1570,6650 L 1495,6650 L 1445,6650 L 1370,6650 L 1310,6650 L 1235,6650 L 1135,6650 Z" /><path d="M 1915,5540 L 2015,5540 L 2090,5540 L 2150,5540 L 2225,5540 L 2275,5540 L 2350,5540 L 2410,5540 L 2485,5540 L 2585,5540 L 2585,5420 L 2485,5420 L 2410,5420 L 2350,5420 L 2275,5420 L 2225,5420 L 2150,5420 L 2090,5420 L 2015,5420 L 1915,5420 Z" /><path d="M 1915,6770 L 2015,6770 L 2090,6770 L 2150,6770 L 2225,6770 L 2275,6770 L 2350,6770 L 2410,6770 L 2485,6770 L 2585,6770 L 2585,6650 L 2485,6650 L 2410,6650 L 2350,6650 L 2275,6650 L 2225,6650 L 2150,6650 L 2090,6650 L 2015,6650 L 1915,6650 Z" /><path d="M 665,770 L 590,770 L 530,770 L 455,770 L 355,770 L 355,890 L 455,890 L 530,890 L 590,890 L 665,890 L 715,890 L 790,890 L 850,890 L 925,890 L 1025,890 L 1025,770 L 925,770 L 850,770 L 790,770 L 715,770 Z" /><path d="M 1135,890 L 1235,890 L 1310,890 L 1370,890 L 1445,890 L 1495,890 L 1570,890 L 1630,890 L 1705,890 L 1805,890 L 1805,770 L 1705,770 L 1630,770 L 1570,770 L 1495,770 L 1445,770 L 1370,770 L 1310,770 L 1235,770 L 1135,770 Z" /><path d="M 1915,890 L 2015,890 L 2090,890 L 2150,890 L 2225,890 L 2275,890 L 2350,890 L 2410,890 L 2485,890 L 2585,890 L 2585,770 L 2485,770 L 2410,770 L 2350,770 L 2275,770 L 2225,770 L 2150,770 L 2090,770 L 2015,770 L 1915,770 Z" /><path d="M 355,3830 L 455,3830 L 530,3830 L 590,3830 L 665,3830 L 715,3830 L 790,3830 L 850,3830 L 925,3830 L 1025,3830 L 1025,3710 L 925,3710 L 850,3710 L 790,3710 L 715,3710 L 665,3710 L 590,3710 L 530,3710 L 455,3710 L 355,3710 Z" /><path d="M 1135,3830 L 1235,3830 L 1310,3830 L 1370,3830 L 1445,3830 L 1495,3830 L 1570,3830 L 1630,3830 L 1705,3830 L 1805,3830 L 1805,3710 L 1705,3710 L 1630,3710 L 1570,3710 L 1495,3710 L 1445,3710 L 1370,3710 L 1310,3710 L 1235,3710 L 1135,3710 Z" /><path d="M 1915,3830 L 2015,3830 L 2090,3830 L 2150,3830 L 2225,3830 L 2275,3830 L 2350,3830 L 2410,3830 L 2485,3830 L 2585,3830 L 2585,3710 L 2485,3710 L 2410,3710 L 2350,3710 L 2275,3710 L 2225,3710 L 2150,3710 L 2090,3710 L 2015,3710 L 1915,3710 Z" /><path d="M 355,8480 L 455,8480 L 530,8480 L 590,8480 L 665,8480 L 715,8480 L 790,8480 L 850,8480 L 925,8480 L 1025,8480 L 1025,8360 L 925,8360 L 850,8360 L 790,8360 L 715,8360 L 665,8360 L 590,8360 L 530,8360 L 455,8360 L 355,8360 Z" /><path d="M 1135,8480 L 1235,8480 L 1310,8480 L 1370,8480 L 1445,8480 L 1495,8480 L 1570,8480 L 1630,8480 L 1705,8480 L 1805,8480 L 1805,8360 L 1705,8360 L 1630,8360 L 1570,8360 L 1495,8360 L 1445,8360 L 1370,8360 L 1310,8360 L 1235,8360 L 1135,8360 Z" /><path d="M 1915,8480 L 2015,8480 L 2090,8480 L 2150,8480 L 2225,8480 L 2275,8480 L 2350,8480 L 2410,8480 L 2485,8480 L 2585,8480 L 2585,8360 L 2485,8360 L 2410,8360 L 2350,8360 L 2275,8360 L 2225,8360 L 2150,8360 L 2090,8360 L 2015,8360 L 1915,8360 Z" /><path d="M 355,2600 L 455,2600 L 530,2600 L 590,2600 L 665,2600 L 715,2600 L 790,2600 L 850,2600 L 925,2600 L 1025,2600 L 1025,2480 L 925,2480 L 850,2480 L 790,2480 L 715,2480 L 665,2480 L 590,2480 L 530,2480 L 455,2480 L 355,2480 Z" /><path d="M 1135,2600 L 1235,2600 L 1310,2600 L 1370,2600 L 1445,2600 L 1495,2600 L 1570,2600 L 1630,2600 L 1705,2600 L 1805,2600 L 1805,2480 L 1705,2480 L 1630,2480 L 1570,2480 L 1495,2480 L 1445,2480 L 1370,2480 L 1310,2480 L 1235,2480 L 1135,2480 Z" /><path d="M 1915,2600 L 2015,2600 L 2090,2600 L 2150,2600 L 2225,2600 L 2275,2600 L 2350,2600 L 2410,2600 L 2485,2600 L 2585,2600 L 2585,2480 L 2485,2480 L 2410,2480 L 2350,2480 L 2275,2480 L 2225,2480 L 2150,2480 L 2090,2480 L 2015,2480 L 1915,2480 Z" /></g></g><g id="PO"><g class="l17d0"><path d="M 1630,890 L 1630,770 L 1630,630 L 1570,630 L 1570,770 L 1570,890 L 1570,1030 L 1570,1505 L 1545,1505 L 1545,1675 L 1570,1675 L 1570,2340 L 1570,2480 L 1570,2600 L 1570,2740 L 1630,2740 L 1630,2600 L 1630,2480 L 1630,2340 L 1630,1675 L 1655,1675 L 1655,1505 L 1630,1505 L 1630,1030 Z" /><path d="M 1570,5420 L 1570,5540 L 1570,5680 L 1630,5680 L 1630,5540 L 1630,5420 L 1630,5280 L 1630,4805 L 1655,4805 L 1655,4635 L 1630,4635 L 1630,3970 L 1630,3830 L 1630,3710 L 1630,3570 L 1570,3570 L 1570,3710 L 1570,3830 L 1570,3970 L 1570,4635 L 1545,4635 L 1545,4805 L 1570,4805 L 1570,5280 Z" /><path d="M 590,6770 L 590,6650 L 590,6510 L 530,6510 L 530,6650 L 530,6770 L 530,6910 L 530,7385 L 505,7385 L 505,7555 L 530,7555 L 530,8220 L 530,8360 L 530,8480 L 530,8620 L 590,8620 L 590,8480 L 590,8360 L 590,8220 L 590,7555 L 615,7555 L 615,7385 L 590,7385 L 590,6910 Z" /><path d="M 1630,6910 L 1630,6770 L 1630,6650 L 1630,6510 L 1570,6510 L 1570,6650 L 1570,6770 L 1570,6910 L 1570,7385 L 1545,7385 L 1545,7555 L 1570,7555 L 1570,8220 L 1570,8360 L 1570,8480 L 1570,8620 L 1630,8620 L 1630,8480 L 1630,8360 L 1630,8220 L 1630,7555 L 1655,7555 L 1655,7385 L 1630,7385 Z" /><path d="M 1310,5420 L 1310,5540 L 1310,5680 L 1370,5680 L 1370,5540 L 1370,5420 L 1370,5280 L 1370,4615 L 1395,4615 L 1395,4445 L 1370,4445 L 1370,3970 L 1370,3830 L 1370,3710 L 1370,3570 L 1310,3570 L 1310,3710 L 1310,3830 L 1310,3970 L 1310,4445 L 1285,4445 L 1285,4615 L 1310,4615 L 1310,5280 Z" /><path d="M 2090,5420 L 2090,5540 L 2090,5680 L 2150,5680 L 2150,5540 L 2150,5420 L 2150,5280 L 2150,4615 L 2175,4615 L 2175,4445 L 2150,4445 L 2150,3970 L 2150,3830 L 2150,3710 L 2150,3570 L 2090,3570 L 2090,3710 L 2090,3830 L 2090,3970 L 2090,4445 L 2065,4445 L 2065,4615 L 2090,4615 L 2090,5280 Z" /><path d="M 530,5420 L 530,5540 L 530,5680 L 590,5680 L 590,5540 L 590,5420 L 590,5280 L 590,4805 L 615,4805 L 615,4635 L 590,4635 L 590,3970 L 590,3830 L 590,3710 L 590,3570 L 530,3570 L 530,3710 L 530,3830 L 530,3970 L 530,4635 L 505,4635 L 505,4805 L 530,4805 L 530,5280 Z" /><path d="M 2150,890 L 2150,770 L 2150,630 L 2090,630 L 2090,770 L 2090,890 L 2090,1030 L 2090,1695 L 2065,1695 L 2065,1865 L 2090,1865 L 2090,2340 L 2090,2480 L 2090,2600 L 2090,2740 L 2150,2740 L 2150,2600 L 2150,2480 L 2150,2340 L 2150,1865 L 2175,1865 L 2175,1695 L 2150,1695 L 2150,1030 Z" /><path d="M 850,6770 L 850,6650 L 850,6510 L 790,6510 L 790,6650 L 790,6770 L 790,6910 L 790,7955 L 765,7955 L 765,8125 L 790,8125 L 790,8220 L 790,8360 L 790,8480 L 790,8620 L 850,8620 L 850,8480 L 850,8360 L 850,8220 L 850,8125 L 875,8125 L 875,7955 L 850,7955 L 850,6910 Z" /><path d="M 2350,5420 L 2350,5540 L 2350,5680 L 2410,5680 L 2410,5540 L 2410,5420 L 2410,5280 L 2409,5280 L 2409,4805 L 2435,4805 L 2435,4635 L 2409,4635 L 2409,3970 L 2410,3970 L 2410,3830 L 2410,3710 L 2410,3570 L 2350,3570 L 2350,3710 L 2350,3830 L 2350,3970 L 2350,4635 L 2325,4635 L 2325,4805 L 2350,4805 L 2350,5280 Z" /><path d="M 590,890 L 590,770 L 590,630 L 530,630 L 530,770 L 530,890 L 530,1030 L 530,1505 L 505,1505 L 505,1675 L 530,1675 L 530,2340 L 530,2480 L 530,2600 L 530,2740 L 590,2740 L 590,2600 L 590,2480 L 590,2340 L 590,1675 L 615,1675 L 615,1505 L 590,1505 L 590,1030 Z" /><path d="M 1310,8360 L 1310,8480 L 1310,8620 L 1370,8620 L 1370,8480 L 1370,8360 L 1370,8220 L 1370,7745 L 1395,7745 L 1395,7575 L 1370,7575 L 1370,6910 L 1370,6770 L 1370,6650 L 1370,6510 L 1310,6510 L 1310,6650 L 1310,6770 L 1310,6910 L 1310,7575 L 1285,7575 L 1285,7745 L 1310,7745 L 1310,8220 Z" /><path d="M 2090,8360 L 2090,8480 L 2090,8620 L 2150,8620 L 2150,8480 L 2150,8360 L 2150,8220 L 2150,7745 L 2175,7745 L 2175,7575 L 2150,7575 L 2150,6910 L 2150,6770 L 2150,6650 L 2150,6510 L 2090,6510 L 2090,6650 L 2090,6770 L 2090,6910 L 2090,7575 L 2065,7575 L 2065,7745 L 2090,7745 L 2090,8220 Z" /><path d="M 2410,1030 L 2410,890 L 2410,770 L 2410,630 L 2350,630 L 2350,770 L 2350,890 L 2350,1030 L 2350,1505 L 2325,1505 L 2325,1675 L 2350,1675 L 2350,2340 L 2350,2480 L 2350,2600 L 2350,2740 L 2410,2740 L 2410,2600 L 2410,2480 L 2410,2340 L 2409,2340 L 2409,1675 L 2435,1675 L 2435,1505 L 2409,1505 L 2409,1030 Z" /><path d="M 790,5420 L 790,5540 L 790,5680 L 850,5680 L 850,5540 L 850,5420 L 850,5280 L 850,4235 L 875,4235 L 875,4065 L 850,4065 L 850,3970 L 850,3830 L 850,3710 L 850,3570 L 790,3570 L 790,3710 L 790,3830 L 790,3970 L 790,4065 L 765,4065 L 765,4235 L 790,4235 L 790,5280 Z" /><path d="M 2409,6910 L 2410,6910 L 2410,6770 L 2410,6650 L 2410,6510 L 2350,6510 L 2350,6650 L 2350,6770 L 2350,6910 L 2350,7385 L 2325,7385 L 2325,7555 L 2350,7555 L 2350,8220 L 2350,8360 L 2350,8480 L 2350,8620 L 2410,8620 L 2410,8480 L 2410,8360 L 2410,8220 L 2409,8220 L 2409,7555 L 2435,7555 L 2435,7385 L 2409,7385 Z" /><path d="M 1370,890 L 1370,770 L 1370,630 L 1310,630 L 1310,770 L 1310,890 L 1310,1030 L 1310,1695 L 1285,1695 L 1285,1865 L 1310,1865 L 1310,2340 L 1310,2480 L 1310,2600 L 1310,2740 L 1370,2740 L 1370,2600 L 1370,2480 L 1370,2340 L 1370,1865 L 1395,1865 L 1395,1695 L 1370,1695 L 1370,1030 Z" /><path d="M 850,890 L 850,770 L 850,630 L 790,630 L 790,770 L 790,890 L 790,1030 L 790,2075 L 765,2075 L 765,2245 L 790,2245 L 790,2340 L 790,2480 L 790,2600 L 790,2740 L 850,2740 L 850,2600 L 850,2480 L 850,2340 L 850,2245 L 875,2245 L 875,2075 L 850,2075 L 850,1030 Z" /></g></g><g id="CO"><g class="l30d0"><path d="M 385,6665 L 475,6665 L 475,6755 L 385,6755 Z" /><path d="M 905,6665 L 995,6665 L 995,6755 L 905,6755 Z" /><path d="M 1165,6665 L 1255,6665 L 1255,6755 L 1165,6755 Z" /><path d="M 1685,6665 L 1775,6665 L 1775,6755 L 1685,6755 Z" /><path d="M 1425,6665 L 1515,6665 L 1515,6755 L 1425,6755 Z" /><path d="M 1945,3725 L 2035,3725 L 2035,3815 L 1945,3815 Z" /><path d="M 2465,3725 L 2555,3725 L 2555,3815 L 2465,3815 Z" /><path d="M 2205,3725 L 2295,3725 L 2295,3815 L 2205,3815 Z" /><path d="M 385,3725 L 475,3725 L 475,3815 L 385,3815 Z" /><path d="M 645,3725 L 735,3725 L 735,3815 L 645,3815 Z" /><path d="M 905,3725 L 995,3725 L 995,3815 L 905,3815 Z" /><path d="M 385,785 L 475,785 L 475,875 L 385,875 Z" /><path d="M 905,785 L 995,785 L 995,875 L 905,875 Z" /><path d="M 1165,785 L 1255,785 L 1255,875 L 1165,875 Z" /><path d="M 1685,785 L 1775,785 L 1775,875 L 1685,875 Z" /><path d="M 1425,785 L 1515,785 L 1515,875 L 1425,875 Z" /><path d="M 1945,785 L 2035,785 L 2035,875 L 1945,875 Z" /><path d="M 2465,785 L 2555,785 L 2555,875 L 2465,875 Z" /><path d="M 2205,785 L 2295,785 L 2295,875 L 2205,875 Z" /><path d="M 1165,2495 L 1255,2495 L 1255,2585 L 1165,2585 Z" /><path d="M 1685,2495 L 1775,2495 L 1775,2585 L 1685,2585 Z" /><path d="M 1425,2495 L 1515,2495 L 1515,2585 L 1425,2585 Z" /><path d="M 1945,2495 L 2035,2495 L 2035,2585 L 1945,2585 Z" /><path d="M 2465,2495 L 2555,2495 L 2555,2585 L 2465,2585 Z" /><path d="M 2205,2495 L 2295,2495 L 2295,2585 L 2205,2585 Z" /><path d="M 385,2495 L 475,2495 L 475,2585 L 385,2585 Z" /><path d="M 645,2495 L 735,2495 L 735,2585 L 645,2585 Z" /><path d="M 905,2495 L 995,2495 L 995,2585 L 905,2585 Z" /><path d="M 385,170 L 385,260 L 475,260 L 475,170 Z" /><path d="M 645,170 L 645,260 L 735,260 L 735,170 Z" /><path d="M 905,170 L 905,260 L 995,260 L 995,170 Z" /><path d="M 1165,170 L 1165,260 L 1255,260 L 1255,170 Z" /><path d="M 1685,170 L 1685,260 L 1775,260 L 1775,170 Z" /><path d="M 1425,170 L 1425,260 L 1515,260 L 1515,170 Z" /><path d="M 1945,170 L 1945,260 L 2035,260 L 2035,170 Z" /><path d="M 2465,170 L 2465,260 L 2555,260 L 2555,170 Z" /><path d="M 2205,170 L 2205,260 L 2295,260 L 2295,170 Z" /><path d="M 385,3110 L 385,3200 L 475,3200 L 475,3110 Z" /><path d="M 645,3110 L 645,3200 L 735,3200 L 735,3110 Z" /><path d="M 905,3110 L 905,3200 L 995,3200 L 995,3110 Z" /><path d="M 1165,3110 L 1165,3200 L 1255,3200 L 1255,3110 Z" /><path d="M 1685,3110 L 1685,3200 L 1775,3200 L 1775,3110 Z" /><path d="M 1425,3110 L 1425,3200 L 1515,3200 L 1515,3110 Z" /><path d="M 1945,3110 L 1945,3200 L 2035,3200 L 2035,3110 Z" /><path d="M 2465,3110 L 2465,3200 L 2555,3200 L 2555,3110 Z" /><path d="M 2205,3110 L 2205,3200 L 2295,3200 L 2295,3110 Z" /><path d="M 1945,6665 L 2035,6665 L 2035,6755 L 1945,6755 Z" /><path d="M 2465,6665 L 2555,6665 L 2555,6755 L 2465,6755 Z" /><path d="M 2205,6665 L 2295,6665 L 2295,6755 L 2205,6755 Z" /><path d="M 1165,8375 L 1255,8375 L 1255,8465 L 1165,8465 Z" /><path d="M 1685,8375 L 1775,8375 L 1775,8465 L 1685,8465 Z" /><path d="M 1425,8375 L 1515,8375 L 1515,8465 L 1425,8465 Z" /><path d="M 1945,8375 L 2035,8375 L 2035,8465 L 1945,8465 Z" /><path d="M 2465,8375 L 2555,8375 L 2555,8465 L 2465,8465 Z" /><path d="M 2205,8375 L 2295,8375 L 2295,8465 L 2205,8465 Z" /><path d="M 385,8375 L 475,8375 L 475,8465 L 385,8465 Z" /><path d="M 645,8375 L 735,8375 L 735,8465 L 645,8465 Z" /><path d="M 905,8375 L 995,8375 L 995,8465 L 905,8465 Z" /><path d="M 385,6050 L 385,6140 L 475,6140 L 475,6050 Z" /><path d="M 645,6050 L 645,6140 L 735,6140 L 735,6050 Z" /><path d="M 905,6050 L 905,6140 L 995,6140 L 995,6050 Z" /><path d="M 1165,6050 L 1165,6140 L 1255,6140 L 1255,6050 Z" /><path d="M 1685,6050 L 1685,6140 L 1775,6140 L 1775,6050 Z" /><path d="M 1425,6050 L 1425,6140 L 1515,6140 L 1515,6050 Z" /><path d="M 1945,6050 L 1945,6140 L 2035,6140 L 2035,6050 Z" /><path d="M 2465,6050 L 2465,6140 L 2555,6140 L 2555,6050 Z" /><path d="M 2205,6050 L 2205,6140 L 2295,6140 L 2295,6050 Z" /><path d="M 385,8990 L 475,8990 L 475,9080 L 385,9080 Z" /><path d="M 645,8990 L 735,8990 L 735,9080 L 645,9080 Z" /><path d="M 905,8990 L 995,8990 L 995,9080 L 905,9080 Z" /><path d="M 1165,8990 L 1255,8990 L 1255,9080 L 1165,9080 Z" /><path d="M 1685,8990 L 1775,8990 L 1775,9080 L 1685,9080 Z" /><path d="M 1425,8990 L 1515,8990 L 1515,9080 L 1425,9080 Z" /><path d="M 1945,8990 L 2035,8990 L 2035,9080 L 1945,9080 Z" /><path d="M 2465,8990 L 2555,8990 L 2555,9080 L 2465,9080 Z" /><path d="M 2205,8990 L 2295,8990 L 2295,9080 L 2205,9080 Z" /><path d="M 385,5435 L 475,5435 L 475,5525 L 385,5525 Z" /><path d="M 905,5435 L 995,5435 L 995,5525 L 905,5525 Z" /><path d="M 1165,5435 L 1255,5435 L 1255,5525 L 1165,5525 Z" /><path d="M 1685,5435 L 1775,5435 L 1775,5525 L 1685,5525 Z" /><path d="M 1425,5435 L 1515,5435 L 1515,5525 L 1425,5525 Z" /><path d="M 1945,5435 L 2035,5435 L 2035,5525 L 1945,5525 Z" /><path d="M 2465,5435 L 2555,5435 L 2555,5525 L 2465,5525 Z" /><path d="M 2205,5435 L 2295,5435 L 2295,5525 L 2205,5525 Z" /><path d="M 1165,3725 L 1255,3725 L 1255,3815 L 1165,3815 Z" /><path d="M 1685,3725 L 1775,3725 L 1775,3815 L 1685,3815 Z" /><path d="M 1425,3725 L 1515,3725 L 1515,3815 L 1425,3815 Z" /><path d="M 1555,1545 L 1645,1545 L 1645,1635 L 1555,1635 Z" /><path d="M 1555,4765 L 1645,4765 L 1645,4675 L 1555,4675 Z" /><path d="M 515,7425 L 605,7425 L 605,7515 L 515,7515 Z" /><path d="M 1555,7425 L 1645,7425 L 1645,7515 L 1555,7515 Z" /><path d="M 1295,4575 L 1385,4575 L 1385,4485 L 1295,4485 Z" /><path d="M 2075,4575 L 2165,4575 L 2165,4485 L 2075,4485 Z" /><path d="M 515,4675 L 605,4675 L 605,4765 L 515,4765 Z" /><path d="M 2075,1735 L 2165,1735 L 2165,1825 L 2075,1825 Z" /><path d="M 775,7995 L 865,7995 L 865,8085 L 775,8085 Z" /><path d="M 2335,4765 L 2425,4765 L 2425,4675 L 2335,4675 Z" /><path d="M 515,1545 L 605,1545 L 605,1635 L 515,1635 Z" /><path d="M 1295,7615 L 1385,7615 L 1385,7705 L 1295,7705 Z" /><path d="M 2075,7615 L 2165,7615 L 2165,7705 L 2075,7705 Z" /><path d="M 2335,1545 L 2425,1545 L 2425,1635 L 2335,1635 Z" /><path d="M 775,4105 L 865,4105 L 865,4195 L 775,4195 Z" /><path d="M 2335,7425 L 2425,7425 L 2425,7515 L 2335,7515 Z" /><path d="M 1295,1735 L 1385,1735 L 1385,1825 L 1295,1825 Z" /><path d="M 775,2115 L 865,2115 L 865,2205 L 775,2205 Z" /></g></g><g id="M1"><g class="l31d0"><path d="M 2200,8940 L 1520,8940 L 1520,8505 L 1520,8335 L 1420,8335 L 1420,8505 L 1420,8940 L 1000,8940 L 1000,8505 L 1000,8335 L 900,8335 L 900,8505 L 900,8940 L 480,8940 L 480,8505 L 480,8335 L 380,8335 L 380,8505 L 380,8940 L 290,8940 L 290,9130 L 2650,9130 L 2650,8940 L 2300,8940 L 2300,8505 L 2300,8335 L 2200,8335 L 2200,8505 Z" /><path d="M 1520,745 L 1520,310 L 2200,310 L 2200,745 L 2200,915 L 2300,915 L 2300,745 L 2300,310 L 2650,310 L 2650,120 L 290,120 L 290,310 L 380,310 L 380,745 L 380,915 L 480,915 L 480,745 L 480,310 L 1420,310 L 1420,745 L 1420,915 L 1520,915 Z" /><path d="M 290,6190 L 380,6190 L 380,6625 L 380,6795 L 480,6795 L 480,6625 L 480,6190 L 1420,6190 L 1420,6625 L 1420,6795 L 1520,6795 L 1520,6625 L 1520,6190 L 2200,6190 L 2200,6625 L 2200,6795 L 2300,6795 L 2300,6625 L 2300,6190 L 2650,6190 L 2650,6000 L 2300,6000 L 2300,5565 L 2300,5395 L 2200,5395 L 2200,5565 L 2200,6000 L 1520,6000 L 1520,5565 L 1520,5395 L 1420,5395 L 1420,5565 L 1420,6000 L 480,6000 L 480,5565 L 480,5395 L 380,5395 L 380,5565 L 380,6000 L 290,6000 Z" /><path d="M 380,3685 L 380,3855 L 480,3855 L 480,3685 L 480,3250 L 900,3250 L 900,3685 L 900,3855 L 1000,3855 L 1000,3685 L 1000,3250 L 1420,3250 L 1420,3685 L 1420,3855 L 1520,3855 L 1520,3685 L 1520,3250 L 2200,3250 L 2200,3685 L 2200,3855 L 2300,3855 L 2300,3685 L 2300,3250 L 2650,3250 L 2650,3060 L 2300,3060 L 2300,2625 L 2300,2455 L 2200,2455 L 2200,2625 L 2200,3060 L 1520,3060 L 1520,2625 L 1520,2455 L 1420,2455 L 1420,2625 L 1420,3060 L 1000,3060 L 1000,2625 L 1000,2455 L 900,2455 L 900,2625 L 900,3060 L 480,3060 L 480,2625 L 480,2455 L 380,2455 L 380,2625 L 380,3060 L 290,3060 L 290,3250 L 380,3250 Z" /><path d="M 1260,2450 L 1160,2450 L 1160,2455 L 1160,2625 L 1160,2630 L 1160,2870 L 1260,2870 L 1260,2630 L 1260,2625 L 1260,2455 Z" /><path d="M 1780,2450 L 1680,2450 L 1680,2455 L 1680,2625 L 1680,2630 L 1680,2870 L 1780,2870 L 1780,2630 L 1780,2625 L 1780,2455 Z" /><path d="M 1260,3680 L 1260,3440 L 1160,3440 L 1160,3680 L 1160,3685 L 1160,3855 L 1160,3860 L 1260,3860 L 1260,3855 L 1260,3685 Z" /><path d="M 740,3680 L 740,3440 L 640,3440 L 640,3680 L 640,3685 L 640,3855 L 640,3860 L 740,3860 L 740,3855 L 740,3685 Z" /><path d="M 1780,3680 L 1780,3440 L 1680,3440 L 1680,3680 L 1680,3685 L 1680,3855 L 1680,3860 L 1780,3860 L 1780,3855 L 1780,3685 Z" /><path d="M 2040,2450 L 1940,2450 L 1940,2455 L 1940,2625 L 1940,2630 L 1940,2870 L 2040,2870 L 2040,2630 L 2040,2625 L 2040,2455 Z" /><path d="M 740,2450 L 640,2450 L 640,2455 L 640,2625 L 640,2630 L 640,2870 L 740,2870 L 740,2630 L 740,2625 L 740,2455 Z" /><path d="M 1260,8330 L 1160,8330 L 1160,8335 L 1160,8505 L 1160,8510 L 1160,8750 L 1260,8750 L 1260,8510 L 1260,8505 L 1260,8335 Z" /><path d="M 1780,6620 L 1780,6380 L 1680,6380 L 1680,6620 L 1680,6625 L 1680,6795 L 1680,6800 L 1780,6800 L 1780,6795 L 1780,6625 Z" /><path d="M 2560,740 L 2560,500 L 2460,500 L 2460,740 L 2460,745 L 2460,915 L 2460,920 L 2560,920 L 2560,915 L 2560,745 Z" /><path d="M 2560,5390 L 2460,5390 L 2460,5395 L 2460,5565 L 2460,5570 L 2460,5810 L 2560,5810 L 2560,5570 L 2560,5565 L 2560,5395 Z" /><path d="M 740,8330 L 640,8330 L 640,8335 L 640,8505 L 640,8510 L 640,8750 L 740,8750 L 740,8510 L 740,8505 L 740,8335 Z" /><path d="M 1000,5390 L 900,5390 L 900,5395 L 900,5565 L 900,5570 L 900,5810 L 1000,5810 L 1000,5570 L 1000,5565 L 1000,5395 Z" /><path d="M 1000,6620 L 1000,6380 L 900,6380 L 900,6620 L 900,6625 L 900,6795 L 900,6800 L 1000,6800 L 1000,6795 L 1000,6625 Z" /><path d="M 2560,2450 L 2460,2450 L 2460,2455 L 2460,2625 L 2460,2630 L 2460,2870 L 2560,2870 L 2560,2630 L 2560,2625 L 2560,2455 Z" /><path d="M 1260,6620 L 1260,6380 L 1160,6380 L 1160,6620 L 1160,6625 L 1160,6795 L 1160,6800 L 1260,6800 L 1260,6795 L 1260,6625 Z" /><path d="M 2040,8330 L 1940,8330 L 1940,8335 L 1940,8505 L 1940,8510 L 1940,8750 L 2040,8750 L 2040,8510 L 2040,8505 L 2040,8335 Z" /><path d="M 2560,8330 L 2460,8330 L 2460,8335 L 2460,8505 L 2460,8510 L 2460,8750 L 2560,8750 L 2560,8510 L 2560,8505 L 2560,8335 Z" /><path d="M 1000,740 L 1000,500 L 900,500 L 900,740 L 900,745 L 900,915 L 900,920 L 1000,920 L 1000,915 L 1000,745 Z" /><path d="M 2040,6620 L 2040,6380 L 1940,6380 L 1940,6620 L 1940,6625 L 1940,6795 L 1940,6800 L 2040,6800 L 2040,6795 L 2040,6625 Z" /><path d="M 2560,6620 L 2560,6380 L 2460,6380 L 2460,6620 L 2460,6625 L 2460,6795 L 2460,6800 L 2560,6800 L 2560,6795 L 2560,6625 Z" /><path d="M 1260,5390 L 1160,5390 L 1160,5395 L 1160,5565 L 1160,5570 L 1160,5810 L 1260,5810 L 1260,5570 L 1260,5565 L 1260,5395 Z" /><path d="M 2040,3680 L 2040,3440 L 1940,3440 L 1940,3680 L 1940,3685 L 1940,3855 L 1940,3860 L 2040,3860 L 2040,3855 L 2040,3685 Z" /><path d="M 2040,740 L 2040,500 L 1940,500 L 1940,740 L 1940,745 L 1940,915 L 1940,920 L 2040,920 L 2040,915 L 2040,745 Z" /><path d="M 1780,8330 L 1680,8330 L 1680,8335 L 1680,8505 L 1680,8510 L 1680,8750 L 1780,8750 L 1780,8510 L 1780,8505 L 1780,8335 Z" /><path d="M 1260,740 L 1260,500 L 1160,500 L 1160,740 L 1160,745 L 1160,915 L 1160,920 L 1260,920 L 1260,915 L 1260,745 Z" /><path d="M 1780,740 L 1780,500 L 1680,500 L 1680,740 L 1680,745 L 1680,915 L 1680,920 L 1780,920 L 1780,915 L 1780,745 Z" /><path d="M 2040,5390 L 1940,5390 L 1940,5395 L 1940,5565 L 1940,5570 L 1940,5810 L 2040,5810 L 2040,5570 L 2040,5565 L 2040,5395 Z" /><path d="M 1780,5390 L 1680,5390 L 1680,5395 L 1680,5565 L 1680,5570 L 1680,5810 L 1780,5810 L 1780,5570 L 1780,5565 L 1780,5395 Z" /><path d="M 2560,3680 L 2560,3440 L 2460,3440 L 2460,3680 L 2460,3685 L 2460,3855 L 2460,3860 L 2560,3860 L 2560,3855 L 2560,3685 Z" /><path d="M 1515,1540 L 1300,1540 L 1210,1540 L 1120,1540 L 1120,1640 L 1210,1640 L 1300,1640 L 1515,1640 L 1600,1640 L 1685,1640 L 1685,1540 L 1600,1540 Z" /><path d="M 1515,4670 L 1300,4670 L 1210,4670 L 1120,4670 L 1120,4770 L 1210,4770 L 1300,4770 L 1515,4770 L 1600,4770 L 1685,4770 L 1685,4670 L 1600,4670 Z" /><path d="M 340,7420 L 340,7520 L 475,7520 L 520,7520 L 645,7520 L 760,7520 L 760,7420 L 645,7420 L 520,7420 L 475,7420 Z" /><path d="M 1515,7420 L 1300,7420 L 1210,7420 L 1120,7420 L 1120,7520 L 1210,7520 L 1300,7520 L 1515,7520 L 1600,7520 L 1685,7520 L 1685,7420 L 1600,7420 Z" /><path d="M 1255,4480 L 780,4480 L 690,4480 L 600,4480 L 600,4580 L 690,4580 L 780,4580 L 1255,4580 L 1340,4580 L 1425,4580 L 1425,4480 L 1340,4480 Z" /><path d="M 2035,4480 L 1820,4480 L 1730,4480 L 1640,4480 L 1640,4580 L 1730,4580 L 1820,4580 L 2035,4580 L 2120,4580 L 2205,4580 L 2205,4480 L 2120,4480 Z" /><path d="M 340,4670 L 340,4770 L 475,4770 L 520,4770 L 645,4770 L 760,4770 L 760,4670 L 645,4670 L 520,4670 L 475,4670 Z" /><path d="M 2035,1730 L 1820,1730 L 1730,1730 L 1640,1730 L 1640,1830 L 1730,1830 L 1820,1830 L 2035,1830 L 2120,1830 L 2205,1830 L 2205,1730 L 2120,1730 Z" /><path d="M 680,7990 L 680,8090 L 735,8090 L 860,8090 L 905,8090 L 1040,8090 L 1100,8090 L 1100,7990 L 1040,7990 L 905,7990 L 860,7990 L 735,7990 Z" /><path d="M 2295,4670 L 2080,4670 L 1990,4670 L 1900,4670 L 1900,4770 L 1990,4770 L 2080,4770 L 2295,4770 L 2380,4770 L 2465,4770 L 2465,4670 L 2380,4670 Z" /><path d="M 340,1540 L 340,1640 L 475,1640 L 520,1640 L 645,1640 L 760,1640 L 760,1540 L 645,1540 L 520,1540 L 475,1540 Z" /><path d="M 1255,7610 L 780,7610 L 690,7610 L 600,7610 L 600,7710 L 690,7710 L 780,7710 L 1255,7710 L 1340,7710 L 1425,7710 L 1425,7610 L 1340,7610 Z" /><path d="M 2035,7610 L 1820,7610 L 1730,7610 L 1640,7610 L 1640,7710 L 1730,7710 L 1820,7710 L 2035,7710 L 2120,7710 L 2205,7710 L 2205,7610 L 2120,7610 Z" /><path d="M 2295,1540 L 2080,1540 L 1990,1540 L 1900,1540 L 1900,1640 L 1990,1640 L 2080,1640 L 2295,1640 L 2380,1640 L 2465,1640 L 2465,1540 L 2380,1540 Z" /><path d="M 680,4100 L 680,4200 L 735,4200 L 860,4200 L 905,4200 L 1040,4200 L 1100,4200 L 1100,4100 L 1040,4100 L 905,4100 L 860,4100 L 735,4100 Z" /><path d="M 2295,7420 L 2080,7420 L 1990,7420 L 1900,7420 L 1900,7520 L 1990,7520 L 2080,7520 L 2295,7520 L 2380,7520 L 2465,7520 L 2465,7420 L 2380,7420 Z" /><path d="M 1255,1730 L 780,1730 L 690,1730 L 600,1730 L 600,1830 L 690,1830 L 780,1830 L 1255,1830 L 1340,1830 L 1425,1830 L 1425,1730 L 1340,1730 Z" /><path d="M 680,2110 L 680,2210 L 735,2210 L 860,2210 L 905,2210 L 1040,2210 L 1100,2210 L 1100,2110 L 1040,2110 L 905,2110 L 860,2110 L 735,2110 Z" /></g></g><g id="VIA1"><g class="l51d0"><path d="M 1160,2490 L 1260,2490 L 1260,2590 L 1160,2590 Z" /><path d="M 1680,2490 L 1780,2490 L 1780,2590 L 1680,2590 Z" /><path d="M 1160,3820 L 1260,3820 L 1260,3720 L 1160,3720 Z" /><path d="M 640,3820 L 740,3820 L 740,3720 L 640,3720 Z" /><path d="M 1680,3820 L 1780,3820 L 1780,3720 L 1680,3720 Z" /><path d="M 1940,2490 L 2040,2490 L 2040,2590 L 1940,2590 Z" /><path d="M 640,2490 L 740,2490 L 740,2590 L 640,2590 Z" /><path d="M 1160,8370 L 1260,8370 L 1260,8470 L 1160,8470 Z" /><path d="M 1680,6660 L 1780,6660 L 1780,6760 L 1680,6760 Z" /><path d="M 2460,780 L 2560,780 L 2560,880 L 2460,880 Z" /><path d="M 2460,5530 L 2560,5530 L 2560,5430 L 2460,5430 Z" /><path d="M 640,8370 L 740,8370 L 740,8470 L 640,8470 Z" /><path d="M 900,5530 L 1000,5530 L 1000,5430 L 900,5430 Z" /><path d="M 900,6660 L 1000,6660 L 1000,6760 L 900,6760 Z" /><path d="M 2460,2490 L 2560,2490 L 2560,2590 L 2460,2590 Z" /><path d="M 1160,6660 L 1260,6660 L 1260,6760 L 1160,6760 Z" /><path d="M 1940,8370 L 2040,8370 L 2040,8470 L 1940,8470 Z" /><path d="M 2460,8370 L 2560,8370 L 2560,8470 L 2460,8470 Z" /><path d="M 900,780 L 1000,780 L 1000,880 L 900,880 Z" /><path d="M 1940,6660 L 2040,6660 L 2040,6760 L 1940,6760 Z" /><path d="M 2460,6660 L 2560,6660 L 2560,6760 L 2460,6760 Z" /><path d="M 1160,5530 L 1260,5530 L 1260,5430 L 1160,5430 Z" /><path d="M 1940,3820 L 2040,3820 L 2040,3720 L 1940,3720 Z" /><path d="M 1940,780 L 2040,780 L 2040,880 L 1940,880 Z" /><path d="M 1680,8370 L 1780,8370 L 1780,8470 L 1680,8470 Z" /><path d="M 1160,780 L 1260,780 L 1260,880 L 1160,880 Z" /><path d="M 1680,780 L 1780,780 L 1780,880 L 1680,880 Z" /><path d="M 1940,5530 L 2040,5530 L 2040,5430 L 1940,5430 Z" /><path d="M 1680,5530 L 1780,5530 L 1780,5430 L 1680,5430 Z" /><path d="M 2460,3820 L 2560,3820 L 2560,3720 L 2460,3720 Z" /><path d="M 1940,4770 L 2040,4770 L 2040,4670 L 1940,4670 Z" /><path d="M 380,7420 L 480,7420 L 480,7520 L 380,7520 Z" /><path d="M 380,1540 L 480,1540 L 480,1640 L 380,1640 Z" /><path d="M 640,1730 L 740,1730 L 740,1830 L 640,1830 Z" /><path d="M 900,7990 L 1000,7990 L 1000,8090 L 900,8090 Z" /><path d="M 1680,4580 L 1780,4580 L 1780,4480 L 1680,4480 Z" /><path d="M 1160,7420 L 1260,7420 L 1260,7520 L 1160,7520 Z" /><path d="M 1940,7420 L 2040,7420 L 2040,7520 L 1940,7520 Z" /><path d="M 900,4100 L 1000,4100 L 1000,4200 L 900,4200 Z" /><path d="M 1160,1540 L 1260,1540 L 1260,1640 L 1160,1640 Z" /><path d="M 380,4670 L 480,4670 L 480,4770 L 380,4770 Z" /><path d="M 1680,1730 L 1780,1730 L 1780,1830 L 1680,1830 Z" /><path d="M 640,4580 L 740,4580 L 740,4480 L 640,4480 Z" /><path d="M 1940,1540 L 2040,1540 L 2040,1640 L 1940,1640 Z" /><path d="M 1680,7610 L 1780,7610 L 1780,7710 L 1680,7710 Z" /><path d="M 900,2110 L 1000,2110 L 1000,2210 L 900,2210 Z" /><path d="M 640,7610 L 740,7610 L 740,7710 L 640,7710 Z" /><path d="M 1160,4770 L 1260,4770 L 1260,4670 L 1160,4670 Z" /></g></g><g id="M2"><g class="l32d0"><path d="M 2460,1495 L 2460,1675 L 2460,2450 L 2460,2540 L 2460,2630 L 2560,2630 L 2560,2540 L 2560,2450 L 2560,1675 L 2560,1495 L 2560,920 L 2560,830 L 2560,740 L 2460,740 L 2460,830 L 2460,920 Z" /><path d="M 2460,7555 L 2460,8330 L 2460,8420 L 2460,8510 L 2560,8510 L 2560,8420 L 2560,8330 L 2560,7555 L 2560,7375 L 2560,6800 L 2560,6710 L 2560,6620 L 2460,6620 L 2460,6710 L 2460,6800 L 2460,7375 Z" /><path d="M 2560,4815 L 2560,4635 L 2560,3860 L 2560,3770 L 2560,3680 L 2460,3680 L 2460,3770 L 2460,3860 L 2460,4635 L 2460,4815 L 2460,5390 L 2460,5480 L 2460,5570 L 2560,5570 L 2560,5480 L 2560,5390 Z" /><path d="M 1940,5480 L 1940,5570 L 2040,5570 L 2040,5480 L 2040,5390 L 2040,4810 L 2040,4630 L 2040,3860 L 2040,3770 L 2040,3680 L 1940,3680 L 1940,3770 L 1940,3860 L 1940,4630 L 1940,4810 L 1940,5390 Z" /><path d="M 640,2540 L 640,2630 L 740,2630 L 740,2540 L 740,2450 L 740,1870 L 740,1735 L 900,1735 L 1000,1735 L 1000,1635 L 1000,920 L 1000,830 L 1000,740 L 900,740 L 900,830 L 900,920 L 900,1635 L 740,1635 L 640,1635 L 640,1690 L 640,1735 L 640,1870 L 640,2450 Z" /><path d="M 900,7775 L 900,7950 L 900,7955 L 900,8130 L 900,8295 L 1000,8295 L 1000,8130 L 1000,7955 L 1000,7950 L 1000,7775 Z" /><path d="M 1780,4620 L 1780,4440 L 1780,3860 L 1780,3770 L 1780,3680 L 1680,3680 L 1680,3770 L 1680,3860 L 1680,4440 L 1680,4620 L 1680,5390 L 1680,5480 L 1680,5570 L 1780,5570 L 1780,5480 L 1780,5390 Z" /><path d="M 1260,6710 L 1260,6620 L 1160,6620 L 1160,6710 L 1160,6800 L 1160,7380 L 1160,7560 L 1160,8330 L 1160,8420 L 1160,8510 L 1260,8510 L 1260,8420 L 1260,8330 L 1260,7560 L 1260,7380 L 1260,6800 Z" /><path d="M 2040,6710 L 2040,6620 L 1940,6620 L 1940,6710 L 1940,6800 L 1940,7380 L 1940,7560 L 1940,8330 L 1940,8420 L 1940,8510 L 2040,8510 L 2040,8420 L 2040,8330 L 2040,7560 L 2040,7380 L 2040,6800 Z" /><path d="M 1000,3895 L 900,3895 L 900,4060 L 900,4235 L 900,4240 L 900,4415 L 1000,4415 L 1000,4240 L 1000,4235 L 1000,4060 Z" /><path d="M 1260,830 L 1260,740 L 1160,740 L 1160,830 L 1160,920 L 1160,1500 L 1160,1680 L 1160,2450 L 1160,2540 L 1160,2630 L 1260,2630 L 1260,2540 L 1260,2450 L 1260,1680 L 1260,1500 L 1260,920 Z" /><path d="M 480,4630 L 480,1680 L 480,1590 L 480,1500 L 380,1500 L 380,1590 L 380,1680 L 380,4630 L 380,4720 L 380,4810 L 380,7380 L 380,7470 L 380,7560 L 480,7560 L 480,7470 L 480,7380 L 480,4810 L 480,4720 Z" /><path d="M 1680,1690 L 1680,1870 L 1680,2450 L 1680,2540 L 1680,2630 L 1780,2630 L 1780,2540 L 1780,2450 L 1780,1870 L 1780,1690 L 1780,920 L 1780,830 L 1780,740 L 1680,740 L 1680,830 L 1680,920 Z" /><path d="M 900,5480 L 900,5570 L 1000,5570 L 1000,5480 L 1000,5390 L 1000,4675 L 1000,4575 L 900,4575 L 740,4575 L 740,4440 L 740,3860 L 740,3770 L 740,3680 L 640,3680 L 640,3770 L 640,3860 L 640,4440 L 640,4575 L 640,4620 L 640,4675 L 740,4675 L 900,4675 L 900,5390 Z" /><path d="M 2040,830 L 2040,740 L 1940,740 L 1940,830 L 1940,920 L 1940,1500 L 1940,1680 L 1940,2450 L 1940,2540 L 1940,2630 L 2040,2630 L 2040,2540 L 2040,2450 L 2040,1680 L 2040,1500 L 2040,920 Z" /><path d="M 1680,8420 L 1680,8510 L 1780,8510 L 1780,8420 L 1780,8330 L 1780,7750 L 1780,7570 L 1780,6800 L 1780,6710 L 1780,6620 L 1680,6620 L 1680,6710 L 1680,6800 L 1680,7570 L 1680,7750 L 1680,8330 Z" /><path d="M 900,1895 L 900,2070 L 900,2075 L 900,2250 L 900,2415 L 1000,2415 L 1000,2250 L 1000,2075 L 1000,2070 L 1000,1895 Z" /><path d="M 640,7515 L 640,7570 L 640,7615 L 640,7750 L 640,8330 L 640,8420 L 640,8510 L 740,8510 L 740,8420 L 740,8330 L 740,7750 L 740,7615 L 900,7615 L 1000,7615 L 1000,7515 L 1000,6800 L 1000,6710 L 1000,6620 L 900,6620 L 900,6710 L 900,6800 L 900,7515 L 740,7515 Z" /><path d="M 1160,5480 L 1160,5570 L 1260,5570 L 1260,5480 L 1260,5390 L 1260,4810 L 1260,4630 L 1260,3860 L 1260,3770 L 1260,3680 L 1160,3680 L 1160,3770 L 1160,3860 L 1160,4630 L 1160,4810 L 1160,5390 Z" /></g></g><g id="VIA2"><g class="l52d0"><path d="M 900,7815 L 1000,7815 L 1000,7915 L 900,7915 Z" /><path d="M 900,1935 L 1000,1935 L 1000,2035 L 900,2035 Z" /><path d="M 2460,4675 L 2560,4675 L 2560,4775 L 2460,4775 Z" /><path d="M 2460,7415 L 2560,7415 L 2560,7515 L 2460,7515 Z" /><path d="M 2460,1535 L 2560,1535 L 2560,1635 L 2460,1635 Z" /><path d="M 900,4375 L 1000,4375 L 1000,4275 L 900,4275 Z" /></g></g><g id="M3"><g class="l33d0"><path d="M 1940,3355 L 1780,3355 L 1680,3355 L 1680,3455 L 1680,3875 L 1040,3875 L 950,3875 L 860,3875 L 860,3975 L 950,3975 L 1040,3975 L 1680,3975 L 1780,3975 L 1780,3875 L 1780,3455 L 1940,3455 L 1940,3875 L 1940,3975 L 2040,3975 L 2200,3975 L 2200,4075 L 1520,4075 L 1420,4075 L 1420,4175 L 1420,4275 L 1420,4375 L 1520,4375 L 1680,4375 L 1680,4875 L 1680,4975 L 1780,4975 L 1940,4975 L 2040,4975 L 2040,4875 L 2040,4375 L 2200,4375 L 2200,4675 L 2200,4775 L 2300,4775 L 2420,4775 L 2510,4775 L 2600,4775 L 2600,4675 L 2510,4675 L 2420,4675 L 2300,4675 L 2300,4375 L 2300,4275 L 2200,4275 L 2040,4275 L 1940,4275 L 1940,4375 L 1940,4875 L 1780,4875 L 1780,4375 L 1780,4275 L 1680,4275 L 1520,4275 L 1520,4175 L 2200,4175 L 2300,4175 L 2300,4075 L 2300,3975 L 2300,3875 L 2200,3875 L 2040,3875 L 2040,3455 L 2040,3355 Z" /><path d="M 1420,6915 L 1420,7015 L 1420,7115 L 1520,7115 L 1680,7115 L 1680,7615 L 1680,7715 L 1780,7715 L 1940,7715 L 2040,7715 L 2040,7615 L 2040,7115 L 2200,7115 L 2200,7415 L 2200,7515 L 2300,7515 L 2420,7515 L 2510,7515 L 2600,7515 L 2600,7415 L 2510,7415 L 2420,7415 L 2300,7415 L 2300,7115 L 2300,7015 L 2200,7015 L 2040,7015 L 1940,7015 L 1940,7115 L 1940,7615 L 1780,7615 L 1780,7115 L 1780,7015 L 1680,7015 L 1520,7015 L 1520,6915 L 2200,6915 L 2300,6915 L 2300,6815 L 2300,6715 L 2300,6615 L 2200,6615 L 2040,6615 L 2040,6395 L 2040,6295 L 1940,6295 L 1780,6295 L 1680,6295 L 1680,6395 L 1680,6615 L 1040,6615 L 950,6615 L 860,6615 L 860,6715 L 950,6715 L 1040,6715 L 1680,6715 L 1780,6715 L 1780,6615 L 1780,6395 L 1940,6395 L 1940,6615 L 1940,6715 L 2040,6715 L 2200,6715 L 2200,6815 L 1520,6815 L 1420,6815 Z" /><path d="M 2420,1535 L 780,1535 L 690,1535 L 600,1535 L 600,1635 L 690,1635 L 780,1635 L 2420,1635 L 2510,1635 L 2600,1635 L 2600,1535 L 2510,1535 Z" /><path d="M 690,4275 L 690,4375 L 860,4375 L 1040,4375 L 1210,4375 L 1210,4275 L 1040,4275 L 860,4275 Z" /><path d="M 690,1935 L 690,2035 L 860,2035 L 1040,2035 L 1210,2035 L 1210,1935 L 1040,1935 L 860,1935 Z" /><path d="M 600,7915 L 780,7915 L 860,7915 L 1040,7915 L 1120,7915 L 1120,7815 L 1040,7815 L 860,7815 L 780,7815 L 600,7815 Z" /></g></g><g id="VIA3"><g class="l53d0"><path d="M 900,3875 L 1000,3875 L 1000,3975 L 900,3975 Z" /><path d="M 900,6615 L 1000,6615 L 1000,6715 L 900,6715 Z" /><path d="M 900,4275 L 1000,4275 L 1000,4375 L 900,4375 Z" /><path d="M 640,1535 L 740,1535 L 740,1635 L 640,1635 Z" /><path d="M 900,1935 L 1000,1935 L 1000,2035 L 900,2035 Z" /><path d="M 640,7815 L 740,7815 L 740,7915 L 640,7915 Z" /></g></g><g id="M4"><g class="l34d0"><path d="M 1000,4415 L 1000,4325 L 1000,4235 L 900,4235 L 900,4325 L 900,4415 L 900,6575 L 900,6665 L 900,6755 L 1000,6755 L 1000,6665 L 1000,6575 Z" /><path d="M 1000,2075 L 1000,1935 L 1000,1895 L 900,1895 L 900,1935 L 900,2075 L 900,3835 L 900,3925 L 900,4015 L 1000,4015 L 1000,3925 L 1000,3835 Z" /><path d="M 640,7775 L 640,7880 L 640,7955 L 740,7955 L 740,7880 L 740,7775 L 740,1675 L 740,1585 L 740,1495 L 640,1495 L 640,1585 L 640,1675 Z" /></g></g></g></svg>