<svg width="7890" height="3550" viewBox="-5 -3545 7890 3550" xmlns="http://www.w3.org/2000/svg" xmlns:xlink="http://www.w3.org/1999/xlink"><defs><style type="text/css">.l3d0 {fill: #fef9e7; fill-opacity: 0.5; stroke-width: 10; stroke: #f1c40f; stroke-linecap: round; stroke-linejoin: round; stroke-opacity: 0.2;}.l25d0 {fill: #8e44ad; fill-opacity: 0.05; stroke-width: 10; stroke: #8e44ad; stroke-linecap: round; stroke-linejoin: round; stroke-opacity: 1;}.l26d0 {fill: #ccd1d1; fill-opacity: 0.05; stroke-width: 10; stroke: #ccd1d1; stroke-linecap: round; stroke-linejoin: round; stroke-opacity: 1;}.l6d0 {fill: #f5b7b1; fill-opacity: 1; stroke-width: 10; stroke: #e74c3c; stroke-linecap: round; stroke-linejoin: round; stroke-opacity: 1;}.l17d0 {fill: #2980b9; fill-opacity: 1; stroke-width: 0; stroke: #000000; stroke-linecap: round; stroke-linejoin: round; stroke-opacity: 0;}.l30d0 {fill: #27ae60; fill-opacity: 1; stroke-width: 0; stroke: #000000; stroke-linecap: round; stroke-linejoin: round; stroke-opacity: 0;}.l31d0 {fill: #85c1e9; fill-opacity: 0.6; stroke-width: 0; stroke: #000000; stroke-linecap: round; stroke-linejoin: round; stroke-opacity: 0;}.l51d0 {fill: #f39c12; fill-opacity: 1; stroke-width: 10; stroke: #f39c12; stroke-linecap: round; stroke-linejoin: round; stroke-opacity: 1;}.l32d0 {fill: #f7dc6f; fill-opacity: 0.6; stroke-width: 0; stroke: #000000; stroke-linecap: round; stroke-linejoin: round; stroke-opacity: 0;}.l52d0 {fill: #a04000; fill-opacity: 1; stroke-width: 10; stroke: #a04000; stroke-linecap: round; stroke-linejoin: round; stroke-opacity: 1;}.l33d0 {fill: #16a085; fill-opacity: 0.6; stroke-width: 0; stroke: #000000; stroke-linecap: round; stroke-linejoin: round; stroke-opacity: 0;}path {fill-rule: evenodd;}</style></defs><g transform="scale(1 -1)"><g id="NW"><g class="l3d0"><path d="M 2600,1900 L 0,1900 L 0,3540 L 2600,3540 L 3200,3540 L 7880,3540 L 7880,1900 L 6345,1900 L 6085,1900 L 5825,1900 L 5695,1900 L 5565,1900 L 5435,1900 L 5175,1900 L 4915,1900 L 3200,1900 Z" /></g></g><g id="PP"><g class="l25d0"><path d="M 170,0 L 170,430 L 2770,430 L 3030,430 L 7710,430 L 7710,0 L 3030,0 L 2770,0 Z" /><path d="M 1105,2940 L 1315,2940 L 1365,2940 L 1575,2940 L 1625,2940 L 1835,2940 L 2095,2940 L 2145,2940 L 2405,2940 L 2615,2940 L 2770,2940 L 2875,2940 L 2925,2940 L 3030,2940 L 3185,2940 L 3395,2940 L 3445,2940 L 3655,2940 L 3705,2940 L 3915,2940 L 3965,2940 L 4175,2940 L 4435,2940 L 4485,2940 L 4745,2940 L 4955,2940 L 5005,2940 L 5215,2940 L 5265,2940 L 5475,2940 L 5525,2940 L 5735,2940 L 5785,2940 L 5995,2940 L 6255,2940 L 6305,2940 L 6565,2940 L 6775,2940 L 6825,2940 L 7035,2940 L 7085,2940 L 7295,2940 L 7555,2940 L 7710,2940 L 7710,1685 L 3030,1685 L 2770,1685 L 170,1685 L 170,2940 L 325,2940 L 795,2940 L 845,2940 Z" /></g></g><g id="NP"><g class="l26d0"><path d="M 170,2940 L 170,3370 L 2770,3370 L 3030,3370 L 7710,3370 L 7710,2940 L 3030,2940 L 2770,2940 Z" /><path d="M 2145,430 L 2095,430 L 1835,430 L 1625,430 L 1575,430 L 1365,430 L 1315,430 L 1105,430 L 845,430 L 795,430 L 325,430 L 170,430 L 170,1685 L 2770,1685 L 3030,1685 L 7710,1685 L 7710,430 L 7555,430 L 7295,430 L 7085,430 L 7035,430 L 6825,430 L 6775,430 L 6565,430 L 6305,430 L 6255,430 L 5995,430 L 5785,430 L 5735,430 L 5525,430 L 5475,430 L 5265,430 L 5215,430 L 5005,430 L 4955,430 L 4745,430 L 4485,430 L 4435,430 L 4175,430 L 3965,430 L 3915,430 L 3705,430 L 3655,430 L 3445,430 L 3395,430 L 3185,430 L 3030,430 L 2925,430 L 2875,430 L 2770,430 L 2615,430 L 2405,430 Z" /></g></g><g id="OD"><g class="l6d0"><path d="M 370,770 L 370,1010 L 455,1010 L 530,1010 L 590,1010 L 665,1010 L 750,1010 L 750,770 L 665,770 L 590,770 L 530,770 L 455,770 Z" /><path d="M 2485,770 L 2410,770 L 2350,770 L 2275,770 L 2190,770 L 2190,1010 L 2275,1010 L 2350,1010 L 2410,1010 L 2485,1010 L 2535,1010 L 2610,1010 L 2670,1010 L 2745,1010 L 2830,1010 L 2830,770 L 2745,770 L 2670,770 L 2610,770 L 2535,770 Z" /><path d="M 1570,1010 L 1630,1010 L 1705,1010 L 1755,1010 L 1830,1010 L 1890,1010 L 1965,1010 L 2050,1010 L 2050,770 L 1965,770 L 1890,770 L 1830,770 L 1755,770 L 1705,770 L 1630,770 L 1570,770 L 1495,770 L 1445,770 L 1370,770 L 1310,770 L 1235,770 L 1185,770 L 1110,770 L 1050,770 L 975,770 L 890,770 L 890,1010 L 975,1010 L 1050,1010 L 1110,1010 L 1185,1010 L 1235,1010 L 1310,1010 L 1370,1010 L 1445,1010 L 1495,1010 Z" /><path d="M 370,2360 L 370,2600 L 455,2600 L 530,2600 L 590,2600 L 665,2600 L 750,2600 L 750,2360 L 665,2360 L 590,2360 L 530,2360 L 455,2360 Z" /><path d="M 2485,2360 L 2410,2360 L 2350,2360 L 2275,2360 L 2190,2360 L 2190,2600 L 2275,2600 L 2350,2600 L 2410,2600 L 2485,2600 L 2535,2600 L 2610,2600 L 2670,2600 L 2745,2600 L 2830,2600 L 2830,2360 L 2745,2360 L 2670,2360 L 2610,2360 L 2535,2360 Z" /><path d="M 1570,2600 L 1630,2600 L 1705,2600 L 1755,2600 L 1830,2600 L 1890,2600 L 1965,2600 L 2050,2600 L 2050,2360 L 1965,2360 L 1890,2360 L 1830,2360 L 1755,2360 L 1705,2360 L 1630,2360 L 1570,2360 L 1495,2360 L 1445,2360 L 1370,2360 L 1310,2360 L 1235,2360 L 1185,2360 L 1110,2360 L 1050,2360 L 975,2360 L 890,2360 L 890,2600 L 975,2600 L 1050,2600 L 1110,2600 L 1185,2600 L 1235,2600 L 1310,2600 L 1370,2600 L 1445,2600 L 1495,2600 Z" /><path d="M 300,130 L 300,300 L 2900,300 L 7580,300 L 7580,130 L 2900,130 Z" /><path d="M 300,3070 L 300,3240 L 2900,3240 L 7580,3240 L 7580,3070 L 2900,3070 Z" /><path d="M 7090,770 L 7030,770 L 6955,770 L 6905,770 L 6830,770 L 6770,770 L 6695,770 L 6695,1010 L 6770,1010 L 6830,1010 L 6905,1010 L 6955,1010 L 7030,1010 L 7090,1010 L 7165,1010 L 7215,1010 L 7290,1010 L 7350,1010 L 7425,1010 L 7510,1010 L 7510,770 L 7425,770 L 7350,770 L 7290,770 L 7215,770 L 7165,770 Z" /><path d="M 6694,1010 L 6694,770 L 6645,770 L 6570,770 L 6510,770 L 6435,770 L 6350,770 L 6350,1010 L 6435,1010 L 6510,1010 L 6570,1010 L 6645,1010 Z" /><path d="M 7090,2360 L 7030,2360 L 6955,2360 L 6905,2360 L 6830,2360 L 6770,2360 L 6695,2360 L 6695,2600 L 6770,2600 L 6830,2600 L 6905,2600 L 6955,2600 L 7030,2600 L 7090,2600 L 7165,2600 L 7215,2600 L 7290,2600 L 7350,2600 L 7425,2600 L 7510,2600 L 7510,2360 L 7425,2360 L 7350,2360 L 7290,2360 L 7215,2360 L 7165,2360 Z" /><path d="M 6350,2360 L 6350,2600 L 6435,2600 L 6510,2600 L 6570,2600 L 6645,2600 L 6694,2600 L 6694,2360 L 6645,2360 L 6570,2360 L 6510,2360 L 6435,2360 Z" /><path d="M 3575,2360 L 3525,2360 L 3450,2360 L 3390,2360 L 3315,2360 L 3265,2360 L 3190,2360 L 3130,2360 L 3055,2360 L 2970,2360 L 2970,2600 L 3055,2600 L 3130,2600 L 3190,2600 L 3265,2600 L 3315,2600 L 3390,2600 L 3450,2600 L 3525,2600 L 3575,2600 L 3650,2600 L 3710,2600 L 3785,2600 L 3835,2600 L 3910,2600 L 3970,2600 L 4045,2600 L 4095,2600 L 4170,2600 L 4230,2600 L 4305,2600 L 4390,2600 L 4390,2360 L 4305,2360 L 4230,2360 L 4170,2360 L 4095,2360 L 4045,2360 L 3970,2360 L 3910,2360 L 3835,2360 L 3785,2360 L 3710,2360 L 3650,2360 Z" /><path d="M 5990,1130 L 6050,1130 L 6125,1130 L 6210,1130 L 6210,770 L 6125,770 L 6050,770 L 5990,770 L 5915,770 L 5865,770 L 5790,770 L 5730,770 L 5655,770 L 5605,770 L 5530,770 L 5470,770 L 5395,770 L 5345,770 L 5270,770 L 5210,770 L 5135,770 L 5085,770 L 5010,770 L 4950,770 L 4875,770 L 4825,770 L 4750,770 L 4690,770 L 4615,770 L 4530,770 L 4530,1010 L 4615,1010 L 4690,1010 L 4750,1010 L 4825,1010 L 4875,1010 L 4950,1010 L 5010,1010 L 5085,1010 L 5085,1130 L 5135,1130 L 5210,1130 L 5270,1130 L 5345,1130 L 5395,1130 L 5470,1130 L 5530,1130 L 5605,1130 L 5655,1130 L 5730,1130 L 5790,1130 L 5865,1130 L 5915,1130 Z" /><path d="M 3525,1010 L 3525,1130 L 3575,1130 L 3650,1130 L 3710,1130 L 3785,1130 L 3835,1130 L 3910,1130 L 3970,1130 L 4045,1130 L 4095,1130 L 4170,1130 L 4230,1130 L 4305,1130 L 4390,1130 L 4390,770 L 4305,770 L 4230,770 L 4170,770 L 4095,770 L 4045,770 L 3970,770 L 3910,770 L 3835,770 L 3785,770 L 3710,770 L 3650,770 L 3575,770 L 3525,770 L 3450,770 L 3390,770 L 3315,770 L 3265,770 L 3190,770 L 3130,770 L 3055,770 L 2970,770 L 2970,1010 L 3055,1010 L 3130,1010 L 3190,1010 L 3265,1010 L 3315,1010 L 3390,1010 L 3450,1010 Z" /><path d="M 5990,2600 L 6050,2600 L 6125,2600 L 6210,2600 L 6210,2120 L 6125,2120 L 6050,2120 L 5990,2120 L 5915,2120 L 5865,2120 L 5790,2120 L 5730,2120 L 5655,2120 L 5605,2120 L 5530,2120 L 5470,2120 L 5395,2120 L 5345,2120 L 5270,2120 L 5210,2120 L 5135,2120 L 5085,2120 L 5085,2360 L 5010,2360 L 4950,2360 L 4875,2360 L 4825,2360 L 4750,2360 L 4690,2360 L 4615,2360 L 4530,2360 L 4530,2600 L 4615,2600 L 4690,2600 L 4750,2600 L 4825,2600 L 4875,2600 L 4950,2600 L 5010,2600 L 5085,2600 L 5135,2600 L 5210,2600 L 5270,2600 L 5345,2600 L 5395,2600 L 5470,2600 L 5530,2600 L 5605,2600 L 5655,2600 L 5730,2600 L 5790,2600 L 5865,2600 L 5915,2600 Z" /></g></g><g id="PO"><g class="l17d0"><path d="M 1890,1010 L 1890,770 L 1890,630 L 1830,630 L 1830,770 L 1830,1010 L 1830,1150 L 1830,1315 L 1805,1315 L 1805,1485 L 1830,1485 L 1830,2220 L 1830,2360 L 1830,2600 L 1830,2740 L 1890,2740 L 1890,2600 L 1890,2360 L 1890,2220 L 1890,1485 L 1915,1485 L 1915,1315 L 1890,1315 L 1890,1150 Z" /><path d="M 590,1030 L 590,1010 L 590,770 L 590,630 L 530,630 L 530,770 L 530,1010 L 530,1030 L 530,1150 L 530,1315 L 505,1315 L 505,1485 L 530,1485 L 530,2220 L 530,2360 L 530,2600 L 530,2740 L 590,2740 L 590,2600 L 590,2360 L 590,2220 L 590,1485 L 615,1485 L 615,1315 L 590,1315 L 590,1150 Z" /><path d="M 1630,1010 L 1630,770 L 1630,630 L 1570,630 L 1570,770 L 1570,1010 L 1570,1150 L 1570,1885 L 1545,1885 L 1545,2055 L 1570,2055 L 1570,2220 L 1570,2360 L 1570,2600 L 1570,2740 L 1630,2740 L 1630,2600 L 1630,2360 L 1630,2220 L 1630,2055 L 1655,2055 L 1655,1885 L 1630,1885 L 1630,1150 Z" /><path d="M 1110,1010 L 1110,770 L 1110,630 L 1050,630 L 1050,770 L 1050,1010 L 1050,1150 L 1050,1885 L 1025,1885 L 1025,2055 L 1050,2055 L 1050,2220 L 1050,2360 L 1050,2600 L 1050,2740 L 1110,2740 L 1110,2600 L 1110,2360 L 1110,2220 L 1110,2055 L 1135,2055 L 1135,1885 L 1110,1885 L 1110,1150 Z" /><path d="M 2670,1010 L 2670,770 L 2670,630 L 2610,630 L 2610,770 L 2610,1010 L 2610,1150 L 2610,1505 L 2585,1505 L 2585,1675 L 2610,1675 L 2610,2220 L 2610,2360 L 2610,2600 L 2610,2740 L 2670,2740 L 2670,2600 L 2670,2360 L 2670,2220 L 2670,1675 L 2695,1675 L 2695,1505 L 2670,1505 L 2670,1150 Z" /><path d="M 2410,1150 L 2410,1010 L 2410,770 L 2410,630 L 2350,630 L 2350,770 L 2350,1010 L 2350,1150 L 2350,1695 L 2325,1695 L 2325,1865 L 2350,1865 L 2350,2220 L 2350,2360 L 2350,2600 L 2350,2740 L 2410,2740 L 2410,2600 L 2410,2360 L 2410,2220 L 2409,2220 L 2409,1865 L 2435,1865 L 2435,1695 L 2409,1695 L 2409,1150 Z" /><path d="M 1370,1010 L 1370,770 L 1370,630 L 1310,630 L 1310,770 L 1310,1010 L 1310,1150 L 1310,1695 L 1285,1695 L 1285,1865 L 1310,1865 L 1310,2220 L 1310,2360 L 1310,2600 L 1310,2740 L 1370,2740 L 1370,2600 L 1370,2360 L 1370,2220 L 1370,1865 L 1395,1865 L 1395,1695 L 1370,1695 L 1370,1150 Z" /><path d="M 3190,1010 L 3190,770 L 3190,630 L 3130,630 L 3130,770 L 3130,1010 L 3130,1150 L 3130,1505 L 3105,1505 L 3105,1675 L 3130,1675 L 3130,2220 L 3130,2360 L 3130,2600 L 3130,2740 L 3190,2740 L 3190,2600 L 3190,2360 L 3190,2220 L 3190,1675 L 3215,1675 L 3215,1505 L 3190,1505 L 3190,1150 Z" /><path d="M 4750,1010 L 4750,770 L 4750,630 L 4690,630 L 4690,770 L 4690,1010 L 4690,1150 L 4690,1400 L 4690,2110 L 4665,2110 L 4665,2280 L 4690,2280 L 4690,2360 L 4690,2600 L 4690,2740 L 4750,2740 L 4750,2600 L 4750,2360 L 4750,2280 L 4775,2280 L 4775,2110 L 4750,2110 L 4750,1400 L 4750,1150 Z" /><path d="M 3390,2360 L 3390,2600 L 3390,2740 L 3450,2740 L 3450,2600 L 3450,2360 L 3450,2220 L 3450,2055 L 3475,2055 L 3475,1885 L 3450,1885 L 3450,1150 L 3450,1010 L 3450,770 L 3450,630 L 3390,630 L 3390,770 L 3390,1010 L 3390,1150 L 3390,1885 L 3365,1885 L 3365,2055 L 3390,2055 L 3390,2220 Z" /><path d="M 3650,2360 L 3650,2600 L 3650,2740 L 3710,2740 L 3710,2600 L 3710,2360 L 3710,2220 L 3710,1865 L 3740,1865 L 3740,1695 L 3710,1695 L 3710,1270 L 3710,1130 L 3710,770 L 3710,630 L 3650,630 L 3650,770 L 3650,1130 L 3650,1270 L 3650,1695 L 3620,1695 L 3620,1865 L 3650,1865 L 3650,2220 Z" /><path d="M 5270,1130 L 5270,770 L 5270,630 L 5210,630 L 5210,770 L 5210,1130 L 5210,1270 L 5210,1315 L 5180,1315 L 5180,1485 L 5210,1485 L 5210,1980 L 5210,2120 L 5210,2600 L 5210,2740 L 5270,2740 L 5270,2600 L 5270,2120 L 5270,1980 L 5270,1485 L 5300,1485 L 5300,1315 L 5270,1315 L 5270,1270 Z" /><path d="M 5530,1270 L 5530,1130 L 5530,770 L 5530,630 L 5470,630 L 5470,770 L 5470,1130 L 5470,1270 L 5470,1695 L 5440,1695 L 5440,1865 L 5470,1865 L 5470,1980 L 5470,2120 L 5470,2600 L 5470,2740 L 5530,2740 L 5530,2600 L 5530,2120 L 5530,1980 L 5529,1980 L 5529,1865 L 5560,1865 L 5560,1695 L 5529,1695 L 5529,1270 Z" /><path d="M 5010,1150 L 5010,1010 L 5010,770 L 5010,630 L 4950,630 L 4950,770 L 4950,1010 L 4950,1150 L 4950,1695 L 4920,1695 L 4920,1865 L 4950,1865 L 4950,2220 L 4950,2360 L 4950,2600 L 4950,2740 L 5010,2740 L 5010,2600 L 5010,2360 L 5010,2220 L 5009,2220 L 5009,1865 L 5040,1865 L 5040,1695 L 5009,1695 L 5009,1150 Z" /><path d="M 4170,2360 L 4170,2600 L 4170,2740 L 4230,2740 L 4230,2600 L 4230,2360 L 4230,2220 L 4230,1865 L 4260,1865 L 4260,1695 L 4230,1695 L 4230,1270 L 4230,1130 L 4230,770 L 4230,630 L 4170,630 L 4170,770 L 4170,1130 L 4170,1270 L 4170,1695 L 4140,1695 L 4140,1865 L 4170,1865 L 4170,2220 Z" /><path d="M 3910,2360 L 3910,2600 L 3910,2740 L 3970,2740 L 3970,2600 L 3970,2360 L 3970,2220 L 3970,1485 L 4000,1485 L 4000,1315 L 3970,1315 L 3970,1270 L 3970,1130 L 3970,770 L 3970,630 L 3910,630 L 3910,770 L 3910,1130 L 3910,1270 L 3910,1315 L 3880,1315 L 3880,1485 L 3910,1485 L 3910,2220 Z" /><path d="M 6050,1270 L 6050,1130 L 6050,770 L 6050,630 L 5990,630 L 5990,770 L 5990,1130 L 5990,1270 L 5990,1505 L 5960,1505 L 5960,1675 L 5990,1675 L 5990,1980 L 5990,2120 L 5990,2600 L 5990,2740 L 6050,2740 L 6050,2600 L 6050,2120 L 6050,1980 L 6049,1980 L 6049,1675 L 6080,1675 L 6080,1505 L 6049,1505 L 6049,1270 Z" /><path d="M 7090,1010 L 7090,770 L 7090,630 L 7030,630 L 7030,770 L 7030,1010 L 7030,1150 L 7030,2110 L 7000,2110 L 7000,2280 L 7030,2280 L 7030,2360 L 7030,2600 L 7030,2740 L 7090,2740 L 7090,2600 L 7090,2360 L 7090,2280 L 7120,2280 L 7120,2110 L 7090,2110 L 7090,1150 Z" /><path d="M 5790,1130 L 5790,770 L 5790,630 L 5730,630 L 5730,770 L 5730,1130 L 5730,1270 L 5730,1885 L 5700,1885 L 5700,2055 L 5730,2055 L 5730,2120 L 5730,2600 L 5730,2740 L 5790,2740 L 5790,2600 L 5790,2120 L 5790,2055 L 5820,2055 L 5820,1885 L 5790,1885 L 5790,1270 Z" /><path d="M 7290,2220 L 7290,2360 L 7290,2600 L 7290,2740 L 7350,2740 L 7350,2600 L 7350,2360 L 7350,2220 L 7350,1865 L 7380,1865 L 7380,1695 L 7350,1695 L 7350,1150 L 7350,1010 L 7350,770 L 7350,630 L 7290,630 L 7290,770 L 7290,1010 L 7290,1150 L 7289,1150 L 7289,1695 L 7260,1695 L 7260,1865 L 7289,1865 L 7289,2220 Z" /><path d="M 6830,1010 L 6830,770 L 6830,630 L 6770,630 L 6770,770 L 6770,1010 L 6770,1150 L 6770,1505 L 6740,1505 L 6740,1675 L 6770,1675 L 6770,2220 L 6770,2360 L 6770,2600 L 6770,2740 L 6830,2740 L 6830,2600 L 6830,2360 L 6830,2220 L 6830,1675 L 6860,1675 L 6860,1505 L 6830,1505 L 6830,1150 Z" /><path d="M 6570,1150 L 6570,1010 L 6570,770 L 6570,630 L 6510,630 L 6510,770 L 6510,1010 L 6510,1150 L 6510,1885 L 6480,1885 L 6480,2055 L 6510,2055 L 6510,2220 L 6510,2360 L 6510,2600 L 6510,2740 L 6570,2740 L 6570,2600 L 6570,2360 L 6570,2220 L 6569,2220 L 6569,2055 L 6600,2055 L 6600,1885 L 6569,1885 L 6569,1150 Z" /></g></g><g id="CO"><g class="l30d0"><path d="M 1685,2435 L 1775,2435 L 1775,2525 L 1685,2525 Z" /><path d="M 1165,2435 L 1255,2435 L 1255,2525 L 1165,2525 Z" /><path d="M 2725,845 L 2815,845 L 2815,935 L 2725,935 Z" /><path d="M 2205,845 L 2295,845 L 2295,935 L 2205,935 Z" /><path d="M 1945,845 L 2035,845 L 2035,935 L 1945,935 Z" /><path d="M 1425,845 L 1515,845 L 1515,935 L 1425,935 Z" /><path d="M 905,845 L 995,845 L 995,935 L 905,935 Z" /><path d="M 645,845 L 735,845 L 735,935 L 645,935 Z" /><path d="M 385,845 L 475,845 L 475,935 L 385,935 Z" /><path d="M 385,2435 L 475,2435 L 475,2525 L 385,2525 Z" /><path d="M 645,2435 L 735,2435 L 735,2525 L 645,2525 Z" /><path d="M 905,2435 L 995,2435 L 995,2525 L 905,2525 Z" /><path d="M 1425,2435 L 1515,2435 L 1515,2525 L 1425,2525 Z" /><path d="M 1945,2435 L 2035,2435 L 2035,2525 L 1945,2525 Z" /><path d="M 2205,2435 L 2295,2435 L 2295,2525 L 2205,2525 Z" /><path d="M 2725,2435 L 2815,2435 L 2815,2525 L 2725,2525 Z" /><path d="M 2465,2435 L 2555,2435 L 2555,2525 L 2465,2525 Z" /><path d="M 385,170 L 475,170 L 475,260 L 385,260 Z" /><path d="M 645,170 L 735,170 L 735,260 L 645,260 Z" /><path d="M 905,170 L 995,170 L 995,260 L 905,260 Z" /><path d="M 1165,170 L 1255,170 L 1255,260 L 1165,260 Z" /><path d="M 1425,170 L 1515,170 L 1515,260 L 1425,260 Z" /><path d="M 1685,170 L 1775,170 L 1775,260 L 1685,260 Z" /><path d="M 1945,170 L 2035,170 L 2035,260 L 1945,260 Z" /><path d="M 2205,170 L 2295,170 L 2295,260 L 2205,260 Z" /><path d="M 2725,170 L 2815,170 L 2815,260 L 2725,260 Z" /><path d="M 2465,170 L 2555,170 L 2555,260 L 2465,260 Z" /><path d="M 385,3110 L 475,3110 L 475,3200 L 385,3200 Z" /><path d="M 645,3110 L 735,3110 L 735,3200 L 645,3200 Z" /><path d="M 905,3110 L 995,3110 L 995,3200 L 905,3200 Z" /><path d="M 1165,3110 L 1255,3110 L 1255,3200 L 1165,3200 Z" /><path d="M 1425,3110 L 1515,3110 L 1515,3200 L 1425,3200 Z" /><path d="M 1685,3110 L 1775,3110 L 1775,3200 L 1685,3200 Z" /><path d="M 1945,3110 L 2035,3110 L 2035,3200 L 1945,3200 Z" /><path d="M 2205,3110 L 2295,3110 L 2295,3200 L 2205,3200 Z" /><path d="M 2725,3110 L 2815,3110 L 2815,3200 L 2725,3200 Z" /><path d="M 2465,3110 L 2555,3110 L 2555,3200 L 2465,3200 Z" /><path d="M 1815,1355 L 1905,1355 L 1905,1445 L 1815,1445 Z" /><path d="M 515,1355 L 605,1355 L 605,1445 L 515,1445 Z" /><path d="M 1555,1925 L 1645,1925 L 1645,2015 L 1555,2015 Z" /><path d="M 1035,1925 L 1125,1925 L 1125,2015 L 1035,2015 Z" /><path d="M 2595,1545 L 2685,1545 L 2685,1635 L 2595,1635 Z" /><path d="M 2335,1735 L 2425,1735 L 2425,1825 L 2335,1825 Z" /><path d="M 1295,1735 L 1385,1735 L 1385,1825 L 1295,1825 Z" /><path d="M 5845,2480 L 5935,2480 L 5935,2570 L 5845,2570 Z" /><path d="M 5325,2480 L 5415,2480 L 5415,2570 L 5325,2570 Z" /><path d="M 7145,2435 L 7235,2435 L 7235,2525 L 7145,2525 Z" /><path d="M 6885,2435 L 6975,2435 L 6975,2525 L 6885,2525 Z" /><path d="M 6625,2435 L 6715,2435 L 6715,2525 L 6625,2525 Z" /><path d="M 5585,2150 L 5675,2150 L 5675,2240 L 5585,2240 Z" /><path d="M 5585,2480 L 5675,2480 L 5675,2570 L 5585,2570 Z" /><path d="M 7405,170 L 7495,170 L 7495,260 L 7405,260 Z" /><path d="M 7145,170 L 7235,170 L 7235,260 L 7145,260 Z" /><path d="M 6885,170 L 6975,170 L 6975,260 L 6885,260 Z" /><path d="M 6625,170 L 6715,170 L 6715,260 L 6625,260 Z" /><path d="M 6365,170 L 6455,170 L 6455,260 L 6365,260 Z" /><path d="M 6105,170 L 6195,170 L 6195,260 L 6105,260 Z" /><path d="M 5845,170 L 5935,170 L 5935,260 L 5845,260 Z" /><path d="M 5585,170 L 5675,170 L 5675,260 L 5585,260 Z" /><path d="M 5325,170 L 5415,170 L 5415,260 L 5325,260 Z" /><path d="M 5065,170 L 5155,170 L 5155,260 L 5065,260 Z" /><path d="M 4805,170 L 4895,170 L 4895,260 L 4805,260 Z" /><path d="M 4545,170 L 4635,170 L 4635,260 L 4545,260 Z" /><path d="M 4285,170 L 4375,170 L 4375,260 L 4285,260 Z" /><path d="M 4025,170 L 4115,170 L 4115,260 L 4025,260 Z" /><path d="M 3765,170 L 3855,170 L 3855,260 L 3765,260 Z" /><path d="M 3505,170 L 3595,170 L 3595,260 L 3505,260 Z" /><path d="M 3245,170 L 3335,170 L 3335,260 L 3245,260 Z" /><path d="M 2985,170 L 3075,170 L 3075,260 L 2985,260 Z" /><path d="M 7405,3110 L 7495,3110 L 7495,3200 L 7405,3200 Z" /><path d="M 3245,2435 L 3335,2435 L 3335,2525 L 3245,2525 Z" /><path d="M 4025,2435 L 4115,2435 L 4115,2525 L 4025,2525 Z" /><path d="M 3765,2435 L 3855,2435 L 3855,2525 L 3765,2525 Z" /><path d="M 3505,2435 L 3595,2435 L 3595,2525 L 3505,2525 Z" /><path d="M 4025,3110 L 4115,3110 L 4115,3200 L 4025,3200 Z" /><path d="M 2985,3110 L 3075,3110 L 3075,3200 L 2985,3200 Z" /><path d="M 3245,3110 L 3335,3110 L 3335,3200 L 3245,3200 Z" /><path d="M 3505,3110 L 3595,3110 L 3595,3200 L 3505,3200 Z" /><path d="M 3765,3110 L 3855,3110 L 3855,3200 L 3765,3200 Z" /><path d="M 7145,3110 L 7235,3110 L 7235,3200 L 7145,3200 Z" /><path d="M 5845,3110 L 5935,3110 L 5935,3200 L 5845,3200 Z" /><path d="M 6105,3110 L 6195,3110 L 6195,3200 L 6105,3200 Z" /><path d="M 6365,3110 L 6455,3110 L 6455,3200 L 6365,3200 Z" /><path d="M 6625,3110 L 6715,3110 L 6715,3200 L 6625,3200 Z" /><path d="M 6885,3110 L 6975,3110 L 6975,3200 L 6885,3200 Z" /><path d="M 4805,2435 L 4895,2435 L 4895,2525 L 4805,2525 Z" /><path d="M 5585,3110 L 5675,3110 L 5675,3200 L 5585,3200 Z" /><path d="M 4285,3110 L 4375,3110 L 4375,3200 L 4285,3200 Z" /><path d="M 4545,3110 L 4635,3110 L 4635,3200 L 4545,3200 Z" /><path d="M 4805,3110 L 4895,3110 L 4895,3200 L 4805,3200 Z" /><path d="M 5065,3110 L 5155,3110 L 5155,3200 L 5065,3200 Z" /><path d="M 5325,3110 L 5415,3110 L 5415,3200 L 5325,3200 Z" /><path d="M 7405,845 L 7495,845 L 7495,935 L 7405,935 Z" /><path d="M 6365,845 L 6455,845 L 6455,935 L 6365,935 Z" /><path d="M 6105,1010 L 6195,1010 L 6195,1100 L 6105,1100 Z" /><path d="M 6105,800 L 6195,800 L 6195,890 L 6105,890 Z" /><path d="M 5325,800 L 5415,800 L 5415,890 L 5325,890 Z" /><path d="M 5065,845 L 5155,845 L 5155,935 L 5065,935 Z" /><path d="M 4545,845 L 4635,845 L 4635,935 L 4545,935 Z" /><path d="M 4285,1010 L 4375,1010 L 4375,1100 L 4285,1100 Z" /><path d="M 4285,800 L 4375,800 L 4375,890 L 4285,890 Z" /><path d="M 6885,845 L 6975,845 L 6975,935 L 6885,935 Z" /><path d="M 2985,845 L 3075,845 L 3075,935 L 2985,935 Z" /><path d="M 2985,2435 L 3075,2435 L 3075,2525 L 2985,2525 Z" /><path d="M 7405,2435 L 7495,2435 L 7495,2525 L 7405,2525 Z" /><path d="M 6365,2435 L 6455,2435 L 6455,2525 L 6365,2525 Z" /><path d="M 6105,2150 L 6195,2150 L 6195,2240 L 6105,2240 Z" /><path d="M 5325,1010 L 5415,1010 L 5415,1100 L 5325,1100 Z" /><path d="M 5065,2435 L 5155,2435 L 5155,2525 L 5065,2525 Z" /><path d="M 4545,2435 L 4635,2435 L 4635,2525 L 4545,2525 Z" /><path d="M 4285,2435 L 4375,2435 L 4375,2525 L 4285,2525 Z" /><path d="M 3505,845 L 3595,845 L 3595,935 L 3505,935 Z" /><path d="M 6105,2480 L 6195,2480 L 6195,2570 L 6105,2570 Z" /><path d="M 3115,1545 L 3205,1545 L 3205,1635 L 3115,1635 Z" /><path d="M 4675,2150 L 4765,2150 L 4765,2240 L 4675,2240 Z" /><path d="M 3375,1925 L 3465,1925 L 3465,2015 L 3375,2015 Z" /><path d="M 3635,1735 L 3725,1735 L 3725,1825 L 3635,1825 Z" /><path d="M 5195,1355 L 5285,1355 L 5285,1445 L 5195,1445 Z" /><path d="M 5455,1735 L 5545,1735 L 5545,1825 L 5455,1825 Z" /><path d="M 4935,1735 L 5025,1735 L 5025,1825 L 4935,1825 Z" /><path d="M 4155,1735 L 4245,1735 L 4245,1825 L 4155,1825 Z" /><path d="M 3895,1355 L 3985,1355 L 3985,1445 L 3895,1445 Z" /><path d="M 5975,1545 L 6065,1545 L 6065,1635 L 5975,1635 Z" /><path d="M 7015,2150 L 7105,2150 L 7105,2240 L 7015,2240 Z" /><path d="M 5715,1925 L 5805,1925 L 5805,2015 L 5715,2015 Z" /><path d="M 7275,1735 L 7365,1735 L 7365,1825 L 7275,1825 Z" /><path d="M 6755,1545 L 6845,1545 L 6845,1635 L 6755,1635 Z" /><path d="M 6495,1925 L 6585,1925 L 6585,2015 L 6495,2015 Z" /></g></g><g id="M1"><g class="l31d0"><path d="M 2460,2390 L 2460,2395 L 2460,2565 L 2460,2570 L 2460,2810 L 2560,2810 L 2560,2570 L 2560,2565 L 2560,2395 L 2560,2390 Z" /><path d="M 2720,560 L 2720,800 L 2720,805 L 2720,975 L 2720,980 L 2820,980 L 2820,975 L 2820,805 L 2820,800 L 2820,560 Z" /><path d="M 1680,2390 L 1680,2395 L 1680,2565 L 1680,2570 L 1680,2810 L 1780,2810 L 1780,2570 L 1780,2565 L 1780,2395 L 1780,2390 Z" /><path d="M 1940,560 L 1940,800 L 1940,805 L 1940,975 L 1940,980 L 2040,980 L 2040,975 L 2040,805 L 2040,800 L 2040,560 Z" /><path d="M 900,560 L 900,800 L 900,805 L 900,975 L 900,980 L 1000,980 L 1000,975 L 1000,805 L 1000,800 L 1000,560 Z" /><path d="M 1160,2390 L 1160,2395 L 1160,2565 L 1160,2570 L 1160,2810 L 1260,2810 L 1260,2570 L 1260,2565 L 1260,2395 L 1260,2390 Z" /><path d="M 640,560 L 640,800 L 640,805 L 640,975 L 640,980 L 740,980 L 740,975 L 740,805 L 740,800 L 740,560 Z" /><path d="M 640,2390 L 640,2395 L 640,2565 L 640,2570 L 640,2810 L 740,2810 L 740,2570 L 740,2565 L 740,2395 L 740,2390 Z" /><path d="M 1040,1540 L 950,1540 L 860,1540 L 860,1640 L 950,1640 L 1040,1640 L 2555,1640 L 2640,1640 L 2725,1640 L 2725,1540 L 2640,1540 L 2555,1540 Z" /><path d="M 780,1730 L 690,1730 L 600,1730 L 600,1830 L 690,1830 L 780,1830 L 1255,1830 L 1340,1830 L 1425,1830 L 1425,1730 L 1340,1730 L 1255,1730 Z" /><path d="M 1820,1730 L 1730,1730 L 1640,1730 L 1640,1830 L 1730,1830 L 1820,1830 L 2295,1830 L 2380,1830 L 2465,1830 L 2465,1730 L 2380,1730 L 2295,1730 Z" /><path d="M 5840,2575 L 5840,2700 L 5420,2700 L 5420,2575 L 5420,2440 L 5320,2440 L 5320,2575 L 5320,2700 L 5320,2800 L 5420,2800 L 5840,2800 L 5940,2800 L 5940,2700 L 5940,2575 L 5940,2440 L 5840,2440 Z" /><path d="M 290,310 L 380,310 L 380,805 L 380,975 L 480,975 L 480,805 L 480,310 L 1420,310 L 1420,805 L 1420,975 L 1520,975 L 1520,805 L 1520,310 L 2200,310 L 2200,805 L 2200,975 L 2300,975 L 2300,805 L 2300,310 L 2890,310 L 2910,310 L 3500,310 L 3500,840 L 3500,975 L 3600,975 L 3600,840 L 3600,310 L 5060,310 L 5060,840 L 5060,975 L 5160,975 L 5160,840 L 5160,310 L 6100,310 L 6100,795 L 6100,1140 L 6200,1140 L 6200,795 L 6200,310 L 6880,310 L 6880,840 L 6880,975 L 6980,975 L 6980,840 L 6980,310 L 7590,310 L 7590,120 L 2910,120 L 2890,120 L 290,120 Z" /><path d="M 2820,2395 L 2720,2395 L 2720,2565 L 2720,3060 L 2300,3060 L 2300,2565 L 2300,2395 L 2200,2395 L 2200,2565 L 2200,3060 L 2040,3060 L 2040,2565 L 2040,2395 L 1940,2395 L 1940,2565 L 1940,3060 L 1520,3060 L 1520,2565 L 1520,2395 L 1420,2395 L 1420,2565 L 1420,3060 L 1000,3060 L 1000,2565 L 1000,2395 L 900,2395 L 900,2565 L 900,3060 L 480,3060 L 480,2565 L 480,2395 L 380,2395 L 380,2565 L 380,3060 L 290,3060 L 290,3250 L 2890,3250 L 2910,3250 L 7590,3250 L 7590,3060 L 7500,3060 L 7500,2530 L 7500,2395 L 7400,2395 L 7400,2530 L 7400,3060 L 6980,3060 L 6980,2530 L 6980,2395 L 6880,2395 L 6880,2530 L 6880,3060 L 6460,3060 L 6460,2530 L 6460,2395 L 6360,2395 L 6360,2530 L 6360,3060 L 5160,3060 L 5160,2530 L 5160,2395 L 5060,2395 L 5060,2530 L 5060,3060 L 4640,3060 L 4640,2530 L 4640,2395 L 4540,2395 L 4540,2530 L 4540,3060 L 4120,3060 L 4120,2530 L 4120,2395 L 4020,2395 L 4020,2530 L 4020,3060 L 3600,3060 L 3600,2530 L 3600,2395 L 3500,2395 L 3500,2530 L 3500,3060 L 3080,3060 L 3080,2530 L 3080,2395 L 2980,2395 L 2980,2530 L 2980,3060 L 2910,3060 L 2890,3060 L 2820,3060 L 2820,2565 Z" /><path d="M 4800,2390 L 4800,2570 L 4800,2810 L 4900,2810 L 4900,2570 L 4900,2390 Z" /><path d="M 4380,720 L 4280,720 L 4280,860 L 4280,1040 L 4280,1140 L 4380,1140 L 4380,1040 L 4380,860 Z" /><path d="M 3240,2390 L 3240,2570 L 3240,2810 L 3340,2810 L 3340,2570 L 3340,2390 Z" /><path d="M 6620,2390 L 6620,2570 L 6620,2810 L 6720,2810 L 6720,2570 L 6720,2390 Z" /><path d="M 7140,2390 L 7140,2570 L 7140,2810 L 7240,2810 L 7240,2570 L 7240,2390 Z" /><path d="M 5420,720 L 5320,720 L 5320,860 L 5320,1040 L 5320,1140 L 5420,1140 L 5420,1040 L 5420,860 Z" /><path d="M 4505,940 L 4640,940 L 4760,940 L 4850,940 L 4940,940 L 4940,840 L 4850,840 L 4760,840 L 4640,840 L 4505,840 Z" /><path d="M 2945,940 L 3200,940 L 3290,940 L 3380,940 L 3380,840 L 3290,840 L 3200,840 L 2945,840 Z" /><path d="M 6325,940 L 6460,940 L 6580,940 L 6670,940 L 6760,940 L 6760,840 L 6670,840 L 6580,840 L 6460,840 L 6325,840 Z" /><path d="M 7535,840 L 7400,840 L 7280,840 L 7190,840 L 7100,840 L 7100,940 L 7190,940 L 7280,940 L 7400,940 L 7535,940 Z" /><path d="M 5350,1830 L 5415,1830 L 5540,1830 L 5585,1830 L 5720,1830 L 5770,1830 L 5770,1730 L 5720,1730 L 5585,1730 L 5540,1730 L 5415,1730 L 5350,1730 Z" /><path d="M 3875,1830 L 3980,1830 L 4115,1830 L 4160,1830 L 4285,1830 L 4295,1830 L 4295,1730 L 4285,1730 L 4160,1730 L 4115,1730 L 3980,1730 L 3875,1730 Z" /><path d="M 3855,1450 L 3940,1450 L 4025,1450 L 4025,1350 L 3940,1350 L 3855,1350 L 3380,1350 L 3290,1350 L 3200,1350 L 3200,1450 L 3290,1450 L 3380,1450 Z" /><path d="M 3245,1540 L 3160,1540 L 3075,1540 L 3075,1640 L 3160,1640 L 3245,1640 L 4760,1640 L 4850,1640 L 4940,1640 L 5935,1640 L 6020,1640 L 6105,1640 L 6105,1540 L 6020,1540 L 5935,1540 L 4940,1540 L 4850,1540 L 4760,1540 Z" /><path d="M 5545,2245 L 5580,2245 L 5580,2475 L 5580,2610 L 5680,2610 L 5680,2475 L 5680,2245 L 6100,2245 L 6100,2475 L 6100,2610 L 6200,2610 L 6200,2475 L 6200,2245 L 6235,2245 L 6235,2244 L 6975,2244 L 6975,2245 L 7145,2245 L 7145,2145 L 7060,2145 L 6975,2145 L 6235,2145 L 5545,2145 L 5460,2145 L 5370,2145 L 5280,2145 L 4805,2145 L 4720,2145 L 4635,2145 L 4635,2245 L 4805,2245 L 4805,2244 L 5280,2244 L 5280,2245 L 5460,2245 L 5460,2244 L 5545,2244 Z" /><path d="M 7235,1730 L 6760,1730 L 6670,1730 L 6580,1730 L 6580,1830 L 6670,1830 L 6760,1830 L 7235,1830 L 7320,1830 L 7405,1830 L 7405,1730 L 7320,1730 Z" /><path d="M 6885,1640 L 7100,1640 L 7190,1640 L 7280,1640 L 7280,1540 L 7190,1540 L 7100,1540 L 6885,1540 L 6800,1540 L 6715,1540 L 6715,1640 L 6800,1640 Z" /><path d="M 5675,2020 L 5845,2020 L 6455,2020 L 6540,2020 L 6625,2020 L 6625,1920 L 6540,1920 L 6455,1920 L 5845,1920 L 5675,1920 L 4420,1920 L 4330,1920 L 4240,1920 L 3505,1920 L 3420,1920 L 3335,1920 L 3335,2020 L 3420,2020 L 3505,2020 L 3760,2020 L 3760,2565 L 3860,2565 L 3860,2020 L 4240,2020 L 4280,2020 L 4280,2565 L 4380,2565 L 4380,2020 L 4420,2020 Z" /><path d="M 740,1920 L 520,1920 L 475,1920 L 340,1920 L 340,2020 L 475,2020 L 520,2020 L 740,2020 L 995,2020 L 1030,2020 L 1160,2020 L 1165,2020 L 1165,1920 L 1160,1920 L 1030,1920 L 995,1920 Z" /><path d="M 1775,1450 L 1860,1450 L 1945,1450 L 2160,1450 L 2250,1450 L 2340,1450 L 2340,1350 L 2250,1350 L 2160,1350 L 1945,1350 L 1860,1350 L 1775,1350 L 645,1350 L 610,1350 L 510,1350 L 475,1350 L 475,1450 L 510,1450 L 610,1450 L 645,1450 Z" /><path d="M 1560,2020 L 1685,2020 L 1935,2020 L 1935,1920 L 1685,1920 L 1560,1920 L 1515,1920 L 1380,1920 L 1380,2020 L 1515,2020 Z" /><path d="M 5155,1450 L 5200,1450 L 5325,1450 L 5450,1450 L 5450,1350 L 5325,1350 L 5200,1350 L 5155,1350 L 5030,1350 L 5020,1350 L 5020,1450 L 5030,1450 Z" /><path d="M 3345,1830 L 3460,1830 L 3595,1830 L 3640,1830 L 3765,1830 L 3765,1730 L 3640,1730 L 3595,1730 L 3460,1730 L 3345,1730 Z" /><path d="M 4770,1730 L 4680,1730 L 4640,1730 L 4500,1730 L 4500,1830 L 4640,1830 L 4680,1830 L 4770,1830 L 4895,1830 L 4930,1830 L 5065,1830 L 5190,1830 L 5190,1730 L 5065,1730 L 4930,1730 L 4895,1730 Z" /></g></g><g id="VIA1"><g class="l51d0"><path d="M 2460,2430 L 2560,2430 L 2560,2530 L 2460,2530 Z" /><path d="M 2720,840 L 2820,840 L 2820,940 L 2720,940 Z" /><path d="M 1680,2430 L 1780,2430 L 1780,2530 L 1680,2530 Z" /><path d="M 1940,840 L 2040,840 L 2040,940 L 1940,940 Z" /><path d="M 900,840 L 1000,840 L 1000,940 L 900,940 Z" /><path d="M 1160,2430 L 1260,2430 L 1260,2530 L 1160,2530 Z" /><path d="M 640,840 L 740,840 L 740,940 L 640,940 Z" /><path d="M 640,2430 L 740,2430 L 740,2530 L 640,2530 Z" /><path d="M 900,1540 L 1000,1540 L 1000,1640 L 900,1640 Z" /><path d="M 640,1730 L 740,1730 L 740,1830 L 640,1830 Z" /><path d="M 1680,1730 L 1780,1730 L 1780,1830 L 1680,1830 Z" /><path d="M 4800,2430 L 4900,2430 L 4900,2530 L 4800,2530 Z" /><path d="M 4280,900 L 4380,900 L 4380,1000 L 4280,1000 Z" /><path d="M 3240,2430 L 3340,2430 L 3340,2530 L 3240,2530 Z" /><path d="M 6620,2430 L 6720,2430 L 6720,2530 L 6620,2530 Z" /><path d="M 7140,2430 L 7240,2430 L 7240,2530 L 7140,2530 Z" /><path d="M 5320,900 L 5420,900 L 5420,1000 L 5320,1000 Z" /><path d="M 4020,1730 L 4120,1730 L 4120,1830 L 4020,1830 Z" /><path d="M 5580,1730 L 5680,1730 L 5680,1830 L 5580,1830 Z" /><path d="M 4800,1540 L 4900,1540 L 4900,1640 L 4800,1640 Z" /><path d="M 4800,840 L 4900,840 L 4900,940 L 4800,940 Z" /><path d="M 4280,1920 L 4380,1920 L 4380,2020 L 4280,2020 Z" /><path d="M 3240,1350 L 3340,1350 L 3340,1450 L 3240,1450 Z" /><path d="M 3240,840 L 3340,840 L 3340,940 L 3240,940 Z" /><path d="M 7140,1540 L 7240,1540 L 7240,1640 L 7140,1640 Z" /><path d="M 6620,1730 L 6720,1730 L 6720,1830 L 6620,1830 Z" /><path d="M 6620,840 L 6720,840 L 6720,940 L 6620,940 Z" /><path d="M 7140,840 L 7240,840 L 7240,940 L 7140,940 Z" /><path d="M 5320,2145 L 5420,2145 L 5420,2245 L 5320,2245 Z" /><path d="M 380,1920 L 480,1920 L 480,2020 L 380,2020 Z" /><path d="M 2200,1350 L 2300,1350 L 2300,1450 L 2200,1450 Z" /><path d="M 1420,1920 L 1520,1920 L 1520,2020 L 1420,2020 Z" /><path d="M 5060,1350 L 5160,1350 L 5160,1450 L 5060,1450 Z" /><path d="M 3500,1730 L 3600,1730 L 3600,1830 L 3500,1830 Z" /><path d="M 4540,1730 L 4640,1730 L 4640,1830 L 4540,1830 Z" /></g></g><g id="M2"><g class="l32d0"><path d="M 1160,2480 L 1160,2570 L 1260,2570 L 1260,2480 L 1260,2390 L 1260,1735 L 1260,1635 L 1160,1635 L 1000,1635 L 1000,1590 L 1000,1500 L 1000,980 L 1000,890 L 1000,800 L 900,800 L 900,890 L 900,980 L 900,1500 L 900,1590 L 900,1635 L 900,1680 L 900,1735 L 1000,1735 L 1160,1735 L 1160,2390 Z" /><path d="M 740,830 L 740,800 L 640,800 L 640,830 L 640,980 L 640,1690 L 640,1780 L 640,1870 L 640,2390 L 640,2480 L 640,2570 L 740,2570 L 740,2480 L 740,2390 L 740,1870 L 740,1780 L 740,1690 L 740,980 Z" /><path d="M 1680,2570 L 1780,2570 L 1780,2480 L 1780,2390 L 1780,1870 L 1780,1780 L 1780,1735 L 1940,1735 L 2040,1735 L 2040,1635 L 2040,980 L 2040,890 L 2040,800 L 1940,800 L 1940,890 L 1940,980 L 1940,1635 L 1780,1635 L 1680,1635 L 1680,1690 L 1680,1735 L 1680,1780 L 1680,1870 L 1680,2390 L 1680,2480 Z" /><path d="M 4900,1590 L 4900,1500 L 4900,980 L 4900,890 L 4900,800 L 4800,800 L 4800,890 L 4800,980 L 4800,1500 L 4800,1590 L 4800,1680 L 4800,2390 L 4800,2480 L 4800,2570 L 4900,2570 L 4900,2480 L 4900,2390 L 4900,1680 Z" /><path d="M 4280,1880 L 4280,1970 L 4280,2060 L 4380,2060 L 4380,1970 L 4380,1880 L 4380,1040 L 4380,950 L 4380,860 L 4280,860 L 4280,950 L 4280,1040 Z" /><path d="M 3340,1400 L 3340,1310 L 3340,980 L 3340,890 L 3340,800 L 3240,800 L 3240,890 L 3240,980 L 3240,1310 L 3240,1400 L 3240,1490 L 3240,2390 L 3240,2480 L 3240,2570 L 3340,2570 L 3340,2480 L 3340,2390 L 3340,1490 Z" /><path d="M 7240,1590 L 7240,1500 L 7240,980 L 7240,890 L 7240,800 L 7140,800 L 7140,890 L 7140,980 L 7140,1500 L 7140,1590 L 7140,1680 L 7140,2390 L 7140,2480 L 7140,2570 L 7240,2570 L 7240,2480 L 7240,2390 L 7240,1680 Z" /><path d="M 5320,2105 L 5320,2195 L 5320,2285 L 5420,2285 L 5420,2195 L 5420,2105 L 5420,1040 L 5420,950 L 5420,860 L 5320,860 L 5320,950 L 5320,1040 Z" /><path d="M 5580,1520 L 5580,1690 L 5580,1695 L 5580,1870 L 5580,1875 L 5580,2040 L 5680,2040 L 5680,1875 L 5680,1870 L 5680,1695 L 5680,1690 L 5680,1520 Z" /><path d="M 4020,1520 L 4020,1690 L 4020,1695 L 4020,1870 L 4020,1875 L 4020,2040 L 4120,2040 L 4120,1875 L 4120,1870 L 4120,1695 L 4120,1690 L 4120,1520 Z" /><path d="M 480,1710 L 380,1710 L 380,1880 L 380,2060 L 380,2230 L 480,2230 L 480,2060 L 480,1880 Z" /><path d="M 2200,1095 L 2200,1235 L 2200,1275 L 2200,1310 L 2200,1400 L 2200,1490 L 2200,1555 L 2300,1555 L 2300,1490 L 2300,1400 L 2300,1310 L 2300,1275 L 2300,1235 L 2300,1095 L 2300,1035 L 2200,1035 Z" /><path d="M 6720,1690 L 6720,1675 L 6720,1585 L 6720,1495 L 6720,980 L 6720,890 L 6720,800 L 6620,800 L 6620,890 L 6620,980 L 6620,1495 L 6620,1585 L 6620,1675 L 6620,1690 L 6620,1730 L 6620,1780 L 6620,1870 L 6620,2390 L 6620,2480 L 6620,2570 L 6720,2570 L 6720,2480 L 6720,2390 L 6720,1870 L 6720,1780 L 6720,1730 Z" /><path d="M 1520,1675 L 1520,1635 L 1520,1495 L 1420,1495 L 1420,1635 L 1420,1675 L 1420,1880 L 1420,1970 L 1420,2060 L 1520,2060 L 1520,1970 L 1520,1880 Z" /><path d="M 5160,1110 L 5060,1110 L 5060,1295 L 5060,1310 L 5060,1475 L 5060,1490 L 5060,1630 L 5160,1630 L 5160,1490 L 5160,1475 L 5160,1310 L 5160,1295 Z" /><path d="M 3500,1690 L 3500,1780 L 3500,1870 L 3500,1895 L 3500,1935 L 3500,2075 L 3500,2140 L 3600,2140 L 3600,2075 L 3600,1935 L 3600,1895 L 3600,1870 L 3600,1780 L 3600,1690 L 3600,1620 L 3500,1620 Z" /><path d="M 2820,1675 L 2820,1635 L 2820,1585 L 2820,1495 L 2820,980 L 2820,890 L 2820,800 L 2720,800 L 2720,890 L 2720,980 L 2720,1495 L 2720,1585 L 2720,1635 L 2690,1635 L 2560,1635 L 2460,1635 L 2460,1735 L 2460,2390 L 2460,2480 L 2460,2570 L 2560,2570 L 2560,2480 L 2560,2390 L 2560,1735 L 2690,1735 L 2720,1735 L 2820,1735 Z" /><path d="M 4540,1495 L 4540,1595 L 4540,1675 L 4540,1690 L 4540,1780 L 4540,1870 L 4540,1925 L 4640,1925 L 4640,1870 L 4640,1780 L 4640,1690 L 4640,1675 L 4640,1595 L 4640,1495 L 4640,1405 L 4540,1405 Z" /></g></g><g id="VIA2"><g class="l52d0"><path d="M 5580,1735 L 5680,1735 L 5680,1835 L 5580,1835 Z" /><path d="M 4020,1735 L 4120,1735 L 4120,1835 L 4020,1835 Z" /><path d="M 2200,1135 L 2300,1135 L 2300,1235 L 2200,1235 Z" /><path d="M 6620,1535 L 6720,1535 L 6720,1635 L 6620,1635 Z" /><path d="M 1420,1535 L 1520,1535 L 1520,1635 L 1420,1635 Z" /><path d="M 5060,1335 L 5160,1335 L 5160,1435 L 5060,1435 Z" /><path d="M 3500,1935 L 3600,1935 L 3600,2035 L 3500,2035 Z" /><path d="M 2720,1535 L 2820,1535 L 2820,1635 L 2720,1635 Z" /><path d="M 4540,1535 L 4640,1535 L 4640,1635 L 4540,1635 Z" /></g></g><g id="M3"><g class="l33d0"><path d="M 3980,1735 L 300,1735 L 300,1835 L 3980,1835 L 4020,1835 L 4070,1835 L 4120,1835 L 4160,1835 L 5540,1835 L 5630,1835 L 5720,1835 L 7580,1835 L 7580,1735 L 5720,1735 L 5630,1735 L 5540,1735 L 4160,1735 L 4120,1735 L 4070,1735 L 4020,1735 Z" /><path d="M 7580,1135 L 2340,1135 L 2250,1135 L 2160,1135 L 300,1135 L 300,1235 L 2160,1235 L 2250,1235 L 2340,1235 L 7580,1235 Z" /><path d="M 6760,1635 L 7580,1635 L 7580,1535 L 6760,1535 L 6670,1535 L 6580,1535 L 6580,1635 L 6670,1635 Z" /><path d="M 1380,1535 L 300,1535 L 300,1635 L 1380,1635 L 1470,1635 L 1560,1635 L 1560,1535 L 1470,1535 Z" /><path d="M 7580,1335 L 5200,1335 L 5110,1335 L 5020,1335 L 300,1335 L 300,1435 L 5020,1435 L 5110,1435 L 5200,1435 L 7580,1435 Z" /><path d="M 7580,1935 L 3640,1935 L 3550,1935 L 3460,1935 L 300,1935 L 300,2035 L 3460,2035 L 3550,2035 L 3640,2035 L 7580,2035 Z" /><path d="M 4500,1635 L 4590,1635 L 4680,1635 L 4680,1535 L 4590,1535 L 4500,1535 L 2860,1535 L 2770,1535 L 2680,1535 L 2680,1635 L 2770,1635 L 2860,1635 Z" /></g></g></g></svg>