<svg width="15430" height="3550" viewBox="-5 -3545 15430 3550" xmlns="http://www.w3.org/2000/svg" xmlns:xlink="http://www.w3.org/1999/xlink"><defs><style type="text/css">.l3d0 {fill: #fef9e7; fill-opacity: 0.5; stroke-width: 10; stroke: #f1c40f; stroke-linecap: round; stroke-linejoin: round; stroke-opacity: 0.2;}.l25d0 {fill: #8e44ad; fill-opacity: 0.05; stroke-width: 10; stroke: #8e44ad; stroke-linecap: round; stroke-linejoin: round; stroke-opacity: 1;}.l26d0 {fill: #ccd1d1; fill-opacity: 0.05; stroke-width: 10; stroke: #ccd1d1; stroke-linecap: round; stroke-linejoin: round; stroke-opacity: 1;}.l6d0 {fill: #f5b7b1; fill-opacity: 1; stroke-width: 10; stroke: #e74c3c; stroke-linecap: round; stroke-linejoin: round; stroke-opacity: 1;}.l17d0 {fill: #2980b9; fill-opacity: 1; stroke-width: 0; stroke: #000000; stroke-linecap: round; stroke-linejoin: round; stroke-opacity: 0;}.l30d0 {fill: #27ae60; fill-opacity: 1; stroke-width: 0; stroke: #000000; stroke-linecap: round; stroke-linejoin: round; stroke-opacity: 0;}.l31d0 {fill: #85c1e9; fill-opacity: 0.6; stroke-width: 0; stroke: #000000; stroke-linecap: round; stroke-linejoin: round; stroke-opacity: 0;}.l51d0 {fill: #f39c12; fill-opacity: 1; stroke-width: 10; stroke: #f39c12; stroke-linecap: round; stroke-linejoin: round; stroke-opacity: 1;}.l32d0 {fill: #f7dc6f; fill-opacity: 0.6; stroke-width: 0; stroke: #000000; stroke-linecap: round; stroke-linejoin: round; stroke-opacity: 0;}.l52d0 {fill: #a04000; fill-opacity: 1; stroke-width: 10; stroke: #a04000; stroke-linecap: round; stroke-linejoin: round; stroke-opacity: 1;}.l33d0 {fill: #16a085; fill-opacity: 0.6; stroke-width: 0; stroke: #000000; stroke-linecap: round; stroke-linejoin: round; stroke-opacity: 0;}path {fill-rule: evenodd;}</style></defs><g transform="scale(1 -1)"><g id="NW"><g class="l3d0"><path d="M 9180,1900 L 9075,1900 L 8815,1900 L 6320,1900 L 5720,1900 L 3460,1900 L 2860,1900 L 0,1900 L 0,3540 L 2860,3540 L 3460,3540 L 5720,3540 L 6320,3540 L 9180,3540 L 10140,3540 L 15420,3540 L 15420,1900 L 13885,1900 L 13625,1900 L 13365,1900 L 13235,1900 L 13105,1900 L 12975,1900 L 12715,1900 L 12455,1900 L 10140,1900 L 9985,1900 L 9725,1900 L 9465,1900 L 9335,1900 Z" /></g></g><g id="PP"><g class="l25d0"><path d="M 9010,0 L 6150,0 L 5890,0 L 3290,0 L 3030,0 L 170,0 L 170,430 L 3030,430 L 3290,430 L 5890,430 L 6150,430 L 9010,430 L 10310,430 L 15250,430 L 15250,0 L 10310,0 Z" /><path d="M 9010,1685 L 6150,1685 L 5890,1685 L 3290,1685 L 3030,1685 L 170,1685 L 170,2940 L 325,2940 L 585,2940 L 795,2940 L 1055,2940 L 1105,2940 L 1575,2940 L 1625,2940 L 2095,2940 L 2145,2940 L 2615,2940 L 2665,2940 L 3030,2940 L 3135,2940 L 3185,2940 L 3290,2940 L 3445,2940 L 3655,2940 L 3915,2940 L 3965,2940 L 4435,2940 L 4485,2940 L 4955,2940 L 5005,2940 L 5475,2940 L 5525,2940 L 5890,2940 L 5995,2940 L 6045,2940 L 6150,2940 L 6305,2940 L 6515,2940 L 6775,2940 L 6825,2940 L 7295,2940 L 7345,2940 L 7815,2940 L 7865,2940 L 8335,2940 L 8385,2940 L 8855,2940 L 8905,2940 L 9010,2940 L 9165,2940 L 9375,2940 L 9425,2940 L 9635,2940 L 9895,2940 L 9945,2940 L 10310,2940 L 10415,2940 L 10465,2940 L 10725,2940 L 10935,2940 L 10985,2940 L 11195,2940 L 11245,2940 L 11455,2940 L 11505,2940 L 11715,2940 L 11975,2940 L 12025,2940 L 12285,2940 L 12495,2940 L 12545,2940 L 12755,2940 L 12805,2940 L 13015,2940 L 13065,2940 L 13275,2940 L 13325,2940 L 13535,2940 L 13795,2940 L 13845,2940 L 14105,2940 L 14315,2940 L 14365,2940 L 14575,2940 L 14625,2940 L 14835,2940 L 15095,2940 L 15250,2940 L 15250,1685 L 10310,1685 Z" /></g></g><g id="NP"><g class="l26d0"><path d="M 9010,2940 L 6150,2940 L 5890,2940 L 3290,2940 L 3030,2940 L 170,2940 L 170,3370 L 3030,3370 L 3290,3370 L 5890,3370 L 6150,3370 L 9010,3370 L 10310,3370 L 15250,3370 L 15250,2940 L 10310,2940 Z" /><path d="M 8905,430 L 8855,430 L 8385,430 L 8335,430 L 7865,430 L 7815,430 L 7345,430 L 7295,430 L 6825,430 L 6775,430 L 6515,430 L 6305,430 L 6150,430 L 6045,430 L 5995,430 L 5890,430 L 5525,430 L 5475,430 L 5005,430 L 4955,430 L 4485,430 L 4435,430 L 3965,430 L 3915,430 L 3655,430 L 3445,430 L 3290,430 L 3185,430 L 3135,430 L 3030,430 L 2665,430 L 2615,430 L 2145,430 L 2095,430 L 1625,430 L 1575,430 L 1105,430 L 1055,430 L 795,430 L 585,430 L 325,430 L 170,430 L 170,1685 L 3030,1685 L 3290,1685 L 5890,1685 L 6150,1685 L 9010,1685 L 10310,1685 L 15250,1685 L 15250,430 L 15095,430 L 14835,430 L 14625,430 L 14575,430 L 14365,430 L 14315,430 L 14105,430 L 13845,430 L 13795,430 L 13535,430 L 13325,430 L 13275,430 L 13065,430 L 13015,430 L 12805,430 L 12755,430 L 12545,430 L 12495,430 L 12285,430 L 12025,430 L 11975,430 L 11715,430 L 11505,430 L 11455,430 L 11245,430 L 11195,430 L 10985,430 L 10935,430 L 10725,430 L 10465,430 L 10415,430 L 10310,430 L 9945,430 L 9895,430 L 9635,430 L 9425,430 L 9375,430 L 9165,430 L 9010,430 Z" /></g></g><g id="OD"><g class="l6d0"><path d="M 6745,770 L 6645,770 L 6570,770 L 6510,770 L 6435,770 L 6385,770 L 6310,770 L 6250,770 L 6175,770 L 6075,770 L 6075,890 L 6175,890 L 6250,890 L 6310,890 L 6385,890 L 6435,890 L 6510,890 L 6570,890 L 6645,890 L 6745,890 Z" /><path d="M 6955,890 L 7030,890 L 7090,890 L 7165,890 L 7215,890 L 7425,890 L 7475,890 L 7550,890 L 7610,890 L 7685,890 L 7735,890 L 7945,890 L 7995,890 L 8070,890 L 8130,890 L 8205,890 L 8255,890 L 8465,890 L 8515,890 L 8590,890 L 8650,890 L 8725,890 L 8825,890 L 8825,770 L 8725,770 L 8650,770 L 8590,770 L 8515,770 L 8465,770 L 8255,770 L 8205,770 L 8130,770 L 8070,770 L 7995,770 L 7945,770 L 7735,770 L 7685,770 L 7610,770 L 7550,770 L 7475,770 L 7425,770 L 7215,770 L 7165,770 L 7090,770 L 7030,770 L 6955,770 L 6855,770 L 6855,890 Z" /><path d="M 6730,2360 L 6645,2360 L 6570,2360 L 6510,2360 L 6435,2360 L 6385,2360 L 6310,2360 L 6250,2360 L 6175,2360 L 6090,2360 L 6090,2600 L 6175,2600 L 6250,2600 L 6310,2600 L 6385,2600 L 6435,2600 L 6510,2600 L 6570,2600 L 6645,2600 L 6730,2600 Z" /><path d="M 7770,2600 L 7770,2360 L 7685,2360 L 7610,2360 L 7550,2360 L 7475,2360 L 7390,2360 L 7390,2600 L 7475,2600 L 7550,2600 L 7610,2600 L 7685,2600 Z" /><path d="M 8810,2600 L 8810,2360 L 8725,2360 L 8650,2360 L 8590,2360 L 8515,2360 L 8430,2360 L 8430,2600 L 8515,2600 L 8590,2600 L 8650,2600 L 8725,2600 Z" /><path d="M 8290,2600 L 8290,2360 L 8205,2360 L 8130,2360 L 8070,2360 L 7995,2360 L 7910,2360 L 7910,2600 L 7995,2600 L 8070,2600 L 8130,2600 L 8205,2600 Z" /><path d="M 7250,2600 L 7250,2360 L 7165,2360 L 7090,2360 L 7030,2360 L 6955,2360 L 6870,2360 L 6870,2600 L 6955,2600 L 7030,2600 L 7090,2600 L 7165,2600 Z" /><path d="M 3885,770 L 3785,770 L 3710,770 L 3650,770 L 3575,770 L 3525,770 L 3450,770 L 3390,770 L 3315,770 L 3215,770 L 3215,890 L 3315,890 L 3390,890 L 3450,890 L 3525,890 L 3575,890 L 3650,890 L 3710,890 L 3785,890 L 3885,890 Z" /><path d="M 4095,890 L 4170,890 L 4230,890 L 4305,890 L 4355,890 L 4565,890 L 4615,890 L 4690,890 L 4750,890 L 4825,890 L 4875,890 L 5085,890 L 5135,890 L 5210,890 L 5270,890 L 5345,890 L 5395,890 L 5605,890 L 5655,890 L 5730,890 L 5790,890 L 5865,890 L 5965,890 L 5965,770 L 5865,770 L 5790,770 L 5730,770 L 5655,770 L 5605,770 L 5395,770 L 5345,770 L 5270,770 L 5210,770 L 5135,770 L 5085,770 L 4875,770 L 4825,770 L 4750,770 L 4690,770 L 4615,770 L 4565,770 L 4355,770 L 4305,770 L 4230,770 L 4170,770 L 4095,770 L 3995,770 L 3995,890 Z" /><path d="M 3870,2360 L 3785,2360 L 3710,2360 L 3650,2360 L 3575,2360 L 3525,2360 L 3450,2360 L 3390,2360 L 3315,2360 L 3230,2360 L 3230,2600 L 3315,2600 L 3390,2600 L 3450,2600 L 3525,2600 L 3575,2600 L 3650,2600 L 3710,2600 L 3785,2600 L 3870,2600 Z" /><path d="M 4910,2600 L 4910,2360 L 4825,2360 L 4750,2360 L 4690,2360 L 4615,2360 L 4530,2360 L 4530,2600 L 4615,2600 L 4690,2600 L 4750,2600 L 4825,2600 Z" /><path d="M 5950,2600 L 5950,2360 L 5865,2360 L 5790,2360 L 5730,2360 L 5655,2360 L 5570,2360 L 5570,2600 L 5655,2600 L 5730,2600 L 5790,2600 L 5865,2600 Z" /><path d="M 5430,2600 L 5430,2360 L 5345,2360 L 5270,2360 L 5210,2360 L 5135,2360 L 5050,2360 L 5050,2600 L 5135,2600 L 5210,2600 L 5270,2600 L 5345,2600 Z" /><path d="M 4390,2600 L 4390,2360 L 4305,2360 L 4230,2360 L 4170,2360 L 4095,2360 L 4010,2360 L 4010,2600 L 4095,2600 L 4170,2600 L 4230,2600 L 4305,2600 Z" /><path d="M 1025,770 L 925,770 L 850,770 L 790,770 L 715,770 L 665,770 L 590,770 L 530,770 L 455,770 L 355,770 L 355,890 L 455,890 L 530,890 L 590,890 L 665,890 L 715,890 L 790,890 L 850,890 L 925,890 L 1025,890 Z" /><path d="M 1235,890 L 1310,890 L 1370,890 L 1445,890 L 1495,890 L 1705,890 L 1755,890 L 1830,890 L 1890,890 L 1965,890 L 2015,890 L 2225,890 L 2275,890 L 2350,890 L 2410,890 L 2485,890 L 2535,890 L 2745,890 L 2795,890 L 2870,890 L 2930,890 L 3005,890 L 3105,890 L 3105,770 L 3005,770 L 2930,770 L 2870,770 L 2795,770 L 2745,770 L 2535,770 L 2485,770 L 2410,770 L 2350,770 L 2275,770 L 2225,770 L 2015,770 L 1965,770 L 1890,770 L 1830,770 L 1755,770 L 1705,770 L 1495,770 L 1445,770 L 1370,770 L 1310,770 L 1235,770 L 1135,770 L 1135,890 Z" /><path d="M 1010,2360 L 925,2360 L 850,2360 L 790,2360 L 715,2360 L 665,2360 L 590,2360 L 530,2360 L 455,2360 L 370,2360 L 370,2600 L 455,2600 L 530,2600 L 590,2600 L 665,2600 L 715,2600 L 790,2600 L 850,2600 L 925,2600 L 1010,2600 Z" /><path d="M 2050,2600 L 2050,2360 L 1965,2360 L 1890,2360 L 1830,2360 L 1755,2360 L 1670,2360 L 1670,2600 L 1755,2600 L 1830,2600 L 1890,2600 L 1965,2600 Z" /><path d="M 3090,2600 L 3090,2360 L 3005,2360 L 2930,2360 L 2870,2360 L 2795,2360 L 2710,2360 L 2710,2600 L 2795,2600 L 2870,2600 L 2930,2600 L 3005,2600 Z" /><path d="M 2570,2600 L 2570,2360 L 2485,2360 L 2410,2360 L 2350,2360 L 2275,2360 L 2190,2360 L 2190,2600 L 2275,2600 L 2350,2600 L 2410,2600 L 2485,2600 Z" /><path d="M 1530,2600 L 1530,2360 L 1445,2360 L 1370,2360 L 1310,2360 L 1235,2360 L 1150,2360 L 1150,2600 L 1235,2600 L 1310,2600 L 1370,2600 L 1445,2600 Z" /><path d="M 9035,2600 L 9110,2600 L 9170,2600 L 9245,2600 L 9295,2600 L 9370,2600 L 9430,2600 L 9505,2600 L 9555,2600 L 9630,2600 L 9690,2600 L 9765,2600 L 9850,2600 L 9850,2120 L 9765,2120 L 9690,2120 L 9630,2120 L 9555,2120 L 9505,2120 L 9430,2120 L 9370,2120 L 9295,2120 L 9245,2120 L 9170,2120 L 9110,2120 L 9035,2120 L 8950,2120 L 8950,2600 Z" /><path d="M 8880,130 L 6020,130 L 3160,130 L 300,130 L 300,300 L 3160,300 L 6020,300 L 8880,300 L 10440,300 L 15120,300 L 15120,130 L 10440,130 Z" /><path d="M 8880,3070 L 6020,3070 L 3160,3070 L 300,3070 L 300,3240 L 3160,3240 L 6020,3240 L 8880,3240 L 10440,3240 L 15120,3240 L 15120,3070 L 10440,3070 Z" /><path d="M 14630,770 L 14570,770 L 14495,770 L 14445,770 L 14370,770 L 14310,770 L 14235,770 L 14235,1010 L 14310,1010 L 14370,1010 L 14445,1010 L 14495,1010 L 14570,1010 L 14630,1010 L 14705,1010 L 14755,1010 L 14830,1010 L 14890,1010 L 14965,1010 L 15050,1010 L 15050,770 L 14965,770 L 14890,770 L 14830,770 L 14755,770 L 14705,770 Z" /><path d="M 14234,1010 L 14234,770 L 14185,770 L 14110,770 L 14050,770 L 13975,770 L 13890,770 L 13890,1010 L 13975,1010 L 14050,1010 L 14110,1010 L 14185,1010 Z" /><path d="M 14630,2360 L 14570,2360 L 14495,2360 L 14445,2360 L 14370,2360 L 14310,2360 L 14235,2360 L 14235,2600 L 14310,2600 L 14370,2600 L 14445,2600 L 14495,2600 L 14570,2600 L 14630,2600 L 14705,2600 L 14755,2600 L 14830,2600 L 14890,2600 L 14965,2600 L 15050,2600 L 15050,2360 L 14965,2360 L 14890,2360 L 14830,2360 L 14755,2360 L 14705,2360 Z" /><path d="M 13890,2360 L 13890,2600 L 13975,2600 L 14050,2600 L 14110,2600 L 14185,2600 L 14234,2600 L 14234,2360 L 14185,2360 L 14110,2360 L 14050,2360 L 13975,2360 Z" /><path d="M 11115,2360 L 11065,2360 L 10990,2360 L 10930,2360 L 10855,2360 L 10805,2360 L 10730,2360 L 10670,2360 L 10595,2360 L 10510,2360 L 10510,2600 L 10595,2600 L 10670,2600 L 10730,2600 L 10805,2600 L 10855,2600 L 10930,2600 L 10990,2600 L 11065,2600 L 11115,2600 L 11190,2600 L 11250,2600 L 11325,2600 L 11375,2600 L 11450,2600 L 11510,2600 L 11585,2600 L 11635,2600 L 11710,2600 L 11770,2600 L 11845,2600 L 11930,2600 L 11930,2360 L 11845,2360 L 11770,2360 L 11710,2360 L 11635,2360 L 11585,2360 L 11510,2360 L 11450,2360 L 11375,2360 L 11325,2360 L 11250,2360 L 11190,2360 Z" /><path d="M 13530,1130 L 13590,1130 L 13665,1130 L 13750,1130 L 13750,770 L 13665,770 L 13590,770 L 13530,770 L 13455,770 L 13405,770 L 13330,770 L 13270,770 L 13195,770 L 13145,770 L 13070,770 L 13010,770 L 12935,770 L 12885,770 L 12810,770 L 12750,770 L 12675,770 L 12625,770 L 12550,770 L 12490,770 L 12415,770 L 12365,770 L 12290,770 L 12230,770 L 12155,770 L 12070,770 L 12070,1010 L 12155,1010 L 12230,1010 L 12290,1010 L 12365,1010 L 12415,1010 L 12490,1010 L 12550,1010 L 12625,1010 L 12625,1130 L 12675,1130 L 12750,1130 L 12810,1130 L 12885,1130 L 12935,1130 L 13010,1130 L 13070,1130 L 13145,1130 L 13195,1130 L 13270,1130 L 13330,1130 L 13405,1130 L 13455,1130 Z" /><path d="M 11065,1010 L 11065,1130 L 11115,1130 L 11190,1130 L 11250,1130 L 11325,1130 L 11375,1130 L 11450,1130 L 11510,1130 L 11585,1130 L 11635,1130 L 11710,1130 L 11770,1130 L 11845,1130 L 11930,1130 L 11930,770 L 11845,770 L 11770,770 L 11710,770 L 11635,770 L 11585,770 L 11510,770 L 11450,770 L 11375,770 L 11325,770 L 11250,770 L 11190,770 L 11115,770 L 11065,770 L 10990,770 L 10930,770 L 10855,770 L 10805,770 L 10730,770 L 10670,770 L 10595,770 L 10510,770 L 10510,1010 L 10595,1010 L 10670,1010 L 10730,1010 L 10805,1010 L 10855,1010 L 10930,1010 L 10990,1010 Z" /><path d="M 13530,2600 L 13590,2600 L 13665,2600 L 13750,2600 L 13750,2120 L 13665,2120 L 13590,2120 L 13530,2120 L 13455,2120 L 13405,2120 L 13330,2120 L 13270,2120 L 13195,2120 L 13145,2120 L 13070,2120 L 13010,2120 L 12935,2120 L 12885,2120 L 12810,2120 L 12750,2120 L 12675,2120 L 12625,2120 L 12625,2360 L 12550,2360 L 12490,2360 L 12415,2360 L 12365,2360 L 12290,2360 L 12230,2360 L 12155,2360 L 12070,2360 L 12070,2600 L 12155,2600 L 12230,2600 L 12290,2600 L 12365,2600 L 12415,2600 L 12490,2600 L 12550,2600 L 12625,2600 L 12675,2600 L 12750,2600 L 12810,2600 L 12885,2600 L 12935,2600 L 13010,2600 L 13070,2600 L 13145,2600 L 13195,2600 L 13270,2600 L 13330,2600 L 13405,2600 L 13455,2600 Z" /><path d="M 9035,890 L 9110,890 L 9170,890 L 9245,890 L 9295,890 L 9370,890 L 9430,890 L 9505,890 L 9555,890 L 9630,890 L 9690,890 L 9765,890 L 9865,890 L 9975,890 L 10075,890 L 10150,890 L 10210,890 L 10285,890 L 10385,890 L 10385,770 L 10285,770 L 10210,770 L 10150,770 L 10075,770 L 9975,770 L 9865,770 L 9765,770 L 9690,770 L 9630,770 L 9555,770 L 9505,770 L 9430,770 L 9370,770 L 9295,770 L 9245,770 L 9170,770 L 9110,770 L 9035,770 L 8935,770 L 8935,890 Z" /><path d="M 9990,2360 L 9990,2600 L 10075,2600 L 10150,2600 L 10210,2600 L 10285,2600 L 10370,2600 L 10370,2360 L 10285,2360 L 10210,2360 L 10150,2360 L 10075,2360 Z" /></g></g><g id="PO"><g class="l17d0"><path d="M 6570,890 L 6570,770 L 6570,630 L 6510,630 L 6510,770 L 6510,890 L 6510,1030 L 6510,1315 L 6485,1315 L 6485,1485 L 6510,1485 L 6510,2220 L 6510,2360 L 6510,2600 L 6510,2740 L 6570,2740 L 6570,2600 L 6570,2360 L 6570,2220 L 6570,1485 L 6595,1485 L 6595,1315 L 6570,1315 L 6570,1030 Z" /><path d="M 6310,890 L 6310,770 L 6310,630 L 6250,630 L 6250,770 L 6250,890 L 6250,1030 L 6250,1125 L 6225,1125 L 6225,1295 L 6250,1295 L 6250,2220 L 6250,2360 L 6250,2600 L 6250,2740 L 6310,2740 L 6310,2600 L 6310,2360 L 6310,2220 L 6310,1295 L 6335,1295 L 6335,1125 L 6310,1125 L 6310,1030 Z" /><path d="M 8650,1030 L 8650,890 L 8650,770 L 8650,630 L 8590,630 L 8590,770 L 8590,890 L 8590,1030 L 8590,1315 L 8565,1315 L 8565,1485 L 8590,1485 L 8590,2220 L 8590,2360 L 8590,2600 L 8590,2740 L 8650,2740 L 8650,2600 L 8650,2360 L 8650,2220 L 8649,2220 L 8649,1485 L 8675,1485 L 8675,1315 L 8649,1315 L 8649,1030 Z" /><path d="M 8130,1030 L 8130,890 L 8130,770 L 8130,630 L 8070,630 L 8070,770 L 8070,890 L 8070,1030 L 8070,1125 L 8045,1125 L 8045,1295 L 8070,1295 L 8070,2220 L 8070,2360 L 8070,2600 L 8070,2740 L 8130,2740 L 8130,2600 L 8130,2360 L 8130,2220 L 8129,2220 L 8129,1295 L 8155,1295 L 8155,1125 L 8129,1125 L 8129,1030 Z" /><path d="M 7090,890 L 7090,770 L 7090,630 L 7030,630 L 7030,770 L 7030,890 L 7030,1030 L 7030,1885 L 7005,1885 L 7005,2055 L 7030,2055 L 7030,2220 L 7030,2360 L 7030,2600 L 7030,2740 L 7090,2740 L 7090,2600 L 7090,2360 L 7090,2220 L 7090,2055 L 7115,2055 L 7115,1885 L 7090,1885 L 7090,1030 Z" /><path d="M 7550,2360 L 7550,2600 L 7550,2740 L 7610,2740 L 7610,2600 L 7610,2360 L 7610,2220 L 7610,1675 L 7635,1675 L 7635,1505 L 7610,1505 L 7610,1030 L 7610,890 L 7610,770 L 7610,630 L 7550,630 L 7550,770 L 7550,890 L 7550,1030 L 7550,1505 L 7525,1505 L 7525,1675 L 7550,1675 L 7550,2220 Z" /><path d="M 3710,890 L 3710,770 L 3710,630 L 3650,630 L 3650,770 L 3650,890 L 3650,1030 L 3650,1315 L 3625,1315 L 3625,1485 L 3650,1485 L 3650,2220 L 3650,2360 L 3650,2600 L 3650,2740 L 3710,2740 L 3710,2600 L 3710,2360 L 3710,2220 L 3710,1485 L 3735,1485 L 3735,1315 L 3710,1315 L 3710,1030 Z" /><path d="M 3450,890 L 3450,770 L 3450,630 L 3390,630 L 3390,770 L 3390,890 L 3390,1030 L 3390,1125 L 3365,1125 L 3365,1295 L 3390,1295 L 3390,2220 L 3390,2360 L 3390,2600 L 3390,2740 L 3450,2740 L 3450,2600 L 3450,2360 L 3450,2220 L 3450,1295 L 3475,1295 L 3475,1125 L 3450,1125 L 3450,1030 Z" /><path d="M 5790,1030 L 5790,890 L 5790,770 L 5790,630 L 5730,630 L 5730,770 L 5730,890 L 5730,1030 L 5730,1315 L 5705,1315 L 5705,1485 L 5730,1485 L 5730,2220 L 5730,2360 L 5730,2600 L 5730,2740 L 5790,2740 L 5790,2600 L 5790,2360 L 5790,2220 L 5789,2220 L 5789,1485 L 5815,1485 L 5815,1315 L 5789,1315 L 5789,1030 Z" /><path d="M 5270,1030 L 5270,890 L 5270,770 L 5270,630 L 5210,630 L 5210,770 L 5210,890 L 5210,1030 L 5210,1125 L 5185,1125 L 5185,1295 L 5210,1295 L 5210,2220 L 5210,2360 L 5210,2600 L 5210,2740 L 5270,2740 L 5270,2600 L 5270,2360 L 5270,2220 L 5269,2220 L 5269,1295 L 5295,1295 L 5295,1125 L 5269,1125 L 5269,1030 Z" /><path d="M 4230,890 L 4230,770 L 4230,630 L 4170,630 L 4170,770 L 4170,890 L 4170,1030 L 4170,1885 L 4145,1885 L 4145,2055 L 4170,2055 L 4170,2220 L 4170,2360 L 4170,2600 L 4170,2740 L 4230,2740 L 4230,2600 L 4230,2360 L 4230,2220 L 4230,2055 L 4255,2055 L 4255,1885 L 4230,1885 L 4230,1030 Z" /><path d="M 4690,2360 L 4690,2600 L 4690,2740 L 4750,2740 L 4750,2600 L 4750,2360 L 4750,2220 L 4750,1675 L 4775,1675 L 4775,1505 L 4750,1505 L 4750,1030 L 4750,890 L 4750,770 L 4750,630 L 4690,630 L 4690,770 L 4690,890 L 4690,1030 L 4690,1505 L 4665,1505 L 4665,1675 L 4690,1675 L 4690,2220 Z" /><path d="M 850,890 L 850,770 L 850,630 L 790,630 L 790,770 L 790,890 L 790,1030 L 790,1315 L 765,1315 L 765,1485 L 790,1485 L 790,2220 L 790,2360 L 790,2600 L 790,2740 L 850,2740 L 850,2600 L 850,2360 L 850,2220 L 850,1485 L 875,1485 L 875,1315 L 850,1315 L 850,1030 Z" /><path d="M 590,890 L 590,770 L 590,630 L 530,630 L 530,770 L 530,890 L 530,1030 L 530,1125 L 505,1125 L 505,1295 L 530,1295 L 530,2220 L 530,2360 L 530,2600 L 530,2740 L 590,2740 L 590,2600 L 590,2360 L 590,2220 L 590,1295 L 615,1295 L 615,1125 L 590,1125 L 590,1030 Z" /><path d="M 2930,1030 L 2930,890 L 2930,770 L 2930,630 L 2870,630 L 2870,770 L 2870,890 L 2870,1030 L 2870,1315 L 2845,1315 L 2845,1485 L 2870,1485 L 2870,2220 L 2870,2360 L 2870,2600 L 2870,2740 L 2930,2740 L 2930,2600 L 2930,2360 L 2930,2220 L 2929,2220 L 2929,1485 L 2955,1485 L 2955,1315 L 2929,1315 L 2929,1030 Z" /><path d="M 2410,1030 L 2410,890 L 2410,770 L 2410,630 L 2350,630 L 2350,770 L 2350,890 L 2350,1030 L 2350,1125 L 2325,1125 L 2325,1295 L 2350,1295 L 2350,2220 L 2350,2360 L 2350,2600 L 2350,2740 L 2410,2740 L 2410,2600 L 2410,2360 L 2410,2220 L 2409,2220 L 2409,1295 L 2435,1295 L 2435,1125 L 2409,1125 L 2409,1030 Z" /><path d="M 1370,890 L 1370,770 L 1370,630 L 1310,630 L 1310,770 L 1310,890 L 1310,1030 L 1310,1885 L 1285,1885 L 1285,2055 L 1310,2055 L 1310,2220 L 1310,2360 L 1310,2600 L 1310,2740 L 1370,2740 L 1370,2600 L 1370,2360 L 1370,2220 L 1370,2055 L 1395,2055 L 1395,1885 L 1370,1885 L 1370,1030 Z" /><path d="M 1830,2360 L 1830,2600 L 1830,2740 L 1890,2740 L 1890,2600 L 1890,2360 L 1890,2220 L 1890,1675 L 1915,1675 L 1915,1505 L 1890,1505 L 1890,1030 L 1890,890 L 1890,770 L 1890,630 L 1830,630 L 1830,770 L 1830,890 L 1830,1030 L 1830,1505 L 1805,1505 L 1805,1675 L 1830,1675 L 1830,2220 Z" /><path d="M 10730,1010 L 10730,770 L 10730,630 L 10670,630 L 10670,770 L 10670,1010 L 10670,1150 L 10670,1505 L 10645,1505 L 10645,1675 L 10670,1675 L 10670,2220 L 10670,2360 L 10670,2600 L 10670,2740 L 10730,2740 L 10730,2600 L 10730,2360 L 10730,2220 L 10730,1675 L 10755,1675 L 10755,1505 L 10730,1505 L 10730,1150 Z" /><path d="M 12290,1010 L 12290,770 L 12290,630 L 12230,630 L 12230,770 L 12230,1010 L 12230,1150 L 12230,1400 L 12230,2110 L 12205,2110 L 12205,2280 L 12230,2280 L 12230,2360 L 12230,2600 L 12230,2740 L 12290,2740 L 12290,2600 L 12290,2360 L 12290,2280 L 12315,2280 L 12315,2110 L 12290,2110 L 12290,1400 L 12290,1150 Z" /><path d="M 10930,2360 L 10930,2600 L 10930,2740 L 10990,2740 L 10990,2600 L 10990,2360 L 10990,2220 L 10990,2055 L 11015,2055 L 11015,1885 L 10990,1885 L 10990,1150 L 10990,1010 L 10990,770 L 10990,630 L 10930,630 L 10930,770 L 10930,1010 L 10930,1150 L 10930,1885 L 10905,1885 L 10905,2055 L 10930,2055 L 10930,2220 Z" /><path d="M 11190,2360 L 11190,2600 L 11190,2740 L 11250,2740 L 11250,2600 L 11250,2360 L 11250,2220 L 11250,1865 L 11280,1865 L 11280,1695 L 11250,1695 L 11250,1270 L 11250,1130 L 11250,770 L 11250,630 L 11190,630 L 11190,770 L 11190,1130 L 11190,1270 L 11190,1695 L 11160,1695 L 11160,1865 L 11190,1865 L 11190,2220 Z" /><path d="M 12810,1130 L 12810,770 L 12810,630 L 12750,630 L 12750,770 L 12750,1130 L 12750,1270 L 12750,1315 L 12720,1315 L 12720,1485 L 12750,1485 L 12750,1980 L 12750,2120 L 12750,2600 L 12750,2740 L 12810,2740 L 12810,2600 L 12810,2120 L 12810,1980 L 12810,1485 L 12840,1485 L 12840,1315 L 12810,1315 L 12810,1270 Z" /><path d="M 13070,1270 L 13070,1130 L 13070,770 L 13070,630 L 13010,630 L 13010,770 L 13010,1130 L 13010,1270 L 13010,1695 L 12980,1695 L 12980,1865 L 13010,1865 L 13010,1980 L 13010,2120 L 13010,2600 L 13010,2740 L 13070,2740 L 13070,2600 L 13070,2120 L 13070,1980 L 13069,1980 L 13069,1865 L 13100,1865 L 13100,1695 L 13069,1695 L 13069,1270 Z" /><path d="M 12550,1150 L 12550,1010 L 12550,770 L 12550,630 L 12490,630 L 12490,770 L 12490,1010 L 12490,1150 L 12490,1695 L 12460,1695 L 12460,1865 L 12490,1865 L 12490,2220 L 12490,2360 L 12490,2600 L 12490,2740 L 12550,2740 L 12550,2600 L 12550,2360 L 12550,2220 L 12549,2220 L 12549,1865 L 12580,1865 L 12580,1695 L 12549,1695 L 12549,1150 Z" /><path d="M 11710,2360 L 11710,2600 L 11710,2740 L 11770,2740 L 11770,2600 L 11770,2360 L 11770,2220 L 11770,1865 L 11800,1865 L 11800,1695 L 11770,1695 L 11770,1270 L 11770,1130 L 11770,770 L 11770,630 L 11710,630 L 11710,770 L 11710,1130 L 11710,1270 L 11710,1695 L 11680,1695 L 11680,1865 L 11710,1865 L 11710,2220 Z" /><path d="M 11450,2360 L 11450,2600 L 11450,2740 L 11510,2740 L 11510,2600 L 11510,2360 L 11510,2220 L 11510,1485 L 11540,1485 L 11540,1315 L 11510,1315 L 11510,1270 L 11510,1130 L 11510,770 L 11510,630 L 11450,630 L 11450,770 L 11450,1130 L 11450,1270 L 11450,1315 L 11420,1315 L 11420,1485 L 11450,1485 L 11450,2220 Z" /><path d="M 13590,1270 L 13590,1130 L 13590,770 L 13590,630 L 13530,630 L 13530,770 L 13530,1130 L 13530,1270 L 13530,1505 L 13500,1505 L 13500,1675 L 13530,1675 L 13530,1980 L 13530,2120 L 13530,2600 L 13530,2740 L 13590,2740 L 13590,2600 L 13590,2120 L 13590,1980 L 13589,1980 L 13589,1675 L 13620,1675 L 13620,1505 L 13589,1505 L 13589,1270 Z" /><path d="M 14630,1010 L 14630,770 L 14630,630 L 14570,630 L 14570,770 L 14570,1010 L 14570,1150 L 14570,2110 L 14540,2110 L 14540,2280 L 14570,2280 L 14570,2360 L 14570,2600 L 14570,2740 L 14630,2740 L 14630,2600 L 14630,2360 L 14630,2280 L 14660,2280 L 14660,2110 L 14630,2110 L 14630,1150 Z" /><path d="M 13330,1130 L 13330,770 L 13330,630 L 13270,630 L 13270,770 L 13270,1130 L 13270,1270 L 13270,1885 L 13240,1885 L 13240,2055 L 13270,2055 L 13270,2120 L 13270,2600 L 13270,2740 L 13330,2740 L 13330,2600 L 13330,2120 L 13330,2055 L 13360,2055 L 13360,1885 L 13330,1885 L 13330,1270 Z" /><path d="M 14830,2220 L 14830,2360 L 14830,2600 L 14830,2740 L 14890,2740 L 14890,2600 L 14890,2360 L 14890,2220 L 14890,1865 L 14920,1865 L 14920,1695 L 14890,1695 L 14890,1150 L 14890,1010 L 14890,770 L 14890,630 L 14830,630 L 14830,770 L 14830,1010 L 14830,1150 L 14829,1150 L 14829,1695 L 14800,1695 L 14800,1865 L 14829,1865 L 14829,2220 Z" /><path d="M 14370,1010 L 14370,770 L 14370,630 L 14310,630 L 14310,770 L 14310,1010 L 14310,1150 L 14310,1505 L 14280,1505 L 14280,1675 L 14310,1675 L 14310,2220 L 14310,2360 L 14310,2600 L 14310,2740 L 14370,2740 L 14370,2600 L 14370,2360 L 14370,2220 L 14370,1675 L 14400,1675 L 14400,1505 L 14370,1505 L 14370,1150 Z" /><path d="M 14110,1150 L 14110,1010 L 14110,770 L 14110,630 L 14050,630 L 14050,770 L 14050,1010 L 14050,1150 L 14050,1885 L 14020,1885 L 14020,2055 L 14050,2055 L 14050,2220 L 14050,2360 L 14050,2600 L 14050,2740 L 14110,2740 L 14110,2600 L 14110,2360 L 14110,2220 L 14109,2220 L 14109,2055 L 14140,2055 L 14140,1885 L 14109,1885 L 14109,1150 Z" /><path d="M 9690,890 L 9690,770 L 9690,630 L 9630,630 L 9630,770 L 9630,890 L 9630,1030 L 9630,1695 L 9605,1695 L 9605,1865 L 9630,1865 L 9630,1980 L 9630,2120 L 9630,2600 L 9630,2740 L 9690,2740 L 9690,2600 L 9690,2120 L 9690,1980 L 9690,1865 L 9715,1865 L 9715,1695 L 9690,1695 L 9690,1030 Z" /><path d="M 9430,1030 L 9430,890 L 9430,770 L 9430,630 L 9370,630 L 9370,770 L 9370,890 L 9370,1030 L 9370,1885 L 9345,1885 L 9345,2055 L 9370,2055 L 9370,2120 L 9370,2600 L 9370,2740 L 9430,2740 L 9430,2600 L 9430,2120 L 9430,2055 L 9455,2055 L 9455,1885 L 9430,1885 Z" /><path d="M 9170,890 L 9170,770 L 9170,630 L 9110,630 L 9110,770 L 9110,890 L 9110,1030 L 9110,1505 L 9085,1505 L 9085,1675 L 9110,1675 L 9110,1980 L 9110,2120 L 9110,2600 L 9110,2740 L 9170,2740 L 9170,2600 L 9170,2120 L 9170,1980 L 9170,1675 L 9195,1675 L 9195,1505 L 9170,1505 L 9170,1030 Z" /><path d="M 10210,1030 L 10210,890 L 10210,770 L 10210,630 L 10150,630 L 10150,770 L 10150,890 L 10150,1030 L 10150,1315 L 10125,1315 L 10125,1485 L 10150,1485 L 10150,2220 L 10150,2360 L 10150,2600 L 10150,2740 L 10210,2740 L 10210,2600 L 10210,2360 L 10210,2220 L 10209,2220 L 10209,1485 L 10235,1485 L 10235,1315 L 10209,1315 L 10209,1030 Z" /></g></g><g id="CO"><g class="l30d0"><path d="M 10005,785 L 10095,785 L 10095,875 L 10005,875 Z" /><path d="M 10265,785 L 10355,785 L 10355,875 L 10265,875 Z" /><path d="M 9745,785 L 9835,785 L 9835,875 L 9745,875 Z" /><path d="M 9485,785 L 9575,785 L 9575,875 L 9485,875 Z" /><path d="M 9225,785 L 9315,785 L 9315,875 L 9225,875 Z" /><path d="M 8965,785 L 9055,785 L 9055,875 L 8965,875 Z" /><path d="M 10265,2435 L 10355,2435 L 10355,2525 L 10265,2525 Z" /><path d="M 10005,2435 L 10095,2435 L 10095,2525 L 10005,2525 Z" /><path d="M 9745,2480 L 9835,2480 L 9835,2570 L 9745,2570 Z" /><path d="M 9745,2150 L 9835,2150 L 9835,2240 L 9745,2240 Z" /><path d="M 8965,2150 L 9055,2150 L 9055,2240 L 8965,2240 Z" /><path d="M 8965,2480 L 9055,2480 L 9055,2570 L 8965,2570 Z" /><path d="M 10265,170 L 10355,170 L 10355,260 L 10265,260 Z" /><path d="M 10005,170 L 10095,170 L 10095,260 L 10005,260 Z" /><path d="M 9745,170 L 9835,170 L 9835,260 L 9745,260 Z" /><path d="M 9485,170 L 9575,170 L 9575,260 L 9485,260 Z" /><path d="M 9225,170 L 9315,170 L 9315,260 L 9225,260 Z" /><path d="M 8965,170 L 9055,170 L 9055,260 L 8965,260 Z" /><path d="M 10265,3110 L 10355,3110 L 10355,3200 L 10265,3200 Z" /><path d="M 10005,3110 L 10095,3110 L 10095,3200 L 10005,3200 Z" /><path d="M 9745,3110 L 9835,3110 L 9835,3200 L 9745,3200 Z" /><path d="M 9485,3110 L 9575,3110 L 9575,3200 L 9485,3200 Z" /><path d="M 9225,3110 L 9315,3110 L 9315,3200 L 9225,3200 Z" /><path d="M 8965,3110 L 9055,3110 L 9055,3200 L 8965,3200 Z" /><path d="M 8705,785 L 8795,785 L 8795,875 L 8705,875 Z" /><path d="M 8445,785 L 8535,785 L 8535,875 L 8445,875 Z" /><path d="M 8185,785 L 8275,785 L 8275,875 L 8185,875 Z" /><path d="M 7925,785 L 8015,785 L 8015,875 L 7925,875 Z" /><path d="M 7665,785 L 7755,785 L 7755,875 L 7665,875 Z" /><path d="M 7405,785 L 7495,785 L 7495,875 L 7405,875 Z" /><path d="M 7145,785 L 7235,785 L 7235,875 L 7145,875 Z" /><path d="M 6885,785 L 6975,785 L 6975,875 L 6885,875 Z" /><path d="M 6625,785 L 6715,785 L 6715,875 L 6625,875 Z" /><path d="M 6365,785 L 6455,785 L 6455,875 L 6365,875 Z" /><path d="M 6105,785 L 6195,785 L 6195,875 L 6105,875 Z" /><path d="M 6885,2435 L 6975,2435 L 6975,2525 L 6885,2525 Z" /><path d="M 7405,2435 L 7495,2435 L 7495,2525 L 7405,2525 Z" /><path d="M 7925,2435 L 8015,2435 L 8015,2525 L 7925,2525 Z" /><path d="M 8445,2435 L 8535,2435 L 8535,2525 L 8445,2525 Z" /><path d="M 8705,2435 L 8795,2435 L 8795,2525 L 8705,2525 Z" /><path d="M 8185,2435 L 8275,2435 L 8275,2525 L 8185,2525 Z" /><path d="M 7665,2435 L 7755,2435 L 7755,2525 L 7665,2525 Z" /><path d="M 7145,2435 L 7235,2435 L 7235,2525 L 7145,2525 Z" /><path d="M 6625,2435 L 6715,2435 L 6715,2525 L 6625,2525 Z" /><path d="M 6365,2435 L 6455,2435 L 6455,2525 L 6365,2525 Z" /><path d="M 6105,2435 L 6195,2435 L 6195,2525 L 6105,2525 Z" /><path d="M 8705,170 L 8795,170 L 8795,260 L 8705,260 Z" /><path d="M 8445,170 L 8535,170 L 8535,260 L 8445,260 Z" /><path d="M 8185,170 L 8275,170 L 8275,260 L 8185,260 Z" /><path d="M 7925,170 L 8015,170 L 8015,260 L 7925,260 Z" /><path d="M 7665,170 L 7755,170 L 7755,260 L 7665,260 Z" /><path d="M 7405,170 L 7495,170 L 7495,260 L 7405,260 Z" /><path d="M 7145,170 L 7235,170 L 7235,260 L 7145,260 Z" /><path d="M 6885,170 L 6975,170 L 6975,260 L 6885,260 Z" /><path d="M 6625,170 L 6715,170 L 6715,260 L 6625,260 Z" /><path d="M 6365,170 L 6455,170 L 6455,260 L 6365,260 Z" /><path d="M 6105,170 L 6195,170 L 6195,260 L 6105,260 Z" /><path d="M 8705,3110 L 8795,3110 L 8795,3200 L 8705,3200 Z" /><path d="M 8445,3110 L 8535,3110 L 8535,3200 L 8445,3200 Z" /><path d="M 8185,3110 L 8275,3110 L 8275,3200 L 8185,3200 Z" /><path d="M 7925,3110 L 8015,3110 L 8015,3200 L 7925,3200 Z" /><path d="M 7665,3110 L 7755,3110 L 7755,3200 L 7665,3200 Z" /><path d="M 7405,3110 L 7495,3110 L 7495,3200 L 7405,3200 Z" /><path d="M 7145,3110 L 7235,3110 L 7235,3200 L 7145,3200 Z" /><path d="M 6885,3110 L 6975,3110 L 6975,3200 L 6885,3200 Z" /><path d="M 6625,3110 L 6715,3110 L 6715,3200 L 6625,3200 Z" /><path d="M 6365,3110 L 6455,3110 L 6455,3200 L 6365,3200 Z" /><path d="M 6105,3110 L 6195,3110 L 6195,3200 L 6105,3200 Z" /><path d="M 6495,1355 L 6585,1355 L 6585,1445 L 6495,1445 Z" /><path d="M 6235,1165 L 6325,1165 L 6325,1255 L 6235,1255 Z" /><path d="M 8575,1355 L 8665,1355 L 8665,1445 L 8575,1445 Z" /><path d="M 8055,1165 L 8145,1165 L 8145,1255 L 8055,1255 Z" /><path d="M 7015,1925 L 7105,1925 L 7105,2015 L 7015,2015 Z" /><path d="M 7535,1545 L 7625,1545 L 7625,1635 L 7535,1635 Z" /><path d="M 5845,785 L 5935,785 L 5935,875 L 5845,875 Z" /><path d="M 5585,785 L 5675,785 L 5675,875 L 5585,875 Z" /><path d="M 5325,785 L 5415,785 L 5415,875 L 5325,875 Z" /><path d="M 5065,785 L 5155,785 L 5155,875 L 5065,875 Z" /><path d="M 4805,785 L 4895,785 L 4895,875 L 4805,875 Z" /><path d="M 4545,785 L 4635,785 L 4635,875 L 4545,875 Z" /><path d="M 4285,785 L 4375,785 L 4375,875 L 4285,875 Z" /><path d="M 4025,785 L 4115,785 L 4115,875 L 4025,875 Z" /><path d="M 3765,785 L 3855,785 L 3855,875 L 3765,875 Z" /><path d="M 3505,785 L 3595,785 L 3595,875 L 3505,875 Z" /><path d="M 3245,785 L 3335,785 L 3335,875 L 3245,875 Z" /><path d="M 4025,2435 L 4115,2435 L 4115,2525 L 4025,2525 Z" /><path d="M 4545,2435 L 4635,2435 L 4635,2525 L 4545,2525 Z" /><path d="M 5065,2435 L 5155,2435 L 5155,2525 L 5065,2525 Z" /><path d="M 5585,2435 L 5675,2435 L 5675,2525 L 5585,2525 Z" /><path d="M 5845,2435 L 5935,2435 L 5935,2525 L 5845,2525 Z" /><path d="M 5325,2435 L 5415,2435 L 5415,2525 L 5325,2525 Z" /><path d="M 4805,2435 L 4895,2435 L 4895,2525 L 4805,2525 Z" /><path d="M 4285,2435 L 4375,2435 L 4375,2525 L 4285,2525 Z" /><path d="M 3765,2435 L 3855,2435 L 3855,2525 L 3765,2525 Z" /><path d="M 3505,2435 L 3595,2435 L 3595,2525 L 3505,2525 Z" /><path d="M 3245,2435 L 3335,2435 L 3335,2525 L 3245,2525 Z" /><path d="M 5845,170 L 5935,170 L 5935,260 L 5845,260 Z" /><path d="M 5585,170 L 5675,170 L 5675,260 L 5585,260 Z" /><path d="M 5325,170 L 5415,170 L 5415,260 L 5325,260 Z" /><path d="M 5065,170 L 5155,170 L 5155,260 L 5065,260 Z" /><path d="M 4805,170 L 4895,170 L 4895,260 L 4805,260 Z" /><path d="M 4545,170 L 4635,170 L 4635,260 L 4545,260 Z" /><path d="M 4285,170 L 4375,170 L 4375,260 L 4285,260 Z" /><path d="M 4025,170 L 4115,170 L 4115,260 L 4025,260 Z" /><path d="M 3765,170 L 3855,170 L 3855,260 L 3765,260 Z" /><path d="M 3505,170 L 3595,170 L 3595,260 L 3505,260 Z" /><path d="M 3245,170 L 3335,170 L 3335,260 L 3245,260 Z" /><path d="M 5845,3110 L 5935,3110 L 5935,3200 L 5845,3200 Z" /><path d="M 5585,3110 L 5675,3110 L 5675,3200 L 5585,3200 Z" /><path d="M 5325,3110 L 5415,3110 L 5415,3200 L 5325,3200 Z" /><path d="M 5065,3110 L 5155,3110 L 5155,3200 L 5065,3200 Z" /><path d="M 4805,3110 L 4895,3110 L 4895,3200 L 4805,3200 Z" /><path d="M 4545,3110 L 4635,3110 L 4635,3200 L 4545,3200 Z" /><path d="M 4285,3110 L 4375,3110 L 4375,3200 L 4285,3200 Z" /><path d="M 4025,3110 L 4115,3110 L 4115,3200 L 4025,3200 Z" /><path d="M 3765,3110 L 3855,3110 L 3855,3200 L 3765,3200 Z" /><path d="M 3505,3110 L 3595,3110 L 3595,3200 L 3505,3200 Z" /><path d="M 3245,3110 L 3335,3110 L 3335,3200 L 3245,3200 Z" /><path d="M 3635,1355 L 3725,1355 L 3725,1445 L 3635,1445 Z" /><path d="M 3375,1165 L 3465,1165 L 3465,1255 L 3375,1255 Z" /><path d="M 5715,1355 L 5805,1355 L 5805,1445 L 5715,1445 Z" /><path d="M 5195,1165 L 5285,1165 L 5285,1255 L 5195,1255 Z" /><path d="M 4155,1925 L 4245,1925 L 4245,2015 L 4155,2015 Z" /><path d="M 4675,1545 L 4765,1545 L 4765,1635 L 4675,1635 Z" /><path d="M 2985,785 L 3075,785 L 3075,875 L 2985,875 Z" /><path d="M 2725,785 L 2815,785 L 2815,875 L 2725,875 Z" /><path d="M 2465,785 L 2555,785 L 2555,875 L 2465,875 Z" /><path d="M 2205,785 L 2295,785 L 2295,875 L 2205,875 Z" /><path d="M 1945,785 L 2035,785 L 2035,875 L 1945,875 Z" /><path d="M 1685,785 L 1775,785 L 1775,875 L 1685,875 Z" /><path d="M 1425,785 L 1515,785 L 1515,875 L 1425,875 Z" /><path d="M 1165,785 L 1255,785 L 1255,875 L 1165,875 Z" /><path d="M 905,785 L 995,785 L 995,875 L 905,875 Z" /><path d="M 645,785 L 735,785 L 735,875 L 645,875 Z" /><path d="M 385,785 L 475,785 L 475,875 L 385,875 Z" /><path d="M 1165,2435 L 1255,2435 L 1255,2525 L 1165,2525 Z" /><path d="M 1685,2435 L 1775,2435 L 1775,2525 L 1685,2525 Z" /><path d="M 2205,2435 L 2295,2435 L 2295,2525 L 2205,2525 Z" /><path d="M 2725,2435 L 2815,2435 L 2815,2525 L 2725,2525 Z" /><path d="M 2985,2435 L 3075,2435 L 3075,2525 L 2985,2525 Z" /><path d="M 2465,2435 L 2555,2435 L 2555,2525 L 2465,2525 Z" /><path d="M 1945,2435 L 2035,2435 L 2035,2525 L 1945,2525 Z" /><path d="M 1425,2435 L 1515,2435 L 1515,2525 L 1425,2525 Z" /><path d="M 905,2435 L 995,2435 L 995,2525 L 905,2525 Z" /><path d="M 645,2435 L 735,2435 L 735,2525 L 645,2525 Z" /><path d="M 385,2435 L 475,2435 L 475,2525 L 385,2525 Z" /><path d="M 2985,170 L 3075,170 L 3075,260 L 2985,260 Z" /><path d="M 2725,170 L 2815,170 L 2815,260 L 2725,260 Z" /><path d="M 2465,170 L 2555,170 L 2555,260 L 2465,260 Z" /><path d="M 2205,170 L 2295,170 L 2295,260 L 2205,260 Z" /><path d="M 1945,170 L 2035,170 L 2035,260 L 1945,260 Z" /><path d="M 1685,170 L 1775,170 L 1775,260 L 1685,260 Z" /><path d="M 1425,170 L 1515,170 L 1515,260 L 1425,260 Z" /><path d="M 1165,170 L 1255,170 L 1255,260 L 1165,260 Z" /><path d="M 905,170 L 995,170 L 995,260 L 905,260 Z" /><path d="M 645,170 L 735,170 L 735,260 L 645,260 Z" /><path d="M 385,170 L 475,170 L 475,260 L 385,260 Z" /><path d="M 2985,3110 L 3075,3110 L 3075,3200 L 2985,3200 Z" /><path d="M 2725,3110 L 2815,3110 L 2815,3200 L 2725,3200 Z" /><path d="M 2465,3110 L 2555,3110 L 2555,3200 L 2465,3200 Z" /><path d="M 2205,3110 L 2295,3110 L 2295,3200 L 2205,3200 Z" /><path d="M 1945,3110 L 2035,3110 L 2035,3200 L 1945,3200 Z" /><path d="M 1685,3110 L 1775,3110 L 1775,3200 L 1685,3200 Z" /><path d="M 1425,3110 L 1515,3110 L 1515,3200 L 1425,3200 Z" /><path d="M 1165,3110 L 1255,3110 L 1255,3200 L 1165,3200 Z" /><path d="M 905,3110 L 995,3110 L 995,3200 L 905,3200 Z" /><path d="M 645,3110 L 735,3110 L 735,3200 L 645,3200 Z" /><path d="M 385,3110 L 475,3110 L 475,3200 L 385,3200 Z" /><path d="M 775,1355 L 865,1355 L 865,1445 L 775,1445 Z" /><path d="M 515,1165 L 605,1165 L 605,1255 L 515,1255 Z" /><path d="M 2855,1355 L 2945,1355 L 2945,1445 L 2855,1445 Z" /><path d="M 2335,1165 L 2425,1165 L 2425,1255 L 2335,1255 Z" /><path d="M 1295,1925 L 1385,1925 L 1385,2015 L 1295,2015 Z" /><path d="M 1815,1545 L 1905,1545 L 1905,1635 L 1815,1635 Z" /><path d="M 13385,2480 L 13475,2480 L 13475,2570 L 13385,2570 Z" /><path d="M 12865,2480 L 12955,2480 L 12955,2570 L 12865,2570 Z" /><path d="M 14685,2435 L 14775,2435 L 14775,2525 L 14685,2525 Z" /><path d="M 14425,2435 L 14515,2435 L 14515,2525 L 14425,2525 Z" /><path d="M 14165,2435 L 14255,2435 L 14255,2525 L 14165,2525 Z" /><path d="M 13125,2150 L 13215,2150 L 13215,2240 L 13125,2240 Z" /><path d="M 13125,2480 L 13215,2480 L 13215,2570 L 13125,2570 Z" /><path d="M 14945,170 L 15035,170 L 15035,260 L 14945,260 Z" /><path d="M 14685,170 L 14775,170 L 14775,260 L 14685,260 Z" /><path d="M 14425,170 L 14515,170 L 14515,260 L 14425,260 Z" /><path d="M 14165,170 L 14255,170 L 14255,260 L 14165,260 Z" /><path d="M 13905,170 L 13995,170 L 13995,260 L 13905,260 Z" /><path d="M 13645,170 L 13735,170 L 13735,260 L 13645,260 Z" /><path d="M 13385,170 L 13475,170 L 13475,260 L 13385,260 Z" /><path d="M 13125,170 L 13215,170 L 13215,260 L 13125,260 Z" /><path d="M 12865,170 L 12955,170 L 12955,260 L 12865,260 Z" /><path d="M 12605,170 L 12695,170 L 12695,260 L 12605,260 Z" /><path d="M 12345,170 L 12435,170 L 12435,260 L 12345,260 Z" /><path d="M 12085,170 L 12175,170 L 12175,260 L 12085,260 Z" /><path d="M 11825,170 L 11915,170 L 11915,260 L 11825,260 Z" /><path d="M 11565,170 L 11655,170 L 11655,260 L 11565,260 Z" /><path d="M 11305,170 L 11395,170 L 11395,260 L 11305,260 Z" /><path d="M 11045,170 L 11135,170 L 11135,260 L 11045,260 Z" /><path d="M 10785,170 L 10875,170 L 10875,260 L 10785,260 Z" /><path d="M 10525,170 L 10615,170 L 10615,260 L 10525,260 Z" /><path d="M 14945,3110 L 15035,3110 L 15035,3200 L 14945,3200 Z" /><path d="M 10785,2435 L 10875,2435 L 10875,2525 L 10785,2525 Z" /><path d="M 11565,2435 L 11655,2435 L 11655,2525 L 11565,2525 Z" /><path d="M 11305,2435 L 11395,2435 L 11395,2525 L 11305,2525 Z" /><path d="M 11045,2435 L 11135,2435 L 11135,2525 L 11045,2525 Z" /><path d="M 11565,3110 L 11655,3110 L 11655,3200 L 11565,3200 Z" /><path d="M 10525,3110 L 10615,3110 L 10615,3200 L 10525,3200 Z" /><path d="M 10785,3110 L 10875,3110 L 10875,3200 L 10785,3200 Z" /><path d="M 11045,3110 L 11135,3110 L 11135,3200 L 11045,3200 Z" /><path d="M 11305,3110 L 11395,3110 L 11395,3200 L 11305,3200 Z" /><path d="M 14685,3110 L 14775,3110 L 14775,3200 L 14685,3200 Z" /><path d="M 13385,3110 L 13475,3110 L 13475,3200 L 13385,3200 Z" /><path d="M 13645,3110 L 13735,3110 L 13735,3200 L 13645,3200 Z" /><path d="M 13905,3110 L 13995,3110 L 13995,3200 L 13905,3200 Z" /><path d="M 14165,3110 L 14255,3110 L 14255,3200 L 14165,3200 Z" /><path d="M 14425,3110 L 14515,3110 L 14515,3200 L 14425,3200 Z" /><path d="M 12345,2435 L 12435,2435 L 12435,2525 L 12345,2525 Z" /><path d="M 13125,3110 L 13215,3110 L 13215,3200 L 13125,3200 Z" /><path d="M 11825,3110 L 11915,3110 L 11915,3200 L 11825,3200 Z" /><path d="M 12085,3110 L 12175,3110 L 12175,3200 L 12085,3200 Z" /><path d="M 12345,3110 L 12435,3110 L 12435,3200 L 12345,3200 Z" /><path d="M 12605,3110 L 12695,3110 L 12695,3200 L 12605,3200 Z" /><path d="M 12865,3110 L 12955,3110 L 12955,3200 L 12865,3200 Z" /><path d="M 14945,845 L 15035,845 L 15035,935 L 14945,935 Z" /><path d="M 13905,845 L 13995,845 L 13995,935 L 13905,935 Z" /><path d="M 13645,1010 L 13735,1010 L 13735,1100 L 13645,1100 Z" /><path d="M 13645,800 L 13735,800 L 13735,890 L 13645,890 Z" /><path d="M 12865,800 L 12955,800 L 12955,890 L 12865,890 Z" /><path d="M 12605,845 L 12695,845 L 12695,935 L 12605,935 Z" /><path d="M 12085,845 L 12175,845 L 12175,935 L 12085,935 Z" /><path d="M 11825,1010 L 11915,1010 L 11915,1100 L 11825,1100 Z" /><path d="M 11825,800 L 11915,800 L 11915,890 L 11825,890 Z" /><path d="M 14425,845 L 14515,845 L 14515,935 L 14425,935 Z" /><path d="M 10525,845 L 10615,845 L 10615,935 L 10525,935 Z" /><path d="M 10525,2435 L 10615,2435 L 10615,2525 L 10525,2525 Z" /><path d="M 14945,2435 L 15035,2435 L 15035,2525 L 14945,2525 Z" /><path d="M 13905,2435 L 13995,2435 L 13995,2525 L 13905,2525 Z" /><path d="M 13645,2150 L 13735,2150 L 13735,2240 L 13645,2240 Z" /><path d="M 12865,1010 L 12955,1010 L 12955,1100 L 12865,1100 Z" /><path d="M 12605,2435 L 12695,2435 L 12695,2525 L 12605,2525 Z" /><path d="M 12085,2435 L 12175,2435 L 12175,2525 L 12085,2525 Z" /><path d="M 11825,2435 L 11915,2435 L 11915,2525 L 11825,2525 Z" /><path d="M 11045,845 L 11135,845 L 11135,935 L 11045,935 Z" /><path d="M 13645,2480 L 13735,2480 L 13735,2570 L 13645,2570 Z" /><path d="M 10655,1545 L 10745,1545 L 10745,1635 L 10655,1635 Z" /><path d="M 12215,2150 L 12305,2150 L 12305,2240 L 12215,2240 Z" /><path d="M 10915,1925 L 11005,1925 L 11005,2015 L 10915,2015 Z" /><path d="M 11175,1735 L 11265,1735 L 11265,1825 L 11175,1825 Z" /><path d="M 12735,1355 L 12825,1355 L 12825,1445 L 12735,1445 Z" /><path d="M 12995,1735 L 13085,1735 L 13085,1825 L 12995,1825 Z" /><path d="M 12475,1735 L 12565,1735 L 12565,1825 L 12475,1825 Z" /><path d="M 11695,1735 L 11785,1735 L 11785,1825 L 11695,1825 Z" /><path d="M 11435,1355 L 11525,1355 L 11525,1445 L 11435,1445 Z" /><path d="M 13515,1545 L 13605,1545 L 13605,1635 L 13515,1635 Z" /><path d="M 14555,2150 L 14645,2150 L 14645,2240 L 14555,2240 Z" /><path d="M 13255,1925 L 13345,1925 L 13345,2015 L 13255,2015 Z" /><path d="M 14815,1735 L 14905,1735 L 14905,1825 L 14815,1825 Z" /><path d="M 14295,1545 L 14385,1545 L 14385,1635 L 14295,1635 Z" /><path d="M 14035,1925 L 14125,1925 L 14125,2015 L 14035,2015 Z" /><path d="M 9615,1735 L 9705,1735 L 9705,1825 L 9615,1825 Z" /><path d="M 9355,1925 L 9445,1925 L 9445,2015 L 9355,2015 Z" /><path d="M 9095,1545 L 9185,1545 L 9185,1635 L 9095,1635 Z" /><path d="M 10135,1355 L 10225,1355 L 10225,1445 L 10135,1445 Z" /></g></g><g id="M1"><g class="l31d0"><path d="M 7105,780 L 7535,780 L 7535,880 L 7105,880 Z" /><path d="M 8145,780 L 8575,780 L 8575,880 L 8145,880 Z" /><path d="M 6200,500 L 6100,500 L 6100,740 L 6100,920 L 6200,920 L 6200,740 Z" /><path d="M 6720,500 L 6620,500 L 6620,740 L 6620,920 L 6720,920 L 6720,740 Z" /><path d="M 8440,2390 L 8440,2570 L 8440,2810 L 8540,2810 L 8540,2570 L 8540,2390 Z" /><path d="M 8180,2390 L 8180,2570 L 8180,2810 L 8280,2810 L 8280,2570 L 8280,2390 Z" /><path d="M 7920,2390 L 7920,2570 L 7920,2810 L 8020,2810 L 8020,2570 L 8020,2390 Z" /><path d="M 7660,2390 L 7660,2570 L 7660,2810 L 7760,2810 L 7760,2570 L 7760,2390 Z" /><path d="M 7400,2390 L 7400,2570 L 7400,2810 L 7500,2810 L 7500,2570 L 7500,2390 Z" /><path d="M 7140,2390 L 7140,2570 L 7140,2810 L 7240,2810 L 7240,2570 L 7240,2390 Z" /><path d="M 6620,2390 L 6620,2570 L 6620,2810 L 6720,2810 L 6720,2570 L 6720,2390 Z" /><path d="M 6100,2390 L 6100,2570 L 6100,2810 L 6200,2810 L 6200,2570 L 6200,2390 Z" /><path d="M 7760,500 L 7660,500 L 7660,740 L 7660,920 L 7760,920 L 7760,740 Z" /><path d="M 8020,500 L 7920,500 L 7920,740 L 7920,920 L 8020,920 L 8020,740 Z" /><path d="M 7800,1920 L 7710,1920 L 7620,1920 L 7620,2020 L 7710,2020 L 7800,2020 L 8400,2020 L 8510,2020 L 8580,2020 L 8580,1920 L 8510,1920 L 8400,1920 Z" /><path d="M 7280,2110 L 7190,2110 L 7100,2110 L 7100,2210 L 7190,2210 L 7280,2210 L 7880,2210 L 8005,2210 L 8060,2210 L 8060,2110 L 8005,2110 L 7880,2110 Z" /><path d="M 6975,1920 L 6760,1920 L 6670,1920 L 6580,1920 L 6580,2020 L 6670,2020 L 6760,2020 L 6975,2020 L 7060,2020 L 7145,2020 L 7145,1920 L 7060,1920 Z" /><path d="M 7495,1540 L 6240,1540 L 6150,1540 L 6060,1540 L 6060,1640 L 6150,1640 L 6240,1640 L 7495,1640 L 7580,1640 L 7665,1640 L 7665,1540 L 7580,1540 Z" /><path d="M 4245,780 L 4675,780 L 4675,880 L 4245,880 Z" /><path d="M 5285,780 L 5715,780 L 5715,880 L 5285,880 Z" /><path d="M 3340,500 L 3240,500 L 3240,740 L 3240,920 L 3340,920 L 3340,740 Z" /><path d="M 3860,500 L 3760,500 L 3760,740 L 3760,920 L 3860,920 L 3860,740 Z" /><path d="M 5580,2390 L 5580,2570 L 5580,2810 L 5680,2810 L 5680,2570 L 5680,2390 Z" /><path d="M 5320,2390 L 5320,2570 L 5320,2810 L 5420,2810 L 5420,2570 L 5420,2390 Z" /><path d="M 5060,2390 L 5060,2570 L 5060,2810 L 5160,2810 L 5160,2570 L 5160,2390 Z" /><path d="M 4800,2390 L 4800,2570 L 4800,2810 L 4900,2810 L 4900,2570 L 4900,2390 Z" /><path d="M 4540,2390 L 4540,2570 L 4540,2810 L 4640,2810 L 4640,2570 L 4640,2390 Z" /><path d="M 4280,2390 L 4280,2570 L 4280,2810 L 4380,2810 L 4380,2570 L 4380,2390 Z" /><path d="M 3760,2390 L 3760,2570 L 3760,2810 L 3860,2810 L 3860,2570 L 3860,2390 Z" /><path d="M 3240,2390 L 3240,2570 L 3240,2810 L 3340,2810 L 3340,2570 L 3340,2390 Z" /><path d="M 4900,500 L 4800,500 L 4800,740 L 4800,920 L 4900,920 L 4900,740 Z" /><path d="M 5160,500 L 5060,500 L 5060,740 L 5060,920 L 5160,920 L 5160,740 Z" /><path d="M 4940,1920 L 4850,1920 L 4760,1920 L 4760,2020 L 4850,2020 L 4940,2020 L 5540,2020 L 5650,2020 L 5720,2020 L 5720,1920 L 5650,1920 L 5540,1920 Z" /><path d="M 4420,2110 L 4330,2110 L 4240,2110 L 4240,2210 L 4330,2210 L 4420,2210 L 5020,2210 L 5145,2210 L 5200,2210 L 5200,2110 L 5145,2110 L 5020,2110 Z" /><path d="M 4115,1920 L 3900,1920 L 3810,1920 L 3720,1920 L 3720,2020 L 3810,2020 L 3900,2020 L 4115,2020 L 4200,2020 L 4285,2020 L 4285,1920 L 4200,1920 Z" /><path d="M 4635,1540 L 3380,1540 L 3290,1540 L 3200,1540 L 3200,1640 L 3290,1640 L 3380,1640 L 4635,1640 L 4720,1640 L 4805,1640 L 4805,1540 L 4720,1540 Z" /><path d="M 1385,780 L 1815,780 L 1815,880 L 1385,880 Z" /><path d="M 2425,780 L 2855,780 L 2855,880 L 2425,880 Z" /><path d="M 480,500 L 380,500 L 380,740 L 380,920 L 480,920 L 480,740 Z" /><path d="M 1000,500 L 900,500 L 900,740 L 900,920 L 1000,920 L 1000,740 Z" /><path d="M 2720,2390 L 2720,2570 L 2720,2810 L 2820,2810 L 2820,2570 L 2820,2390 Z" /><path d="M 2460,2390 L 2460,2570 L 2460,2810 L 2560,2810 L 2560,2570 L 2560,2390 Z" /><path d="M 2200,2390 L 2200,2570 L 2200,2810 L 2300,2810 L 2300,2570 L 2300,2390 Z" /><path d="M 1940,2390 L 1940,2570 L 1940,2810 L 2040,2810 L 2040,2570 L 2040,2390 Z" /><path d="M 1680,2390 L 1680,2570 L 1680,2810 L 1780,2810 L 1780,2570 L 1780,2390 Z" /><path d="M 1420,2390 L 1420,2570 L 1420,2810 L 1520,2810 L 1520,2570 L 1520,2390 Z" /><path d="M 900,2390 L 900,2570 L 900,2810 L 1000,2810 L 1000,2570 L 1000,2390 Z" /><path d="M 380,2390 L 380,2570 L 380,2810 L 480,2810 L 480,2570 L 480,2390 Z" /><path d="M 2040,500 L 1940,500 L 1940,740 L 1940,920 L 2040,920 L 2040,740 Z" /><path d="M 2300,500 L 2200,500 L 2200,740 L 2200,920 L 2300,920 L 2300,740 Z" /><path d="M 2080,1920 L 1990,1920 L 1900,1920 L 1900,2020 L 1990,2020 L 2080,2020 L 2680,2020 L 2790,2020 L 2860,2020 L 2860,1920 L 2790,1920 L 2680,1920 Z" /><path d="M 1560,2110 L 1470,2110 L 1380,2110 L 1380,2210 L 1470,2210 L 1560,2210 L 2160,2210 L 2285,2210 L 2340,2210 L 2340,2110 L 2285,2110 L 2160,2110 Z" /><path d="M 1255,1920 L 1040,1920 L 950,1920 L 860,1920 L 860,2020 L 950,2020 L 1040,2020 L 1255,2020 L 1340,2020 L 1425,2020 L 1425,1920 L 1340,1920 Z" /><path d="M 1775,1540 L 520,1540 L 430,1540 L 340,1540 L 340,1640 L 430,1640 L 520,1640 L 1775,1640 L 1860,1640 L 1945,1640 L 1945,1540 L 1860,1540 Z" /><path d="M 13380,2575 L 13380,2700 L 12960,2700 L 12960,2575 L 12960,2440 L 12860,2440 L 12860,2575 L 12860,2700 L 12860,2800 L 12960,2800 L 13380,2800 L 13480,2800 L 13480,2700 L 13480,2575 L 13480,2440 L 13380,2440 Z" /><path d="M 9219,780 L 9220,780 L 9220,915 L 9320,915 L 9320,780 L 9320,310 L 9740,310 L 9740,780 L 9740,915 L 9840,915 L 9840,780 L 9840,310 L 10000,310 L 10000,780 L 10000,915 L 10100,915 L 10100,780 L 10100,310 L 10430,310 L 11040,310 L 11040,840 L 11040,975 L 11140,975 L 11140,840 L 11140,310 L 12600,310 L 12600,840 L 12600,975 L 12700,975 L 12700,840 L 12700,310 L 13640,310 L 13640,795 L 13640,1140 L 13740,1140 L 13740,795 L 13740,310 L 14420,310 L 14420,840 L 14420,975 L 14520,975 L 14520,840 L 14520,310 L 15130,310 L 15130,120 L 10430,120 L 8890,120 L 6030,120 L 6010,120 L 3170,120 L 3150,120 L 290,120 L 290,310 L 640,310 L 640,780 L 640,915 L 740,915 L 740,780 L 740,310 L 1160,310 L 1160,780 L 1160,915 L 1260,915 L 1260,780 L 1260,310 L 2980,310 L 2980,780 L 2980,915 L 3080,915 L 3080,780 L 3080,310 L 3150,310 L 3170,310 L 3500,310 L 3500,780 L 3500,915 L 3600,915 L 3600,780 L 3600,310 L 4020,310 L 4020,780 L 4020,915 L 4120,915 L 4120,780 L 4120,310 L 5840,310 L 5840,780 L 5840,915 L 5940,915 L 5940,780 L 5940,310 L 6010,310 L 6030,310 L 6360,310 L 6360,780 L 6360,915 L 6460,915 L 6460,780 L 6460,310 L 6880,310 L 6880,780 L 6880,915 L 6980,915 L 6980,780 L 6980,310 L 8700,310 L 8700,780 L 8700,915 L 8800,915 L 8800,780 L 8800,310 L 8890,310 L 9219,310 Z" /><path d="M 10100,3060 L 10100,2530 L 10100,2395 L 10000,2395 L 10000,2530 L 10000,3060 L 9840,3060 L 9840,2245 L 9840,2110 L 9740,2110 L 9740,2245 L 9740,3060 L 8890,3060 L 8800,3060 L 8800,2530 L 8800,2395 L 8700,2395 L 8700,2530 L 8700,3060 L 6980,3060 L 6980,2530 L 6980,2395 L 6880,2395 L 6880,2530 L 6880,3060 L 6460,3060 L 6460,2530 L 6460,2395 L 6360,2395 L 6360,2530 L 6360,3060 L 6030,3060 L 6010,3060 L 5940,3060 L 5940,2530 L 5940,2395 L 5840,2395 L 5840,2530 L 5840,3060 L 4120,3060 L 4120,2530 L 4120,2395 L 4020,2395 L 4020,2530 L 4020,3060 L 3600,3060 L 3600,2530 L 3600,2395 L 3500,2395 L 3500,2530 L 3500,3060 L 3170,3060 L 3150,3060 L 3080,3060 L 3080,2530 L 3080,2395 L 2980,2395 L 2980,2530 L 2980,3060 L 1260,3060 L 1260,2530 L 1260,2395 L 1160,2395 L 1160,2530 L 1160,3060 L 740,3060 L 740,2530 L 740,2395 L 640,2395 L 640,2530 L 640,3060 L 290,3060 L 290,3250 L 3150,3250 L 3170,3250 L 6010,3250 L 6030,3250 L 8890,3250 L 10430,3250 L 15130,3250 L 15130,3060 L 15040,3060 L 15040,2530 L 15040,2395 L 14940,2395 L 14940,2530 L 14940,3060 L 14520,3060 L 14520,2530 L 14520,2395 L 14420,2395 L 14420,2530 L 14420,3060 L 14000,3060 L 14000,2530 L 14000,2395 L 13900,2395 L 13900,2530 L 13900,3060 L 12700,3060 L 12700,2530 L 12700,2395 L 12600,2395 L 12600,2530 L 12600,3060 L 12180,3060 L 12180,2530 L 12180,2395 L 12080,2395 L 12080,2530 L 12080,3060 L 11660,3060 L 11660,2530 L 11660,2395 L 11560,2395 L 11560,2530 L 11560,3060 L 11140,3060 L 11140,2530 L 11140,2395 L 11040,2395 L 11040,2530 L 11040,3060 L 10620,3060 L 10620,2530 L 10620,2395 L 10520,2395 L 10520,2530 L 10520,3060 L 10430,3060 Z" /><path d="M 12340,2390 L 12340,2570 L 12340,2810 L 12440,2810 L 12440,2570 L 12440,2390 Z" /><path d="M 11920,720 L 11820,720 L 11820,860 L 11820,1040 L 11820,1140 L 11920,1140 L 11920,1040 L 11920,860 Z" /><path d="M 10780,2390 L 10780,2570 L 10780,2810 L 10880,2810 L 10880,2570 L 10880,2390 Z" /><path d="M 14160,2390 L 14160,2570 L 14160,2810 L 14260,2810 L 14260,2570 L 14260,2390 Z" /><path d="M 14680,2390 L 14680,2570 L 14680,2810 L 14780,2810 L 14780,2570 L 14780,2390 Z" /><path d="M 12960,720 L 12860,720 L 12860,860 L 12860,1040 L 12860,1140 L 12960,1140 L 12960,1040 L 12960,860 Z" /><path d="M 12045,940 L 12180,940 L 12300,940 L 12390,940 L 12480,940 L 12480,840 L 12390,840 L 12300,840 L 12180,840 L 12045,840 Z" /><path d="M 10485,940 L 10740,940 L 10830,940 L 10920,940 L 10920,840 L 10830,840 L 10740,840 L 10485,840 Z" /><path d="M 13865,940 L 14000,940 L 14120,940 L 14210,940 L 14300,940 L 14300,840 L 14210,840 L 14120,840 L 14000,840 L 13865,840 Z" /><path d="M 15075,840 L 14940,840 L 14820,840 L 14730,840 L 14640,840 L 14640,940 L 14730,940 L 14820,940 L 14940,940 L 15075,940 Z" /><path d="M 10885,1730 L 10885,1830 L 11135,1830 L 11305,1830 L 11305,1730 L 11135,1730 Z" /><path d="M 12570,1350 L 12570,1450 L 12695,1450 L 12865,1450 L 12990,1450 L 12990,1350 L 12865,1350 L 12695,1350 Z" /><path d="M 12890,1830 L 12955,1830 L 13080,1830 L 13125,1830 L 13260,1830 L 13310,1830 L 13310,1730 L 13260,1730 L 13125,1730 L 13080,1730 L 12955,1730 L 12890,1730 Z" /><path d="M 11415,1830 L 11520,1830 L 11655,1830 L 11700,1830 L 11825,1830 L 11835,1830 L 11835,1730 L 11825,1730 L 11700,1730 L 11655,1730 L 11520,1730 L 11415,1730 Z" /><path d="M 11395,1450 L 11480,1450 L 11565,1450 L 11565,1350 L 11480,1350 L 11395,1350 L 10920,1350 L 10830,1350 L 10740,1350 L 10740,1450 L 10830,1450 L 10920,1450 Z" /><path d="M 10785,1540 L 10700,1540 L 10615,1540 L 10615,1640 L 10700,1640 L 10785,1640 L 12300,1640 L 12390,1640 L 12480,1640 L 13475,1640 L 13560,1640 L 13645,1640 L 13645,1540 L 13560,1540 L 13475,1540 L 12480,1540 L 12390,1540 L 12300,1540 Z" /><path d="M 13085,2245 L 13120,2245 L 13120,2475 L 13120,2610 L 13220,2610 L 13220,2475 L 13220,2245 L 13640,2245 L 13640,2475 L 13640,2610 L 13740,2610 L 13740,2475 L 13740,2245 L 13775,2245 L 13775,2244 L 14515,2244 L 14515,2245 L 14685,2245 L 14685,2145 L 14600,2145 L 14515,2145 L 13775,2145 L 13085,2145 L 13000,2145 L 12910,2145 L 12820,2145 L 12345,2145 L 12260,2145 L 12175,2145 L 12175,2245 L 12345,2245 L 12345,2244 L 12820,2244 L 12820,2245 L 13000,2245 L 13000,2244 L 13085,2244 Z" /><path d="M 14775,1730 L 14300,1730 L 14210,1730 L 14120,1730 L 14120,1830 L 14210,1830 L 14300,1830 L 14775,1830 L 14860,1830 L 14945,1830 L 14945,1730 L 14860,1730 Z" /><path d="M 14425,1640 L 14640,1640 L 14730,1640 L 14820,1640 L 14820,1540 L 14730,1540 L 14640,1540 L 14425,1540 L 14340,1540 L 14255,1540 L 14255,1640 L 14340,1640 Z" /><path d="M 13215,2020 L 13385,2020 L 13995,2020 L 14080,2020 L 14165,2020 L 14165,1920 L 14080,1920 L 13995,1920 L 13385,1920 L 13215,1920 L 11960,1920 L 11870,1920 L 11780,1920 L 11045,1920 L 10960,1920 L 10875,1920 L 10875,2020 L 10960,2020 L 11045,2020 L 11300,2020 L 11300,2565 L 11400,2565 L 11400,2020 L 11780,2020 L 11820,2020 L 11820,2565 L 11920,2565 L 11920,2020 L 11960,2020 Z" /><path d="M 8960,2245 L 8959,2245 L 8959,2360 L 8959,2475 L 8960,2475 L 8960,2610 L 9060,2610 L 9060,2475 L 9060,2450 L 9060,2360 L 9060,2270 L 9060,2245 L 9060,2110 L 8960,2110 Z" /><path d="M 10260,2390 L 10260,2570 L 10260,2810 L 10360,2810 L 10360,2570 L 10360,2390 Z" /><path d="M 10360,500 L 10260,500 L 10260,740 L 10260,920 L 10360,920 L 10360,740 Z" /><path d="M 9580,500 L 9480,500 L 9480,740 L 9480,920 L 9580,920 L 9580,740 Z" /><path d="M 9060,500 L 8960,500 L 8960,740 L 8960,920 L 9060,920 L 9060,740 Z" /><path d="M 5980,1160 L 5890,1160 L 5800,1160 L 5800,1260 L 5890,1260 L 5980,1260 L 6195,1260 L 6230,1260 L 6280,1260 L 6365,1260 L 8015,1260 L 8100,1260 L 8185,1260 L 8185,1160 L 8100,1160 L 8015,1160 L 6365,1160 L 6280,1160 L 6230,1160 L 6195,1160 Z" /><path d="M 3765,1450 L 3980,1450 L 4070,1450 L 4160,1450 L 5675,1450 L 5760,1450 L 5845,1450 L 5845,1350 L 5760,1350 L 5675,1350 L 4160,1350 L 4070,1350 L 3980,1350 L 3765,1350 L 3730,1350 L 3680,1350 L 3630,1350 L 3595,1350 L 3595,1450 L 3630,1450 L 3680,1450 L 3730,1450 Z" /><path d="M 6625,1350 L 6540,1350 L 6500,1350 L 6455,1350 L 6320,1350 L 6320,1450 L 6455,1450 L 6500,1450 L 6540,1450 L 6625,1450 L 8535,1450 L 8620,1450 L 8705,1450 L 8705,1350 L 8620,1350 L 8535,1350 Z" /><path d="M 780,1160 L 645,1160 L 600,1160 L 560,1160 L 475,1160 L 475,1260 L 560,1260 L 600,1260 L 645,1260 L 780,1260 L 2295,1260 L 2380,1260 L 2465,1260 L 2465,1160 L 2380,1160 L 2295,1160 Z" /><path d="M 3640,1160 L 3505,1160 L 3460,1160 L 3420,1160 L 3335,1160 L 3335,1260 L 3420,1260 L 3460,1260 L 3505,1260 L 3640,1260 L 5155,1260 L 5240,1260 L 5325,1260 L 5325,1160 L 5240,1160 L 5155,1160 Z" /><path d="M 905,1450 L 1120,1450 L 1210,1450 L 1300,1450 L 2815,1450 L 2900,1450 L 2985,1450 L 2985,1350 L 2900,1350 L 2815,1350 L 1300,1350 L 1210,1350 L 1120,1350 L 905,1350 L 870,1350 L 820,1350 L 735,1350 L 735,1450 L 820,1450 L 870,1450 Z" /><path d="M 12310,1830 L 12435,1830 L 12560,1830 L 12605,1830 L 12730,1830 L 12740,1830 L 12740,1730 L 12730,1730 L 12605,1730 L 12560,1730 L 12435,1730 L 12310,1730 Z" /><path d="M 9575,1830 L 9660,1830 L 9745,1830 L 9745,1730 L 9660,1730 L 9575,1730 L 8320,1730 L 8230,1730 L 8140,1730 L 8140,1830 L 8230,1830 L 8320,1830 Z" /><path d="M 9125,2020 L 9180,2020 L 9270,2020 L 9315,2020 L 9360,2020 L 9400,2020 L 9485,2020 L 9545,2020 L 9545,1920 L 9485,1920 L 9400,1920 L 9360,1920 L 9315,1920 L 9270,1920 L 9180,1920 L 9125,1920 Z" /><path d="M 9055,1640 L 9140,1640 L 9225,1640 L 9225,1540 L 9140,1540 L 9055,1540 L 8840,1540 L 8750,1540 L 8660,1540 L 8660,1640 L 8750,1640 L 8840,1640 Z" /><path d="M 10095,1450 L 10180,1450 L 10265,1450 L 10265,1350 L 10180,1350 L 10095,1350 L 9100,1350 L 9010,1350 L 8920,1350 L 8920,1450 L 9010,1450 L 9100,1450 Z" /></g></g><g id="VIA1"><g class="l51d0"><path d="M 6100,880 L 6200,880 L 6200,780 L 6100,780 Z" /><path d="M 6620,880 L 6720,880 L 6720,780 L 6620,780 Z" /><path d="M 8440,2430 L 8540,2430 L 8540,2530 L 8440,2530 Z" /><path d="M 8180,2430 L 8280,2430 L 8280,2530 L 8180,2530 Z" /><path d="M 7920,2430 L 8020,2430 L 8020,2530 L 7920,2530 Z" /><path d="M 7660,2430 L 7760,2430 L 7760,2530 L 7660,2530 Z" /><path d="M 7400,2430 L 7500,2430 L 7500,2530 L 7400,2530 Z" /><path d="M 7140,2430 L 7240,2430 L 7240,2530 L 7140,2530 Z" /><path d="M 6620,2430 L 6720,2430 L 6720,2530 L 6620,2530 Z" /><path d="M 6100,2430 L 6200,2430 L 6200,2530 L 6100,2530 Z" /><path d="M 7660,880 L 7760,880 L 7760,780 L 7660,780 Z" /><path d="M 7920,880 L 8020,880 L 8020,780 L 7920,780 Z" /><path d="M 8440,1920 L 8540,1920 L 8540,2020 L 8440,2020 Z" /><path d="M 7660,1920 L 7760,1920 L 7760,2020 L 7660,2020 Z" /><path d="M 7920,2110 L 8020,2110 L 8020,2210 L 7920,2210 Z" /><path d="M 7140,2110 L 7240,2110 L 7240,2210 L 7140,2210 Z" /><path d="M 6620,1920 L 6720,1920 L 6720,2020 L 6620,2020 Z" /><path d="M 6100,1540 L 6200,1540 L 6200,1640 L 6100,1640 Z" /><path d="M 3240,880 L 3340,880 L 3340,780 L 3240,780 Z" /><path d="M 3760,880 L 3860,880 L 3860,780 L 3760,780 Z" /><path d="M 5580,2430 L 5680,2430 L 5680,2530 L 5580,2530 Z" /><path d="M 5320,2430 L 5420,2430 L 5420,2530 L 5320,2530 Z" /><path d="M 5060,2430 L 5160,2430 L 5160,2530 L 5060,2530 Z" /><path d="M 4800,2430 L 4900,2430 L 4900,2530 L 4800,2530 Z" /><path d="M 4540,2430 L 4640,2430 L 4640,2530 L 4540,2530 Z" /><path d="M 4280,2430 L 4380,2430 L 4380,2530 L 4280,2530 Z" /><path d="M 3760,2430 L 3860,2430 L 3860,2530 L 3760,2530 Z" /><path d="M 3240,2430 L 3340,2430 L 3340,2530 L 3240,2530 Z" /><path d="M 4800,880 L 4900,880 L 4900,780 L 4800,780 Z" /><path d="M 5060,880 L 5160,880 L 5160,780 L 5060,780 Z" /><path d="M 5580,1920 L 5680,1920 L 5680,2020 L 5580,2020 Z" /><path d="M 4800,1920 L 4900,1920 L 4900,2020 L 4800,2020 Z" /><path d="M 5060,2110 L 5160,2110 L 5160,2210 L 5060,2210 Z" /><path d="M 4280,2110 L 4380,2110 L 4380,2210 L 4280,2210 Z" /><path d="M 3760,1920 L 3860,1920 L 3860,2020 L 3760,2020 Z" /><path d="M 3240,1540 L 3340,1540 L 3340,1640 L 3240,1640 Z" /><path d="M 380,880 L 480,880 L 480,780 L 380,780 Z" /><path d="M 900,880 L 1000,880 L 1000,780 L 900,780 Z" /><path d="M 2720,2430 L 2820,2430 L 2820,2530 L 2720,2530 Z" /><path d="M 2460,2430 L 2560,2430 L 2560,2530 L 2460,2530 Z" /><path d="M 2200,2430 L 2300,2430 L 2300,2530 L 2200,2530 Z" /><path d="M 1940,2430 L 2040,2430 L 2040,2530 L 1940,2530 Z" /><path d="M 1680,2430 L 1780,2430 L 1780,2530 L 1680,2530 Z" /><path d="M 1420,2430 L 1520,2430 L 1520,2530 L 1420,2530 Z" /><path d="M 900,2430 L 1000,2430 L 1000,2530 L 900,2530 Z" /><path d="M 380,2430 L 480,2430 L 480,2530 L 380,2530 Z" /><path d="M 1940,880 L 2040,880 L 2040,780 L 1940,780 Z" /><path d="M 2200,880 L 2300,880 L 2300,780 L 2200,780 Z" /><path d="M 2720,1920 L 2820,1920 L 2820,2020 L 2720,2020 Z" /><path d="M 1940,1920 L 2040,1920 L 2040,2020 L 1940,2020 Z" /><path d="M 2200,2110 L 2300,2110 L 2300,2210 L 2200,2210 Z" /><path d="M 1420,2110 L 1520,2110 L 1520,2210 L 1420,2210 Z" /><path d="M 900,1920 L 1000,1920 L 1000,2020 L 900,2020 Z" /><path d="M 380,1540 L 480,1540 L 480,1640 L 380,1640 Z" /><path d="M 12340,2430 L 12440,2430 L 12440,2530 L 12340,2530 Z" /><path d="M 11820,900 L 11920,900 L 11920,1000 L 11820,1000 Z" /><path d="M 10780,2430 L 10880,2430 L 10880,2530 L 10780,2530 Z" /><path d="M 14160,2430 L 14260,2430 L 14260,2530 L 14160,2530 Z" /><path d="M 14680,2430 L 14780,2430 L 14780,2530 L 14680,2530 Z" /><path d="M 12860,900 L 12960,900 L 12960,1000 L 12860,1000 Z" /><path d="M 11560,1730 L 11660,1730 L 11660,1830 L 11560,1830 Z" /><path d="M 13120,1730 L 13220,1730 L 13220,1830 L 13120,1830 Z" /><path d="M 12340,1540 L 12440,1540 L 12440,1640 L 12340,1640 Z" /><path d="M 12340,840 L 12440,840 L 12440,940 L 12340,940 Z" /><path d="M 11820,1920 L 11920,1920 L 11920,2020 L 11820,2020 Z" /><path d="M 10780,1350 L 10880,1350 L 10880,1450 L 10780,1450 Z" /><path d="M 10780,840 L 10880,840 L 10880,940 L 10780,940 Z" /><path d="M 14680,1540 L 14780,1540 L 14780,1640 L 14680,1640 Z" /><path d="M 14160,1730 L 14260,1730 L 14260,1830 L 14160,1830 Z" /><path d="M 14160,840 L 14260,840 L 14260,940 L 14160,940 Z" /><path d="M 14680,840 L 14780,840 L 14780,940 L 14680,940 Z" /><path d="M 12860,2145 L 12960,2145 L 12960,2245 L 12860,2245 Z" /><path d="M 8960,2310 L 9060,2310 L 9060,2410 L 8960,2410 Z" /><path d="M 10260,2530 L 10360,2530 L 10360,2430 L 10260,2430 Z" /><path d="M 10260,780 L 10360,780 L 10360,880 L 10260,880 Z" /><path d="M 9480,780 L 9580,780 L 9580,880 L 9480,880 Z" /><path d="M 8960,780 L 9060,780 L 9060,880 L 8960,880 Z" /><path d="M 5840,1160 L 5940,1160 L 5940,1260 L 5840,1260 Z" /><path d="M 4020,1350 L 4120,1350 L 4120,1450 L 4020,1450 Z" /><path d="M 6360,1350 L 6460,1350 L 6460,1450 L 6360,1450 Z" /><path d="M 640,1160 L 740,1160 L 740,1260 L 640,1260 Z" /><path d="M 3500,1160 L 3600,1160 L 3600,1260 L 3500,1260 Z" /><path d="M 1160,1350 L 1260,1350 L 1260,1450 L 1160,1450 Z" /><path d="M 12600,1730 L 12700,1730 L 12700,1830 L 12600,1830 Z" /><path d="M 8180,1730 L 8280,1730 L 8280,1830 L 8180,1830 Z" /><path d="M 9220,1920 L 9320,1920 L 9320,2020 L 9220,2020 Z" /><path d="M 8700,1540 L 8800,1540 L 8800,1640 L 8700,1640 Z" /><path d="M 8960,1350 L 9060,1350 L 9060,1450 L 8960,1450 Z" /></g></g><g id="M2"><g class="l32d0"><path d="M 8540,2060 L 8540,1970 L 8540,1880 L 8440,1880 L 8440,1970 L 8440,2060 L 8440,2390 L 8440,2480 L 8440,2570 L 8540,2570 L 8540,2480 L 8540,2390 Z" /><path d="M 7760,2060 L 7760,2020 L 7760,1880 L 7660,1880 L 7660,2020 L 7660,2060 L 7660,2390 L 7660,2480 L 7660,2570 L 7760,2570 L 7760,2480 L 7760,2390 Z" /><path d="M 7920,2070 L 7920,2160 L 7920,2250 L 7920,2390 L 7920,2480 L 7920,2570 L 8020,2570 L 8020,2480 L 8020,2390 L 8020,2250 L 8020,2160 L 8020,2070 L 8020,2050 L 7920,2050 Z" /><path d="M 7140,2070 L 7140,2110 L 7140,2250 L 7140,2390 L 7140,2480 L 7140,2570 L 7240,2570 L 7240,2480 L 7240,2390 L 7240,2250 L 7240,2110 L 7240,2070 L 7240,2050 L 7140,2050 Z" /><path d="M 6720,2060 L 6720,1880 L 6720,920 L 6720,830 L 6720,740 L 6620,740 L 6620,830 L 6620,920 L 6620,1880 L 6620,2060 L 6620,2390 L 6620,2480 L 6620,2570 L 6720,2570 L 6720,2480 L 6720,2390 Z" /><path d="M 6100,2480 L 6100,2570 L 6200,2570 L 6200,2480 L 6200,2390 L 6200,1680 L 6200,1500 L 6200,920 L 6200,830 L 6200,740 L 6100,740 L 6100,830 L 6100,920 L 6100,1500 L 6100,1680 L 6100,2390 Z" /><path d="M 5680,2060 L 5680,1970 L 5680,1880 L 5580,1880 L 5580,1970 L 5580,2060 L 5580,2390 L 5580,2480 L 5580,2570 L 5680,2570 L 5680,2480 L 5680,2390 Z" /><path d="M 4900,2060 L 4900,2020 L 4900,1880 L 4800,1880 L 4800,2020 L 4800,2060 L 4800,2390 L 4800,2480 L 4800,2570 L 4900,2570 L 4900,2480 L 4900,2390 Z" /><path d="M 5060,2070 L 5060,2160 L 5060,2250 L 5060,2390 L 5060,2480 L 5060,2570 L 5160,2570 L 5160,2480 L 5160,2390 L 5160,2250 L 5160,2160 L 5160,2070 L 5160,2050 L 5060,2050 Z" /><path d="M 4280,2070 L 4280,2110 L 4280,2250 L 4280,2390 L 4280,2480 L 4280,2570 L 4380,2570 L 4380,2480 L 4380,2390 L 4380,2250 L 4380,2110 L 4380,2070 L 4380,2050 L 4280,2050 Z" /><path d="M 3860,2060 L 3860,1880 L 3860,920 L 3860,830 L 3860,740 L 3760,740 L 3760,830 L 3760,920 L 3760,1880 L 3760,2060 L 3760,2390 L 3760,2480 L 3760,2570 L 3860,2570 L 3860,2480 L 3860,2390 Z" /><path d="M 3240,2480 L 3240,2570 L 3340,2570 L 3340,2480 L 3340,2390 L 3340,1680 L 3340,1500 L 3340,920 L 3340,830 L 3340,740 L 3240,740 L 3240,830 L 3240,920 L 3240,1500 L 3240,1680 L 3240,2390 Z" /><path d="M 2820,2060 L 2820,1970 L 2820,1880 L 2720,1880 L 2720,1970 L 2720,2060 L 2720,2390 L 2720,2480 L 2720,2570 L 2820,2570 L 2820,2480 L 2820,2390 Z" /><path d="M 2040,2060 L 2040,2020 L 2040,1880 L 1940,1880 L 1940,2020 L 1940,2060 L 1940,2390 L 1940,2480 L 1940,2570 L 2040,2570 L 2040,2480 L 2040,2390 Z" /><path d="M 2200,2070 L 2200,2160 L 2200,2250 L 2200,2390 L 2200,2480 L 2200,2570 L 2300,2570 L 2300,2480 L 2300,2390 L 2300,2250 L 2300,2160 L 2300,2070 L 2300,2050 L 2200,2050 Z" /><path d="M 1420,2070 L 1420,2110 L 1420,2250 L 1420,2390 L 1420,2480 L 1420,2570 L 1520,2570 L 1520,2480 L 1520,2390 L 1520,2250 L 1520,2110 L 1520,2070 L 1520,2050 L 1420,2050 Z" /><path d="M 1000,2060 L 1000,1880 L 1000,920 L 1000,830 L 1000,740 L 900,740 L 900,830 L 900,920 L 900,1880 L 900,2060 L 900,2390 L 900,2480 L 900,2570 L 1000,2570 L 1000,2480 L 1000,2390 Z" /><path d="M 380,2480 L 380,2570 L 480,2570 L 480,2480 L 480,2390 L 480,1680 L 480,1500 L 480,920 L 480,830 L 480,740 L 380,740 L 380,830 L 380,920 L 380,1500 L 380,1680 L 380,2390 Z" /><path d="M 12440,1590 L 12440,1500 L 12440,980 L 12440,890 L 12440,800 L 12340,800 L 12340,890 L 12340,980 L 12340,1500 L 12340,1590 L 12340,1680 L 12340,2390 L 12340,2480 L 12340,2570 L 12440,2570 L 12440,2480 L 12440,2390 L 12440,1680 Z" /><path d="M 11820,1880 L 11820,1970 L 11820,2060 L 11920,2060 L 11920,1970 L 11920,1880 L 11920,1040 L 11920,950 L 11920,860 L 11820,860 L 11820,950 L 11820,1040 Z" /><path d="M 10880,1400 L 10880,1310 L 10880,980 L 10880,890 L 10880,800 L 10780,800 L 10780,890 L 10780,980 L 10780,1310 L 10780,1400 L 10780,1490 L 10780,2390 L 10780,2480 L 10780,2570 L 10880,2570 L 10880,2480 L 10880,2390 L 10880,1490 Z" /><path d="M 14260,1780 L 14260,1690 L 14260,980 L 14260,890 L 14260,800 L 14160,800 L 14160,890 L 14160,980 L 14160,1690 L 14160,1780 L 14160,1870 L 14160,2390 L 14160,2480 L 14160,2570 L 14260,2570 L 14260,2480 L 14260,2390 L 14260,1870 Z" /><path d="M 14780,1590 L 14780,1500 L 14780,980 L 14780,890 L 14780,800 L 14680,800 L 14680,890 L 14680,980 L 14680,1500 L 14680,1590 L 14680,1680 L 14680,2390 L 14680,2480 L 14680,2570 L 14780,2570 L 14780,2480 L 14780,2390 L 14780,1680 Z" /><path d="M 12860,2105 L 12860,2195 L 12860,2285 L 12960,2285 L 12960,2195 L 12960,2105 L 12960,1040 L 12960,950 L 12960,860 L 12860,860 L 12860,950 L 12860,1040 Z" /><path d="M 13120,1520 L 13120,1690 L 13120,1695 L 13120,1870 L 13120,1875 L 13120,2040 L 13220,2040 L 13220,1875 L 13220,1870 L 13220,1695 L 13220,1690 L 13220,1520 Z" /><path d="M 11560,1520 L 11560,1690 L 11560,1695 L 11560,1870 L 11560,1875 L 11560,2040 L 11660,2040 L 11660,1875 L 11660,1870 L 11660,1695 L 11660,1690 L 11660,1520 Z" /><path d="M 8180,1690 L 8180,1780 L 8180,1870 L 8180,2390 L 8180,2480 L 8180,2570 L 8280,2570 L 8280,2480 L 8280,2390 L 8280,1870 L 8280,1780 L 8280,1690 L 8280,1640 L 8280,880 L 8280,780 L 8180,780 L 8060,780 L 7970,780 L 7880,780 L 7800,780 L 7710,780 L 7620,780 L 7500,780 L 7400,780 L 7400,880 L 7400,2390 L 7400,2480 L 7400,2570 L 7500,2570 L 7500,2480 L 7500,2390 L 7500,880 L 7620,880 L 7710,880 L 7800,880 L 7880,880 L 7970,880 L 8060,880 L 8180,880 L 8180,1640 Z" /><path d="M 9620,880 L 9620,780 L 9530,780 L 9440,780 L 9100,780 L 9060,780 L 8959,780 L 8920,780 L 8920,880 L 8959,880 L 8959,1400 L 8959,2360 L 8960,2360 L 8960,2450 L 9060,2450 L 9060,2360 L 9060,2270 L 9060,1490 L 9060,1400 L 9060,1310 L 9060,880 L 9100,880 L 9440,880 L 9530,880 Z" /><path d="M 5940,935 L 5840,935 L 5840,1095 L 5840,1120 L 5840,1275 L 5840,1300 L 5840,1455 L 5940,1455 L 5940,1300 L 5940,1275 L 5940,1120 L 5940,1095 Z" /><path d="M 4020,1095 L 4020,1235 L 4020,1275 L 4020,1310 L 4020,1400 L 4020,1490 L 4020,1560 L 4120,1560 L 4120,1490 L 4120,1400 L 4120,1310 L 4120,1275 L 4120,1235 L 4120,1095 L 4120,1040 L 4020,1040 Z" /><path d="M 6460,1130 L 6360,1130 L 6360,1295 L 6360,1310 L 6360,1475 L 6360,1490 L 6360,1650 L 6460,1650 L 6460,1490 L 6460,1475 L 6460,1310 L 6460,1295 Z" /><path d="M 640,1045 L 640,1120 L 640,1210 L 640,1295 L 640,1300 L 640,1435 L 640,1475 L 640,1565 L 740,1565 L 740,1475 L 740,1435 L 740,1300 L 740,1295 L 740,1210 L 740,1120 L 740,1045 Z" /><path d="M 1160,1310 L 1160,1400 L 1160,1490 L 1160,1495 L 1160,1585 L 1160,1675 L 1160,1765 L 1260,1765 L 1260,1675 L 1260,1585 L 1260,1495 L 1260,1490 L 1260,1400 L 1260,1310 L 1260,1245 L 1160,1245 Z" /><path d="M 3500,1495 L 3500,1585 L 3500,1635 L 3500,1675 L 3600,1675 L 3600,1635 L 3600,1585 L 3600,1495 L 3600,1300 L 3600,1210 L 3600,1120 L 3500,1120 L 3500,1210 L 3500,1300 Z" /><path d="M 10260,2480 L 10260,2570 L 10360,2570 L 10360,2480 L 10360,2390 L 10360,1675 L 10360,1585 L 10360,1495 L 10360,920 L 10360,830 L 10360,740 L 10260,740 L 10260,830 L 10260,920 L 10260,1495 L 10260,1585 L 10260,1675 L 10260,2390 Z" /><path d="M 12600,1495 L 12600,1635 L 12600,1675 L 12600,1690 L 12600,1780 L 12600,1870 L 12600,1915 L 12700,1915 L 12700,1870 L 12700,1780 L 12700,1690 L 12700,1675 L 12700,1635 L 12700,1495 L 12700,1395 L 12600,1395 Z" /><path d="M 9220,2060 L 9320,2060 L 9320,1920 L 9320,1880 L 9320,1675 L 9320,1585 L 9320,1495 L 9220,1495 L 9220,1585 L 9219,1585 L 9219,1920 L 9220,1920 Z" /><path d="M 5110,880 L 5200,880 L 5320,880 L 5320,1495 L 5320,1675 L 5320,2390 L 5320,2480 L 5320,2570 L 5420,2570 L 5420,2480 L 5420,2390 L 5420,1675 L 5420,1495 L 5420,880 L 5420,780 L 5320,780 L 5200,780 L 5110,780 L 5020,780 L 4940,780 L 4850,780 L 4760,780 L 4640,780 L 4540,780 L 4540,880 L 4540,2390 L 4540,2480 L 4540,2570 L 4640,2570 L 4640,2480 L 4640,2390 L 4640,880 L 4760,880 L 4850,880 L 4940,880 L 5020,880 Z" /><path d="M 8700,1425 L 8700,1500 L 8700,1680 L 8700,1695 L 8700,1875 L 8700,1945 L 8800,1945 L 8800,1875 L 8800,1695 L 8800,1680 L 8800,1500 L 8800,1425 Z" /><path d="M 2250,880 L 2340,880 L 2460,880 L 2460,1695 L 2460,1875 L 2460,2390 L 2460,2480 L 2460,2570 L 2560,2570 L 2560,2480 L 2560,2390 L 2560,1875 L 2560,1695 L 2560,880 L 2560,780 L 2460,780 L 2340,780 L 2250,780 L 2160,780 L 2080,780 L 1990,780 L 1900,780 L 1780,780 L 1680,780 L 1680,880 L 1680,2390 L 1680,2480 L 1680,2570 L 1780,2570 L 1780,2480 L 1780,2390 L 1780,880 L 1900,880 L 1990,880 L 2080,880 L 2160,880 Z" /></g></g><g id="VIA2"><g class="l52d0"><path d="M 13120,1735 L 13220,1735 L 13220,1835 L 13120,1835 Z" /><path d="M 11560,1735 L 11660,1735 L 11660,1835 L 11560,1835 Z" /><path d="M 5840,1135 L 5940,1135 L 5940,1235 L 5840,1235 Z" /><path d="M 4020,1135 L 4120,1135 L 4120,1235 L 4020,1235 Z" /><path d="M 6360,1335 L 6460,1335 L 6460,1435 L 6360,1435 Z" /><path d="M 640,1335 L 740,1335 L 740,1435 L 640,1435 Z" /><path d="M 1160,1535 L 1260,1535 L 1260,1635 L 1160,1635 Z" /><path d="M 3500,1535 L 3600,1535 L 3600,1635 L 3500,1635 Z" /><path d="M 10260,1535 L 10360,1535 L 10360,1635 L 10260,1635 Z" /><path d="M 12600,1535 L 12700,1535 L 12700,1635 L 12600,1635 Z" /><path d="M 9220,1535 L 9320,1535 L 9320,1635 L 9220,1635 Z" /><path d="M 5320,1535 L 5420,1535 L 5420,1635 L 5320,1635 Z" /><path d="M 8700,1735 L 8800,1735 L 8800,1835 L 8700,1835 Z" /><path d="M 2460,1735 L 2560,1735 L 2560,1835 L 2460,1835 Z" /></g></g><g id="M3"><g class="l33d0"><path d="M 11700,1735 L 11610,1735 L 11520,1735 L 11520,1835 L 11610,1835 L 11700,1835 L 13080,1835 L 13170,1835 L 13260,1835 L 13260,1735 L 13170,1735 L 13080,1735 Z" /><path d="M 4160,1235 L 5800,1235 L 5820,1235 L 5980,1235 L 5980,1135 L 5820,1135 L 5800,1135 L 4160,1135 L 4070,1135 L 3980,1135 L 3980,1235 L 4070,1235 Z" /><path d="M 780,1435 L 6320,1435 L 6340,1435 L 6500,1435 L 6500,1335 L 6340,1335 L 6320,1335 L 780,1335 L 690,1335 L 600,1335 L 600,1435 L 690,1435 Z" /><path d="M 3460,1535 L 1300,1535 L 1175,1535 L 1120,1535 L 1120,1635 L 1175,1635 L 1300,1635 L 3460,1635 L 3550,1635 L 3640,1635 L 3640,1535 L 3550,1535 Z" /><path d="M 12560,1535 L 10400,1535 L 10310,1535 L 10220,1535 L 10220,1635 L 10310,1635 L 10400,1635 L 12560,1635 L 12650,1635 L 12740,1635 L 12740,1535 L 12650,1535 Z" /><path d="M 5460,1635 L 9180,1635 L 9245,1635 L 9360,1635 L 9360,1535 L 9245,1535 L 9180,1535 L 5460,1535 L 5370,1535 L 5280,1535 L 5280,1635 L 5370,1635 Z" /><path d="M 2600,1835 L 8660,1835 L 8740,1835 L 8840,1835 L 8840,1735 L 8740,1735 L 8660,1735 L 2600,1735 L 2510,1735 L 2420,1735 L 2420,1835 L 2510,1835 Z" /></g></g></g></svg>