<svg width="8410" height="3550" viewBox="-5 -3545 8410 3550" xmlns="http://www.w3.org/2000/svg" xmlns:xlink="http://www.w3.org/1999/xlink"><defs><style type="text/css">.l3d0 {fill: #fef9e7; fill-opacity: 0.5; stroke-width: 10; stroke: #f1c40f; stroke-linecap: round; stroke-linejoin: round; stroke-opacity: 0.2;}.l25d0 {fill: #8e44ad; fill-opacity: 0.05; stroke-width: 10; stroke: #8e44ad; stroke-linecap: round; stroke-linejoin: round; stroke-opacity: 1;}.l26d0 {fill: #ccd1d1; fill-opacity: 0.05; stroke-width: 10; stroke: #ccd1d1; stroke-linecap: round; stroke-linejoin: round; stroke-opacity: 1;}.l6d0 {fill: #f5b7b1; fill-opacity: 1; stroke-width: 10; stroke: #e74c3c; stroke-linecap: round; stroke-linejoin: round; stroke-opacity: 1;}.l17d0 {fill: #2980b9; fill-opacity: 1; stroke-width: 0; stroke: #000000; stroke-linecap: round; stroke-linejoin: round; stroke-opacity: 0;}.l30d0 {fill: #27ae60; fill-opacity: 1; stroke-width: 0; stroke: #000000; stroke-linecap: round; stroke-linejoin: round; stroke-opacity: 0;}.l31d0 {fill: #85c1e9; fill-opacity: 0.6; stroke-width: 0; stroke: #000000; stroke-linecap: round; stroke-linejoin: round; stroke-opacity: 0;}.l51d0 {fill: #f39c12; fill-opacity: 1; stroke-width: 10; stroke: #f39c12; stroke-linecap: round; stroke-linejoin: round; stroke-opacity: 1;}.l32d0 {fill: #f7dc6f; fill-opacity: 0.6; stroke-width: 0; stroke: #000000; stroke-linecap: round; stroke-linejoin: round; stroke-opacity: 0;}path {fill-rule: evenodd;}</style></defs><g transform="scale(1 -1)"><g id="NW"><g class="l3d0"><path d="M 5200,1900 L 3200,1900 L 2600,1900 L 0,1900 L 0,3540 L 2600,3540 L 3200,3540 L 5200,3540 L 5800,3540 L 8400,3540 L 8400,1900 L 5800,1900 Z" /></g></g><g id="PP"><g class="l25d0"><path d="M 5370,0 L 3030,0 L 2770,0 L 170,0 L 170,430 L 2770,430 L 3030,430 L 5370,430 L 5630,430 L 8230,430 L 8230,0 L 5630,0 Z" /><path d="M 2770,1685 L 170,1685 L 170,2940 L 325,2940 L 795,2940 L 845,2940 L 1105,2940 L 1315,2940 L 1365,2940 L 1575,2940 L 1625,2940 L 1835,2940 L 2095,2940 L 2145,2940 L 2405,2940 L 2615,2940 L 2770,2940 L 2875,2940 L 2925,2940 L 3030,2940 L 3395,2940 L 3445,2940 L 3705,2940 L 3915,2940 L 3965,2940 L 4175,2940 L 4225,2940 L 4435,2940 L 4695,2940 L 4745,2940 L 5005,2940 L 5215,2940 L 5370,2940 L 5475,2940 L 5525,2940 L 5630,2940 L 5995,2940 L 6045,2940 L 6305,2940 L 6515,2940 L 6565,2940 L 6775,2940 L 6825,2940 L 7035,2940 L 7295,2940 L 7345,2940 L 7605,2940 L 7815,2940 L 8075,2940 L 8230,2940 L 8230,1685 L 5630,1685 L 5370,1685 L 3030,1685 Z" /></g></g><g id="NP"><g class="l26d0"><path d="M 5370,2940 L 3030,2940 L 2770,2940 L 170,2940 L 170,3370 L 2770,3370 L 3030,3370 L 5370,3370 L 5630,3370 L 8230,3370 L 8230,2940 L 5630,2940 Z" /><path d="M 5005,430 L 4745,430 L 4695,430 L 4435,430 L 4225,430 L 4175,430 L 3965,430 L 3915,430 L 3705,430 L 3445,430 L 3395,430 L 3030,430 L 2925,430 L 2875,430 L 2770,430 L 2615,430 L 2405,430 L 2145,430 L 2095,430 L 1835,430 L 1625,430 L 1575,430 L 1365,430 L 1315,430 L 1105,430 L 845,430 L 795,430 L 325,430 L 170,430 L 170,1685 L 2770,1685 L 3030,1685 L 5370,1685 L 5630,1685 L 8230,1685 L 8230,430 L 8075,430 L 7815,430 L 7605,430 L 7345,430 L 7295,430 L 7035,430 L 6825,430 L 6775,430 L 6565,430 L 6515,430 L 6305,430 L 6045,430 L 5995,430 L 5630,430 L 5525,430 L 5475,430 L 5370,430 L 5215,430 Z" /></g></g><g id="OD"><g class="l6d0"><path d="M 2970,770 L 2970,1010 L 3055,1010 L 3130,1010 L 3190,1010 L 3265,1010 L 3350,1010 L 3350,770 L 3265,770 L 3190,770 L 3130,770 L 3055,770 Z" /><path d="M 5085,770 L 5010,770 L 4950,770 L 4875,770 L 4790,770 L 4790,1010 L 4875,1010 L 4950,1010 L 5010,1010 L 5085,1010 L 5135,1010 L 5210,1010 L 5270,1010 L 5345,1010 L 5430,1010 L 5430,770 L 5345,770 L 5270,770 L 5210,770 L 5135,770 Z" /><path d="M 4170,1010 L 4230,1010 L 4305,1010 L 4355,1010 L 4430,1010 L 4490,1010 L 4565,1010 L 4650,1010 L 4650,770 L 4565,770 L 4490,770 L 4430,770 L 4355,770 L 4305,770 L 4230,770 L 4170,770 L 4095,770 L 4045,770 L 3970,770 L 3910,770 L 3835,770 L 3785,770 L 3710,770 L 3650,770 L 3575,770 L 3490,770 L 3490,1010 L 3575,1010 L 3650,1010 L 3710,1010 L 3785,1010 L 3835,1010 L 3910,1010 L 3970,1010 L 4045,1010 L 4095,1010 Z" /><path d="M 2970,2360 L 2970,2600 L 3055,2600 L 3130,2600 L 3190,2600 L 3265,2600 L 3350,2600 L 3350,2360 L 3265,2360 L 3190,2360 L 3130,2360 L 3055,2360 Z" /><path d="M 5085,2360 L 5010,2360 L 4950,2360 L 4875,2360 L 4790,2360 L 4790,2600 L 4875,2600 L 4950,2600 L 5010,2600 L 5085,2600 L 5135,2600 L 5210,2600 L 5270,2600 L 5345,2600 L 5430,2600 L 5430,2360 L 5345,2360 L 5270,2360 L 5210,2360 L 5135,2360 Z" /><path d="M 4170,2600 L 4230,2600 L 4305,2600 L 4355,2600 L 4430,2600 L 4490,2600 L 4565,2600 L 4650,2600 L 4650,2360 L 4565,2360 L 4490,2360 L 4430,2360 L 4355,2360 L 4305,2360 L 4230,2360 L 4170,2360 L 4095,2360 L 4045,2360 L 3970,2360 L 3910,2360 L 3835,2360 L 3785,2360 L 3710,2360 L 3650,2360 L 3575,2360 L 3490,2360 L 3490,2600 L 3575,2600 L 3650,2600 L 3710,2600 L 3785,2600 L 3835,2600 L 3910,2600 L 3970,2600 L 4045,2600 L 4095,2600 Z" /><path d="M 8100,300 L 8100,130 L 5500,130 L 2900,130 L 300,130 L 300,300 L 2900,300 L 5500,300 Z" /><path d="M 8100,3240 L 8100,3070 L 5500,3070 L 2900,3070 L 300,3070 L 300,3240 L 2900,3240 L 5500,3240 Z" /><path d="M 370,770 L 370,1010 L 455,1010 L 530,1010 L 590,1010 L 665,1010 L 750,1010 L 750,770 L 665,770 L 590,770 L 530,770 L 455,770 Z" /><path d="M 2485,770 L 2410,770 L 2350,770 L 2275,770 L 2190,770 L 2190,1010 L 2275,1010 L 2350,1010 L 2410,1010 L 2485,1010 L 2535,1010 L 2610,1010 L 2670,1010 L 2745,1010 L 2830,1010 L 2830,770 L 2745,770 L 2670,770 L 2610,770 L 2535,770 Z" /><path d="M 1570,1010 L 1630,1010 L 1705,1010 L 1755,1010 L 1830,1010 L 1890,1010 L 1965,1010 L 2050,1010 L 2050,770 L 1965,770 L 1890,770 L 1830,770 L 1755,770 L 1705,770 L 1630,770 L 1570,770 L 1495,770 L 1445,770 L 1370,770 L 1310,770 L 1235,770 L 1185,770 L 1110,770 L 1050,770 L 975,770 L 890,770 L 890,1010 L 975,1010 L 1050,1010 L 1110,1010 L 1185,1010 L 1235,1010 L 1310,1010 L 1370,1010 L 1445,1010 L 1495,1010 Z" /><path d="M 370,2360 L 370,2600 L 455,2600 L 530,2600 L 590,2600 L 665,2600 L 750,2600 L 750,2360 L 665,2360 L 590,2360 L 530,2360 L 455,2360 Z" /><path d="M 2485,2360 L 2410,2360 L 2350,2360 L 2275,2360 L 2190,2360 L 2190,2600 L 2275,2600 L 2350,2600 L 2410,2600 L 2485,2600 L 2535,2600 L 2610,2600 L 2670,2600 L 2745,2600 L 2830,2600 L 2830,2360 L 2745,2360 L 2670,2360 L 2610,2360 L 2535,2360 Z" /><path d="M 1570,2600 L 1630,2600 L 1705,2600 L 1755,2600 L 1830,2600 L 1890,2600 L 1965,2600 L 2050,2600 L 2050,2360 L 1965,2360 L 1890,2360 L 1830,2360 L 1755,2360 L 1705,2360 L 1630,2360 L 1570,2360 L 1495,2360 L 1445,2360 L 1370,2360 L 1310,2360 L 1235,2360 L 1185,2360 L 1110,2360 L 1050,2360 L 975,2360 L 890,2360 L 890,2600 L 975,2600 L 1050,2600 L 1110,2600 L 1185,2600 L 1235,2600 L 1310,2600 L 1370,2600 L 1445,2600 L 1495,2600 Z" /><path d="M 5570,770 L 5570,1010 L 5655,1010 L 5730,1010 L 5790,1010 L 5865,1010 L 5950,1010 L 5950,770 L 5865,770 L 5790,770 L 5730,770 L 5655,770 Z" /><path d="M 7685,770 L 7610,770 L 7550,770 L 7475,770 L 7390,770 L 7390,1010 L 7475,1010 L 7550,1010 L 7610,1010 L 7685,1010 L 7735,1010 L 7810,1010 L 7870,1010 L 7945,1010 L 8029,1010 L 8029,770 L 7945,770 L 7870,770 L 7810,770 L 7735,770 Z" /><path d="M 6770,1010 L 6830,1010 L 6905,1010 L 6955,1010 L 7030,1010 L 7090,1010 L 7165,1010 L 7250,1010 L 7250,770 L 7165,770 L 7090,770 L 7030,770 L 6955,770 L 6905,770 L 6830,770 L 6770,770 L 6695,770 L 6645,770 L 6570,770 L 6510,770 L 6435,770 L 6385,770 L 6310,770 L 6250,770 L 6175,770 L 6090,770 L 6090,1010 L 6175,1010 L 6250,1010 L 6310,1010 L 6385,1010 L 6435,1010 L 6510,1010 L 6570,1010 L 6645,1010 L 6695,1010 Z" /><path d="M 5570,2360 L 5570,2600 L 5655,2600 L 5730,2600 L 5790,2600 L 5865,2600 L 5950,2600 L 5950,2360 L 5865,2360 L 5790,2360 L 5730,2360 L 5655,2360 Z" /><path d="M 7685,2360 L 7610,2360 L 7550,2360 L 7475,2360 L 7390,2360 L 7390,2600 L 7475,2600 L 7550,2600 L 7610,2600 L 7685,2600 L 7735,2600 L 7810,2600 L 7870,2600 L 7945,2600 L 8029,2600 L 8029,2360 L 7945,2360 L 7870,2360 L 7810,2360 L 7735,2360 Z" /><path d="M 6770,2600 L 6830,2600 L 6905,2600 L 6955,2600 L 7030,2600 L 7090,2600 L 7165,2600 L 7250,2600 L 7250,2360 L 7165,2360 L 7090,2360 L 7030,2360 L 6955,2360 L 6905,2360 L 6830,2360 L 6770,2360 L 6695,2360 L 6645,2360 L 6570,2360 L 6510,2360 L 6435,2360 L 6385,2360 L 6310,2360 L 6250,2360 L 6175,2360 L 6090,2360 L 6090,2600 L 6175,2600 L 6250,2600 L 6310,2600 L 6385,2600 L 6435,2600 L 6510,2600 L 6570,2600 L 6645,2600 L 6695,2600 Z" /></g></g><g id="PO"><g class="l17d0"><path d="M 4490,1010 L 4490,770 L 4490,630 L 4430,630 L 4430,770 L 4430,1010 L 4430,1150 L 4430,1315 L 4405,1315 L 4405,1485 L 4430,1485 L 4430,2220 L 4430,2360 L 4430,2600 L 4430,2740 L 4490,2740 L 4490,2600 L 4490,2360 L 4490,2220 L 4490,1485 L 4515,1485 L 4515,1315 L 4490,1315 L 4490,1150 Z" /><path d="M 3190,1030 L 3190,1010 L 3190,770 L 3190,630 L 3130,630 L 3130,770 L 3130,1010 L 3130,1030 L 3130,1150 L 3130,1315 L 3105,1315 L 3105,1485 L 3130,1485 L 3130,2220 L 3130,2360 L 3130,2600 L 3130,2740 L 3190,2740 L 3190,2600 L 3190,2360 L 3190,2220 L 3190,1485 L 3215,1485 L 3215,1315 L 3190,1315 L 3190,1150 Z" /><path d="M 4230,1010 L 4230,770 L 4230,630 L 4170,630 L 4170,770 L 4170,1010 L 4170,1150 L 4170,1885 L 4145,1885 L 4145,2055 L 4170,2055 L 4170,2220 L 4170,2360 L 4170,2600 L 4170,2740 L 4230,2740 L 4230,2600 L 4230,2360 L 4230,2220 L 4230,2055 L 4255,2055 L 4255,1885 L 4230,1885 L 4230,1150 Z" /><path d="M 3710,1010 L 3710,770 L 3710,630 L 3650,630 L 3650,770 L 3650,1010 L 3650,1150 L 3650,1885 L 3625,1885 L 3625,2055 L 3650,2055 L 3650,2220 L 3650,2360 L 3650,2600 L 3650,2740 L 3710,2740 L 3710,2600 L 3710,2360 L 3710,2220 L 3710,2055 L 3735,2055 L 3735,1885 L 3710,1885 L 3710,1150 Z" /><path d="M 5270,1010 L 5270,770 L 5270,630 L 5210,630 L 5210,770 L 5210,1010 L 5210,1150 L 5210,1505 L 5185,1505 L 5185,1675 L 5210,1675 L 5210,2220 L 5210,2360 L 5210,2600 L 5210,2740 L 5270,2740 L 5270,2600 L 5270,2360 L 5270,2220 L 5270,1675 L 5295,1675 L 5295,1505 L 5270,1505 L 5270,1150 Z" /><path d="M 5010,1150 L 5010,1010 L 5010,770 L 5010,630 L 4950,630 L 4950,770 L 4950,1010 L 4950,1150 L 4950,1695 L 4925,1695 L 4925,1865 L 4950,1865 L 4950,2220 L 4950,2360 L 4950,2600 L 4950,2740 L 5010,2740 L 5010,2600 L 5010,2360 L 5010,2220 L 5009,2220 L 5009,1865 L 5035,1865 L 5035,1695 L 5009,1695 L 5009,1150 Z" /><path d="M 3970,1010 L 3970,770 L 3970,630 L 3910,630 L 3910,770 L 3910,1010 L 3910,1150 L 3910,1695 L 3885,1695 L 3885,1865 L 3910,1865 L 3910,2220 L 3910,2360 L 3910,2600 L 3910,2740 L 3970,2740 L 3970,2600 L 3970,2360 L 3970,2220 L 3970,1865 L 3995,1865 L 3995,1695 L 3970,1695 L 3970,1150 Z" /><path d="M 1890,1010 L 1890,770 L 1890,630 L 1830,630 L 1830,770 L 1830,1010 L 1830,1150 L 1830,1315 L 1805,1315 L 1805,1485 L 1830,1485 L 1830,2220 L 1830,2360 L 1830,2600 L 1830,2740 L 1890,2740 L 1890,2600 L 1890,2360 L 1890,2220 L 1890,1485 L 1915,1485 L 1915,1315 L 1890,1315 L 1890,1150 Z" /><path d="M 590,1030 L 590,1010 L 590,770 L 590,630 L 530,630 L 530,770 L 530,1010 L 530,1030 L 530,1150 L 530,1315 L 505,1315 L 505,1485 L 530,1485 L 530,2220 L 530,2360 L 530,2600 L 530,2740 L 590,2740 L 590,2600 L 590,2360 L 590,2220 L 590,1485 L 615,1485 L 615,1315 L 590,1315 L 590,1150 Z" /><path d="M 1630,1010 L 1630,770 L 1630,630 L 1570,630 L 1570,770 L 1570,1010 L 1570,1150 L 1570,1885 L 1545,1885 L 1545,2055 L 1570,2055 L 1570,2220 L 1570,2360 L 1570,2600 L 1570,2740 L 1630,2740 L 1630,2600 L 1630,2360 L 1630,2220 L 1630,2055 L 1655,2055 L 1655,1885 L 1630,1885 L 1630,1150 Z" /><path d="M 1110,1010 L 1110,770 L 1110,630 L 1050,630 L 1050,770 L 1050,1010 L 1050,1150 L 1050,1885 L 1025,1885 L 1025,2055 L 1050,2055 L 1050,2220 L 1050,2360 L 1050,2600 L 1050,2740 L 1110,2740 L 1110,2600 L 1110,2360 L 1110,2220 L 1110,2055 L 1135,2055 L 1135,1885 L 1110,1885 L 1110,1150 Z" /><path d="M 2670,1010 L 2670,770 L 2670,630 L 2610,630 L 2610,770 L 2610,1010 L 2610,1150 L 2610,1505 L 2585,1505 L 2585,1675 L 2610,1675 L 2610,2220 L 2610,2360 L 2610,2600 L 2610,2740 L 2670,2740 L 2670,2600 L 2670,2360 L 2670,2220 L 2670,1675 L 2695,1675 L 2695,1505 L 2670,1505 L 2670,1150 Z" /><path d="M 2410,1150 L 2410,1010 L 2410,770 L 2410,630 L 2350,630 L 2350,770 L 2350,1010 L 2350,1150 L 2350,1695 L 2325,1695 L 2325,1865 L 2350,1865 L 2350,2220 L 2350,2360 L 2350,2600 L 2350,2740 L 2410,2740 L 2410,2600 L 2410,2360 L 2410,2220 L 2409,2220 L 2409,1865 L 2435,1865 L 2435,1695 L 2409,1695 L 2409,1150 Z" /><path d="M 1370,1010 L 1370,770 L 1370,630 L 1310,630 L 1310,770 L 1310,1010 L 1310,1150 L 1310,1695 L 1285,1695 L 1285,1865 L 1310,1865 L 1310,2220 L 1310,2360 L 1310,2600 L 1310,2740 L 1370,2740 L 1370,2600 L 1370,2360 L 1370,2220 L 1370,1865 L 1395,1865 L 1395,1695 L 1370,1695 L 1370,1150 Z" /><path d="M 7090,1010 L 7090,770 L 7090,630 L 7030,630 L 7030,770 L 7030,1010 L 7030,1150 L 7030,1315 L 7005,1315 L 7005,1485 L 7030,1485 L 7030,2220 L 7030,2360 L 7030,2600 L 7030,2740 L 7090,2740 L 7090,2600 L 7090,2360 L 7090,2220 L 7090,1485 L 7115,1485 L 7115,1315 L 7090,1315 L 7090,1150 Z" /><path d="M 5790,1030 L 5790,1010 L 5790,770 L 5790,630 L 5730,630 L 5730,770 L 5730,1010 L 5730,1030 L 5729,1030 L 5729,1315 L 5705,1315 L 5705,1485 L 5729,1485 L 5729,2220 L 5730,2220 L 5730,2360 L 5730,2600 L 5730,2740 L 5790,2740 L 5790,2600 L 5790,2360 L 5790,2220 L 5790,1485 L 5815,1485 L 5815,1315 L 5790,1315 L 5790,1150 Z" /><path d="M 6770,2220 L 6770,2360 L 6770,2600 L 6770,2740 L 6830,2740 L 6830,2600 L 6830,2360 L 6830,2220 L 6830,1295 L 6855,1295 L 6855,1125 L 6830,1125 L 6830,1010 L 6830,770 L 6830,630 L 6770,630 L 6770,770 L 6770,1010 L 6770,1125 L 6745,1125 L 6745,1295 L 6770,1295 Z" /><path d="M 6310,1150 L 6310,1010 L 6310,770 L 6310,630 L 6250,630 L 6250,770 L 6250,1010 L 6250,1150 L 6250,2075 L 6225,2075 L 6225,2245 L 6250,2245 L 6250,2360 L 6250,2600 L 6250,2740 L 6310,2740 L 6310,2600 L 6310,2360 L 6310,2245 L 6335,2245 L 6335,2075 L 6310,2075 Z" /><path d="M 7870,1010 L 7870,770 L 7870,630 L 7810,630 L 7810,770 L 7810,1010 L 7810,1150 L 7810,1505 L 7785,1505 L 7785,1675 L 7810,1675 L 7810,2220 L 7810,2360 L 7810,2600 L 7810,2740 L 7870,2740 L 7870,2600 L 7870,2360 L 7870,2220 L 7870,1675 L 7895,1675 L 7895,1505 L 7870,1505 L 7870,1150 Z" /><path d="M 7610,1010 L 7610,770 L 7610,630 L 7550,630 L 7550,770 L 7550,1010 L 7550,1150 L 7550,1695 L 7525,1695 L 7525,1865 L 7550,1865 L 7550,2220 L 7550,2360 L 7550,2600 L 7550,2740 L 7610,2740 L 7610,2600 L 7610,2360 L 7610,2220 L 7610,1865 L 7635,1865 L 7635,1695 L 7610,1695 L 7610,1150 Z" /><path d="M 6570,1010 L 6570,770 L 6570,630 L 6510,630 L 6510,770 L 6510,1010 L 6510,1150 L 6510,1695 L 6485,1695 L 6485,1865 L 6510,1865 L 6510,2220 L 6510,2360 L 6510,2600 L 6510,2740 L 6570,2740 L 6570,2600 L 6570,2360 L 6570,2220 L 6570,1865 L 6595,1865 L 6595,1695 L 6570,1695 L 6570,1150 Z" /></g></g><g id="CO"><g class="l30d0"><path d="M 6885,2435 L 6975,2435 L 6975,2525 L 6885,2525 Z" /><path d="M 6365,2435 L 6455,2435 L 6455,2525 L 6365,2525 Z" /><path d="M 7925,845 L 8015,845 L 8015,935 L 7925,935 Z" /><path d="M 7405,845 L 7495,845 L 7495,935 L 7405,935 Z" /><path d="M 7145,845 L 7235,845 L 7235,935 L 7145,935 Z" /><path d="M 6625,845 L 6715,845 L 6715,935 L 6625,935 Z" /><path d="M 6105,845 L 6195,845 L 6195,935 L 6105,935 Z" /><path d="M 5845,845 L 5935,845 L 5935,935 L 5845,935 Z" /><path d="M 5585,845 L 5675,845 L 5675,935 L 5585,935 Z" /><path d="M 5585,2435 L 5675,2435 L 5675,2525 L 5585,2525 Z" /><path d="M 5845,2435 L 5935,2435 L 5935,2525 L 5845,2525 Z" /><path d="M 6105,2435 L 6195,2435 L 6195,2525 L 6105,2525 Z" /><path d="M 6625,2435 L 6715,2435 L 6715,2525 L 6625,2525 Z" /><path d="M 7145,2435 L 7235,2435 L 7235,2525 L 7145,2525 Z" /><path d="M 7405,2435 L 7495,2435 L 7495,2525 L 7405,2525 Z" /><path d="M 7925,2435 L 8015,2435 L 8015,2525 L 7925,2525 Z" /><path d="M 7665,2435 L 7755,2435 L 7755,2525 L 7665,2525 Z" /><path d="M 5585,170 L 5675,170 L 5675,260 L 5585,260 Z" /><path d="M 5845,170 L 5935,170 L 5935,260 L 5845,260 Z" /><path d="M 6105,170 L 6195,170 L 6195,260 L 6105,260 Z" /><path d="M 6365,170 L 6455,170 L 6455,260 L 6365,260 Z" /><path d="M 6625,170 L 6715,170 L 6715,260 L 6625,260 Z" /><path d="M 6885,170 L 6975,170 L 6975,260 L 6885,260 Z" /><path d="M 7145,170 L 7235,170 L 7235,260 L 7145,260 Z" /><path d="M 7405,170 L 7495,170 L 7495,260 L 7405,260 Z" /><path d="M 7925,170 L 8015,170 L 8015,260 L 7925,260 Z" /><path d="M 7665,170 L 7755,170 L 7755,260 L 7665,260 Z" /><path d="M 5585,3110 L 5675,3110 L 5675,3200 L 5585,3200 Z" /><path d="M 5845,3110 L 5935,3110 L 5935,3200 L 5845,3200 Z" /><path d="M 6105,3110 L 6195,3110 L 6195,3200 L 6105,3200 Z" /><path d="M 6365,3110 L 6455,3110 L 6455,3200 L 6365,3200 Z" /><path d="M 6625,3110 L 6715,3110 L 6715,3200 L 6625,3200 Z" /><path d="M 6885,3110 L 6975,3110 L 6975,3200 L 6885,3200 Z" /><path d="M 7145,3110 L 7235,3110 L 7235,3200 L 7145,3200 Z" /><path d="M 7405,3110 L 7495,3110 L 7495,3200 L 7405,3200 Z" /><path d="M 7925,3110 L 8015,3110 L 8015,3200 L 7925,3200 Z" /><path d="M 7665,3110 L 7755,3110 L 7755,3200 L 7665,3200 Z" /><path d="M 4285,2435 L 4375,2435 L 4375,2525 L 4285,2525 Z" /><path d="M 3765,2435 L 3855,2435 L 3855,2525 L 3765,2525 Z" /><path d="M 5325,845 L 5415,845 L 5415,935 L 5325,935 Z" /><path d="M 4805,845 L 4895,845 L 4895,935 L 4805,935 Z" /><path d="M 4545,845 L 4635,845 L 4635,935 L 4545,935 Z" /><path d="M 4025,845 L 4115,845 L 4115,935 L 4025,935 Z" /><path d="M 3505,845 L 3595,845 L 3595,935 L 3505,935 Z" /><path d="M 3245,845 L 3335,845 L 3335,935 L 3245,935 Z" /><path d="M 2985,845 L 3075,845 L 3075,935 L 2985,935 Z" /><path d="M 2985,2435 L 3075,2435 L 3075,2525 L 2985,2525 Z" /><path d="M 3245,2435 L 3335,2435 L 3335,2525 L 3245,2525 Z" /><path d="M 3505,2435 L 3595,2435 L 3595,2525 L 3505,2525 Z" /><path d="M 4025,2435 L 4115,2435 L 4115,2525 L 4025,2525 Z" /><path d="M 4545,2435 L 4635,2435 L 4635,2525 L 4545,2525 Z" /><path d="M 4805,2435 L 4895,2435 L 4895,2525 L 4805,2525 Z" /><path d="M 5325,2435 L 5415,2435 L 5415,2525 L 5325,2525 Z" /><path d="M 5065,2435 L 5155,2435 L 5155,2525 L 5065,2525 Z" /><path d="M 2985,170 L 3075,170 L 3075,260 L 2985,260 Z" /><path d="M 3245,170 L 3335,170 L 3335,260 L 3245,260 Z" /><path d="M 3505,170 L 3595,170 L 3595,260 L 3505,260 Z" /><path d="M 3765,170 L 3855,170 L 3855,260 L 3765,260 Z" /><path d="M 4025,170 L 4115,170 L 4115,260 L 4025,260 Z" /><path d="M 4285,170 L 4375,170 L 4375,260 L 4285,260 Z" /><path d="M 4545,170 L 4635,170 L 4635,260 L 4545,260 Z" /><path d="M 4805,170 L 4895,170 L 4895,260 L 4805,260 Z" /><path d="M 5325,170 L 5415,170 L 5415,260 L 5325,260 Z" /><path d="M 5065,170 L 5155,170 L 5155,260 L 5065,260 Z" /><path d="M 2985,3110 L 3075,3110 L 3075,3200 L 2985,3200 Z" /><path d="M 3245,3110 L 3335,3110 L 3335,3200 L 3245,3200 Z" /><path d="M 3505,3110 L 3595,3110 L 3595,3200 L 3505,3200 Z" /><path d="M 3765,3110 L 3855,3110 L 3855,3200 L 3765,3200 Z" /><path d="M 4025,3110 L 4115,3110 L 4115,3200 L 4025,3200 Z" /><path d="M 4285,3110 L 4375,3110 L 4375,3200 L 4285,3200 Z" /><path d="M 4545,3110 L 4635,3110 L 4635,3200 L 4545,3200 Z" /><path d="M 4805,3110 L 4895,3110 L 4895,3200 L 4805,3200 Z" /><path d="M 5325,3110 L 5415,3110 L 5415,3200 L 5325,3200 Z" /><path d="M 5065,3110 L 5155,3110 L 5155,3200 L 5065,3200 Z" /><path d="M 4415,1355 L 4505,1355 L 4505,1445 L 4415,1445 Z" /><path d="M 3115,1355 L 3205,1355 L 3205,1445 L 3115,1445 Z" /><path d="M 4155,1925 L 4245,1925 L 4245,2015 L 4155,2015 Z" /><path d="M 3635,1925 L 3725,1925 L 3725,2015 L 3635,2015 Z" /><path d="M 5195,1545 L 5285,1545 L 5285,1635 L 5195,1635 Z" /><path d="M 4935,1735 L 5025,1735 L 5025,1825 L 4935,1825 Z" /><path d="M 3895,1735 L 3985,1735 L 3985,1825 L 3895,1825 Z" /><path d="M 1685,2435 L 1775,2435 L 1775,2525 L 1685,2525 Z" /><path d="M 1165,2435 L 1255,2435 L 1255,2525 L 1165,2525 Z" /><path d="M 2725,845 L 2815,845 L 2815,935 L 2725,935 Z" /><path d="M 2205,845 L 2295,845 L 2295,935 L 2205,935 Z" /><path d="M 1945,845 L 2035,845 L 2035,935 L 1945,935 Z" /><path d="M 1425,845 L 1515,845 L 1515,935 L 1425,935 Z" /><path d="M 905,845 L 995,845 L 995,935 L 905,935 Z" /><path d="M 645,845 L 735,845 L 735,935 L 645,935 Z" /><path d="M 385,845 L 475,845 L 475,935 L 385,935 Z" /><path d="M 385,2435 L 475,2435 L 475,2525 L 385,2525 Z" /><path d="M 645,2435 L 735,2435 L 735,2525 L 645,2525 Z" /><path d="M 905,2435 L 995,2435 L 995,2525 L 905,2525 Z" /><path d="M 1425,2435 L 1515,2435 L 1515,2525 L 1425,2525 Z" /><path d="M 1945,2435 L 2035,2435 L 2035,2525 L 1945,2525 Z" /><path d="M 2205,2435 L 2295,2435 L 2295,2525 L 2205,2525 Z" /><path d="M 2725,2435 L 2815,2435 L 2815,2525 L 2725,2525 Z" /><path d="M 2465,2435 L 2555,2435 L 2555,2525 L 2465,2525 Z" /><path d="M 385,170 L 475,170 L 475,260 L 385,260 Z" /><path d="M 645,170 L 735,170 L 735,260 L 645,260 Z" /><path d="M 905,170 L 995,170 L 995,260 L 905,260 Z" /><path d="M 1165,170 L 1255,170 L 1255,260 L 1165,260 Z" /><path d="M 1425,170 L 1515,170 L 1515,260 L 1425,260 Z" /><path d="M 1685,170 L 1775,170 L 1775,260 L 1685,260 Z" /><path d="M 1945,170 L 2035,170 L 2035,260 L 1945,260 Z" /><path d="M 2205,170 L 2295,170 L 2295,260 L 2205,260 Z" /><path d="M 2725,170 L 2815,170 L 2815,260 L 2725,260 Z" /><path d="M 2465,170 L 2555,170 L 2555,260 L 2465,260 Z" /><path d="M 385,3110 L 475,3110 L 475,3200 L 385,3200 Z" /><path d="M 645,3110 L 735,3110 L 735,3200 L 645,3200 Z" /><path d="M 905,3110 L 995,3110 L 995,3200 L 905,3200 Z" /><path d="M 1165,3110 L 1255,3110 L 1255,3200 L 1165,3200 Z" /><path d="M 1425,3110 L 1515,3110 L 1515,3200 L 1425,3200 Z" /><path d="M 1685,3110 L 1775,3110 L 1775,3200 L 1685,3200 Z" /><path d="M 1945,3110 L 2035,3110 L 2035,3200 L 1945,3200 Z" /><path d="M 2205,3110 L 2295,3110 L 2295,3200 L 2205,3200 Z" /><path d="M 2725,3110 L 2815,3110 L 2815,3200 L 2725,3200 Z" /><path d="M 2465,3110 L 2555,3110 L 2555,3200 L 2465,3200 Z" /><path d="M 1815,1355 L 1905,1355 L 1905,1445 L 1815,1445 Z" /><path d="M 515,1355 L 605,1355 L 605,1445 L 515,1445 Z" /><path d="M 1555,1925 L 1645,1925 L 1645,2015 L 1555,2015 Z" /><path d="M 1035,1925 L 1125,1925 L 1125,2015 L 1035,2015 Z" /><path d="M 2595,1545 L 2685,1545 L 2685,1635 L 2595,1635 Z" /><path d="M 2335,1735 L 2425,1735 L 2425,1825 L 2335,1825 Z" /><path d="M 1295,1735 L 1385,1735 L 1385,1825 L 1295,1825 Z" /><path d="M 7015,1355 L 7105,1355 L 7105,1445 L 7015,1445 Z" /><path d="M 5715,1355 L 5805,1355 L 5805,1445 L 5715,1445 Z" /><path d="M 6755,1165 L 6845,1165 L 6845,1255 L 6755,1255 Z" /><path d="M 6235,2115 L 6325,2115 L 6325,2205 L 6235,2205 Z" /><path d="M 7795,1545 L 7885,1545 L 7885,1635 L 7795,1635 Z" /><path d="M 7535,1735 L 7625,1735 L 7625,1825 L 7535,1825 Z" /><path d="M 6495,1735 L 6585,1735 L 6585,1825 L 6495,1825 Z" /></g></g><g id="M1"><g class="l31d0"><path d="M 5060,2390 L 5060,2395 L 5060,2565 L 5060,2570 L 5060,2810 L 5160,2810 L 5160,2570 L 5160,2565 L 5160,2395 L 5160,2390 Z" /><path d="M 5320,560 L 5320,800 L 5320,805 L 5320,975 L 5320,980 L 5420,980 L 5420,975 L 5420,805 L 5420,800 L 5420,560 Z" /><path d="M 4280,2390 L 4280,2395 L 4280,2565 L 4280,2570 L 4280,2810 L 4380,2810 L 4380,2570 L 4380,2565 L 4380,2395 L 4380,2390 Z" /><path d="M 4540,560 L 4540,800 L 4540,805 L 4540,975 L 4540,980 L 4640,980 L 4640,975 L 4640,805 L 4640,800 L 4640,560 Z" /><path d="M 3500,560 L 3500,800 L 3500,805 L 3500,975 L 3500,980 L 3600,980 L 3600,975 L 3600,805 L 3600,800 L 3600,560 Z" /><path d="M 3760,2390 L 3760,2395 L 3760,2565 L 3760,2570 L 3760,2810 L 3860,2810 L 3860,2570 L 3860,2565 L 3860,2395 L 3860,2390 Z" /><path d="M 3240,560 L 3240,800 L 3240,805 L 3240,975 L 3240,980 L 3340,980 L 3340,975 L 3340,805 L 3340,800 L 3340,560 Z" /><path d="M 3240,2390 L 3240,2395 L 3240,2565 L 3240,2570 L 3240,2810 L 3340,2810 L 3340,2570 L 3340,2565 L 3340,2395 L 3340,2390 Z" /><path d="M 4115,1920 L 4115,2020 L 4285,2020 L 4535,2020 L 4535,1920 L 4285,1920 Z" /><path d="M 3340,1920 L 3340,2020 L 3595,2020 L 3760,2020 L 3765,2020 L 3765,1920 L 3760,1920 L 3595,1920 Z" /><path d="M 3640,1540 L 3550,1540 L 3460,1540 L 3460,1640 L 3550,1640 L 3640,1640 L 5155,1640 L 5240,1640 L 5325,1640 L 5325,1540 L 5240,1540 L 5155,1540 Z" /><path d="M 3380,1730 L 3290,1730 L 3200,1730 L 3200,1830 L 3290,1830 L 3380,1830 L 3855,1830 L 3940,1830 L 4025,1830 L 4025,1730 L 3940,1730 L 3855,1730 Z" /><path d="M 4420,1730 L 4330,1730 L 4240,1730 L 4240,1830 L 4330,1830 L 4420,1830 L 4895,1830 L 4980,1830 L 5065,1830 L 5065,1730 L 4980,1730 L 4895,1730 Z" /><path d="M 8020,2395 L 7920,2395 L 7920,2565 L 7920,3060 L 7500,3060 L 7500,2565 L 7500,2395 L 7400,2395 L 7400,2565 L 7400,3060 L 7240,3060 L 7240,2565 L 7240,2395 L 7140,2395 L 7140,2565 L 7140,3060 L 6720,3060 L 6720,2565 L 6720,2395 L 6620,2395 L 6620,2565 L 6620,3060 L 6200,3060 L 6200,2565 L 6200,2395 L 6100,2395 L 6100,2565 L 6100,3060 L 5680,3060 L 5680,2565 L 5680,2395 L 5580,2395 L 5580,2565 L 5580,3060 L 5510,3060 L 5490,3060 L 5420,3060 L 5420,2565 L 5420,2395 L 5320,2395 L 5320,2565 L 5320,3060 L 4900,3060 L 4900,2565 L 4900,2395 L 4800,2395 L 4800,2565 L 4800,3060 L 4640,3060 L 4640,2565 L 4640,2395 L 4540,2395 L 4540,2565 L 4540,3060 L 4120,3060 L 4120,2565 L 4120,2395 L 4020,2395 L 4020,2565 L 4020,3060 L 3600,3060 L 3600,2565 L 3600,2395 L 3500,2395 L 3500,2565 L 3500,3060 L 3080,3060 L 3080,2565 L 3080,2395 L 2980,2395 L 2980,2565 L 2980,3060 L 2910,3060 L 2890,3060 L 2820,3060 L 2820,2565 L 2820,2395 L 2720,2395 L 2720,2565 L 2720,3060 L 2300,3060 L 2300,2565 L 2300,2395 L 2200,2395 L 2200,2565 L 2200,3060 L 2040,3060 L 2040,2565 L 2040,2395 L 1940,2395 L 1940,2565 L 1940,3060 L 1520,3060 L 1520,2565 L 1520,2395 L 1420,2395 L 1420,2565 L 1420,3060 L 1000,3060 L 1000,2565 L 1000,2395 L 900,2395 L 900,2565 L 900,3060 L 480,3060 L 480,2565 L 480,2395 L 380,2395 L 380,2565 L 380,3060 L 290,3060 L 290,3250 L 2890,3250 L 2910,3250 L 5490,3250 L 5510,3250 L 8109,3250 L 8109,3060 L 8020,3060 L 8020,2565 Z" /><path d="M 5510,310 L 5580,310 L 5580,805 L 5580,975 L 5680,975 L 5680,805 L 5680,310 L 6620,310 L 6620,805 L 6620,975 L 6720,975 L 6720,805 L 6720,310 L 7400,310 L 7400,805 L 7400,975 L 7500,975 L 7500,805 L 7500,310 L 8109,310 L 8109,120 L 5510,120 L 5490,120 L 2910,120 L 2890,120 L 290,120 L 290,310 L 380,310 L 380,805 L 380,975 L 480,975 L 480,805 L 480,310 L 1420,310 L 1420,805 L 1420,975 L 1520,975 L 1520,805 L 1520,310 L 2200,310 L 2200,805 L 2200,975 L 2300,975 L 2300,805 L 2300,310 L 2890,310 L 2910,310 L 2980,310 L 2980,805 L 2980,975 L 3080,975 L 3080,805 L 3080,310 L 4020,310 L 4020,805 L 4020,975 L 4120,975 L 4120,805 L 4120,310 L 4800,310 L 4800,805 L 4800,975 L 4900,975 L 4900,805 L 4900,310 L 5490,310 Z" /><path d="M 2460,2390 L 2460,2395 L 2460,2565 L 2460,2570 L 2460,2810 L 2560,2810 L 2560,2570 L 2560,2565 L 2560,2395 L 2560,2390 Z" /><path d="M 2720,560 L 2720,800 L 2720,805 L 2720,975 L 2720,980 L 2820,980 L 2820,975 L 2820,805 L 2820,800 L 2820,560 Z" /><path d="M 1680,2390 L 1680,2395 L 1680,2565 L 1680,2570 L 1680,2810 L 1780,2810 L 1780,2570 L 1780,2565 L 1780,2395 L 1780,2390 Z" /><path d="M 1940,560 L 1940,800 L 1940,805 L 1940,975 L 1940,980 L 2040,980 L 2040,975 L 2040,805 L 2040,800 L 2040,560 Z" /><path d="M 900,560 L 900,800 L 900,805 L 900,975 L 900,980 L 1000,980 L 1000,975 L 1000,805 L 1000,800 L 1000,560 Z" /><path d="M 1160,2390 L 1160,2395 L 1160,2565 L 1160,2570 L 1160,2810 L 1260,2810 L 1260,2570 L 1260,2565 L 1260,2395 L 1260,2390 Z" /><path d="M 640,560 L 640,800 L 640,805 L 640,975 L 640,980 L 740,980 L 740,975 L 740,805 L 740,800 L 740,560 Z" /><path d="M 640,2390 L 640,2395 L 640,2565 L 640,2570 L 640,2810 L 740,2810 L 740,2570 L 740,2565 L 740,2395 L 740,2390 Z" /><path d="M 1945,1350 L 1860,1350 L 1775,1350 L 645,1350 L 610,1350 L 510,1350 L 475,1350 L 475,1450 L 510,1450 L 610,1450 L 645,1450 L 1775,1450 L 1860,1450 L 1945,1450 L 3075,1450 L 3110,1450 L 3245,1450 L 4375,1450 L 4460,1450 L 4545,1450 L 4545,1350 L 4460,1350 L 4375,1350 L 3245,1350 L 3110,1350 L 3075,1350 Z" /><path d="M 1515,1920 L 1515,2020 L 1685,2020 L 1935,2020 L 1935,1920 L 1685,1920 Z" /><path d="M 740,1920 L 740,2020 L 995,2020 L 1160,2020 L 1165,2020 L 1165,1920 L 1160,1920 L 995,1920 Z" /><path d="M 1040,1540 L 950,1540 L 860,1540 L 860,1640 L 950,1640 L 1040,1640 L 2555,1640 L 2640,1640 L 2725,1640 L 2725,1540 L 2640,1540 L 2555,1540 Z" /><path d="M 780,1730 L 690,1730 L 600,1730 L 600,1830 L 690,1830 L 780,1830 L 1255,1830 L 1340,1830 L 1425,1830 L 1425,1730 L 1340,1730 L 1255,1730 Z" /><path d="M 1820,1730 L 1730,1730 L 1640,1730 L 1640,1830 L 1730,1830 L 1820,1830 L 2295,1830 L 2380,1830 L 2465,1830 L 2465,1730 L 2380,1730 L 2295,1730 Z" /><path d="M 6360,2390 L 6360,2395 L 6360,2565 L 6360,2570 L 6360,2810 L 6460,2810 L 6460,2570 L 6460,2565 L 6460,2395 L 6460,2390 Z" /><path d="M 5840,560 L 5840,800 L 5840,805 L 5840,975 L 5840,980 L 5940,980 L 5940,975 L 5940,805 L 5940,800 L 5940,560 Z" /><path d="M 6880,2390 L 6880,2395 L 6880,2565 L 6880,2570 L 6880,2810 L 6980,2810 L 6980,2570 L 6980,2565 L 6980,2395 L 6980,2390 Z" /><path d="M 7660,2390 L 7660,2395 L 7660,2565 L 7660,2570 L 7660,2810 L 7760,2810 L 7760,2570 L 7760,2565 L 7760,2395 L 7760,2390 Z" /><path d="M 7920,560 L 7920,800 L 7920,805 L 7920,975 L 7920,980 L 8020,980 L 8020,975 L 8020,805 L 8020,800 L 8020,560 Z" /><path d="M 7140,560 L 7140,800 L 7140,805 L 7140,975 L 7140,980 L 7240,980 L 7240,975 L 7240,805 L 7240,800 L 7240,560 Z" /><path d="M 6100,560 L 6100,800 L 6100,805 L 6100,975 L 6100,980 L 6200,980 L 6200,975 L 6200,805 L 6200,800 L 6200,560 Z" /><path d="M 5840,2390 L 5840,2395 L 5840,2565 L 5840,2570 L 5840,2810 L 5940,2810 L 5940,2570 L 5940,2565 L 5940,2395 L 5940,2390 Z" /><path d="M 5845,1350 L 5710,1350 L 5675,1350 L 5675,1450 L 5710,1450 L 5845,1450 L 6975,1450 L 7060,1450 L 7145,1450 L 7145,1350 L 7060,1350 L 6975,1350 Z" /><path d="M 6715,1160 L 5460,1160 L 5370,1160 L 5280,1160 L 5280,1260 L 5370,1260 L 5460,1260 L 6715,1260 L 6800,1260 L 6885,1260 L 6885,1160 L 6800,1160 Z" /><path d="M 6195,2110 L 2600,2110 L 2510,2110 L 2420,2110 L 2420,2210 L 2510,2210 L 2600,2210 L 6195,2210 L 6280,2210 L 6365,2210 L 6365,2110 L 6280,2110 Z" /><path d="M 7755,1540 L 6240,1540 L 6150,1540 L 6060,1540 L 6060,1640 L 6150,1640 L 6240,1640 L 7755,1640 L 7840,1640 L 7925,1640 L 7925,1540 L 7840,1540 Z" /><path d="M 7495,1730 L 7020,1730 L 6930,1730 L 6840,1730 L 6840,1830 L 6930,1830 L 7020,1830 L 7495,1830 L 7580,1830 L 7665,1830 L 7665,1730 L 7580,1730 Z" /><path d="M 6455,1730 L 5980,1730 L 5890,1730 L 5800,1730 L 5800,1830 L 5890,1830 L 5980,1830 L 6455,1830 L 6540,1830 L 6625,1830 L 6625,1730 L 6540,1730 Z" /></g></g><g id="VIA1"><g class="l51d0"><path d="M 5060,2430 L 5160,2430 L 5160,2530 L 5060,2530 Z" /><path d="M 5320,840 L 5420,840 L 5420,940 L 5320,940 Z" /><path d="M 4280,2430 L 4380,2430 L 4380,2530 L 4280,2530 Z" /><path d="M 4540,840 L 4640,840 L 4640,940 L 4540,940 Z" /><path d="M 3500,840 L 3600,840 L 3600,940 L 3500,940 Z" /><path d="M 3760,2430 L 3860,2430 L 3860,2530 L 3760,2530 Z" /><path d="M 3240,840 L 3340,840 L 3340,940 L 3240,940 Z" /><path d="M 3240,2430 L 3340,2430 L 3340,2530 L 3240,2530 Z" /><path d="M 3500,1540 L 3600,1540 L 3600,1640 L 3500,1640 Z" /><path d="M 3240,1730 L 3340,1730 L 3340,1830 L 3240,1830 Z" /><path d="M 4280,1730 L 4380,1730 L 4380,1830 L 4280,1830 Z" /><path d="M 2460,2430 L 2560,2430 L 2560,2530 L 2460,2530 Z" /><path d="M 2720,840 L 2820,840 L 2820,940 L 2720,940 Z" /><path d="M 1680,2430 L 1780,2430 L 1780,2530 L 1680,2530 Z" /><path d="M 1940,840 L 2040,840 L 2040,940 L 1940,940 Z" /><path d="M 900,840 L 1000,840 L 1000,940 L 900,940 Z" /><path d="M 1160,2430 L 1260,2430 L 1260,2530 L 1160,2530 Z" /><path d="M 640,840 L 740,840 L 740,940 L 640,940 Z" /><path d="M 640,2430 L 740,2430 L 740,2530 L 640,2530 Z" /><path d="M 900,1540 L 1000,1540 L 1000,1640 L 900,1640 Z" /><path d="M 640,1730 L 740,1730 L 740,1830 L 640,1830 Z" /><path d="M 1680,1730 L 1780,1730 L 1780,1830 L 1680,1830 Z" /><path d="M 5320,1160 L 5420,1160 L 5420,1260 L 5320,1260 Z" /><path d="M 6100,1540 L 6200,1540 L 6200,1640 L 6100,1640 Z" /><path d="M 6880,1730 L 6980,1730 L 6980,1830 L 6880,1830 Z" /><path d="M 5840,1730 L 5940,1730 L 5940,1830 L 5840,1830 Z" /><path d="M 2460,2110 L 2560,2110 L 2560,2210 L 2460,2210 Z" /><path d="M 6360,2430 L 6460,2430 L 6460,2530 L 6360,2530 Z" /><path d="M 5840,840 L 5940,840 L 5940,940 L 5840,940 Z" /><path d="M 6880,2430 L 6980,2430 L 6980,2530 L 6880,2530 Z" /><path d="M 7660,2430 L 7760,2430 L 7760,2530 L 7660,2530 Z" /><path d="M 7920,840 L 8020,840 L 8020,940 L 7920,940 Z" /><path d="M 7140,840 L 7240,840 L 7240,940 L 7140,940 Z" /><path d="M 6100,840 L 6200,840 L 6200,940 L 6100,940 Z" /><path d="M 5840,2430 L 5940,2430 L 5940,2530 L 5840,2530 Z" /></g></g><g id="M2"><g class="l32d0"><path d="M 3760,2480 L 3760,2570 L 3860,2570 L 3860,2480 L 3860,2390 L 3860,1735 L 3860,1635 L 3760,1635 L 3600,1635 L 3600,1590 L 3600,1500 L 3600,980 L 3600,890 L 3600,800 L 3500,800 L 3500,890 L 3500,980 L 3500,1500 L 3500,1590 L 3500,1635 L 3500,1680 L 3500,1735 L 3600,1735 L 3760,1735 L 3760,2390 Z" /><path d="M 3340,830 L 3340,800 L 3240,800 L 3240,830 L 3240,980 L 3240,1690 L 3240,1780 L 3240,1870 L 3240,2390 L 3240,2480 L 3240,2570 L 3340,2570 L 3340,2480 L 3340,2390 L 3340,1870 L 3340,1780 L 3340,1690 L 3340,980 Z" /><path d="M 4280,2570 L 4380,2570 L 4380,2480 L 4380,2390 L 4380,1870 L 4380,1780 L 4380,1735 L 4540,1735 L 4640,1735 L 4640,1635 L 4640,980 L 4640,890 L 4640,800 L 4540,800 L 4540,890 L 4540,980 L 4540,1635 L 4380,1635 L 4280,1635 L 4280,1690 L 4280,1735 L 4280,1780 L 4280,1870 L 4280,2390 L 4280,2480 Z" /><path d="M 1160,2480 L 1160,2570 L 1260,2570 L 1260,2480 L 1260,2390 L 1260,1735 L 1260,1635 L 1160,1635 L 1000,1635 L 1000,1590 L 1000,1500 L 1000,980 L 1000,890 L 1000,800 L 900,800 L 900,890 L 900,980 L 900,1500 L 900,1590 L 900,1635 L 900,1680 L 900,1735 L 1000,1735 L 1160,1735 L 1160,2390 Z" /><path d="M 740,830 L 740,800 L 640,800 L 640,830 L 640,980 L 640,1690 L 640,1780 L 640,1870 L 640,2390 L 640,2480 L 640,2570 L 740,2570 L 740,2480 L 740,2390 L 740,1870 L 740,1780 L 740,1690 L 740,980 Z" /><path d="M 1680,2570 L 1780,2570 L 1780,2480 L 1780,2390 L 1780,1870 L 1780,1780 L 1780,1735 L 1940,1735 L 2040,1735 L 2040,1635 L 2040,980 L 2040,890 L 2040,800 L 1940,800 L 1940,890 L 1940,980 L 1940,1635 L 1780,1635 L 1680,1635 L 1680,1690 L 1680,1735 L 1680,1780 L 1680,1870 L 1680,2390 L 1680,2480 Z" /><path d="M 5320,1300 L 5320,1635 L 5290,1635 L 5160,1635 L 5060,1635 L 5060,1735 L 5060,2390 L 5060,2480 L 5060,2570 L 5160,2570 L 5160,2480 L 5160,2390 L 5160,1735 L 5290,1735 L 5320,1735 L 5420,1735 L 5420,1635 L 5420,1300 L 5420,1210 L 5420,1120 L 5420,980 L 5420,890 L 5420,800 L 5320,800 L 5320,890 L 5320,980 L 5320,1120 L 5320,1210 Z" /><path d="M 2560,2070 L 2560,1735 L 2590,1735 L 2720,1735 L 2820,1735 L 2820,1635 L 2820,980 L 2820,890 L 2820,800 L 2720,800 L 2720,890 L 2720,980 L 2720,1635 L 2590,1635 L 2560,1635 L 2460,1635 L 2460,1735 L 2460,2070 L 2460,2160 L 2460,2250 L 2460,2390 L 2460,2480 L 2460,2570 L 2560,2570 L 2560,2480 L 2560,2390 L 2560,2250 L 2560,2160 Z" /><path d="M 7660,2480 L 7660,2570 L 7760,2570 L 7760,2480 L 7760,2390 L 7760,1735 L 7920,1735 L 8020,1735 L 8020,1635 L 8020,980 L 8020,890 L 8020,800 L 7920,800 L 7920,890 L 7920,980 L 7920,1635 L 7760,1635 L 7660,1635 L 7660,1735 L 7660,2390 Z" /><path d="M 7240,1635 L 7240,980 L 7240,890 L 7240,800 L 7140,800 L 7140,890 L 7140,980 L 7140,1635 L 6979,1635 L 6880,1635 L 6880,1690 L 6880,1735 L 6880,1780 L 6880,1870 L 6880,2390 L 6880,2480 L 6880,2570 L 6980,2570 L 6980,2390 L 6979,2390 L 6979,1870 L 6980,1870 L 6980,1735 L 7140,1735 L 7240,1735 Z" /><path d="M 6100,980 L 6100,1500 L 6100,1590 L 6100,1635 L 6100,1680 L 6100,1735 L 6200,1735 L 6360,1735 L 6360,2390 L 6360,2480 L 6360,2570 L 6460,2570 L 6460,2480 L 6460,2390 L 6460,1735 L 6460,1635 L 6360,1635 L 6200,1635 L 6200,1590 L 6200,1500 L 6200,980 L 6200,890 L 6200,800 L 6100,800 L 6100,890 Z" /><path d="M 5840,1690 L 5840,1780 L 5840,1870 L 5840,2390 L 5840,2480 L 5840,2570 L 5940,2570 L 5940,2390 L 5939,2390 L 5939,1870 L 5940,1870 L 5940,1690 L 5939,1690 L 5939,980 L 5940,980 L 5940,800 L 5840,800 L 5840,830 L 5840,980 Z" /></g></g></g></svg>