<svg width="11790" height="3550" viewBox="-5 -3545 11790 3550" xmlns="http://www.w3.org/2000/svg" xmlns:xlink="http://www.w3.org/1999/xlink"><defs><style type="text/css">.l3d0 {fill: #fef9e7; fill-opacity: 0.5; stroke-width: 10; stroke: #f1c40f; stroke-linecap: round; stroke-linejoin: round; stroke-opacity: 0.2;}.l25d0 {fill: #8e44ad; fill-opacity: 0.05; stroke-width: 10; stroke: #8e44ad; stroke-linecap: round; stroke-linejoin: round; stroke-opacity: 1;}.l26d0 {fill: #ccd1d1; fill-opacity: 0.05; stroke-width: 10; stroke: #ccd1d1; stroke-linecap: round; stroke-linejoin: round; stroke-opacity: 1;}.l6d0 {fill: #f5b7b1; fill-opacity: 1; stroke-width: 10; stroke: #e74c3c; stroke-linecap: round; stroke-linejoin: round; stroke-opacity: 1;}.l17d0 {fill: #2980b9; fill-opacity: 1; stroke-width: 0; stroke: #000000; stroke-linecap: round; stroke-linejoin: round; stroke-opacity: 0;}.l30d0 {fill: #27ae60; fill-opacity: 1; stroke-width: 0; stroke: #000000; stroke-linecap: round; stroke-linejoin: round; stroke-opacity: 0;}.l31d0 {fill: #85c1e9; fill-opacity: 0.6; stroke-width: 0; stroke: #000000; stroke-linecap: round; stroke-linejoin: round; stroke-opacity: 0;}.l51d0 {fill: #f39c12; fill-opacity: 1; stroke-width: 10; stroke: #f39c12; stroke-linecap: round; stroke-linejoin: round; stroke-opacity: 1;}.l32d0 {fill: #f7dc6f; fill-opacity: 0.6; stroke-width: 0; stroke: #000000; stroke-linecap: round; stroke-linejoin: round; stroke-opacity: 0;}.l52d0 {fill: #a04000; fill-opacity: 1; stroke-width: 10; stroke: #a04000; stroke-linecap: round; stroke-linejoin: round; stroke-opacity: 1;}.l33d0 {fill: #16a085; fill-opacity: 0.6; stroke-width: 0; stroke: #000000; stroke-linecap: round; stroke-linejoin: round; stroke-opacity: 0;}path {fill-rule: evenodd;}</style></defs><g transform="scale(1 -1)"><g id="NW"><g class="l3d0"><path d="M 11780,1900 L 11000,1900 L 10765,1900 L 10505,1900 L 10220,1900 L 10115,1900 L 9855,1900 L 1900,1900 L 1560,1900 L 0,1900 L 0,3540 L 1560,3540 L 1900,3540 L 10220,3540 L 11000,3540 L 11780,3540 Z" /></g></g><g id="PP"><g class="l25d0"><path d="M 11610,0 L 10830,0 L 10050,0 L 1730,0 L 170,0 L 170,430 L 1730,430 L 10050,430 L 10830,430 L 11610,430 Z" /><path d="M 10830,1685 L 10050,1685 L 1730,1685 L 170,1685 L 170,2940 L 1105,2940 L 1365,2940 L 1575,2940 L 1730,2940 L 1835,2940 L 1885,2940 L 2145,2940 L 2355,2940 L 2405,2940 L 2615,2940 L 2665,2940 L 2875,2940 L 2925,2940 L 3135,2940 L 3185,2940 L 3395,2940 L 3655,2940 L 3705,2940 L 3965,2940 L 4175,2940 L 4225,2940 L 4435,2940 L 4485,2940 L 4695,2940 L 4745,2940 L 4955,2940 L 5005,2940 L 5215,2940 L 5475,2940 L 5525,2940 L 5785,2940 L 5995,2940 L 6255,2940 L 6305,2940 L 6565,2940 L 6775,2940 L 6825,2940 L 7035,2940 L 7085,2940 L 7295,2940 L 7345,2940 L 7555,2940 L 7605,2940 L 7815,2940 L 8075,2940 L 8125,2940 L 8385,2940 L 8595,2940 L 8645,2940 L 8855,2940 L 8905,2940 L 9115,2940 L 9165,2940 L 9375,2940 L 9425,2940 L 9635,2940 L 9895,2940 L 9945,2940 L 10050,2940 L 10205,2940 L 10415,2940 L 10675,2940 L 10725,2940 L 10830,2940 L 10985,2940 L 11195,2940 L 11455,2940 L 11610,2940 L 11610,1685 Z" /></g></g><g id="NP"><g class="l26d0"><path d="M 10830,3370 L 11610,3370 L 11610,2940 L 10830,2940 L 10050,2940 L 1730,2940 L 170,2940 L 170,3370 L 1730,3370 L 10050,3370 Z" /><path d="M 11455,430 L 11195,430 L 10985,430 L 10830,430 L 10725,430 L 10675,430 L 10415,430 L 10205,430 L 10050,430 L 9945,430 L 9895,430 L 9635,430 L 9425,430 L 9375,430 L 9165,430 L 9115,430 L 8905,430 L 8855,430 L 8645,430 L 8595,430 L 8385,430 L 8125,430 L 8075,430 L 7815,430 L 7605,430 L 7555,430 L 7345,430 L 7295,430 L 7085,430 L 7035,430 L 6825,430 L 6775,430 L 6565,430 L 6305,430 L 6255,430 L 5995,430 L 5785,430 L 5525,430 L 5475,430 L 5215,430 L 5005,430 L 4955,430 L 4745,430 L 4695,430 L 4485,430 L 4435,430 L 4225,430 L 4175,430 L 3965,430 L 3705,430 L 3655,430 L 3395,430 L 3185,430 L 3135,430 L 2925,430 L 2875,430 L 2665,430 L 2615,430 L 2405,430 L 2355,430 L 2145,430 L 1885,430 L 1835,430 L 1730,430 L 1575,430 L 1365,430 L 1105,430 L 1055,430 L 795,430 L 585,430 L 325,430 L 170,430 L 170,1685 L 1730,1685 L 10050,1685 L 10830,1685 L 11610,1685 L 11610,430 Z" /></g></g><g id="OD"><g class="l6d0"><path d="M 300,3240 L 1600,3240 L 1860,3240 L 9920,3240 L 10700,3240 L 11480,3240 L 11480,3070 L 10700,3070 L 9920,3070 L 1860,3070 L 1600,3070 L 300,3070 Z" /><path d="M 300,300 L 1600,300 L 1860,300 L 9920,300 L 10700,300 L 11480,300 L 11480,130 L 10700,130 L 9920,130 L 1860,130 L 1600,130 L 300,130 Z" /><path d="M 5555,770 L 5654,770 L 5654,890 L 5555,890 Z" /><path d="M 5555,2480 L 5654,2480 L 5654,2600 L 5555,2600 Z" /><path d="M 6225,770 L 6125,770 L 6050,770 L 5990,770 L 5915,770 L 5865,770 L 5790,770 L 5730,770 L 5655,770 L 5655,890 L 5730,890 L 5790,890 L 5865,890 L 5915,890 L 5990,890 L 6050,890 L 6125,890 L 6225,890 Z" /><path d="M 6510,890 L 6570,890 L 6645,890 L 6695,890 L 6770,890 L 6830,890 L 6905,890 L 6955,890 L 7030,890 L 7090,890 L 7165,890 L 7215,890 L 7290,890 L 7350,890 L 7425,890 L 7475,890 L 7550,890 L 7610,890 L 7685,890 L 7735,890 L 7810,890 L 7870,890 L 7945,890 L 8045,890 L 8045,770 L 7945,770 L 7870,770 L 7810,770 L 7735,770 L 7685,770 L 7610,770 L 7550,770 L 7475,770 L 7425,770 L 7350,770 L 7290,770 L 7215,770 L 7165,770 L 7090,770 L 7030,770 L 6955,770 L 6905,770 L 6830,770 L 6770,770 L 6695,770 L 6645,770 L 6570,770 L 6510,770 L 6435,770 L 6335,770 L 6335,890 L 6435,890 Z" /><path d="M 8330,890 L 8390,890 L 8465,890 L 8515,890 L 8590,890 L 8650,890 L 8725,890 L 8775,890 L 8850,890 L 8910,890 L 8985,890 L 9035,890 L 9110,890 L 9170,890 L 9245,890 L 9295,890 L 9370,890 L 9430,890 L 9505,890 L 9555,890 L 9630,890 L 9690,890 L 9765,890 L 9865,890 L 9865,770 L 9765,770 L 9690,770 L 9630,770 L 9555,770 L 9505,770 L 9430,770 L 9370,770 L 9295,770 L 9245,770 L 9170,770 L 9110,770 L 9035,770 L 8985,770 L 8910,770 L 8850,770 L 8775,770 L 8725,770 L 8650,770 L 8590,770 L 8515,770 L 8465,770 L 8390,770 L 8330,770 L 8255,770 L 8155,770 L 8155,890 L 8255,890 Z" /><path d="M 5270,890 L 5345,890 L 5445,890 L 5445,770 L 5345,770 L 5270,770 L 5210,770 L 5135,770 L 5085,770 L 5010,770 L 4950,770 L 4875,770 L 4825,770 L 4750,770 L 4690,770 L 4615,770 L 4565,770 L 4490,770 L 4430,770 L 4355,770 L 4305,770 L 4230,770 L 4170,770 L 4095,770 L 4045,770 L 3970,770 L 3910,770 L 3835,770 L 3735,770 L 3735,890 L 3835,890 L 3910,890 L 3970,890 L 4045,890 L 4095,890 L 4170,890 L 4230,890 L 4305,890 L 4355,890 L 4430,890 L 4490,890 L 4565,890 L 4615,890 L 4690,890 L 4750,890 L 4825,890 L 4875,890 L 4950,890 L 5010,890 L 5085,890 L 5135,890 L 5210,890 Z" /><path d="M 3450,890 L 3525,890 L 3625,890 L 3625,770 L 3525,770 L 3450,770 L 3390,770 L 3315,770 L 3265,770 L 3190,770 L 3130,770 L 3055,770 L 3005,770 L 2930,770 L 2870,770 L 2795,770 L 2745,770 L 2670,770 L 2610,770 L 2535,770 L 2485,770 L 2410,770 L 2350,770 L 2275,770 L 2225,770 L 2150,770 L 2090,770 L 2015,770 L 1915,770 L 1915,890 L 2015,890 L 2090,890 L 2150,890 L 2225,890 L 2275,890 L 2350,890 L 2410,890 L 2485,890 L 2535,890 L 2610,890 L 2670,890 L 2745,890 L 2795,890 L 2870,890 L 2930,890 L 3005,890 L 3055,890 L 3130,890 L 3190,890 L 3265,890 L 3315,890 L 3390,890 Z" /><path d="M 6225,2480 L 6125,2480 L 6050,2480 L 5990,2480 L 5915,2480 L 5865,2480 L 5790,2480 L 5730,2480 L 5655,2480 L 5655,2600 L 5730,2600 L 5790,2600 L 5865,2600 L 5915,2600 L 5990,2600 L 6050,2600 L 6125,2600 L 6225,2600 Z" /><path d="M 7030,2600 L 7090,2600 L 7165,2600 L 7215,2600 L 7290,2600 L 7350,2600 L 7425,2600 L 7475,2600 L 7550,2600 L 7610,2600 L 7685,2600 L 7735,2600 L 7810,2600 L 7870,2600 L 7945,2600 L 8045,2600 L 8045,2480 L 7945,2480 L 7870,2480 L 7810,2480 L 7735,2480 L 7685,2480 L 7610,2480 L 7550,2480 L 7475,2480 L 7425,2480 L 7350,2480 L 7290,2480 L 7215,2480 L 7165,2480 L 7090,2480 L 7030,2480 L 6955,2480 L 6905,2480 L 6830,2480 L 6770,2480 L 6695,2480 L 6645,2480 L 6570,2480 L 6510,2480 L 6435,2480 L 6335,2480 L 6335,2600 L 6435,2600 L 6510,2600 L 6570,2600 L 6645,2600 L 6695,2600 L 6770,2600 L 6830,2600 L 6905,2600 L 6955,2600 Z" /><path d="M 8850,2600 L 8910,2600 L 8985,2600 L 9035,2600 L 9110,2600 L 9170,2600 L 9245,2600 L 9295,2600 L 9370,2600 L 9430,2600 L 9505,2600 L 9555,2600 L 9630,2600 L 9690,2600 L 9765,2600 L 9865,2600 L 9865,2480 L 9765,2480 L 9690,2480 L 9630,2480 L 9555,2480 L 9505,2480 L 9430,2480 L 9370,2480 L 9295,2480 L 9245,2480 L 9170,2480 L 9110,2480 L 9035,2480 L 8985,2480 L 8910,2480 L 8850,2480 L 8775,2480 L 8725,2480 L 8650,2480 L 8590,2480 L 8515,2480 L 8465,2480 L 8390,2480 L 8330,2480 L 8255,2480 L 8155,2480 L 8155,2600 L 8255,2600 L 8330,2600 L 8390,2600 L 8465,2600 L 8515,2600 L 8590,2600 L 8650,2600 L 8725,2600 L 8775,2600 Z" /><path d="M 4750,2600 L 4825,2600 L 4875,2600 L 4950,2600 L 5010,2600 L 5085,2600 L 5135,2600 L 5210,2600 L 5270,2600 L 5345,2600 L 5445,2600 L 5445,2480 L 5345,2480 L 5270,2480 L 5210,2480 L 5135,2480 L 5085,2480 L 5010,2480 L 4950,2480 L 4875,2480 L 4825,2480 L 4750,2480 L 4690,2480 L 4615,2480 L 4565,2480 L 4490,2480 L 4430,2480 L 4355,2480 L 4305,2480 L 4230,2480 L 4170,2480 L 4095,2480 L 4045,2480 L 3970,2480 L 3910,2480 L 3835,2480 L 3735,2480 L 3735,2600 L 3835,2600 L 3910,2600 L 3970,2600 L 4045,2600 L 4095,2600 L 4170,2600 L 4230,2600 L 4305,2600 L 4355,2600 L 4430,2600 L 4490,2600 L 4565,2600 L 4615,2600 L 4690,2600 Z" /><path d="M 2930,2600 L 3005,2600 L 3055,2600 L 3130,2600 L 3190,2600 L 3265,2600 L 3315,2600 L 3390,2600 L 3450,2600 L 3525,2600 L 3625,2600 L 3625,2480 L 3525,2480 L 3450,2480 L 3390,2480 L 3315,2480 L 3265,2480 L 3190,2480 L 3130,2480 L 3055,2480 L 3005,2480 L 2930,2480 L 2870,2480 L 2795,2480 L 2745,2480 L 2670,2480 L 2610,2480 L 2535,2480 L 2485,2480 L 2410,2480 L 2350,2480 L 2275,2480 L 2225,2480 L 2150,2480 L 2090,2480 L 2015,2480 L 1915,2480 L 1915,2600 L 2015,2600 L 2090,2600 L 2150,2600 L 2225,2600 L 2275,2600 L 2350,2600 L 2410,2600 L 2485,2600 L 2535,2600 L 2610,2600 L 2670,2600 L 2745,2600 L 2795,2600 L 2870,2600 Z" /><path d="M 1135,2600 L 1235,2600 L 1310,2600 L 1370,2600 L 1445,2600 L 1495,2600 L 1570,2600 L 1630,2600 L 1705,2600 L 1805,2600 L 1805,2480 L 1705,2480 L 1630,2480 L 1570,2480 L 1495,2480 L 1445,2480 L 1370,2480 L 1310,2480 L 1235,2480 L 1135,2480 Z" /><path d="M 11425,2480 L 11325,2480 L 11250,2480 L 11190,2480 L 11115,2480 L 11065,2480 L 10990,2480 L 10930,2480 L 10855,2480 L 10755,2480 L 10755,2600 L 10855,2600 L 10930,2600 L 10990,2600 L 11065,2600 L 11115,2600 L 11190,2600 L 11250,2600 L 11325,2600 L 11425,2600 Z" /><path d="M 1790,770 L 1705,770 L 1630,770 L 1570,770 L 1495,770 L 1445,770 L 1370,770 L 1310,770 L 1235,770 L 1150,770 L 1150,1010 L 1235,1010 L 1310,1010 L 1370,1010 L 1445,1010 L 1495,1010 L 1570,1010 L 1630,1010 L 1705,1010 L 1790,1010 Z" /><path d="M 355,890 L 455,890 L 530,890 L 590,890 L 665,890 L 715,890 L 790,890 L 850,890 L 925,890 L 1025,890 L 1025,770 L 925,770 L 850,770 L 790,770 L 715,770 L 665,770 L 590,770 L 530,770 L 455,770 L 355,770 Z" /><path d="M 11425,770 L 11325,770 L 11250,770 L 11190,770 L 11115,770 L 11065,770 L 10990,770 L 10930,770 L 10855,770 L 10755,770 L 10755,890 L 10855,890 L 10930,890 L 10990,890 L 11065,890 L 11115,890 L 11190,890 L 11250,890 L 11325,890 L 11425,890 Z" /><path d="M 10630,2120 L 10545,2120 L 10470,2120 L 10410,2120 L 10335,2120 L 10285,2120 L 10210,2120 L 10150,2120 L 10075,2120 L 9990,2120 L 9990,2600 L 10075,2600 L 10150,2600 L 10210,2600 L 10285,2600 L 10335,2600 L 10410,2600 L 10470,2600 L 10545,2600 L 10630,2600 Z" /><path d="M 10285,770 L 10210,770 L 10150,770 L 10075,770 L 9990,770 L 9990,1250 L 10075,1250 L 10150,1250 L 10210,1250 L 10285,1250 L 10335,1250 L 10410,1250 L 10470,1250 L 10545,1250 L 10630,1250 L 10630,770 L 10545,770 L 10470,770 L 10410,770 L 10335,770 Z" /></g></g><g id="PO"><g class="l17d0"><path d="M 3190,1030 L 3190,890 L 3190,770 L 3190,630 L 3130,630 L 3130,770 L 3130,890 L 3130,1030 L 3130,1120 L 3105,1120 L 3105,1290 L 3215,1290 L 3215,1120 L 3190,1120 Z" /><path d="M 3450,890 L 3450,770 L 3450,630 L 3390,630 L 3390,770 L 3390,890 L 3390,1030 L 3390,1310 L 3365,1310 L 3365,1480 L 3390,1480 L 3390,2340 L 3390,2480 L 3390,2600 L 3390,2740 L 3450,2740 L 3450,2600 L 3450,2480 L 3450,2340 L 3450,1480 L 3475,1480 L 3475,1310 L 3450,1310 L 3450,1030 Z" /><path d="M 5009,1030 L 5010,1030 L 5010,890 L 5010,770 L 5010,630 L 4950,630 L 4950,770 L 4950,890 L 4950,1030 L 4950,1120 L 4925,1120 L 4925,1290 L 5035,1290 L 5035,1120 L 5009,1120 Z" /><path d="M 5270,890 L 5270,770 L 5270,630 L 5210,630 L 5210,770 L 5210,890 L 5210,1030 L 5210,1310 L 5185,1310 L 5185,1480 L 5210,1480 L 5210,2340 L 5210,2480 L 5210,2600 L 5210,2740 L 5270,2740 L 5270,2600 L 5270,2480 L 5270,2340 L 5270,1480 L 5295,1480 L 5295,1310 L 5270,1310 L 5270,1030 Z" /><path d="M 7610,1030 L 7610,890 L 7610,770 L 7610,630 L 7550,630 L 7550,770 L 7550,890 L 7550,1030 L 7550,1120 L 7525,1120 L 7525,1290 L 7635,1290 L 7635,1120 L 7610,1120 Z" /><path d="M 7870,890 L 7870,770 L 7870,630 L 7810,630 L 7810,770 L 7810,890 L 7810,1030 L 7810,1310 L 7785,1310 L 7785,1480 L 7810,1480 L 7810,2340 L 7810,2480 L 7810,2600 L 7810,2740 L 7870,2740 L 7870,2600 L 7870,2480 L 7870,2340 L 7870,1480 L 7895,1480 L 7895,1310 L 7870,1310 L 7870,1030 Z" /><path d="M 9430,1030 L 9430,890 L 9430,770 L 9430,630 L 9370,630 L 9370,770 L 9370,890 L 9370,1030 L 9370,1120 L 9345,1120 L 9345,1290 L 9455,1290 L 9455,1120 L 9430,1120 Z" /><path d="M 9690,1030 L 9690,890 L 9690,770 L 9690,630 L 9630,630 L 9630,770 L 9630,890 L 9630,1030 L 9630,1310 L 9605,1310 L 9605,1480 L 9630,1480 L 9630,2340 L 9630,2480 L 9630,2600 L 9630,2740 L 9690,2740 L 9690,2600 L 9690,2480 L 9690,2340 L 9689,2340 L 9689,1480 L 9715,1480 L 9715,1310 L 9689,1310 L 9689,1030 Z" /><path d="M 8650,1030 L 8650,890 L 8650,770 L 8650,630 L 8590,630 L 8590,770 L 8590,890 L 8590,1030 L 8590,1120 L 8565,1120 L 8565,1290 L 8675,1290 L 8675,1120 L 8650,1120 Z" /><path d="M 8390,890 L 8390,770 L 8390,630 L 8330,630 L 8330,770 L 8330,890 L 8330,1030 L 8330,1310 L 8305,1310 L 8305,1480 L 8330,1480 L 8330,2340 L 8330,2480 L 8330,2600 L 8330,2740 L 8390,2740 L 8390,2600 L 8390,2480 L 8390,2340 L 8390,1480 L 8415,1480 L 8415,1310 L 8390,1310 L 8390,1030 Z" /><path d="M 6830,1030 L 6830,890 L 6830,770 L 6830,630 L 6770,630 L 6770,770 L 6770,890 L 6770,1030 L 6770,1120 L 6745,1120 L 6745,1290 L 6855,1290 L 6855,1120 L 6830,1120 Z" /><path d="M 6570,890 L 6570,770 L 6570,630 L 6510,630 L 6510,770 L 6510,890 L 6510,1030 L 6510,1310 L 6485,1310 L 6485,1480 L 6510,1480 L 6510,2340 L 6510,2480 L 6510,2600 L 6510,2740 L 6570,2740 L 6570,2600 L 6570,2480 L 6570,2340 L 6570,1480 L 6595,1480 L 6595,1310 L 6570,1310 L 6570,1030 Z" /><path d="M 4230,1030 L 4230,890 L 4230,770 L 4230,630 L 4170,630 L 4170,770 L 4170,890 L 4170,1030 L 4170,1120 L 4145,1120 L 4145,1290 L 4255,1290 L 4255,1120 L 4230,1120 Z" /><path d="M 3970,1030 L 3970,890 L 3970,770 L 3970,630 L 3910,630 L 3910,770 L 3910,890 L 3910,1030 L 3910,1310 L 3885,1310 L 3885,1480 L 3910,1480 L 3910,2340 L 3910,2480 L 3910,2600 L 3910,2740 L 3970,2740 L 3970,2600 L 3970,2480 L 3970,2340 L 3969,2340 L 3969,1480 L 3995,1480 L 3995,1310 L 3969,1310 L 3969,1030 Z" /><path d="M 2150,890 L 2150,770 L 2150,630 L 2090,630 L 2090,770 L 2090,890 L 2090,1030 L 2090,1310 L 2065,1310 L 2065,1480 L 2090,1480 L 2090,2340 L 2090,2480 L 2090,2600 L 2090,2740 L 2150,2740 L 2150,2600 L 2150,2480 L 2150,2340 L 2150,1480 L 2175,1480 L 2175,1310 L 2150,1310 L 2150,1030 Z" /><path d="M 2410,1030 L 2410,890 L 2410,770 L 2410,630 L 2350,630 L 2350,770 L 2350,890 L 2350,1030 L 2350,1120 L 2325,1120 L 2325,1290 L 2435,1290 L 2435,1120 L 2410,1120 Z" /><path d="M 2350,2340 L 2350,2480 L 2350,2600 L 2350,2740 L 2410,2740 L 2410,2600 L 2410,2480 L 2410,2340 L 2410,2245 L 2435,2245 L 2435,2075 L 2325,2075 L 2325,2245 L 2350,2245 Z" /><path d="M 3130,2340 L 3130,2480 L 3130,2600 L 3130,2740 L 3190,2740 L 3190,2600 L 3190,2480 L 3190,2340 L 3190,2055 L 3215,2055 L 3215,1885 L 3105,1885 L 3105,2055 L 3130,2055 Z" /><path d="M 4170,2340 L 4170,2480 L 4170,2600 L 4170,2740 L 4230,2740 L 4230,2600 L 4230,2480 L 4230,2340 L 4230,2245 L 4255,2245 L 4255,2075 L 4145,2075 L 4145,2245 L 4170,2245 Z" /><path d="M 4950,2340 L 4950,2480 L 4950,2600 L 4950,2740 L 5010,2740 L 5010,2600 L 5010,2480 L 5010,2340 L 5009,2340 L 5009,2245 L 5035,2245 L 5035,2075 L 4925,2075 L 4925,2245 L 4950,2245 Z" /><path d="M 6770,2340 L 6770,2480 L 6770,2600 L 6770,2740 L 6830,2740 L 6830,2600 L 6830,2480 L 6830,2340 L 6830,2245 L 6855,2245 L 6855,2075 L 6745,2075 L 6745,2245 L 6770,2245 Z" /><path d="M 7550,2340 L 7550,2480 L 7550,2600 L 7550,2740 L 7610,2740 L 7610,2600 L 7610,2480 L 7610,2340 L 7610,2245 L 7635,2245 L 7635,2075 L 7525,2075 L 7525,2245 L 7550,2245 Z" /><path d="M 8590,2340 L 8590,2480 L 8590,2600 L 8590,2740 L 8650,2740 L 8650,2600 L 8650,2480 L 8650,2340 L 8650,2055 L 8675,2055 L 8675,1885 L 8565,1885 L 8565,2055 L 8590,2055 Z" /><path d="M 9370,2340 L 9370,2480 L 9370,2600 L 9370,2740 L 9430,2740 L 9430,2600 L 9430,2480 L 9430,2340 L 9430,2245 L 9455,2245 L 9455,2075 L 9345,2075 L 9345,2245 L 9370,2245 Z" /><path d="M 5990,2480 L 5990,2600 L 5990,2740 L 6050,2740 L 6050,2600 L 6050,2480 L 6050,2340 L 6050,1485 L 6075,1485 L 6075,1315 L 6050,1315 L 6050,1030 L 6050,890 L 6050,770 L 6050,630 L 5990,630 L 5990,770 L 5990,890 L 5990,1030 L 5990,1315 L 5965,1315 L 5965,1485 L 5990,1485 L 5990,2340 Z" /><path d="M 5790,890 L 5790,770 L 5790,630 L 5730,630 L 5730,770 L 5730,890 L 5730,1030 L 5730,1885 L 5705,1885 L 5705,2055 L 5730,2055 L 5730,2340 L 5730,2480 L 5730,2600 L 5730,2740 L 5790,2740 L 5790,2600 L 5790,2480 L 5790,2340 L 5790,2055 L 5815,2055 L 5815,1885 L 5790,1885 L 5790,1030 Z" /><path d="M 4750,890 L 4750,770 L 4750,630 L 4690,630 L 4690,770 L 4690,890 L 4690,1030 L 4690,1695 L 4665,1695 L 4665,1865 L 4690,1865 L 4690,2340 L 4690,2480 L 4690,2600 L 4690,2740 L 4750,2740 L 4750,2600 L 4750,2480 L 4750,2340 L 4750,1865 L 4775,1865 L 4775,1695 L 4750,1695 L 4750,1030 Z" /><path d="M 4430,2480 L 4430,2600 L 4430,2740 L 4490,2740 L 4490,2600 L 4490,2480 L 4490,2340 L 4489,2340 L 4489,1865 L 4515,1865 L 4515,1695 L 4489,1695 L 4489,1030 L 4490,1030 L 4490,890 L 4490,770 L 4490,630 L 4430,630 L 4430,770 L 4430,890 L 4430,1030 L 4430,1695 L 4405,1695 L 4405,1865 L 4430,1865 L 4430,2340 Z" /><path d="M 2870,2480 L 2870,2600 L 2870,2740 L 2930,2740 L 2930,2600 L 2930,2480 L 2930,2340 L 2930,1865 L 2955,1865 L 2955,1695 L 2930,1695 L 2930,1030 L 2930,890 L 2930,770 L 2930,630 L 2870,630 L 2870,770 L 2870,890 L 2870,1030 L 2870,1695 L 2845,1695 L 2845,1865 L 2870,1865 L 2870,2340 Z" /><path d="M 2670,890 L 2670,770 L 2670,630 L 2610,630 L 2610,770 L 2610,890 L 2610,1030 L 2610,1695 L 2585,1695 L 2585,1865 L 2610,1865 L 2610,2340 L 2610,2480 L 2610,2600 L 2610,2740 L 2670,2740 L 2670,2600 L 2670,2480 L 2670,2340 L 2670,1865 L 2695,1865 L 2695,1695 L 2670,1695 L 2670,1030 Z" /><path d="M 7090,890 L 7090,770 L 7090,630 L 7030,630 L 7030,770 L 7030,890 L 7030,1030 L 7030,1505 L 7005,1505 L 7005,1675 L 7030,1675 L 7030,2340 L 7030,2480 L 7030,2600 L 7030,2740 L 7090,2740 L 7090,2600 L 7090,2480 L 7090,2340 L 7090,1675 L 7115,1675 L 7115,1505 L 7090,1505 L 7090,1030 Z" /><path d="M 7290,2340 L 7290,2480 L 7290,2600 L 7290,2740 L 7350,2740 L 7350,2600 L 7350,2480 L 7350,2340 L 7350,1675 L 7375,1675 L 7375,1505 L 7350,1505 L 7350,1030 L 7350,890 L 7350,770 L 7350,630 L 7290,630 L 7290,770 L 7290,890 L 7290,1030 L 7289,1030 L 7289,1505 L 7265,1505 L 7265,1675 L 7289,1675 L 7289,2340 Z" /><path d="M 8850,2480 L 8850,2600 L 8850,2740 L 8910,2740 L 8910,2600 L 8910,2480 L 8910,2340 L 8910,1675 L 8935,1675 L 8935,1505 L 8910,1505 L 8910,1030 L 8910,890 L 8910,770 L 8910,630 L 8850,630 L 8850,770 L 8850,890 L 8850,1030 L 8850,1505 L 8825,1505 L 8825,1675 L 8850,1675 L 8850,2340 Z" /><path d="M 9170,890 L 9170,770 L 9170,630 L 9110,630 L 9110,770 L 9110,890 L 9110,1030 L 9110,1505 L 9085,1505 L 9085,1675 L 9110,1675 L 9110,2340 L 9110,2480 L 9110,2600 L 9110,2740 L 9170,2740 L 9170,2600 L 9170,2480 L 9170,2340 L 9170,1675 L 9195,1675 L 9195,1505 L 9170,1505 L 9170,1030 Z" /><path d="M 10410,2120 L 10410,2600 L 10410,2740 L 10470,2740 L 10470,2600 L 10470,2120 L 10470,1980 L 10469,1980 L 10469,1865 L 10495,1865 L 10495,1695 L 10469,1695 L 10469,1390 L 10470,1390 L 10470,1250 L 10470,770 L 10470,630 L 10410,630 L 10410,770 L 10410,1250 L 10410,1390 L 10410,1695 L 10385,1695 L 10385,1865 L 10410,1865 L 10410,1980 Z" /><path d="M 10150,2120 L 10150,2600 L 10150,2740 L 10210,2740 L 10210,2600 L 10210,2120 L 10210,1980 L 10209,1980 L 10209,1675 L 10235,1675 L 10235,1505 L 10209,1505 L 10209,1390 L 10210,1390 L 10210,1250 L 10210,770 L 10210,630 L 10150,630 L 10150,770 L 10150,1250 L 10150,1390 L 10150,1505 L 10125,1505 L 10125,1675 L 10150,1675 L 10150,1980 Z" /><path d="M 10930,2480 L 10930,2600 L 10930,2740 L 10990,2740 L 10990,2600 L 10990,2480 L 10990,2340 L 10990,1865 L 11015,1865 L 11015,1695 L 10990,1695 L 10990,1030 L 10990,890 L 10990,770 L 10990,630 L 10930,630 L 10930,770 L 10930,890 L 10930,1030 L 10930,1695 L 10905,1695 L 10905,1865 L 10930,1865 L 10930,2340 Z" /><path d="M 11190,2480 L 11190,2600 L 11190,2740 L 11250,2740 L 11250,2600 L 11250,2480 L 11250,2340 L 11250,1675 L 11275,1675 L 11275,1505 L 11250,1505 L 11250,1030 L 11250,890 L 11250,770 L 11250,630 L 11190,630 L 11190,770 L 11190,890 L 11190,1030 L 11190,1505 L 11165,1505 L 11165,1675 L 11190,1675 L 11190,2340 Z" /><path d="M 590,1030 L 590,890 L 590,770 L 590,630 L 530,630 L 530,770 L 530,890 L 530,1030 L 530,1120 L 505,1120 L 505,1290 L 615,1290 L 615,1120 L 590,1120 Z" /><path d="M 850,1030 L 850,890 L 850,770 L 850,630 L 790,630 L 790,770 L 790,890 L 790,1030 L 790,1505 L 765,1505 L 765,1675 L 875,1675 L 875,1505 L 850,1505 Z" /><path d="M 1310,2340 L 1310,2480 L 1310,2600 L 1310,2740 L 1370,2740 L 1370,2600 L 1370,2480 L 1370,2340 L 1370,2055 L 1395,2055 L 1395,1885 L 1285,1885 L 1285,2055 L 1310,2055 Z" /><path d="M 1570,2340 L 1570,2480 L 1570,2600 L 1570,2740 L 1630,2740 L 1630,2600 L 1630,2480 L 1630,2340 L 1630,2245 L 1655,2245 L 1655,2075 L 1545,2075 L 1545,2245 L 1570,2245 Z" /><path d="M 1370,1150 L 1370,1010 L 1370,770 L 1370,630 L 1310,630 L 1310,770 L 1310,1010 L 1310,1150 L 1310,1310 L 1285,1310 L 1285,1480 L 1395,1480 L 1395,1310 L 1370,1310 Z" /><path d="M 1630,1150 L 1630,1010 L 1630,770 L 1630,630 L 1570,630 L 1570,770 L 1570,1010 L 1570,1150 L 1570,1695 L 1545,1695 L 1545,1865 L 1655,1865 L 1655,1695 L 1630,1695 Z" /></g></g><g id="CO"><g class="l30d0"><path d="M 10525,3110 L 10615,3110 L 10615,3200 L 10525,3200 Z" /><path d="M 10525,170 L 10615,170 L 10615,260 L 10525,260 Z" /><path d="M 10265,3110 L 10355,3110 L 10355,3200 L 10265,3200 Z" /><path d="M 10265,170 L 10355,170 L 10355,260 L 10265,260 Z" /><path d="M 10005,3110 L 10095,3110 L 10095,3200 L 10005,3200 Z" /><path d="M 10005,170 L 10095,170 L 10095,260 L 10005,260 Z" /><path d="M 10525,2150 L 10615,2150 L 10615,2240 L 10525,2240 Z" /><path d="M 10005,2150 L 10095,2150 L 10095,2240 L 10005,2240 Z" /><path d="M 10005,2480 L 10095,2480 L 10095,2570 L 10005,2570 Z" /><path d="M 10265,2150 L 10355,2150 L 10355,2240 L 10265,2240 Z" /><path d="M 10265,2480 L 10355,2480 L 10355,2570 L 10265,2570 Z" /><path d="M 10005,1130 L 10095,1130 L 10095,1220 L 10005,1220 Z" /><path d="M 10005,800 L 10095,800 L 10095,890 L 10005,890 Z" /><path d="M 10265,1130 L 10355,1130 L 10355,1220 L 10265,1220 Z" /><path d="M 10265,800 L 10355,800 L 10355,890 L 10265,890 Z" /><path d="M 10525,800 L 10615,800 L 10615,890 L 10525,890 Z" /><path d="M 10525,1130 L 10615,1130 L 10615,1220 L 10525,1220 Z" /><path d="M 10525,2480 L 10615,2480 L 10615,2570 L 10525,2570 Z" /><path d="M 1425,3110 L 1515,3110 L 1515,3200 L 1425,3200 Z" /><path d="M 1165,3110 L 1255,3110 L 1255,3200 L 1165,3200 Z" /><path d="M 905,3110 L 995,3110 L 995,3200 L 905,3200 Z" /><path d="M 645,3110 L 735,3110 L 735,3200 L 645,3200 Z" /><path d="M 385,3110 L 475,3110 L 475,3200 L 385,3200 Z" /><path d="M 1425,170 L 1515,170 L 1515,260 L 1425,260 Z" /><path d="M 1165,170 L 1255,170 L 1255,260 L 1165,260 Z" /><path d="M 905,170 L 995,170 L 995,260 L 905,260 Z" /><path d="M 645,170 L 735,170 L 735,260 L 645,260 Z" /><path d="M 385,170 L 475,170 L 475,260 L 385,260 Z" /><path d="M 1165,2495 L 1255,2495 L 1255,2585 L 1165,2585 Z" /><path d="M 1425,2495 L 1515,2495 L 1515,2585 L 1425,2585 Z" /><path d="M 1685,2495 L 1775,2495 L 1775,2585 L 1685,2585 Z" /><path d="M 1685,845 L 1775,845 L 1775,935 L 1685,935 Z" /><path d="M 905,785 L 995,785 L 995,875 L 905,875 Z" /><path d="M 645,785 L 735,785 L 735,875 L 645,875 Z" /><path d="M 385,785 L 475,785 L 475,875 L 385,875 Z" /><path d="M 10785,3110 L 10875,3110 L 10875,3200 L 10785,3200 Z" /><path d="M 11045,3110 L 11135,3110 L 11135,3200 L 11045,3200 Z" /><path d="M 11305,3110 L 11395,3110 L 11395,3200 L 11305,3200 Z" /><path d="M 10785,170 L 10875,170 L 10875,260 L 10785,260 Z" /><path d="M 11045,170 L 11135,170 L 11135,260 L 11045,260 Z" /><path d="M 11305,170 L 11395,170 L 11395,260 L 11305,260 Z" /><path d="M 10785,2495 L 10875,2495 L 10875,2585 L 10785,2585 Z" /><path d="M 11045,2495 L 11135,2495 L 11135,2585 L 11045,2585 Z" /><path d="M 11305,2495 L 11395,2495 L 11395,2585 L 11305,2585 Z" /><path d="M 10785,785 L 10875,785 L 10875,875 L 10785,875 Z" /><path d="M 11045,785 L 11135,785 L 11135,875 L 11045,875 Z" /><path d="M 11305,785 L 11395,785 L 11395,875 L 11305,875 Z" /><path d="M 1165,845 L 1255,845 L 1255,935 L 1165,935 Z" /><path d="M 1685,170 L 1775,170 L 1775,260 L 1685,260 Z" /><path d="M 1685,3110 L 1775,3110 L 1775,3200 L 1685,3200 Z" /><path d="M 7405,170 L 7495,170 L 7495,260 L 7405,260 Z" /><path d="M 7145,170 L 7235,170 L 7235,260 L 7145,260 Z" /><path d="M 6885,170 L 6975,170 L 6975,260 L 6885,260 Z" /><path d="M 6625,170 L 6715,170 L 6715,260 L 6625,260 Z" /><path d="M 6365,170 L 6455,170 L 6455,260 L 6365,260 Z" /><path d="M 6105,170 L 6195,170 L 6195,260 L 6105,260 Z" /><path d="M 5845,170 L 5935,170 L 5935,260 L 5845,260 Z" /><path d="M 5585,170 L 5675,170 L 5675,260 L 5585,260 Z" /><path d="M 5325,170 L 5415,170 L 5415,260 L 5325,260 Z" /><path d="M 5065,170 L 5155,170 L 5155,260 L 5065,260 Z" /><path d="M 4805,170 L 4895,170 L 4895,260 L 4805,260 Z" /><path d="M 4545,170 L 4635,170 L 4635,260 L 4545,260 Z" /><path d="M 4285,170 L 4375,170 L 4375,260 L 4285,260 Z" /><path d="M 4025,170 L 4115,170 L 4115,260 L 4025,260 Z" /><path d="M 3765,170 L 3855,170 L 3855,260 L 3765,260 Z" /><path d="M 3505,170 L 3595,170 L 3595,260 L 3505,260 Z" /><path d="M 3245,170 L 3335,170 L 3335,260 L 3245,260 Z" /><path d="M 2985,170 L 3075,170 L 3075,260 L 2985,260 Z" /><path d="M 2725,170 L 2815,170 L 2815,260 L 2725,260 Z" /><path d="M 2465,170 L 2555,170 L 2555,260 L 2465,260 Z" /><path d="M 2205,170 L 2295,170 L 2295,260 L 2205,260 Z" /><path d="M 1945,170 L 2035,170 L 2035,260 L 1945,260 Z" /><path d="M 9745,170 L 9835,170 L 9835,260 L 9745,260 Z" /><path d="M 9485,170 L 9575,170 L 9575,260 L 9485,260 Z" /><path d="M 9225,170 L 9315,170 L 9315,260 L 9225,260 Z" /><path d="M 8965,170 L 9055,170 L 9055,260 L 8965,260 Z" /><path d="M 8705,170 L 8795,170 L 8795,260 L 8705,260 Z" /><path d="M 8445,170 L 8535,170 L 8535,260 L 8445,260 Z" /><path d="M 8185,170 L 8275,170 L 8275,260 L 8185,260 Z" /><path d="M 7925,170 L 8015,170 L 8015,260 L 7925,260 Z" /><path d="M 7665,170 L 7755,170 L 7755,260 L 7665,260 Z" /><path d="M 1945,3110 L 2035,3110 L 2035,3200 L 1945,3200 Z" /><path d="M 2205,3110 L 2295,3110 L 2295,3200 L 2205,3200 Z" /><path d="M 2465,3110 L 2555,3110 L 2555,3200 L 2465,3200 Z" /><path d="M 2725,3110 L 2815,3110 L 2815,3200 L 2725,3200 Z" /><path d="M 2985,3110 L 3075,3110 L 3075,3200 L 2985,3200 Z" /><path d="M 3245,3110 L 3335,3110 L 3335,3200 L 3245,3200 Z" /><path d="M 3505,3110 L 3595,3110 L 3595,3200 L 3505,3200 Z" /><path d="M 3765,3110 L 3855,3110 L 3855,3200 L 3765,3200 Z" /><path d="M 4025,3110 L 4115,3110 L 4115,3200 L 4025,3200 Z" /><path d="M 4285,3110 L 4375,3110 L 4375,3200 L 4285,3200 Z" /><path d="M 4545,3110 L 4635,3110 L 4635,3200 L 4545,3200 Z" /><path d="M 4805,3110 L 4895,3110 L 4895,3200 L 4805,3200 Z" /><path d="M 5065,3110 L 5155,3110 L 5155,3200 L 5065,3200 Z" /><path d="M 5325,3110 L 5415,3110 L 5415,3200 L 5325,3200 Z" /><path d="M 5585,3110 L 5675,3110 L 5675,3200 L 5585,3200 Z" /><path d="M 5845,3110 L 5935,3110 L 5935,3200 L 5845,3200 Z" /><path d="M 6105,3110 L 6195,3110 L 6195,3200 L 6105,3200 Z" /><path d="M 6365,3110 L 6455,3110 L 6455,3200 L 6365,3200 Z" /><path d="M 6625,3110 L 6715,3110 L 6715,3200 L 6625,3200 Z" /><path d="M 6885,3110 L 6975,3110 L 6975,3200 L 6885,3200 Z" /><path d="M 7145,3110 L 7235,3110 L 7235,3200 L 7145,3200 Z" /><path d="M 7405,3110 L 7495,3110 L 7495,3200 L 7405,3200 Z" /><path d="M 7665,3110 L 7755,3110 L 7755,3200 L 7665,3200 Z" /><path d="M 7925,3110 L 8015,3110 L 8015,3200 L 7925,3200 Z" /><path d="M 8185,3110 L 8275,3110 L 8275,3200 L 8185,3200 Z" /><path d="M 8445,3110 L 8535,3110 L 8535,3200 L 8445,3200 Z" /><path d="M 8705,3110 L 8795,3110 L 8795,3200 L 8705,3200 Z" /><path d="M 8965,3110 L 9055,3110 L 9055,3200 L 8965,3200 Z" /><path d="M 9225,3110 L 9315,3110 L 9315,3200 L 9225,3200 Z" /><path d="M 9485,3110 L 9575,3110 L 9575,3200 L 9485,3200 Z" /><path d="M 9745,3110 L 9835,3110 L 9835,3200 L 9745,3200 Z" /><path d="M 5845,785 L 5935,785 L 5935,875 L 5845,875 Z" /><path d="M 6105,785 L 6195,785 L 6195,875 L 6105,875 Z" /><path d="M 5585,785 L 5675,785 L 5675,875 L 5585,875 Z" /><path d="M 5845,2495 L 5935,2495 L 5935,2585 L 5845,2585 Z" /><path d="M 6105,2495 L 6195,2495 L 6195,2585 L 6105,2585 Z" /><path d="M 5585,2495 L 5675,2495 L 5675,2585 L 5585,2585 Z" /><path d="M 9745,2495 L 9835,2495 L 9835,2585 L 9745,2585 Z" /><path d="M 9485,2495 L 9575,2495 L 9575,2585 L 9485,2585 Z" /><path d="M 8965,2495 L 9055,2495 L 9055,2585 L 8965,2585 Z" /><path d="M 8445,2495 L 8535,2495 L 8535,2585 L 8445,2585 Z" /><path d="M 8185,2495 L 8275,2495 L 8275,2585 L 8185,2585 Z" /><path d="M 9745,785 L 9835,785 L 9835,875 L 9745,875 Z" /><path d="M 9485,785 L 9575,785 L 9575,875 L 9485,875 Z" /><path d="M 8965,785 L 9055,785 L 9055,875 L 8965,875 Z" /><path d="M 8445,785 L 8535,785 L 8535,875 L 8445,875 Z" /><path d="M 8185,785 L 8275,785 L 8275,875 L 8185,875 Z" /><path d="M 7925,785 L 8015,785 L 8015,875 L 7925,875 Z" /><path d="M 7665,785 L 7755,785 L 7755,875 L 7665,875 Z" /><path d="M 7145,785 L 7235,785 L 7235,875 L 7145,875 Z" /><path d="M 6625,785 L 6715,785 L 6715,875 L 6625,875 Z" /><path d="M 6365,785 L 6455,785 L 6455,875 L 6365,875 Z" /><path d="M 7925,2495 L 8015,2495 L 8015,2585 L 7925,2585 Z" /><path d="M 7665,2495 L 7755,2495 L 7755,2585 L 7665,2585 Z" /><path d="M 7145,2495 L 7235,2495 L 7235,2585 L 7145,2585 Z" /><path d="M 6625,2495 L 6715,2495 L 6715,2585 L 6625,2585 Z" /><path d="M 6365,2495 L 6455,2495 L 6455,2585 L 6365,2585 Z" /><path d="M 5325,2495 L 5415,2495 L 5415,2585 L 5325,2585 Z" /><path d="M 5065,2495 L 5155,2495 L 5155,2585 L 5065,2585 Z" /><path d="M 4545,2495 L 4635,2495 L 4635,2585 L 4545,2585 Z" /><path d="M 4025,2495 L 4115,2495 L 4115,2585 L 4025,2585 Z" /><path d="M 3765,2495 L 3855,2495 L 3855,2585 L 3765,2585 Z" /><path d="M 5325,785 L 5415,785 L 5415,875 L 5325,875 Z" /><path d="M 5065,785 L 5155,785 L 5155,875 L 5065,875 Z" /><path d="M 4545,785 L 4635,785 L 4635,875 L 4545,875 Z" /><path d="M 4025,785 L 4115,785 L 4115,875 L 4025,875 Z" /><path d="M 3765,785 L 3855,785 L 3855,875 L 3765,875 Z" /><path d="M 3505,785 L 3595,785 L 3595,875 L 3505,875 Z" /><path d="M 3245,785 L 3335,785 L 3335,875 L 3245,875 Z" /><path d="M 2725,785 L 2815,785 L 2815,875 L 2725,875 Z" /><path d="M 2205,785 L 2295,785 L 2295,875 L 2205,875 Z" /><path d="M 1945,785 L 2035,785 L 2035,875 L 1945,875 Z" /><path d="M 3505,2495 L 3595,2495 L 3595,2585 L 3505,2585 Z" /><path d="M 3245,2495 L 3335,2495 L 3335,2585 L 3245,2585 Z" /><path d="M 2725,2495 L 2815,2495 L 2815,2585 L 2725,2585 Z" /><path d="M 2205,2495 L 2295,2495 L 2295,2585 L 2205,2585 Z" /><path d="M 1945,2495 L 2035,2495 L 2035,2585 L 1945,2585 Z" /><path d="M 3205,1160 L 3115,1160 L 3115,1250 L 3205,1250 Z" /><path d="M 3465,1350 L 3375,1350 L 3375,1440 L 3465,1440 Z" /><path d="M 5025,1160 L 4935,1160 L 4935,1250 L 5025,1250 Z" /><path d="M 5285,1350 L 5195,1350 L 5195,1440 L 5285,1440 Z" /><path d="M 7625,1160 L 7535,1160 L 7535,1250 L 7625,1250 Z" /><path d="M 7885,1350 L 7795,1350 L 7795,1440 L 7885,1440 Z" /><path d="M 9445,1160 L 9355,1160 L 9355,1250 L 9445,1250 Z" /><path d="M 9705,1350 L 9615,1350 L 9615,1440 L 9705,1440 Z" /><path d="M 8575,1160 L 8665,1160 L 8665,1250 L 8575,1250 Z" /><path d="M 8315,1350 L 8405,1350 L 8405,1440 L 8315,1440 Z" /><path d="M 6755,1160 L 6845,1160 L 6845,1250 L 6755,1250 Z" /><path d="M 6495,1350 L 6585,1350 L 6585,1440 L 6495,1440 Z" /><path d="M 4155,1160 L 4245,1160 L 4245,1250 L 4155,1250 Z" /><path d="M 3895,1350 L 3985,1350 L 3985,1440 L 3895,1440 Z" /><path d="M 2075,1350 L 2165,1350 L 2165,1440 L 2075,1440 Z" /><path d="M 2335,1160 L 2425,1160 L 2425,1250 L 2335,1250 Z" /><path d="M 2335,2115 L 2425,2115 L 2425,2205 L 2335,2205 Z" /><path d="M 3115,1925 L 3205,1925 L 3205,2015 L 3115,2015 Z" /><path d="M 4155,2115 L 4245,2115 L 4245,2205 L 4155,2205 Z" /><path d="M 4935,2115 L 5025,2115 L 5025,2205 L 4935,2205 Z" /><path d="M 6755,2115 L 6845,2115 L 6845,2205 L 6755,2205 Z" /><path d="M 7535,2115 L 7625,2115 L 7625,2205 L 7535,2205 Z" /><path d="M 8575,1925 L 8665,1925 L 8665,2015 L 8575,2015 Z" /><path d="M 9355,2115 L 9445,2115 L 9445,2205 L 9355,2205 Z" /><path d="M 5975,1355 L 6065,1355 L 6065,1445 L 5975,1445 Z" /><path d="M 5715,1925 L 5805,1925 L 5805,2015 L 5715,2015 Z" /><path d="M 4675,1735 L 4765,1735 L 4765,1825 L 4675,1825 Z" /><path d="M 4415,1735 L 4505,1735 L 4505,1825 L 4415,1825 Z" /><path d="M 2855,1735 L 2945,1735 L 2945,1825 L 2855,1825 Z" /><path d="M 2595,1735 L 2685,1735 L 2685,1825 L 2595,1825 Z" /><path d="M 7015,1545 L 7105,1545 L 7105,1635 L 7015,1635 Z" /><path d="M 7275,1545 L 7365,1545 L 7365,1635 L 7275,1635 Z" /><path d="M 8835,1545 L 8925,1545 L 8925,1635 L 8835,1635 Z" /><path d="M 9095,1545 L 9185,1545 L 9185,1635 L 9095,1635 Z" /><path d="M 10395,1735 L 10485,1735 L 10485,1825 L 10395,1825 Z" /><path d="M 10135,1545 L 10225,1545 L 10225,1635 L 10135,1635 Z" /><path d="M 10915,1735 L 11005,1735 L 11005,1825 L 10915,1825 Z" /><path d="M 11175,1545 L 11265,1545 L 11265,1635 L 11175,1635 Z" /><path d="M 515,1160 L 605,1160 L 605,1250 L 515,1250 Z" /><path d="M 775,1545 L 865,1545 L 865,1635 L 775,1635 Z" /><path d="M 1295,1925 L 1385,1925 L 1385,2015 L 1295,2015 Z" /><path d="M 1555,2115 L 1645,2115 L 1645,2205 L 1555,2205 Z" /><path d="M 1295,1350 L 1385,1350 L 1385,1440 L 1295,1440 Z" /><path d="M 1555,1735 L 1645,1735 L 1645,1825 L 1555,1825 Z" /></g></g><g id="M1"><g class="l31d0"><path d="M 11490,3250 L 11490,3060 L 11140,3060 L 11140,2625 L 11140,2455 L 11040,2455 L 11040,2625 L 11040,3060 L 10710,3060 L 10360,3060 L 10360,2245 L 10360,2110 L 10260,2110 L 10260,2245 L 10260,3060 L 9930,3060 L 9580,3060 L 9580,2625 L 9580,2455 L 9480,2455 L 9480,2625 L 9480,3060 L 8539,3060 L 8539,2625 L 8540,2625 L 8540,2455 L 8440,2455 L 8440,2625 L 8440,3060 L 7760,3060 L 7760,2625 L 7760,2455 L 7660,2455 L 7660,2625 L 7660,3060 L 6720,3060 L 6720,2625 L 6720,2455 L 6620,2455 L 6620,2625 L 6620,3060 L 5940,3060 L 5940,2625 L 5940,2455 L 5840,2455 L 5840,2625 L 5840,3060 L 5160,3060 L 5160,2625 L 5160,2455 L 5060,2455 L 5060,2625 L 5060,3060 L 4120,3060 L 4120,2625 L 4120,2455 L 4020,2455 L 4020,2625 L 4020,3060 L 3340,3060 L 3340,2625 L 3340,2455 L 3240,2455 L 3240,2625 L 3240,3060 L 2300,3060 L 2300,2625 L 2300,2455 L 2200,2455 L 2200,2625 L 2200,3060 L 1850,3060 L 1610,3060 L 1520,3060 L 1520,2625 L 1520,2455 L 1420,2455 L 1420,2625 L 1420,3060 L 290,3060 L 290,3250 L 1610,3250 L 1850,3250 L 9930,3250 L 10710,3250 Z" /><path d="M 380,915 L 480,915 L 480,745 L 480,310 L 900,310 L 900,745 L 900,915 L 1000,915 L 1000,745 L 1000,310 L 1160,310 L 1160,805 L 1160,975 L 1260,975 L 1260,805 L 1260,310 L 1610,310 L 1850,310 L 2200,310 L 2200,745 L 2200,915 L 2300,915 L 2300,745 L 2300,310 L 3240,310 L 3240,745 L 3240,915 L 3340,915 L 3340,745 L 3340,310 L 4020,310 L 4020,745 L 4020,915 L 4120,915 L 4120,745 L 4120,310 L 5060,310 L 5060,745 L 5060,915 L 5160,915 L 5160,745 L 5160,310 L 5840,310 L 5840,745 L 5840,915 L 5940,915 L 5940,745 L 5940,310 L 6620,310 L 6620,745 L 6620,915 L 6720,915 L 6720,745 L 6720,310 L 7660,310 L 7660,745 L 7660,915 L 7760,915 L 7760,745 L 7760,310 L 8440,310 L 8440,745 L 8440,915 L 8540,915 L 8540,745 L 8539,745 L 8539,310 L 9480,310 L 9480,745 L 9480,915 L 9580,915 L 9580,745 L 9580,310 L 9930,310 L 10260,310 L 10260,1125 L 10260,1260 L 10360,1260 L 10360,1125 L 10360,310 L 10710,310 L 11040,310 L 11040,745 L 11040,915 L 11140,915 L 11140,745 L 11140,310 L 11490,310 L 11490,120 L 10710,120 L 9930,120 L 1850,120 L 1610,120 L 290,120 L 290,310 L 380,310 L 380,745 Z" /><path d="M 6100,2450 L 6100,2455 L 6100,2625 L 6100,2630 L 6100,2870 L 6200,2870 L 6200,2630 L 6200,2625 L 6200,2455 L 6200,2450 Z" /><path d="M 6100,500 L 6100,740 L 6100,745 L 6100,915 L 6100,920 L 6200,920 L 6200,915 L 6200,745 L 6200,740 L 6200,500 Z" /><path d="M 5580,2450 L 5580,2455 L 5580,2625 L 5580,2630 L 5580,2870 L 5680,2870 L 5680,2630 L 5680,2625 L 5680,2455 L 5680,2450 Z" /><path d="M 5580,500 L 5580,740 L 5580,745 L 5580,915 L 5580,920 L 5680,920 L 5680,915 L 5680,745 L 5680,740 L 5680,500 Z" /><path d="M 9740,2450 L 9740,2455 L 9740,2625 L 9740,2630 L 9740,2870 L 9840,2870 L 9840,2630 L 9840,2625 L 9840,2455 L 9840,2450 Z" /><path d="M 8960,2450 L 8960,2455 L 8960,2625 L 8960,2630 L 8960,2870 L 9060,2870 L 9060,2630 L 9060,2625 L 9060,2455 L 9060,2450 Z" /><path d="M 8180,2450 L 8180,2455 L 8180,2625 L 8180,2630 L 8180,2870 L 8280,2870 L 8280,2630 L 8280,2625 L 8280,2455 L 8280,2450 Z" /><path d="M 9740,500 L 9740,740 L 9740,745 L 9740,915 L 9740,920 L 9840,920 L 9840,915 L 9840,745 L 9840,740 L 9840,500 Z" /><path d="M 8960,500 L 8960,740 L 8960,745 L 8960,915 L 8960,920 L 9060,920 L 9060,915 L 9060,745 L 9060,740 L 9060,500 Z" /><path d="M 8180,500 L 8180,740 L 8180,745 L 8180,915 L 8180,920 L 8280,920 L 8280,915 L 8280,745 L 8280,740 L 8280,500 Z" /><path d="M 7920,2450 L 7920,2455 L 7920,2625 L 7920,2630 L 7920,2870 L 8020,2870 L 8020,2630 L 8020,2625 L 8020,2455 L 8020,2450 Z" /><path d="M 7140,2450 L 7140,2455 L 7140,2625 L 7140,2630 L 7140,2870 L 7240,2870 L 7240,2630 L 7240,2625 L 7240,2455 L 7240,2450 Z" /><path d="M 6360,2450 L 6360,2455 L 6360,2625 L 6360,2630 L 6360,2870 L 6460,2870 L 6460,2630 L 6460,2625 L 6460,2455 L 6460,2450 Z" /><path d="M 7920,500 L 7920,740 L 7920,745 L 7920,915 L 7920,920 L 8020,920 L 8020,915 L 8020,745 L 8020,740 L 8020,500 Z" /><path d="M 7140,500 L 7140,740 L 7140,745 L 7140,915 L 7140,920 L 7240,920 L 7240,915 L 7240,745 L 7240,740 L 7240,500 Z" /><path d="M 6360,500 L 6360,740 L 6360,745 L 6360,915 L 6360,920 L 6460,920 L 6460,915 L 6460,745 L 6460,740 L 6460,500 Z" /><path d="M 5320,2450 L 5320,2455 L 5320,2625 L 5320,2630 L 5320,2870 L 5420,2870 L 5420,2630 L 5420,2625 L 5420,2455 L 5420,2450 Z" /><path d="M 4540,2450 L 4540,2455 L 4540,2625 L 4540,2630 L 4540,2870 L 4640,2870 L 4640,2630 L 4640,2625 L 4640,2455 L 4640,2450 Z" /><path d="M 3760,2450 L 3760,2455 L 3760,2625 L 3760,2630 L 3760,2870 L 3860,2870 L 3860,2630 L 3860,2625 L 3860,2455 L 3860,2450 Z" /><path d="M 5320,500 L 5320,740 L 5320,745 L 5320,915 L 5320,920 L 5420,920 L 5420,915 L 5420,745 L 5420,740 L 5420,500 Z" /><path d="M 4540,500 L 4540,740 L 4540,745 L 4540,915 L 4540,920 L 4640,920 L 4640,915 L 4640,745 L 4640,740 L 4640,500 Z" /><path d="M 3760,500 L 3760,740 L 3760,745 L 3760,915 L 3760,920 L 3860,920 L 3860,915 L 3860,745 L 3860,740 L 3860,500 Z" /><path d="M 3500,500 L 3500,740 L 3500,745 L 3500,915 L 3500,920 L 3600,920 L 3600,915 L 3600,745 L 3600,740 L 3600,500 Z" /><path d="M 2720,500 L 2720,740 L 2720,745 L 2720,915 L 2720,920 L 2820,920 L 2820,915 L 2820,745 L 2820,740 L 2820,500 Z" /><path d="M 1940,500 L 1940,740 L 1940,745 L 1940,915 L 1940,920 L 2040,920 L 2040,915 L 2040,745 L 2040,740 L 2040,500 Z" /><path d="M 3500,2450 L 3500,2455 L 3500,2625 L 3500,2630 L 3500,2870 L 3600,2870 L 3600,2630 L 3600,2625 L 3600,2455 L 3600,2450 Z" /><path d="M 2720,2450 L 2720,2455 L 2720,2625 L 2720,2630 L 2720,2870 L 2820,2870 L 2820,2630 L 2820,2625 L 2820,2455 L 2820,2450 Z" /><path d="M 1940,2450 L 1940,2455 L 1940,2625 L 1940,2630 L 1940,2870 L 2040,2870 L 2040,2630 L 2040,2625 L 2040,2455 L 2040,2450 Z" /><path d="M 2885,1255 L 2940,1255 L 3075,1255 L 3120,1255 L 3245,1255 L 3305,1255 L 3305,1155 L 3245,1155 L 3120,1155 L 3075,1155 L 2940,1155 L 2885,1155 Z" /><path d="M 3145,1445 L 3200,1445 L 3335,1445 L 3380,1445 L 3505,1445 L 3565,1445 L 3565,1345 L 3505,1345 L 3380,1345 L 3335,1345 L 3200,1345 L 3145,1345 Z" /><path d="M 4705,1255 L 4760,1255 L 4895,1255 L 4940,1255 L 5065,1255 L 5125,1255 L 5125,1155 L 5065,1155 L 4940,1155 L 4895,1155 L 4760,1155 L 4705,1155 Z" /><path d="M 4965,1445 L 5020,1445 L 5155,1445 L 5200,1445 L 5325,1445 L 5385,1445 L 5385,1345 L 5325,1345 L 5200,1345 L 5155,1345 L 5020,1345 L 4965,1345 Z" /><path d="M 7305,1255 L 7360,1255 L 7495,1255 L 7540,1255 L 7665,1255 L 7725,1255 L 7725,1155 L 7665,1155 L 7540,1155 L 7495,1155 L 7360,1155 L 7305,1155 Z" /><path d="M 7565,1445 L 7620,1445 L 7755,1445 L 7800,1445 L 7925,1445 L 7985,1445 L 7985,1345 L 7925,1345 L 7800,1345 L 7755,1345 L 7620,1345 L 7565,1345 Z" /><path d="M 9125,1255 L 9180,1255 L 9315,1255 L 9360,1255 L 9485,1255 L 9545,1255 L 9545,1155 L 9485,1155 L 9360,1155 L 9315,1155 L 9180,1155 L 9125,1155 Z" /><path d="M 9385,1445 L 9440,1445 L 9575,1445 L 9620,1445 L 9745,1445 L 9805,1445 L 9805,1345 L 9745,1345 L 9620,1345 L 9575,1345 L 9440,1345 L 9385,1345 Z" /><path d="M 8475,1255 L 8535,1255 L 8660,1255 L 8705,1255 L 8840,1255 L 8895,1255 L 8895,1155 L 8840,1155 L 8705,1155 L 8660,1155 L 8535,1155 L 8475,1155 Z" /><path d="M 8215,1445 L 8275,1445 L 8400,1445 L 8445,1445 L 8580,1445 L 8635,1445 L 8635,1345 L 8580,1345 L 8445,1345 L 8400,1345 L 8275,1345 L 8215,1345 Z" /><path d="M 6655,1255 L 6715,1255 L 6840,1255 L 6885,1255 L 7020,1255 L 7075,1255 L 7075,1155 L 7020,1155 L 6885,1155 L 6840,1155 L 6715,1155 L 6655,1155 Z" /><path d="M 6395,1445 L 6455,1445 L 6580,1445 L 6625,1445 L 6760,1445 L 6815,1445 L 6815,1345 L 6760,1345 L 6625,1345 L 6580,1345 L 6455,1345 L 6395,1345 Z" /><path d="M 4055,1255 L 4115,1255 L 4240,1255 L 4285,1255 L 4420,1255 L 4475,1255 L 4475,1155 L 4420,1155 L 4285,1155 L 4240,1155 L 4115,1155 L 4055,1155 Z" /><path d="M 3795,1445 L 3855,1445 L 3980,1445 L 4025,1445 L 4160,1445 L 4215,1445 L 4215,1345 L 4160,1345 L 4025,1345 L 3980,1345 L 3855,1345 L 3795,1345 Z" /><path d="M 1975,1445 L 2035,1445 L 2160,1445 L 2205,1445 L 2340,1445 L 2395,1445 L 2395,1345 L 2340,1345 L 2205,1345 L 2160,1345 L 2035,1345 L 1975,1345 Z" /><path d="M 2235,1255 L 2295,1255 L 2420,1255 L 2465,1255 L 2600,1255 L 2655,1255 L 2655,1155 L 2600,1155 L 2465,1155 L 2420,1155 L 2295,1155 L 2235,1155 Z" /><path d="M 2080,2110 L 1990,2110 L 1900,2110 L 1900,2210 L 1990,2210 L 2080,2210 L 2295,2210 L 2380,2210 L 2465,2210 L 2465,2110 L 2380,2110 L 2295,2110 Z" /><path d="M 3460,2020 L 3550,2020 L 3640,2020 L 3640,1920 L 3550,1920 L 3460,1920 L 3245,1920 L 3160,1920 L 3075,1920 L 3075,2020 L 3160,2020 L 3245,2020 Z" /><path d="M 3900,2110 L 3810,2110 L 3720,2110 L 3720,2210 L 3810,2210 L 3900,2210 L 4115,2210 L 4200,2210 L 4285,2210 L 4285,2110 L 4200,2110 L 4115,2110 Z" /><path d="M 5280,2210 L 5370,2210 L 5460,2210 L 5460,2110 L 5370,2110 L 5280,2110 L 5065,2110 L 4980,2110 L 4895,2110 L 4895,2210 L 4980,2210 L 5065,2210 Z" /><path d="M 6500,2110 L 6410,2110 L 6320,2110 L 6320,2210 L 6410,2210 L 6500,2210 L 6715,2210 L 6800,2210 L 6885,2210 L 6885,2110 L 6800,2110 L 6715,2110 Z" /><path d="M 7880,2210 L 7970,2210 L 8060,2210 L 8060,2110 L 7970,2110 L 7880,2110 L 7665,2110 L 7580,2110 L 7495,2110 L 7495,2210 L 7580,2210 L 7665,2210 Z" /><path d="M 8320,1920 L 8230,1920 L 8140,1920 L 8140,2020 L 8230,2020 L 8320,2020 L 8535,2020 L 8620,2020 L 8705,2020 L 8705,1920 L 8620,1920 L 8535,1920 Z" /><path d="M 9700,2210 L 9790,2210 L 9880,2210 L 9880,2110 L 9790,2110 L 9700,2110 L 9485,2110 L 9400,2110 L 9315,2110 L 9315,2210 L 9400,2210 L 9485,2210 Z" /><path d="M 5745,1450 L 5800,1450 L 5935,1450 L 5980,1450 L 6105,1450 L 6165,1450 L 6165,1350 L 6105,1350 L 5980,1350 L 5935,1350 L 5800,1350 L 5745,1350 Z" /><path d="M 5614,2020 L 5675,2020 L 5800,2020 L 5845,2020 L 5980,2020 L 6035,2020 L 6035,1920 L 5980,1920 L 5845,1920 L 5800,1920 L 5675,1920 L 5614,1920 Z" /><path d="M 10100,2610 L 10100,2475 L 10100,2450 L 10100,2270 L 10100,2245 L 10100,2110 L 10000,2110 L 10000,2245 L 10000,2270 L 10000,2450 L 10000,2475 L 10000,2610 Z" /><path d="M 10000,760 L 10000,895 L 10000,920 L 10000,1100 L 10000,1125 L 10000,1260 L 10100,1260 L 10100,1125 L 10100,1100 L 10100,920 L 10100,895 L 10100,760 Z" /><path d="M 10520,760 L 10520,895 L 10520,920 L 10520,1100 L 10520,1125 L 10520,1260 L 10620,1260 L 10620,1125 L 10620,1100 L 10620,920 L 10620,895 L 10620,760 Z" /><path d="M 10520,2110 L 10520,2245 L 10520,2270 L 10520,2450 L 10520,2475 L 10520,2610 L 10620,2610 L 10620,2475 L 10620,2450 L 10620,2270 L 10620,2245 L 10620,2110 Z" /><path d="M 10880,740 L 10880,500 L 10780,500 L 10780,740 L 10780,745 L 10780,915 L 10780,920 L 10880,920 L 10880,915 L 10880,745 Z" /><path d="M 11400,740 L 11400,500 L 11300,500 L 11300,740 L 11300,745 L 11300,915 L 11300,920 L 11400,920 L 11400,915 L 11400,745 Z" /><path d="M 11400,2450 L 11300,2450 L 11300,2455 L 11300,2625 L 11300,2630 L 11300,2870 L 11400,2870 L 11400,2630 L 11400,2625 L 11400,2455 Z" /><path d="M 10880,2450 L 10780,2450 L 10780,2455 L 10780,2625 L 10780,2630 L 10780,2870 L 10880,2870 L 10880,2630 L 10880,2625 L 10880,2455 Z" /><path d="M 740,740 L 740,500 L 640,500 L 640,740 L 640,745 L 640,915 L 640,920 L 740,920 L 740,915 L 740,745 Z" /><path d="M 1780,800 L 1780,560 L 1680,560 L 1680,800 L 1680,805 L 1680,975 L 1680,980 L 1780,980 L 1780,975 L 1780,805 Z" /><path d="M 1780,2450 L 1680,2450 L 1680,2455 L 1680,2625 L 1680,2630 L 1680,2870 L 1780,2870 L 1780,2630 L 1780,2625 L 1780,2455 Z" /><path d="M 1295,2490 L 1125,2490 L 780,2490 L 690,2490 L 600,2490 L 600,2590 L 690,2590 L 780,2590 L 1125,2590 L 1295,2590 Z" /><path d="M 2815,1830 L 2900,1830 L 2985,1830 L 4375,1830 L 4460,1830 L 4545,1830 L 4635,1830 L 4720,1830 L 4805,1830 L 6060,1830 L 6150,1830 L 6240,1830 L 7100,1830 L 7190,1830 L 7280,1830 L 8920,1830 L 9010,1830 L 9100,1830 L 10180,1830 L 10355,1830 L 10525,1830 L 10525,1730 L 10355,1730 L 10180,1730 L 9100,1730 L 9010,1730 L 8920,1730 L 7280,1730 L 7190,1730 L 7100,1730 L 6240,1730 L 6150,1730 L 6060,1730 L 4805,1730 L 4720,1730 L 4635,1730 L 4545,1730 L 4460,1730 L 4375,1730 L 2985,1730 L 2900,1730 L 2815,1730 L 2725,1730 L 2690,1730 L 2640,1730 L 2555,1730 L 2555,1830 L 2640,1830 L 2690,1830 L 2725,1830 Z" /><path d="M 10095,1640 L 10265,1640 L 10525,1640 L 10525,1540 L 10265,1540 L 10095,1540 L 9225,1540 L 9190,1540 L 9140,1540 L 9055,1540 L 8965,1540 L 8880,1540 L 8795,1540 L 7405,1540 L 7320,1540 L 7235,1540 L 7145,1540 L 7060,1540 L 6975,1540 L 5720,1540 L 5630,1540 L 5540,1540 L 4680,1540 L 4590,1540 L 4500,1540 L 2860,1540 L 2770,1540 L 2680,1540 L 1900,1540 L 1900,1640 L 2680,1640 L 2770,1640 L 2860,1640 L 4500,1640 L 4590,1640 L 4680,1640 L 5540,1640 L 5630,1640 L 5720,1640 L 6975,1640 L 7060,1640 L 7145,1640 L 7235,1640 L 7320,1640 L 7405,1640 L 8795,1640 L 8880,1640 L 8965,1640 L 9055,1640 L 9140,1640 L 9190,1640 L 9225,1640 Z" /><path d="M 10875,1830 L 11045,1830 L 11305,1830 L 11305,1730 L 11045,1730 L 10875,1730 L 10745,1730 L 10645,1730 L 10645,1830 L 10645,1920 L 10140,1920 L 10050,1920 L 9960,1920 L 9960,2020 L 10050,2020 L 10140,2020 L 10645,2020 L 10745,2020 L 10745,1920 L 10745,1830 Z" /><path d="M 11135,1540 L 10745,1540 L 10745,1450 L 10745,1350 L 10660,1350 L 10645,1350 L 10570,1350 L 10480,1350 L 10480,1450 L 10570,1450 L 10645,1450 L 10645,1540 L 10645,1640 L 10745,1640 L 11135,1640 L 11220,1640 L 11305,1640 L 11305,1540 L 11220,1540 Z" /><path d="M 385,1255 L 475,1255 L 560,1255 L 645,1255 L 905,1255 L 905,1155 L 645,1155 L 560,1155 L 475,1155 L 385,1155 Z" /><path d="M 735,1540 L 385,1540 L 385,1640 L 735,1640 L 820,1640 L 905,1640 L 905,1540 L 820,1540 Z" /><path d="M 1425,2020 L 1640,2020 L 1730,2020 L 1820,2020 L 1820,1920 L 1730,1920 L 1640,1920 L 1425,1920 L 1340,1920 L 1255,1920 L 1255,2020 L 1340,2020 Z" /><path d="M 1515,2110 L 780,2110 L 690,2110 L 600,2110 L 600,2210 L 690,2210 L 780,2210 L 1515,2210 L 1600,2210 L 1685,2210 L 1685,2110 L 1600,2110 Z" /><path d="M 385,1445 L 1080,1445 L 1255,1445 L 1425,1445 L 1425,1345 L 1255,1345 L 1080,1345 L 385,1345 Z" /><path d="M 1515,1730 L 385,1730 L 385,1830 L 1515,1830 L 1600,1830 L 1685,1830 L 1685,1730 L 1600,1730 Z" /></g></g><g id="VIA1"><g class="l51d0"><path d="M 6100,2490 L 6200,2490 L 6200,2590 L 6100,2590 Z" /><path d="M 6100,780 L 6200,780 L 6200,880 L 6100,880 Z" /><path d="M 5580,2490 L 5680,2490 L 5680,2590 L 5580,2590 Z" /><path d="M 5580,780 L 5680,780 L 5680,880 L 5580,880 Z" /><path d="M 9740,2490 L 9840,2490 L 9840,2590 L 9740,2590 Z" /><path d="M 8960,2490 L 9060,2490 L 9060,2590 L 8960,2590 Z" /><path d="M 8180,2490 L 8280,2490 L 8280,2590 L 8180,2590 Z" /><path d="M 9740,780 L 9840,780 L 9840,880 L 9740,880 Z" /><path d="M 8960,780 L 9060,780 L 9060,880 L 8960,880 Z" /><path d="M 8180,780 L 8280,780 L 8280,880 L 8180,880 Z" /><path d="M 7920,2490 L 8020,2490 L 8020,2590 L 7920,2590 Z" /><path d="M 7140,2490 L 7240,2490 L 7240,2590 L 7140,2590 Z" /><path d="M 6360,2490 L 6460,2490 L 6460,2590 L 6360,2590 Z" /><path d="M 7920,780 L 8020,780 L 8020,880 L 7920,880 Z" /><path d="M 7140,780 L 7240,780 L 7240,880 L 7140,880 Z" /><path d="M 6360,780 L 6460,780 L 6460,880 L 6360,880 Z" /><path d="M 5320,2490 L 5420,2490 L 5420,2590 L 5320,2590 Z" /><path d="M 4540,2490 L 4640,2490 L 4640,2590 L 4540,2590 Z" /><path d="M 3760,2490 L 3860,2490 L 3860,2590 L 3760,2590 Z" /><path d="M 5320,780 L 5420,780 L 5420,880 L 5320,880 Z" /><path d="M 4540,780 L 4640,780 L 4640,880 L 4540,880 Z" /><path d="M 3760,780 L 3860,780 L 3860,880 L 3760,880 Z" /><path d="M 3500,780 L 3600,780 L 3600,880 L 3500,880 Z" /><path d="M 2720,780 L 2820,780 L 2820,880 L 2720,880 Z" /><path d="M 1940,780 L 2040,780 L 2040,880 L 1940,880 Z" /><path d="M 3500,2490 L 3600,2490 L 3600,2590 L 3500,2590 Z" /><path d="M 2720,2490 L 2820,2490 L 2820,2590 L 2720,2590 Z" /><path d="M 1940,2490 L 2040,2490 L 2040,2590 L 1940,2590 Z" /><path d="M 3080,1155 L 2980,1155 L 2980,1255 L 3080,1255 Z" /><path d="M 3340,1345 L 3240,1345 L 3240,1445 L 3340,1445 Z" /><path d="M 4900,1155 L 4800,1155 L 4800,1255 L 4900,1255 Z" /><path d="M 5160,1345 L 5060,1345 L 5060,1445 L 5160,1445 Z" /><path d="M 7500,1155 L 7400,1155 L 7400,1255 L 7500,1255 Z" /><path d="M 7760,1345 L 7660,1345 L 7660,1445 L 7760,1445 Z" /><path d="M 9320,1155 L 9220,1155 L 9220,1255 L 9320,1255 Z" /><path d="M 9580,1345 L 9480,1345 L 9480,1445 L 9580,1445 Z" /><path d="M 8700,1155 L 8800,1155 L 8800,1255 L 8700,1255 Z" /><path d="M 8440,1345 L 8540,1345 L 8540,1445 L 8440,1445 Z" /><path d="M 6880,1155 L 6980,1155 L 6980,1255 L 6880,1255 Z" /><path d="M 6620,1345 L 6720,1345 L 6720,1445 L 6620,1445 Z" /><path d="M 4280,1155 L 4380,1155 L 4380,1255 L 4280,1255 Z" /><path d="M 4020,1345 L 4120,1345 L 4120,1445 L 4020,1445 Z" /><path d="M 2200,1345 L 2300,1345 L 2300,1445 L 2200,1445 Z" /><path d="M 2460,1155 L 2560,1155 L 2560,1255 L 2460,1255 Z" /><path d="M 1940,2110 L 2040,2110 L 2040,2210 L 1940,2210 Z" /><path d="M 3500,1920 L 3600,1920 L 3600,2020 L 3500,2020 Z" /><path d="M 3760,2110 L 3860,2110 L 3860,2210 L 3760,2210 Z" /><path d="M 5320,2110 L 5420,2110 L 5420,2210 L 5320,2210 Z" /><path d="M 6360,2110 L 6460,2110 L 6460,2210 L 6360,2210 Z" /><path d="M 7920,2110 L 8020,2110 L 8020,2210 L 7920,2210 Z" /><path d="M 8180,1920 L 8280,1920 L 8280,2020 L 8180,2020 Z" /><path d="M 9740,2110 L 9840,2110 L 9840,2210 L 9740,2210 Z" /><path d="M 5840,1350 L 5940,1350 L 5940,1450 L 5840,1450 Z" /><path d="M 5840,1920 L 5940,1920 L 5940,2020 L 5840,2020 Z" /><path d="M 8960,1730 L 9060,1730 L 9060,1830 L 8960,1830 Z" /><path d="M 7140,1730 L 7240,1730 L 7240,1830 L 7140,1830 Z" /><path d="M 6100,1730 L 6200,1730 L 6200,1830 L 6100,1830 Z" /><path d="M 2720,1540 L 2820,1540 L 2820,1640 L 2720,1640 Z" /><path d="M 4540,1540 L 4640,1540 L 4640,1640 L 4540,1640 Z" /><path d="M 5580,1540 L 5680,1540 L 5680,1640 L 5580,1640 Z" /><path d="M 10000,2310 L 10100,2310 L 10100,2410 L 10000,2410 Z" /><path d="M 10000,960 L 10100,960 L 10100,1060 L 10000,1060 Z" /><path d="M 10520,960 L 10620,960 L 10620,1060 L 10520,1060 Z" /><path d="M 10520,2310 L 10620,2310 L 10620,2410 L 10520,2410 Z" /><path d="M 10780,780 L 10880,780 L 10880,880 L 10780,880 Z" /><path d="M 11300,780 L 11400,780 L 11400,880 L 11300,880 Z" /><path d="M 11300,2490 L 11400,2490 L 11400,2590 L 11300,2590 Z" /><path d="M 10780,2490 L 10880,2490 L 10880,2590 L 10780,2590 Z" /><path d="M 640,780 L 740,780 L 740,880 L 640,880 Z" /><path d="M 1680,840 L 1780,840 L 1780,940 L 1680,940 Z" /><path d="M 1680,2490 L 1780,2490 L 1780,2590 L 1680,2590 Z" /><path d="M 10000,1920 L 10100,1920 L 10100,2020 L 10000,2020 Z" /><path d="M 10520,1350 L 10620,1350 L 10620,1450 L 10520,1450 Z" /><path d="M 1680,1920 L 1780,1920 L 1780,2020 L 1680,2020 Z" /><path d="M 640,2110 L 740,2110 L 740,2210 L 640,2210 Z" /><path d="M 640,2490 L 740,2490 L 740,2590 L 640,2590 Z" /></g></g><g id="M2"><g class="l32d0"><path d="M 1940,2675 L 2040,2675 L 2040,2630 L 2040,2540 L 2040,2450 L 2040,2250 L 2040,2160 L 2040,2070 L 2040,920 L 2040,830 L 2040,740 L 2040,695 L 1940,695 L 1940,740 L 1940,830 L 1940,920 L 1940,2070 L 1940,2160 L 1940,2250 L 1940,2450 L 1940,2540 L 1940,2630 Z" /><path d="M 3500,2675 L 3600,2675 L 3600,2630 L 3600,2540 L 3600,2450 L 3600,2060 L 3600,1880 L 3600,920 L 3600,830 L 3600,740 L 3600,695 L 3500,695 L 3500,740 L 3500,830 L 3500,920 L 3500,1880 L 3500,2060 L 3500,2450 L 3500,2540 L 3500,2630 Z" /><path d="M 3760,2675 L 3860,2675 L 3860,2630 L 3860,2540 L 3860,2450 L 3860,2250 L 3860,2160 L 3860,2070 L 3860,920 L 3860,830 L 3860,740 L 3860,695 L 3760,695 L 3760,740 L 3760,830 L 3760,920 L 3760,2070 L 3760,2160 L 3760,2250 L 3760,2450 L 3760,2540 L 3760,2630 Z" /><path d="M 5320,2675 L 5420,2675 L 5420,2630 L 5420,2540 L 5420,2450 L 5420,2250 L 5420,2160 L 5420,2070 L 5420,920 L 5420,830 L 5420,740 L 5420,695 L 5320,695 L 5320,740 L 5320,830 L 5320,920 L 5320,2070 L 5320,2160 L 5320,2250 L 5320,2450 L 5320,2540 L 5320,2630 Z" /><path d="M 6360,2675 L 6460,2675 L 6460,2630 L 6460,2540 L 6460,2450 L 6460,2250 L 6460,2160 L 6460,2070 L 6460,920 L 6460,830 L 6460,740 L 6460,695 L 6360,695 L 6360,740 L 6360,830 L 6360,920 L 6360,2070 L 6360,2160 L 6360,2250 L 6360,2450 L 6360,2540 L 6360,2630 Z" /><path d="M 7920,2675 L 8020,2675 L 8020,2630 L 8020,2540 L 8020,2450 L 8020,2250 L 8020,2160 L 8020,2070 L 8020,920 L 8020,830 L 8020,740 L 8020,695 L 7920,695 L 7920,740 L 7920,830 L 7920,920 L 7920,2070 L 7920,2160 L 7920,2250 L 7920,2450 L 7920,2540 L 7920,2630 Z" /><path d="M 8180,2675 L 8280,2675 L 8280,2630 L 8280,2540 L 8280,2450 L 8280,2060 L 8280,1880 L 8280,920 L 8280,830 L 8280,740 L 8280,695 L 8180,695 L 8180,740 L 8180,830 L 8180,920 L 8180,1880 L 8180,2060 L 8180,2450 L 8180,2540 L 8180,2630 Z" /><path d="M 9740,2675 L 9840,2675 L 9840,2630 L 9840,2540 L 9840,2450 L 9840,2250 L 9840,2160 L 9840,2070 L 9840,920 L 9840,830 L 9840,740 L 9840,695 L 9740,695 L 9740,740 L 9740,830 L 9740,920 L 9740,2070 L 9740,2160 L 9740,2250 L 9740,2450 L 9740,2540 L 9740,2630 Z" /><path d="M 8960,2675 L 9060,2675 L 9060,2630 L 9060,2540 L 9060,2450 L 9060,1870 L 9060,1780 L 9060,1690 L 9060,920 L 9060,830 L 9060,740 L 9060,695 L 8960,695 L 8960,740 L 8960,830 L 8960,920 L 8960,1690 L 8960,1780 L 8960,1870 L 8960,2450 L 8960,2540 L 8960,2630 Z" /><path d="M 7140,2675 L 7240,2675 L 7240,2630 L 7240,2540 L 7240,2450 L 7240,1870 L 7240,1780 L 7240,1690 L 7240,920 L 7240,830 L 7240,740 L 7240,695 L 7140,695 L 7140,740 L 7140,830 L 7140,920 L 7140,1690 L 7140,1780 L 7140,1870 L 7140,2450 L 7140,2540 L 7140,2630 Z" /><path d="M 6100,2675 L 6200,2675 L 6200,2630 L 6200,2540 L 6200,2450 L 6200,1870 L 6200,1780 L 6200,1690 L 6200,920 L 6200,830 L 6200,740 L 6200,695 L 6100,695 L 6100,740 L 6100,830 L 6100,920 L 6100,1690 L 6100,1780 L 6100,1870 L 6100,2450 L 6100,2540 L 6100,2630 Z" /><path d="M 2720,2675 L 2820,2675 L 2820,2630 L 2820,2540 L 2820,2450 L 2820,1680 L 2820,1590 L 2820,1500 L 2820,920 L 2820,830 L 2820,740 L 2820,695 L 2720,695 L 2720,740 L 2720,830 L 2720,920 L 2720,1500 L 2720,1590 L 2720,1680 L 2720,2450 L 2720,2540 L 2720,2630 Z" /><path d="M 4540,2675 L 4640,2675 L 4640,2630 L 4640,2540 L 4640,2450 L 4640,1680 L 4640,1590 L 4640,1500 L 4640,920 L 4640,830 L 4640,740 L 4640,695 L 4540,695 L 4540,740 L 4540,830 L 4540,920 L 4540,1500 L 4540,1590 L 4540,1680 L 4540,2450 L 4540,2540 L 4540,2630 Z" /><path d="M 5580,2675 L 5680,2675 L 5680,2630 L 5680,2540 L 5680,2450 L 5680,1680 L 5680,1590 L 5680,1500 L 5680,920 L 5680,830 L 5680,740 L 5680,695 L 5580,695 L 5580,740 L 5580,830 L 5580,920 L 5580,1500 L 5580,1590 L 5580,1680 L 5580,2450 L 5580,2540 L 5580,2630 Z" /><path d="M 6880,2675 L 6980,2675 L 6980,2630 L 6980,1295 L 6980,1205 L 6980,1115 L 6980,1075 L 6980,985 L 6980,895 L 6980,740 L 6980,695 L 6880,695 L 6880,740 L 6880,895 L 6880,985 L 6880,1075 L 6880,1115 L 6880,1205 L 6880,1295 L 6880,2630 Z" /><path d="M 5060,2675 L 5160,2675 L 5160,2630 L 5160,1485 L 5160,1305 L 5160,1205 L 5160,1075 L 5160,895 L 5160,740 L 5160,695 L 5060,695 L 5060,740 L 5060,895 L 5060,1075 L 5060,1205 L 5060,1305 L 5060,1485 L 5060,2630 Z" /><path d="M 6620,2675 L 6720,2675 L 6720,2630 L 6720,2475 L 6720,2385 L 6720,2295 L 6720,1485 L 6720,1395 L 6720,1305 L 6720,740 L 6720,695 L 6620,695 L 6620,740 L 6620,1305 L 6620,1395 L 6620,1485 L 6620,2295 L 6620,2385 L 6620,2475 L 6620,2630 Z" /><path d="M 4800,2675 L 4900,2675 L 4900,2630 L 4900,2475 L 4900,2295 L 4900,1395 L 4900,1295 L 4900,1115 L 4900,740 L 4900,695 L 4800,695 L 4800,740 L 4800,1115 L 4800,1295 L 4800,1395 L 4800,2295 L 4800,2475 L 4800,2630 Z" /><path d="M 7400,2675 L 7500,2675 L 7500,2630 L 7499,2630 L 7499,1295 L 7500,1295 L 7500,1275 L 7500,1115 L 7500,1095 L 7499,1095 L 7499,740 L 7500,740 L 7500,695 L 7400,695 L 7400,740 L 7400,1095 L 7400,1115 L 7400,1185 L 7400,1275 L 7400,1295 L 7400,2630 Z" /><path d="M 4020,2675 L 4120,2675 L 4120,2630 L 4120,1485 L 4120,1395 L 4120,1305 L 4120,1275 L 4120,1095 L 4120,740 L 4120,695 L 4020,695 L 4020,740 L 4020,1095 L 4020,1275 L 4020,1305 L 4020,1395 L 4020,1485 L 4020,2630 Z" /><path d="M 7660,2675 L 7760,2675 L 7760,2630 L 7760,2275 L 7760,2185 L 7760,2095 L 7760,1485 L 7760,1305 L 7760,740 L 7760,695 L 7660,695 L 7660,740 L 7660,1305 L 7660,1485 L 7660,2095 L 7660,2185 L 7660,2275 L 7660,2630 Z" /><path d="M 4280,2675 L 4380,2675 L 4380,2630 L 4380,2275 L 4380,2095 L 4380,1295 L 4380,1205 L 4380,1115 L 4380,740 L 4380,695 L 4280,695 L 4280,740 L 4280,1115 L 4280,1205 L 4280,1295 L 4280,2095 L 4280,2275 L 4280,2630 Z" /><path d="M 8700,2675 L 8800,2675 L 8800,2630 L 8800,1475 L 8800,1385 L 8800,1295 L 8800,1205 L 8800,1115 L 8800,740 L 8800,695 L 8700,695 L 8700,740 L 8700,1115 L 8700,1205 L 8700,1295 L 8700,1385 L 8700,1475 L 8700,2630 Z" /><path d="M 3240,2675 L 3340,2675 L 3340,2630 L 3340,1485 L 3340,1475 L 3340,1305 L 3340,1295 L 3340,1205 L 3340,740 L 3340,695 L 3240,695 L 3240,740 L 3240,1205 L 3240,1295 L 3240,1305 L 3240,1475 L 3240,1485 L 3240,2630 Z" /><path d="M 8440,2675 L 8540,2675 L 8540,2630 L 8539,2630 L 8539,2075 L 8540,2075 L 8540,1895 L 8539,1895 L 8539,1485 L 8540,1485 L 8540,1305 L 8539,1305 L 8539,740 L 8540,740 L 8540,695 L 8440,695 L 8440,740 L 8440,1305 L 8440,1395 L 8440,1485 L 8440,1895 L 8440,2075 L 8440,2630 Z" /><path d="M 2980,2675 L 3080,2675 L 3080,2630 L 3080,2075 L 3080,1895 L 3080,1395 L 3080,1295 L 3080,1115 L 3080,740 L 3080,695 L 2980,695 L 2980,740 L 2980,1115 L 2980,1295 L 2980,1395 L 2980,1895 L 2980,2075 L 2980,2630 Z" /><path d="M 9480,2675 L 9580,2675 L 9580,2630 L 9580,1875 L 9580,1695 L 9580,1485 L 9580,1305 L 9580,1205 L 9580,740 L 9580,695 L 9480,695 L 9480,740 L 9480,1205 L 9480,1305 L 9480,1485 L 9480,1695 L 9480,1875 L 9480,2630 Z" /><path d="M 2460,2675 L 2560,2675 L 2560,2630 L 2560,1875 L 2560,1695 L 2560,1295 L 2560,1205 L 2560,1115 L 2560,740 L 2560,695 L 2460,695 L 2460,740 L 2460,1115 L 2460,1205 L 2460,1295 L 2460,1695 L 2460,1875 L 2460,2630 Z" /><path d="M 9220,2675 L 9320,2675 L 9320,2630 L 9320,1675 L 9320,1495 L 9320,1395 L 9320,1295 L 9320,1115 L 9320,740 L 9320,695 L 9220,695 L 9220,740 L 9220,1115 L 9220,1295 L 9220,1395 L 9220,1495 L 9220,1675 L 9220,2630 Z" /><path d="M 2200,2675 L 2300,2675 L 2300,2630 L 2300,1675 L 2300,1495 L 2300,1485 L 2300,1395 L 2300,1305 L 2300,740 L 2300,695 L 2200,695 L 2200,740 L 2200,1305 L 2200,1395 L 2200,1485 L 2200,1495 L 2200,1675 L 2200,2630 Z" /><path d="M 11299,2540 L 11300,2540 L 11300,2630 L 11300,2675 L 11400,2675 L 11400,2630 L 11400,2540 L 11400,2450 L 11400,920 L 11400,830 L 11400,740 L 11400,695 L 11300,695 L 11300,740 L 11300,830 L 11299,830 Z" /><path d="M 10880,2450 L 10880,920 L 10880,830 L 10880,740 L 10880,695 L 10780,695 L 10780,740 L 10780,830 L 10780,920 L 10780,2450 L 10780,2540 L 10780,2630 L 10780,2675 L 10880,2675 L 10880,2630 L 10880,2540 Z" /><path d="M 10100,2360 L 10100,2270 L 10100,2060 L 10100,1880 L 10100,1100 L 10100,1010 L 10100,920 L 10100,695 L 10000,695 L 10000,920 L 10000,1010 L 10000,1100 L 10000,1880 L 10000,2060 L 10000,2270 L 10000,2360 L 10000,2450 L 10000,2675 L 10100,2675 L 10100,2450 Z" /><path d="M 10620,2360 L 10620,2270 L 10620,1490 L 10620,1310 L 10620,1100 L 10620,1010 L 10620,920 L 10620,695 L 10520,695 L 10520,920 L 10520,1010 L 10520,1100 L 10520,1310 L 10520,1490 L 10520,2270 L 10520,2360 L 10520,2450 L 10520,2675 L 10620,2675 L 10620,2450 Z" /><path d="M 640,875 L 640,920 L 640,2070 L 640,2160 L 640,2250 L 640,2450 L 640,2540 L 640,2630 L 640,2675 L 740,2675 L 740,2630 L 740,2540 L 740,2450 L 740,2250 L 740,2160 L 740,2070 L 740,920 L 740,875 L 740,830 L 740,740 L 740,695 L 640,695 L 640,740 L 640,830 Z" /><path d="M 1680,1970 L 1680,2060 L 1680,2450 L 1680,2495 L 1680,2540 L 1680,2630 L 1680,2675 L 1780,2675 L 1780,2630 L 1780,2540 L 1780,2495 L 1780,2450 L 1780,2060 L 1780,1970 L 1780,1880 L 1780,980 L 1780,890 L 1780,800 L 1780,695 L 1680,695 L 1680,800 L 1680,890 L 1680,980 L 1680,1880 Z" /><path d="M 5840,2400 L 5840,2495 L 5840,2585 L 5840,2675 L 5940,2675 L 5940,2495 L 5939,2495 L 5939,2400 L 5940,2400 L 5940,2060 L 5940,1880 L 5840,1880 L 5840,2020 L 5840,2060 Z" /><path d="M 5840,875 L 5840,970 L 5840,1310 L 5840,1350 L 5840,1490 L 5940,1490 L 5940,1310 L 5940,970 L 5939,970 L 5939,875 L 5940,875 L 5940,695 L 5840,695 L 5840,785 Z" /></g></g><g id="VIA2"><g class="l52d0"><path d="M 6880,935 L 6980,935 L 6980,1035 L 6880,1035 Z" /><path d="M 5060,935 L 5160,935 L 5160,1035 L 5060,1035 Z" /><path d="M 6620,2335 L 6720,2335 L 6720,2435 L 6620,2435 Z" /><path d="M 4800,2335 L 4900,2335 L 4900,2435 L 4800,2435 Z" /><path d="M 7400,1135 L 7500,1135 L 7500,1235 L 7400,1235 Z" /><path d="M 4020,1135 L 4120,1135 L 4120,1235 L 4020,1235 Z" /><path d="M 7660,2135 L 7760,2135 L 7760,2235 L 7660,2235 Z" /><path d="M 4280,2135 L 4380,2135 L 4380,2235 L 4280,2235 Z" /><path d="M 8700,1335 L 8800,1335 L 8800,1435 L 8700,1435 Z" /><path d="M 3240,1335 L 3340,1335 L 3340,1435 L 3240,1435 Z" /><path d="M 8440,1935 L 8540,1935 L 8540,2035 L 8440,2035 Z" /><path d="M 2980,1935 L 3080,1935 L 3080,2035 L 2980,2035 Z" /><path d="M 9480,1735 L 9580,1735 L 9580,1835 L 9480,1835 Z" /><path d="M 2460,1735 L 2560,1735 L 2560,1835 L 2460,1835 Z" /><path d="M 9220,1535 L 9320,1535 L 9320,1635 L 9220,1635 Z" /><path d="M 2200,1535 L 2300,1535 L 2300,1635 L 2200,1635 Z" /><path d="M 640,735 L 740,735 L 740,835 L 640,835 Z" /><path d="M 1680,2535 L 1780,2535 L 1780,2635 L 1680,2635 Z" /><path d="M 5840,2535 L 5940,2535 L 5940,2635 L 5840,2635 Z" /><path d="M 5840,735 L 5940,735 L 5940,835 L 5840,835 Z" /></g></g><g id="M3"><g class="l33d0"><path d="M 11180,1035 L 11180,934 L 9620,934 L 6930,934 L 5840,934 L 5110,934 L 2160,934 L 600,934 L 600,1035 L 2160,1035 L 5020,1035 L 5110,1035 L 5200,1035 L 5840,1035 L 6840,1035 L 6930,1035 L 7020,1035 L 9620,1035 Z" /><path d="M 11180,2435 L 11180,2335 L 9620,2335 L 6760,2335 L 6670,2335 L 6580,2335 L 5840,2335 L 4940,2335 L 4850,2335 L 4760,2335 L 2160,2335 L 600,2335 L 600,2435 L 2160,2435 L 4760,2435 L 4850,2435 L 4940,2435 L 5840,2435 L 6580,2435 L 6670,2435 L 6760,2435 L 9620,2435 Z" /><path d="M 11180,1235 L 11180,1135 L 9620,1135 L 7540,1135 L 7450,1135 L 7360,1135 L 5840,1135 L 4160,1135 L 4070,1135 L 3980,1135 L 2160,1135 L 600,1135 L 600,1235 L 2160,1235 L 3980,1235 L 4070,1235 L 4160,1235 L 5840,1235 L 7360,1235 L 7450,1235 L 7540,1235 L 9620,1235 Z" /><path d="M 11180,2235 L 11180,2135 L 9620,2135 L 7800,2135 L 7710,2135 L 7620,2135 L 5840,2135 L 4420,2135 L 4330,2135 L 4240,2135 L 2160,2135 L 600,2135 L 600,2235 L 2160,2235 L 4240,2235 L 4330,2235 L 4420,2235 L 5840,2235 L 7620,2235 L 7710,2235 L 7800,2235 L 9620,2235 Z" /><path d="M 11180,1435 L 11180,1335 L 9620,1335 L 8840,1335 L 8750,1335 L 8660,1335 L 5840,1335 L 3380,1335 L 3290,1335 L 3200,1335 L 2160,1335 L 600,1335 L 600,1435 L 2160,1435 L 3200,1435 L 3290,1435 L 3380,1435 L 5840,1435 L 8660,1435 L 8750,1435 L 8840,1435 L 9620,1435 Z" /><path d="M 11180,2035 L 11180,1935 L 9620,1935 L 8580,1935 L 8490,1935 L 8400,1935 L 5840,1935 L 3120,1935 L 3030,1935 L 2940,1935 L 2160,1935 L 600,1935 L 600,2035 L 2160,2035 L 2940,2035 L 3030,2035 L 3120,2035 L 5840,2035 L 8400,2035 L 8490,2035 L 8580,2035 L 9620,2035 Z" /><path d="M 9620,1835 L 11180,1835 L 11180,1735 L 9620,1735 L 9530,1735 L 9440,1735 L 5840,1735 L 2600,1735 L 2510,1735 L 2420,1735 L 2160,1735 L 600,1735 L 600,1835 L 2160,1835 L 2420,1835 L 2510,1835 L 2600,1835 L 5840,1835 L 9440,1835 L 9530,1835 Z" /><path d="M 11180,1635 L 11180,1535 L 9620,1535 L 9360,1535 L 9270,1535 L 9180,1535 L 5840,1535 L 2340,1535 L 2250,1535 L 2160,1535 L 600,1535 L 600,1635 L 2160,1635 L 2250,1635 L 2340,1635 L 5840,1635 L 9180,1635 L 9270,1635 L 9360,1635 L 9620,1635 Z" /><path d="M 5980,2535 L 5890,2535 L 5800,2535 L 1820,2535 L 1640,2535 L 690,2535 L 600,2535 L 600,2635 L 690,2635 L 1640,2635 L 1820,2635 L 5800,2635 L 5890,2635 L 5980,2635 L 11180,2635 L 11180,2535 Z" /><path d="M 5980,735 L 5890,735 L 5800,735 L 780,735 L 600,735 L 600,835 L 780,835 L 5800,835 L 5890,835 L 5980,835 L 9620,835 L 9620,735 Z" /></g></g></g></svg>