<svg width="6850" height="3550" viewBox="-5 -3545 6850 3550" xmlns="http://www.w3.org/2000/svg" xmlns:xlink="http://www.w3.org/1999/xlink"><defs><style type="text/css">.l3d0 {fill: #fef9e7; fill-opacity: 0.5; stroke-width: 10; stroke: #f1c40f; stroke-linecap: round; stroke-linejoin: round; stroke-opacity: 0.2;}.l25d0 {fill: #8e44ad; fill-opacity: 0.05; stroke-width: 10; stroke: #8e44ad; stroke-linecap: round; stroke-linejoin: round; stroke-opacity: 1;}.l26d0 {fill: #ccd1d1; fill-opacity: 0.05; stroke-width: 10; stroke: #ccd1d1; stroke-linecap: round; stroke-linejoin: round; stroke-opacity: 1;}.l6d0 {fill: #f5b7b1; fill-opacity: 1; stroke-width: 10; stroke: #e74c3c; stroke-linecap: round; stroke-linejoin: round; stroke-opacity: 1;}.l17d0 {fill: #2980b9; fill-opacity: 1; stroke-width: 0; stroke: #000000; stroke-linecap: round; stroke-linejoin: round; stroke-opacity: 0;}.l30d0 {fill: #27ae60; fill-opacity: 1; stroke-width: 0; stroke: #000000; stroke-linecap: round; stroke-linejoin: round; stroke-opacity: 0;}.l31d0 {fill: #85c1e9; fill-opacity: 0.6; stroke-width: 0; stroke: #000000; stroke-linecap: round; stroke-linejoin: round; stroke-opacity: 0;}.l51d0 {fill: #f39c12; fill-opacity: 1; stroke-width: 10; stroke: #f39c12; stroke-linecap: round; stroke-linejoin: round; stroke-opacity: 1;}.l32d0 {fill: #f7dc6f; fill-opacity: 0.6; stroke-width: 0; stroke: #000000; stroke-linecap: round; stroke-linejoin: round; stroke-opacity: 0;}path {fill-rule: evenodd;}</style></defs><g transform="scale(1 -1)"><g id="NW"><g class="l3d0"><path d="M 0,1900 L 0,3540 L 6840,3540 L 6840,1900 L 4005,1900 L 3745,1900 L 3355,1900 L 3095,1900 Z" /></g></g><g id="PP"><g class="l25d0"><path d="M 170,0 L 6670,0 L 6670,430 L 170,430 Z" /><path d="M 1575,2940 L 1835,2940 L 1885,2940 L 2145,2940 L 2355,2940 L 2405,2940 L 2615,2940 L 2665,2940 L 2875,2940 L 3135,2940 L 3185,2940 L 3445,2940 L 3655,2940 L 3915,2940 L 3965,2940 L 4225,2940 L 4435,2940 L 4485,2940 L 4695,2940 L 4745,2940 L 4955,2940 L 5215,2940 L 5265,2940 L 5735,2940 L 5785,2940 L 6045,2940 L 6255,2940 L 6515,2940 L 6670,2940 L 6670,1685 L 170,1685 L 170,2940 L 325,2940 L 585,2940 L 795,2940 L 1055,2940 L 1105,2940 L 1365,2940 Z" /></g></g><g id="NP"><g class="l26d0"><path d="M 170,2940 L 6670,2940 L 6670,3370 L 170,3370 Z" /><path d="M 6045,430 L 5785,430 L 5735,430 L 5265,430 L 5215,430 L 4955,430 L 4745,430 L 4695,430 L 4485,430 L 4435,430 L 4225,430 L 3965,430 L 3915,430 L 3655,430 L 3445,430 L 3185,430 L 3135,430 L 2875,430 L 2665,430 L 2615,430 L 2405,430 L 2355,430 L 2145,430 L 1885,430 L 1835,430 L 1575,430 L 1365,430 L 1105,430 L 1055,430 L 795,430 L 585,430 L 325,430 L 170,430 L 170,1685 L 6670,1685 L 6670,430 L 6515,430 L 6255,430 Z" /></g></g><g id="OD"><g class="l6d0"><path d="M 4010,770 L 4094,770 L 4094,1250 L 4010,1250 Z" /><path d="M 4010,2360 L 4094,2360 L 4094,2600 L 4010,2600 Z" /><path d="M 300,130 L 6540,130 L 6540,300 L 300,300 Z" /><path d="M 300,3070 L 6540,3070 L 6540,3240 L 300,3240 Z" /><path d="M 2090,2600 L 2150,2600 L 2225,2600 L 2275,2600 L 2350,2600 L 2410,2600 L 2485,2600 L 2535,2600 L 2610,2600 L 2670,2600 L 2745,2600 L 2795,2600 L 2870,2600 L 2930,2600 L 3005,2600 L 3090,2600 L 3090,2360 L 3005,2360 L 2930,2360 L 2870,2360 L 2795,2360 L 2745,2360 L 2670,2360 L 2610,2360 L 2535,2360 L 2485,2360 L 2410,2360 L 2350,2360 L 2275,2360 L 2225,2360 L 2150,2360 L 2090,2360 L 2015,2360 L 1930,2360 L 1930,2600 L 2015,2600 Z" /><path d="M 6470,2360 L 6385,2360 L 6310,2360 L 6250,2360 L 6175,2360 L 6125,2360 L 6050,2360 L 5990,2360 L 5915,2360 L 5830,2360 L 5830,2600 L 5915,2600 L 5990,2600 L 6050,2600 L 6125,2600 L 6175,2600 L 6250,2600 L 6310,2600 L 6385,2600 L 6470,2600 Z" /><path d="M 4825,2360 L 4750,2360 L 4690,2360 L 4615,2360 L 4565,2360 L 4490,2360 L 4430,2360 L 4355,2360 L 4305,2360 L 4230,2360 L 4170,2360 L 4095,2360 L 4095,2600 L 4170,2600 L 4230,2600 L 4305,2600 L 4355,2600 L 4430,2600 L 4490,2600 L 4565,2600 L 4615,2600 L 4690,2600 L 4750,2600 L 4825,2600 L 4875,2600 L 4950,2600 L 5010,2600 L 5085,2600 L 5170,2600 L 5310,2600 L 5395,2600 L 5470,2600 L 5530,2600 L 5605,2600 L 5690,2600 L 5690,2360 L 5605,2360 L 5530,2360 L 5470,2360 L 5395,2360 L 5310,2360 L 5170,2360 L 5085,2360 L 5010,2360 L 4950,2360 L 4875,2360 Z" /><path d="M 1790,2360 L 1705,2360 L 1630,2360 L 1570,2360 L 1495,2360 L 1445,2360 L 1370,2360 L 1310,2360 L 1235,2360 L 1150,2360 L 1150,2600 L 1235,2600 L 1310,2600 L 1370,2600 L 1445,2600 L 1495,2600 L 1570,2600 L 1630,2600 L 1705,2600 L 1790,2600 Z" /><path d="M 1010,2360 L 925,2360 L 850,2360 L 790,2360 L 715,2360 L 665,2360 L 590,2360 L 530,2360 L 455,2360 L 370,2360 L 370,2600 L 455,2600 L 530,2600 L 590,2600 L 665,2600 L 715,2600 L 790,2600 L 850,2600 L 925,2600 L 1010,2600 Z" /><path d="M 2090,1250 L 2150,1250 L 2225,1250 L 2275,1250 L 2350,1250 L 2410,1250 L 2485,1250 L 2535,1250 L 2610,1250 L 2670,1250 L 2745,1250 L 2795,1250 L 2870,1250 L 2930,1250 L 3005,1250 L 3090,1250 L 3090,770 L 3005,770 L 2930,770 L 2870,770 L 2795,770 L 2745,770 L 2670,770 L 2610,770 L 2535,770 L 2485,770 L 2410,770 L 2350,770 L 2275,770 L 2225,770 L 2150,770 L 2090,770 L 2015,770 L 1930,770 L 1930,1250 L 2015,1250 Z" /><path d="M 3230,2600 L 3315,2600 L 3390,2600 L 3450,2600 L 3525,2600 L 3575,2600 L 3650,2600 L 3710,2600 L 3785,2600 L 3870,2600 L 3870,2120 L 3785,2120 L 3710,2120 L 3650,2120 L 3575,2120 L 3525,2120 L 3450,2120 L 3390,2120 L 3315,2120 L 3230,2120 Z" /><path d="M 3215,890 L 3315,890 L 3390,890 L 3450,890 L 3525,890 L 3575,890 L 3650,890 L 3710,890 L 3785,890 L 3885,890 L 3885,770 L 3785,770 L 3710,770 L 3650,770 L 3575,770 L 3525,770 L 3450,770 L 3390,770 L 3315,770 L 3215,770 Z" /><path d="M 6175,890 L 6250,890 L 6310,890 L 6385,890 L 6485,890 L 6485,770 L 6385,770 L 6310,770 L 6250,770 L 6175,770 L 6125,770 L 6050,770 L 5990,770 L 5915,770 L 5815,770 L 5815,890 L 5915,890 L 5990,890 L 6050,890 L 6125,890 Z" /><path d="M 4825,770 L 4750,770 L 4690,770 L 4615,770 L 4565,770 L 4490,770 L 4430,770 L 4355,770 L 4305,770 L 4230,770 L 4170,770 L 4095,770 L 4095,1250 L 4170,1250 L 4230,1250 L 4305,1250 L 4355,1250 L 4430,1250 L 4490,1250 L 4565,1250 L 4615,1250 L 4690,1250 L 4750,1250 L 4825,1250 L 4875,1250 L 4950,1250 L 5010,1250 L 5085,1250 L 5170,1250 L 5170,890 L 5295,890 L 5395,890 L 5470,890 L 5530,890 L 5605,890 L 5705,890 L 5705,770 L 5605,770 L 5530,770 L 5470,770 L 5395,770 L 5295,770 L 5170,770 L 5085,770 L 5010,770 L 4950,770 L 4875,770 Z" /><path d="M 1495,890 L 1570,890 L 1630,890 L 1705,890 L 1805,890 L 1805,770 L 1705,770 L 1630,770 L 1570,770 L 1495,770 L 1445,770 L 1370,770 L 1310,770 L 1235,770 L 1135,770 L 1135,890 L 1235,890 L 1310,890 L 1370,890 L 1445,890 Z" /><path d="M 1025,770 L 925,770 L 850,770 L 790,770 L 715,770 L 665,770 L 590,770 L 530,770 L 455,770 L 355,770 L 355,890 L 455,890 L 530,890 L 590,890 L 665,890 L 715,890 L 790,890 L 850,890 L 925,890 L 1025,890 Z" /></g></g><g id="PO"><g class="l17d0"><path d="M 3650,2120 L 3650,2600 L 3650,2740 L 3710,2740 L 3710,2600 L 3710,2120 L 3710,1980 L 3710,1675 L 3735,1675 L 3735,1505 L 3710,1505 L 3710,1030 L 3710,890 L 3710,770 L 3710,630 L 3650,630 L 3650,770 L 3650,890 L 3650,1030 L 3650,1505 L 3625,1505 L 3625,1675 L 3650,1675 L 3650,1980 Z" /><path d="M 3450,1030 L 3450,890 L 3450,770 L 3450,630 L 3390,630 L 3390,770 L 3390,890 L 3390,1030 L 3390,1695 L 3365,1695 L 3365,1865 L 3390,1865 L 3390,1980 L 3390,2120 L 3390,2600 L 3390,2740 L 3450,2740 L 3450,2600 L 3450,2120 L 3450,1980 L 3449,1980 L 3449,1865 L 3475,1865 L 3475,1695 L 3449,1695 L 3449,1030 Z" /><path d="M 6250,2360 L 6250,2600 L 6250,2740 L 6310,2740 L 6310,2600 L 6310,2360 L 6310,2220 L 6310,2055 L 6335,2055 L 6335,1885 L 6310,1885 L 6310,1030 L 6310,890 L 6310,770 L 6310,630 L 6250,630 L 6250,770 L 6250,890 L 6250,1030 L 6250,1885 L 6225,1885 L 6225,2055 L 6250,2055 L 6250,2220 Z" /><path d="M 5990,2360 L 5990,2600 L 5990,2740 L 6050,2740 L 6050,2600 L 6050,2360 L 6050,2220 L 6050,1295 L 6075,1295 L 6075,1125 L 6050,1125 L 6050,1030 L 6050,890 L 6050,770 L 6050,630 L 5990,630 L 5990,770 L 5990,890 L 5990,1030 L 5990,1125 L 5965,1125 L 5965,1295 L 5990,1295 L 5990,2220 Z" /><path d="M 5470,2360 L 5470,2600 L 5470,2740 L 5530,2740 L 5530,2600 L 5530,2360 L 5530,2220 L 5530,1485 L 5555,1485 L 5555,1315 L 5530,1315 L 5530,1030 L 5530,890 L 5530,770 L 5530,630 L 5470,630 L 5470,770 L 5470,890 L 5470,1030 L 5470,1315 L 5445,1315 L 5445,1485 L 5470,1485 L 5470,2220 Z" /><path d="M 530,2360 L 530,2600 L 530,2740 L 590,2740 L 590,2600 L 590,2360 L 590,2220 L 590,1675 L 615,1675 L 615,1505 L 590,1505 L 590,1030 L 590,890 L 590,770 L 590,630 L 530,630 L 530,770 L 530,890 L 530,1030 L 530,1505 L 505,1505 L 505,1675 L 530,1675 L 530,2220 Z" /><path d="M 790,2360 L 790,2600 L 790,2740 L 850,2740 L 850,2600 L 850,2360 L 850,2220 L 850,1485 L 875,1485 L 875,1315 L 850,1315 L 850,1030 L 850,890 L 850,770 L 850,630 L 790,630 L 790,770 L 790,890 L 790,1030 L 790,1315 L 765,1315 L 765,1485 L 790,1485 L 790,2220 Z" /><path d="M 1310,2360 L 1310,2600 L 1310,2740 L 1370,2740 L 1370,2600 L 1370,2360 L 1370,2220 L 1370,1295 L 1395,1295 L 1395,1125 L 1370,1125 L 1370,1030 L 1370,890 L 1370,770 L 1370,630 L 1310,630 L 1310,770 L 1310,890 L 1310,1030 L 1310,1125 L 1285,1125 L 1285,1295 L 1310,1295 L 1310,2220 Z" /><path d="M 1570,2360 L 1570,2600 L 1570,2740 L 1630,2740 L 1630,2600 L 1630,2360 L 1630,2220 L 1630,1485 L 1655,1485 L 1655,1315 L 1630,1315 L 1630,1030 L 1630,890 L 1630,770 L 1630,630 L 1570,630 L 1570,770 L 1570,890 L 1570,1030 L 1570,1315 L 1545,1315 L 1545,1485 L 1570,1485 L 1570,2220 Z" /><path d="M 2090,2360 L 2090,2600 L 2090,2740 L 2150,2740 L 2150,2600 L 2150,2360 L 2150,2220 L 2150,1675 L 2175,1675 L 2175,1505 L 2150,1505 L 2150,1390 L 2150,1250 L 2150,770 L 2150,630 L 2090,630 L 2090,770 L 2090,1250 L 2090,1390 L 2090,1505 L 2065,1505 L 2065,1675 L 2090,1675 L 2090,2220 Z" /><path d="M 2350,2360 L 2350,2600 L 2350,2740 L 2410,2740 L 2410,2600 L 2410,2360 L 2410,2220 L 2409,2220 L 2409,1865 L 2435,1865 L 2435,1695 L 2409,1695 L 2409,1390 L 2410,1390 L 2410,1250 L 2410,770 L 2410,630 L 2350,630 L 2350,770 L 2350,1250 L 2350,1390 L 2350,1695 L 2325,1695 L 2325,1865 L 2350,1865 L 2350,2220 Z" /><path d="M 2670,1390 L 2670,1250 L 2670,770 L 2670,630 L 2610,630 L 2610,770 L 2610,1250 L 2610,1390 L 2610,2075 L 2585,2075 L 2585,2245 L 2610,2245 L 2610,2360 L 2610,2600 L 2610,2740 L 2670,2740 L 2670,2600 L 2670,2360 L 2670,2245 L 2695,2245 L 2695,2075 L 2670,2075 Z" /><path d="M 2870,2360 L 2870,2600 L 2870,2740 L 2930,2740 L 2930,2600 L 2930,2360 L 2930,2220 L 2929,2220 L 2929,2055 L 2955,2055 L 2955,1885 L 2929,1885 L 2929,1390 L 2930,1390 L 2930,1250 L 2930,770 L 2930,630 L 2870,630 L 2870,770 L 2870,1250 L 2870,1390 L 2870,1885 L 2845,1885 L 2845,2055 L 2870,2055 L 2870,2220 Z" /><path d="M 4170,2360 L 4170,2600 L 4170,2740 L 4230,2740 L 4230,2600 L 4230,2360 L 4230,2220 L 4230,1675 L 4255,1675 L 4255,1505 L 4230,1505 L 4230,1390 L 4230,1250 L 4230,770 L 4230,630 L 4170,630 L 4170,770 L 4170,1250 L 4170,1390 L 4170,1505 L 4145,1505 L 4145,1675 L 4170,1675 L 4170,2220 Z" /><path d="M 4490,1390 L 4490,1250 L 4490,770 L 4490,630 L 4430,630 L 4430,770 L 4430,1250 L 4430,1390 L 4430,2075 L 4405,2075 L 4405,2245 L 4430,2245 L 4430,2360 L 4430,2600 L 4430,2740 L 4490,2740 L 4490,2600 L 4490,2360 L 4490,2245 L 4515,2245 L 4515,2075 L 4490,2075 Z" /><path d="M 4690,2600 L 4690,2740 L 4750,2740 L 4750,2600 L 4750,2360 L 4750,2220 L 4750,2055 L 4775,2055 L 4775,1885 L 4750,1885 L 4750,1390 L 4750,1250 L 4750,770 L 4750,630 L 4690,630 L 4690,770 L 4690,1250 L 4690,1390 L 4689,1390 L 4689,1885 L 4665,1885 L 4665,2055 L 4689,2055 L 4689,2220 L 4690,2220 L 4690,2360 Z" /><path d="M 4950,2360 L 4950,2600 L 4950,2740 L 5010,2740 L 5010,2600 L 5010,2360 L 5010,2220 L 5010,1865 L 5035,1865 L 5035,1695 L 5010,1695 L 5010,1390 L 5010,1250 L 5010,770 L 5010,630 L 4950,630 L 4950,770 L 4950,1250 L 4950,1390 L 4950,1695 L 4925,1695 L 4925,1865 L 4950,1865 L 4950,2220 Z" /></g></g><g id="CO"><g class="l30d0"><path d="M 2985,800 L 3075,800 L 3075,890 L 2985,890 Z" /><path d="M 2985,1130 L 3075,1130 L 3075,1220 L 2985,1220 Z" /><path d="M 5065,800 L 5155,800 L 5155,890 L 5065,890 Z" /><path d="M 5065,1130 L 5155,1130 L 5155,1220 L 5065,1220 Z" /><path d="M 4025,800 L 4115,800 L 4115,890 L 4025,890 Z" /><path d="M 4025,1130 L 4115,1130 L 4115,1220 L 4025,1220 Z" /><path d="M 1945,800 L 2035,800 L 2035,890 L 1945,890 Z" /><path d="M 1945,1130 L 2035,1130 L 2035,1220 L 1945,1220 Z" /><path d="M 5585,785 L 5675,785 L 5675,875 L 5585,875 Z" /><path d="M 5325,785 L 5415,785 L 5415,875 L 5325,875 Z" /><path d="M 6365,785 L 6455,785 L 6455,875 L 6365,875 Z" /><path d="M 6105,785 L 6195,785 L 6195,875 L 6105,875 Z" /><path d="M 5845,785 L 5935,785 L 5935,875 L 5845,875 Z" /><path d="M 3765,785 L 3855,785 L 3855,875 L 3765,875 Z" /><path d="M 3505,785 L 3595,785 L 3595,875 L 3505,875 Z" /><path d="M 3245,785 L 3335,785 L 3335,875 L 3245,875 Z" /><path d="M 1685,785 L 1775,785 L 1775,875 L 1685,875 Z" /><path d="M 1425,785 L 1515,785 L 1515,875 L 1425,875 Z" /><path d="M 1165,785 L 1255,785 L 1255,875 L 1165,875 Z" /><path d="M 905,785 L 995,785 L 995,875 L 905,875 Z" /><path d="M 645,785 L 735,785 L 735,875 L 645,875 Z" /><path d="M 385,785 L 475,785 L 475,875 L 385,875 Z" /><path d="M 3765,2480 L 3855,2480 L 3855,2570 L 3765,2570 Z" /><path d="M 3765,2150 L 3855,2150 L 3855,2240 L 3765,2240 Z" /><path d="M 3245,2150 L 3335,2150 L 3335,2240 L 3245,2240 Z" /><path d="M 3245,2480 L 3335,2480 L 3335,2570 L 3245,2570 Z" /><path d="M 6105,2435 L 6195,2435 L 6195,2525 L 6105,2525 Z" /><path d="M 4805,2435 L 4895,2435 L 4895,2525 L 4805,2525 Z" /><path d="M 4545,2435 L 4635,2435 L 4635,2525 L 4545,2525 Z" /><path d="M 4285,2435 L 4375,2435 L 4375,2525 L 4285,2525 Z" /><path d="M 2725,2435 L 2815,2435 L 2815,2525 L 2725,2525 Z" /><path d="M 2465,2435 L 2555,2435 L 2555,2525 L 2465,2525 Z" /><path d="M 2205,2435 L 2295,2435 L 2295,2525 L 2205,2525 Z" /><path d="M 1425,2435 L 1515,2435 L 1515,2525 L 1425,2525 Z" /><path d="M 645,2435 L 735,2435 L 735,2525 L 645,2525 Z" /><path d="M 905,2435 L 995,2435 L 995,2525 L 905,2525 Z" /><path d="M 1685,2435 L 1775,2435 L 1775,2525 L 1685,2525 Z" /><path d="M 2985,2435 L 3075,2435 L 3075,2525 L 2985,2525 Z" /><path d="M 5065,2435 L 5155,2435 L 5155,2525 L 5065,2525 Z" /><path d="M 5585,2435 L 5675,2435 L 5675,2525 L 5585,2525 Z" /><path d="M 6365,2435 L 6455,2435 L 6455,2525 L 6365,2525 Z" /><path d="M 5845,2435 L 5935,2435 L 5935,2525 L 5845,2525 Z" /><path d="M 5325,2435 L 5415,2435 L 5415,2525 L 5325,2525 Z" /><path d="M 4025,2435 L 4115,2435 L 4115,2525 L 4025,2525 Z" /><path d="M 1945,2435 L 2035,2435 L 2035,2525 L 1945,2525 Z" /><path d="M 1165,2435 L 1255,2435 L 1255,2525 L 1165,2525 Z" /><path d="M 385,2435 L 475,2435 L 475,2525 L 385,2525 Z" /><path d="M 6365,170 L 6455,170 L 6455,260 L 6365,260 Z" /><path d="M 6105,170 L 6195,170 L 6195,260 L 6105,260 Z" /><path d="M 5845,170 L 5935,170 L 5935,260 L 5845,260 Z" /><path d="M 5585,170 L 5675,170 L 5675,260 L 5585,260 Z" /><path d="M 5325,170 L 5415,170 L 5415,260 L 5325,260 Z" /><path d="M 5065,170 L 5155,170 L 5155,260 L 5065,260 Z" /><path d="M 4805,170 L 4895,170 L 4895,260 L 4805,260 Z" /><path d="M 4545,170 L 4635,170 L 4635,260 L 4545,260 Z" /><path d="M 4285,170 L 4375,170 L 4375,260 L 4285,260 Z" /><path d="M 4025,170 L 4115,170 L 4115,260 L 4025,260 Z" /><path d="M 3765,170 L 3855,170 L 3855,260 L 3765,260 Z" /><path d="M 3505,170 L 3595,170 L 3595,260 L 3505,260 Z" /><path d="M 3245,170 L 3335,170 L 3335,260 L 3245,260 Z" /><path d="M 2985,170 L 3075,170 L 3075,260 L 2985,260 Z" /><path d="M 2725,170 L 2815,170 L 2815,260 L 2725,260 Z" /><path d="M 2465,170 L 2555,170 L 2555,260 L 2465,260 Z" /><path d="M 2205,170 L 2295,170 L 2295,260 L 2205,260 Z" /><path d="M 1945,170 L 2035,170 L 2035,260 L 1945,260 Z" /><path d="M 1685,170 L 1775,170 L 1775,260 L 1685,260 Z" /><path d="M 1425,170 L 1515,170 L 1515,260 L 1425,260 Z" /><path d="M 1165,170 L 1255,170 L 1255,260 L 1165,260 Z" /><path d="M 905,170 L 995,170 L 995,260 L 905,260 Z" /><path d="M 385,170 L 475,170 L 475,260 L 385,260 Z" /><path d="M 645,170 L 735,170 L 735,260 L 645,260 Z" /><path d="M 6365,3110 L 6455,3110 L 6455,3200 L 6365,3200 Z" /><path d="M 6105,3110 L 6195,3110 L 6195,3200 L 6105,3200 Z" /><path d="M 5845,3110 L 5935,3110 L 5935,3200 L 5845,3200 Z" /><path d="M 5585,3110 L 5675,3110 L 5675,3200 L 5585,3200 Z" /><path d="M 5325,3110 L 5415,3110 L 5415,3200 L 5325,3200 Z" /><path d="M 5065,3110 L 5155,3110 L 5155,3200 L 5065,3200 Z" /><path d="M 4805,3110 L 4895,3110 L 4895,3200 L 4805,3200 Z" /><path d="M 4545,3110 L 4635,3110 L 4635,3200 L 4545,3200 Z" /><path d="M 4285,3110 L 4375,3110 L 4375,3200 L 4285,3200 Z" /><path d="M 4025,3110 L 4115,3110 L 4115,3200 L 4025,3200 Z" /><path d="M 3765,3110 L 3855,3110 L 3855,3200 L 3765,3200 Z" /><path d="M 3505,3110 L 3595,3110 L 3595,3200 L 3505,3200 Z" /><path d="M 3245,3110 L 3335,3110 L 3335,3200 L 3245,3200 Z" /><path d="M 2985,3110 L 3075,3110 L 3075,3200 L 2985,3200 Z" /><path d="M 2725,3110 L 2815,3110 L 2815,3200 L 2725,3200 Z" /><path d="M 2465,3110 L 2555,3110 L 2555,3200 L 2465,3200 Z" /><path d="M 2205,3110 L 2295,3110 L 2295,3200 L 2205,3200 Z" /><path d="M 1945,3110 L 2035,3110 L 2035,3200 L 1945,3200 Z" /><path d="M 1685,3110 L 1775,3110 L 1775,3200 L 1685,3200 Z" /><path d="M 1425,3110 L 1515,3110 L 1515,3200 L 1425,3200 Z" /><path d="M 1165,3110 L 1255,3110 L 1255,3200 L 1165,3200 Z" /><path d="M 905,3110 L 995,3110 L 995,3200 L 905,3200 Z" /><path d="M 645,3110 L 735,3110 L 735,3200 L 645,3200 Z" /><path d="M 385,3110 L 475,3110 L 475,3200 L 385,3200 Z" /><path d="M 3635,1545 L 3725,1545 L 3725,1635 L 3635,1635 Z" /><path d="M 3375,1735 L 3465,1735 L 3465,1825 L 3375,1825 Z" /><path d="M 6235,1925 L 6325,1925 L 6325,2015 L 6235,2015 Z" /><path d="M 5975,1165 L 6065,1165 L 6065,1255 L 5975,1255 Z" /><path d="M 5455,1355 L 5545,1355 L 5545,1445 L 5455,1445 Z" /><path d="M 515,1545 L 605,1545 L 605,1635 L 515,1635 Z" /><path d="M 775,1355 L 865,1355 L 865,1445 L 775,1445 Z" /><path d="M 1295,1165 L 1385,1165 L 1385,1255 L 1295,1255 Z" /><path d="M 1555,1355 L 1645,1355 L 1645,1445 L 1555,1445 Z" /><path d="M 2075,1545 L 2165,1545 L 2165,1635 L 2075,1635 Z" /><path d="M 2335,1735 L 2425,1735 L 2425,1825 L 2335,1825 Z" /><path d="M 2595,2115 L 2685,2115 L 2685,2205 L 2595,2205 Z" /><path d="M 2855,1925 L 2945,1925 L 2945,2015 L 2855,2015 Z" /><path d="M 4155,1545 L 4245,1545 L 4245,1635 L 4155,1635 Z" /><path d="M 4415,2115 L 4505,2115 L 4505,2205 L 4415,2205 Z" /><path d="M 4675,1925 L 4765,1925 L 4765,2015 L 4675,2015 Z" /><path d="M 4935,1735 L 5025,1735 L 5025,1825 L 4935,1825 Z" /></g></g><g id="M1"><g class="l31d0"><path d="M 3340,915 L 3340,780 L 3340,310 L 3760,310 L 3760,780 L 3760,915 L 3860,915 L 3860,780 L 3860,310 L 5060,310 L 5060,1125 L 5060,1260 L 5160,1260 L 5160,1125 L 5160,310 L 5320,310 L 5320,780 L 5320,915 L 5420,915 L 5420,780 L 5420,310 L 6100,310 L 6100,780 L 6100,915 L 6200,915 L 6200,780 L 6200,310 L 6550,310 L 6550,120 L 290,120 L 290,310 L 640,310 L 640,780 L 640,915 L 740,915 L 740,780 L 740,310 L 1420,310 L 1420,780 L 1420,915 L 1520,915 L 1520,780 L 1520,310 L 1940,310 L 1940,1125 L 1940,1260 L 2040,1260 L 2040,1125 L 2040,310 L 3240,310 L 3240,780 L 3240,915 Z" /><path d="M 5420,3060 L 5420,2530 L 5420,2395 L 5320,2395 L 5320,2530 L 5320,3060 L 5160,3060 L 5160,2530 L 5160,2395 L 5060,2395 L 5060,2530 L 5060,3060 L 4640,3060 L 4640,2530 L 4640,2395 L 4540,2395 L 4540,2530 L 4540,3060 L 4120,3060 L 4120,2530 L 4120,2395 L 4020,2395 L 4020,2530 L 4020,3060 L 3340,3060 L 3340,2245 L 3340,2110 L 3240,2110 L 3240,2245 L 3240,3060 L 3080,3060 L 3080,2530 L 3080,2395 L 2980,2395 L 2980,2530 L 2980,3060 L 2560,3060 L 2560,2530 L 2560,2395 L 2460,2395 L 2460,2530 L 2460,3060 L 2040,3060 L 2040,2530 L 2040,2395 L 1940,2395 L 1940,2530 L 1940,3060 L 1520,3060 L 1520,2530 L 1520,2395 L 1420,2395 L 1420,2530 L 1420,3060 L 740,3060 L 740,2530 L 740,2395 L 640,2395 L 640,2530 L 640,3060 L 290,3060 L 290,3250 L 6550,3250 L 6550,3060 L 6200,3060 L 6200,2530 L 6200,2395 L 6100,2395 L 6100,2530 L 6100,3060 Z" /><path d="M 4020,760 L 4020,895 L 4020,920 L 4020,1100 L 4020,1125 L 4020,1260 L 4120,1260 L 4120,1125 L 4120,1100 L 4120,920 L 4120,895 L 4120,760 Z" /><path d="M 3860,2610 L 3860,2475 L 3860,2450 L 3860,2270 L 3860,2245 L 3860,2110 L 3760,2110 L 3760,2245 L 3760,2270 L 3760,2450 L 3760,2475 L 3760,2610 Z" /><path d="M 2980,760 L 2980,895 L 2980,920 L 2980,1100 L 2980,1125 L 2980,1260 L 3080,1260 L 3080,1125 L 3080,1100 L 3080,920 L 3080,895 L 3080,760 Z" /><path d="M 480,500 L 380,500 L 380,740 L 380,920 L 480,920 L 480,740 Z" /><path d="M 1000,500 L 900,500 L 900,740 L 900,920 L 1000,920 L 1000,740 Z" /><path d="M 1260,500 L 1160,500 L 1160,740 L 1160,920 L 1260,920 L 1260,740 Z" /><path d="M 1780,500 L 1680,500 L 1680,740 L 1680,920 L 1780,920 L 1780,740 Z" /><path d="M 5680,500 L 5580,500 L 5580,740 L 5580,920 L 5680,920 L 5680,740 Z" /><path d="M 5940,500 L 5840,500 L 5840,740 L 5840,920 L 5940,920 L 5940,740 Z" /><path d="M 6460,500 L 6360,500 L 6360,740 L 6360,920 L 6460,920 L 6460,740 Z" /><path d="M 6360,2390 L 6360,2570 L 6360,2810 L 6460,2810 L 6460,2570 L 6460,2390 Z" /><path d="M 5840,2390 L 5840,2570 L 5840,2810 L 5940,2810 L 5940,2570 L 5940,2390 Z" /><path d="M 5580,2390 L 5580,2570 L 5580,2810 L 5680,2810 L 5680,2570 L 5680,2390 Z" /><path d="M 1680,2390 L 1680,2570 L 1680,2810 L 1780,2810 L 1780,2570 L 1780,2390 Z" /><path d="M 1160,2390 L 1160,2570 L 1160,2810 L 1260,2810 L 1260,2570 L 1260,2390 Z" /><path d="M 900,2390 L 900,2570 L 900,2810 L 1000,2810 L 1000,2570 L 1000,2390 Z" /><path d="M 380,2390 L 380,2570 L 380,2810 L 480,2810 L 480,2570 L 480,2390 Z" /><path d="M 4800,2390 L 4800,2570 L 4800,2810 L 4900,2810 L 4900,2570 L 4900,2390 Z" /><path d="M 4280,2390 L 4280,2570 L 4280,2810 L 4380,2810 L 4380,2570 L 4380,2390 Z" /><path d="M 3600,500 L 3500,500 L 3500,740 L 3500,920 L 3600,920 L 3600,740 Z" /><path d="M 2720,2390 L 2720,2570 L 2720,2810 L 2820,2810 L 2820,2570 L 2820,2390 Z" /><path d="M 2200,2390 L 2200,2570 L 2200,2810 L 2300,2810 L 2300,2570 L 2300,2390 Z" /><path d="M 6195,1920 L 6365,1920 L 6365,2020 L 6195,2020 Z" /><path d="M 5810,1160 L 5810,1260 L 5935,1260 L 6105,1260 L 6230,1260 L 6230,1160 L 6105,1160 L 5935,1160 Z" /><path d="M 5290,1350 L 5290,1450 L 5415,1450 L 5585,1450 L 5710,1450 L 5710,1350 L 5585,1350 L 5415,1350 Z" /><path d="M 350,1540 L 350,1640 L 475,1640 L 645,1640 L 770,1640 L 770,1540 L 645,1540 L 475,1540 Z" /><path d="M 610,1350 L 610,1450 L 735,1450 L 905,1450 L 1030,1450 L 1030,1350 L 905,1350 L 735,1350 Z" /><path d="M 1130,1160 L 1130,1260 L 1255,1260 L 1425,1260 L 1550,1260 L 1550,1160 L 1425,1160 L 1255,1160 Z" /><path d="M 1390,1350 L 1390,1450 L 1515,1450 L 1685,1450 L 1810,1450 L 1810,1350 L 1685,1350 L 1515,1350 Z" /><path d="M 4250,2110 L 4250,2210 L 4375,2210 L 4545,2210 L 4670,2210 L 4670,2110 L 4545,2110 L 4375,2110 Z" /><path d="M 3120,1540 L 3030,1540 L 2940,1540 L 2940,1640 L 3030,1640 L 3120,1640 L 3595,1640 L 3680,1640 L 3765,1640 L 3765,1540 L 3680,1540 L 3595,1540 Z" /><path d="M 3980,1830 L 4070,1830 L 4160,1830 L 4160,1730 L 4070,1730 L 3980,1730 L 3505,1730 L 3420,1730 L 3335,1730 L 3335,1830 L 3420,1830 L 3505,1830 Z" /><path d="M 1820,1540 L 1730,1540 L 1640,1540 L 1640,1640 L 1730,1640 L 1820,1640 L 2035,1640 L 2120,1640 L 2205,1640 L 2205,1540 L 2120,1540 L 2035,1540 Z" /><path d="M 1300,1730 L 1210,1730 L 1120,1730 L 1120,1830 L 1210,1830 L 1300,1830 L 2295,1830 L 2380,1830 L 2465,1830 L 2465,1730 L 2380,1730 L 2295,1730 Z" /><path d="M 1040,2110 L 950,2110 L 860,2110 L 860,2210 L 950,2210 L 1040,2210 L 2555,2210 L 2640,2210 L 2725,2210 L 2725,2110 L 2640,2110 L 2555,2110 Z" /><path d="M 520,1920 L 430,1920 L 340,1920 L 340,2020 L 430,2020 L 520,2020 L 2815,2020 L 2900,2020 L 2985,2020 L 2985,1920 L 2900,1920 L 2815,1920 Z" /><path d="M 6320,1640 L 6410,1640 L 6500,1640 L 6500,1540 L 6410,1540 L 6320,1540 L 4285,1540 L 4200,1540 L 4115,1540 L 4115,1640 L 4200,1640 L 4285,1640 Z" /><path d="M 5800,2020 L 5890,2020 L 5980,2020 L 5980,1920 L 5890,1920 L 5800,1920 L 4805,1920 L 4720,1920 L 4635,1920 L 4635,2020 L 4720,2020 L 4805,2020 Z" /><path d="M 5540,1830 L 5630,1830 L 5720,1830 L 5720,1730 L 5630,1730 L 5540,1730 L 5065,1730 L 4980,1730 L 4895,1730 L 4895,1830 L 4980,1830 L 5065,1830 Z" /></g></g><g id="VIA1"><g class="l51d0"><path d="M 4020,960 L 4120,960 L 4120,1060 L 4020,1060 Z" /><path d="M 3760,2310 L 3860,2310 L 3860,2410 L 3760,2410 Z" /><path d="M 2980,960 L 3080,960 L 3080,1060 L 2980,1060 Z" /><path d="M 380,880 L 480,880 L 480,780 L 380,780 Z" /><path d="M 900,880 L 1000,880 L 1000,780 L 900,780 Z" /><path d="M 1160,880 L 1260,880 L 1260,780 L 1160,780 Z" /><path d="M 1680,880 L 1780,880 L 1780,780 L 1680,780 Z" /><path d="M 5580,880 L 5680,880 L 5680,780 L 5580,780 Z" /><path d="M 5840,880 L 5940,880 L 5940,780 L 5840,780 Z" /><path d="M 6360,880 L 6460,880 L 6460,780 L 6360,780 Z" /><path d="M 6360,2430 L 6460,2430 L 6460,2530 L 6360,2530 Z" /><path d="M 5840,2430 L 5940,2430 L 5940,2530 L 5840,2530 Z" /><path d="M 5580,2430 L 5680,2430 L 5680,2530 L 5580,2530 Z" /><path d="M 1680,2430 L 1780,2430 L 1780,2530 L 1680,2530 Z" /><path d="M 1160,2430 L 1260,2430 L 1260,2530 L 1160,2530 Z" /><path d="M 900,2430 L 1000,2430 L 1000,2530 L 900,2530 Z" /><path d="M 380,2430 L 480,2430 L 480,2530 L 380,2530 Z" /><path d="M 4800,2430 L 4900,2430 L 4900,2530 L 4800,2530 Z" /><path d="M 4280,2430 L 4380,2430 L 4380,2530 L 4280,2530 Z" /><path d="M 3500,880 L 3600,880 L 3600,780 L 3500,780 Z" /><path d="M 2720,2430 L 2820,2430 L 2820,2530 L 2720,2530 Z" /><path d="M 2200,2430 L 2300,2430 L 2300,2530 L 2200,2530 Z" /><path d="M 2980,1540 L 3080,1540 L 3080,1640 L 2980,1640 Z" /><path d="M 4020,1730 L 4120,1730 L 4120,1830 L 4020,1830 Z" /><path d="M 1680,1540 L 1780,1540 L 1780,1640 L 1680,1640 Z" /><path d="M 1160,1730 L 1260,1730 L 1260,1830 L 1160,1830 Z" /><path d="M 900,2110 L 1000,2110 L 1000,2210 L 900,2210 Z" /><path d="M 380,1920 L 480,1920 L 480,2020 L 380,2020 Z" /><path d="M 6360,1540 L 6460,1540 L 6460,1640 L 6360,1640 Z" /><path d="M 5840,1920 L 5940,1920 L 5940,2020 L 5840,2020 Z" /><path d="M 5580,1730 L 5680,1730 L 5680,1830 L 5580,1830 Z" /></g></g><g id="M2"><g class="l32d0"><path d="M 3760,2270 L 3760,2360 L 3760,2450 L 3860,2450 L 3860,2360 L 3860,2270 L 3860,880 L 3860,780 L 3760,780 L 3640,780 L 3550,780 L 3460,780 L 3460,880 L 3550,880 L 3640,880 L 3760,880 Z" /><path d="M 2770,2430 L 2680,2430 L 2340,2430 L 2250,2430 L 2160,2430 L 2160,2530 L 2250,2530 L 2340,2530 L 2680,2530 L 2770,2530 L 2860,2530 L 2980,2530 L 3080,2530 L 3080,2430 L 3080,1680 L 3080,1500 L 3080,1100 L 3080,1010 L 3080,920 L 2980,920 L 2980,1010 L 2980,1100 L 2980,1500 L 2980,1680 L 2980,2430 L 2860,2430 Z" /><path d="M 4940,2530 L 4940,2430 L 4850,2430 L 4760,2430 L 4420,2430 L 4330,2430 L 4240,2430 L 4120,2430 L 4120,1870 L 4120,1690 L 4120,1100 L 4120,1010 L 4120,920 L 4020,920 L 4020,1010 L 4020,1100 L 4020,1690 L 4020,1870 L 4020,2430 L 4020,2530 L 4120,2530 L 4240,2530 L 4330,2530 L 4420,2530 L 4760,2530 L 4850,2530 Z" /><path d="M 1780,830 L 1780,740 L 1680,740 L 1680,830 L 1680,920 L 1680,1500 L 1680,1590 L 1680,1680 L 1680,2390 L 1680,2480 L 1680,2570 L 1780,2570 L 1780,2480 L 1780,2390 L 1780,1680 L 1780,1590 L 1780,1500 L 1780,920 Z" /><path d="M 1160,1870 L 1160,2390 L 1160,2480 L 1160,2570 L 1260,2570 L 1260,2480 L 1260,2390 L 1260,1870 L 1260,1780 L 1260,1690 L 1260,920 L 1260,830 L 1260,740 L 1160,740 L 1160,830 L 1160,920 L 1160,1690 L 1160,1780 Z" /><path d="M 1000,830 L 1000,740 L 900,740 L 900,830 L 900,920 L 900,2070 L 900,2160 L 900,2250 L 900,2390 L 900,2480 L 900,2570 L 1000,2570 L 1000,2480 L 1000,2390 L 1000,2250 L 1000,2160 L 1000,2070 L 1000,920 Z" /><path d="M 380,2060 L 380,2390 L 380,2480 L 380,2570 L 480,2570 L 480,2480 L 480,2390 L 480,2060 L 480,1970 L 480,1880 L 480,920 L 480,830 L 480,740 L 380,740 L 380,830 L 380,920 L 380,1880 L 380,1970 Z" /><path d="M 6460,830 L 6460,740 L 6360,740 L 6360,830 L 6360,920 L 6360,1500 L 6360,1590 L 6360,1680 L 6360,2390 L 6360,2480 L 6360,2570 L 6460,2570 L 6460,2480 L 6460,2390 L 6460,1680 L 6460,1590 L 6460,1500 L 6460,920 Z" /><path d="M 5840,2060 L 5840,2390 L 5840,2480 L 5840,2570 L 5940,2570 L 5940,2390 L 5939,2390 L 5939,2060 L 5940,2060 L 5940,1880 L 5939,1880 L 5939,920 L 5940,920 L 5940,740 L 5840,740 L 5840,830 L 5840,920 L 5840,1880 L 5840,1970 Z" /><path d="M 5680,830 L 5680,740 L 5580,740 L 5580,830 L 5580,920 L 5580,1690 L 5580,1780 L 5580,1870 L 5580,2390 L 5580,2480 L 5580,2570 L 5680,2570 L 5680,2480 L 5680,2390 L 5680,1870 L 5680,1780 L 5680,1690 L 5680,920 Z" /></g></g></g></svg>