<svg width="17770" height="3550" viewBox="-5 -3545 17770 3550" xmlns="http://www.w3.org/2000/svg" xmlns:xlink="http://www.w3.org/1999/xlink"><defs><style type="text/css">.l3d0 {fill: #fef9e7; fill-opacity: 0.5; stroke-width: 10; stroke: #f1c40f; stroke-linecap: round; stroke-linejoin: round; stroke-opacity: 0.2;}.l25d0 {fill: #8e44ad; fill-opacity: 0.05; stroke-width: 10; stroke: #8e44ad; stroke-linecap: round; stroke-linejoin: round; stroke-opacity: 1;}.l26d0 {fill: #ccd1d1; fill-opacity: 0.05; stroke-width: 10; stroke: #ccd1d1; stroke-linecap: round; stroke-linejoin: round; stroke-opacity: 1;}.l6d0 {fill: #f5b7b1; fill-opacity: 1; stroke-width: 10; stroke: #e74c3c; stroke-linecap: round; stroke-linejoin: round; stroke-opacity: 1;}.l17d0 {fill: #2980b9; fill-opacity: 1; stroke-width: 0; stroke: #000000; stroke-linecap: round; stroke-linejoin: round; stroke-opacity: 0;}.l30d0 {fill: #27ae60; fill-opacity: 1; stroke-width: 0; stroke: #000000; stroke-linecap: round; stroke-linejoin: round; stroke-opacity: 0;}.l31d0 {fill: #85c1e9; fill-opacity: 0.6; stroke-width: 0; stroke: #000000; stroke-linecap: round; stroke-linejoin: round; stroke-opacity: 0;}.l51d0 {fill: #f39c12; fill-opacity: 1; stroke-width: 10; stroke: #f39c12; stroke-linecap: round; stroke-linejoin: round; stroke-opacity: 1;}.l32d0 {fill: #f7dc6f; fill-opacity: 0.6; stroke-width: 0; stroke: #000000; stroke-linecap: round; stroke-linejoin: round; stroke-opacity: 0;}.l52d0 {fill: #a04000; fill-opacity: 1; stroke-width: 10; stroke: #a04000; stroke-linecap: round; stroke-linejoin: round; stroke-opacity: 1;}.l33d0 {fill: #16a085; fill-opacity: 0.6; stroke-width: 0; stroke: #000000; stroke-linecap: round; stroke-linejoin: round; stroke-opacity: 0;}path {fill-rule: evenodd;}</style></defs><g transform="scale(1 -1)"><g id="NW"><g class="l3d0"><path d="M 9960,1900 L 8425,1900 L 8165,1900 L 7905,1900 L 7775,1900 L 7645,1900 L 7515,1900 L 7255,1900 L 6995,1900 L 5280,1900 L 4680,1900 L 3745,1900 L 3485,1900 L 3225,1900 L 3095,1900 L 2965,1900 L 2835,1900 L 2575,1900 L 2315,1900 L 0,1900 L 0,3540 L 4680,3540 L 5280,3540 L 9960,3540 L 14040,3540 L 15600,3540 L 16200,3540 L 17760,3540 L 17760,1900 L 17525,1900 L 16485,1900 L 16200,1900 L 16095,1900 L 15965,1900 L 15835,1900 L 15600,1900 L 14925,1900 L 14535,1900 L 14275,1900 L 14040,1900 Z" /></g></g><g id="PP"><g class="l25d0"><path d="M 9790,0 L 5110,0 L 4850,0 L 170,0 L 170,430 L 4850,430 L 5110,430 L 9790,430 L 14210,430 L 15770,430 L 16030,430 L 17590,430 L 17590,0 L 16030,0 L 15770,0 L 14210,0 Z" /><path d="M 12235,2940 L 12285,2940 L 12495,2940 L 12545,2940 L 12755,2940 L 13015,2940 L 13065,2940 L 13325,2940 L 13535,2940 L 13795,2940 L 13845,2940 L 14210,2940 L 14315,2940 L 14365,2940 L 14625,2940 L 14835,2940 L 15770,2940 L 15875,2940 L 15925,2940 L 16030,2940 L 16185,2940 L 16395,2940 L 17435,2940 L 17590,2940 L 17590,1685 L 16030,1685 L 15770,1685 L 14210,1685 L 9790,1685 L 5110,1685 L 4850,1685 L 170,1685 L 170,2940 L 325,2940 L 585,2940 L 795,2940 L 845,2940 L 1055,2940 L 1105,2940 L 1315,2940 L 1365,2940 L 1575,2940 L 1835,2940 L 1885,2940 L 2145,2940 L 2355,2940 L 2405,2940 L 2615,2940 L 2665,2940 L 2875,2940 L 2925,2940 L 3135,2940 L 3185,2940 L 3395,2940 L 3655,2940 L 3705,2940 L 3965,2940 L 4175,2940 L 4225,2940 L 4435,2940 L 4485,2940 L 4695,2940 L 4850,2940 L 4955,2940 L 5005,2940 L 5110,2940 L 5265,2940 L 5475,2940 L 5525,2940 L 5735,2940 L 5785,2940 L 5995,2940 L 6045,2940 L 6255,2940 L 6515,2940 L 6565,2940 L 6825,2940 L 7035,2940 L 7085,2940 L 7295,2940 L 7345,2940 L 7555,2940 L 7605,2940 L 7815,2940 L 7865,2940 L 8075,2940 L 8335,2940 L 8385,2940 L 8645,2940 L 8855,2940 L 8905,2940 L 9115,2940 L 9165,2940 L 9375,2940 L 9635,2940 L 9685,2940 L 9790,2940 L 9945,2940 L 10155,2940 L 10415,2940 L 10465,2940 L 10725,2940 L 10935,2940 L 10985,2940 L 11195,2940 L 11245,2940 L 11455,2940 L 11715,2940 L 11765,2940 L 12025,2940 Z" /></g></g><g id="NP"><g class="l26d0"><path d="M 9790,2940 L 5110,2940 L 4850,2940 L 170,2940 L 170,3370 L 4850,3370 L 5110,3370 L 9790,3370 L 14210,3370 L 15770,3370 L 16030,3370 L 17590,3370 L 17590,2940 L 16030,2940 L 15770,2940 L 14210,2940 Z" /><path d="M 17590,1685 L 17590,430 L 17435,430 L 16395,430 L 16185,430 L 16030,430 L 15925,430 L 15875,430 L 15770,430 L 14835,430 L 14625,430 L 14365,430 L 14315,430 L 14210,430 L 13845,430 L 13795,430 L 13535,430 L 13325,430 L 13065,430 L 13015,430 L 12755,430 L 12545,430 L 12495,430 L 12285,430 L 12235,430 L 12025,430 L 11765,430 L 11715,430 L 11455,430 L 11245,430 L 11195,430 L 10985,430 L 10935,430 L 10725,430 L 10465,430 L 10415,430 L 10155,430 L 9945,430 L 9790,430 L 9685,430 L 9635,430 L 9375,430 L 9165,430 L 9115,430 L 8905,430 L 8855,430 L 8645,430 L 8385,430 L 8335,430 L 8075,430 L 7865,430 L 7815,430 L 7605,430 L 7555,430 L 7345,430 L 7295,430 L 7085,430 L 7035,430 L 6825,430 L 6565,430 L 6515,430 L 6255,430 L 6045,430 L 5995,430 L 5785,430 L 5735,430 L 5525,430 L 5475,430 L 5265,430 L 5110,430 L 5005,430 L 4955,430 L 4850,430 L 4695,430 L 4485,430 L 4435,430 L 4225,430 L 4175,430 L 3965,430 L 3705,430 L 3655,430 L 3395,430 L 3185,430 L 3135,430 L 2925,430 L 2875,430 L 2665,430 L 2615,430 L 2405,430 L 2355,430 L 2145,430 L 1885,430 L 1835,430 L 1575,430 L 1365,430 L 1315,430 L 1105,430 L 1055,430 L 845,430 L 795,430 L 585,430 L 325,430 L 170,430 L 170,1685 L 4850,1685 L 5110,1685 L 9790,1685 L 14210,1685 L 15770,1685 L 16030,1685 Z" /></g></g><g id="OD"><g class="l6d0"><path d="M 9170,770 L 9110,770 L 9035,770 L 8985,770 L 8910,770 L 8850,770 L 8775,770 L 8775,1010 L 8850,1010 L 8910,1010 L 8985,1010 L 9035,1010 L 9110,1010 L 9170,1010 L 9245,1010 L 9295,1010 L 9370,1010 L 9430,1010 L 9505,1010 L 9590,1010 L 9590,770 L 9505,770 L 9430,770 L 9370,770 L 9295,770 L 9245,770 Z" /><path d="M 8774,1010 L 8774,770 L 8725,770 L 8650,770 L 8590,770 L 8515,770 L 8430,770 L 8430,1010 L 8515,1010 L 8590,1010 L 8650,1010 L 8725,1010 Z" /><path d="M 9170,2360 L 9110,2360 L 9035,2360 L 8985,2360 L 8910,2360 L 8850,2360 L 8775,2360 L 8775,2600 L 8850,2600 L 8910,2600 L 8985,2600 L 9035,2600 L 9110,2600 L 9170,2600 L 9245,2600 L 9295,2600 L 9370,2600 L 9430,2600 L 9505,2600 L 9590,2600 L 9590,2360 L 9505,2360 L 9430,2360 L 9370,2360 L 9295,2360 L 9245,2360 Z" /><path d="M 8430,2360 L 8430,2600 L 8515,2600 L 8590,2600 L 8650,2600 L 8725,2600 L 8774,2600 L 8774,2360 L 8725,2360 L 8650,2360 L 8590,2360 L 8515,2360 Z" /><path d="M 5655,2360 L 5605,2360 L 5530,2360 L 5470,2360 L 5395,2360 L 5345,2360 L 5270,2360 L 5210,2360 L 5135,2360 L 5050,2360 L 5050,2600 L 5135,2600 L 5210,2600 L 5270,2600 L 5345,2600 L 5395,2600 L 5470,2600 L 5530,2600 L 5605,2600 L 5655,2600 L 5730,2600 L 5790,2600 L 5865,2600 L 5915,2600 L 5990,2600 L 6050,2600 L 6125,2600 L 6175,2600 L 6250,2600 L 6310,2600 L 6385,2600 L 6470,2600 L 6470,2360 L 6385,2360 L 6310,2360 L 6250,2360 L 6175,2360 L 6125,2360 L 6050,2360 L 5990,2360 L 5915,2360 L 5865,2360 L 5790,2360 L 5730,2360 Z" /><path d="M 8070,1130 L 8130,1130 L 8205,1130 L 8290,1130 L 8290,770 L 8205,770 L 8130,770 L 8070,770 L 7995,770 L 7945,770 L 7870,770 L 7810,770 L 7735,770 L 7685,770 L 7610,770 L 7550,770 L 7475,770 L 7425,770 L 7350,770 L 7290,770 L 7215,770 L 7165,770 L 7090,770 L 7030,770 L 6955,770 L 6905,770 L 6830,770 L 6770,770 L 6695,770 L 6610,770 L 6610,1010 L 6695,1010 L 6770,1010 L 6830,1010 L 6905,1010 L 6955,1010 L 7030,1010 L 7090,1010 L 7165,1010 L 7165,1130 L 7215,1130 L 7290,1130 L 7350,1130 L 7425,1130 L 7475,1130 L 7550,1130 L 7610,1130 L 7685,1130 L 7735,1130 L 7810,1130 L 7870,1130 L 7945,1130 L 7995,1130 Z" /><path d="M 5605,1010 L 5605,1130 L 5655,1130 L 5730,1130 L 5790,1130 L 5865,1130 L 5915,1130 L 5990,1130 L 6050,1130 L 6125,1130 L 6175,1130 L 6250,1130 L 6310,1130 L 6385,1130 L 6470,1130 L 6470,770 L 6385,770 L 6310,770 L 6250,770 L 6175,770 L 6125,770 L 6050,770 L 5990,770 L 5915,770 L 5865,770 L 5790,770 L 5730,770 L 5655,770 L 5605,770 L 5530,770 L 5470,770 L 5395,770 L 5345,770 L 5270,770 L 5210,770 L 5135,770 L 5050,770 L 5050,1010 L 5135,1010 L 5210,1010 L 5270,1010 L 5345,1010 L 5395,1010 L 5470,1010 L 5530,1010 Z" /><path d="M 8070,2600 L 8130,2600 L 8205,2600 L 8290,2600 L 8290,2120 L 8205,2120 L 8130,2120 L 8070,2120 L 7995,2120 L 7945,2120 L 7870,2120 L 7810,2120 L 7735,2120 L 7685,2120 L 7610,2120 L 7550,2120 L 7475,2120 L 7425,2120 L 7350,2120 L 7290,2120 L 7215,2120 L 7165,2120 L 7165,2360 L 7090,2360 L 7030,2360 L 6955,2360 L 6905,2360 L 6830,2360 L 6770,2360 L 6695,2360 L 6610,2360 L 6610,2600 L 6695,2600 L 6770,2600 L 6830,2600 L 6905,2600 L 6955,2600 L 7030,2600 L 7090,2600 L 7165,2600 L 7215,2600 L 7290,2600 L 7350,2600 L 7425,2600 L 7475,2600 L 7550,2600 L 7610,2600 L 7685,2600 L 7735,2600 L 7810,2600 L 7870,2600 L 7945,2600 L 7995,2600 Z" /><path d="M 4490,770 L 4430,770 L 4355,770 L 4305,770 L 4230,770 L 4170,770 L 4095,770 L 4095,1010 L 4170,1010 L 4230,1010 L 4305,1010 L 4355,1010 L 4430,1010 L 4490,1010 L 4565,1010 L 4615,1010 L 4690,1010 L 4750,1010 L 4825,1010 L 4910,1010 L 4910,770 L 4825,770 L 4750,770 L 4690,770 L 4615,770 L 4565,770 Z" /><path d="M 4094,1010 L 4094,770 L 4045,770 L 3970,770 L 3910,770 L 3835,770 L 3750,770 L 3750,1010 L 3835,1010 L 3910,1010 L 3970,1010 L 4045,1010 Z" /><path d="M 4490,2360 L 4430,2360 L 4355,2360 L 4305,2360 L 4230,2360 L 4170,2360 L 4095,2360 L 4095,2600 L 4170,2600 L 4230,2600 L 4305,2600 L 4355,2600 L 4430,2600 L 4490,2600 L 4565,2600 L 4615,2600 L 4690,2600 L 4750,2600 L 4825,2600 L 4910,2600 L 4910,2360 L 4825,2360 L 4750,2360 L 4690,2360 L 4615,2360 L 4565,2360 Z" /><path d="M 3750,2360 L 3750,2600 L 3835,2600 L 3910,2600 L 3970,2600 L 4045,2600 L 4094,2600 L 4094,2360 L 4045,2360 L 3970,2360 L 3910,2360 L 3835,2360 Z" /><path d="M 975,2360 L 925,2360 L 850,2360 L 790,2360 L 715,2360 L 665,2360 L 590,2360 L 530,2360 L 455,2360 L 370,2360 L 370,2600 L 455,2600 L 530,2600 L 590,2600 L 665,2600 L 715,2600 L 790,2600 L 850,2600 L 925,2600 L 975,2600 L 1050,2600 L 1110,2600 L 1185,2600 L 1235,2600 L 1310,2600 L 1370,2600 L 1445,2600 L 1495,2600 L 1570,2600 L 1630,2600 L 1705,2600 L 1790,2600 L 1790,2360 L 1705,2360 L 1630,2360 L 1570,2360 L 1495,2360 L 1445,2360 L 1370,2360 L 1310,2360 L 1235,2360 L 1185,2360 L 1110,2360 L 1050,2360 Z" /><path d="M 3390,1130 L 3450,1130 L 3525,1130 L 3610,1130 L 3610,770 L 3525,770 L 3450,770 L 3390,770 L 3315,770 L 3265,770 L 3190,770 L 3130,770 L 3055,770 L 3005,770 L 2930,770 L 2870,770 L 2795,770 L 2745,770 L 2670,770 L 2610,770 L 2535,770 L 2485,770 L 2410,770 L 2350,770 L 2275,770 L 2225,770 L 2150,770 L 2090,770 L 2015,770 L 1930,770 L 1930,1010 L 2015,1010 L 2090,1010 L 2150,1010 L 2225,1010 L 2275,1010 L 2350,1010 L 2410,1010 L 2485,1010 L 2485,1130 L 2535,1130 L 2610,1130 L 2670,1130 L 2745,1130 L 2795,1130 L 2870,1130 L 2930,1130 L 3005,1130 L 3055,1130 L 3130,1130 L 3190,1130 L 3265,1130 L 3315,1130 Z" /><path d="M 925,1010 L 925,1130 L 975,1130 L 1050,1130 L 1110,1130 L 1185,1130 L 1235,1130 L 1310,1130 L 1370,1130 L 1445,1130 L 1495,1130 L 1570,1130 L 1630,1130 L 1705,1130 L 1790,1130 L 1790,770 L 1705,770 L 1630,770 L 1570,770 L 1495,770 L 1445,770 L 1370,770 L 1310,770 L 1235,770 L 1185,770 L 1110,770 L 1050,770 L 975,770 L 925,770 L 850,770 L 790,770 L 715,770 L 665,770 L 590,770 L 530,770 L 455,770 L 370,770 L 370,1010 L 455,1010 L 530,1010 L 590,1010 L 665,1010 L 715,1010 L 790,1010 L 850,1010 Z" /><path d="M 3390,2600 L 3450,2600 L 3525,2600 L 3610,2600 L 3610,2120 L 3525,2120 L 3450,2120 L 3390,2120 L 3315,2120 L 3265,2120 L 3190,2120 L 3130,2120 L 3055,2120 L 3005,2120 L 2930,2120 L 2870,2120 L 2795,2120 L 2745,2120 L 2670,2120 L 2610,2120 L 2535,2120 L 2485,2120 L 2485,2360 L 2410,2360 L 2350,2360 L 2275,2360 L 2225,2360 L 2150,2360 L 2090,2360 L 2015,2360 L 1930,2360 L 1930,2600 L 2015,2600 L 2090,2600 L 2150,2600 L 2225,2600 L 2275,2600 L 2350,2600 L 2410,2600 L 2485,2600 L 2535,2600 L 2610,2600 L 2670,2600 L 2745,2600 L 2795,2600 L 2870,2600 L 2930,2600 L 3005,2600 L 3055,2600 L 3130,2600 L 3190,2600 L 3265,2600 L 3315,2600 Z" /><path d="M 17390,770 L 17305,770 L 17230,770 L 16450,770 L 16390,770 L 16315,770 L 16265,770 L 16190,770 L 16130,770 L 16055,770 L 15970,770 L 15970,1250 L 16055,1250 L 16130,1250 L 16190,1250 L 16265,1250 L 16315,1250 L 16390,1250 L 16450,1250 L 17230,1250 L 17305,1250 L 17390,1250 Z" /><path d="M 16315,2600 L 16390,2600 L 16450,2600 L 17230,2600 L 17305,2600 L 17390,2600 L 17390,2120 L 17305,2120 L 17230,2120 L 16450,2120 L 16390,2120 L 16315,2120 L 16265,2120 L 16190,2120 L 16130,2120 L 16055,2120 L 15970,2120 L 15970,2600 L 16055,2600 L 16130,2600 L 16190,2600 L 16265,2600 Z" /><path d="M 9660,130 L 4980,130 L 300,130 L 300,300 L 4980,300 L 9660,300 L 14340,300 L 15900,300 L 17460,300 L 17460,130 L 15900,130 L 14340,130 Z" /><path d="M 9660,3070 L 4980,3070 L 300,3070 L 300,3240 L 4980,3240 L 9660,3240 L 14340,3240 L 15900,3240 L 17460,3240 L 17460,3070 L 15900,3070 L 14340,3070 Z" /><path d="M 15830,770 L 15745,770 L 15670,770 L 14890,770 L 14830,770 L 14755,770 L 14705,770 L 14630,770 L 14570,770 L 14495,770 L 14410,770 L 14410,1250 L 14495,1250 L 14570,1250 L 14630,1250 L 14705,1250 L 14755,1250 L 14830,1250 L 14890,1250 L 15670,1250 L 15745,1250 L 15830,1250 Z" /><path d="M 14755,2600 L 14830,2600 L 14890,2600 L 15670,2600 L 15745,2600 L 15830,2600 L 15830,2120 L 15745,2120 L 15670,2120 L 14890,2120 L 14830,2120 L 14755,2120 L 14705,2120 L 14630,2120 L 14570,2120 L 14495,2120 L 14410,2120 L 14410,2600 L 14495,2600 L 14570,2600 L 14630,2600 L 14705,2600 Z" /><path d="M 13890,2600 L 13975,2600 L 14050,2600 L 14110,2600 L 14185,2600 L 14270,2600 L 14270,2360 L 14185,2360 L 14110,2360 L 14050,2360 L 13975,2360 L 13890,2360 L 13750,2360 L 13665,2360 L 13590,2360 L 13530,2360 L 13455,2360 L 13405,2360 L 13330,2360 L 13270,2360 L 13195,2360 L 13110,2360 L 13110,2600 L 13195,2600 L 13270,2600 L 13330,2600 L 13405,2600 L 13455,2600 L 13530,2600 L 13590,2600 L 13665,2600 L 13750,2600 Z" /><path d="M 12490,2600 L 12550,2600 L 12625,2600 L 12675,2600 L 12750,2600 L 12810,2600 L 12885,2600 L 12970,2600 L 12970,2360 L 12885,2360 L 12810,2360 L 12750,2360 L 12675,2360 L 12625,2360 L 12550,2360 L 12490,2360 L 12415,2360 L 12365,2360 L 12290,2360 L 12230,2360 L 12155,2360 L 12105,2360 L 12030,2360 L 11970,2360 L 11895,2360 L 11810,2360 L 11810,2600 L 11895,2600 L 11970,2600 L 12030,2600 L 12105,2600 L 12155,2600 L 12230,2600 L 12290,2600 L 12365,2600 L 12415,2600 Z" /><path d="M 10370,2360 L 10285,2360 L 10210,2360 L 10150,2360 L 10075,2360 L 10025,2360 L 9950,2360 L 9890,2360 L 9815,2360 L 9730,2360 L 9730,2600 L 9815,2600 L 9890,2600 L 9950,2600 L 10025,2600 L 10075,2600 L 10150,2600 L 10210,2600 L 10285,2600 L 10370,2600 Z" /><path d="M 11190,2600 L 11250,2600 L 11325,2600 L 11375,2600 L 11450,2600 L 11510,2600 L 11585,2600 L 11670,2600 L 11670,2360 L 11585,2360 L 11510,2360 L 11450,2360 L 11375,2360 L 11325,2360 L 11250,2360 L 11190,2360 L 11115,2360 L 11065,2360 L 10990,2360 L 10930,2360 L 10855,2360 L 10805,2360 L 10730,2360 L 10670,2360 L 10595,2360 L 10510,2360 L 10510,2600 L 10595,2600 L 10670,2600 L 10730,2600 L 10805,2600 L 10855,2600 L 10930,2600 L 10990,2600 L 11065,2600 L 11115,2600 Z" /><path d="M 10385,770 L 10285,770 L 10210,770 L 10150,770 L 10075,770 L 10025,770 L 9950,770 L 9890,770 L 9815,770 L 9715,770 L 9715,890 L 9815,890 L 9890,890 L 9950,890 L 10025,890 L 10075,890 L 10150,890 L 10210,890 L 10285,890 L 10385,890 Z" /><path d="M 14110,890 L 14185,890 L 14285,890 L 14285,770 L 14185,770 L 14110,770 L 14050,770 L 13975,770 L 13875,770 L 13750,770 L 13665,770 L 13590,770 L 13530,770 L 13455,770 L 13405,770 L 13330,770 L 13270,770 L 13195,770 L 13110,770 L 13110,1010 L 13195,1010 L 13270,1010 L 13330,1010 L 13405,1010 L 13455,1010 L 13530,1010 L 13590,1010 L 13665,1010 L 13750,1010 L 13750,890 L 13875,890 L 13975,890 L 14050,890 Z" /><path d="M 12490,770 L 12415,770 L 12365,770 L 12290,770 L 12230,770 L 12155,770 L 12105,770 L 12030,770 L 11970,770 L 11895,770 L 11810,770 L 11810,1010 L 11895,1010 L 11970,1010 L 12030,1010 L 12105,1010 L 12155,1010 L 12230,1010 L 12290,1010 L 12365,1010 L 12415,1010 L 12490,1010 L 12550,1010 L 12625,1010 L 12675,1010 L 12750,1010 L 12810,1010 L 12885,1010 L 12970,1010 L 12970,770 L 12885,770 L 12810,770 L 12750,770 L 12675,770 L 12625,770 L 12550,770 Z" /><path d="M 11190,770 L 11115,770 L 11065,770 L 10990,770 L 10930,770 L 10855,770 L 10805,770 L 10730,770 L 10670,770 L 10595,770 L 10510,770 L 10510,1010 L 10595,1010 L 10670,1010 L 10730,1010 L 10805,1010 L 10855,1010 L 10930,1010 L 10990,1010 L 11065,1010 L 11115,1010 L 11190,1010 L 11250,1010 L 11325,1010 L 11375,1010 L 11450,1010 L 11510,1010 L 11585,1010 L 11670,1010 L 11670,770 L 11585,770 L 11510,770 L 11450,770 L 11375,770 L 11325,770 L 11250,770 Z" /></g></g><g id="PO"><g class="l17d0"><path d="M 5270,1010 L 5270,770 L 5270,630 L 5210,630 L 5210,770 L 5210,1010 L 5210,1150 L 5210,1505 L 5185,1505 L 5185,1675 L 5210,1675 L 5210,2220 L 5210,2360 L 5210,2600 L 5210,2740 L 5270,2740 L 5270,2600 L 5270,2360 L 5270,2220 L 5270,1675 L 5295,1675 L 5295,1505 L 5270,1505 L 5270,1150 Z" /><path d="M 6830,1010 L 6830,770 L 6830,630 L 6770,630 L 6770,770 L 6770,1010 L 6770,1150 L 6770,1400 L 6770,2110 L 6745,2110 L 6745,2280 L 6770,2280 L 6770,2360 L 6770,2600 L 6770,2740 L 6830,2740 L 6830,2600 L 6830,2360 L 6830,2280 L 6855,2280 L 6855,2110 L 6830,2110 L 6830,1400 L 6830,1150 Z" /><path d="M 5470,2360 L 5470,2600 L 5470,2740 L 5530,2740 L 5530,2600 L 5530,2360 L 5530,2220 L 5530,2055 L 5555,2055 L 5555,1885 L 5530,1885 L 5530,1150 L 5530,1010 L 5530,770 L 5530,630 L 5470,630 L 5470,770 L 5470,1010 L 5470,1150 L 5470,1885 L 5445,1885 L 5445,2055 L 5470,2055 L 5470,2220 Z" /><path d="M 5730,2360 L 5730,2600 L 5730,2740 L 5790,2740 L 5790,2600 L 5790,2360 L 5790,2220 L 5790,1865 L 5820,1865 L 5820,1695 L 5790,1695 L 5790,1270 L 5790,1130 L 5790,770 L 5790,630 L 5730,630 L 5730,770 L 5730,1130 L 5730,1270 L 5730,1695 L 5700,1695 L 5700,1865 L 5730,1865 L 5730,2220 Z" /><path d="M 7350,1130 L 7350,770 L 7350,630 L 7290,630 L 7290,770 L 7290,1130 L 7290,1270 L 7290,1315 L 7260,1315 L 7260,1485 L 7290,1485 L 7290,1980 L 7290,2120 L 7290,2600 L 7290,2740 L 7350,2740 L 7350,2600 L 7350,2120 L 7350,1980 L 7350,1485 L 7380,1485 L 7380,1315 L 7350,1315 L 7350,1270 Z" /><path d="M 7610,1270 L 7610,1130 L 7610,770 L 7610,630 L 7550,630 L 7550,770 L 7550,1130 L 7550,1270 L 7550,1695 L 7520,1695 L 7520,1865 L 7550,1865 L 7550,1980 L 7550,2120 L 7550,2600 L 7550,2740 L 7610,2740 L 7610,2600 L 7610,2120 L 7610,1980 L 7609,1980 L 7609,1865 L 7640,1865 L 7640,1695 L 7609,1695 L 7609,1270 Z" /><path d="M 7090,1150 L 7090,1010 L 7090,770 L 7090,630 L 7030,630 L 7030,770 L 7030,1010 L 7030,1150 L 7030,1695 L 7000,1695 L 7000,1865 L 7030,1865 L 7030,2220 L 7030,2360 L 7030,2600 L 7030,2740 L 7090,2740 L 7090,2600 L 7090,2360 L 7090,2220 L 7089,2220 L 7089,1865 L 7120,1865 L 7120,1695 L 7089,1695 L 7089,1150 Z" /><path d="M 6250,2360 L 6250,2600 L 6250,2740 L 6310,2740 L 6310,2600 L 6310,2360 L 6310,2220 L 6310,1865 L 6340,1865 L 6340,1695 L 6310,1695 L 6310,1270 L 6310,1130 L 6310,770 L 6310,630 L 6250,630 L 6250,770 L 6250,1130 L 6250,1270 L 6250,1695 L 6220,1695 L 6220,1865 L 6250,1865 L 6250,2220 Z" /><path d="M 5990,2360 L 5990,2600 L 5990,2740 L 6050,2740 L 6050,2600 L 6050,2360 L 6050,2220 L 6050,1485 L 6080,1485 L 6080,1315 L 6050,1315 L 6050,1270 L 6050,1130 L 6050,770 L 6050,630 L 5990,630 L 5990,770 L 5990,1130 L 5990,1270 L 5990,1315 L 5960,1315 L 5960,1485 L 5990,1485 L 5990,2220 Z" /><path d="M 8130,1270 L 8130,1130 L 8130,770 L 8130,630 L 8070,630 L 8070,770 L 8070,1130 L 8070,1270 L 8070,1505 L 8040,1505 L 8040,1675 L 8070,1675 L 8070,1980 L 8070,2120 L 8070,2600 L 8070,2740 L 8130,2740 L 8130,2600 L 8130,2120 L 8130,1980 L 8129,1980 L 8129,1675 L 8160,1675 L 8160,1505 L 8129,1505 L 8129,1270 Z" /><path d="M 9170,1010 L 9170,770 L 9170,630 L 9110,630 L 9110,770 L 9110,1010 L 9110,1150 L 9110,2110 L 9080,2110 L 9080,2280 L 9110,2280 L 9110,2360 L 9110,2600 L 9110,2740 L 9170,2740 L 9170,2600 L 9170,2360 L 9170,2280 L 9200,2280 L 9200,2110 L 9170,2110 L 9170,1150 Z" /><path d="M 7870,1130 L 7870,770 L 7870,630 L 7810,630 L 7810,770 L 7810,1130 L 7810,1270 L 7810,1885 L 7780,1885 L 7780,2055 L 7810,2055 L 7810,2120 L 7810,2600 L 7810,2740 L 7870,2740 L 7870,2600 L 7870,2120 L 7870,2055 L 7900,2055 L 7900,1885 L 7870,1885 L 7870,1270 Z" /><path d="M 9370,2220 L 9370,2360 L 9370,2600 L 9370,2740 L 9430,2740 L 9430,2600 L 9430,2360 L 9430,2220 L 9430,1865 L 9460,1865 L 9460,1695 L 9430,1695 L 9430,1150 L 9430,1010 L 9430,770 L 9430,630 L 9370,630 L 9370,770 L 9370,1010 L 9370,1150 L 9369,1150 L 9369,1695 L 9340,1695 L 9340,1865 L 9369,1865 L 9369,2220 Z" /><path d="M 8910,1010 L 8910,770 L 8910,630 L 8850,630 L 8850,770 L 8850,1010 L 8850,1150 L 8850,1505 L 8820,1505 L 8820,1675 L 8850,1675 L 8850,2220 L 8850,2360 L 8850,2600 L 8850,2740 L 8910,2740 L 8910,2600 L 8910,2360 L 8910,2220 L 8910,1675 L 8940,1675 L 8940,1505 L 8910,1505 L 8910,1150 Z" /><path d="M 8650,1150 L 8650,1010 L 8650,770 L 8650,630 L 8590,630 L 8590,770 L 8590,1010 L 8590,1150 L 8590,1885 L 8560,1885 L 8560,2055 L 8590,2055 L 8590,2220 L 8590,2360 L 8590,2600 L 8590,2740 L 8650,2740 L 8650,2600 L 8650,2360 L 8650,2220 L 8649,2220 L 8649,2055 L 8680,2055 L 8680,1885 L 8649,1885 L 8649,1150 Z" /><path d="M 590,1010 L 590,770 L 590,630 L 530,630 L 530,770 L 530,1010 L 530,1150 L 530,1505 L 505,1505 L 505,1675 L 530,1675 L 530,2220 L 530,2360 L 530,2600 L 530,2740 L 590,2740 L 590,2600 L 590,2360 L 590,2220 L 590,1675 L 615,1675 L 615,1505 L 590,1505 L 590,1150 Z" /><path d="M 2150,1010 L 2150,770 L 2150,630 L 2090,630 L 2090,770 L 2090,1010 L 2090,1150 L 2090,1400 L 2090,2110 L 2065,2110 L 2065,2280 L 2090,2280 L 2090,2360 L 2090,2600 L 2090,2740 L 2150,2740 L 2150,2600 L 2150,2360 L 2150,2280 L 2175,2280 L 2175,2110 L 2150,2110 L 2150,1400 L 2150,1150 Z" /><path d="M 790,2360 L 790,2600 L 790,2740 L 850,2740 L 850,2600 L 850,2360 L 850,2220 L 850,2055 L 875,2055 L 875,1885 L 850,1885 L 850,1150 L 850,1010 L 850,770 L 850,630 L 790,630 L 790,770 L 790,1010 L 790,1150 L 790,1885 L 765,1885 L 765,2055 L 790,2055 L 790,2220 Z" /><path d="M 1050,2360 L 1050,2600 L 1050,2740 L 1110,2740 L 1110,2600 L 1110,2360 L 1110,2220 L 1110,1865 L 1140,1865 L 1140,1695 L 1110,1695 L 1110,1270 L 1110,1130 L 1110,770 L 1110,630 L 1050,630 L 1050,770 L 1050,1130 L 1050,1270 L 1050,1695 L 1020,1695 L 1020,1865 L 1050,1865 L 1050,2220 Z" /><path d="M 2670,1130 L 2670,770 L 2670,630 L 2610,630 L 2610,770 L 2610,1130 L 2610,1270 L 2610,1315 L 2580,1315 L 2580,1485 L 2610,1485 L 2610,1980 L 2610,2120 L 2610,2600 L 2610,2740 L 2670,2740 L 2670,2600 L 2670,2120 L 2670,1980 L 2670,1485 L 2700,1485 L 2700,1315 L 2670,1315 L 2670,1270 Z" /><path d="M 2930,1270 L 2930,1130 L 2930,770 L 2930,630 L 2870,630 L 2870,770 L 2870,1130 L 2870,1270 L 2870,1695 L 2840,1695 L 2840,1865 L 2870,1865 L 2870,1980 L 2870,2120 L 2870,2600 L 2870,2740 L 2930,2740 L 2930,2600 L 2930,2120 L 2930,1980 L 2929,1980 L 2929,1865 L 2960,1865 L 2960,1695 L 2929,1695 L 2929,1270 Z" /><path d="M 2410,1150 L 2410,1010 L 2410,770 L 2410,630 L 2350,630 L 2350,770 L 2350,1010 L 2350,1150 L 2350,1695 L 2320,1695 L 2320,1865 L 2350,1865 L 2350,2220 L 2350,2360 L 2350,2600 L 2350,2740 L 2410,2740 L 2410,2600 L 2410,2360 L 2410,2220 L 2409,2220 L 2409,1865 L 2440,1865 L 2440,1695 L 2409,1695 L 2409,1150 Z" /><path d="M 1570,2360 L 1570,2600 L 1570,2740 L 1630,2740 L 1630,2600 L 1630,2360 L 1630,2220 L 1630,1865 L 1660,1865 L 1660,1695 L 1630,1695 L 1630,1270 L 1630,1130 L 1630,770 L 1630,630 L 1570,630 L 1570,770 L 1570,1130 L 1570,1270 L 1570,1695 L 1540,1695 L 1540,1865 L 1570,1865 L 1570,2220 Z" /><path d="M 1310,2360 L 1310,2600 L 1310,2740 L 1370,2740 L 1370,2600 L 1370,2360 L 1370,2220 L 1370,1485 L 1400,1485 L 1400,1315 L 1370,1315 L 1370,1270 L 1370,1130 L 1370,770 L 1370,630 L 1310,630 L 1310,770 L 1310,1130 L 1310,1270 L 1310,1315 L 1280,1315 L 1280,1485 L 1310,1485 L 1310,2220 Z" /><path d="M 3450,1270 L 3450,1130 L 3450,770 L 3450,630 L 3390,630 L 3390,770 L 3390,1130 L 3390,1270 L 3390,1505 L 3360,1505 L 3360,1675 L 3390,1675 L 3390,1980 L 3390,2120 L 3390,2600 L 3390,2740 L 3450,2740 L 3450,2600 L 3450,2120 L 3450,1980 L 3449,1980 L 3449,1675 L 3480,1675 L 3480,1505 L 3449,1505 L 3449,1270 Z" /><path d="M 4490,1010 L 4490,770 L 4490,630 L 4430,630 L 4430,770 L 4430,1010 L 4430,1150 L 4430,2110 L 4400,2110 L 4400,2280 L 4430,2280 L 4430,2360 L 4430,2600 L 4430,2740 L 4490,2740 L 4490,2600 L 4490,2360 L 4490,2280 L 4520,2280 L 4520,2110 L 4490,2110 L 4490,1150 Z" /><path d="M 3190,1130 L 3190,770 L 3190,630 L 3130,630 L 3130,770 L 3130,1130 L 3130,1270 L 3130,1885 L 3100,1885 L 3100,2055 L 3130,2055 L 3130,2120 L 3130,2600 L 3130,2740 L 3190,2740 L 3190,2600 L 3190,2120 L 3190,2055 L 3220,2055 L 3220,1885 L 3190,1885 L 3190,1270 Z" /><path d="M 4690,2220 L 4690,2360 L 4690,2600 L 4690,2740 L 4750,2740 L 4750,2600 L 4750,2360 L 4750,2220 L 4750,1865 L 4780,1865 L 4780,1695 L 4750,1695 L 4750,1150 L 4750,1010 L 4750,770 L 4750,630 L 4690,630 L 4690,770 L 4690,1010 L 4690,1150 L 4689,1150 L 4689,1695 L 4660,1695 L 4660,1865 L 4689,1865 L 4689,2220 Z" /><path d="M 4230,1010 L 4230,770 L 4230,630 L 4170,630 L 4170,770 L 4170,1010 L 4170,1150 L 4170,1505 L 4140,1505 L 4140,1675 L 4170,1675 L 4170,2220 L 4170,2360 L 4170,2600 L 4170,2740 L 4230,2740 L 4230,2600 L 4230,2360 L 4230,2220 L 4230,1675 L 4260,1675 L 4260,1505 L 4230,1505 L 4230,1150 Z" /><path d="M 3970,1150 L 3970,1010 L 3970,770 L 3970,630 L 3910,630 L 3910,770 L 3910,1010 L 3910,1150 L 3910,1885 L 3880,1885 L 3880,2055 L 3910,2055 L 3910,2220 L 3910,2360 L 3910,2600 L 3910,2740 L 3970,2740 L 3970,2600 L 3970,2360 L 3970,2220 L 3969,2220 L 3969,2055 L 4000,2055 L 4000,1885 L 3969,1885 L 3969,1150 Z" /><path d="M 17230,1250 L 17230,770 L 17230,630 L 17170,630 L 17170,770 L 17170,1250 L 17170,1390 L 17170,1505 L 17145,1505 L 17145,1675 L 17170,1675 L 17170,1980 L 17170,2120 L 17170,2600 L 17170,2740 L 17230,2740 L 17230,2600 L 17230,2120 L 17230,1980 L 17230,1675 L 17255,1675 L 17255,1505 L 17230,1505 L 17230,1390 Z" /><path d="M 16970,1250 L 16970,770 L 16970,630 L 16910,630 L 16910,770 L 16910,1250 L 16910,1390 L 16910,1505 L 16885,1505 L 16885,1675 L 16910,1675 L 16910,1980 L 16910,2120 L 16910,2600 L 16910,2740 L 16970,2740 L 16970,2600 L 16970,2120 L 16970,1980 L 16970,1675 L 16995,1675 L 16995,1505 L 16970,1505 L 16970,1390 Z" /><path d="M 16710,1250 L 16710,770 L 16710,630 L 16650,630 L 16650,770 L 16650,1250 L 16650,1390 L 16650,1505 L 16625,1505 L 16625,1675 L 16650,1675 L 16650,1980 L 16650,2120 L 16650,2600 L 16650,2740 L 16710,2740 L 16710,2600 L 16710,2120 L 16710,1980 L 16710,1675 L 16735,1675 L 16735,1505 L 16710,1505 L 16710,1390 Z" /><path d="M 16450,1250 L 16450,770 L 16450,630 L 16390,630 L 16390,770 L 16390,1250 L 16390,1390 L 16390,1505 L 16365,1505 L 16365,1675 L 16390,1675 L 16390,1980 L 16390,2120 L 16390,2600 L 16390,2740 L 16450,2740 L 16450,2600 L 16450,2120 L 16450,1980 L 16450,1675 L 16475,1675 L 16475,1505 L 16450,1505 L 16450,1390 Z" /><path d="M 16190,1250 L 16190,770 L 16190,630 L 16130,630 L 16130,770 L 16130,1250 L 16130,1390 L 16130,1695 L 16105,1695 L 16105,1865 L 16130,1865 L 16130,1980 L 16130,2120 L 16130,2600 L 16130,2740 L 16190,2740 L 16190,2600 L 16190,2120 L 16190,1980 L 16190,1865 L 16215,1865 L 16215,1695 L 16190,1695 L 16190,1390 Z" /><path d="M 15670,1250 L 15670,770 L 15670,630 L 15610,630 L 15610,770 L 15610,1250 L 15610,1390 L 15610,1505 L 15585,1505 L 15585,1675 L 15610,1675 L 15610,1980 L 15610,2120 L 15610,2600 L 15610,2740 L 15670,2740 L 15670,2600 L 15670,2120 L 15670,1980 L 15670,1675 L 15695,1675 L 15695,1505 L 15670,1505 L 15670,1390 Z" /><path d="M 15410,1250 L 15410,770 L 15410,630 L 15350,630 L 15350,770 L 15350,1250 L 15350,1390 L 15350,1505 L 15325,1505 L 15325,1675 L 15350,1675 L 15350,1980 L 15350,2120 L 15350,2600 L 15350,2740 L 15410,2740 L 15410,2600 L 15410,2120 L 15410,1980 L 15410,1675 L 15435,1675 L 15435,1505 L 15410,1505 L 15410,1390 Z" /><path d="M 15150,1250 L 15150,770 L 15150,630 L 15090,630 L 15090,770 L 15090,1250 L 15090,1390 L 15090,1505 L 15065,1505 L 15065,1675 L 15090,1675 L 15090,1980 L 15090,2120 L 15090,2600 L 15090,2740 L 15150,2740 L 15150,2600 L 15150,2120 L 15150,1980 L 15150,1675 L 15175,1675 L 15175,1505 L 15150,1505 L 15150,1390 Z" /><path d="M 14890,1250 L 14890,770 L 14890,630 L 14830,630 L 14830,770 L 14830,1250 L 14830,1390 L 14830,1505 L 14805,1505 L 14805,1675 L 14830,1675 L 14830,1980 L 14830,2120 L 14830,2600 L 14830,2740 L 14890,2740 L 14890,2600 L 14890,2120 L 14890,1980 L 14890,1675 L 14915,1675 L 14915,1505 L 14890,1505 L 14890,1390 Z" /><path d="M 14630,1250 L 14630,770 L 14630,630 L 14570,630 L 14570,770 L 14570,1250 L 14570,1390 L 14570,1695 L 14545,1695 L 14545,1865 L 14570,1865 L 14570,1980 L 14570,2120 L 14570,2600 L 14570,2740 L 14630,2740 L 14630,2600 L 14630,2120 L 14630,1980 L 14630,1865 L 14655,1865 L 14655,1695 L 14630,1695 L 14630,1390 Z" /><path d="M 14050,2360 L 14050,2600 L 14050,2740 L 14110,2740 L 14110,2600 L 14110,2360 L 14110,2220 L 14110,1675 L 14135,1675 L 14135,1505 L 14110,1505 L 14110,1030 L 14110,890 L 14110,770 L 14110,630 L 14050,630 L 14050,770 L 14050,890 L 14050,1030 L 14050,1505 L 14025,1505 L 14025,1675 L 14050,1675 L 14050,2220 Z" /><path d="M 12810,1010 L 12810,770 L 12810,630 L 12750,630 L 12750,770 L 12750,1010 L 12750,1150 L 12750,1695 L 12725,1695 L 12725,1865 L 12750,1865 L 12750,2220 L 12750,2360 L 12750,2600 L 12750,2740 L 12810,2740 L 12810,2600 L 12810,2360 L 12810,2220 L 12810,1865 L 12835,1865 L 12835,1695 L 12810,1695 L 12810,1150 Z" /><path d="M 11450,2220 L 11450,2360 L 11450,2600 L 11450,2740 L 11510,2740 L 11510,2600 L 11510,2360 L 11510,2220 L 11510,1295 L 11535,1295 L 11535,1125 L 11510,1125 L 11510,1010 L 11510,770 L 11510,630 L 11450,630 L 11450,770 L 11450,1010 L 11450,1125 L 11425,1125 L 11425,1295 L 11450,1295 Z" /><path d="M 12290,1010 L 12290,770 L 12290,630 L 12230,630 L 12230,770 L 12230,1010 L 12230,1150 L 12230,1505 L 12205,1505 L 12205,1675 L 12230,1675 L 12230,2220 L 12230,2360 L 12230,2600 L 12230,2740 L 12290,2740 L 12290,2600 L 12290,2360 L 12290,2220 L 12290,1675 L 12315,1675 L 12315,1505 L 12290,1505 L 12290,1150 Z" /><path d="M 10990,1150 L 10990,1010 L 10990,770 L 10990,630 L 10930,630 L 10930,770 L 10930,1010 L 10930,1150 L 10930,2075 L 10905,2075 L 10905,2245 L 10930,2245 L 10930,2360 L 10930,2600 L 10930,2740 L 10990,2740 L 10990,2600 L 10990,2360 L 10990,2245 L 11015,2245 L 11015,2075 L 10990,2075 Z" /><path d="M 10150,2360 L 10150,2600 L 10150,2740 L 10210,2740 L 10210,2600 L 10210,2360 L 10210,2220 L 10209,2220 L 10209,1295 L 10235,1295 L 10235,1125 L 10209,1125 L 10209,1030 L 10210,1030 L 10210,890 L 10210,770 L 10210,630 L 10150,630 L 10150,770 L 10150,890 L 10150,1030 L 10150,1125 L 10125,1125 L 10125,1295 L 10150,1295 L 10150,2220 Z" /><path d="M 9890,2360 L 9890,2600 L 9890,2740 L 9950,2740 L 9950,2600 L 9950,2360 L 9950,2220 L 9950,1865 L 9975,1865 L 9975,1695 L 9950,1695 L 9950,1030 L 9950,890 L 9950,770 L 9950,630 L 9890,630 L 9890,770 L 9890,890 L 9890,1030 L 9890,1695 L 9865,1695 L 9865,1865 L 9890,1865 L 9890,2220 Z" /><path d="M 13590,1010 L 13590,770 L 13590,630 L 13530,630 L 13530,770 L 13530,1010 L 13530,1150 L 13530,1315 L 13505,1315 L 13505,1485 L 13530,1485 L 13530,2220 L 13530,2360 L 13530,2600 L 13530,2740 L 13590,2740 L 13590,2600 L 13590,2360 L 13590,2220 L 13590,1485 L 13615,1485 L 13615,1315 L 13590,1315 L 13590,1150 Z" /><path d="M 12030,1010 L 12030,770 L 12030,630 L 11970,630 L 11970,770 L 11970,1010 L 11970,1150 L 11970,1315 L 11945,1315 L 11945,1485 L 11970,1485 L 11970,2220 L 11970,2360 L 11970,2600 L 11970,2740 L 12030,2740 L 12030,2600 L 12030,2360 L 12030,2220 L 12030,1485 L 12055,1485 L 12055,1315 L 12030,1315 L 12030,1150 Z" /><path d="M 11250,1010 L 11250,770 L 11250,630 L 11190,630 L 11190,770 L 11190,1010 L 11190,1150 L 11190,1315 L 11165,1315 L 11165,1485 L 11190,1485 L 11190,2220 L 11190,2360 L 11190,2600 L 11190,2740 L 11250,2740 L 11250,2600 L 11250,2360 L 11250,2220 L 11250,1485 L 11275,1485 L 11275,1315 L 11250,1315 L 11250,1150 Z" /><path d="M 10670,2360 L 10670,2600 L 10670,2740 L 10730,2740 L 10730,2600 L 10730,2360 L 10730,2220 L 10730,1865 L 10755,1865 L 10755,1695 L 10730,1695 L 10730,1150 L 10730,1010 L 10730,770 L 10730,630 L 10670,630 L 10670,770 L 10670,1010 L 10670,1150 L 10670,1695 L 10645,1695 L 10645,1865 L 10670,1865 L 10670,2220 Z" /><path d="M 13330,1010 L 13330,770 L 13330,630 L 13270,630 L 13270,770 L 13270,1010 L 13270,1150 L 13270,1885 L 13245,1885 L 13245,2055 L 13270,2055 L 13270,2220 L 13270,2360 L 13270,2600 L 13270,2740 L 13330,2740 L 13330,2600 L 13330,2360 L 13330,2220 L 13330,2055 L 13355,2055 L 13355,1885 L 13330,1885 L 13330,1150 Z" /><path d="M 12550,1150 L 12550,1010 L 12550,770 L 12550,630 L 12490,630 L 12490,770 L 12490,1010 L 12490,1150 L 12490,1885 L 12465,1885 L 12465,2055 L 12490,2055 L 12490,2220 L 12490,2360 L 12490,2600 L 12490,2740 L 12550,2740 L 12550,2600 L 12550,2360 L 12550,2220 L 12549,2220 L 12549,2055 L 12575,2055 L 12575,1885 L 12549,1885 L 12549,1150 Z" /></g></g><g id="CO"><g class="l30d0"><path d="M 10005,785 L 10095,785 L 10095,875 L 10005,875 Z" /><path d="M 11045,845 L 11135,845 L 11135,935 L 11045,935 Z" /><path d="M 12345,845 L 12435,845 L 12435,935 L 12345,935 Z" /><path d="M 13385,2435 L 13475,2435 L 13475,2525 L 13385,2525 Z" /><path d="M 12605,2435 L 12695,2435 L 12695,2525 L 12605,2525 Z" /><path d="M 12345,2435 L 12435,2435 L 12435,2525 L 12345,2525 Z" /><path d="M 12085,2435 L 12175,2435 L 12175,2525 L 12085,2525 Z" /><path d="M 11305,2435 L 11395,2435 L 11395,2525 L 11305,2525 Z" /><path d="M 11045,2435 L 11135,2435 L 11135,2525 L 11045,2525 Z" /><path d="M 10785,2435 L 10875,2435 L 10875,2525 L 10785,2525 Z" /><path d="M 10005,2435 L 10095,2435 L 10095,2525 L 10005,2525 Z" /><path d="M 14165,785 L 14255,785 L 14255,875 L 14165,875 Z" /><path d="M 13905,785 L 13995,785 L 13995,875 L 13905,875 Z" /><path d="M 9745,785 L 9835,785 L 9835,875 L 9745,875 Z" /><path d="M 10265,785 L 10355,785 L 10355,875 L 10265,875 Z" /><path d="M 10525,845 L 10615,845 L 10615,935 L 10525,935 Z" /><path d="M 11825,845 L 11915,845 L 11915,935 L 11825,935 Z" /><path d="M 13125,845 L 13215,845 L 13215,935 L 13125,935 Z" /><path d="M 13645,845 L 13735,845 L 13735,935 L 13645,935 Z" /><path d="M 12865,845 L 12955,845 L 12955,935 L 12865,935 Z" /><path d="M 11565,845 L 11655,845 L 11655,935 L 11565,935 Z" /><path d="M 10265,2435 L 10355,2435 L 10355,2525 L 10265,2525 Z" /><path d="M 11565,2435 L 11655,2435 L 11655,2525 L 11565,2525 Z" /><path d="M 12865,2435 L 12955,2435 L 12955,2525 L 12865,2525 Z" /><path d="M 14165,2435 L 14255,2435 L 14255,2525 L 14165,2525 Z" /><path d="M 13645,2435 L 13735,2435 L 13735,2525 L 13645,2525 Z" /><path d="M 13905,2435 L 13995,2435 L 13995,2525 L 13905,2525 Z" /><path d="M 13125,2435 L 13215,2435 L 13215,2525 L 13125,2525 Z" /><path d="M 11825,2435 L 11915,2435 L 11915,2525 L 11825,2525 Z" /><path d="M 10525,2435 L 10615,2435 L 10615,2525 L 10525,2525 Z" /><path d="M 9745,2435 L 9835,2435 L 9835,2525 L 9745,2525 Z" /><path d="M 9745,170 L 9835,170 L 9835,260 L 9745,260 Z" /><path d="M 14165,170 L 14255,170 L 14255,260 L 14165,260 Z" /><path d="M 13905,170 L 13995,170 L 13995,260 L 13905,260 Z" /><path d="M 13645,170 L 13735,170 L 13735,260 L 13645,260 Z" /><path d="M 13385,170 L 13475,170 L 13475,260 L 13385,260 Z" /><path d="M 13125,170 L 13215,170 L 13215,260 L 13125,260 Z" /><path d="M 12865,170 L 12955,170 L 12955,260 L 12865,260 Z" /><path d="M 12605,170 L 12695,170 L 12695,260 L 12605,260 Z" /><path d="M 12345,170 L 12435,170 L 12435,260 L 12345,260 Z" /><path d="M 12085,170 L 12175,170 L 12175,260 L 12085,260 Z" /><path d="M 11825,170 L 11915,170 L 11915,260 L 11825,260 Z" /><path d="M 11565,170 L 11655,170 L 11655,260 L 11565,260 Z" /><path d="M 11305,170 L 11395,170 L 11395,260 L 11305,260 Z" /><path d="M 11045,170 L 11135,170 L 11135,260 L 11045,260 Z" /><path d="M 10785,170 L 10875,170 L 10875,260 L 10785,260 Z" /><path d="M 10525,170 L 10615,170 L 10615,260 L 10525,260 Z" /><path d="M 10265,170 L 10355,170 L 10355,260 L 10265,260 Z" /><path d="M 10005,170 L 10095,170 L 10095,260 L 10005,260 Z" /><path d="M 14165,3110 L 14255,3110 L 14255,3200 L 14165,3200 Z" /><path d="M 13905,3110 L 13995,3110 L 13995,3200 L 13905,3200 Z" /><path d="M 13645,3110 L 13735,3110 L 13735,3200 L 13645,3200 Z" /><path d="M 13385,3110 L 13475,3110 L 13475,3200 L 13385,3200 Z" /><path d="M 13125,3110 L 13215,3110 L 13215,3200 L 13125,3200 Z" /><path d="M 12865,3110 L 12955,3110 L 12955,3200 L 12865,3200 Z" /><path d="M 12605,3110 L 12695,3110 L 12695,3200 L 12605,3200 Z" /><path d="M 12345,3110 L 12435,3110 L 12435,3200 L 12345,3200 Z" /><path d="M 12085,3110 L 12175,3110 L 12175,3200 L 12085,3200 Z" /><path d="M 11825,3110 L 11915,3110 L 11915,3200 L 11825,3200 Z" /><path d="M 11565,3110 L 11655,3110 L 11655,3200 L 11565,3200 Z" /><path d="M 11305,3110 L 11395,3110 L 11395,3200 L 11305,3200 Z" /><path d="M 11045,3110 L 11135,3110 L 11135,3200 L 11045,3200 Z" /><path d="M 10785,3110 L 10875,3110 L 10875,3200 L 10785,3200 Z" /><path d="M 10525,3110 L 10615,3110 L 10615,3200 L 10525,3200 Z" /><path d="M 10265,3110 L 10355,3110 L 10355,3200 L 10265,3200 Z" /><path d="M 10005,3110 L 10095,3110 L 10095,3200 L 10005,3200 Z" /><path d="M 9745,3110 L 9835,3110 L 9835,3200 L 9745,3200 Z" /><path d="M 7925,2480 L 8015,2480 L 8015,2570 L 7925,2570 Z" /><path d="M 7405,2480 L 7495,2480 L 7495,2570 L 7405,2570 Z" /><path d="M 9225,2435 L 9315,2435 L 9315,2525 L 9225,2525 Z" /><path d="M 8965,2435 L 9055,2435 L 9055,2525 L 8965,2525 Z" /><path d="M 8705,2435 L 8795,2435 L 8795,2525 L 8705,2525 Z" /><path d="M 7665,2150 L 7755,2150 L 7755,2240 L 7665,2240 Z" /><path d="M 7665,2480 L 7755,2480 L 7755,2570 L 7665,2570 Z" /><path d="M 9485,170 L 9575,170 L 9575,260 L 9485,260 Z" /><path d="M 9225,170 L 9315,170 L 9315,260 L 9225,260 Z" /><path d="M 8965,170 L 9055,170 L 9055,260 L 8965,260 Z" /><path d="M 8705,170 L 8795,170 L 8795,260 L 8705,260 Z" /><path d="M 8445,170 L 8535,170 L 8535,260 L 8445,260 Z" /><path d="M 8185,170 L 8275,170 L 8275,260 L 8185,260 Z" /><path d="M 7925,170 L 8015,170 L 8015,260 L 7925,260 Z" /><path d="M 7665,170 L 7755,170 L 7755,260 L 7665,260 Z" /><path d="M 7405,170 L 7495,170 L 7495,260 L 7405,260 Z" /><path d="M 7145,170 L 7235,170 L 7235,260 L 7145,260 Z" /><path d="M 6885,170 L 6975,170 L 6975,260 L 6885,260 Z" /><path d="M 6625,170 L 6715,170 L 6715,260 L 6625,260 Z" /><path d="M 6365,170 L 6455,170 L 6455,260 L 6365,260 Z" /><path d="M 6105,170 L 6195,170 L 6195,260 L 6105,260 Z" /><path d="M 5845,170 L 5935,170 L 5935,260 L 5845,260 Z" /><path d="M 5585,170 L 5675,170 L 5675,260 L 5585,260 Z" /><path d="M 5325,170 L 5415,170 L 5415,260 L 5325,260 Z" /><path d="M 5065,170 L 5155,170 L 5155,260 L 5065,260 Z" /><path d="M 9485,3110 L 9575,3110 L 9575,3200 L 9485,3200 Z" /><path d="M 5325,2435 L 5415,2435 L 5415,2525 L 5325,2525 Z" /><path d="M 6105,2435 L 6195,2435 L 6195,2525 L 6105,2525 Z" /><path d="M 5845,2435 L 5935,2435 L 5935,2525 L 5845,2525 Z" /><path d="M 5585,2435 L 5675,2435 L 5675,2525 L 5585,2525 Z" /><path d="M 6105,3110 L 6195,3110 L 6195,3200 L 6105,3200 Z" /><path d="M 5065,3110 L 5155,3110 L 5155,3200 L 5065,3200 Z" /><path d="M 5325,3110 L 5415,3110 L 5415,3200 L 5325,3200 Z" /><path d="M 5585,3110 L 5675,3110 L 5675,3200 L 5585,3200 Z" /><path d="M 5845,3110 L 5935,3110 L 5935,3200 L 5845,3200 Z" /><path d="M 9225,3110 L 9315,3110 L 9315,3200 L 9225,3200 Z" /><path d="M 7925,3110 L 8015,3110 L 8015,3200 L 7925,3200 Z" /><path d="M 8185,3110 L 8275,3110 L 8275,3200 L 8185,3200 Z" /><path d="M 8445,3110 L 8535,3110 L 8535,3200 L 8445,3200 Z" /><path d="M 8705,3110 L 8795,3110 L 8795,3200 L 8705,3200 Z" /><path d="M 8965,3110 L 9055,3110 L 9055,3200 L 8965,3200 Z" /><path d="M 6885,2435 L 6975,2435 L 6975,2525 L 6885,2525 Z" /><path d="M 7665,3110 L 7755,3110 L 7755,3200 L 7665,3200 Z" /><path d="M 6365,3110 L 6455,3110 L 6455,3200 L 6365,3200 Z" /><path d="M 6625,3110 L 6715,3110 L 6715,3200 L 6625,3200 Z" /><path d="M 6885,3110 L 6975,3110 L 6975,3200 L 6885,3200 Z" /><path d="M 7145,3110 L 7235,3110 L 7235,3200 L 7145,3200 Z" /><path d="M 7405,3110 L 7495,3110 L 7495,3200 L 7405,3200 Z" /><path d="M 9485,845 L 9575,845 L 9575,935 L 9485,935 Z" /><path d="M 8445,845 L 8535,845 L 8535,935 L 8445,935 Z" /><path d="M 8185,1010 L 8275,1010 L 8275,1100 L 8185,1100 Z" /><path d="M 8185,800 L 8275,800 L 8275,890 L 8185,890 Z" /><path d="M 7405,800 L 7495,800 L 7495,890 L 7405,890 Z" /><path d="M 7145,845 L 7235,845 L 7235,935 L 7145,935 Z" /><path d="M 6625,845 L 6715,845 L 6715,935 L 6625,935 Z" /><path d="M 6365,1010 L 6455,1010 L 6455,1100 L 6365,1100 Z" /><path d="M 6365,800 L 6455,800 L 6455,890 L 6365,890 Z" /><path d="M 8965,845 L 9055,845 L 9055,935 L 8965,935 Z" /><path d="M 5065,845 L 5155,845 L 5155,935 L 5065,935 Z" /><path d="M 5065,2435 L 5155,2435 L 5155,2525 L 5065,2525 Z" /><path d="M 9485,2435 L 9575,2435 L 9575,2525 L 9485,2525 Z" /><path d="M 8445,2435 L 8535,2435 L 8535,2525 L 8445,2525 Z" /><path d="M 8185,2150 L 8275,2150 L 8275,2240 L 8185,2240 Z" /><path d="M 7405,1010 L 7495,1010 L 7495,1100 L 7405,1100 Z" /><path d="M 7145,2435 L 7235,2435 L 7235,2525 L 7145,2525 Z" /><path d="M 6625,2435 L 6715,2435 L 6715,2525 L 6625,2525 Z" /><path d="M 6365,2435 L 6455,2435 L 6455,2525 L 6365,2525 Z" /><path d="M 5585,845 L 5675,845 L 5675,935 L 5585,935 Z" /><path d="M 8185,2480 L 8275,2480 L 8275,2570 L 8185,2570 Z" /><path d="M 5195,1545 L 5285,1545 L 5285,1635 L 5195,1635 Z" /><path d="M 6755,2150 L 6845,2150 L 6845,2240 L 6755,2240 Z" /><path d="M 5455,1925 L 5545,1925 L 5545,2015 L 5455,2015 Z" /><path d="M 5715,1735 L 5805,1735 L 5805,1825 L 5715,1825 Z" /><path d="M 7275,1355 L 7365,1355 L 7365,1445 L 7275,1445 Z" /><path d="M 7535,1735 L 7625,1735 L 7625,1825 L 7535,1825 Z" /><path d="M 7015,1735 L 7105,1735 L 7105,1825 L 7015,1825 Z" /><path d="M 6235,1735 L 6325,1735 L 6325,1825 L 6235,1825 Z" /><path d="M 5975,1355 L 6065,1355 L 6065,1445 L 5975,1445 Z" /><path d="M 8055,1545 L 8145,1545 L 8145,1635 L 8055,1635 Z" /><path d="M 9095,2150 L 9185,2150 L 9185,2240 L 9095,2240 Z" /><path d="M 7795,1925 L 7885,1925 L 7885,2015 L 7795,2015 Z" /><path d="M 9355,1735 L 9445,1735 L 9445,1825 L 9355,1825 Z" /><path d="M 8835,1545 L 8925,1545 L 8925,1635 L 8835,1635 Z" /><path d="M 8575,1925 L 8665,1925 L 8665,2015 L 8575,2015 Z" /><path d="M 3245,2480 L 3335,2480 L 3335,2570 L 3245,2570 Z" /><path d="M 2725,2480 L 2815,2480 L 2815,2570 L 2725,2570 Z" /><path d="M 4545,2435 L 4635,2435 L 4635,2525 L 4545,2525 Z" /><path d="M 4285,2435 L 4375,2435 L 4375,2525 L 4285,2525 Z" /><path d="M 4025,2435 L 4115,2435 L 4115,2525 L 4025,2525 Z" /><path d="M 2985,2150 L 3075,2150 L 3075,2240 L 2985,2240 Z" /><path d="M 2985,2480 L 3075,2480 L 3075,2570 L 2985,2570 Z" /><path d="M 4805,170 L 4895,170 L 4895,260 L 4805,260 Z" /><path d="M 4545,170 L 4635,170 L 4635,260 L 4545,260 Z" /><path d="M 4285,170 L 4375,170 L 4375,260 L 4285,260 Z" /><path d="M 4025,170 L 4115,170 L 4115,260 L 4025,260 Z" /><path d="M 3765,170 L 3855,170 L 3855,260 L 3765,260 Z" /><path d="M 3505,170 L 3595,170 L 3595,260 L 3505,260 Z" /><path d="M 3245,170 L 3335,170 L 3335,260 L 3245,260 Z" /><path d="M 2985,170 L 3075,170 L 3075,260 L 2985,260 Z" /><path d="M 2725,170 L 2815,170 L 2815,260 L 2725,260 Z" /><path d="M 2465,170 L 2555,170 L 2555,260 L 2465,260 Z" /><path d="M 2205,170 L 2295,170 L 2295,260 L 2205,260 Z" /><path d="M 1945,170 L 2035,170 L 2035,260 L 1945,260 Z" /><path d="M 1685,170 L 1775,170 L 1775,260 L 1685,260 Z" /><path d="M 1425,170 L 1515,170 L 1515,260 L 1425,260 Z" /><path d="M 1165,170 L 1255,170 L 1255,260 L 1165,260 Z" /><path d="M 905,170 L 995,170 L 995,260 L 905,260 Z" /><path d="M 645,170 L 735,170 L 735,260 L 645,260 Z" /><path d="M 385,170 L 475,170 L 475,260 L 385,260 Z" /><path d="M 4805,3110 L 4895,3110 L 4895,3200 L 4805,3200 Z" /><path d="M 645,2435 L 735,2435 L 735,2525 L 645,2525 Z" /><path d="M 1425,2435 L 1515,2435 L 1515,2525 L 1425,2525 Z" /><path d="M 1165,2435 L 1255,2435 L 1255,2525 L 1165,2525 Z" /><path d="M 905,2435 L 995,2435 L 995,2525 L 905,2525 Z" /><path d="M 1425,3110 L 1515,3110 L 1515,3200 L 1425,3200 Z" /><path d="M 385,3110 L 475,3110 L 475,3200 L 385,3200 Z" /><path d="M 645,3110 L 735,3110 L 735,3200 L 645,3200 Z" /><path d="M 905,3110 L 995,3110 L 995,3200 L 905,3200 Z" /><path d="M 1165,3110 L 1255,3110 L 1255,3200 L 1165,3200 Z" /><path d="M 4545,3110 L 4635,3110 L 4635,3200 L 4545,3200 Z" /><path d="M 3245,3110 L 3335,3110 L 3335,3200 L 3245,3200 Z" /><path d="M 3505,3110 L 3595,3110 L 3595,3200 L 3505,3200 Z" /><path d="M 3765,3110 L 3855,3110 L 3855,3200 L 3765,3200 Z" /><path d="M 4025,3110 L 4115,3110 L 4115,3200 L 4025,3200 Z" /><path d="M 4285,3110 L 4375,3110 L 4375,3200 L 4285,3200 Z" /><path d="M 2205,2435 L 2295,2435 L 2295,2525 L 2205,2525 Z" /><path d="M 2985,3110 L 3075,3110 L 3075,3200 L 2985,3200 Z" /><path d="M 1685,3110 L 1775,3110 L 1775,3200 L 1685,3200 Z" /><path d="M 1945,3110 L 2035,3110 L 2035,3200 L 1945,3200 Z" /><path d="M 2205,3110 L 2295,3110 L 2295,3200 L 2205,3200 Z" /><path d="M 2465,3110 L 2555,3110 L 2555,3200 L 2465,3200 Z" /><path d="M 2725,3110 L 2815,3110 L 2815,3200 L 2725,3200 Z" /><path d="M 4805,845 L 4895,845 L 4895,935 L 4805,935 Z" /><path d="M 3765,845 L 3855,845 L 3855,935 L 3765,935 Z" /><path d="M 3505,1010 L 3595,1010 L 3595,1100 L 3505,1100 Z" /><path d="M 3505,800 L 3595,800 L 3595,890 L 3505,890 Z" /><path d="M 2725,800 L 2815,800 L 2815,890 L 2725,890 Z" /><path d="M 2465,845 L 2555,845 L 2555,935 L 2465,935 Z" /><path d="M 1945,845 L 2035,845 L 2035,935 L 1945,935 Z" /><path d="M 1685,1010 L 1775,1010 L 1775,1100 L 1685,1100 Z" /><path d="M 1685,800 L 1775,800 L 1775,890 L 1685,890 Z" /><path d="M 4285,845 L 4375,845 L 4375,935 L 4285,935 Z" /><path d="M 385,845 L 475,845 L 475,935 L 385,935 Z" /><path d="M 385,2435 L 475,2435 L 475,2525 L 385,2525 Z" /><path d="M 4805,2435 L 4895,2435 L 4895,2525 L 4805,2525 Z" /><path d="M 3765,2435 L 3855,2435 L 3855,2525 L 3765,2525 Z" /><path d="M 3505,2150 L 3595,2150 L 3595,2240 L 3505,2240 Z" /><path d="M 2725,1010 L 2815,1010 L 2815,1100 L 2725,1100 Z" /><path d="M 2465,2435 L 2555,2435 L 2555,2525 L 2465,2525 Z" /><path d="M 1945,2435 L 2035,2435 L 2035,2525 L 1945,2525 Z" /><path d="M 1685,2435 L 1775,2435 L 1775,2525 L 1685,2525 Z" /><path d="M 905,845 L 995,845 L 995,935 L 905,935 Z" /><path d="M 3505,2480 L 3595,2480 L 3595,2570 L 3505,2570 Z" /><path d="M 515,1545 L 605,1545 L 605,1635 L 515,1635 Z" /><path d="M 2075,2150 L 2165,2150 L 2165,2240 L 2075,2240 Z" /><path d="M 775,1925 L 865,1925 L 865,2015 L 775,2015 Z" /><path d="M 1035,1735 L 1125,1735 L 1125,1825 L 1035,1825 Z" /><path d="M 2595,1355 L 2685,1355 L 2685,1445 L 2595,1445 Z" /><path d="M 2855,1735 L 2945,1735 L 2945,1825 L 2855,1825 Z" /><path d="M 2335,1735 L 2425,1735 L 2425,1825 L 2335,1825 Z" /><path d="M 1555,1735 L 1645,1735 L 1645,1825 L 1555,1825 Z" /><path d="M 1295,1355 L 1385,1355 L 1385,1445 L 1295,1445 Z" /><path d="M 3375,1545 L 3465,1545 L 3465,1635 L 3375,1635 Z" /><path d="M 4415,2150 L 4505,2150 L 4505,2240 L 4415,2240 Z" /><path d="M 3115,1925 L 3205,1925 L 3205,2015 L 3115,2015 Z" /><path d="M 4675,1735 L 4765,1735 L 4765,1825 L 4675,1825 Z" /><path d="M 4155,1545 L 4245,1545 L 4245,1635 L 4155,1635 Z" /><path d="M 3895,1925 L 3985,1925 L 3985,2015 L 3895,2015 Z" /><path d="M 16245,800 L 16335,800 L 16335,890 L 16245,890 Z" /><path d="M 16245,1130 L 16335,1130 L 16335,1220 L 16245,1220 Z" /><path d="M 15985,800 L 16075,800 L 16075,890 L 15985,890 Z" /><path d="M 15985,1130 L 16075,1130 L 16075,1220 L 15985,1220 Z" /><path d="M 17285,800 L 17375,800 L 17375,890 L 17285,890 Z" /><path d="M 17285,1130 L 17375,1130 L 17375,1220 L 17285,1220 Z" /><path d="M 17285,2150 L 17375,2150 L 17375,2240 L 17285,2240 Z" /><path d="M 17285,2480 L 17375,2480 L 17375,2570 L 17285,2570 Z" /><path d="M 16245,2150 L 16335,2150 L 16335,2240 L 16245,2240 Z" /><path d="M 15985,2150 L 16075,2150 L 16075,2240 L 15985,2240 Z" /><path d="M 15985,2480 L 16075,2480 L 16075,2570 L 15985,2570 Z" /><path d="M 16245,2480 L 16335,2480 L 16335,2570 L 16245,2570 Z" /><path d="M 15985,170 L 16075,170 L 16075,260 L 15985,260 Z" /><path d="M 17285,170 L 17375,170 L 17375,260 L 17285,260 Z" /><path d="M 17025,170 L 17115,170 L 17115,260 L 17025,260 Z" /><path d="M 16765,170 L 16855,170 L 16855,260 L 16765,260 Z" /><path d="M 16505,170 L 16595,170 L 16595,260 L 16505,260 Z" /><path d="M 16245,170 L 16335,170 L 16335,260 L 16245,260 Z" /><path d="M 17285,3110 L 17375,3110 L 17375,3200 L 17285,3200 Z" /><path d="M 17025,3110 L 17115,3110 L 17115,3200 L 17025,3200 Z" /><path d="M 16765,3110 L 16855,3110 L 16855,3200 L 16765,3200 Z" /><path d="M 16505,3110 L 16595,3110 L 16595,3200 L 16505,3200 Z" /><path d="M 16245,3110 L 16335,3110 L 16335,3200 L 16245,3200 Z" /><path d="M 15985,3110 L 16075,3110 L 16075,3200 L 15985,3200 Z" /><path d="M 16505,1130 L 16595,1130 L 16595,1220 L 16505,1220 Z" /><path d="M 16505,800 L 16595,800 L 16595,890 L 16505,890 Z" /><path d="M 16765,1130 L 16855,1130 L 16855,1220 L 16765,1220 Z" /><path d="M 16765,800 L 16855,800 L 16855,890 L 16765,890 Z" /><path d="M 17025,1130 L 17115,1130 L 17115,1220 L 17025,1220 Z" /><path d="M 17025,800 L 17115,800 L 17115,890 L 17025,890 Z" /><path d="M 16505,2480 L 16595,2480 L 16595,2570 L 16505,2570 Z" /><path d="M 16505,2150 L 16595,2150 L 16595,2240 L 16505,2240 Z" /><path d="M 16765,2480 L 16855,2480 L 16855,2570 L 16765,2570 Z" /><path d="M 16765,2150 L 16855,2150 L 16855,2240 L 16765,2240 Z" /><path d="M 17025,2480 L 17115,2480 L 17115,2570 L 17025,2570 Z" /><path d="M 17025,2150 L 17115,2150 L 17115,2240 L 17025,2240 Z" /><path d="M 17155,1545 L 17245,1545 L 17245,1635 L 17155,1635 Z" /><path d="M 16895,1545 L 16985,1545 L 16985,1635 L 16895,1635 Z" /><path d="M 16635,1545 L 16725,1545 L 16725,1635 L 16635,1635 Z" /><path d="M 16375,1545 L 16465,1545 L 16465,1635 L 16375,1635 Z" /><path d="M 16115,1735 L 16205,1735 L 16205,1825 L 16115,1825 Z" /><path d="M 14685,800 L 14775,800 L 14775,890 L 14685,890 Z" /><path d="M 14685,1130 L 14775,1130 L 14775,1220 L 14685,1220 Z" /><path d="M 14425,800 L 14515,800 L 14515,890 L 14425,890 Z" /><path d="M 14425,1130 L 14515,1130 L 14515,1220 L 14425,1220 Z" /><path d="M 15725,800 L 15815,800 L 15815,890 L 15725,890 Z" /><path d="M 15725,1130 L 15815,1130 L 15815,1220 L 15725,1220 Z" /><path d="M 15725,2150 L 15815,2150 L 15815,2240 L 15725,2240 Z" /><path d="M 15725,2480 L 15815,2480 L 15815,2570 L 15725,2570 Z" /><path d="M 14685,2150 L 14775,2150 L 14775,2240 L 14685,2240 Z" /><path d="M 14425,2150 L 14515,2150 L 14515,2240 L 14425,2240 Z" /><path d="M 14425,2480 L 14515,2480 L 14515,2570 L 14425,2570 Z" /><path d="M 14685,2480 L 14775,2480 L 14775,2570 L 14685,2570 Z" /><path d="M 14425,170 L 14515,170 L 14515,260 L 14425,260 Z" /><path d="M 15725,170 L 15815,170 L 15815,260 L 15725,260 Z" /><path d="M 15465,170 L 15555,170 L 15555,260 L 15465,260 Z" /><path d="M 15205,170 L 15295,170 L 15295,260 L 15205,260 Z" /><path d="M 14945,170 L 15035,170 L 15035,260 L 14945,260 Z" /><path d="M 14685,170 L 14775,170 L 14775,260 L 14685,260 Z" /><path d="M 15725,3110 L 15815,3110 L 15815,3200 L 15725,3200 Z" /><path d="M 15465,3110 L 15555,3110 L 15555,3200 L 15465,3200 Z" /><path d="M 15205,3110 L 15295,3110 L 15295,3200 L 15205,3200 Z" /><path d="M 14945,3110 L 15035,3110 L 15035,3200 L 14945,3200 Z" /><path d="M 14685,3110 L 14775,3110 L 14775,3200 L 14685,3200 Z" /><path d="M 14425,3110 L 14515,3110 L 14515,3200 L 14425,3200 Z" /><path d="M 14945,1130 L 15035,1130 L 15035,1220 L 14945,1220 Z" /><path d="M 14945,800 L 15035,800 L 15035,890 L 14945,890 Z" /><path d="M 15205,1130 L 15295,1130 L 15295,1220 L 15205,1220 Z" /><path d="M 15205,800 L 15295,800 L 15295,890 L 15205,890 Z" /><path d="M 15465,1130 L 15555,1130 L 15555,1220 L 15465,1220 Z" /><path d="M 15465,800 L 15555,800 L 15555,890 L 15465,890 Z" /><path d="M 14945,2480 L 15035,2480 L 15035,2570 L 14945,2570 Z" /><path d="M 14945,2150 L 15035,2150 L 15035,2240 L 14945,2240 Z" /><path d="M 15205,2480 L 15295,2480 L 15295,2570 L 15205,2570 Z" /><path d="M 15205,2150 L 15295,2150 L 15295,2240 L 15205,2240 Z" /><path d="M 15465,2480 L 15555,2480 L 15555,2570 L 15465,2570 Z" /><path d="M 15465,2150 L 15555,2150 L 15555,2240 L 15465,2240 Z" /><path d="M 15595,1545 L 15685,1545 L 15685,1635 L 15595,1635 Z" /><path d="M 15335,1545 L 15425,1545 L 15425,1635 L 15335,1635 Z" /><path d="M 15075,1545 L 15165,1545 L 15165,1635 L 15075,1635 Z" /><path d="M 14815,1545 L 14905,1545 L 14905,1635 L 14815,1635 Z" /><path d="M 14555,1735 L 14645,1735 L 14645,1825 L 14555,1825 Z" /><path d="M 14035,1545 L 14125,1545 L 14125,1635 L 14035,1635 Z" /><path d="M 12735,1735 L 12825,1735 L 12825,1825 L 12735,1825 Z" /><path d="M 11435,1165 L 11525,1165 L 11525,1255 L 11435,1255 Z" /><path d="M 12215,1545 L 12305,1545 L 12305,1635 L 12215,1635 Z" /><path d="M 10915,2115 L 11005,2115 L 11005,2205 L 10915,2205 Z" /><path d="M 10135,1165 L 10225,1165 L 10225,1255 L 10135,1255 Z" /><path d="M 9875,1735 L 9965,1735 L 9965,1825 L 9875,1825 Z" /><path d="M 13515,1355 L 13605,1355 L 13605,1445 L 13515,1445 Z" /><path d="M 11955,1355 L 12045,1355 L 12045,1445 L 11955,1445 Z" /><path d="M 11175,1355 L 11265,1355 L 11265,1445 L 11175,1445 Z" /><path d="M 10655,1735 L 10745,1735 L 10745,1825 L 10655,1825 Z" /><path d="M 13255,1925 L 13345,1925 L 13345,2015 L 13255,2015 Z" /><path d="M 12475,1925 L 12565,1925 L 12565,2015 L 12475,2015 Z" /></g></g><g id="M1"><g class="l31d0"><path d="M 7920,2575 L 7920,2700 L 7500,2700 L 7500,2575 L 7500,2440 L 7400,2440 L 7400,2575 L 7400,2700 L 7400,2800 L 7500,2800 L 7920,2800 L 8020,2800 L 8020,2700 L 8020,2575 L 8020,2440 L 7920,2440 Z" /><path d="M 6880,2390 L 6880,2570 L 6880,2810 L 6980,2810 L 6980,2570 L 6980,2390 Z" /><path d="M 6460,720 L 6360,720 L 6360,860 L 6360,1040 L 6360,1140 L 6460,1140 L 6460,1040 L 6460,860 Z" /><path d="M 5320,2390 L 5320,2570 L 5320,2810 L 5420,2810 L 5420,2570 L 5420,2390 Z" /><path d="M 8700,2390 L 8700,2570 L 8700,2810 L 8800,2810 L 8800,2570 L 8800,2390 Z" /><path d="M 9220,2390 L 9220,2570 L 9220,2810 L 9320,2810 L 9320,2570 L 9320,2390 Z" /><path d="M 7500,720 L 7400,720 L 7400,860 L 7400,1040 L 7400,1140 L 7500,1140 L 7500,1040 L 7500,860 Z" /><path d="M 6585,940 L 6720,940 L 6840,940 L 6930,940 L 7020,940 L 7020,840 L 6930,840 L 6840,840 L 6720,840 L 6585,840 Z" /><path d="M 5025,940 L 5280,940 L 5370,940 L 5460,940 L 5460,840 L 5370,840 L 5280,840 L 5025,840 Z" /><path d="M 8405,940 L 8540,940 L 8660,940 L 8750,940 L 8840,940 L 8840,840 L 8750,840 L 8660,840 L 8540,840 L 8405,840 Z" /><path d="M 9615,840 L 9480,840 L 9360,840 L 9270,840 L 9180,840 L 9180,940 L 9270,940 L 9360,940 L 9480,940 L 9615,940 Z" /><path d="M 7430,1830 L 7495,1830 L 7620,1830 L 7665,1830 L 7800,1830 L 7850,1830 L 7850,1730 L 7800,1730 L 7665,1730 L 7620,1730 L 7495,1730 L 7430,1730 Z" /><path d="M 5955,1830 L 6060,1830 L 6195,1830 L 6240,1830 L 6365,1830 L 6375,1830 L 6375,1730 L 6365,1730 L 6240,1730 L 6195,1730 L 6060,1730 L 5955,1730 Z" /><path d="M 5935,1450 L 6020,1450 L 6105,1450 L 6105,1350 L 6020,1350 L 5935,1350 L 5460,1350 L 5370,1350 L 5280,1350 L 5280,1450 L 5370,1450 L 5460,1450 Z" /><path d="M 5325,1540 L 5240,1540 L 5155,1540 L 5155,1640 L 5240,1640 L 5325,1640 L 6840,1640 L 6930,1640 L 7020,1640 L 8015,1640 L 8100,1640 L 8185,1640 L 8185,1540 L 8100,1540 L 8015,1540 L 7020,1540 L 6930,1540 L 6840,1540 Z" /><path d="M 7625,2245 L 7660,2245 L 7660,2475 L 7660,2610 L 7760,2610 L 7760,2475 L 7760,2245 L 8180,2245 L 8180,2475 L 8180,2610 L 8280,2610 L 8280,2475 L 8280,2245 L 8315,2245 L 8315,2244 L 9055,2244 L 9055,2245 L 9225,2245 L 9225,2145 L 9140,2145 L 9055,2145 L 8315,2145 L 7625,2145 L 7540,2145 L 7450,2145 L 7360,2145 L 6885,2145 L 6800,2145 L 6715,2145 L 6715,2245 L 6885,2245 L 6885,2244 L 7360,2244 L 7360,2245 L 7540,2245 L 7540,2244 L 7625,2244 Z" /><path d="M 9315,1730 L 8840,1730 L 8750,1730 L 8660,1730 L 8660,1830 L 8750,1830 L 8840,1830 L 9315,1830 L 9400,1830 L 9485,1830 L 9485,1730 L 9400,1730 Z" /><path d="M 8965,1640 L 9180,1640 L 9270,1640 L 9360,1640 L 9360,1540 L 9270,1540 L 9180,1540 L 8965,1540 L 8880,1540 L 8795,1540 L 8795,1640 L 8880,1640 Z" /><path d="M 7755,2020 L 7925,2020 L 8535,2020 L 8620,2020 L 8705,2020 L 8705,1920 L 8620,1920 L 8535,1920 L 7925,1920 L 7755,1920 L 6500,1920 L 6410,1920 L 6320,1920 L 5585,1920 L 5500,1920 L 5415,1920 L 5415,2020 L 5500,2020 L 5585,2020 L 5840,2020 L 5840,2565 L 5940,2565 L 5940,2020 L 6320,2020 L 6360,2020 L 6360,2565 L 6460,2565 L 6460,2020 L 6500,2020 Z" /><path d="M 3240,2575 L 3240,2700 L 2820,2700 L 2820,2575 L 2820,2440 L 2720,2440 L 2720,2575 L 2720,2700 L 2720,2800 L 2820,2800 L 3240,2800 L 3340,2800 L 3340,2700 L 3340,2575 L 3340,2440 L 3240,2440 Z" /><path d="M 2200,2390 L 2200,2570 L 2200,2810 L 2300,2810 L 2300,2570 L 2300,2390 Z" /><path d="M 1780,720 L 1680,720 L 1680,860 L 1680,1040 L 1680,1140 L 1780,1140 L 1780,1040 L 1780,860 Z" /><path d="M 640,2390 L 640,2570 L 640,2810 L 740,2810 L 740,2570 L 740,2390 Z" /><path d="M 4020,2390 L 4020,2570 L 4020,2810 L 4120,2810 L 4120,2570 L 4120,2390 Z" /><path d="M 4540,2390 L 4540,2570 L 4540,2810 L 4640,2810 L 4640,2570 L 4640,2390 Z" /><path d="M 2820,720 L 2720,720 L 2720,860 L 2720,1040 L 2720,1140 L 2820,1140 L 2820,1040 L 2820,860 Z" /><path d="M 1905,940 L 2040,940 L 2160,940 L 2250,940 L 2340,940 L 2340,840 L 2250,840 L 2160,840 L 2040,840 L 1905,840 Z" /><path d="M 345,940 L 600,940 L 690,940 L 780,940 L 780,840 L 690,840 L 600,840 L 345,840 Z" /><path d="M 3725,940 L 3860,940 L 3980,940 L 4070,940 L 4160,940 L 4160,840 L 4070,840 L 3980,840 L 3860,840 L 3725,840 Z" /><path d="M 4935,840 L 4800,840 L 4680,840 L 4590,840 L 4500,840 L 4500,940 L 4590,940 L 4680,940 L 4800,940 L 4935,940 Z" /><path d="M 2750,1830 L 2815,1830 L 2940,1830 L 2985,1830 L 3120,1830 L 3170,1830 L 3170,1730 L 3120,1730 L 2985,1730 L 2940,1730 L 2815,1730 L 2750,1730 Z" /><path d="M 1275,1830 L 1380,1830 L 1515,1830 L 1560,1830 L 1685,1830 L 1695,1830 L 1695,1730 L 1685,1730 L 1560,1730 L 1515,1730 L 1380,1730 L 1275,1730 Z" /><path d="M 1255,1450 L 1340,1450 L 1425,1450 L 1425,1350 L 1340,1350 L 1255,1350 L 780,1350 L 690,1350 L 600,1350 L 600,1450 L 690,1450 L 780,1450 Z" /><path d="M 645,1540 L 560,1540 L 475,1540 L 475,1640 L 560,1640 L 645,1640 L 2160,1640 L 2250,1640 L 2340,1640 L 3335,1640 L 3420,1640 L 3505,1640 L 3505,1540 L 3420,1540 L 3335,1540 L 2340,1540 L 2250,1540 L 2160,1540 Z" /><path d="M 2945,2245 L 2980,2245 L 2980,2475 L 2980,2610 L 3080,2610 L 3080,2475 L 3080,2245 L 3500,2245 L 3500,2475 L 3500,2610 L 3600,2610 L 3600,2475 L 3600,2245 L 3635,2245 L 3635,2244 L 4375,2244 L 4375,2245 L 4545,2245 L 4545,2145 L 4460,2145 L 4375,2145 L 3635,2145 L 2945,2145 L 2860,2145 L 2770,2145 L 2680,2145 L 2205,2145 L 2120,2145 L 2035,2145 L 2035,2245 L 2205,2245 L 2205,2244 L 2680,2244 L 2680,2245 L 2860,2245 L 2860,2244 L 2945,2244 Z" /><path d="M 4635,1730 L 4160,1730 L 4070,1730 L 3980,1730 L 3980,1830 L 4070,1830 L 4160,1830 L 4635,1830 L 4720,1830 L 4805,1830 L 4805,1730 L 4720,1730 Z" /><path d="M 4285,1640 L 4500,1640 L 4590,1640 L 4680,1640 L 4680,1540 L 4590,1540 L 4500,1540 L 4285,1540 L 4200,1540 L 4115,1540 L 4115,1640 L 4200,1640 Z" /><path d="M 3075,2020 L 3245,2020 L 3855,2020 L 3940,2020 L 4025,2020 L 4025,1920 L 3940,1920 L 3855,1920 L 3245,1920 L 3075,1920 L 1820,1920 L 1730,1920 L 1640,1920 L 905,1920 L 820,1920 L 735,1920 L 735,2020 L 820,2020 L 905,2020 L 1160,2020 L 1160,2565 L 1260,2565 L 1260,2020 L 1640,2020 L 1680,2020 L 1680,2565 L 1780,2565 L 1780,2020 L 1820,2020 Z" /><path d="M 16080,1260 L 16080,1125 L 16080,1100 L 16080,920 L 16080,895 L 16080,760 L 15980,760 L 15980,895 L 15980,920 L 15980,1100 L 15980,1125 L 15980,1260 Z" /><path d="M 16595,1260 L 16600,1260 L 16600,1125 L 16600,1100 L 16600,920 L 16600,895 L 16600,760 L 16595,760 L 16505,760 L 16500,760 L 16500,895 L 16500,920 L 16500,1100 L 16500,1125 L 16500,1260 L 16505,1260 Z" /><path d="M 17115,1260 L 17120,1260 L 17120,1125 L 17120,1100 L 17120,920 L 17120,895 L 17120,760 L 17115,760 L 17025,760 L 17020,760 L 17020,895 L 17020,920 L 17020,1100 L 17020,1125 L 17020,1260 L 17025,1260 Z" /><path d="M 17025,2110 L 17020,2110 L 17020,2245 L 17020,2270 L 17020,2450 L 17020,2475 L 17020,2610 L 17025,2610 L 17115,2610 L 17120,2610 L 17120,2475 L 17120,2450 L 17120,2270 L 17120,2245 L 17120,2110 L 17115,2110 Z" /><path d="M 16505,2110 L 16500,2110 L 16500,2245 L 16500,2270 L 16500,2450 L 16500,2475 L 16500,2610 L 16505,2610 L 16595,2610 L 16600,2610 L 16600,2475 L 16600,2450 L 16600,2270 L 16600,2245 L 16600,2110 L 16595,2110 Z" /><path d="M 15980,2110 L 15980,2245 L 15980,2270 L 15980,2450 L 15980,2475 L 15980,2610 L 16080,2610 L 16080,2475 L 16080,2450 L 16080,2270 L 16080,2245 L 16080,2110 Z" /><path d="M 16640,1920 L 16550,1920 L 16460,1920 L 16460,2020 L 16550,2020 L 16640,2020 L 16980,2020 L 17070,2020 L 17160,2020 L 17160,1920 L 17070,1920 L 16980,1920 Z" /><path d="M 17115,1640 L 17200,1640 L 17285,1640 L 17285,1540 L 17200,1540 L 17115,1540 L 17025,1540 L 16940,1540 L 16855,1540 L 16765,1540 L 16680,1540 L 16595,1540 L 16505,1540 L 16420,1540 L 16335,1540 L 16120,1540 L 16030,1540 L 15940,1540 L 15940,1640 L 16030,1640 L 16120,1640 L 16335,1640 L 16420,1640 L 16505,1640 L 16595,1640 L 16680,1640 L 16765,1640 L 16855,1640 L 16940,1640 L 17025,1640 Z" /><path d="M 10000,915 L 10100,915 L 10100,780 L 10100,310 L 11040,310 L 11040,840 L 11040,975 L 11140,975 L 11140,840 L 11140,310 L 12340,310 L 12340,840 L 12340,975 L 12440,975 L 12440,840 L 12440,310 L 13639,310 L 13639,840 L 13640,840 L 13640,975 L 13740,975 L 13740,840 L 13740,310 L 13900,310 L 13900,780 L 13900,915 L 14000,915 L 14000,780 L 14000,310 L 14330,310 L 14680,310 L 14680,1125 L 14680,1260 L 14780,1260 L 14780,1125 L 14780,310 L 15200,310 L 15200,760 L 15200,895 L 15200,1125 L 15200,1260 L 15205,1260 L 15295,1260 L 15300,1260 L 15300,1125 L 15300,895 L 15300,760 L 15300,310 L 15720,310 L 15720,1125 L 15720,1260 L 15820,1260 L 15820,1125 L 15820,310 L 15890,310 L 15910,310 L 16240,310 L 16240,1125 L 16240,1260 L 16340,1260 L 16340,1125 L 16340,310 L 16760,310 L 16760,760 L 16760,895 L 16760,1125 L 16760,1260 L 16765,1260 L 16855,1260 L 16860,1260 L 16860,1125 L 16860,895 L 16860,760 L 16860,310 L 17280,310 L 17280,1125 L 17280,1260 L 17380,1260 L 17380,1125 L 17380,310 L 17470,310 L 17470,120 L 15910,120 L 15890,120 L 14330,120 L 9670,120 L 4990,120 L 4970,120 L 290,120 L 290,310 L 900,310 L 900,840 L 900,975 L 1000,975 L 1000,840 L 1000,310 L 2460,310 L 2460,840 L 2460,975 L 2560,975 L 2560,840 L 2560,310 L 3500,310 L 3500,795 L 3500,1140 L 3600,1140 L 3600,795 L 3600,310 L 4280,310 L 4280,840 L 4280,975 L 4380,975 L 4380,840 L 4380,310 L 4970,310 L 4990,310 L 5580,310 L 5580,840 L 5580,975 L 5680,975 L 5680,840 L 5680,310 L 7140,310 L 7140,840 L 7140,975 L 7240,975 L 7240,840 L 7240,310 L 8180,310 L 8180,795 L 8180,1140 L 8280,1140 L 8280,795 L 8280,310 L 8960,310 L 8960,840 L 8960,975 L 9060,975 L 9060,840 L 9060,310 L 9670,310 L 10000,310 L 10000,780 Z" /><path d="M 11660,2530 L 11660,2395 L 11560,2395 L 11560,2530 L 11559,2530 L 11559,3060 L 11140,3060 L 11140,2530 L 11140,2395 L 11040,2395 L 11040,2530 L 11040,3060 L 10620,3060 L 10620,2530 L 10620,2395 L 10520,2395 L 10520,2530 L 10520,3060 L 10100,3060 L 10100,2530 L 10100,2395 L 10000,2395 L 10000,2530 L 10000,3060 L 9670,3060 L 9580,3060 L 9580,2530 L 9580,2395 L 9480,2395 L 9480,2530 L 9480,3060 L 9060,3060 L 9060,2530 L 9060,2395 L 8960,2395 L 8960,2530 L 8960,3060 L 8540,3060 L 8540,2530 L 8540,2395 L 8440,2395 L 8440,2530 L 8440,3060 L 7240,3060 L 7240,2530 L 7240,2395 L 7140,2395 L 7140,2530 L 7140,3060 L 6720,3060 L 6720,2530 L 6720,2395 L 6620,2395 L 6620,2530 L 6620,3060 L 6200,3060 L 6200,2530 L 6200,2395 L 6100,2395 L 6100,2530 L 6100,3060 L 5680,3060 L 5680,2530 L 5680,2395 L 5580,2395 L 5580,2530 L 5580,3060 L 5160,3060 L 5160,2530 L 5160,2395 L 5060,2395 L 5060,2530 L 5060,3060 L 4990,3060 L 4970,3060 L 4900,3060 L 4900,2530 L 4900,2395 L 4800,2395 L 4800,2530 L 4800,3060 L 4380,3060 L 4380,2530 L 4380,2395 L 4280,2395 L 4280,2530 L 4280,3060 L 3860,3060 L 3860,2530 L 3860,2395 L 3760,2395 L 3760,2530 L 3760,3060 L 2560,3060 L 2560,2530 L 2560,2395 L 2460,2395 L 2460,2530 L 2460,3060 L 2040,3060 L 2040,2530 L 2040,2395 L 1940,2395 L 1940,2530 L 1940,3060 L 1520,3060 L 1520,2530 L 1520,2395 L 1420,2395 L 1420,2530 L 1420,3060 L 1000,3060 L 1000,2530 L 1000,2395 L 900,2395 L 900,2530 L 900,3060 L 480,3060 L 480,2530 L 480,2395 L 380,2395 L 380,2530 L 380,3060 L 290,3060 L 290,3250 L 4970,3250 L 4990,3250 L 9670,3250 L 14330,3250 L 15890,3250 L 15910,3250 L 17470,3250 L 17470,3060 L 17380,3060 L 17380,2245 L 17380,2110 L 17280,2110 L 17280,2245 L 17280,3060 L 16860,3060 L 16860,2245 L 16860,2110 L 16855,2110 L 16765,2110 L 16760,2110 L 16760,2245 L 16760,3060 L 16340,3060 L 16340,2245 L 16340,2110 L 16240,2110 L 16240,2245 L 16240,3060 L 15910,3060 L 15890,3060 L 15820,3060 L 15820,2245 L 15820,2110 L 15720,2110 L 15720,2245 L 15720,3060 L 15300,3060 L 15300,2245 L 15300,2110 L 15295,2110 L 15205,2110 L 15200,2110 L 15200,2245 L 15200,3060 L 14780,3060 L 14780,2245 L 14780,2110 L 14680,2110 L 14680,2245 L 14680,3060 L 14330,3060 L 14000,3060 L 14000,2530 L 14000,2395 L 13900,2395 L 13900,2530 L 13900,3060 L 13740,3060 L 13740,2530 L 13740,2395 L 13640,2395 L 13640,2530 L 13639,2530 L 13639,3060 L 13220,3060 L 13220,2530 L 13220,2395 L 13120,2395 L 13120,2530 L 13120,3060 L 12960,3060 L 12960,2530 L 12960,2395 L 12860,2395 L 12860,2530 L 12860,3060 L 12440,3060 L 12440,2530 L 12440,2395 L 12340,2395 L 12340,2530 L 12340,3060 L 11920,3060 L 11920,2530 L 11920,2395 L 11820,2395 L 11820,2530 L 11820,3060 L 11660,3060 Z" /><path d="M 14520,1260 L 14520,1125 L 14520,1100 L 14520,920 L 14520,895 L 14520,760 L 14420,760 L 14420,895 L 14420,920 L 14420,1100 L 14420,1125 L 14420,1260 Z" /><path d="M 15035,1260 L 15040,1260 L 15040,1125 L 15040,1100 L 15040,920 L 15040,895 L 15040,760 L 15035,760 L 14945,760 L 14940,760 L 14940,895 L 14940,920 L 14940,1100 L 14940,1125 L 14940,1260 L 14945,1260 Z" /><path d="M 15555,1260 L 15560,1260 L 15560,1125 L 15560,1100 L 15560,920 L 15560,895 L 15560,760 L 15555,760 L 15465,760 L 15460,760 L 15460,895 L 15460,920 L 15460,1100 L 15460,1125 L 15460,1260 L 15465,1260 Z" /><path d="M 15465,2110 L 15460,2110 L 15460,2245 L 15460,2270 L 15460,2450 L 15460,2475 L 15460,2610 L 15465,2610 L 15555,2610 L 15560,2610 L 15560,2475 L 15560,2450 L 15560,2270 L 15560,2245 L 15560,2110 L 15555,2110 Z" /><path d="M 14945,2110 L 14940,2110 L 14940,2245 L 14940,2270 L 14940,2450 L 14940,2475 L 14940,2610 L 14945,2610 L 15035,2610 L 15040,2610 L 15040,2475 L 15040,2450 L 15040,2270 L 15040,2245 L 15040,2110 L 15035,2110 Z" /><path d="M 14420,2110 L 14420,2245 L 14420,2270 L 14420,2450 L 14420,2475 L 14420,2610 L 14520,2610 L 14520,2475 L 14520,2450 L 14520,2270 L 14520,2245 L 14520,2110 Z" /><path d="M 15080,1920 L 14990,1920 L 14900,1920 L 14900,2020 L 14990,2020 L 15080,2020 L 15420,2020 L 15510,2020 L 15600,2020 L 15600,1920 L 15510,1920 L 15420,1920 Z" /><path d="M 15555,1640 L 15640,1640 L 15725,1640 L 15725,1540 L 15640,1540 L 15555,1540 L 15465,1540 L 15380,1540 L 15295,1540 L 15205,1540 L 15120,1540 L 15035,1540 L 14945,1540 L 14860,1540 L 14775,1540 L 14560,1540 L 14470,1540 L 14380,1540 L 14380,1640 L 14470,1640 L 14560,1640 L 14775,1640 L 14860,1640 L 14945,1640 L 15035,1640 L 15120,1640 L 15205,1640 L 15295,1640 L 15380,1640 L 15465,1640 Z" /><path d="M 14160,2390 L 14160,2570 L 14160,2810 L 14260,2810 L 14260,2570 L 14260,2390 Z" /><path d="M 10260,2390 L 10260,2570 L 10260,2810 L 10360,2810 L 10360,2570 L 10360,2390 Z" /><path d="M 9740,2390 L 9740,2570 L 9740,2810 L 9840,2810 L 9840,2570 L 9840,2390 Z" /><path d="M 9840,500 L 9740,500 L 9740,740 L 9740,920 L 9840,920 L 9840,740 Z" /><path d="M 10360,500 L 10260,500 L 10260,740 L 10260,920 L 10360,920 L 10360,740 Z" /><path d="M 10620,560 L 10520,560 L 10520,800 L 10520,980 L 10620,980 L 10620,800 Z" /><path d="M 11660,560 L 11560,560 L 11560,800 L 11560,980 L 11660,980 L 11660,800 Z" /><path d="M 11920,560 L 11820,560 L 11820,800 L 11820,980 L 11920,980 L 11920,800 Z" /><path d="M 12960,560 L 12860,560 L 12860,800 L 12860,980 L 12960,980 L 12960,800 Z" /><path d="M 13220,560 L 13120,560 L 13120,800 L 13120,980 L 13220,980 L 13220,800 Z" /><path d="M 14260,500 L 14160,500 L 14160,740 L 14160,920 L 14260,920 L 14260,740 Z" /><path d="M 13380,2390 L 13380,2570 L 13380,2810 L 13480,2810 L 13480,2570 L 13480,2390 Z" /><path d="M 12600,2390 L 12600,2570 L 12600,2810 L 12700,2810 L 12700,2570 L 12700,2390 Z" /><path d="M 12080,2390 L 12080,2570 L 12080,2810 L 12180,2810 L 12180,2570 L 12180,2390 Z" /><path d="M 11300,2390 L 11300,2570 L 11300,2810 L 11400,2810 L 11400,2570 L 11400,2390 Z" /><path d="M 10780,2390 L 10780,2570 L 10780,2810 L 10880,2810 L 10880,2570 L 10880,2390 Z" /><path d="M 14390,1730 L 14300,1730 L 14210,1730 L 14120,1730 L 14120,1830 L 14210,1830 L 14300,1830 L 14390,1830 L 14515,1830 L 14550,1830 L 14685,1830 L 14810,1830 L 14810,1730 L 14685,1730 L 14550,1730 L 14515,1730 Z" /><path d="M 6850,1730 L 6760,1730 L 6720,1730 L 6580,1730 L 6580,1830 L 6720,1830 L 6760,1830 L 6850,1830 L 6975,1830 L 7010,1830 L 7145,1830 L 7270,1830 L 7270,1730 L 7145,1730 L 7010,1730 L 6975,1730 Z" /><path d="M 2170,1730 L 2080,1730 L 2040,1730 L 1900,1730 L 1900,1830 L 2040,1830 L 2080,1830 L 2170,1830 L 2295,1830 L 2330,1830 L 2465,1830 L 2590,1830 L 2590,1730 L 2465,1730 L 2330,1730 L 2295,1730 Z" /><path d="M 2555,1450 L 2600,1450 L 2725,1450 L 2850,1450 L 2850,1350 L 2725,1350 L 2600,1350 L 2555,1350 L 2430,1350 L 2420,1350 L 2420,1450 L 2430,1450 Z" /><path d="M 7235,1450 L 7280,1450 L 7405,1450 L 7530,1450 L 7530,1350 L 7405,1350 L 7280,1350 L 7235,1350 L 7110,1350 L 7100,1350 L 7100,1450 L 7110,1450 Z" /><path d="M 745,1830 L 860,1830 L 995,1830 L 1040,1830 L 1165,1830 L 1165,1730 L 1040,1730 L 995,1730 L 860,1730 L 745,1730 Z" /><path d="M 5425,1830 L 5540,1830 L 5675,1830 L 5720,1830 L 5845,1830 L 5845,1730 L 5720,1730 L 5675,1730 L 5540,1730 L 5425,1730 Z" /><path d="M 15860,1830 L 15950,1830 L 16075,1830 L 16110,1830 L 16245,1830 L 16370,1830 L 16370,1730 L 16245,1730 L 16110,1730 L 16075,1730 L 15950,1730 L 15860,1730 L 15760,1730 L 15680,1730 L 15680,1830 L 15760,1830 Z" /><path d="M 13995,1540 L 13260,1540 L 13170,1540 L 13080,1540 L 13080,1640 L 13170,1640 L 13260,1640 L 13995,1640 L 14080,1640 L 14165,1640 L 14165,1540 L 14080,1540 Z" /><path d="M 12695,1730 L 11960,1730 L 11870,1730 L 11780,1730 L 11780,1830 L 11870,1830 L 11960,1830 L 12695,1830 L 12780,1830 L 12865,1830 L 12865,1730 L 12780,1730 Z" /><path d="M 11395,1160 L 10660,1160 L 10570,1160 L 10480,1160 L 10480,1260 L 10570,1260 L 10660,1260 L 11395,1260 L 11480,1260 L 11565,1260 L 11565,1160 L 11480,1160 Z" /><path d="M 12175,1540 L 10400,1540 L 10310,1540 L 10220,1540 L 10220,1640 L 10310,1640 L 10400,1640 L 12175,1640 L 12260,1640 L 12345,1640 L 12345,1540 L 12260,1540 Z" /><path d="M 10875,2110 L 9880,2110 L 9790,2110 L 9700,2110 L 9700,2210 L 9790,2210 L 9880,2210 L 10875,2210 L 10960,2210 L 11045,2210 L 11045,2110 L 10960,2110 Z" /><path d="M 10095,1160 L 9100,1160 L 9060,1160 L 8920,1160 L 8920,1260 L 9060,1260 L 9100,1260 L 10095,1260 L 10180,1260 L 10265,1260 L 10265,1160 L 10180,1160 Z" /><path d="M 9720,1730 L 9720,1830 L 9835,1830 L 9960,1830 L 10005,1830 L 10140,1830 L 10140,1730 L 10005,1730 L 9960,1730 L 9835,1730 Z" /><path d="M 10050,1350 L 9960,1350 L 9960,1450 L 10050,1450 L 10140,1450 L 11135,1450 L 11220,1450 L 11305,1450 L 11915,1450 L 12000,1450 L 12085,1450 L 13475,1450 L 13560,1450 L 13645,1450 L 13645,1350 L 13560,1350 L 13475,1350 L 12085,1350 L 12000,1350 L 11915,1350 L 11305,1350 L 11220,1350 L 11135,1350 L 10140,1350 Z" /><path d="M 10615,1730 L 10615,1830 L 10740,1830 L 10785,1830 L 10920,1830 L 11035,1830 L 11035,1730 L 10920,1730 L 10785,1730 L 10740,1730 Z" /><path d="M 12605,1920 L 12520,1920 L 12435,1920 L 9100,1920 L 9010,1920 L 8920,1920 L 8920,2020 L 9010,2020 L 9100,2020 L 12435,2020 L 12520,2020 L 12605,2020 L 13215,2020 L 13300,2020 L 13385,2020 L 13385,1920 L 13300,1920 L 13215,1920 Z" /></g></g><g id="VIA1"><g class="l51d0"><path d="M 6880,2430 L 6980,2430 L 6980,2530 L 6880,2530 Z" /><path d="M 6360,900 L 6460,900 L 6460,1000 L 6360,1000 Z" /><path d="M 5320,2430 L 5420,2430 L 5420,2530 L 5320,2530 Z" /><path d="M 8700,2430 L 8800,2430 L 8800,2530 L 8700,2530 Z" /><path d="M 9220,2430 L 9320,2430 L 9320,2530 L 9220,2530 Z" /><path d="M 7400,900 L 7500,900 L 7500,1000 L 7400,1000 Z" /><path d="M 6100,1730 L 6200,1730 L 6200,1830 L 6100,1830 Z" /><path d="M 7660,1730 L 7760,1730 L 7760,1830 L 7660,1830 Z" /><path d="M 6880,1540 L 6980,1540 L 6980,1640 L 6880,1640 Z" /><path d="M 6880,840 L 6980,840 L 6980,940 L 6880,940 Z" /><path d="M 6360,1920 L 6460,1920 L 6460,2020 L 6360,2020 Z" /><path d="M 5320,1350 L 5420,1350 L 5420,1450 L 5320,1450 Z" /><path d="M 5320,840 L 5420,840 L 5420,940 L 5320,940 Z" /><path d="M 9220,1540 L 9320,1540 L 9320,1640 L 9220,1640 Z" /><path d="M 8700,1730 L 8800,1730 L 8800,1830 L 8700,1830 Z" /><path d="M 8700,840 L 8800,840 L 8800,940 L 8700,940 Z" /><path d="M 9220,840 L 9320,840 L 9320,940 L 9220,940 Z" /><path d="M 7400,2145 L 7500,2145 L 7500,2245 L 7400,2245 Z" /><path d="M 2200,2430 L 2300,2430 L 2300,2530 L 2200,2530 Z" /><path d="M 1680,900 L 1780,900 L 1780,1000 L 1680,1000 Z" /><path d="M 640,2430 L 740,2430 L 740,2530 L 640,2530 Z" /><path d="M 4020,2430 L 4120,2430 L 4120,2530 L 4020,2530 Z" /><path d="M 4540,2430 L 4640,2430 L 4640,2530 L 4540,2530 Z" /><path d="M 2720,900 L 2820,900 L 2820,1000 L 2720,1000 Z" /><path d="M 1420,1730 L 1520,1730 L 1520,1830 L 1420,1830 Z" /><path d="M 2980,1730 L 3080,1730 L 3080,1830 L 2980,1830 Z" /><path d="M 2200,1540 L 2300,1540 L 2300,1640 L 2200,1640 Z" /><path d="M 2200,840 L 2300,840 L 2300,940 L 2200,940 Z" /><path d="M 1680,1920 L 1780,1920 L 1780,2020 L 1680,2020 Z" /><path d="M 640,1350 L 740,1350 L 740,1450 L 640,1450 Z" /><path d="M 640,840 L 740,840 L 740,940 L 640,940 Z" /><path d="M 4540,1540 L 4640,1540 L 4640,1640 L 4540,1640 Z" /><path d="M 4020,1730 L 4120,1730 L 4120,1830 L 4020,1830 Z" /><path d="M 4020,840 L 4120,840 L 4120,940 L 4020,940 Z" /><path d="M 4540,840 L 4640,840 L 4640,940 L 4540,940 Z" /><path d="M 2720,2145 L 2820,2145 L 2820,2245 L 2720,2245 Z" /><path d="M 15980,960 L 16080,960 L 16080,1060 L 15980,1060 Z" /><path d="M 16500,960 L 16600,960 L 16600,1060 L 16500,1060 Z" /><path d="M 17020,960 L 17120,960 L 17120,1060 L 17020,1060 Z" /><path d="M 17020,2310 L 17120,2310 L 17120,2410 L 17020,2410 Z" /><path d="M 16500,2310 L 16600,2310 L 16600,2410 L 16500,2410 Z" /><path d="M 15980,2310 L 16080,2310 L 16080,2410 L 15980,2410 Z" /><path d="M 17020,1920 L 17120,1920 L 17120,2020 L 17020,2020 Z" /><path d="M 16500,1920 L 16600,1920 L 16600,2020 L 16500,2020 Z" /><path d="M 15980,1540 L 16080,1540 L 16080,1640 L 15980,1640 Z" /><path d="M 14420,960 L 14520,960 L 14520,1060 L 14420,1060 Z" /><path d="M 14940,960 L 15040,960 L 15040,1060 L 14940,1060 Z" /><path d="M 15460,960 L 15560,960 L 15560,1060 L 15460,1060 Z" /><path d="M 15460,2310 L 15560,2310 L 15560,2410 L 15460,2410 Z" /><path d="M 14940,2310 L 15040,2310 L 15040,2410 L 14940,2410 Z" /><path d="M 14420,2310 L 14520,2310 L 14520,2410 L 14420,2410 Z" /><path d="M 15460,1920 L 15560,1920 L 15560,2020 L 15460,2020 Z" /><path d="M 14940,1920 L 15040,1920 L 15040,2020 L 14940,2020 Z" /><path d="M 14420,1540 L 14520,1540 L 14520,1640 L 14420,1640 Z" /><path d="M 14160,2530 L 14260,2530 L 14260,2430 L 14160,2430 Z" /><path d="M 10260,2530 L 10360,2530 L 10360,2430 L 10260,2430 Z" /><path d="M 9740,2530 L 9840,2530 L 9840,2430 L 9740,2430 Z" /><path d="M 9740,780 L 9840,780 L 9840,880 L 9740,880 Z" /><path d="M 10260,780 L 10360,780 L 10360,880 L 10260,880 Z" /><path d="M 10520,840 L 10620,840 L 10620,940 L 10520,940 Z" /><path d="M 11560,840 L 11660,840 L 11660,940 L 11560,940 Z" /><path d="M 11820,840 L 11920,840 L 11920,940 L 11820,940 Z" /><path d="M 12860,840 L 12960,840 L 12960,940 L 12860,940 Z" /><path d="M 13120,840 L 13220,840 L 13220,940 L 13120,940 Z" /><path d="M 14160,780 L 14260,780 L 14260,880 L 14160,880 Z" /><path d="M 13380,2530 L 13480,2530 L 13480,2430 L 13380,2430 Z" /><path d="M 12600,2530 L 12700,2530 L 12700,2430 L 12600,2430 Z" /><path d="M 12080,2530 L 12180,2530 L 12180,2430 L 12080,2430 Z" /><path d="M 11300,2530 L 11400,2530 L 11400,2430 L 11300,2430 Z" /><path d="M 10780,2530 L 10880,2530 L 10880,2430 L 10780,2430 Z" /><path d="M 14160,1730 L 14260,1730 L 14260,1830 L 14160,1830 Z" /><path d="M 13120,1540 L 13220,1540 L 13220,1640 L 13120,1640 Z" /><path d="M 6620,1730 L 6720,1730 L 6720,1830 L 6620,1830 Z" /><path d="M 11820,1730 L 11920,1730 L 11920,1830 L 11820,1830 Z" /><path d="M 1940,1730 L 2040,1730 L 2040,1830 L 1940,1830 Z" /><path d="M 10520,1160 L 10620,1160 L 10620,1260 L 10520,1260 Z" /><path d="M 10260,1540 L 10360,1540 L 10360,1640 L 10260,1640 Z" /><path d="M 9740,2110 L 9840,2110 L 9840,2210 L 9740,2210 Z" /><path d="M 8960,1160 L 9060,1160 L 9060,1260 L 8960,1260 Z" /><path d="M 10000,1730 L 10100,1730 L 10100,1830 L 10000,1830 Z" /><path d="M 2460,1350 L 2560,1350 L 2560,1450 L 2460,1450 Z" /><path d="M 7140,1350 L 7240,1350 L 7240,1450 L 7140,1450 Z" /><path d="M 900,1730 L 1000,1730 L 1000,1830 L 900,1830 Z" /><path d="M 5580,1730 L 5680,1730 L 5680,1830 L 5580,1830 Z" /><path d="M 15720,1730 L 15820,1730 L 15820,1830 L 15720,1830 Z" /><path d="M 10000,1350 L 10100,1350 L 10100,1450 L 10000,1450 Z" /><path d="M 10780,1730 L 10880,1730 L 10880,1830 L 10780,1830 Z" /><path d="M 8960,1920 L 9060,1920 L 9060,2020 L 8960,2020 Z" /></g></g><g id="M2"><g class="l32d0"><path d="M 6980,1590 L 6980,1500 L 6980,980 L 6980,890 L 6980,800 L 6880,800 L 6880,890 L 6880,980 L 6880,1500 L 6880,1590 L 6880,1680 L 6880,2390 L 6880,2480 L 6880,2570 L 6980,2570 L 6980,2480 L 6980,2390 L 6980,1680 Z" /><path d="M 6360,1880 L 6360,1970 L 6360,2060 L 6460,2060 L 6460,1970 L 6460,1880 L 6460,1040 L 6460,950 L 6460,860 L 6360,860 L 6360,950 L 6360,1040 Z" /><path d="M 5420,1400 L 5420,1310 L 5420,980 L 5420,890 L 5420,800 L 5320,800 L 5320,890 L 5320,980 L 5320,1310 L 5320,1400 L 5320,1490 L 5320,2390 L 5320,2480 L 5320,2570 L 5420,2570 L 5420,2480 L 5420,2390 L 5420,1490 Z" /><path d="M 7400,2105 L 7400,2195 L 7400,2285 L 7500,2285 L 7500,2195 L 7500,2105 L 7500,1040 L 7500,950 L 7500,860 L 7400,860 L 7400,950 L 7400,1040 Z" /><path d="M 7660,1520 L 7660,1690 L 7660,1695 L 7660,1870 L 7660,1875 L 7660,2040 L 7760,2040 L 7760,1875 L 7760,1870 L 7760,1695 L 7760,1690 L 7760,1520 Z" /><path d="M 6100,1520 L 6100,1690 L 6100,1695 L 6100,1870 L 6100,1875 L 6100,2040 L 6200,2040 L 6200,1875 L 6200,1870 L 6200,1695 L 6200,1690 L 6200,1520 Z" /><path d="M 2300,1590 L 2300,1500 L 2300,980 L 2300,890 L 2300,800 L 2200,800 L 2200,890 L 2200,980 L 2200,1500 L 2200,1590 L 2200,1680 L 2200,2390 L 2200,2480 L 2200,2570 L 2300,2570 L 2300,2480 L 2300,2390 L 2300,1680 Z" /><path d="M 1680,1880 L 1680,1970 L 1680,2060 L 1780,2060 L 1780,1970 L 1780,1880 L 1780,1040 L 1780,950 L 1780,860 L 1680,860 L 1680,950 L 1680,1040 Z" /><path d="M 740,1400 L 740,1310 L 740,980 L 740,890 L 740,800 L 640,800 L 640,890 L 640,980 L 640,1310 L 640,1400 L 640,1490 L 640,2390 L 640,2480 L 640,2570 L 740,2570 L 740,2480 L 740,2390 L 740,1490 Z" /><path d="M 2720,2105 L 2720,2195 L 2720,2285 L 2820,2285 L 2820,2195 L 2820,2105 L 2820,1040 L 2820,950 L 2820,860 L 2720,860 L 2720,950 L 2720,1040 Z" /><path d="M 2980,1520 L 2980,1690 L 2980,1695 L 2980,1870 L 2980,1875 L 2980,2040 L 3080,2040 L 3080,1875 L 3080,1870 L 3080,1695 L 3080,1690 L 3080,1520 Z" /><path d="M 1420,1520 L 1420,1690 L 1420,1695 L 1420,1870 L 1420,1875 L 1420,2040 L 1520,2040 L 1520,1875 L 1520,1870 L 1520,1695 L 1520,1690 L 1520,1520 Z" /><path d="M 16600,2060 L 16600,1880 L 16600,1100 L 16600,1010 L 16600,920 L 16500,920 L 16500,1010 L 16500,1100 L 16500,1880 L 16500,2060 L 16500,2270 L 16500,2360 L 16500,2450 L 16600,2450 L 16600,2360 L 16600,2270 Z" /><path d="M 15980,1680 L 15980,2270 L 15980,2360 L 15980,2450 L 16080,2450 L 16080,2360 L 16080,2270 L 16080,1680 L 16080,1590 L 16080,1500 L 16080,1100 L 16080,1010 L 16080,920 L 15980,920 L 15980,1010 L 15980,1100 L 15980,1500 L 15980,1590 Z" /><path d="M 15040,2060 L 15040,1880 L 15040,1100 L 15040,1010 L 15040,920 L 14940,920 L 14940,1010 L 14940,1100 L 14940,1880 L 14940,2060 L 14940,2270 L 14940,2360 L 14940,2450 L 15040,2450 L 15040,2360 L 15040,2270 Z" /><path d="M 14420,1680 L 14420,2270 L 14420,2360 L 14420,2450 L 14520,2450 L 14520,2360 L 14520,2270 L 14520,1680 L 14520,1590 L 14520,1500 L 14520,1100 L 14520,1010 L 14520,920 L 14420,920 L 14420,1010 L 14420,1100 L 14420,1500 L 14420,1590 Z" /><path d="M 12960,800 L 12860,800 L 12860,890 L 12860,980 L 12860,2430 L 12740,2430 L 12650,2430 L 12560,2430 L 12560,2530 L 12650,2530 L 12740,2530 L 12860,2530 L 12860,2675 L 12960,2675 L 12960,2530 L 12960,2495 L 12960,2430 L 12960,980 L 12960,890 Z" /><path d="M 11660,980 L 11660,895 L 11660,890 L 11660,800 L 11560,800 L 11560,890 L 11559,890 L 11559,985 L 11559,2430 L 11440,2430 L 11350,2430 L 11260,2430 L 11260,2530 L 11350,2530 L 11440,2530 L 11559,2530 L 11660,2530 L 11660,2430 L 11660,1075 L 11660,985 Z" /><path d="M 17120,1880 L 17120,1275 L 17120,1185 L 17120,1100 L 17120,1095 L 17120,1010 L 17120,920 L 17020,920 L 17020,1010 L 17020,1095 L 17020,1100 L 17020,1185 L 17020,1275 L 17020,1880 L 17020,1920 L 17020,2060 L 17020,2270 L 17020,2360 L 17020,2450 L 17120,2450 L 17120,2360 L 17120,2270 L 17120,2060 L 17120,1920 Z" /><path d="M 15460,2450 L 15560,2450 L 15560,2360 L 15560,2270 L 15560,2075 L 15560,2060 L 15560,1895 L 15560,1880 L 15560,1100 L 15560,1010 L 15560,920 L 15460,920 L 15460,1010 L 15460,1100 L 15460,1880 L 15460,1895 L 15460,2060 L 15460,2075 L 15460,2270 L 15460,2360 Z" /><path d="M 9219,1640 L 9219,1785 L 9220,1785 L 9220,1875 L 9220,2390 L 9220,2480 L 9220,2570 L 9320,2570 L 9320,2480 L 9320,2390 L 9320,1875 L 9320,1785 L 9320,1695 L 9320,1680 L 9320,1640 L 9320,1590 L 9320,1500 L 9320,980 L 9320,890 L 9320,800 L 9220,800 L 9220,890 L 9220,980 L 9220,1500 L 9220,1590 L 9220,1640 Z" /><path d="M 4540,1680 L 4540,1895 L 4540,1985 L 4540,2075 L 4540,2390 L 4540,2480 L 4540,2570 L 4640,2570 L 4640,2480 L 4640,2390 L 4640,2075 L 4640,1985 L 4640,1895 L 4640,1680 L 4640,1640 L 4640,1590 L 4640,1500 L 4640,980 L 4640,890 L 4640,800 L 4540,800 L 4540,890 L 4540,980 L 4540,1500 L 4540,1590 L 4540,1640 Z" /><path d="M 8800,1690 L 8800,1475 L 8800,1385 L 8800,1295 L 8800,980 L 8800,890 L 8800,800 L 8700,800 L 8700,890 L 8700,980 L 8700,1295 L 8700,1385 L 8700,1475 L 8700,1690 L 8700,1730 L 8700,1780 L 8700,1870 L 8700,2390 L 8700,2480 L 8700,2570 L 8800,2570 L 8800,2480 L 8800,2390 L 8800,1870 L 8800,1780 L 8800,1730 Z" /><path d="M 4120,1690 L 4120,1675 L 4120,1585 L 4120,1495 L 4120,980 L 4120,890 L 4120,800 L 4020,800 L 4020,890 L 4020,980 L 4020,1495 L 4020,1585 L 4020,1675 L 4020,1690 L 4020,1730 L 4020,1780 L 4020,1870 L 4020,2390 L 4020,2480 L 4020,2570 L 4120,2570 L 4120,2480 L 4120,2390 L 4120,1870 L 4120,1780 L 4120,1730 Z" /><path d="M 14260,1690 L 14260,920 L 14260,830 L 14260,740 L 14160,740 L 14160,830 L 14160,920 L 14160,1690 L 14160,1780 L 14160,1870 L 14160,2390 L 14160,2480 L 14160,2570 L 14260,2570 L 14260,2480 L 14260,2390 L 14260,1870 L 14260,1780 Z" /><path d="M 13220,2430 L 13220,1680 L 13220,1500 L 13220,980 L 13220,890 L 13220,800 L 13120,800 L 13120,890 L 13120,980 L 13120,1500 L 13120,1680 L 13120,2430 L 13120,2530 L 13220,2530 L 13340,2530 L 13430,2530 L 13520,2530 L 13520,2430 L 13430,2430 L 13340,2430 Z" /><path d="M 6620,1870 L 6620,2495 L 6620,2535 L 6620,2675 L 6720,2675 L 6720,2535 L 6720,2495 L 6720,1870 L 6720,1780 L 6720,1690 L 6620,1690 L 6620,1780 Z" /><path d="M 11920,2430 L 11920,1870 L 11920,1690 L 11920,980 L 11920,890 L 11920,800 L 11820,800 L 11820,890 L 11820,980 L 11820,1690 L 11820,1870 L 11820,2430 L 11820,2530 L 11920,2530 L 12040,2530 L 12130,2530 L 12220,2530 L 12220,2430 L 12130,2430 L 12040,2430 Z" /><path d="M 2040,1690 L 2040,1075 L 2040,1035 L 2040,895 L 1940,895 L 1940,1035 L 1940,1075 L 1940,1690 L 1940,1780 L 1940,1870 L 2040,1870 L 2040,1780 Z" /><path d="M 10620,2430 L 10620,1300 L 10620,1120 L 10620,980 L 10620,890 L 10620,800 L 10520,800 L 10520,890 L 10520,980 L 10520,1120 L 10520,1300 L 10520,2430 L 10520,2530 L 10620,2530 L 10740,2530 L 10830,2530 L 10920,2530 L 10920,2430 L 10830,2430 L 10740,2430 Z" /><path d="M 10260,1500 L 10260,1680 L 10260,2390 L 10260,2480 L 10260,2570 L 10360,2570 L 10360,2480 L 10360,2390 L 10360,1680 L 10360,1500 L 10360,920 L 10360,830 L 10360,740 L 10260,740 L 10260,830 L 10260,920 Z" /><path d="M 9840,830 L 9840,740 L 9740,740 L 9740,830 L 9740,920 L 9740,2070 L 9740,2250 L 9740,2390 L 9740,2480 L 9740,2570 L 9840,2570 L 9840,2480 L 9840,2390 L 9840,2250 L 9840,2070 L 9840,920 Z" /><path d="M 9060,940 L 8960,940 L 8960,1095 L 8960,1120 L 8960,1275 L 8960,1300 L 8960,1460 L 9060,1460 L 9060,1300 L 9060,1275 L 9060,1120 L 9060,1095 Z" /><path d="M 10000,1870 L 10000,2295 L 10000,2385 L 10000,2475 L 10100,2475 L 10100,2385 L 10100,2295 L 10100,1870 L 10100,1780 L 10100,1690 L 10000,1690 L 10000,1780 Z" /><path d="M 2460,1490 L 2460,2095 L 2460,2185 L 2460,2275 L 2560,2275 L 2560,2185 L 2560,2095 L 2560,1490 L 2560,1400 L 2560,1310 L 2460,1310 L 2460,1400 Z" /><path d="M 7140,1490 L 7140,2095 L 7140,2135 L 7140,2275 L 7240,2275 L 7240,2135 L 7240,2095 L 7240,1490 L 7240,1400 L 7240,1310 L 7140,1310 L 7140,1400 Z" /><path d="M 1000,1690 L 1000,1475 L 1000,1385 L 1000,1295 L 900,1295 L 900,1385 L 900,1475 L 900,1690 L 900,1780 L 900,1870 L 1000,1870 L 1000,1780 Z" /><path d="M 5680,1690 L 5680,1475 L 5680,1435 L 5680,1295 L 5580,1295 L 5580,1435 L 5580,1475 L 5580,1690 L 5580,1780 L 5580,1870 L 5680,1870 L 5680,1780 Z" /><path d="M 15820,1690 L 15820,1475 L 15820,1385 L 15820,1295 L 15720,1295 L 15720,1385 L 15719,1385 L 15719,1780 L 15720,1780 L 15720,1870 L 15820,1870 L 15820,1780 Z" /><path d="M 10100,955 L 10000,955 L 10000,1295 L 10000,1310 L 10000,1475 L 10000,1490 L 10100,1490 L 10100,1475 L 10100,1310 L 10100,1295 Z" /><path d="M 10780,1420 L 10780,1495 L 10780,1675 L 10780,1690 L 10780,1870 L 10780,1940 L 10880,1940 L 10880,1870 L 10880,1690 L 10880,1675 L 10880,1495 L 10880,1420 Z" /><path d="M 8960,1880 L 8960,1895 L 8960,2060 L 8960,2075 L 8960,2400 L 9060,2400 L 9060,2075 L 9060,2060 L 9060,1895 L 9060,1880 Z" /></g></g><g id="VIA2"><g class="l52d0"><path d="M 7660,1735 L 7760,1735 L 7760,1835 L 7660,1835 Z" /><path d="M 6100,1735 L 6200,1735 L 6200,1835 L 6100,1835 Z" /><path d="M 2980,1735 L 3080,1735 L 3080,1835 L 2980,1835 Z" /><path d="M 1420,1735 L 1520,1735 L 1520,1835 L 1420,1835 Z" /><path d="M 12860,2535 L 12960,2535 L 12960,2635 L 12860,2635 Z" /><path d="M 6620,2535 L 6720,2535 L 6720,2635 L 6620,2635 Z" /><path d="M 11560,935 L 11660,935 L 11660,1035 L 11560,1035 Z" /><path d="M 1940,935 L 2040,935 L 2040,1035 L 1940,1035 Z" /><path d="M 17020,1135 L 17120,1135 L 17120,1235 L 17020,1235 Z" /><path d="M 15460,1935 L 15560,1935 L 15560,2035 L 15460,2035 Z" /><path d="M 8960,1135 L 9060,1135 L 9060,1235 L 8960,1235 Z" /><path d="M 10000,2335 L 10100,2335 L 10100,2435 L 10000,2435 Z" /><path d="M 2460,2135 L 2560,2135 L 2560,2235 L 2460,2235 Z" /><path d="M 7140,2135 L 7240,2135 L 7240,2235 L 7140,2235 Z" /><path d="M 900,1335 L 1000,1335 L 1000,1435 L 900,1435 Z" /><path d="M 5580,1335 L 5680,1335 L 5680,1435 L 5580,1435 Z" /><path d="M 9220,1735 L 9320,1735 L 9320,1835 L 9220,1835 Z" /><path d="M 15720,1335 L 15820,1335 L 15820,1435 L 15720,1435 Z" /><path d="M 10780,1535 L 10880,1535 L 10880,1635 L 10780,1635 Z" /><path d="M 8960,1935 L 9060,1935 L 9060,2035 L 8960,2035 Z" /><path d="M 4540,1935 L 4640,1935 L 4640,2035 L 4540,2035 Z" /><path d="M 10000,1335 L 10100,1335 L 10100,1435 L 10000,1435 Z" /><path d="M 8700,1335 L 8800,1335 L 8800,1435 L 8700,1435 Z" /><path d="M 4020,1535 L 4120,1535 L 4120,1635 L 4020,1635 Z" /></g></g><g id="M3"><g class="l33d0"><path d="M 1560,1835 L 2940,1835 L 3030,1835 L 3120,1835 L 6060,1835 L 6100,1835 L 6150,1835 L 6240,1835 L 7620,1835 L 7710,1835 L 7800,1835 L 7800,1735 L 7710,1735 L 7620,1735 L 6240,1735 L 6150,1735 L 6100,1735 L 6060,1735 L 3120,1735 L 3030,1735 L 2940,1735 L 1560,1735 L 1520,1735 L 1470,1735 L 1420,1735 L 1380,1735 L 430,1735 L 430,1835 L 1380,1835 L 1420,1835 L 1470,1835 L 1520,1835 Z" /><path d="M 6760,2635 L 12820,2635 L 12910,2635 L 13000,2635 L 13000,2535 L 12910,2535 L 12820,2535 L 6760,2535 L 6670,2535 L 6580,2535 L 6580,2635 L 6670,2635 Z" /><path d="M 2080,1035 L 11520,1035 L 11610,1035 L 11700,1035 L 11700,935 L 11610,935 L 11610,934 L 1990,934 L 1990,935 L 1900,935 L 1900,1035 L 1990,1035 Z" /><path d="M 16810,1235 L 16980,1235 L 17070,1235 L 17160,1235 L 17330,1235 L 17330,1135 L 17160,1135 L 17070,1135 L 16980,1135 L 16810,1135 Z" /><path d="M 15600,2035 L 17330,2035 L 17330,1935 L 15600,1935 L 15510,1935 L 15420,1935 L 15420,2035 L 15510,2035 Z" /><path d="M 8920,1135 L 430,1135 L 430,1235 L 8920,1235 L 9010,1235 L 9100,1235 L 9100,1135 L 9010,1135 Z" /><path d="M 9960,2335 L 430,2335 L 430,2435 L 9960,2435 L 10050,2435 L 10140,2435 L 10140,2335 L 10050,2335 Z" /><path d="M 2510,2135 L 2420,2135 L 430,2135 L 430,2235 L 2420,2235 L 2510,2235 L 2600,2235 L 7100,2235 L 7190,2235 L 7280,2235 L 7280,2135 L 7190,2135 L 7100,2135 L 2600,2135 Z" /><path d="M 860,1435 L 950,1435 L 1040,1435 L 5540,1435 L 5630,1435 L 5720,1435 L 5720,1335 L 5630,1335 L 5540,1335 L 1040,1335 L 950,1335 L 860,1335 L 430,1335 L 430,1435 Z" /><path d="M 9360,1835 L 17330,1835 L 17330,1735 L 9360,1735 L 9270,1735 L 9180,1735 L 9180,1835 L 9270,1835 Z" /><path d="M 4680,2035 L 8920,2035 L 9010,2035 L 9100,2035 L 9100,1935 L 9010,1935 L 8920,1935 L 4680,1935 L 4590,1935 L 4500,1935 L 4500,2035 L 4590,2035 Z" /><path d="M 15770,1335 L 15680,1335 L 10140,1335 L 10050,1335 L 10005,1335 L 9960,1335 L 8840,1335 L 8750,1335 L 8660,1335 L 8660,1435 L 8750,1435 L 8840,1435 L 9960,1435 L 10005,1435 L 10050,1435 L 10140,1435 L 15680,1435 L 15770,1435 L 15860,1435 L 17330,1435 L 17330,1335 L 15860,1335 Z" /><path d="M 4160,1635 L 10740,1635 L 10920,1635 L 17330,1635 L 17330,1535 L 10920,1535 L 10740,1535 L 4160,1535 L 4070,1535 L 3980,1535 L 3980,1635 L 4070,1635 Z" /></g></g></g></svg>