<svg width="3210" height="3550" viewBox="-5 -3545 3210 3550" xmlns="http://www.w3.org/2000/svg" xmlns:xlink="http://www.w3.org/1999/xlink"><defs><style type="text/css">.l3d0 {fill: #fef9e7; fill-opacity: 0.5; stroke-width: 10; stroke: #f1c40f; stroke-linecap: round; stroke-linejoin: round; stroke-opacity: 0.2;}.l25d0 {fill: #8e44ad; fill-opacity: 0.05; stroke-width: 10; stroke: #8e44ad; stroke-linecap: round; stroke-linejoin: round; stroke-opacity: 1;}.l26d0 {fill: #ccd1d1; fill-opacity: 0.05; stroke-width: 10; stroke: #ccd1d1; stroke-linecap: round; stroke-linejoin: round; stroke-opacity: 1;}.l6d0 {fill: #f5b7b1; fill-opacity: 1; stroke-width: 10; stroke: #e74c3c; stroke-linecap: round; stroke-linejoin: round; stroke-opacity: 1;}.l17d0 {fill: #2980b9; fill-opacity: 1; stroke-width: 0; stroke: #000000; stroke-linecap: round; stroke-linejoin: round; stroke-opacity: 0;}.l30d0 {fill: #27ae60; fill-opacity: 1; stroke-width: 0; stroke: #000000; stroke-linecap: round; stroke-linejoin: round; stroke-opacity: 0;}.l31d0 {fill: #85c1e9; fill-opacity: 0.6; stroke-width: 0; stroke: #000000; stroke-linecap: round; stroke-linejoin: round; stroke-opacity: 0;}.l51d0 {fill: #f39c12; fill-opacity: 1; stroke-width: 10; stroke: #f39c12; stroke-linecap: round; stroke-linejoin: round; stroke-opacity: 1;}.l32d0 {fill: #f7dc6f; fill-opacity: 0.6; stroke-width: 0; stroke: #000000; stroke-linecap: round; stroke-linejoin: round; stroke-opacity: 0;}path {fill-rule: evenodd;}</style></defs><g transform="scale(1 -1)"><g id="NW"><g class="l3d0"><path d="M 0,3540 L 3200,3540 L 3200,1900 L 0,1900 Z" /></g></g><g id="PP"><g class="l25d0"><path d="M 170,0 L 3030,0 L 3030,430 L 170,430 Z" /><path d="M 170,1685 L 170,2940 L 325,2940 L 795,2940 L 845,2940 L 1105,2940 L 1315,2940 L 1365,2940 L 1575,2940 L 1625,2940 L 1835,2940 L 2095,2940 L 2145,2940 L 2405,2940 L 2615,2940 L 2875,2940 L 3030,2940 L 3030,1685 Z" /></g></g><g id="NP"><g class="l26d0"><path d="M 170,2940 L 3030,2940 L 3030,3370 L 170,3370 Z" /><path d="M 3030,1685 L 3030,430 L 2875,430 L 2615,430 L 2405,430 L 2145,430 L 2095,430 L 1835,430 L 1625,430 L 1575,430 L 1365,430 L 1315,430 L 1105,430 L 845,430 L 795,430 L 325,430 L 170,430 L 170,1685 Z" /></g></g><g id="OD"><g class="l6d0"><path d="M 300,130 L 2900,130 L 2900,300 L 300,300 Z" /><path d="M 300,3070 L 2900,3070 L 2900,3240 L 300,3240 Z" /><path d="M 370,770 L 370,1010 L 455,1010 L 530,1010 L 590,1010 L 665,1010 L 750,1010 L 750,770 L 665,770 L 590,770 L 530,770 L 455,770 Z" /><path d="M 2485,770 L 2410,770 L 2350,770 L 2275,770 L 2190,770 L 2190,1010 L 2275,1010 L 2350,1010 L 2410,1010 L 2485,1010 L 2535,1010 L 2610,1010 L 2670,1010 L 2745,1010 L 2830,1010 L 2830,770 L 2745,770 L 2670,770 L 2610,770 L 2535,770 Z" /><path d="M 1570,1010 L 1630,1010 L 1705,1010 L 1755,1010 L 1830,1010 L 1890,1010 L 1965,1010 L 2050,1010 L 2050,770 L 1965,770 L 1890,770 L 1830,770 L 1755,770 L 1705,770 L 1630,770 L 1570,770 L 1495,770 L 1445,770 L 1370,770 L 1310,770 L 1235,770 L 1185,770 L 1110,770 L 1050,770 L 975,770 L 890,770 L 890,1010 L 975,1010 L 1050,1010 L 1110,1010 L 1185,1010 L 1235,1010 L 1310,1010 L 1370,1010 L 1445,1010 L 1495,1010 Z" /><path d="M 370,2360 L 370,2600 L 455,2600 L 530,2600 L 590,2600 L 665,2600 L 750,2600 L 750,2360 L 665,2360 L 590,2360 L 530,2360 L 455,2360 Z" /><path d="M 2485,2360 L 2410,2360 L 2350,2360 L 2275,2360 L 2190,2360 L 2190,2600 L 2275,2600 L 2350,2600 L 2410,2600 L 2485,2600 L 2535,2600 L 2610,2600 L 2670,2600 L 2745,2600 L 2830,2600 L 2830,2360 L 2745,2360 L 2670,2360 L 2610,2360 L 2535,2360 Z" /><path d="M 1570,2600 L 1630,2600 L 1705,2600 L 1755,2600 L 1830,2600 L 1890,2600 L 1965,2600 L 2050,2600 L 2050,2360 L 1965,2360 L 1890,2360 L 1830,2360 L 1755,2360 L 1705,2360 L 1630,2360 L 1570,2360 L 1495,2360 L 1445,2360 L 1370,2360 L 1310,2360 L 1235,2360 L 1185,2360 L 1110,2360 L 1050,2360 L 975,2360 L 890,2360 L 890,2600 L 975,2600 L 1050,2600 L 1110,2600 L 1185,2600 L 1235,2600 L 1310,2600 L 1370,2600 L 1445,2600 L 1495,2600 Z" /></g></g><g id="PO"><g class="l17d0"><path d="M 1890,1010 L 1890,770 L 1890,630 L 1830,630 L 1830,770 L 1830,1010 L 1830,1150 L 1830,1315 L 1805,1315 L 1805,1485 L 1830,1485 L 1830,2220 L 1830,2360 L 1830,2600 L 1830,2740 L 1890,2740 L 1890,2600 L 1890,2360 L 1890,2220 L 1890,1485 L 1915,1485 L 1915,1315 L 1890,1315 L 1890,1150 Z" /><path d="M 590,1030 L 590,1010 L 590,770 L 590,630 L 530,630 L 530,770 L 530,1010 L 530,1030 L 530,1150 L 530,1315 L 505,1315 L 505,1485 L 530,1485 L 530,2220 L 530,2360 L 530,2600 L 530,2740 L 590,2740 L 590,2600 L 590,2360 L 590,2220 L 590,1485 L 615,1485 L 615,1315 L 590,1315 L 590,1150 Z" /><path d="M 1630,1010 L 1630,770 L 1630,630 L 1570,630 L 1570,770 L 1570,1010 L 1570,1150 L 1570,1885 L 1545,1885 L 1545,2055 L 1570,2055 L 1570,2220 L 1570,2360 L 1570,2600 L 1570,2740 L 1630,2740 L 1630,2600 L 1630,2360 L 1630,2220 L 1630,2055 L 1655,2055 L 1655,1885 L 1630,1885 L 1630,1150 Z" /><path d="M 1110,1010 L 1110,770 L 1110,630 L 1050,630 L 1050,770 L 1050,1010 L 1050,1150 L 1050,1885 L 1025,1885 L 1025,2055 L 1050,2055 L 1050,2220 L 1050,2360 L 1050,2600 L 1050,2740 L 1110,2740 L 1110,2600 L 1110,2360 L 1110,2220 L 1110,2055 L 1135,2055 L 1135,1885 L 1110,1885 L 1110,1150 Z" /><path d="M 2670,1010 L 2670,770 L 2670,630 L 2610,630 L 2610,770 L 2610,1010 L 2610,1150 L 2610,1505 L 2585,1505 L 2585,1675 L 2610,1675 L 2610,2220 L 2610,2360 L 2610,2600 L 2610,2740 L 2670,2740 L 2670,2600 L 2670,2360 L 2670,2220 L 2670,1675 L 2695,1675 L 2695,1505 L 2670,1505 L 2670,1150 Z" /><path d="M 2410,1150 L 2410,1010 L 2410,770 L 2410,630 L 2350,630 L 2350,770 L 2350,1010 L 2350,1150 L 2350,1695 L 2325,1695 L 2325,1865 L 2350,1865 L 2350,2220 L 2350,2360 L 2350,2600 L 2350,2740 L 2410,2740 L 2410,2600 L 2410,2360 L 2410,2220 L 2409,2220 L 2409,1865 L 2435,1865 L 2435,1695 L 2409,1695 L 2409,1150 Z" /><path d="M 1370,1010 L 1370,770 L 1370,630 L 1310,630 L 1310,770 L 1310,1010 L 1310,1150 L 1310,1695 L 1285,1695 L 1285,1865 L 1310,1865 L 1310,2220 L 1310,2360 L 1310,2600 L 1310,2740 L 1370,2740 L 1370,2600 L 1370,2360 L 1370,2220 L 1370,1865 L 1395,1865 L 1395,1695 L 1370,1695 L 1370,1150 Z" /></g></g><g id="CO"><g class="l30d0"><path d="M 1685,2435 L 1775,2435 L 1775,2525 L 1685,2525 Z" /><path d="M 1165,2435 L 1255,2435 L 1255,2525 L 1165,2525 Z" /><path d="M 2725,845 L 2815,845 L 2815,935 L 2725,935 Z" /><path d="M 2205,845 L 2295,845 L 2295,935 L 2205,935 Z" /><path d="M 1945,845 L 2035,845 L 2035,935 L 1945,935 Z" /><path d="M 1425,845 L 1515,845 L 1515,935 L 1425,935 Z" /><path d="M 905,845 L 995,845 L 995,935 L 905,935 Z" /><path d="M 645,845 L 735,845 L 735,935 L 645,935 Z" /><path d="M 385,845 L 475,845 L 475,935 L 385,935 Z" /><path d="M 385,2435 L 475,2435 L 475,2525 L 385,2525 Z" /><path d="M 645,2435 L 735,2435 L 735,2525 L 645,2525 Z" /><path d="M 905,2435 L 995,2435 L 995,2525 L 905,2525 Z" /><path d="M 1425,2435 L 1515,2435 L 1515,2525 L 1425,2525 Z" /><path d="M 1945,2435 L 2035,2435 L 2035,2525 L 1945,2525 Z" /><path d="M 2205,2435 L 2295,2435 L 2295,2525 L 2205,2525 Z" /><path d="M 2725,2435 L 2815,2435 L 2815,2525 L 2725,2525 Z" /><path d="M 2465,2435 L 2555,2435 L 2555,2525 L 2465,2525 Z" /><path d="M 385,170 L 475,170 L 475,260 L 385,260 Z" /><path d="M 645,170 L 735,170 L 735,260 L 645,260 Z" /><path d="M 905,170 L 995,170 L 995,260 L 905,260 Z" /><path d="M 1165,170 L 1255,170 L 1255,260 L 1165,260 Z" /><path d="M 1425,170 L 1515,170 L 1515,260 L 1425,260 Z" /><path d="M 1685,170 L 1775,170 L 1775,260 L 1685,260 Z" /><path d="M 1945,170 L 2035,170 L 2035,260 L 1945,260 Z" /><path d="M 2205,170 L 2295,170 L 2295,260 L 2205,260 Z" /><path d="M 2725,170 L 2815,170 L 2815,260 L 2725,260 Z" /><path d="M 2465,170 L 2555,170 L 2555,260 L 2465,260 Z" /><path d="M 385,3110 L 475,3110 L 475,3200 L 385,3200 Z" /><path d="M 645,3110 L 735,3110 L 735,3200 L 645,3200 Z" /><path d="M 905,3110 L 995,3110 L 995,3200 L 905,3200 Z" /><path d="M 1165,3110 L 1255,3110 L 1255,3200 L 1165,3200 Z" /><path d="M 1425,3110 L 1515,3110 L 1515,3200 L 1425,3200 Z" /><path d="M 1685,3110 L 1775,3110 L 1775,3200 L 1685,3200 Z" /><path d="M 1945,3110 L 2035,3110 L 2035,3200 L 1945,3200 Z" /><path d="M 2205,3110 L 2295,3110 L 2295,3200 L 2205,3200 Z" /><path d="M 2725,3110 L 2815,3110 L 2815,3200 L 2725,3200 Z" /><path d="M 2465,3110 L 2555,3110 L 2555,3200 L 2465,3200 Z" /><path d="M 1815,1355 L 1905,1355 L 1905,1445 L 1815,1445 Z" /><path d="M 515,1355 L 605,1355 L 605,1445 L 515,1445 Z" /><path d="M 1555,1925 L 1645,1925 L 1645,2015 L 1555,2015 Z" /><path d="M 1035,1925 L 1125,1925 L 1125,2015 L 1035,2015 Z" /><path d="M 2595,1545 L 2685,1545 L 2685,1635 L 2595,1635 Z" /><path d="M 2335,1735 L 2425,1735 L 2425,1825 L 2335,1825 Z" /><path d="M 1295,1735 L 1385,1735 L 1385,1825 L 1295,1825 Z" /></g></g><g id="M1"><g class="l31d0"><path d="M 2820,2565 L 2820,2395 L 2720,2395 L 2720,2565 L 2720,3060 L 2300,3060 L 2300,2565 L 2300,2395 L 2200,2395 L 2200,2565 L 2200,3060 L 2040,3060 L 2040,2565 L 2040,2395 L 1940,2395 L 1940,2565 L 1940,3060 L 1520,3060 L 1520,2565 L 1520,2395 L 1420,2395 L 1420,2565 L 1420,3060 L 1000,3060 L 1000,2565 L 1000,2395 L 900,2395 L 900,2565 L 900,3060 L 480,3060 L 480,2565 L 480,2395 L 380,2395 L 380,2565 L 380,3060 L 290,3060 L 290,3250 L 2910,3250 L 2910,3060 L 2820,3060 Z" /><path d="M 290,120 L 290,310 L 380,310 L 380,805 L 380,975 L 480,975 L 480,805 L 480,310 L 1420,310 L 1420,805 L 1420,975 L 1520,975 L 1520,805 L 1520,310 L 2200,310 L 2200,805 L 2200,975 L 2300,975 L 2300,805 L 2300,310 L 2910,310 L 2910,120 Z" /><path d="M 2460,2390 L 2460,2395 L 2460,2565 L 2460,2570 L 2460,2810 L 2560,2810 L 2560,2570 L 2560,2565 L 2560,2395 L 2560,2390 Z" /><path d="M 2720,560 L 2720,800 L 2720,805 L 2720,975 L 2720,980 L 2820,980 L 2820,975 L 2820,805 L 2820,800 L 2820,560 Z" /><path d="M 1680,2390 L 1680,2395 L 1680,2565 L 1680,2570 L 1680,2810 L 1780,2810 L 1780,2570 L 1780,2565 L 1780,2395 L 1780,2390 Z" /><path d="M 1940,560 L 1940,800 L 1940,805 L 1940,975 L 1940,980 L 2040,980 L 2040,975 L 2040,805 L 2040,800 L 2040,560 Z" /><path d="M 900,560 L 900,800 L 900,805 L 900,975 L 900,980 L 1000,980 L 1000,975 L 1000,805 L 1000,800 L 1000,560 Z" /><path d="M 1160,2390 L 1160,2395 L 1160,2565 L 1160,2570 L 1160,2810 L 1260,2810 L 1260,2570 L 1260,2565 L 1260,2395 L 1260,2390 Z" /><path d="M 640,560 L 640,800 L 640,805 L 640,975 L 640,980 L 740,980 L 740,975 L 740,805 L 740,800 L 740,560 Z" /><path d="M 640,2390 L 640,2395 L 640,2565 L 640,2570 L 640,2810 L 740,2810 L 740,2570 L 740,2565 L 740,2395 L 740,2390 Z" /><path d="M 645,1350 L 510,1350 L 475,1350 L 475,1450 L 510,1450 L 645,1450 L 1775,1450 L 1860,1450 L 1945,1450 L 1945,1350 L 1860,1350 L 1775,1350 Z" /><path d="M 1515,1920 L 1515,2020 L 1685,2020 L 1935,2020 L 1935,1920 L 1685,1920 Z" /><path d="M 740,1920 L 740,2020 L 995,2020 L 1160,2020 L 1165,2020 L 1165,1920 L 1160,1920 L 995,1920 Z" /><path d="M 1040,1540 L 950,1540 L 860,1540 L 860,1640 L 950,1640 L 1040,1640 L 2555,1640 L 2640,1640 L 2725,1640 L 2725,1540 L 2640,1540 L 2555,1540 Z" /><path d="M 780,1730 L 690,1730 L 600,1730 L 600,1830 L 690,1830 L 780,1830 L 1255,1830 L 1340,1830 L 1425,1830 L 1425,1730 L 1340,1730 L 1255,1730 Z" /><path d="M 1820,1730 L 1730,1730 L 1640,1730 L 1640,1830 L 1730,1830 L 1820,1830 L 2295,1830 L 2380,1830 L 2465,1830 L 2465,1730 L 2380,1730 L 2295,1730 Z" /></g></g><g id="VIA1"><g class="l51d0"><path d="M 2460,2430 L 2560,2430 L 2560,2530 L 2460,2530 Z" /><path d="M 2720,840 L 2820,840 L 2820,940 L 2720,940 Z" /><path d="M 1680,2430 L 1780,2430 L 1780,2530 L 1680,2530 Z" /><path d="M 1940,840 L 2040,840 L 2040,940 L 1940,940 Z" /><path d="M 900,840 L 1000,840 L 1000,940 L 900,940 Z" /><path d="M 1160,2430 L 1260,2430 L 1260,2530 L 1160,2530 Z" /><path d="M 640,840 L 740,840 L 740,940 L 640,940 Z" /><path d="M 640,2430 L 740,2430 L 740,2530 L 640,2530 Z" /><path d="M 900,1540 L 1000,1540 L 1000,1640 L 900,1640 Z" /><path d="M 640,1730 L 740,1730 L 740,1830 L 640,1830 Z" /><path d="M 1680,1730 L 1780,1730 L 1780,1830 L 1680,1830 Z" /></g></g><g id="M2"><g class="l32d0"><path d="M 2720,980 L 2720,1635 L 2560,1635 L 2460,1635 L 2460,1735 L 2460,2390 L 2460,2480 L 2460,2570 L 2560,2570 L 2560,2480 L 2560,2390 L 2560,1735 L 2720,1735 L 2820,1735 L 2820,1635 L 2820,980 L 2820,890 L 2820,800 L 2720,800 L 2720,890 Z" /><path d="M 1160,2480 L 1160,2570 L 1260,2570 L 1260,2480 L 1260,2390 L 1260,1735 L 1260,1635 L 1160,1635 L 1000,1635 L 1000,1590 L 1000,1500 L 1000,980 L 1000,890 L 1000,800 L 900,800 L 900,890 L 900,980 L 900,1500 L 900,1590 L 900,1635 L 900,1680 L 900,1735 L 1000,1735 L 1160,1735 L 1160,2390 Z" /><path d="M 740,830 L 740,800 L 640,800 L 640,830 L 640,980 L 640,1690 L 640,1780 L 640,1870 L 640,2390 L 640,2480 L 640,2570 L 740,2570 L 740,2480 L 740,2390 L 740,1870 L 740,1780 L 740,1690 L 740,980 Z" /><path d="M 1680,2570 L 1780,2570 L 1780,2480 L 1780,2390 L 1780,1870 L 1780,1780 L 1780,1735 L 1940,1735 L 2040,1735 L 2040,1635 L 2040,980 L 2040,890 L 2040,800 L 1940,800 L 1940,890 L 1940,980 L 1940,1635 L 1780,1635 L 1680,1635 L 1680,1690 L 1680,1735 L 1680,1780 L 1680,1870 L 1680,2390 L 1680,2480 Z" /></g></g></g></svg>