<svg width="3210" height="3550" viewBox="-5 -3545 3210 3550" xmlns="http://www.w3.org/2000/svg" xmlns:xlink="http://www.w3.org/1999/xlink"><defs><style type="text/css">.l3d0 {fill: #fef9e7; fill-opacity: 0.5; stroke-width: 10; stroke: #f1c40f; stroke-linecap: round; stroke-linejoin: round; stroke-opacity: 0.2;}.l25d0 {fill: #8e44ad; fill-opacity: 0.05; stroke-width: 10; stroke: #8e44ad; stroke-linecap: round; stroke-linejoin: round; stroke-opacity: 1;}.l26d0 {fill: #ccd1d1; fill-opacity: 0.05; stroke-width: 10; stroke: #ccd1d1; stroke-linecap: round; stroke-linejoin: round; stroke-opacity: 1;}.l6d0 {fill: #f5b7b1; fill-opacity: 1; stroke-width: 10; stroke: #e74c3c; stroke-linecap: round; stroke-linejoin: round; stroke-opacity: 1;}.l17d0 {fill: #2980b9; fill-opacity: 1; stroke-width: 0; stroke: #000000; stroke-linecap: round; stroke-linejoin: round; stroke-opacity: 0;}.l30d0 {fill: #27ae60; fill-opacity: 1; stroke-width: 0; stroke: #000000; stroke-linecap: round; stroke-linejoin: round; stroke-opacity: 0;}.l31d0 {fill: #85c1e9; fill-opacity: 0.6; stroke-width: 0; stroke: #000000; stroke-linecap: round; stroke-linejoin: round; stroke-opacity: 0;}.l51d0 {fill: #f39c12; fill-opacity: 1; stroke-width: 10; stroke: #f39c12; stroke-linecap: round; stroke-linejoin: round; stroke-opacity: 1;}.l32d0 {fill: #f7dc6f; fill-opacity: 0.6; stroke-width: 0; stroke: #000000; stroke-linecap: round; stroke-linejoin: round; stroke-opacity: 0;}path {fill-rule: evenodd;}</style></defs><g transform="scale(1 -1)"><g id="NW"><g class="l3d0"><path d="M 0,1900 L 0,2770 L 0,3540 L 3200,3540 L 3200,2770 L 3200,1900 Z" /></g></g><g id="PP"><g class="l25d0"><path d="M 170,0 L 3030,0 L 3030,430 L 170,430 Z" /><path d="M 3030,2940 L 3030,1685 L 170,1685 L 170,2940 L 325,2940 L 585,2940 L 795,2940 L 845,2940 L 1055,2940 L 1105,2940 L 1315,2940 L 1365,2940 L 1575,2940 L 1625,2940 L 1835,2940 L 1885,2940 L 2095,2940 L 2145,2940 L 2355,2940 L 2405,2940 L 2615,2940 L 2875,2940 Z" /></g></g><g id="NP"><g class="l26d0"><path d="M 170,2940 L 3030,2940 L 3030,3370 L 170,3370 Z" /><path d="M 170,430 L 170,1685 L 3030,1685 L 3030,430 L 2875,430 L 2615,430 L 2405,430 L 2355,430 L 2145,430 L 2095,430 L 1885,430 L 1835,430 L 1625,430 L 1575,430 L 1365,430 L 1315,430 L 1105,430 L 1055,430 L 845,430 L 795,430 L 585,430 L 325,430 Z" /></g></g><g id="OD"><g class="l6d0"><path d="M 300,3070 L 2900,3070 L 2900,3240 L 300,3240 Z" /><path d="M 300,130 L 2900,130 L 2900,300 L 300,300 Z" /><path d="M 2745,2600 L 2830,2600 L 2845,2600 L 2845,2480 L 2830,2480 L 2745,2480 L 2670,2480 L 2610,2480 L 2535,2480 L 2485,2480 L 2410,2480 L 2350,2480 L 2275,2480 L 2225,2480 L 2150,2480 L 2090,2480 L 2015,2480 L 1965,2480 L 1890,2480 L 1830,2480 L 1755,2480 L 1705,2480 L 1630,2480 L 1570,2480 L 1495,2480 L 1445,2480 L 1370,2480 L 1310,2480 L 1235,2480 L 1185,2480 L 1110,2480 L 1050,2480 L 975,2480 L 925,2480 L 850,2480 L 790,2480 L 715,2480 L 665,2480 L 590,2480 L 530,2480 L 455,2480 L 370,2480 L 355,2480 L 355,2600 L 370,2600 L 455,2600 L 530,2600 L 590,2600 L 665,2600 L 715,2600 L 790,2600 L 850,2600 L 925,2600 L 975,2600 L 1050,2600 L 1110,2600 L 1185,2600 L 1235,2600 L 1310,2600 L 1370,2600 L 1445,2600 L 1495,2600 L 1570,2600 L 1630,2600 L 1705,2600 L 1755,2600 L 1830,2600 L 1890,2600 L 1965,2600 L 2015,2600 L 2090,2600 L 2150,2600 L 2225,2600 L 2275,2600 L 2350,2600 L 2410,2600 L 2485,2600 L 2535,2600 L 2610,2600 L 2670,2600 Z" /><path d="M 665,770 L 590,770 L 530,770 L 455,770 L 370,770 L 355,770 L 355,890 L 370,890 L 455,890 L 530,890 L 590,890 L 665,890 L 715,890 L 790,890 L 850,890 L 925,890 L 975,890 L 1050,890 L 1110,890 L 1185,890 L 1235,890 L 1310,890 L 1370,890 L 1445,890 L 1495,890 L 1570,890 L 1630,890 L 1705,890 L 1755,890 L 1830,890 L 1890,890 L 1965,890 L 2015,890 L 2090,890 L 2150,890 L 2225,890 L 2275,890 L 2350,890 L 2410,890 L 2485,890 L 2535,890 L 2610,890 L 2670,890 L 2745,890 L 2830,890 L 2845,890 L 2845,770 L 2830,770 L 2745,770 L 2670,770 L 2610,770 L 2535,770 L 2485,770 L 2410,770 L 2350,770 L 2275,770 L 2225,770 L 2150,770 L 2090,770 L 2015,770 L 1965,770 L 1890,770 L 1830,770 L 1755,770 L 1705,770 L 1630,770 L 1570,770 L 1495,770 L 1445,770 L 1370,770 L 1310,770 L 1235,770 L 1185,770 L 1110,770 L 1050,770 L 975,770 L 925,770 L 850,770 L 790,770 L 715,770 Z" /></g></g><g id="PO"><g class="l17d0"><path d="M 2610,2480 L 2610,2600 L 2610,2740 L 2670,2740 L 2670,2600 L 2670,2480 L 2670,2340 L 2670,1675 L 2695,1675 L 2695,1505 L 2670,1505 L 2670,1030 L 2670,890 L 2670,770 L 2670,630 L 2610,630 L 2610,770 L 2610,890 L 2610,1030 L 2610,1505 L 2585,1505 L 2585,1675 L 2610,1675 L 2610,2340 Z" /><path d="M 1830,2480 L 1830,2600 L 1830,2740 L 1890,2740 L 1890,2600 L 1890,2480 L 1890,2340 L 1890,1675 L 1915,1675 L 1915,1505 L 1890,1505 L 1890,1030 L 1890,890 L 1890,770 L 1890,630 L 1830,630 L 1830,770 L 1830,890 L 1830,1030 L 1830,1505 L 1805,1505 L 1805,1675 L 1830,1675 L 1830,2340 Z" /><path d="M 1570,2480 L 1570,2600 L 1570,2740 L 1630,2740 L 1630,2600 L 1630,2480 L 1630,2340 L 1630,1675 L 1655,1675 L 1655,1505 L 1630,1505 L 1630,1030 L 1630,890 L 1630,770 L 1630,630 L 1570,630 L 1570,770 L 1570,890 L 1570,1030 L 1570,1505 L 1545,1505 L 1545,1675 L 1570,1675 L 1570,2340 Z" /><path d="M 790,2480 L 790,2600 L 790,2740 L 850,2740 L 850,2600 L 850,2480 L 850,2340 L 850,1675 L 875,1675 L 875,1505 L 850,1505 L 850,1030 L 850,890 L 850,770 L 850,630 L 790,630 L 790,770 L 790,890 L 790,1030 L 790,1505 L 765,1505 L 765,1675 L 790,1675 L 790,2340 Z" /><path d="M 1050,2480 L 1050,2600 L 1050,2740 L 1110,2740 L 1110,2600 L 1110,2480 L 1110,2340 L 1110,1675 L 1135,1675 L 1135,1505 L 1110,1505 L 1110,1030 L 1110,890 L 1110,770 L 1110,630 L 1050,630 L 1050,770 L 1050,890 L 1050,1030 L 1050,1505 L 1025,1505 L 1025,1675 L 1050,1675 L 1050,2340 Z" /><path d="M 2150,1030 L 2150,890 L 2150,770 L 2150,630 L 2090,630 L 2090,770 L 2090,890 L 2090,1030 L 2090,1125 L 2065,1125 L 2065,1295 L 2175,1295 L 2175,1125 L 2150,1125 Z" /><path d="M 2409,1030 L 2410,1030 L 2410,890 L 2410,770 L 2410,630 L 2350,630 L 2350,770 L 2350,890 L 2350,1030 L 2350,1315 L 2325,1315 L 2325,1485 L 2435,1485 L 2435,1315 L 2409,1315 Z" /><path d="M 2350,2340 L 2350,2480 L 2350,2600 L 2350,2740 L 2410,2740 L 2410,2600 L 2410,2480 L 2410,2340 L 2409,2340 L 2409,2055 L 2435,2055 L 2435,1885 L 2325,1885 L 2325,2055 L 2350,2055 Z" /><path d="M 2090,2340 L 2090,2480 L 2090,2600 L 2090,2740 L 2150,2740 L 2150,2600 L 2150,2480 L 2150,2340 L 2150,2245 L 2175,2245 L 2175,2075 L 2065,2075 L 2065,2245 L 2090,2245 Z" /><path d="M 1370,1030 L 1370,890 L 1370,770 L 1370,630 L 1310,630 L 1310,770 L 1310,890 L 1310,1030 L 1310,1315 L 1285,1315 L 1285,1485 L 1395,1485 L 1395,1315 L 1370,1315 Z" /><path d="M 590,1030 L 590,890 L 590,770 L 590,630 L 530,630 L 530,770 L 530,890 L 530,1030 L 530,1125 L 505,1125 L 505,1295 L 615,1295 L 615,1125 L 590,1125 Z" /><path d="M 1310,2340 L 1310,2480 L 1310,2600 L 1310,2740 L 1370,2740 L 1370,2600 L 1370,2480 L 1370,2340 L 1370,2055 L 1395,2055 L 1395,1885 L 1285,1885 L 1285,2055 L 1310,2055 Z" /><path d="M 530,2340 L 530,2480 L 530,2600 L 530,2740 L 590,2740 L 590,2600 L 590,2480 L 590,2340 L 590,2245 L 615,2245 L 615,2075 L 505,2075 L 505,2245 L 530,2245 Z" /></g></g><g id="CO"><g class="l30d0"><path d="M 2205,785 L 2295,785 L 2295,875 L 2205,875 Z" /><path d="M 1685,785 L 1775,785 L 1775,875 L 1685,875 Z" /><path d="M 1165,785 L 1255,785 L 1255,875 L 1165,875 Z" /><path d="M 905,785 L 995,785 L 995,875 L 905,875 Z" /><path d="M 2205,2495 L 2295,2495 L 2295,2585 L 2205,2585 Z" /><path d="M 1685,2495 L 1775,2495 L 1775,2585 L 1685,2585 Z" /><path d="M 1165,2495 L 1255,2495 L 1255,2585 L 1165,2585 Z" /><path d="M 905,2495 L 995,2495 L 995,2585 L 905,2585 Z" /><path d="M 2725,2495 L 2815,2495 L 2815,2585 L 2725,2585 Z" /><path d="M 2725,785 L 2815,785 L 2815,875 L 2725,875 Z" /><path d="M 385,785 L 475,785 L 475,875 L 385,875 Z" /><path d="M 385,2495 L 475,2495 L 475,2585 L 385,2585 Z" /><path d="M 385,170 L 475,170 L 475,260 L 385,260 Z" /><path d="M 905,170 L 995,170 L 995,260 L 905,260 Z" /><path d="M 645,170 L 735,170 L 735,260 L 645,260 Z" /><path d="M 2725,3110 L 2815,3110 L 2815,3200 L 2725,3200 Z" /><path d="M 2465,3110 L 2555,3110 L 2555,3200 L 2465,3200 Z" /><path d="M 2205,3110 L 2295,3110 L 2295,3200 L 2205,3200 Z" /><path d="M 1685,3110 L 1775,3110 L 1775,3200 L 1685,3200 Z" /><path d="M 1425,3110 L 1515,3110 L 1515,3200 L 1425,3200 Z" /><path d="M 1165,3110 L 1255,3110 L 1255,3200 L 1165,3200 Z" /><path d="M 1685,170 L 1775,170 L 1775,260 L 1685,260 Z" /><path d="M 2465,170 L 2555,170 L 2555,260 L 2465,260 Z" /><path d="M 2205,170 L 2295,170 L 2295,260 L 2205,260 Z" /><path d="M 1945,170 L 2035,170 L 2035,260 L 1945,260 Z" /><path d="M 1165,170 L 1255,170 L 1255,260 L 1165,260 Z" /><path d="M 2725,170 L 2815,170 L 2815,260 L 2725,260 Z" /><path d="M 1425,170 L 1515,170 L 1515,260 L 1425,260 Z" /><path d="M 385,3110 L 475,3110 L 475,3200 L 385,3200 Z" /><path d="M 645,3110 L 735,3110 L 735,3200 L 645,3200 Z" /><path d="M 905,3110 L 995,3110 L 995,3200 L 905,3200 Z" /><path d="M 1945,3110 L 2035,3110 L 2035,3200 L 1945,3200 Z" /><path d="M 2595,1545 L 2685,1545 L 2685,1635 L 2595,1635 Z" /><path d="M 1815,1545 L 1905,1545 L 1905,1635 L 1815,1635 Z" /><path d="M 1555,1545 L 1645,1545 L 1645,1635 L 1555,1635 Z" /><path d="M 775,1545 L 865,1545 L 865,1635 L 775,1635 Z" /><path d="M 1035,1545 L 1125,1545 L 1125,1635 L 1035,1635 Z" /><path d="M 2075,1165 L 2165,1165 L 2165,1255 L 2075,1255 Z" /><path d="M 2335,1355 L 2425,1355 L 2425,1445 L 2335,1445 Z" /><path d="M 2335,1925 L 2425,1925 L 2425,2015 L 2335,2015 Z" /><path d="M 2075,2115 L 2165,2115 L 2165,2205 L 2075,2205 Z" /><path d="M 1295,1355 L 1385,1355 L 1385,1445 L 1295,1445 Z" /><path d="M 515,1165 L 605,1165 L 605,1255 L 515,1255 Z" /><path d="M 1295,1925 L 1385,1925 L 1385,2015 L 1295,2015 Z" /><path d="M 515,2115 L 605,2115 L 605,2205 L 515,2205 Z" /></g></g><g id="M1"><g class="l31d0"><path d="M 2910,3250 L 2910,3060 L 2300,3060 L 2300,2530 L 2300,2455 L 2200,2455 L 2200,2530 L 2200,3060 L 1260,3060 L 1260,2530 L 1260,2455 L 1160,2455 L 1160,2530 L 1160,3060 L 480,3060 L 480,2530 L 480,2455 L 380,2455 L 380,2530 L 380,3060 L 290,3060 L 290,3250 Z" /><path d="M 290,120 L 290,310 L 380,310 L 380,840 L 380,915 L 480,915 L 480,840 L 480,310 L 1160,310 L 1160,840 L 1160,915 L 1260,915 L 1260,840 L 1260,310 L 2200,310 L 2200,840 L 2200,915 L 2300,915 L 2300,840 L 2300,310 L 2910,310 L 2910,120 Z" /><path d="M 2555,1640 L 2640,1640 L 2725,1640 L 2725,1540 L 2640,1540 L 2555,1540 L 1945,1540 L 1860,1540 L 1775,1540 L 1685,1540 L 1600,1540 L 1515,1540 L 1165,1540 L 1080,1540 L 995,1540 L 905,1540 L 820,1540 L 735,1540 L 735,1640 L 820,1640 L 905,1640 L 995,1640 L 1080,1640 L 1165,1640 L 1515,1640 L 1600,1640 L 1685,1640 L 1775,1640 L 1860,1640 L 1945,1640 Z" /><path d="M 1910,1160 L 1910,1260 L 2035,1260 L 2205,1260 L 2330,1260 L 2330,1160 L 2205,1160 L 2035,1160 Z" /><path d="M 2170,1350 L 2170,1450 L 2295,1450 L 2465,1450 L 2590,1450 L 2590,1350 L 2465,1350 L 2295,1350 Z" /><path d="M 2170,1920 L 2170,2020 L 2295,2020 L 2465,2020 L 2590,2020 L 2590,1920 L 2465,1920 L 2295,1920 Z" /><path d="M 1910,2110 L 1910,2210 L 2035,2210 L 2205,2210 L 2330,2210 L 2330,2110 L 2205,2110 L 2035,2110 Z" /><path d="M 1130,1350 L 1130,1450 L 1255,1450 L 1425,1450 L 1550,1450 L 1550,1350 L 1425,1350 L 1255,1350 Z" /><path d="M 270,1160 L 270,1260 L 475,1260 L 645,1260 L 690,1260 L 690,1160 L 645,1160 L 475,1160 Z" /><path d="M 1130,1920 L 1130,2020 L 1255,2020 L 1425,2020 L 1550,2020 L 1550,1920 L 1425,1920 L 1255,1920 Z" /><path d="M 475,2110 L 475,2210 L 645,2210 L 895,2210 L 895,2110 L 645,2110 Z" /><path d="M 2820,500 L 2720,500 L 2720,740 L 2720,920 L 2820,920 L 2820,740 Z" /><path d="M 1780,500 L 1680,500 L 1680,740 L 1680,920 L 1780,920 L 1780,740 Z" /><path d="M 1000,500 L 900,500 L 900,740 L 900,920 L 1000,920 L 1000,740 Z" /><path d="M 2720,2450 L 2720,2630 L 2720,2870 L 2820,2870 L 2820,2630 L 2820,2450 Z" /><path d="M 1680,2450 L 1680,2630 L 1680,2870 L 1780,2870 L 1780,2630 L 1780,2450 Z" /><path d="M 900,2450 L 900,2630 L 900,2870 L 1000,2870 L 1000,2630 L 1000,2450 Z" /><path d="M 1730,1730 L 1640,1730 L 1040,1730 L 950,1730 L 860,1730 L 860,1830 L 950,1830 L 1040,1830 L 1640,1830 L 1730,1830 L 1820,1830 L 2680,1830 L 2770,1830 L 2860,1830 L 2860,1730 L 2770,1730 L 2680,1730 L 1820,1730 Z" /></g></g><g id="VIA1"><g class="l51d0"><path d="M 2720,780 L 2820,780 L 2820,880 L 2720,880 Z" /><path d="M 1680,780 L 1780,780 L 1780,880 L 1680,880 Z" /><path d="M 900,780 L 1000,780 L 1000,880 L 900,880 Z" /><path d="M 2720,2490 L 2820,2490 L 2820,2590 L 2720,2590 Z" /><path d="M 1680,2490 L 1780,2490 L 1780,2590 L 1680,2590 Z" /><path d="M 900,2490 L 1000,2490 L 1000,2590 L 900,2590 Z" /><path d="M 2720,1730 L 2820,1730 L 2820,1830 L 2720,1830 Z" /><path d="M 1680,1730 L 1780,1730 L 1780,1830 L 1680,1830 Z" /><path d="M 900,1730 L 1000,1730 L 1000,1830 L 900,1830 Z" /></g></g><g id="M2"><g class="l32d0"><path d="M 2820,1870 L 2820,1690 L 2820,920 L 2820,830 L 2820,740 L 2720,740 L 2720,830 L 2720,920 L 2720,1690 L 2720,1870 L 2720,2450 L 2720,2540 L 2720,2630 L 2820,2630 L 2820,2540 L 2820,2450 Z" /><path d="M 1780,1870 L 1780,1690 L 1780,920 L 1780,830 L 1780,740 L 1680,740 L 1680,830 L 1680,920 L 1680,1690 L 1680,1870 L 1680,2450 L 1680,2540 L 1680,2630 L 1780,2630 L 1780,2540 L 1780,2450 Z" /><path d="M 1000,1870 L 1000,1690 L 1000,920 L 1000,830 L 1000,740 L 900,740 L 900,830 L 900,920 L 900,1690 L 900,1870 L 900,2450 L 900,2540 L 900,2630 L 1000,2630 L 1000,2540 L 1000,2450 Z" /></g></g></g></svg>