<svg width="8930" height="3550" viewBox="-5 -3545 8930 3550" xmlns="http://www.w3.org/2000/svg" xmlns:xlink="http://www.w3.org/1999/xlink"><defs><style type="text/css">.l3d0 {fill: #fef9e7; fill-opacity: 0.5; stroke-width: 10; stroke: #f1c40f; stroke-linecap: round; stroke-linejoin: round; stroke-opacity: 0.2;}.l25d0 {fill: #8e44ad; fill-opacity: 0.05; stroke-width: 10; stroke: #8e44ad; stroke-linecap: round; stroke-linejoin: round; stroke-opacity: 1;}.l26d0 {fill: #ccd1d1; fill-opacity: 0.05; stroke-width: 10; stroke: #ccd1d1; stroke-linecap: round; stroke-linejoin: round; stroke-opacity: 1;}.l6d0 {fill: #f5b7b1; fill-opacity: 1; stroke-width: 10; stroke: #e74c3c; stroke-linecap: round; stroke-linejoin: round; stroke-opacity: 1;}.l17d0 {fill: #2980b9; fill-opacity: 1; stroke-width: 0; stroke: #000000; stroke-linecap: round; stroke-linejoin: round; stroke-opacity: 0;}.l30d0 {fill: #27ae60; fill-opacity: 1; stroke-width: 0; stroke: #000000; stroke-linecap: round; stroke-linejoin: round; stroke-opacity: 0;}.l31d0 {fill: #85c1e9; fill-opacity: 0.6; stroke-width: 0; stroke: #000000; stroke-linecap: round; stroke-linejoin: round; stroke-opacity: 0;}.l51d0 {fill: #f39c12; fill-opacity: 1; stroke-width: 10; stroke: #f39c12; stroke-linecap: round; stroke-linejoin: round; stroke-opacity: 1;}.l32d0 {fill: #f7dc6f; fill-opacity: 0.6; stroke-width: 0; stroke: #000000; stroke-linecap: round; stroke-linejoin: round; stroke-opacity: 0;}.l52d0 {fill: #a04000; fill-opacity: 1; stroke-width: 10; stroke: #a04000; stroke-linecap: round; stroke-linejoin: round; stroke-opacity: 1;}.l33d0 {fill: #16a085; fill-opacity: 0.6; stroke-width: 0; stroke: #000000; stroke-linecap: round; stroke-linejoin: round; stroke-opacity: 0;}.l53d0 {fill: #8e44ad; fill-opacity: 1; stroke-width: 10; stroke: #8e44ad; stroke-linecap: round; stroke-linejoin: round; stroke-opacity: 1;}.l34d0 {fill: #d2b4de; fill-opacity: 0.6; stroke-width: 0; stroke: #000000; stroke-linecap: round; stroke-linejoin: round; stroke-opacity: 0;}.l54d0 {fill: #d0d3d4; fill-opacity: 1; stroke-width: 10; stroke: #d0d3d4; stroke-linecap: round; stroke-linejoin: round; stroke-opacity: 1;}.l35d0 {fill: #d5dbdb; fill-opacity: 0.6; stroke-width: 0; stroke: #000000; stroke-linecap: round; stroke-linejoin: round; stroke-opacity: 0;}path {fill-rule: evenodd;}</style></defs><g transform="scale(1 -1)"><g id="NW"><g class="l3d0"><path d="M 0,3540 L 520,3540 L 3640,3540 L 4240,3540 L 8920,3540 L 8920,1900 L 7385,1900 L 7125,1900 L 6865,1900 L 6735,1900 L 6605,1900 L 6475,1900 L 6215,1900 L 5955,1900 L 4240,1900 L 3640,1900 L 3225,1900 L 2965,1900 L 2705,1900 L 2575,1900 L 2445,1900 L 2315,1900 L 2185,1900 L 2055,1900 L 1925,1900 L 1795,1900 L 1665,1900 L 1535,1900 L 1405,1900 L 1275,1900 L 1145,1900 L 1015,1900 L 885,1900 L 755,1900 L 520,1900 L 495,1900 L 235,1900 L 0,1900 Z" /></g></g><g id="PP"><g class="l25d0"><path d="M 170,430 L 690,430 L 3810,430 L 4070,430 L 8750,430 L 8750,0 L 4070,0 L 3810,0 L 690,0 L 170,0 Z" /><path d="M 325,2940 L 585,2940 L 690,2940 L 795,2940 L 845,2940 L 1055,2940 L 1105,2940 L 1315,2940 L 1365,2940 L 1575,2940 L 1625,2940 L 1835,2940 L 1885,2940 L 2095,2940 L 2145,2940 L 2355,2940 L 2405,2940 L 2615,2940 L 2665,2940 L 2875,2940 L 3135,2940 L 3185,2940 L 3445,2940 L 3655,2940 L 3810,2940 L 3915,2940 L 3965,2940 L 4070,2940 L 4225,2940 L 4435,2940 L 4485,2940 L 4695,2940 L 4745,2940 L 4955,2940 L 5005,2940 L 5215,2940 L 5475,2940 L 5525,2940 L 5995,2940 L 6045,2940 L 6305,2940 L 6515,2940 L 6565,2940 L 6775,2940 L 6825,2940 L 7035,2940 L 7295,2940 L 7345,2940 L 7605,2940 L 7815,2940 L 7865,2940 L 8075,2940 L 8125,2940 L 8335,2940 L 8595,2940 L 8750,2940 L 8750,1685 L 4070,1685 L 3810,1685 L 690,1685 L 170,1685 L 170,2940 Z" /></g></g><g id="NP"><g class="l26d0"><path d="M 170,3370 L 690,3370 L 3810,3370 L 4070,3370 L 8750,3370 L 8750,2940 L 4070,2940 L 3810,2940 L 690,2940 L 170,2940 Z" /><path d="M 690,1685 L 3810,1685 L 4070,1685 L 8750,1685 L 8750,430 L 8595,430 L 8335,430 L 8125,430 L 8075,430 L 7865,430 L 7815,430 L 7605,430 L 7345,430 L 7295,430 L 7035,430 L 6825,430 L 6775,430 L 6565,430 L 6515,430 L 6305,430 L 6045,430 L 5995,430 L 5525,430 L 5475,430 L 5215,430 L 5005,430 L 4955,430 L 4745,430 L 4695,430 L 4485,430 L 4435,430 L 4225,430 L 4070,430 L 3965,430 L 3915,430 L 3810,430 L 3655,430 L 3445,430 L 3185,430 L 3135,430 L 2875,430 L 2665,430 L 2615,430 L 2405,430 L 2355,430 L 2145,430 L 2095,430 L 1885,430 L 1835,430 L 1625,430 L 1575,430 L 1365,430 L 1315,430 L 1105,430 L 1055,430 L 845,430 L 795,430 L 690,430 L 585,430 L 325,430 L 170,430 L 170,1685 Z" /></g></g><g id="OD"><g class="l6d0"><path d="M 300,300 L 820,300 L 3940,300 L 8620,300 L 8620,130 L 3940,130 L 820,130 L 300,130 Z" /><path d="M 300,3240 L 820,3240 L 3940,3240 L 8620,3240 L 8620,3070 L 3940,3070 L 820,3070 L 300,3070 Z" /><path d="M 8130,770 L 8070,770 L 7995,770 L 7945,770 L 7870,770 L 7810,770 L 7735,770 L 7735,1010 L 7810,1010 L 7870,1010 L 7945,1010 L 7995,1010 L 8070,1010 L 8130,1010 L 8205,1010 L 8255,1010 L 8330,1010 L 8390,1010 L 8465,1010 L 8550,1010 L 8550,770 L 8465,770 L 8390,770 L 8330,770 L 8255,770 L 8205,770 Z" /><path d="M 7734,1010 L 7734,770 L 7685,770 L 7610,770 L 7550,770 L 7475,770 L 7390,770 L 7390,1010 L 7475,1010 L 7550,1010 L 7610,1010 L 7685,1010 Z" /><path d="M 5950,770 L 5915,770 L 5865,770 L 5790,770 L 5730,770 L 5655,770 L 5570,770 L 5570,1010 L 5655,1010 L 5730,1010 L 5790,1010 L 5865,1010 L 5915,1010 L 5950,1010 Z" /><path d="M 8130,2360 L 8070,2360 L 7995,2360 L 7945,2360 L 7870,2360 L 7810,2360 L 7735,2360 L 7735,2600 L 7810,2600 L 7870,2600 L 7945,2600 L 7995,2600 L 8070,2600 L 8130,2600 L 8205,2600 L 8255,2600 L 8330,2600 L 8390,2600 L 8465,2600 L 8550,2600 L 8550,2360 L 8465,2360 L 8390,2360 L 8330,2360 L 8255,2360 L 8205,2360 Z" /><path d="M 7390,2360 L 7390,2600 L 7475,2600 L 7550,2600 L 7610,2600 L 7685,2600 L 7734,2600 L 7734,2360 L 7685,2360 L 7610,2360 L 7550,2360 L 7475,2360 Z" /><path d="M 5570,2360 L 5570,2600 L 5655,2600 L 5730,2600 L 5790,2600 L 5865,2600 L 5950,2600 L 5950,2360 L 5865,2360 L 5790,2360 L 5730,2360 L 5655,2360 Z" /><path d="M 4615,2360 L 4565,2360 L 4490,2360 L 4430,2360 L 4355,2360 L 4305,2360 L 4230,2360 L 4170,2360 L 4095,2360 L 4010,2360 L 4010,2600 L 4095,2600 L 4170,2600 L 4230,2600 L 4305,2600 L 4355,2600 L 4430,2600 L 4490,2600 L 4565,2600 L 4615,2600 L 4690,2600 L 4750,2600 L 4825,2600 L 4875,2600 L 4950,2600 L 5010,2600 L 5085,2600 L 5135,2600 L 5210,2600 L 5270,2600 L 5345,2600 L 5430,2600 L 5430,2360 L 5345,2360 L 5270,2360 L 5210,2360 L 5135,2360 L 5085,2360 L 5010,2360 L 4950,2360 L 4875,2360 L 4825,2360 L 4750,2360 L 4690,2360 Z" /><path d="M 7030,1130 L 7090,1130 L 7165,1130 L 7250,1130 L 7250,770 L 7165,770 L 7090,770 L 7030,770 L 6955,770 L 6905,770 L 6830,770 L 6770,770 L 6695,770 L 6645,770 L 6570,770 L 6510,770 L 6435,770 L 6385,770 L 6310,770 L 6250,770 L 6175,770 L 6090,770 L 6090,1130 L 6175,1130 L 6250,1130 L 6310,1130 L 6385,1130 L 6435,1130 L 6510,1130 L 6570,1130 L 6645,1130 L 6695,1130 L 6770,1130 L 6830,1130 L 6905,1130 L 6955,1130 Z" /><path d="M 4565,1010 L 4565,1130 L 4615,1130 L 4690,1130 L 4750,1130 L 4825,1130 L 4875,1130 L 4950,1130 L 5010,1130 L 5085,1130 L 5135,1130 L 5210,1130 L 5270,1130 L 5345,1130 L 5430,1130 L 5430,770 L 5345,770 L 5270,770 L 5210,770 L 5135,770 L 5085,770 L 5010,770 L 4950,770 L 4875,770 L 4825,770 L 4750,770 L 4690,770 L 4615,770 L 4565,770 L 4490,770 L 4430,770 L 4355,770 L 4305,770 L 4230,770 L 4170,770 L 4095,770 L 4010,770 L 4010,1010 L 4095,1010 L 4170,1010 L 4230,1010 L 4305,1010 L 4355,1010 L 4430,1010 L 4490,1010 Z" /><path d="M 7030,2600 L 7090,2600 L 7165,2600 L 7250,2600 L 7250,2120 L 7165,2120 L 7090,2120 L 7030,2120 L 6955,2120 L 6905,2120 L 6830,2120 L 6770,2120 L 6695,2120 L 6645,2120 L 6570,2120 L 6510,2120 L 6435,2120 L 6385,2120 L 6310,2120 L 6250,2120 L 6175,2120 L 6090,2120 L 6090,2600 L 6175,2600 L 6250,2600 L 6310,2600 L 6385,2600 L 6435,2600 L 6510,2600 L 6570,2600 L 6645,2600 L 6695,2600 L 6770,2600 L 6830,2600 L 6905,2600 L 6955,2600 Z" /><path d="M 2870,2120 L 2795,2120 L 2745,2120 L 2670,2120 L 2610,2120 L 2535,2120 L 2485,2120 L 2410,2120 L 2350,2120 L 2275,2120 L 2225,2120 L 2150,2120 L 2090,2120 L 2015,2120 L 1965,2120 L 1890,2120 L 1830,2120 L 1755,2120 L 1705,2120 L 1630,2120 L 1570,2120 L 1495,2120 L 1445,2120 L 1370,2120 L 1310,2120 L 1235,2120 L 1185,2120 L 1110,2120 L 1050,2120 L 975,2120 L 925,2120 L 850,2120 L 790,2120 L 715,2120 L 665,2120 L 590,2120 L 530,2120 L 455,2120 L 370,2120 L 370,2600 L 455,2600 L 530,2600 L 590,2600 L 665,2600 L 715,2600 L 790,2600 L 850,2600 L 925,2600 L 975,2600 L 1050,2600 L 1110,2600 L 1185,2600 L 1235,2600 L 1310,2600 L 1370,2600 L 1445,2600 L 1495,2600 L 1570,2600 L 1630,2600 L 1705,2600 L 1755,2600 L 1830,2600 L 1890,2600 L 1965,2600 L 2015,2600 L 2090,2600 L 2150,2600 L 2225,2600 L 2275,2600 L 2350,2600 L 2410,2600 L 2485,2600 L 2535,2600 L 2610,2600 L 2670,2600 L 2745,2600 L 2795,2600 L 2870,2600 L 2930,2600 L 3005,2600 L 3090,2600 L 3090,2120 L 3005,2120 L 2930,2120 Z" /><path d="M 2930,770 L 2870,770 L 2845,770 L 2795,770 L 2745,770 L 2670,770 L 2610,770 L 2585,770 L 2535,770 L 2485,770 L 2410,770 L 2350,770 L 2275,770 L 2225,770 L 2150,770 L 2090,770 L 2015,770 L 1965,770 L 1890,770 L 1830,770 L 1755,770 L 1705,770 L 1630,770 L 1570,770 L 1495,770 L 1445,770 L 1370,770 L 1310,770 L 1235,770 L 1185,770 L 1110,770 L 1050,770 L 975,770 L 925,770 L 875,770 L 850,770 L 790,770 L 715,770 L 665,770 L 615,770 L 590,770 L 530,770 L 455,770 L 355,770 L 355,890 L 455,890 L 530,890 L 590,890 L 615,890 L 665,890 L 715,890 L 790,890 L 850,890 L 875,890 L 925,890 L 975,890 L 1050,890 L 1110,890 L 1185,890 L 1235,890 L 1310,890 L 1370,890 L 1445,890 L 1495,890 L 1570,890 L 1630,890 L 1705,890 L 1755,890 L 1830,890 L 1890,890 L 1965,890 L 2015,890 L 2090,890 L 2150,890 L 2225,890 L 2275,890 L 2350,890 L 2410,890 L 2485,890 L 2535,890 L 2585,890 L 2610,890 L 2670,890 L 2745,890 L 2795,890 L 2845,890 L 2870,890 L 2930,890 L 3005,890 L 3105,890 L 3105,770 L 3005,770 Z" /><path d="M 3575,2600 L 3650,2600 L 3710,2600 L 3785,2600 L 3870,2600 L 3870,2360 L 3785,2360 L 3710,2360 L 3650,2360 L 3575,2360 L 3525,2360 L 3450,2360 L 3390,2360 L 3315,2360 L 3230,2360 L 3230,2600 L 3315,2600 L 3390,2600 L 3450,2600 L 3525,2600 Z" /><path d="M 3575,1010 L 3650,1010 L 3710,1010 L 3785,1010 L 3870,1010 L 3870,770 L 3785,770 L 3710,770 L 3650,770 L 3575,770 L 3525,770 L 3450,770 L 3390,770 L 3315,770 L 3230,770 L 3230,1010 L 3315,1010 L 3390,1010 L 3450,1010 L 3525,1010 Z" /></g></g><g id="PO"><g class="l17d0"><path d="M 4230,1010 L 4230,770 L 4230,630 L 4170,630 L 4170,770 L 4170,1010 L 4170,1150 L 4170,1505 L 4145,1505 L 4145,1675 L 4170,1675 L 4170,2220 L 4170,2360 L 4170,2600 L 4170,2740 L 4230,2740 L 4230,2600 L 4230,2360 L 4230,2220 L 4230,1675 L 4255,1675 L 4255,1505 L 4230,1505 L 4230,1150 Z" /><path d="M 5790,1010 L 5790,770 L 5790,630 L 5730,630 L 5730,770 L 5730,1010 L 5730,1150 L 5730,1400 L 5730,2110 L 5705,2110 L 5705,2280 L 5730,2280 L 5730,2360 L 5730,2600 L 5730,2740 L 5790,2740 L 5790,2600 L 5790,2360 L 5790,2280 L 5815,2280 L 5815,2110 L 5790,2110 L 5790,1400 L 5790,1150 Z" /><path d="M 4430,2360 L 4430,2600 L 4430,2740 L 4490,2740 L 4490,2600 L 4490,2360 L 4490,2220 L 4490,2055 L 4515,2055 L 4515,1885 L 4490,1885 L 4490,1150 L 4490,1010 L 4490,770 L 4490,630 L 4430,630 L 4430,770 L 4430,1010 L 4430,1150 L 4430,1885 L 4405,1885 L 4405,2055 L 4430,2055 L 4430,2220 Z" /><path d="M 4690,2360 L 4690,2600 L 4690,2740 L 4750,2740 L 4750,2600 L 4750,2360 L 4750,2220 L 4750,1865 L 4780,1865 L 4780,1695 L 4750,1695 L 4750,1270 L 4750,1130 L 4750,770 L 4750,630 L 4690,630 L 4690,770 L 4690,1130 L 4690,1270 L 4690,1695 L 4660,1695 L 4660,1865 L 4690,1865 L 4690,2220 Z" /><path d="M 6310,1130 L 6310,770 L 6310,630 L 6250,630 L 6250,770 L 6250,1130 L 6250,1270 L 6250,1315 L 6220,1315 L 6220,1485 L 6250,1485 L 6250,1980 L 6250,2120 L 6250,2600 L 6250,2740 L 6310,2740 L 6310,2600 L 6310,2120 L 6310,1980 L 6310,1485 L 6340,1485 L 6340,1315 L 6310,1315 L 6310,1270 Z" /><path d="M 6570,1270 L 6570,1130 L 6570,770 L 6570,630 L 6510,630 L 6510,770 L 6510,1130 L 6510,1270 L 6510,1695 L 6480,1695 L 6480,1865 L 6510,1865 L 6510,1980 L 6510,2120 L 6510,2600 L 6510,2740 L 6570,2740 L 6570,2600 L 6570,2120 L 6570,1980 L 6569,1980 L 6569,1865 L 6600,1865 L 6600,1695 L 6569,1695 L 6569,1270 Z" /><path d="M 5210,2360 L 5210,2600 L 5210,2740 L 5270,2740 L 5270,2600 L 5270,2360 L 5270,2220 L 5270,1865 L 5300,1865 L 5300,1695 L 5270,1695 L 5270,1270 L 5270,1130 L 5270,770 L 5270,630 L 5210,630 L 5210,770 L 5210,1130 L 5210,1270 L 5210,1695 L 5180,1695 L 5180,1865 L 5210,1865 L 5210,2220 Z" /><path d="M 4950,2360 L 4950,2600 L 4950,2740 L 5010,2740 L 5010,2600 L 5010,2360 L 5010,2220 L 5010,1485 L 5040,1485 L 5040,1315 L 5010,1315 L 5010,1270 L 5010,1130 L 5010,770 L 5010,630 L 4950,630 L 4950,770 L 4950,1130 L 4950,1270 L 4950,1315 L 4920,1315 L 4920,1485 L 4950,1485 L 4950,2220 Z" /><path d="M 7090,1270 L 7090,1130 L 7090,770 L 7090,630 L 7030,630 L 7030,770 L 7030,1130 L 7030,1270 L 7030,1505 L 7000,1505 L 7000,1675 L 7030,1675 L 7030,1980 L 7030,2120 L 7030,2600 L 7030,2740 L 7090,2740 L 7090,2600 L 7090,2120 L 7090,1980 L 7089,1980 L 7089,1675 L 7120,1675 L 7120,1505 L 7089,1505 L 7089,1270 Z" /><path d="M 8130,1010 L 8130,770 L 8130,630 L 8070,630 L 8070,770 L 8070,1010 L 8070,1150 L 8070,2110 L 8040,2110 L 8040,2280 L 8070,2280 L 8070,2360 L 8070,2600 L 8070,2740 L 8130,2740 L 8130,2600 L 8130,2360 L 8130,2280 L 8160,2280 L 8160,2110 L 8130,2110 L 8130,1150 Z" /><path d="M 6830,1130 L 6830,770 L 6830,630 L 6770,630 L 6770,770 L 6770,1130 L 6770,1270 L 6770,1885 L 6740,1885 L 6740,2055 L 6770,2055 L 6770,2120 L 6770,2600 L 6770,2740 L 6830,2740 L 6830,2600 L 6830,2120 L 6830,2055 L 6860,2055 L 6860,1885 L 6830,1885 L 6830,1270 Z" /><path d="M 8330,2220 L 8330,2360 L 8330,2600 L 8330,2740 L 8390,2740 L 8390,2600 L 8390,2360 L 8390,2220 L 8390,1865 L 8420,1865 L 8420,1695 L 8390,1695 L 8390,1150 L 8390,1010 L 8390,770 L 8390,630 L 8330,630 L 8330,770 L 8330,1010 L 8330,1150 L 8329,1150 L 8329,1695 L 8300,1695 L 8300,1865 L 8329,1865 L 8329,2220 Z" /><path d="M 7870,1010 L 7870,770 L 7870,630 L 7810,630 L 7810,770 L 7810,1010 L 7810,1150 L 7810,1505 L 7780,1505 L 7780,1675 L 7810,1675 L 7810,2220 L 7810,2360 L 7810,2600 L 7810,2740 L 7870,2740 L 7870,2600 L 7870,2360 L 7870,2220 L 7870,1675 L 7900,1675 L 7900,1505 L 7870,1505 L 7870,1150 Z" /><path d="M 7610,1150 L 7610,1010 L 7610,770 L 7610,630 L 7550,630 L 7550,770 L 7550,1010 L 7550,1150 L 7550,1885 L 7520,1885 L 7520,2055 L 7550,2055 L 7550,2220 L 7550,2360 L 7550,2600 L 7550,2740 L 7610,2740 L 7610,2600 L 7610,2360 L 7610,2220 L 7609,2220 L 7609,2055 L 7640,2055 L 7640,1885 L 7609,1885 L 7609,1150 Z" /><path d="M 2870,2120 L 2870,2600 L 2870,2740 L 2930,2740 L 2930,2600 L 2930,2120 L 2930,1980 L 2929,1980 L 2929,1675 L 2955,1675 L 2955,1505 L 2929,1505 L 2929,1030 L 2930,1030 L 2930,890 L 2930,770 L 2930,630 L 2870,630 L 2870,770 L 2870,890 L 2870,1030 L 2870,1505 L 2845,1505 L 2845,1675 L 2870,1675 L 2870,1980 Z" /><path d="M 2670,1030 L 2670,890 L 2670,770 L 2670,630 L 2610,630 L 2610,770 L 2610,890 L 2610,1030 L 2610,1885 L 2585,1885 L 2585,2055 L 2610,2055 L 2610,2120 L 2610,2600 L 2610,2740 L 2670,2740 L 2670,2600 L 2670,2120 L 2670,2055 L 2695,2055 L 2695,1885 L 2670,1885 Z" /><path d="M 2350,630 L 2350,770 L 2350,890 L 2350,1030 L 2350,1695 L 2325,1695 L 2325,1865 L 2350,1865 L 2350,1980 L 2350,2120 L 2350,2600 L 2350,2740 L 2410,2740 L 2410,2600 L 2410,2120 L 2410,1980 L 2409,1980 L 2409,1865 L 2435,1865 L 2435,1695 L 2409,1695 L 2409,1030 L 2410,1030 L 2410,890 L 2410,770 L 2410,630 L 2409,630 L 2409,580 L 2350,580 Z" /><path d="M 2090,770 L 2090,890 L 2090,1030 L 2090,1505 L 2065,1505 L 2065,1675 L 2090,1675 L 2090,1980 L 2090,2120 L 2090,2600 L 2090,2740 L 2150,2740 L 2150,2600 L 2150,2120 L 2150,1980 L 2150,1675 L 2175,1675 L 2175,1505 L 2150,1505 L 2150,1030 L 2150,890 L 2150,770 L 2150,630 L 2150,580 L 2090,580 L 2090,630 Z" /><path d="M 1830,770 L 1830,890 L 1830,1030 L 1830,1315 L 1805,1315 L 1805,1485 L 1830,1485 L 1830,1980 L 1830,2120 L 1830,2600 L 1830,2740 L 1890,2740 L 1890,2600 L 1890,2120 L 1890,1980 L 1890,1485 L 1915,1485 L 1915,1315 L 1890,1315 L 1890,1030 L 1890,890 L 1890,770 L 1890,630 L 1890,580 L 1830,580 L 1830,630 Z" /><path d="M 1630,1030 L 1630,890 L 1630,770 L 1630,630 L 1630,580 L 1570,580 L 1570,630 L 1570,770 L 1570,890 L 1570,1030 L 1570,1885 L 1545,1885 L 1545,2055 L 1570,2055 L 1570,2120 L 1570,2600 L 1570,2740 L 1630,2740 L 1630,2600 L 1630,2120 L 1630,2055 L 1655,2055 L 1655,1885 L 1630,1885 Z" /><path d="M 1310,770 L 1310,890 L 1310,1030 L 1310,1695 L 1285,1695 L 1285,1865 L 1310,1865 L 1310,1980 L 1310,2120 L 1310,2600 L 1310,2740 L 1370,2740 L 1370,2600 L 1370,2120 L 1370,1980 L 1370,1865 L 1395,1865 L 1395,1695 L 1370,1695 L 1370,1030 L 1370,890 L 1370,770 L 1370,630 L 1370,580 L 1310,580 L 1310,630 Z" /><path d="M 1050,630 L 1050,770 L 1050,890 L 1050,1030 L 1050,1505 L 1025,1505 L 1025,1675 L 1050,1675 L 1050,1980 L 1050,2120 L 1050,2600 L 1050,2740 L 1110,2740 L 1110,2600 L 1110,2120 L 1110,1980 L 1110,1675 L 1135,1675 L 1135,1505 L 1110,1505 L 1110,1030 L 1110,890 L 1110,770 L 1110,630 L 1110,580 L 1050,580 Z" /><path d="M 790,2120 L 790,2600 L 790,2740 L 850,2740 L 850,2600 L 850,2120 L 850,1980 L 850,1485 L 875,1485 L 875,1315 L 850,1315 L 850,1030 L 850,890 L 850,770 L 850,630 L 790,630 L 790,770 L 790,890 L 790,1030 L 790,1315 L 765,1315 L 765,1485 L 790,1485 L 790,1980 Z" /><path d="M 530,2120 L 530,2600 L 530,2740 L 590,2740 L 590,2600 L 590,2120 L 590,1980 L 590,1865 L 615,1865 L 615,1695 L 590,1695 L 590,1030 L 590,890 L 590,770 L 590,630 L 530,630 L 530,770 L 530,890 L 530,1030 L 530,1695 L 505,1695 L 505,1865 L 530,1865 L 530,1980 Z" /><path d="M 3650,2360 L 3650,2600 L 3650,2740 L 3710,2740 L 3710,2600 L 3710,2360 L 3710,2220 L 3710,1485 L 3735,1485 L 3735,1315 L 3710,1315 L 3710,1150 L 3710,1010 L 3710,770 L 3710,700 L 3710,630 L 3650,630 L 3650,700 L 3650,770 L 3650,1010 L 3650,1150 L 3650,1315 L 3625,1315 L 3625,1485 L 3650,1485 L 3650,2220 Z" /><path d="M 3390,770 L 3390,1010 L 3390,1125 L 3365,1125 L 3365,1295 L 3390,1295 L 3390,2220 L 3390,2360 L 3390,2600 L 3390,2740 L 3450,2740 L 3450,2600 L 3450,2360 L 3450,2220 L 3449,2220 L 3449,1295 L 3475,1295 L 3475,1125 L 3450,1125 L 3450,1010 L 3450,770 L 3450,630 L 3390,630 L 3390,700 Z" /></g></g><g id="CO"><g class="l30d0"><path d="M 3245,3110 L 3335,3110 L 3335,3200 L 3245,3200 Z" /><path d="M 3245,170 L 3335,170 L 3335,260 L 3245,260 Z" /><path d="M 3245,2435 L 3335,2435 L 3335,2525 L 3245,2525 Z" /><path d="M 3245,845 L 3335,845 L 3335,935 L 3245,935 Z" /><path d="M 2985,3110 L 3075,3110 L 3075,3200 L 2985,3200 Z" /><path d="M 2985,2480 L 3075,2480 L 3075,2570 L 2985,2570 Z" /><path d="M 2985,2150 L 3075,2150 L 3075,2240 L 2985,2240 Z" /><path d="M 2985,170 L 3075,170 L 3075,260 L 2985,260 Z" /><path d="M 2985,785 L 3075,785 L 3075,875 L 2985,875 Z" /><path d="M 2725,785 L 2815,785 L 2815,875 L 2725,875 Z" /><path d="M 2725,170 L 2815,170 L 2815,260 L 2725,260 Z" /><path d="M 2725,3110 L 2815,3110 L 2815,3200 L 2725,3200 Z" /><path d="M 2465,3110 L 2555,3110 L 2555,3200 L 2465,3200 Z" /><path d="M 2465,170 L 2555,170 L 2555,260 L 2465,260 Z" /><path d="M 2465,785 L 2555,785 L 2555,875 L 2465,875 Z" /><path d="M 2205,3110 L 2295,3110 L 2295,3200 L 2205,3200 Z" /><path d="M 2205,170 L 2295,170 L 2295,260 L 2205,260 Z" /><path d="M 2205,785 L 2295,785 L 2295,875 L 2205,875 Z" /><path d="M 1945,3110 L 2035,3110 L 2035,3200 L 1945,3200 Z" /><path d="M 1945,170 L 2035,170 L 2035,260 L 1945,260 Z" /><path d="M 1945,785 L 2035,785 L 2035,875 L 1945,875 Z" /><path d="M 1685,3110 L 1775,3110 L 1775,3200 L 1685,3200 Z" /><path d="M 1685,170 L 1775,170 L 1775,260 L 1685,260 Z" /><path d="M 1685,785 L 1775,785 L 1775,875 L 1685,875 Z" /><path d="M 1685,2480 L 1775,2480 L 1775,2570 L 1685,2570 Z" /><path d="M 1685,2150 L 1775,2150 L 1775,2240 L 1685,2240 Z" /><path d="M 1425,3110 L 1515,3110 L 1515,3200 L 1425,3200 Z" /><path d="M 1425,170 L 1515,170 L 1515,260 L 1425,260 Z" /><path d="M 1425,785 L 1515,785 L 1515,875 L 1425,875 Z" /><path d="M 1165,3110 L 1255,3110 L 1255,3200 L 1165,3200 Z" /><path d="M 1165,170 L 1255,170 L 1255,260 L 1165,260 Z" /><path d="M 1165,785 L 1255,785 L 1255,875 L 1165,875 Z" /><path d="M 905,3110 L 995,3110 L 995,3200 L 905,3200 Z" /><path d="M 905,170 L 995,170 L 995,260 L 905,260 Z" /><path d="M 905,785 L 995,785 L 995,875 L 905,875 Z" /><path d="M 645,785 L 735,785 L 735,875 L 645,875 Z" /><path d="M 645,3110 L 735,3110 L 735,3200 L 645,3200 Z" /><path d="M 645,170 L 735,170 L 735,260 L 645,260 Z" /><path d="M 385,170 L 475,170 L 475,260 L 385,260 Z" /><path d="M 385,3110 L 475,3110 L 475,3200 L 385,3200 Z" /><path d="M 385,2480 L 475,2480 L 475,2570 L 385,2570 Z" /><path d="M 385,2150 L 475,2150 L 475,2240 L 385,2240 Z" /><path d="M 385,785 L 475,785 L 475,875 L 385,875 Z" /><path d="M 3765,3110 L 3855,3110 L 3855,3200 L 3765,3200 Z" /><path d="M 3765,170 L 3855,170 L 3855,260 L 3765,260 Z" /><path d="M 3765,2435 L 3855,2435 L 3855,2525 L 3765,2525 Z" /><path d="M 3765,845 L 3855,845 L 3855,935 L 3765,935 Z" /><path d="M 3505,3110 L 3595,3110 L 3595,3200 L 3505,3200 Z" /><path d="M 3505,170 L 3595,170 L 3595,260 L 3505,260 Z" /><path d="M 3505,2435 L 3595,2435 L 3595,2525 L 3505,2525 Z" /><path d="M 5585,845 L 5675,845 L 5675,935 L 5585,935 Z" /><path d="M 6885,2480 L 6975,2480 L 6975,2570 L 6885,2570 Z" /><path d="M 6365,2480 L 6455,2480 L 6455,2570 L 6365,2570 Z" /><path d="M 8185,2435 L 8275,2435 L 8275,2525 L 8185,2525 Z" /><path d="M 7925,2435 L 8015,2435 L 8015,2525 L 7925,2525 Z" /><path d="M 7665,2435 L 7755,2435 L 7755,2525 L 7665,2525 Z" /><path d="M 6625,2150 L 6715,2150 L 6715,2240 L 6625,2240 Z" /><path d="M 6625,2480 L 6715,2480 L 6715,2570 L 6625,2570 Z" /><path d="M 8445,170 L 8535,170 L 8535,260 L 8445,260 Z" /><path d="M 8185,170 L 8275,170 L 8275,260 L 8185,260 Z" /><path d="M 7925,170 L 8015,170 L 8015,260 L 7925,260 Z" /><path d="M 7665,170 L 7755,170 L 7755,260 L 7665,260 Z" /><path d="M 7405,170 L 7495,170 L 7495,260 L 7405,260 Z" /><path d="M 7145,170 L 7235,170 L 7235,260 L 7145,260 Z" /><path d="M 6885,170 L 6975,170 L 6975,260 L 6885,260 Z" /><path d="M 6625,170 L 6715,170 L 6715,260 L 6625,260 Z" /><path d="M 6365,170 L 6455,170 L 6455,260 L 6365,260 Z" /><path d="M 6105,170 L 6195,170 L 6195,260 L 6105,260 Z" /><path d="M 5845,170 L 5935,170 L 5935,260 L 5845,260 Z" /><path d="M 5585,170 L 5675,170 L 5675,260 L 5585,260 Z" /><path d="M 5325,170 L 5415,170 L 5415,260 L 5325,260 Z" /><path d="M 5065,170 L 5155,170 L 5155,260 L 5065,260 Z" /><path d="M 4805,170 L 4895,170 L 4895,260 L 4805,260 Z" /><path d="M 4545,170 L 4635,170 L 4635,260 L 4545,260 Z" /><path d="M 4285,170 L 4375,170 L 4375,260 L 4285,260 Z" /><path d="M 4025,170 L 4115,170 L 4115,260 L 4025,260 Z" /><path d="M 8445,3110 L 8535,3110 L 8535,3200 L 8445,3200 Z" /><path d="M 4285,2435 L 4375,2435 L 4375,2525 L 4285,2525 Z" /><path d="M 5065,2435 L 5155,2435 L 5155,2525 L 5065,2525 Z" /><path d="M 4805,2435 L 4895,2435 L 4895,2525 L 4805,2525 Z" /><path d="M 4545,2435 L 4635,2435 L 4635,2525 L 4545,2525 Z" /><path d="M 5065,3110 L 5155,3110 L 5155,3200 L 5065,3200 Z" /><path d="M 4025,3110 L 4115,3110 L 4115,3200 L 4025,3200 Z" /><path d="M 4285,3110 L 4375,3110 L 4375,3200 L 4285,3200 Z" /><path d="M 4545,3110 L 4635,3110 L 4635,3200 L 4545,3200 Z" /><path d="M 4805,3110 L 4895,3110 L 4895,3200 L 4805,3200 Z" /><path d="M 8185,3110 L 8275,3110 L 8275,3200 L 8185,3200 Z" /><path d="M 6885,3110 L 6975,3110 L 6975,3200 L 6885,3200 Z" /><path d="M 7145,3110 L 7235,3110 L 7235,3200 L 7145,3200 Z" /><path d="M 7405,3110 L 7495,3110 L 7495,3200 L 7405,3200 Z" /><path d="M 7665,3110 L 7755,3110 L 7755,3200 L 7665,3200 Z" /><path d="M 7925,3110 L 8015,3110 L 8015,3200 L 7925,3200 Z" /><path d="M 5845,2435 L 5935,2435 L 5935,2525 L 5845,2525 Z" /><path d="M 6625,3110 L 6715,3110 L 6715,3200 L 6625,3200 Z" /><path d="M 5325,3110 L 5415,3110 L 5415,3200 L 5325,3200 Z" /><path d="M 5585,3110 L 5675,3110 L 5675,3200 L 5585,3200 Z" /><path d="M 5845,3110 L 5935,3110 L 5935,3200 L 5845,3200 Z" /><path d="M 6105,3110 L 6195,3110 L 6195,3200 L 6105,3200 Z" /><path d="M 6365,3110 L 6455,3110 L 6455,3200 L 6365,3200 Z" /><path d="M 8445,845 L 8535,845 L 8535,935 L 8445,935 Z" /><path d="M 7405,845 L 7495,845 L 7495,935 L 7405,935 Z" /><path d="M 7145,1010 L 7235,1010 L 7235,1100 L 7145,1100 Z" /><path d="M 7145,800 L 7235,800 L 7235,890 L 7145,890 Z" /><path d="M 6365,800 L 6455,800 L 6455,890 L 6365,890 Z" /><path d="M 6105,800 L 6195,800 L 6195,890 L 6105,890 Z" /><path d="M 5845,845 L 5935,845 L 5935,935 L 5845,935 Z" /><path d="M 5325,1010 L 5415,1010 L 5415,1100 L 5325,1100 Z" /><path d="M 5325,800 L 5415,800 L 5415,890 L 5325,890 Z" /><path d="M 7925,845 L 8015,845 L 8015,935 L 7925,935 Z" /><path d="M 4025,845 L 4115,845 L 4115,935 L 4025,935 Z" /><path d="M 4025,2435 L 4115,2435 L 4115,2525 L 4025,2525 Z" /><path d="M 8445,2435 L 8535,2435 L 8535,2525 L 8445,2525 Z" /><path d="M 7405,2435 L 7495,2435 L 7495,2525 L 7405,2525 Z" /><path d="M 7145,2150 L 7235,2150 L 7235,2240 L 7145,2240 Z" /><path d="M 6365,1010 L 6455,1010 L 6455,1100 L 6365,1100 Z" /><path d="M 6105,2435 L 6195,2435 L 6195,2525 L 6105,2525 Z" /><path d="M 5585,2435 L 5675,2435 L 5675,2525 L 5585,2525 Z" /><path d="M 5325,2435 L 5415,2435 L 5415,2525 L 5325,2525 Z" /><path d="M 6105,1010 L 6195,1010 L 6195,1100 L 6105,1100 Z" /><path d="M 4545,845 L 4635,845 L 4635,935 L 4545,935 Z" /><path d="M 7145,2480 L 7235,2480 L 7235,2570 L 7145,2570 Z" /><path d="M 4155,1545 L 4245,1545 L 4245,1635 L 4155,1635 Z" /><path d="M 5715,2150 L 5805,2150 L 5805,2240 L 5715,2240 Z" /><path d="M 4415,1925 L 4505,1925 L 4505,2015 L 4415,2015 Z" /><path d="M 4675,1735 L 4765,1735 L 4765,1825 L 4675,1825 Z" /><path d="M 6235,1355 L 6325,1355 L 6325,1445 L 6235,1445 Z" /><path d="M 6495,1735 L 6585,1735 L 6585,1825 L 6495,1825 Z" /><path d="M 5195,1735 L 5285,1735 L 5285,1825 L 5195,1825 Z" /><path d="M 4935,1355 L 5025,1355 L 5025,1445 L 4935,1445 Z" /><path d="M 7015,1545 L 7105,1545 L 7105,1635 L 7015,1635 Z" /><path d="M 8055,2150 L 8145,2150 L 8145,2240 L 8055,2240 Z" /><path d="M 6755,1925 L 6845,1925 L 6845,2015 L 6755,2015 Z" /><path d="M 8315,1735 L 8405,1735 L 8405,1825 L 8315,1825 Z" /><path d="M 7795,1545 L 7885,1545 L 7885,1635 L 7795,1635 Z" /><path d="M 7535,1925 L 7625,1925 L 7625,2015 L 7535,2015 Z" /><path d="M 2855,1545 L 2945,1545 L 2945,1635 L 2855,1635 Z" /><path d="M 2595,1925 L 2685,1925 L 2685,2015 L 2595,2015 Z" /><path d="M 2335,1735 L 2425,1735 L 2425,1825 L 2335,1825 Z" /><path d="M 2075,1545 L 2165,1545 L 2165,1635 L 2075,1635 Z" /><path d="M 1815,1355 L 1905,1355 L 1905,1445 L 1815,1445 Z" /><path d="M 1555,1925 L 1645,1925 L 1645,2015 L 1555,2015 Z" /><path d="M 1295,1735 L 1385,1735 L 1385,1825 L 1295,1825 Z" /><path d="M 1035,1545 L 1125,1545 L 1125,1635 L 1035,1635 Z" /><path d="M 775,1355 L 865,1355 L 865,1445 L 775,1445 Z" /><path d="M 515,1735 L 605,1735 L 605,1825 L 515,1825 Z" /><path d="M 3635,1355 L 3725,1355 L 3725,1445 L 3635,1445 Z" /><path d="M 3375,1165 L 3465,1165 L 3465,1255 L 3375,1255 Z" /></g></g><g id="M1"><g class="l31d0"><path d="M 6880,2575 L 6880,2700 L 6460,2700 L 6460,2575 L 6460,2440 L 6360,2440 L 6360,2575 L 6360,2700 L 6360,2800 L 6460,2800 L 6880,2800 L 6980,2800 L 6980,2700 L 6980,2575 L 6980,2440 L 6880,2440 Z" /><path d="M 3930,3060 L 3860,3060 L 3860,2530 L 3860,2395 L 3760,2395 L 3760,2530 L 3760,3060 L 3340,3060 L 3340,2530 L 3340,2395 L 3240,2395 L 3240,2530 L 3240,3060 L 1780,3060 L 1780,2245 L 1780,2110 L 1680,2110 L 1680,2245 L 1680,3060 L 810,3060 L 290,3060 L 290,3250 L 810,3250 L 3930,3250 L 3950,3250 L 8630,3250 L 8630,3060 L 8540,3060 L 8540,2530 L 8540,2395 L 8440,2395 L 8440,2530 L 8440,3060 L 8020,3060 L 8020,2530 L 8020,2395 L 7920,2395 L 7920,2530 L 7920,3060 L 7500,3060 L 7500,2530 L 7500,2395 L 7400,2395 L 7400,2530 L 7400,3060 L 6200,3060 L 6200,2530 L 6200,2395 L 6100,2395 L 6100,2530 L 6100,3060 L 5680,3060 L 5680,2530 L 5680,2395 L 5580,2395 L 5580,2530 L 5580,3060 L 5160,3060 L 5160,2530 L 5160,2395 L 5060,2395 L 5060,2530 L 5060,3060 L 4640,3060 L 4640,2530 L 4640,2395 L 4540,2395 L 4540,2530 L 4540,3060 L 4120,3060 L 4120,2530 L 4120,2395 L 4020,2395 L 4020,2530 L 4020,3060 L 3950,3060 Z" /><path d="M 1780,780 L 1780,310 L 2200,310 L 2200,780 L 2200,915 L 2300,915 L 2300,780 L 2300,310 L 2720,310 L 2720,780 L 2720,915 L 2820,915 L 2820,780 L 2820,310 L 3760,310 L 3760,840 L 3760,975 L 3860,975 L 3860,840 L 3860,310 L 3930,310 L 3950,310 L 4540,310 L 4540,840 L 4540,975 L 4640,975 L 4640,840 L 4640,310 L 5580,310 L 5580,840 L 5580,975 L 5680,975 L 5680,840 L 5680,310 L 6100,310 L 6100,1005 L 6100,1140 L 6200,1140 L 6200,1005 L 6200,310 L 7140,310 L 7140,795 L 7140,1140 L 7240,1140 L 7240,795 L 7240,310 L 7920,310 L 7920,840 L 7920,975 L 8020,975 L 8020,840 L 8020,310 L 8630,310 L 8630,120 L 3950,120 L 3930,120 L 810,120 L 290,120 L 290,310 L 640,310 L 640,780 L 640,915 L 740,915 L 740,780 L 740,310 L 810,310 L 1160,310 L 1160,780 L 1160,915 L 1260,915 L 1260,780 L 1260,310 L 1680,310 L 1680,780 L 1680,915 L 1780,915 Z" /><path d="M 5840,2390 L 5840,2570 L 5840,2810 L 5940,2810 L 5940,2570 L 5940,2390 Z" /><path d="M 5940,680 L 5840,680 L 5840,800 L 5840,980 L 5840,1100 L 5940,1100 L 5940,980 L 5940,800 Z" /><path d="M 5420,720 L 5320,720 L 5320,860 L 5320,1040 L 5320,1140 L 5420,1140 L 5420,1040 L 5420,860 Z" /><path d="M 4280,2390 L 4280,2570 L 4280,2810 L 4380,2810 L 4380,2570 L 4380,2390 Z" /><path d="M 7660,2390 L 7660,2570 L 7660,2810 L 7760,2810 L 7760,2570 L 7760,2390 Z" /><path d="M 8180,2390 L 8180,2570 L 8180,2810 L 8280,2810 L 8280,2570 L 8280,2390 Z" /><path d="M 6460,720 L 6360,720 L 6360,860 L 6360,1040 L 6360,1140 L 6460,1140 L 6460,1040 L 6460,860 Z" /><path d="M 3985,940 L 4240,940 L 4330,940 L 4420,940 L 4420,840 L 4330,840 L 4240,840 L 3985,840 Z" /><path d="M 7365,940 L 7500,940 L 7620,940 L 7710,940 L 7800,940 L 7800,840 L 7710,840 L 7620,840 L 7500,840 L 7365,840 Z" /><path d="M 8575,840 L 8440,840 L 8320,840 L 8230,840 L 8140,840 L 8140,940 L 8230,940 L 8320,940 L 8440,940 L 8575,940 Z" /><path d="M 4385,1730 L 4385,1830 L 4635,1830 L 4805,1830 L 4805,1730 L 4635,1730 Z" /><path d="M 6070,1350 L 6070,1450 L 6195,1450 L 6365,1450 L 6490,1450 L 6490,1350 L 6365,1350 L 6195,1350 Z" /><path d="M 6390,1830 L 6455,1830 L 6580,1830 L 6625,1830 L 6760,1830 L 6810,1830 L 6810,1730 L 6760,1730 L 6625,1730 L 6580,1730 L 6455,1730 L 6390,1730 Z" /><path d="M 4915,1830 L 5020,1830 L 5155,1830 L 5200,1830 L 5325,1830 L 5335,1830 L 5335,1730 L 5325,1730 L 5200,1730 L 5155,1730 L 5020,1730 L 4915,1730 Z" /><path d="M 4895,1450 L 4980,1450 L 5065,1450 L 5065,1350 L 4980,1350 L 4895,1350 L 4420,1350 L 4330,1350 L 4240,1350 L 4240,1450 L 4330,1450 L 4420,1450 Z" /><path d="M 4285,1540 L 4200,1540 L 4115,1540 L 4115,1640 L 4200,1640 L 4285,1640 L 5800,1640 L 5890,1640 L 5980,1640 L 6975,1640 L 7060,1640 L 7145,1640 L 7145,1540 L 7060,1540 L 6975,1540 L 5980,1540 L 5890,1540 L 5800,1540 Z" /><path d="M 6585,2245 L 6620,2245 L 6620,2475 L 6620,2610 L 6720,2610 L 6720,2475 L 6720,2245 L 7140,2245 L 7140,2475 L 7140,2610 L 7240,2610 L 7240,2475 L 7240,2245 L 7275,2245 L 7275,2244 L 8015,2244 L 8015,2245 L 8185,2245 L 8185,2145 L 8100,2145 L 8015,2145 L 7275,2145 L 6585,2145 L 6500,2145 L 6410,2145 L 6320,2145 L 5845,2145 L 5760,2145 L 5675,2145 L 5675,2245 L 5845,2245 L 5845,2244 L 6320,2244 L 6320,2245 L 6500,2245 L 6500,2244 L 6585,2244 Z" /><path d="M 8275,1730 L 7800,1730 L 7710,1730 L 7620,1730 L 7620,1830 L 7710,1830 L 7800,1830 L 8275,1830 L 8360,1830 L 8445,1830 L 8445,1730 L 8360,1730 Z" /><path d="M 7925,1640 L 8140,1640 L 8230,1640 L 8320,1640 L 8320,1540 L 8230,1540 L 8140,1540 L 7925,1540 L 7840,1540 L 7755,1540 L 7755,1640 L 7840,1640 Z" /><path d="M 6715,2020 L 6885,2020 L 7495,2020 L 7580,2020 L 7665,2020 L 7665,1920 L 7580,1920 L 7495,1920 L 6885,1920 L 6715,1920 L 5460,1920 L 5370,1920 L 5280,1920 L 4545,1920 L 4460,1920 L 4375,1920 L 4375,2020 L 4460,2020 L 4545,2020 L 4800,2020 L 4800,2565 L 4900,2565 L 4900,2020 L 5280,2020 L 5320,2020 L 5320,2565 L 5420,2565 L 5420,2020 L 5460,2020 Z" /><path d="M 3080,2610 L 3080,2475 L 3080,2450 L 3080,2270 L 3080,2245 L 3080,2110 L 2980,2110 L 2980,2245 L 2980,2270 L 2980,2450 L 2980,2475 L 2980,2610 Z" /><path d="M 480,2610 L 480,2475 L 480,2450 L 480,2270 L 480,2245 L 480,2110 L 380,2110 L 380,2245 L 380,2270 L 380,2450 L 380,2475 L 380,2610 Z" /><path d="M 3340,560 L 3240,560 L 3240,800 L 3240,980 L 3340,980 L 3340,800 Z" /><path d="M 3080,500 L 2980,500 L 2980,740 L 2980,920 L 3080,920 L 3080,740 Z" /><path d="M 2560,500 L 2460,500 L 2460,740 L 2460,920 L 2560,920 L 2560,740 Z" /><path d="M 2040,500 L 1940,500 L 1940,740 L 1940,920 L 2040,920 L 2040,740 Z" /><path d="M 1520,500 L 1420,500 L 1420,740 L 1420,920 L 1520,920 L 1520,740 Z" /><path d="M 1000,500 L 900,500 L 900,740 L 900,920 L 1000,920 L 1000,740 Z" /><path d="M 480,500 L 380,500 L 380,740 L 380,920 L 480,920 L 480,740 Z" /><path d="M 3500,2390 L 3500,2570 L 3500,2810 L 3600,2810 L 3600,2570 L 3600,2390 Z" /><path d="M 3120,1450 L 3595,1450 L 3680,1450 L 3765,1450 L 3765,1350 L 3680,1350 L 3595,1350 L 3120,1350 L 3030,1350 L 2940,1350 L 2940,1450 L 3030,1450 Z" /><path d="M 2600,1540 L 2600,1640 L 2680,1640 L 2815,1640 L 2860,1640 L 2985,1640 L 3020,1640 L 3020,1540 L 2985,1540 L 2860,1540 L 2815,1540 L 2680,1540 Z" /><path d="M 2340,1920 L 2340,2020 L 2420,2020 L 2555,2020 L 2600,2020 L 2725,2020 L 2760,2020 L 2760,1920 L 2725,1920 L 2600,1920 L 2555,1920 L 2420,1920 Z" /><path d="M 2080,1730 L 2080,1830 L 2160,1830 L 2295,1830 L 2340,1830 L 2465,1830 L 2500,1830 L 2500,1730 L 2465,1730 L 2340,1730 L 2295,1730 L 2160,1730 Z" /><path d="M 1820,1540 L 1820,1640 L 1900,1640 L 2035,1640 L 2080,1640 L 2205,1640 L 2240,1640 L 2240,1540 L 2205,1540 L 2080,1540 L 2035,1540 L 1900,1540 Z" /><path d="M 1465,1920 L 1465,2020 L 1515,2020 L 1640,2020 L 1685,2020 L 1820,2020 L 1885,2020 L 1885,1920 L 1820,1920 L 1685,1920 L 1640,1920 L 1515,1920 Z" /><path d="M 1580,1350 L 1580,1450 L 1640,1450 L 1775,1450 L 1820,1450 L 1945,1450 L 2000,1450 L 2000,1350 L 1945,1350 L 1820,1350 L 1775,1350 L 1640,1350 Z" /><path d="M 1215,1730 L 1215,1830 L 1255,1830 L 1380,1830 L 1425,1830 L 1560,1830 L 1635,1830 L 1635,1730 L 1560,1730 L 1425,1730 L 1380,1730 L 1255,1730 Z" /><path d="M 950,1540 L 950,1640 L 995,1640 L 1120,1640 L 1165,1640 L 1300,1640 L 1370,1640 L 1370,1540 L 1300,1540 L 1165,1540 L 1120,1540 L 995,1540 Z" /><path d="M 690,1350 L 690,1450 L 735,1450 L 860,1450 L 905,1450 L 1040,1450 L 1110,1450 L 1110,1350 L 1040,1350 L 905,1350 L 860,1350 L 735,1350 Z" /><path d="M 435,1730 L 435,1830 L 475,1830 L 600,1830 L 645,1830 L 780,1830 L 855,1830 L 855,1730 L 780,1730 L 645,1730 L 600,1730 L 475,1730 Z" /><path d="M 3420,1260 L 3505,1260 L 3505,1160 L 3420,1160 L 3335,1160 L 3190,1160 L 2970,1160 L 520,1160 L 430,1160 L 340,1160 L 340,1260 L 430,1260 L 520,1260 L 2970,1260 L 3190,1260 L 3335,1260 Z" /><path d="M 780,2490 L 690,2490 L 600,2490 L 600,2590 L 690,2590 L 780,2590 L 1380,2590 L 1500,2590 L 1560,2590 L 1560,2490 L 1500,2490 L 1380,2490 Z" /></g></g><g id="VIA1"><g class="l51d0"><path d="M 5840,2430 L 5940,2430 L 5940,2530 L 5840,2530 Z" /><path d="M 5840,840 L 5940,840 L 5940,940 L 5840,940 Z" /><path d="M 5320,900 L 5420,900 L 5420,1000 L 5320,1000 Z" /><path d="M 4280,2430 L 4380,2430 L 4380,2530 L 4280,2530 Z" /><path d="M 7660,2430 L 7760,2430 L 7760,2530 L 7660,2530 Z" /><path d="M 8180,2430 L 8280,2430 L 8280,2530 L 8180,2530 Z" /><path d="M 6360,900 L 6460,900 L 6460,1000 L 6360,1000 Z" /><path d="M 5060,1730 L 5160,1730 L 5160,1830 L 5060,1830 Z" /><path d="M 6620,1730 L 6720,1730 L 6720,1830 L 6620,1830 Z" /><path d="M 5840,1540 L 5940,1540 L 5940,1640 L 5840,1640 Z" /><path d="M 5320,1920 L 5420,1920 L 5420,2020 L 5320,2020 Z" /><path d="M 4280,1350 L 4380,1350 L 4380,1450 L 4280,1450 Z" /><path d="M 4280,840 L 4380,840 L 4380,940 L 4280,940 Z" /><path d="M 8180,1540 L 8280,1540 L 8280,1640 L 8180,1640 Z" /><path d="M 7660,1730 L 7760,1730 L 7760,1830 L 7660,1830 Z" /><path d="M 7660,840 L 7760,840 L 7760,940 L 7660,940 Z" /><path d="M 8180,840 L 8280,840 L 8280,940 L 8180,940 Z" /><path d="M 6360,2145 L 6460,2145 L 6460,2245 L 6360,2245 Z" /><path d="M 2980,2310 L 3080,2310 L 3080,2410 L 2980,2410 Z" /><path d="M 380,2310 L 480,2310 L 480,2410 L 380,2410 Z" /><path d="M 3240,840 L 3340,840 L 3340,940 L 3240,940 Z" /><path d="M 2980,780 L 3080,780 L 3080,880 L 2980,880 Z" /><path d="M 2460,780 L 2560,780 L 2560,880 L 2460,880 Z" /><path d="M 1940,780 L 2040,780 L 2040,880 L 1940,880 Z" /><path d="M 1420,780 L 1520,780 L 1520,880 L 1420,880 Z" /><path d="M 900,780 L 1000,780 L 1000,880 L 900,880 Z" /><path d="M 380,780 L 480,780 L 480,880 L 380,880 Z" /><path d="M 3500,2430 L 3600,2430 L 3600,2530 L 3500,2530 Z" /><path d="M 1420,2490 L 1520,2490 L 1520,2590 L 1420,2590 Z" /><path d="M 2980,1350 L 3080,1350 L 3080,1450 L 2980,1450 Z" /><path d="M 2720,1540 L 2820,1540 L 2820,1640 L 2720,1640 Z" /><path d="M 2460,1920 L 2560,1920 L 2560,2020 L 2460,2020 Z" /><path d="M 2200,1730 L 2300,1730 L 2300,1830 L 2200,1830 Z" /><path d="M 1940,1540 L 2040,1540 L 2040,1640 L 1940,1640 Z" /><path d="M 1680,1920 L 1780,1920 L 1780,2020 L 1680,2020 Z" /><path d="M 1680,1350 L 1780,1350 L 1780,1450 L 1680,1450 Z" /><path d="M 1420,1730 L 1520,1730 L 1520,1830 L 1420,1830 Z" /><path d="M 1160,1540 L 1260,1540 L 1260,1640 L 1160,1640 Z" /><path d="M 900,1350 L 1000,1350 L 1000,1450 L 900,1450 Z" /><path d="M 640,1730 L 740,1730 L 740,1830 L 640,1830 Z" /><path d="M 380,1160 L 480,1160 L 480,1260 L 380,1260 Z" /><path d="M 640,2490 L 740,2490 L 740,2590 L 640,2590 Z" /></g></g><g id="M2"><g class="l32d0"><path d="M 5940,890 L 5940,800 L 5840,800 L 5840,890 L 5840,980 L 5840,1500 L 5840,1680 L 5840,2390 L 5840,2480 L 5840,2570 L 5940,2570 L 5940,2480 L 5940,2390 L 5940,1680 L 5940,1500 L 5940,980 Z" /><path d="M 5320,1880 L 5320,1970 L 5320,2060 L 5420,2060 L 5420,1970 L 5420,1880 L 5420,1040 L 5420,950 L 5420,860 L 5320,860 L 5320,950 L 5320,1040 Z" /><path d="M 4380,1400 L 4380,1310 L 4380,980 L 4380,890 L 4380,800 L 4280,800 L 4280,890 L 4280,980 L 4280,1310 L 4280,1400 L 4280,1490 L 4280,2390 L 4280,2480 L 4280,2570 L 4380,2570 L 4380,2480 L 4380,2390 L 4380,1490 Z" /><path d="M 7760,1780 L 7760,1690 L 7760,980 L 7760,890 L 7760,800 L 7660,800 L 7660,890 L 7660,980 L 7660,1690 L 7660,1780 L 7660,1870 L 7660,2390 L 7660,2480 L 7660,2570 L 7760,2570 L 7760,2480 L 7760,2390 L 7760,1870 Z" /><path d="M 8280,1590 L 8280,1500 L 8280,980 L 8280,890 L 8280,800 L 8180,800 L 8180,890 L 8180,980 L 8180,1500 L 8180,1590 L 8180,1680 L 8180,2390 L 8180,2480 L 8180,2570 L 8280,2570 L 8280,2480 L 8280,2390 L 8280,1680 Z" /><path d="M 6360,2105 L 6360,2195 L 6360,2285 L 6460,2285 L 6460,2195 L 6460,2105 L 6460,1040 L 6460,950 L 6460,860 L 6360,860 L 6360,950 L 6360,1040 Z" /><path d="M 6620,1520 L 6620,1690 L 6620,1695 L 6620,1870 L 6620,1875 L 6620,2040 L 6720,2040 L 6720,1875 L 6720,1870 L 6720,1695 L 6720,1690 L 6720,1520 Z" /><path d="M 5060,1520 L 5060,1690 L 5060,1695 L 5060,1870 L 5060,1875 L 5060,2040 L 5160,2040 L 5160,1875 L 5160,1870 L 5160,1695 L 5160,1690 L 5160,1520 Z" /><path d="M 3340,1875 L 3340,1785 L 3340,1695 L 3340,980 L 3340,890 L 3340,800 L 3240,800 L 3240,890 L 3240,980 L 3240,1695 L 3240,1785 L 3240,1875 L 3240,2430 L 3240,2530 L 3340,2530 L 3460,2530 L 3550,2530 L 3640,2530 L 3640,2430 L 3550,2430 L 3460,2430 L 3340,2430 Z" /><path d="M 1420,2295 L 1420,2450 L 1420,2475 L 1420,2630 L 1420,2815 L 1520,2815 L 1520,2630 L 1520,2475 L 1520,2450 L 1520,2295 Z" /><path d="M 2980,1490 L 2980,2270 L 2980,2360 L 2980,2450 L 3080,2450 L 3080,2360 L 3080,2270 L 3080,1490 L 3080,1400 L 3080,1310 L 3080,880 L 3120,880 L 3120,780 L 3080,780 L 2980,780 L 2940,780 L 2600,780 L 2510,780 L 2420,780 L 2080,780 L 1990,780 L 1900,780 L 1900,880 L 1990,880 L 2080,880 L 2420,880 L 2510,880 L 2600,880 L 2940,880 L 2980,880 L 2980,1310 L 2980,1400 Z" /><path d="M 2820,1500 L 2820,1275 L 2820,1135 L 2820,1095 L 2720,1095 L 2720,1135 L 2720,1275 L 2720,1500 L 2720,1590 L 2720,1680 L 2820,1680 L 2820,1590 Z" /><path d="M 2560,1495 L 2460,1495 L 2460,1520 L 2460,1675 L 2460,1880 L 2460,2040 L 2460,2060 L 2560,2060 L 2560,2040 L 2560,1880 L 2560,1675 L 2560,1520 Z" /><path d="M 2300,1295 L 2200,1295 L 2200,1320 L 2200,1475 L 2200,1690 L 2200,1840 L 2200,1870 L 2300,1870 L 2300,1840 L 2300,1690 L 2300,1475 L 2300,1320 Z" /><path d="M 2040,1095 L 1940,1095 L 1940,1140 L 1940,1275 L 1940,1500 L 1940,1660 L 1940,1680 L 2040,1680 L 2040,1660 L 2040,1500 L 2040,1275 L 2040,1140 Z" /><path d="M 1680,1835 L 1680,1875 L 1680,1880 L 1680,1970 L 1680,2060 L 1680,2215 L 1780,2215 L 1780,2060 L 1780,1970 L 1780,1880 L 1780,1875 L 1780,1835 L 1780,1695 L 1680,1695 Z" /><path d="M 1780,895 L 1680,895 L 1680,930 L 1680,1075 L 1680,1310 L 1680,1450 L 1680,1490 L 1780,1490 L 1780,1450 L 1780,1310 L 1780,1075 L 1780,930 Z" /><path d="M 1420,1690 L 1420,1780 L 1420,1870 L 1420,1895 L 1420,2035 L 1420,2075 L 1420,2140 L 1520,2140 L 1520,2075 L 1520,2035 L 1520,1895 L 1520,1870 L 1520,1780 L 1520,1690 L 1520,1620 L 1420,1620 Z" /><path d="M 1160,1680 L 1160,2095 L 1160,2185 L 1160,2275 L 1260,2275 L 1260,2185 L 1260,2095 L 1260,1680 L 1260,1590 L 1260,1500 L 1160,1500 L 1160,1590 Z" /><path d="M 900,1490 L 900,2295 L 900,2385 L 900,2475 L 1000,2475 L 1000,2385 L 1000,2295 L 1000,1490 L 1000,1400 L 1000,1310 L 900,1310 L 900,1400 Z" /><path d="M 380,2450 L 480,2450 L 480,2360 L 480,2270 L 480,1300 L 480,1210 L 480,1120 L 480,880 L 520,880 L 860,880 L 950,880 L 1040,880 L 1380,880 L 1470,880 L 1560,880 L 1560,780 L 1470,780 L 1380,780 L 1040,780 L 950,780 L 860,780 L 520,780 L 480,780 L 430,780 L 380,780 L 340,780 L 340,880 L 380,880 L 380,1120 L 380,1210 L 380,1300 L 380,2270 L 380,2360 Z" /><path d="M 740,2450 L 740,1870 L 740,1780 L 740,1690 L 640,1690 L 640,1780 L 640,1870 L 640,2450 L 640,2540 L 640,2630 L 740,2630 L 740,2540 Z" /></g></g><g id="VIA2"><g class="l52d0"><path d="M 6620,1735 L 6720,1735 L 6720,1835 L 6620,1835 Z" /><path d="M 5060,1735 L 5160,1735 L 5160,1835 L 5060,1835 Z" /><path d="M 1420,2335 L 1520,2335 L 1520,2435 L 1420,2435 Z" /><path d="M 2460,1535 L 2560,1535 L 2560,1635 L 2460,1635 Z" /><path d="M 2200,1335 L 2300,1335 L 2300,1435 L 2200,1435 Z" /><path d="M 1940,1135 L 2040,1135 L 2040,1235 L 1940,1235 Z" /><path d="M 1680,1735 L 1780,1735 L 1780,1835 L 1680,1835 Z" /><path d="M 1420,1935 L 1520,1935 L 1520,2035 L 1420,2035 Z" /><path d="M 1160,2135 L 1260,2135 L 1260,2235 L 1160,2235 Z" /><path d="M 900,2335 L 1000,2335 L 1000,2435 L 900,2435 Z" /><path d="M 3240,1735 L 3340,1735 L 3340,1835 L 3240,1835 Z" /><path d="M 2720,1135 L 2820,1135 L 2820,1235 L 2720,1235 Z" /><path d="M 1680,935 L 1780,935 L 1780,1035 L 1680,1035 Z" /></g></g><g id="M3"><g class="l33d0"><path d="M 1210,2335 L 1210,2435 L 1380,2435 L 1560,2435 L 1730,2435 L 1730,2335 L 1560,2335 L 1380,2335 Z" /><path d="M 2420,1535 L 430,1535 L 430,1635 L 2420,1635 L 2510,1635 L 2600,1635 L 2600,1535 L 2510,1535 Z" /><path d="M 2160,1335 L 430,1335 L 430,1435 L 2160,1435 L 2250,1435 L 2340,1435 L 2340,1335 L 2250,1335 Z" /><path d="M 430,1235 L 690,1235 L 790,1235 L 1900,1235 L 1990,1235 L 2080,1235 L 2080,1135 L 1990,1135 L 1900,1135 L 790,1135 L 690,1135 L 430,1135 Z" /><path d="M 1640,1735 L 430,1735 L 430,1835 L 1640,1835 L 1730,1835 L 1820,1835 L 1820,1735 L 1730,1735 Z" /><path d="M 1380,1935 L 430,1935 L 430,2035 L 1380,2035 L 1470,2035 L 1560,2035 L 1560,1935 L 1470,1935 Z" /><path d="M 1120,2135 L 430,2135 L 430,2235 L 1120,2235 L 1225,2235 L 1300,2235 L 1300,2135 L 1225,2135 Z" /><path d="M 860,2335 L 430,2335 L 430,2435 L 860,2435 L 950,2435 L 1040,2435 L 1040,2335 L 950,2335 Z" /><path d="M 3380,1735 L 3290,1735 L 3200,1735 L 3200,1835 L 3290,1835 L 3380,1835 L 5020,1835 L 5060,1835 L 5110,1835 L 5200,1835 L 6580,1835 L 6670,1835 L 6760,1835 L 6760,1735 L 6670,1735 L 6580,1735 L 5200,1735 L 5110,1735 L 5060,1735 L 5020,1735 Z" /><path d="M 2510,1135 L 2510,1235 L 2680,1235 L 2860,1235 L 3030,1235 L 3030,1135 L 2860,1135 L 2680,1135 Z" /><path d="M 430,1035 L 1640,1035 L 1735,1035 L 1820,1035 L 1820,935 L 1735,935 L 1735,934 L 430,934 Z" /></g></g><g id="VIA3"><g class="l53d0"><path d="M 1420,2335 L 1520,2335 L 1520,2435 L 1420,2435 Z" /><path d="M 2720,1135 L 2820,1135 L 2820,1235 L 2720,1235 Z" /></g></g><g id="M4"><g class="l34d0"><path d="M 1520,2125 L 1420,2125 L 1420,2295 L 1420,2475 L 1420,2645 L 1520,2645 L 1520,2475 L 1520,2295 Z" /><path d="M 2820,925 L 2720,925 L 2720,1095 L 2720,1275 L 2720,1445 L 2820,1445 L 2820,1275 L 2820,1095 Z" /></g></g><g id="VIA4"><g class="l54d0"><path d="M 1420,2335 L 1520,2335 L 1520,2435 L 1420,2435 Z" /><path d="M 2720,1135 L 2820,1135 L 2820,1235 L 2720,1235 Z" /></g></g><g id="M5"><g class="l35d0"><path d="M 430,2435 L 1380,2435 L 1470,2435 L 1560,2435 L 1560,2335 L 1470,2335 L 1380,2335 L 430,2335 Z" /><path d="M 2680,1135 L 430,1135 L 430,1235 L 2680,1235 L 2770,1235 L 2860,1235 L 2860,1135 L 2770,1135 Z" /></g></g></g></svg>