<svg width="3470" height="3550" viewBox="-5 -3545 3470 3550" xmlns="http://www.w3.org/2000/svg" xmlns:xlink="http://www.w3.org/1999/xlink"><defs><style type="text/css">.l3d0 {fill: #fef9e7; fill-opacity: 0.5; stroke-width: 10; stroke: #f1c40f; stroke-linecap: round; stroke-linejoin: round; stroke-opacity: 0.2;}.l25d0 {fill: #8e44ad; fill-opacity: 0.05; stroke-width: 10; stroke: #8e44ad; stroke-linecap: round; stroke-linejoin: round; stroke-opacity: 1;}.l26d0 {fill: #ccd1d1; fill-opacity: 0.05; stroke-width: 10; stroke: #ccd1d1; stroke-linecap: round; stroke-linejoin: round; stroke-opacity: 1;}.l6d0 {fill: #f5b7b1; fill-opacity: 1; stroke-width: 10; stroke: #e74c3c; stroke-linecap: round; stroke-linejoin: round; stroke-opacity: 1;}.l17d0 {fill: #2980b9; fill-opacity: 1; stroke-width: 0; stroke: #000000; stroke-linecap: round; stroke-linejoin: round; stroke-opacity: 0;}.l30d0 {fill: #27ae60; fill-opacity: 1; stroke-width: 0; stroke: #000000; stroke-linecap: round; stroke-linejoin: round; stroke-opacity: 0;}.l31d0 {fill: #85c1e9; fill-opacity: 0.6; stroke-width: 0; stroke: #000000; stroke-linecap: round; stroke-linejoin: round; stroke-opacity: 0;}.l51d0 {fill: #f39c12; fill-opacity: 1; stroke-width: 10; stroke: #f39c12; stroke-linecap: round; stroke-linejoin: round; stroke-opacity: 1;}.l32d0 {fill: #f7dc6f; fill-opacity: 0.6; stroke-width: 0; stroke: #000000; stroke-linecap: round; stroke-linejoin: round; stroke-opacity: 0;}path {fill-rule: evenodd;}</style></defs><g transform="scale(1 -1)"><g id="NW"><g class="l3d0"><path d="M 1380,1900 L 780,1900 L 0,1900 L 0,3540 L 780,3540 L 1380,3540 L 1560,3540 L 2160,3540 L 2340,3540 L 2940,3540 L 3460,3540 L 3460,1900 L 2940,1900 L 2340,1900 L 2160,1900 L 1560,1900 Z" /></g></g><g id="PP"><g class="l25d0"><path d="M 1730,0 L 1210,0 L 950,0 L 170,0 L 170,430 L 950,430 L 1210,430 L 1730,430 L 1990,430 L 2510,430 L 2770,430 L 3290,430 L 3290,0 L 2770,0 L 2510,0 L 1990,0 Z" /><path d="M 170,2940 L 325,2940 L 585,2940 L 795,2940 L 950,2940 L 1055,2940 L 1105,2940 L 1210,2940 L 1365,2940 L 1575,2940 L 1730,2940 L 1835,2940 L 1885,2940 L 1990,2940 L 2145,2940 L 2355,2940 L 2510,2940 L 2615,2940 L 2665,2940 L 2770,2940 L 3135,2940 L 3290,2940 L 3290,1685 L 2770,1685 L 2510,1685 L 1990,1685 L 1730,1685 L 1210,1685 L 950,1685 L 170,1685 Z" /></g></g><g id="NP"><g class="l26d0"><path d="M 1730,2940 L 1210,2940 L 950,2940 L 170,2940 L 170,3370 L 950,3370 L 1210,3370 L 1730,3370 L 1990,3370 L 2510,3370 L 2770,3370 L 3290,3370 L 3290,2940 L 2770,2940 L 2510,2940 L 1990,2940 Z" /><path d="M 170,1685 L 950,1685 L 1210,1685 L 1730,1685 L 1990,1685 L 2510,1685 L 2770,1685 L 3290,1685 L 3290,430 L 3135,430 L 2770,430 L 2665,430 L 2615,430 L 2510,430 L 2355,430 L 2145,430 L 1990,430 L 1885,430 L 1835,430 L 1730,430 L 1575,430 L 1365,430 L 1210,430 L 1105,430 L 1055,430 L 950,430 L 795,430 L 585,430 L 325,430 L 170,430 Z" /></g></g><g id="OD"><g class="l6d0"><path d="M 2640,130 L 1860,130 L 1080,130 L 300,130 L 300,300 L 1080,300 L 1860,300 L 2640,300 L 3160,300 L 3160,130 Z" /><path d="M 2640,3070 L 1860,3070 L 1080,3070 L 300,3070 L 300,3240 L 1080,3240 L 1860,3240 L 2640,3240 L 3160,3240 L 3160,3070 Z" /><path d="M 2275,2600 L 2350,2600 L 2410,2600 L 2485,2600 L 2570,2600 L 2570,2360 L 2485,2360 L 2410,2360 L 2350,2360 L 2275,2360 L 2225,2360 L 2150,2360 L 2090,2360 L 2015,2360 L 1930,2360 L 1930,2600 L 2015,2600 L 2090,2600 L 2150,2600 L 2225,2600 Z" /><path d="M 1495,2600 L 1570,2600 L 1630,2600 L 1705,2600 L 1790,2600 L 1790,2360 L 1705,2360 L 1630,2360 L 1570,2360 L 1495,2360 L 1445,2360 L 1370,2360 L 1310,2360 L 1235,2360 L 1150,2360 L 1150,2600 L 1235,2600 L 1310,2600 L 1370,2600 L 1445,2600 Z" /><path d="M 3090,2360 L 3055,2360 L 3005,2360 L 2930,2360 L 2870,2360 L 2795,2360 L 2710,2360 L 2710,2600 L 2795,2600 L 2870,2600 L 2930,2600 L 3005,2600 L 3055,2600 L 3090,2600 Z" /><path d="M 715,2600 L 790,2600 L 850,2600 L 925,2600 L 1010,2600 L 1010,2360 L 925,2360 L 850,2360 L 790,2360 L 715,2360 L 665,2360 L 590,2360 L 530,2360 L 455,2360 L 370,2360 L 370,2600 L 455,2600 L 530,2600 L 590,2600 L 665,2600 Z" /><path d="M 2695,770 L 2695,890 L 2795,890 L 2870,890 L 2930,890 L 3005,890 L 3055,890 L 3105,890 L 3145,890 L 3145,770 L 3105,770 L 3055,770 L 3005,770 L 2930,770 L 2870,770 L 2795,770 Z" /><path d="M 2585,770 L 2485,770 L 2410,770 L 2350,770 L 2275,770 L 2225,770 L 2150,770 L 2090,770 L 2015,770 L 1915,770 L 1915,890 L 2015,890 L 2090,890 L 2150,890 L 2225,890 L 2275,890 L 2350,890 L 2410,890 L 2485,890 L 2585,890 Z" /><path d="M 1135,890 L 1235,890 L 1310,890 L 1370,890 L 1445,890 L 1495,890 L 1570,890 L 1630,890 L 1705,890 L 1805,890 L 1805,770 L 1705,770 L 1630,770 L 1570,770 L 1495,770 L 1445,770 L 1370,770 L 1310,770 L 1235,770 L 1135,770 Z" /><path d="M 1025,770 L 925,770 L 850,770 L 790,770 L 715,770 L 665,770 L 590,770 L 530,770 L 455,770 L 355,770 L 355,890 L 455,890 L 530,890 L 590,890 L 665,890 L 715,890 L 790,890 L 850,890 L 925,890 L 1025,890 Z" /></g></g><g id="PO"><g class="l17d0"><path d="M 2870,2360 L 2870,2600 L 2870,2740 L 2930,2740 L 2930,2600 L 2930,2360 L 2930,2220 L 2929,2220 L 2929,1675 L 2955,1675 L 2955,1505 L 2929,1505 L 2929,1030 L 2930,1030 L 2930,890 L 2930,770 L 2930,630 L 2870,630 L 2870,770 L 2870,890 L 2870,1030 L 2870,1505 L 2845,1505 L 2845,1675 L 2870,1675 L 2870,2220 Z" /><path d="M 2350,2360 L 2350,2600 L 2350,2740 L 2410,2740 L 2410,2600 L 2410,2360 L 2410,2220 L 2409,2220 L 2409,1675 L 2435,1675 L 2435,1505 L 2409,1505 L 2409,1030 L 2410,1030 L 2410,890 L 2410,770 L 2410,630 L 2350,630 L 2350,770 L 2350,890 L 2350,1030 L 2350,1505 L 2325,1505 L 2325,1675 L 2350,1675 L 2350,2220 Z" /><path d="M 2090,2360 L 2090,2600 L 2090,2740 L 2150,2740 L 2150,2600 L 2150,2360 L 2150,2220 L 2150,1675 L 2175,1675 L 2175,1505 L 2150,1505 L 2150,1030 L 2150,890 L 2150,770 L 2150,630 L 2090,630 L 2090,770 L 2090,890 L 2090,1030 L 2090,1505 L 2065,1505 L 2065,1675 L 2090,1675 L 2090,2220 Z" /><path d="M 1570,2360 L 1570,2600 L 1570,2740 L 1630,2740 L 1630,2600 L 1630,2360 L 1630,2220 L 1630,1675 L 1655,1675 L 1655,1505 L 1630,1505 L 1630,1030 L 1630,890 L 1630,770 L 1630,630 L 1570,630 L 1570,770 L 1570,890 L 1570,1030 L 1570,1505 L 1545,1505 L 1545,1675 L 1570,1675 L 1570,2220 Z" /><path d="M 1310,2360 L 1310,2600 L 1310,2740 L 1370,2740 L 1370,2600 L 1370,2360 L 1370,2220 L 1370,1675 L 1395,1675 L 1395,1505 L 1370,1505 L 1370,1030 L 1370,890 L 1370,770 L 1370,630 L 1310,630 L 1310,770 L 1310,890 L 1310,1030 L 1310,1505 L 1285,1505 L 1285,1675 L 1310,1675 L 1310,2220 Z" /><path d="M 790,2360 L 790,2600 L 790,2740 L 850,2740 L 850,2600 L 850,2360 L 850,2220 L 850,1675 L 875,1675 L 875,1505 L 850,1505 L 850,1030 L 850,890 L 850,770 L 850,630 L 790,630 L 790,770 L 790,890 L 790,1030 L 790,1505 L 765,1505 L 765,1675 L 790,1675 L 790,2220 Z" /><path d="M 530,2360 L 530,2600 L 530,2740 L 590,2740 L 590,2600 L 590,2360 L 590,2220 L 590,1675 L 615,1675 L 615,1505 L 590,1505 L 590,1030 L 590,890 L 590,770 L 590,630 L 530,630 L 530,770 L 530,890 L 530,1030 L 530,1505 L 505,1505 L 505,1675 L 530,1675 L 530,2220 Z" /></g></g><g id="CO"><g class="l30d0"><path d="M 2985,785 L 3075,785 L 3075,875 L 2985,875 Z" /><path d="M 2725,785 L 2815,785 L 2815,875 L 2725,875 Z" /><path d="M 2985,2435 L 3075,2435 L 3075,2525 L 2985,2525 Z" /><path d="M 2725,2435 L 2815,2435 L 2815,2525 L 2725,2525 Z" /><path d="M 2985,170 L 3075,170 L 3075,260 L 2985,260 Z" /><path d="M 2725,170 L 2815,170 L 2815,260 L 2725,260 Z" /><path d="M 2985,3110 L 3075,3110 L 3075,3200 L 2985,3200 Z" /><path d="M 2725,3110 L 2815,3110 L 2815,3200 L 2725,3200 Z" /><path d="M 2465,785 L 2555,785 L 2555,875 L 2465,875 Z" /><path d="M 2205,785 L 2295,785 L 2295,875 L 2205,875 Z" /><path d="M 1945,785 L 2035,785 L 2035,875 L 1945,875 Z" /><path d="M 2465,2435 L 2555,2435 L 2555,2525 L 2465,2525 Z" /><path d="M 2205,2435 L 2295,2435 L 2295,2525 L 2205,2525 Z" /><path d="M 1945,2435 L 2035,2435 L 2035,2525 L 1945,2525 Z" /><path d="M 2465,170 L 2555,170 L 2555,260 L 2465,260 Z" /><path d="M 2205,170 L 2295,170 L 2295,260 L 2205,260 Z" /><path d="M 1945,170 L 2035,170 L 2035,260 L 1945,260 Z" /><path d="M 2465,3110 L 2555,3110 L 2555,3200 L 2465,3200 Z" /><path d="M 2205,3110 L 2295,3110 L 2295,3200 L 2205,3200 Z" /><path d="M 1945,3110 L 2035,3110 L 2035,3200 L 1945,3200 Z" /><path d="M 1685,785 L 1775,785 L 1775,875 L 1685,875 Z" /><path d="M 1425,785 L 1515,785 L 1515,875 L 1425,875 Z" /><path d="M 1165,785 L 1255,785 L 1255,875 L 1165,875 Z" /><path d="M 1685,2435 L 1775,2435 L 1775,2525 L 1685,2525 Z" /><path d="M 1425,2435 L 1515,2435 L 1515,2525 L 1425,2525 Z" /><path d="M 1165,2435 L 1255,2435 L 1255,2525 L 1165,2525 Z" /><path d="M 1685,170 L 1775,170 L 1775,260 L 1685,260 Z" /><path d="M 1425,170 L 1515,170 L 1515,260 L 1425,260 Z" /><path d="M 1165,170 L 1255,170 L 1255,260 L 1165,260 Z" /><path d="M 1685,3110 L 1775,3110 L 1775,3200 L 1685,3200 Z" /><path d="M 1425,3110 L 1515,3110 L 1515,3200 L 1425,3200 Z" /><path d="M 1165,3110 L 1255,3110 L 1255,3200 L 1165,3200 Z" /><path d="M 905,785 L 995,785 L 995,875 L 905,875 Z" /><path d="M 645,785 L 735,785 L 735,875 L 645,875 Z" /><path d="M 385,785 L 475,785 L 475,875 L 385,875 Z" /><path d="M 905,2435 L 995,2435 L 995,2525 L 905,2525 Z" /><path d="M 645,2435 L 735,2435 L 735,2525 L 645,2525 Z" /><path d="M 385,2435 L 475,2435 L 475,2525 L 385,2525 Z" /><path d="M 905,170 L 995,170 L 995,260 L 905,260 Z" /><path d="M 645,170 L 735,170 L 735,260 L 645,260 Z" /><path d="M 385,170 L 475,170 L 475,260 L 385,260 Z" /><path d="M 905,3110 L 995,3110 L 995,3200 L 905,3200 Z" /><path d="M 645,3110 L 735,3110 L 735,3200 L 645,3200 Z" /><path d="M 385,3110 L 475,3110 L 475,3200 L 385,3200 Z" /><path d="M 2855,1545 L 2945,1545 L 2945,1635 L 2855,1635 Z" /><path d="M 2335,1545 L 2425,1545 L 2425,1635 L 2335,1635 Z" /><path d="M 2075,1545 L 2165,1545 L 2165,1635 L 2075,1635 Z" /><path d="M 1555,1545 L 1645,1545 L 1645,1635 L 1555,1635 Z" /><path d="M 1295,1545 L 1385,1545 L 1385,1635 L 1295,1635 Z" /><path d="M 775,1545 L 865,1545 L 865,1635 L 775,1635 Z" /><path d="M 515,1545 L 605,1545 L 605,1635 L 515,1635 Z" /></g></g><g id="M1"><g class="l31d0"><path d="M 290,3250 L 1070,3250 L 1090,3250 L 1850,3250 L 1870,3250 L 2630,3250 L 2650,3250 L 3170,3250 L 3170,3060 L 3080,3060 L 3080,2530 L 3080,2395 L 2980,2395 L 2980,2530 L 2980,3060 L 2650,3060 L 2630,3060 L 2300,3060 L 2300,2530 L 2300,2395 L 2200,2395 L 2200,2530 L 2200,3060 L 1870,3060 L 1850,3060 L 1520,3060 L 1520,2530 L 1520,2395 L 1420,2395 L 1420,2530 L 1420,3060 L 1090,3060 L 1070,3060 L 740,3060 L 740,2530 L 740,2395 L 640,2395 L 640,2530 L 640,3060 L 290,3060 Z" /><path d="M 290,310 L 640,310 L 640,780 L 640,915 L 740,915 L 740,780 L 740,310 L 1070,310 L 1090,310 L 1420,310 L 1420,780 L 1420,915 L 1520,915 L 1520,780 L 1520,310 L 1850,310 L 1870,310 L 2200,310 L 2200,780 L 2200,915 L 2300,915 L 2300,780 L 2300,310 L 2630,310 L 2650,310 L 2980,310 L 2980,780 L 2980,915 L 3080,915 L 3080,780 L 3080,310 L 3170,310 L 3170,120 L 2650,120 L 2630,120 L 1870,120 L 1850,120 L 1090,120 L 1070,120 L 290,120 Z" /><path d="M 2900,1540 L 2815,1540 L 2465,1540 L 2380,1540 L 2295,1540 L 2205,1540 L 2120,1540 L 2035,1540 L 1685,1540 L 1600,1540 L 1515,1540 L 1425,1540 L 1340,1540 L 1255,1540 L 905,1540 L 820,1540 L 735,1540 L 645,1540 L 560,1540 L 475,1540 L 475,1640 L 560,1640 L 645,1640 L 735,1640 L 820,1640 L 905,1640 L 1255,1640 L 1340,1640 L 1425,1640 L 1515,1640 L 1600,1640 L 1685,1640 L 2035,1640 L 2120,1640 L 2205,1640 L 2295,1640 L 2380,1640 L 2465,1640 L 2815,1640 L 2900,1640 L 2985,1640 L 2985,1540 Z" /><path d="M 2720,2390 L 2720,2570 L 2720,2810 L 2820,2810 L 2820,2570 L 2820,2390 Z" /><path d="M 2820,500 L 2720,500 L 2720,740 L 2720,920 L 2820,920 L 2820,740 Z" /><path d="M 2460,2390 L 2460,2570 L 2460,2810 L 2560,2810 L 2560,2570 L 2560,2390 Z" /><path d="M 1940,2390 L 1940,2570 L 1940,2810 L 2040,2810 L 2040,2570 L 2040,2390 Z" /><path d="M 2560,500 L 2460,500 L 2460,740 L 2460,920 L 2560,920 L 2560,740 Z" /><path d="M 2040,500 L 1940,500 L 1940,740 L 1940,920 L 2040,920 L 2040,740 Z" /><path d="M 1680,2390 L 1680,2570 L 1680,2810 L 1780,2810 L 1780,2570 L 1780,2390 Z" /><path d="M 1160,2390 L 1160,2570 L 1160,2810 L 1260,2810 L 1260,2570 L 1260,2390 Z" /><path d="M 1780,500 L 1680,500 L 1680,740 L 1680,920 L 1780,920 L 1780,740 Z" /><path d="M 1260,500 L 1160,500 L 1160,740 L 1160,920 L 1260,920 L 1260,740 Z" /><path d="M 480,500 L 380,500 L 380,740 L 380,920 L 480,920 L 480,740 Z" /><path d="M 1000,500 L 900,500 L 900,740 L 900,920 L 1000,920 L 1000,740 Z" /><path d="M 900,2390 L 900,2570 L 900,2810 L 1000,2810 L 1000,2570 L 1000,2390 Z" /><path d="M 380,2390 L 380,2570 L 380,2810 L 480,2810 L 480,2570 L 480,2390 Z" /></g></g><g id="VIA1"><g class="l51d0"><path d="M 2720,2430 L 2820,2430 L 2820,2530 L 2720,2530 Z" /><path d="M 2720,880 L 2820,880 L 2820,780 L 2720,780 Z" /><path d="M 2460,2430 L 2560,2430 L 2560,2530 L 2460,2530 Z" /><path d="M 1940,2430 L 2040,2430 L 2040,2530 L 1940,2530 Z" /><path d="M 2460,880 L 2560,880 L 2560,780 L 2460,780 Z" /><path d="M 1940,880 L 2040,880 L 2040,780 L 1940,780 Z" /><path d="M 1680,2430 L 1780,2430 L 1780,2530 L 1680,2530 Z" /><path d="M 1160,2430 L 1260,2430 L 1260,2530 L 1160,2530 Z" /><path d="M 1680,880 L 1780,880 L 1780,780 L 1680,780 Z" /><path d="M 1160,880 L 1260,880 L 1260,780 L 1160,780 Z" /><path d="M 380,880 L 480,880 L 480,780 L 380,780 Z" /><path d="M 900,880 L 1000,880 L 1000,780 L 900,780 Z" /><path d="M 900,2430 L 1000,2430 L 1000,2530 L 900,2530 Z" /><path d="M 380,2430 L 480,2430 L 480,2530 L 380,2530 Z" /></g></g><g id="M2"><g class="l32d0"><path d="M 2720,920 L 2720,2390 L 2720,2480 L 2720,2570 L 2820,2570 L 2820,2480 L 2820,2390 L 2820,920 L 2820,830 L 2820,740 L 2720,740 L 2720,830 Z" /><path d="M 2560,920 L 2560,830 L 2560,740 L 2460,740 L 2460,830 L 2460,920 L 2460,2390 L 2460,2480 L 2460,2570 L 2560,2570 L 2560,2480 L 2560,2390 Z" /><path d="M 1940,920 L 1940,2390 L 1940,2480 L 1940,2570 L 2040,2570 L 2040,2480 L 2040,2390 L 2040,920 L 2040,830 L 2040,740 L 1940,740 L 1940,830 Z" /><path d="M 1780,920 L 1780,830 L 1780,740 L 1680,740 L 1680,830 L 1680,920 L 1680,2390 L 1680,2480 L 1680,2570 L 1780,2570 L 1780,2480 L 1780,2390 Z" /><path d="M 1160,920 L 1160,2390 L 1160,2480 L 1160,2570 L 1260,2570 L 1260,2480 L 1260,2390 L 1260,920 L 1260,830 L 1260,740 L 1160,740 L 1160,830 Z" /><path d="M 1000,2390 L 1000,920 L 1000,830 L 1000,740 L 900,740 L 900,830 L 900,920 L 900,2390 L 900,2480 L 900,2570 L 1000,2570 L 1000,2480 Z" /><path d="M 380,2390 L 380,2480 L 380,2570 L 480,2570 L 480,2480 L 480,2390 L 480,920 L 480,830 L 480,740 L 380,740 L 380,830 L 380,920 Z" /></g></g></g></svg>