<svg width="8670" height="3550" viewBox="-5 -3545 8670 3550" xmlns="http://www.w3.org/2000/svg" xmlns:xlink="http://www.w3.org/1999/xlink"><defs><style type="text/css">.l3d0 {fill: #fef9e7; fill-opacity: 0.5; stroke-width: 10; stroke: #f1c40f; stroke-linecap: round; stroke-linejoin: round; stroke-opacity: 0.2;}.l25d0 {fill: #8e44ad; fill-opacity: 0.05; stroke-width: 10; stroke: #8e44ad; stroke-linecap: round; stroke-linejoin: round; stroke-opacity: 1;}.l26d0 {fill: #ccd1d1; fill-opacity: 0.05; stroke-width: 10; stroke: #ccd1d1; stroke-linecap: round; stroke-linejoin: round; stroke-opacity: 1;}.l6d0 {fill: #f5b7b1; fill-opacity: 1; stroke-width: 10; stroke: #e74c3c; stroke-linecap: round; stroke-linejoin: round; stroke-opacity: 1;}.l17d0 {fill: #2980b9; fill-opacity: 1; stroke-width: 0; stroke: #000000; stroke-linecap: round; stroke-linejoin: round; stroke-opacity: 0;}.l30d0 {fill: #27ae60; fill-opacity: 1; stroke-width: 0; stroke: #000000; stroke-linecap: round; stroke-linejoin: round; stroke-opacity: 0;}.l31d0 {fill: #85c1e9; fill-opacity: 0.6; stroke-width: 0; stroke: #000000; stroke-linecap: round; stroke-linejoin: round; stroke-opacity: 0;}.l51d0 {fill: #f39c12; fill-opacity: 1; stroke-width: 10; stroke: #f39c12; stroke-linecap: round; stroke-linejoin: round; stroke-opacity: 1;}.l32d0 {fill: #f7dc6f; fill-opacity: 0.6; stroke-width: 0; stroke: #000000; stroke-linecap: round; stroke-linejoin: round; stroke-opacity: 0;}.l52d0 {fill: #a04000; fill-opacity: 1; stroke-width: 10; stroke: #a04000; stroke-linecap: round; stroke-linejoin: round; stroke-opacity: 1;}.l33d0 {fill: #16a085; fill-opacity: 0.6; stroke-width: 0; stroke: #000000; stroke-linecap: round; stroke-linejoin: round; stroke-opacity: 0;}path {fill-rule: evenodd;}</style></defs><g transform="scale(1 -1)"><g id="NW"><g class="l3d0"><path d="M 0,3540 L 8660,3540 L 8660,1900 L 0,1900 Z" /></g></g><g id="PP"><g class="l25d0"><path d="M 170,0 L 8490,0 L 8490,430 L 170,430 Z" /><path d="M 325,2940 L 585,2940 L 795,2940 L 845,2940 L 1055,2940 L 1105,2940 L 1315,2940 L 1365,2940 L 1575,2940 L 1625,2940 L 1835,2940 L 2095,2940 L 2145,2940 L 2405,2940 L 2615,2940 L 2665,2940 L 2875,2940 L 2925,2940 L 3135,2940 L 3185,2940 L 3395,2940 L 3445,2940 L 3655,2940 L 3915,2940 L 3965,2940 L 4225,2940 L 4435,2940 L 4695,2940 L 4745,2940 L 5005,2940 L 5215,2940 L 5265,2940 L 5475,2940 L 5525,2940 L 5735,2940 L 5785,2940 L 5995,2940 L 6045,2940 L 6255,2940 L 6515,2940 L 6565,2940 L 6825,2940 L 7035,2940 L 7085,2940 L 7295,2940 L 7345,2940 L 7555,2940 L 7605,2940 L 7815,2940 L 7865,2940 L 8075,2940 L 8335,2940 L 8490,2940 L 8490,1685 L 170,1685 L 170,2940 Z" /></g></g><g id="NP"><g class="l26d0"><path d="M 170,2940 L 8490,2940 L 8490,3370 L 170,3370 Z" /><path d="M 8335,430 L 8075,430 L 7865,430 L 7815,430 L 7605,430 L 7555,430 L 7345,430 L 7295,430 L 7085,430 L 7035,430 L 6825,430 L 6565,430 L 6515,430 L 6255,430 L 6045,430 L 5995,430 L 5785,430 L 5735,430 L 5525,430 L 5475,430 L 5265,430 L 5215,430 L 5005,430 L 4745,430 L 4695,430 L 4435,430 L 4225,430 L 3965,430 L 3915,430 L 3655,430 L 3445,430 L 3395,430 L 3185,430 L 3135,430 L 2925,430 L 2875,430 L 2665,430 L 2615,430 L 2405,430 L 2145,430 L 2095,430 L 1835,430 L 1625,430 L 1575,430 L 1365,430 L 1315,430 L 1105,430 L 1055,430 L 845,430 L 795,430 L 585,430 L 325,430 L 170,430 L 170,1685 L 8490,1685 L 8490,430 Z" /></g></g><g id="OD"><g class="l6d0"><path d="M 300,3070 L 8360,3070 L 8360,3240 L 300,3240 Z" /><path d="M 300,130 L 8360,130 L 8360,300 L 300,300 Z" /><path d="M 3995,770 L 4094,770 L 4094,890 L 3995,890 Z" /><path d="M 3995,2480 L 4094,2480 L 4094,2600 L 3995,2600 Z" /><path d="M 4665,770 L 4565,770 L 4490,770 L 4430,770 L 4355,770 L 4305,770 L 4230,770 L 4170,770 L 4095,770 L 4095,890 L 4170,890 L 4230,890 L 4305,890 L 4355,890 L 4430,890 L 4490,890 L 4565,890 L 4665,890 Z" /><path d="M 4950,890 L 5010,890 L 5085,890 L 5135,890 L 5210,890 L 5270,890 L 5345,890 L 5395,890 L 5470,890 L 5530,890 L 5605,890 L 5655,890 L 5730,890 L 5790,890 L 5865,890 L 5915,890 L 5990,890 L 6050,890 L 6125,890 L 6175,890 L 6250,890 L 6310,890 L 6385,890 L 6485,890 L 6485,770 L 6385,770 L 6310,770 L 6250,770 L 6175,770 L 6125,770 L 6050,770 L 5990,770 L 5915,770 L 5865,770 L 5790,770 L 5730,770 L 5655,770 L 5605,770 L 5530,770 L 5470,770 L 5395,770 L 5345,770 L 5270,770 L 5210,770 L 5135,770 L 5085,770 L 5010,770 L 4950,770 L 4875,770 L 4775,770 L 4775,890 L 4875,890 Z" /><path d="M 6770,890 L 6830,890 L 6905,890 L 6955,890 L 7030,890 L 7090,890 L 7165,890 L 7215,890 L 7290,890 L 7350,890 L 7425,890 L 7475,890 L 7550,890 L 7610,890 L 7685,890 L 7735,890 L 7810,890 L 7870,890 L 7945,890 L 7995,890 L 8070,890 L 8130,890 L 8205,890 L 8305,890 L 8305,770 L 8205,770 L 8130,770 L 8070,770 L 7995,770 L 7945,770 L 7870,770 L 7810,770 L 7735,770 L 7685,770 L 7610,770 L 7550,770 L 7475,770 L 7425,770 L 7350,770 L 7290,770 L 7215,770 L 7165,770 L 7090,770 L 7030,770 L 6955,770 L 6905,770 L 6830,770 L 6770,770 L 6695,770 L 6595,770 L 6595,890 L 6695,890 Z" /><path d="M 3710,890 L 3785,890 L 3885,890 L 3885,770 L 3785,770 L 3710,770 L 3650,770 L 3575,770 L 3525,770 L 3450,770 L 3390,770 L 3315,770 L 3265,770 L 3190,770 L 3130,770 L 3055,770 L 3005,770 L 2930,770 L 2870,770 L 2795,770 L 2745,770 L 2670,770 L 2610,770 L 2535,770 L 2485,770 L 2410,770 L 2350,770 L 2275,770 L 2175,770 L 2175,890 L 2275,890 L 2350,890 L 2410,890 L 2485,890 L 2535,890 L 2610,890 L 2670,890 L 2745,890 L 2795,890 L 2870,890 L 2930,890 L 3005,890 L 3055,890 L 3130,890 L 3190,890 L 3265,890 L 3315,890 L 3390,890 L 3450,890 L 3525,890 L 3575,890 L 3650,890 Z" /><path d="M 1890,890 L 1965,890 L 2065,890 L 2065,770 L 1965,770 L 1890,770 L 1830,770 L 1755,770 L 1705,770 L 1630,770 L 1570,770 L 1495,770 L 1445,770 L 1370,770 L 1310,770 L 1235,770 L 1185,770 L 1110,770 L 1050,770 L 975,770 L 925,770 L 850,770 L 790,770 L 715,770 L 665,770 L 590,770 L 530,770 L 455,770 L 355,770 L 355,890 L 455,890 L 530,890 L 590,890 L 665,890 L 715,890 L 790,890 L 850,890 L 925,890 L 975,890 L 1050,890 L 1110,890 L 1185,890 L 1235,890 L 1310,890 L 1370,890 L 1445,890 L 1495,890 L 1570,890 L 1630,890 L 1705,890 L 1755,890 L 1830,890 Z" /><path d="M 4665,2480 L 4565,2480 L 4490,2480 L 4430,2480 L 4355,2480 L 4305,2480 L 4230,2480 L 4170,2480 L 4095,2480 L 4095,2600 L 4170,2600 L 4230,2600 L 4305,2600 L 4355,2600 L 4430,2600 L 4490,2600 L 4565,2600 L 4665,2600 Z" /><path d="M 5470,2600 L 5530,2600 L 5605,2600 L 5655,2600 L 5730,2600 L 5790,2600 L 5865,2600 L 5915,2600 L 5990,2600 L 6050,2600 L 6125,2600 L 6175,2600 L 6250,2600 L 6310,2600 L 6385,2600 L 6485,2600 L 6485,2480 L 6385,2480 L 6310,2480 L 6250,2480 L 6175,2480 L 6125,2480 L 6050,2480 L 5990,2480 L 5915,2480 L 5865,2480 L 5790,2480 L 5730,2480 L 5655,2480 L 5605,2480 L 5530,2480 L 5470,2480 L 5395,2480 L 5345,2480 L 5270,2480 L 5210,2480 L 5135,2480 L 5085,2480 L 5010,2480 L 4950,2480 L 4875,2480 L 4775,2480 L 4775,2600 L 4875,2600 L 4950,2600 L 5010,2600 L 5085,2600 L 5135,2600 L 5210,2600 L 5270,2600 L 5345,2600 L 5395,2600 Z" /><path d="M 7290,2600 L 7350,2600 L 7425,2600 L 7475,2600 L 7550,2600 L 7610,2600 L 7685,2600 L 7735,2600 L 7810,2600 L 7870,2600 L 7945,2600 L 7995,2600 L 8070,2600 L 8130,2600 L 8205,2600 L 8305,2600 L 8305,2480 L 8205,2480 L 8130,2480 L 8070,2480 L 7995,2480 L 7945,2480 L 7870,2480 L 7810,2480 L 7735,2480 L 7685,2480 L 7610,2480 L 7550,2480 L 7475,2480 L 7425,2480 L 7350,2480 L 7290,2480 L 7215,2480 L 7165,2480 L 7090,2480 L 7030,2480 L 6955,2480 L 6905,2480 L 6830,2480 L 6770,2480 L 6695,2480 L 6595,2480 L 6595,2600 L 6695,2600 L 6770,2600 L 6830,2600 L 6905,2600 L 6955,2600 L 7030,2600 L 7090,2600 L 7165,2600 L 7215,2600 Z" /><path d="M 3190,2600 L 3265,2600 L 3315,2600 L 3390,2600 L 3450,2600 L 3525,2600 L 3575,2600 L 3650,2600 L 3710,2600 L 3785,2600 L 3885,2600 L 3885,2480 L 3785,2480 L 3710,2480 L 3650,2480 L 3575,2480 L 3525,2480 L 3450,2480 L 3390,2480 L 3315,2480 L 3265,2480 L 3190,2480 L 3130,2480 L 3055,2480 L 3005,2480 L 2930,2480 L 2870,2480 L 2795,2480 L 2745,2480 L 2670,2480 L 2610,2480 L 2535,2480 L 2485,2480 L 2410,2480 L 2350,2480 L 2275,2480 L 2175,2480 L 2175,2600 L 2275,2600 L 2350,2600 L 2410,2600 L 2485,2600 L 2535,2600 L 2610,2600 L 2670,2600 L 2745,2600 L 2795,2600 L 2870,2600 L 2930,2600 L 3005,2600 L 3055,2600 L 3130,2600 Z" /><path d="M 1370,2600 L 1445,2600 L 1495,2600 L 1570,2600 L 1630,2600 L 1705,2600 L 1755,2600 L 1830,2600 L 1890,2600 L 1965,2600 L 2065,2600 L 2065,2480 L 1965,2480 L 1890,2480 L 1830,2480 L 1755,2480 L 1705,2480 L 1630,2480 L 1570,2480 L 1495,2480 L 1445,2480 L 1370,2480 L 1310,2480 L 1235,2480 L 1185,2480 L 1110,2480 L 1050,2480 L 975,2480 L 925,2480 L 850,2480 L 790,2480 L 715,2480 L 665,2480 L 590,2480 L 530,2480 L 455,2480 L 355,2480 L 355,2600 L 455,2600 L 530,2600 L 590,2600 L 665,2600 L 715,2600 L 790,2600 L 850,2600 L 925,2600 L 975,2600 L 1050,2600 L 1110,2600 L 1185,2600 L 1235,2600 L 1310,2600 Z" /></g></g><g id="PO"><g class="l17d0"><path d="M 1630,1030 L 1630,890 L 1630,770 L 1630,630 L 1570,630 L 1570,770 L 1570,890 L 1570,1030 L 1570,1120 L 1545,1120 L 1545,1290 L 1655,1290 L 1655,1120 L 1630,1120 Z" /><path d="M 1890,890 L 1890,770 L 1890,630 L 1830,630 L 1830,770 L 1830,890 L 1830,1030 L 1830,1310 L 1805,1310 L 1805,1480 L 1830,1480 L 1830,2340 L 1830,2480 L 1830,2600 L 1830,2740 L 1890,2740 L 1890,2600 L 1890,2480 L 1890,2340 L 1890,1480 L 1915,1480 L 1915,1310 L 1890,1310 L 1890,1030 Z" /><path d="M 3449,1030 L 3450,1030 L 3450,890 L 3450,770 L 3450,630 L 3390,630 L 3390,770 L 3390,890 L 3390,1030 L 3390,1120 L 3365,1120 L 3365,1290 L 3475,1290 L 3475,1120 L 3449,1120 Z" /><path d="M 3710,890 L 3710,770 L 3710,630 L 3650,630 L 3650,770 L 3650,890 L 3650,1030 L 3650,1310 L 3625,1310 L 3625,1480 L 3650,1480 L 3650,2340 L 3650,2480 L 3650,2600 L 3650,2740 L 3710,2740 L 3710,2600 L 3710,2480 L 3710,2340 L 3710,1480 L 3735,1480 L 3735,1310 L 3710,1310 L 3710,1030 Z" /><path d="M 6050,1030 L 6050,890 L 6050,770 L 6050,630 L 5990,630 L 5990,770 L 5990,890 L 5990,1030 L 5990,1120 L 5965,1120 L 5965,1290 L 6075,1290 L 6075,1120 L 6050,1120 Z" /><path d="M 6310,890 L 6310,770 L 6310,630 L 6250,630 L 6250,770 L 6250,890 L 6250,1030 L 6250,1310 L 6225,1310 L 6225,1480 L 6250,1480 L 6250,2340 L 6250,2480 L 6250,2600 L 6250,2740 L 6310,2740 L 6310,2600 L 6310,2480 L 6310,2340 L 6310,1480 L 6335,1480 L 6335,1310 L 6310,1310 L 6310,1030 Z" /><path d="M 7870,1030 L 7870,890 L 7870,770 L 7870,630 L 7810,630 L 7810,770 L 7810,890 L 7810,1030 L 7810,1120 L 7785,1120 L 7785,1290 L 7895,1290 L 7895,1120 L 7870,1120 Z" /><path d="M 8130,1030 L 8130,890 L 8130,770 L 8130,630 L 8070,630 L 8070,770 L 8070,890 L 8070,1030 L 8070,1310 L 8045,1310 L 8045,1480 L 8070,1480 L 8070,2340 L 8070,2480 L 8070,2600 L 8070,2740 L 8130,2740 L 8130,2600 L 8130,2480 L 8130,2340 L 8129,2340 L 8129,1480 L 8155,1480 L 8155,1310 L 8129,1310 L 8129,1030 Z" /><path d="M 7090,1030 L 7090,890 L 7090,770 L 7090,630 L 7030,630 L 7030,770 L 7030,890 L 7030,1030 L 7030,1120 L 7005,1120 L 7005,1290 L 7115,1290 L 7115,1120 L 7090,1120 Z" /><path d="M 6830,890 L 6830,770 L 6830,630 L 6770,630 L 6770,770 L 6770,890 L 6770,1030 L 6770,1310 L 6745,1310 L 6745,1480 L 6770,1480 L 6770,2340 L 6770,2480 L 6770,2600 L 6770,2740 L 6830,2740 L 6830,2600 L 6830,2480 L 6830,2340 L 6830,1480 L 6855,1480 L 6855,1310 L 6830,1310 L 6830,1030 Z" /><path d="M 5270,1030 L 5270,890 L 5270,770 L 5270,630 L 5210,630 L 5210,770 L 5210,890 L 5210,1030 L 5210,1120 L 5185,1120 L 5185,1290 L 5295,1290 L 5295,1120 L 5270,1120 Z" /><path d="M 5010,890 L 5010,770 L 5010,630 L 4950,630 L 4950,770 L 4950,890 L 4950,1030 L 4950,1310 L 4925,1310 L 4925,1480 L 4950,1480 L 4950,2340 L 4950,2480 L 4950,2600 L 4950,2740 L 5010,2740 L 5010,2600 L 5010,2480 L 5010,2340 L 5010,1480 L 5035,1480 L 5035,1310 L 5010,1310 L 5010,1030 Z" /><path d="M 2670,1030 L 2670,890 L 2670,770 L 2670,630 L 2610,630 L 2610,770 L 2610,890 L 2610,1030 L 2610,1120 L 2585,1120 L 2585,1290 L 2695,1290 L 2695,1120 L 2670,1120 Z" /><path d="M 2410,1030 L 2410,890 L 2410,770 L 2410,630 L 2350,630 L 2350,770 L 2350,890 L 2350,1030 L 2350,1310 L 2325,1310 L 2325,1480 L 2350,1480 L 2350,2340 L 2350,2480 L 2350,2600 L 2350,2740 L 2410,2740 L 2410,2600 L 2410,2480 L 2410,2340 L 2409,2340 L 2409,1480 L 2435,1480 L 2435,1310 L 2409,1310 L 2409,1030 Z" /><path d="M 590,890 L 590,770 L 590,630 L 530,630 L 530,770 L 530,890 L 530,1030 L 530,1310 L 505,1310 L 505,1480 L 530,1480 L 530,2340 L 530,2480 L 530,2600 L 530,2740 L 590,2740 L 590,2600 L 590,2480 L 590,2340 L 590,1480 L 615,1480 L 615,1310 L 590,1310 L 590,1030 Z" /><path d="M 850,1030 L 850,890 L 850,770 L 850,630 L 790,630 L 790,770 L 790,890 L 790,1030 L 790,1120 L 765,1120 L 765,1290 L 875,1290 L 875,1120 L 850,1120 Z" /><path d="M 790,2340 L 790,2480 L 790,2600 L 790,2740 L 850,2740 L 850,2600 L 850,2480 L 850,2340 L 850,2245 L 875,2245 L 875,2075 L 765,2075 L 765,2245 L 790,2245 Z" /><path d="M 1570,2340 L 1570,2480 L 1570,2600 L 1570,2740 L 1630,2740 L 1630,2600 L 1630,2480 L 1630,2340 L 1630,2055 L 1655,2055 L 1655,1885 L 1545,1885 L 1545,2055 L 1570,2055 Z" /><path d="M 2610,2340 L 2610,2480 L 2610,2600 L 2610,2740 L 2670,2740 L 2670,2600 L 2670,2480 L 2670,2340 L 2670,2245 L 2695,2245 L 2695,2075 L 2585,2075 L 2585,2245 L 2610,2245 Z" /><path d="M 3390,2340 L 3390,2480 L 3390,2600 L 3390,2740 L 3450,2740 L 3450,2600 L 3450,2480 L 3450,2340 L 3449,2340 L 3449,2245 L 3475,2245 L 3475,2075 L 3365,2075 L 3365,2245 L 3390,2245 Z" /><path d="M 5210,2340 L 5210,2480 L 5210,2600 L 5210,2740 L 5270,2740 L 5270,2600 L 5270,2480 L 5270,2340 L 5270,2245 L 5295,2245 L 5295,2075 L 5185,2075 L 5185,2245 L 5210,2245 Z" /><path d="M 5990,2340 L 5990,2480 L 5990,2600 L 5990,2740 L 6050,2740 L 6050,2600 L 6050,2480 L 6050,2340 L 6050,2245 L 6075,2245 L 6075,2075 L 5965,2075 L 5965,2245 L 5990,2245 Z" /><path d="M 7030,2340 L 7030,2480 L 7030,2600 L 7030,2740 L 7090,2740 L 7090,2600 L 7090,2480 L 7090,2340 L 7090,2055 L 7115,2055 L 7115,1885 L 7005,1885 L 7005,2055 L 7030,2055 Z" /><path d="M 7810,2340 L 7810,2480 L 7810,2600 L 7810,2740 L 7870,2740 L 7870,2600 L 7870,2480 L 7870,2340 L 7870,2245 L 7895,2245 L 7895,2075 L 7785,2075 L 7785,2245 L 7810,2245 Z" /><path d="M 4430,2480 L 4430,2600 L 4430,2740 L 4490,2740 L 4490,2600 L 4490,2480 L 4490,2340 L 4490,1485 L 4515,1485 L 4515,1315 L 4490,1315 L 4490,1030 L 4490,890 L 4490,770 L 4490,630 L 4430,630 L 4430,770 L 4430,890 L 4430,1030 L 4430,1315 L 4405,1315 L 4405,1485 L 4430,1485 L 4430,2340 Z" /><path d="M 4230,890 L 4230,770 L 4230,630 L 4170,630 L 4170,770 L 4170,890 L 4170,1030 L 4170,1885 L 4145,1885 L 4145,2055 L 4170,2055 L 4170,2340 L 4170,2480 L 4170,2600 L 4170,2740 L 4230,2740 L 4230,2600 L 4230,2480 L 4230,2340 L 4230,2055 L 4255,2055 L 4255,1885 L 4230,1885 L 4230,1030 Z" /><path d="M 3190,890 L 3190,770 L 3190,630 L 3130,630 L 3130,770 L 3130,890 L 3130,1030 L 3130,1695 L 3105,1695 L 3105,1865 L 3130,1865 L 3130,2340 L 3130,2480 L 3130,2600 L 3130,2740 L 3190,2740 L 3190,2600 L 3190,2480 L 3190,2340 L 3190,1865 L 3215,1865 L 3215,1695 L 3190,1695 L 3190,1030 Z" /><path d="M 2870,2480 L 2870,2600 L 2870,2740 L 2930,2740 L 2930,2600 L 2930,2480 L 2930,2340 L 2929,2340 L 2929,1865 L 2955,1865 L 2955,1695 L 2929,1695 L 2929,1030 L 2930,1030 L 2930,890 L 2930,770 L 2930,630 L 2870,630 L 2870,770 L 2870,890 L 2870,1030 L 2870,1695 L 2845,1695 L 2845,1865 L 2870,1865 L 2870,2340 Z" /><path d="M 1310,2480 L 1310,2600 L 1310,2740 L 1370,2740 L 1370,2600 L 1370,2480 L 1370,2340 L 1370,1865 L 1395,1865 L 1395,1695 L 1370,1695 L 1370,1030 L 1370,890 L 1370,770 L 1370,630 L 1310,630 L 1310,770 L 1310,890 L 1310,1030 L 1310,1695 L 1285,1695 L 1285,1865 L 1310,1865 L 1310,2340 Z" /><path d="M 1110,890 L 1110,770 L 1110,630 L 1050,630 L 1050,770 L 1050,890 L 1050,1030 L 1050,1695 L 1025,1695 L 1025,1865 L 1050,1865 L 1050,2340 L 1050,2480 L 1050,2600 L 1050,2740 L 1110,2740 L 1110,2600 L 1110,2480 L 1110,2340 L 1110,1865 L 1135,1865 L 1135,1695 L 1110,1695 L 1110,1030 Z" /><path d="M 5530,890 L 5530,770 L 5530,630 L 5470,630 L 5470,770 L 5470,890 L 5470,1030 L 5470,1505 L 5445,1505 L 5445,1675 L 5470,1675 L 5470,2340 L 5470,2480 L 5470,2600 L 5470,2740 L 5530,2740 L 5530,2600 L 5530,2480 L 5530,2340 L 5530,1675 L 5555,1675 L 5555,1505 L 5530,1505 L 5530,1030 Z" /><path d="M 5730,2340 L 5730,2480 L 5730,2600 L 5730,2740 L 5790,2740 L 5790,2600 L 5790,2480 L 5790,2340 L 5790,1675 L 5815,1675 L 5815,1505 L 5790,1505 L 5790,1030 L 5790,890 L 5790,770 L 5790,630 L 5730,630 L 5730,770 L 5730,890 L 5730,1030 L 5729,1030 L 5729,1505 L 5705,1505 L 5705,1675 L 5729,1675 L 5729,2340 Z" /><path d="M 7290,2480 L 7290,2600 L 7290,2740 L 7350,2740 L 7350,2600 L 7350,2480 L 7350,2340 L 7350,1675 L 7375,1675 L 7375,1505 L 7350,1505 L 7350,1030 L 7350,890 L 7350,770 L 7350,630 L 7290,630 L 7290,770 L 7290,890 L 7290,1030 L 7290,1505 L 7265,1505 L 7265,1675 L 7290,1675 L 7290,2340 Z" /><path d="M 7610,890 L 7610,770 L 7610,630 L 7550,630 L 7550,770 L 7550,890 L 7550,1030 L 7550,1505 L 7525,1505 L 7525,1675 L 7550,1675 L 7550,2340 L 7550,2480 L 7550,2600 L 7550,2740 L 7610,2740 L 7610,2600 L 7610,2480 L 7610,2340 L 7610,1675 L 7635,1675 L 7635,1505 L 7610,1505 L 7610,1030 Z" /></g></g><g id="CO"><g class="l30d0"><path d="M 5845,170 L 5935,170 L 5935,260 L 5845,260 Z" /><path d="M 5585,170 L 5675,170 L 5675,260 L 5585,260 Z" /><path d="M 5325,170 L 5415,170 L 5415,260 L 5325,260 Z" /><path d="M 5065,170 L 5155,170 L 5155,260 L 5065,260 Z" /><path d="M 4805,170 L 4895,170 L 4895,260 L 4805,260 Z" /><path d="M 4545,170 L 4635,170 L 4635,260 L 4545,260 Z" /><path d="M 4285,170 L 4375,170 L 4375,260 L 4285,260 Z" /><path d="M 4025,170 L 4115,170 L 4115,260 L 4025,260 Z" /><path d="M 3765,170 L 3855,170 L 3855,260 L 3765,260 Z" /><path d="M 3505,170 L 3595,170 L 3595,260 L 3505,260 Z" /><path d="M 3245,170 L 3335,170 L 3335,260 L 3245,260 Z" /><path d="M 2985,170 L 3075,170 L 3075,260 L 2985,260 Z" /><path d="M 2725,170 L 2815,170 L 2815,260 L 2725,260 Z" /><path d="M 2465,170 L 2555,170 L 2555,260 L 2465,260 Z" /><path d="M 2205,170 L 2295,170 L 2295,260 L 2205,260 Z" /><path d="M 1945,170 L 2035,170 L 2035,260 L 1945,260 Z" /><path d="M 1685,170 L 1775,170 L 1775,260 L 1685,260 Z" /><path d="M 1425,170 L 1515,170 L 1515,260 L 1425,260 Z" /><path d="M 1165,170 L 1255,170 L 1255,260 L 1165,260 Z" /><path d="M 905,170 L 995,170 L 995,260 L 905,260 Z" /><path d="M 645,170 L 735,170 L 735,260 L 645,260 Z" /><path d="M 385,170 L 475,170 L 475,260 L 385,260 Z" /><path d="M 8185,170 L 8275,170 L 8275,260 L 8185,260 Z" /><path d="M 7925,170 L 8015,170 L 8015,260 L 7925,260 Z" /><path d="M 7665,170 L 7755,170 L 7755,260 L 7665,260 Z" /><path d="M 7405,170 L 7495,170 L 7495,260 L 7405,260 Z" /><path d="M 7145,170 L 7235,170 L 7235,260 L 7145,260 Z" /><path d="M 6885,170 L 6975,170 L 6975,260 L 6885,260 Z" /><path d="M 6625,170 L 6715,170 L 6715,260 L 6625,260 Z" /><path d="M 6365,170 L 6455,170 L 6455,260 L 6365,260 Z" /><path d="M 6105,170 L 6195,170 L 6195,260 L 6105,260 Z" /><path d="M 385,3110 L 475,3110 L 475,3200 L 385,3200 Z" /><path d="M 645,3110 L 735,3110 L 735,3200 L 645,3200 Z" /><path d="M 905,3110 L 995,3110 L 995,3200 L 905,3200 Z" /><path d="M 1165,3110 L 1255,3110 L 1255,3200 L 1165,3200 Z" /><path d="M 1425,3110 L 1515,3110 L 1515,3200 L 1425,3200 Z" /><path d="M 1685,3110 L 1775,3110 L 1775,3200 L 1685,3200 Z" /><path d="M 1945,3110 L 2035,3110 L 2035,3200 L 1945,3200 Z" /><path d="M 2205,3110 L 2295,3110 L 2295,3200 L 2205,3200 Z" /><path d="M 2465,3110 L 2555,3110 L 2555,3200 L 2465,3200 Z" /><path d="M 2725,3110 L 2815,3110 L 2815,3200 L 2725,3200 Z" /><path d="M 2985,3110 L 3075,3110 L 3075,3200 L 2985,3200 Z" /><path d="M 3245,3110 L 3335,3110 L 3335,3200 L 3245,3200 Z" /><path d="M 3505,3110 L 3595,3110 L 3595,3200 L 3505,3200 Z" /><path d="M 3765,3110 L 3855,3110 L 3855,3200 L 3765,3200 Z" /><path d="M 4025,3110 L 4115,3110 L 4115,3200 L 4025,3200 Z" /><path d="M 4285,3110 L 4375,3110 L 4375,3200 L 4285,3200 Z" /><path d="M 4545,3110 L 4635,3110 L 4635,3200 L 4545,3200 Z" /><path d="M 4805,3110 L 4895,3110 L 4895,3200 L 4805,3200 Z" /><path d="M 5065,3110 L 5155,3110 L 5155,3200 L 5065,3200 Z" /><path d="M 5325,3110 L 5415,3110 L 5415,3200 L 5325,3200 Z" /><path d="M 5585,3110 L 5675,3110 L 5675,3200 L 5585,3200 Z" /><path d="M 5845,3110 L 5935,3110 L 5935,3200 L 5845,3200 Z" /><path d="M 6105,3110 L 6195,3110 L 6195,3200 L 6105,3200 Z" /><path d="M 6365,3110 L 6455,3110 L 6455,3200 L 6365,3200 Z" /><path d="M 6625,3110 L 6715,3110 L 6715,3200 L 6625,3200 Z" /><path d="M 6885,3110 L 6975,3110 L 6975,3200 L 6885,3200 Z" /><path d="M 7145,3110 L 7235,3110 L 7235,3200 L 7145,3200 Z" /><path d="M 7405,3110 L 7495,3110 L 7495,3200 L 7405,3200 Z" /><path d="M 7665,3110 L 7755,3110 L 7755,3200 L 7665,3200 Z" /><path d="M 7925,3110 L 8015,3110 L 8015,3200 L 7925,3200 Z" /><path d="M 8185,3110 L 8275,3110 L 8275,3200 L 8185,3200 Z" /><path d="M 4285,785 L 4375,785 L 4375,875 L 4285,875 Z" /><path d="M 4545,785 L 4635,785 L 4635,875 L 4545,875 Z" /><path d="M 4025,785 L 4115,785 L 4115,875 L 4025,875 Z" /><path d="M 4285,2495 L 4375,2495 L 4375,2585 L 4285,2585 Z" /><path d="M 4545,2495 L 4635,2495 L 4635,2585 L 4545,2585 Z" /><path d="M 4025,2495 L 4115,2495 L 4115,2585 L 4025,2585 Z" /><path d="M 8185,2495 L 8275,2495 L 8275,2585 L 8185,2585 Z" /><path d="M 7925,2495 L 8015,2495 L 8015,2585 L 7925,2585 Z" /><path d="M 7405,2495 L 7495,2495 L 7495,2585 L 7405,2585 Z" /><path d="M 6885,2495 L 6975,2495 L 6975,2585 L 6885,2585 Z" /><path d="M 6625,2495 L 6715,2495 L 6715,2585 L 6625,2585 Z" /><path d="M 8185,785 L 8275,785 L 8275,875 L 8185,875 Z" /><path d="M 7925,785 L 8015,785 L 8015,875 L 7925,875 Z" /><path d="M 7405,785 L 7495,785 L 7495,875 L 7405,875 Z" /><path d="M 6885,785 L 6975,785 L 6975,875 L 6885,875 Z" /><path d="M 6625,785 L 6715,785 L 6715,875 L 6625,875 Z" /><path d="M 6365,785 L 6455,785 L 6455,875 L 6365,875 Z" /><path d="M 6105,785 L 6195,785 L 6195,875 L 6105,875 Z" /><path d="M 5585,785 L 5675,785 L 5675,875 L 5585,875 Z" /><path d="M 5065,785 L 5155,785 L 5155,875 L 5065,875 Z" /><path d="M 4805,785 L 4895,785 L 4895,875 L 4805,875 Z" /><path d="M 6365,2495 L 6455,2495 L 6455,2585 L 6365,2585 Z" /><path d="M 6105,2495 L 6195,2495 L 6195,2585 L 6105,2585 Z" /><path d="M 5585,2495 L 5675,2495 L 5675,2585 L 5585,2585 Z" /><path d="M 5065,2495 L 5155,2495 L 5155,2585 L 5065,2585 Z" /><path d="M 4805,2495 L 4895,2495 L 4895,2585 L 4805,2585 Z" /><path d="M 3765,2495 L 3855,2495 L 3855,2585 L 3765,2585 Z" /><path d="M 3505,2495 L 3595,2495 L 3595,2585 L 3505,2585 Z" /><path d="M 2985,2495 L 3075,2495 L 3075,2585 L 2985,2585 Z" /><path d="M 2465,2495 L 2555,2495 L 2555,2585 L 2465,2585 Z" /><path d="M 2205,2495 L 2295,2495 L 2295,2585 L 2205,2585 Z" /><path d="M 3765,785 L 3855,785 L 3855,875 L 3765,875 Z" /><path d="M 3505,785 L 3595,785 L 3595,875 L 3505,875 Z" /><path d="M 2985,785 L 3075,785 L 3075,875 L 2985,875 Z" /><path d="M 2465,785 L 2555,785 L 2555,875 L 2465,875 Z" /><path d="M 2205,785 L 2295,785 L 2295,875 L 2205,875 Z" /><path d="M 1945,785 L 2035,785 L 2035,875 L 1945,875 Z" /><path d="M 1685,785 L 1775,785 L 1775,875 L 1685,875 Z" /><path d="M 1165,785 L 1255,785 L 1255,875 L 1165,875 Z" /><path d="M 645,785 L 735,785 L 735,875 L 645,875 Z" /><path d="M 385,785 L 475,785 L 475,875 L 385,875 Z" /><path d="M 1945,2495 L 2035,2495 L 2035,2585 L 1945,2585 Z" /><path d="M 1685,2495 L 1775,2495 L 1775,2585 L 1685,2585 Z" /><path d="M 1165,2495 L 1255,2495 L 1255,2585 L 1165,2585 Z" /><path d="M 645,2495 L 735,2495 L 735,2585 L 645,2585 Z" /><path d="M 385,2495 L 475,2495 L 475,2585 L 385,2585 Z" /><path d="M 1645,1160 L 1555,1160 L 1555,1250 L 1645,1250 Z" /><path d="M 1905,1350 L 1815,1350 L 1815,1440 L 1905,1440 Z" /><path d="M 3465,1160 L 3375,1160 L 3375,1250 L 3465,1250 Z" /><path d="M 3725,1350 L 3635,1350 L 3635,1440 L 3725,1440 Z" /><path d="M 6065,1160 L 5975,1160 L 5975,1250 L 6065,1250 Z" /><path d="M 6325,1350 L 6235,1350 L 6235,1440 L 6325,1440 Z" /><path d="M 7885,1160 L 7795,1160 L 7795,1250 L 7885,1250 Z" /><path d="M 8145,1350 L 8055,1350 L 8055,1440 L 8145,1440 Z" /><path d="M 7015,1160 L 7105,1160 L 7105,1250 L 7015,1250 Z" /><path d="M 6755,1350 L 6845,1350 L 6845,1440 L 6755,1440 Z" /><path d="M 5195,1160 L 5285,1160 L 5285,1250 L 5195,1250 Z" /><path d="M 4935,1350 L 5025,1350 L 5025,1440 L 4935,1440 Z" /><path d="M 2595,1160 L 2685,1160 L 2685,1250 L 2595,1250 Z" /><path d="M 2335,1350 L 2425,1350 L 2425,1440 L 2335,1440 Z" /><path d="M 515,1350 L 605,1350 L 605,1440 L 515,1440 Z" /><path d="M 775,1160 L 865,1160 L 865,1250 L 775,1250 Z" /><path d="M 775,2115 L 865,2115 L 865,2205 L 775,2205 Z" /><path d="M 1555,1925 L 1645,1925 L 1645,2015 L 1555,2015 Z" /><path d="M 2595,2115 L 2685,2115 L 2685,2205 L 2595,2205 Z" /><path d="M 3375,2115 L 3465,2115 L 3465,2205 L 3375,2205 Z" /><path d="M 5195,2115 L 5285,2115 L 5285,2205 L 5195,2205 Z" /><path d="M 5975,2115 L 6065,2115 L 6065,2205 L 5975,2205 Z" /><path d="M 7015,1925 L 7105,1925 L 7105,2015 L 7015,2015 Z" /><path d="M 7795,2115 L 7885,2115 L 7885,2205 L 7795,2205 Z" /><path d="M 4415,1355 L 4505,1355 L 4505,1445 L 4415,1445 Z" /><path d="M 4155,1925 L 4245,1925 L 4245,2015 L 4155,2015 Z" /><path d="M 3115,1735 L 3205,1735 L 3205,1825 L 3115,1825 Z" /><path d="M 2855,1735 L 2945,1735 L 2945,1825 L 2855,1825 Z" /><path d="M 1295,1735 L 1385,1735 L 1385,1825 L 1295,1825 Z" /><path d="M 1035,1735 L 1125,1735 L 1125,1825 L 1035,1825 Z" /><path d="M 5455,1545 L 5545,1545 L 5545,1635 L 5455,1635 Z" /><path d="M 5715,1545 L 5805,1545 L 5805,1635 L 5715,1635 Z" /><path d="M 7275,1545 L 7365,1545 L 7365,1635 L 7275,1635 Z" /><path d="M 7535,1545 L 7625,1545 L 7625,1635 L 7535,1635 Z" /></g></g><g id="M1"><g class="l31d0"><path d="M 8020,3060 L 8020,2625 L 8020,2455 L 7920,2455 L 7920,2625 L 7920,3060 L 6979,3060 L 6979,2625 L 6980,2625 L 6980,2455 L 6880,2455 L 6880,2625 L 6880,3060 L 6200,3060 L 6200,2625 L 6200,2455 L 6100,2455 L 6100,2625 L 6100,3060 L 5160,3060 L 5160,2625 L 5160,2455 L 5060,2455 L 5060,2625 L 5060,3060 L 4380,3060 L 4380,2625 L 4380,2455 L 4280,2455 L 4280,2625 L 4280,3060 L 3600,3060 L 3600,2625 L 3600,2455 L 3500,2455 L 3500,2625 L 3500,3060 L 2560,3060 L 2560,2625 L 2560,2455 L 2460,2455 L 2460,2625 L 2460,3060 L 1780,3060 L 1780,2625 L 1780,2455 L 1680,2455 L 1680,2625 L 1680,3060 L 740,3060 L 740,2625 L 740,2455 L 640,2455 L 640,2625 L 640,3060 L 290,3060 L 290,3250 L 8370,3250 L 8370,3060 Z" /><path d="M 1780,745 L 1780,310 L 2460,310 L 2460,745 L 2460,915 L 2560,915 L 2560,745 L 2560,310 L 3500,310 L 3500,745 L 3500,915 L 3600,915 L 3600,745 L 3600,310 L 4280,310 L 4280,745 L 4280,915 L 4380,915 L 4380,745 L 4380,310 L 5060,310 L 5060,745 L 5060,915 L 5160,915 L 5160,745 L 5160,310 L 6100,310 L 6100,745 L 6100,915 L 6200,915 L 6200,745 L 6200,310 L 6880,310 L 6880,745 L 6880,915 L 6980,915 L 6980,745 L 6979,745 L 6979,310 L 7920,310 L 7920,745 L 7920,915 L 8020,915 L 8020,745 L 8020,310 L 8370,310 L 8370,120 L 290,120 L 290,310 L 640,310 L 640,745 L 640,915 L 740,915 L 740,745 L 740,310 L 1680,310 L 1680,745 L 1680,915 L 1780,915 Z" /><path d="M 4540,2450 L 4540,2455 L 4540,2625 L 4540,2630 L 4540,2870 L 4640,2870 L 4640,2630 L 4640,2625 L 4640,2455 L 4640,2450 Z" /><path d="M 4540,500 L 4540,740 L 4540,745 L 4540,915 L 4540,920 L 4640,920 L 4640,915 L 4640,745 L 4640,740 L 4640,500 Z" /><path d="M 4020,2450 L 4020,2455 L 4020,2625 L 4020,2630 L 4020,2870 L 4120,2870 L 4120,2630 L 4120,2625 L 4120,2455 L 4120,2450 Z" /><path d="M 4020,500 L 4020,740 L 4020,745 L 4020,915 L 4020,920 L 4120,920 L 4120,915 L 4120,745 L 4120,740 L 4120,500 Z" /><path d="M 8180,2450 L 8180,2455 L 8180,2625 L 8180,2630 L 8180,2870 L 8280,2870 L 8280,2630 L 8280,2625 L 8280,2455 L 8280,2450 Z" /><path d="M 7400,2450 L 7400,2455 L 7400,2625 L 7400,2630 L 7400,2870 L 7500,2870 L 7500,2630 L 7500,2625 L 7500,2455 L 7500,2450 Z" /><path d="M 6620,2450 L 6620,2455 L 6620,2625 L 6620,2630 L 6620,2870 L 6720,2870 L 6720,2630 L 6720,2625 L 6720,2455 L 6720,2450 Z" /><path d="M 8180,500 L 8180,740 L 8180,745 L 8180,915 L 8180,920 L 8280,920 L 8280,915 L 8280,745 L 8280,740 L 8280,500 Z" /><path d="M 7400,500 L 7400,740 L 7400,745 L 7400,915 L 7400,920 L 7500,920 L 7500,915 L 7500,745 L 7500,740 L 7500,500 Z" /><path d="M 6620,500 L 6620,740 L 6620,745 L 6620,915 L 6620,920 L 6720,920 L 6720,915 L 6720,745 L 6720,740 L 6720,500 Z" /><path d="M 6360,2450 L 6360,2455 L 6360,2625 L 6360,2630 L 6360,2870 L 6460,2870 L 6460,2630 L 6460,2625 L 6460,2455 L 6460,2450 Z" /><path d="M 5580,2450 L 5580,2455 L 5580,2625 L 5580,2630 L 5580,2870 L 5680,2870 L 5680,2630 L 5680,2625 L 5680,2455 L 5680,2450 Z" /><path d="M 4800,2450 L 4800,2455 L 4800,2625 L 4800,2630 L 4800,2870 L 4900,2870 L 4900,2630 L 4900,2625 L 4900,2455 L 4900,2450 Z" /><path d="M 6360,500 L 6360,740 L 6360,745 L 6360,915 L 6360,920 L 6460,920 L 6460,915 L 6460,745 L 6460,740 L 6460,500 Z" /><path d="M 5580,500 L 5580,740 L 5580,745 L 5580,915 L 5580,920 L 5680,920 L 5680,915 L 5680,745 L 5680,740 L 5680,500 Z" /><path d="M 4800,500 L 4800,740 L 4800,745 L 4800,915 L 4800,920 L 4900,920 L 4900,915 L 4900,745 L 4900,740 L 4900,500 Z" /><path d="M 3760,2450 L 3760,2455 L 3760,2625 L 3760,2630 L 3760,2870 L 3860,2870 L 3860,2630 L 3860,2625 L 3860,2455 L 3860,2450 Z" /><path d="M 2980,2450 L 2980,2455 L 2980,2625 L 2980,2630 L 2980,2870 L 3080,2870 L 3080,2630 L 3080,2625 L 3080,2455 L 3080,2450 Z" /><path d="M 2200,2450 L 2200,2455 L 2200,2625 L 2200,2630 L 2200,2870 L 2300,2870 L 2300,2630 L 2300,2625 L 2300,2455 L 2300,2450 Z" /><path d="M 3760,500 L 3760,740 L 3760,745 L 3760,915 L 3760,920 L 3860,920 L 3860,915 L 3860,745 L 3860,740 L 3860,500 Z" /><path d="M 2980,500 L 2980,740 L 2980,745 L 2980,915 L 2980,920 L 3080,920 L 3080,915 L 3080,745 L 3080,740 L 3080,500 Z" /><path d="M 2200,500 L 2200,740 L 2200,745 L 2200,915 L 2200,920 L 2300,920 L 2300,915 L 2300,745 L 2300,740 L 2300,500 Z" /><path d="M 1940,500 L 1940,740 L 1940,745 L 1940,915 L 1940,920 L 2040,920 L 2040,915 L 2040,745 L 2040,740 L 2040,500 Z" /><path d="M 1160,500 L 1160,740 L 1160,745 L 1160,915 L 1160,920 L 1260,920 L 1260,915 L 1260,745 L 1260,740 L 1260,500 Z" /><path d="M 380,500 L 380,740 L 380,745 L 380,915 L 380,920 L 480,920 L 480,915 L 480,745 L 480,740 L 480,500 Z" /><path d="M 1940,2450 L 1940,2455 L 1940,2625 L 1940,2630 L 1940,2870 L 2040,2870 L 2040,2630 L 2040,2625 L 2040,2455 L 2040,2450 Z" /><path d="M 1160,2450 L 1160,2455 L 1160,2625 L 1160,2630 L 1160,2870 L 1260,2870 L 1260,2630 L 1260,2625 L 1260,2455 L 1260,2450 Z" /><path d="M 380,2450 L 380,2455 L 380,2625 L 380,2630 L 380,2870 L 480,2870 L 480,2630 L 480,2625 L 480,2455 L 480,2450 Z" /><path d="M 1325,1155 L 1325,1255 L 1380,1255 L 1515,1255 L 1560,1255 L 1685,1255 L 1745,1255 L 1745,1155 L 1685,1155 L 1560,1155 L 1515,1155 L 1380,1155 Z" /><path d="M 1585,1345 L 1585,1445 L 1640,1445 L 1775,1445 L 1820,1445 L 1945,1445 L 2005,1445 L 2005,1345 L 1945,1345 L 1820,1345 L 1775,1345 L 1640,1345 Z" /><path d="M 3145,1155 L 3145,1255 L 3200,1255 L 3335,1255 L 3380,1255 L 3505,1255 L 3565,1255 L 3565,1155 L 3505,1155 L 3380,1155 L 3335,1155 L 3200,1155 Z" /><path d="M 3405,1345 L 3405,1445 L 3460,1445 L 3595,1445 L 3640,1445 L 3765,1445 L 3825,1445 L 3825,1345 L 3765,1345 L 3640,1345 L 3595,1345 L 3460,1345 Z" /><path d="M 5745,1155 L 5745,1255 L 5800,1255 L 5935,1255 L 5980,1255 L 6105,1255 L 6165,1255 L 6165,1155 L 6105,1155 L 5980,1155 L 5935,1155 L 5800,1155 Z" /><path d="M 6005,1345 L 6005,1445 L 6060,1445 L 6195,1445 L 6240,1445 L 6365,1445 L 6425,1445 L 6425,1345 L 6365,1345 L 6240,1345 L 6195,1345 L 6060,1345 Z" /><path d="M 7565,1155 L 7565,1255 L 7620,1255 L 7755,1255 L 7800,1255 L 7925,1255 L 7985,1255 L 7985,1155 L 7925,1155 L 7800,1155 L 7755,1155 L 7620,1155 Z" /><path d="M 7825,1345 L 7825,1445 L 7880,1445 L 8015,1445 L 8060,1445 L 8185,1445 L 8245,1445 L 8245,1345 L 8185,1345 L 8060,1345 L 8015,1345 L 7880,1345 Z" /><path d="M 6915,1155 L 6915,1255 L 6975,1255 L 7100,1255 L 7145,1255 L 7280,1255 L 7335,1255 L 7335,1155 L 7280,1155 L 7145,1155 L 7100,1155 L 6975,1155 Z" /><path d="M 6655,1345 L 6655,1445 L 6715,1445 L 6840,1445 L 6885,1445 L 7020,1445 L 7075,1445 L 7075,1345 L 7020,1345 L 6885,1345 L 6840,1345 L 6715,1345 Z" /><path d="M 5095,1155 L 5095,1255 L 5155,1255 L 5280,1255 L 5325,1255 L 5460,1255 L 5515,1255 L 5515,1155 L 5460,1155 L 5325,1155 L 5280,1155 L 5155,1155 Z" /><path d="M 4835,1345 L 4835,1445 L 4895,1445 L 5020,1445 L 5065,1445 L 5200,1445 L 5255,1445 L 5255,1345 L 5200,1345 L 5065,1345 L 5020,1345 L 4895,1345 Z" /><path d="M 2495,1155 L 2495,1255 L 2555,1255 L 2680,1255 L 2725,1255 L 2860,1255 L 2915,1255 L 2915,1155 L 2860,1155 L 2725,1155 L 2680,1155 L 2555,1155 Z" /><path d="M 2235,1345 L 2235,1445 L 2295,1445 L 2420,1445 L 2465,1445 L 2600,1445 L 2655,1445 L 2655,1345 L 2600,1345 L 2465,1345 L 2420,1345 L 2295,1345 Z" /><path d="M 415,1345 L 415,1445 L 475,1445 L 600,1445 L 645,1445 L 780,1445 L 835,1445 L 835,1345 L 780,1345 L 645,1345 L 600,1345 L 475,1345 Z" /><path d="M 675,1155 L 675,1255 L 735,1255 L 860,1255 L 905,1255 L 1040,1255 L 1095,1255 L 1095,1155 L 1040,1155 L 905,1155 L 860,1155 L 735,1155 Z" /><path d="M 520,2110 L 430,2110 L 340,2110 L 340,2210 L 430,2210 L 520,2210 L 735,2210 L 820,2210 L 905,2210 L 905,2110 L 820,2110 L 735,2110 Z" /><path d="M 1900,2020 L 1990,2020 L 2080,2020 L 2080,1920 L 1990,1920 L 1900,1920 L 1685,1920 L 1600,1920 L 1515,1920 L 1515,2020 L 1600,2020 L 1685,2020 Z" /><path d="M 2340,2110 L 2250,2110 L 2160,2110 L 2160,2210 L 2250,2210 L 2340,2210 L 2555,2210 L 2640,2210 L 2725,2210 L 2725,2110 L 2640,2110 L 2555,2110 Z" /><path d="M 3720,2210 L 3810,2210 L 3900,2210 L 3900,2110 L 3810,2110 L 3720,2110 L 3505,2110 L 3420,2110 L 3335,2110 L 3335,2210 L 3420,2210 L 3505,2210 Z" /><path d="M 4940,2110 L 4850,2110 L 4760,2110 L 4760,2210 L 4850,2210 L 4940,2210 L 5155,2210 L 5240,2210 L 5325,2210 L 5325,2110 L 5240,2110 L 5155,2110 Z" /><path d="M 6320,2210 L 6410,2210 L 6500,2210 L 6500,2110 L 6410,2110 L 6320,2110 L 6105,2110 L 6020,2110 L 5935,2110 L 5935,2210 L 6020,2210 L 6105,2210 Z" /><path d="M 6760,1920 L 6670,1920 L 6580,1920 L 6580,2020 L 6670,2020 L 6760,2020 L 6975,2020 L 7060,2020 L 7145,2020 L 7145,1920 L 7060,1920 L 6975,1920 Z" /><path d="M 8140,2210 L 8230,2210 L 8320,2210 L 8320,2110 L 8230,2110 L 8140,2110 L 7925,2110 L 7840,2110 L 7755,2110 L 7755,2210 L 7840,2210 L 7925,2210 Z" /><path d="M 4185,1350 L 4185,1450 L 4240,1450 L 4375,1450 L 4420,1450 L 4545,1450 L 4605,1450 L 4605,1350 L 4545,1350 L 4420,1350 L 4375,1350 L 4240,1350 Z" /><path d="M 4054,1920 L 4054,2020 L 4115,2020 L 4240,2020 L 4285,2020 L 4420,2020 L 4475,2020 L 4475,1920 L 4420,1920 L 4285,1920 L 4240,1920 L 4115,1920 Z" /><path d="M 1255,1730 L 1165,1730 L 1080,1730 L 995,1730 L 995,1830 L 1080,1830 L 1165,1830 L 1255,1830 L 1340,1830 L 1425,1830 L 2815,1830 L 2900,1830 L 2985,1830 L 3075,1830 L 3160,1830 L 3245,1830 L 4500,1830 L 4590,1830 L 4680,1830 L 5540,1830 L 5630,1830 L 5720,1830 L 7360,1830 L 7450,1830 L 7540,1830 L 7540,1730 L 7450,1730 L 7360,1730 L 5720,1730 L 5630,1730 L 5540,1730 L 4680,1730 L 4590,1730 L 4500,1730 L 3245,1730 L 3160,1730 L 3075,1730 L 2985,1730 L 2900,1730 L 2815,1730 L 1425,1730 L 1340,1730 Z" /><path d="M 7405,1640 L 7495,1640 L 7580,1640 L 7665,1640 L 7665,1540 L 7580,1540 L 7495,1540 L 7405,1540 L 7320,1540 L 7235,1540 L 5845,1540 L 5760,1540 L 5675,1540 L 5585,1540 L 5500,1540 L 5415,1540 L 4160,1540 L 4070,1540 L 3980,1540 L 3120,1540 L 3030,1540 L 2940,1540 L 1300,1540 L 1210,1540 L 1120,1540 L 1120,1640 L 1210,1640 L 1300,1640 L 2940,1640 L 3030,1640 L 3120,1640 L 3980,1640 L 4070,1640 L 4160,1640 L 5415,1640 L 5500,1640 L 5585,1640 L 5675,1640 L 5760,1640 L 5845,1640 L 7235,1640 L 7320,1640 Z" /></g></g><g id="VIA1"><g class="l51d0"><path d="M 4540,2490 L 4640,2490 L 4640,2590 L 4540,2590 Z" /><path d="M 4540,780 L 4640,780 L 4640,880 L 4540,880 Z" /><path d="M 4020,2490 L 4120,2490 L 4120,2590 L 4020,2590 Z" /><path d="M 4020,780 L 4120,780 L 4120,880 L 4020,880 Z" /><path d="M 8180,2490 L 8280,2490 L 8280,2590 L 8180,2590 Z" /><path d="M 7400,2490 L 7500,2490 L 7500,2590 L 7400,2590 Z" /><path d="M 6620,2490 L 6720,2490 L 6720,2590 L 6620,2590 Z" /><path d="M 8180,780 L 8280,780 L 8280,880 L 8180,880 Z" /><path d="M 7400,780 L 7500,780 L 7500,880 L 7400,880 Z" /><path d="M 6620,780 L 6720,780 L 6720,880 L 6620,880 Z" /><path d="M 6360,2490 L 6460,2490 L 6460,2590 L 6360,2590 Z" /><path d="M 5580,2490 L 5680,2490 L 5680,2590 L 5580,2590 Z" /><path d="M 4800,2490 L 4900,2490 L 4900,2590 L 4800,2590 Z" /><path d="M 6360,780 L 6460,780 L 6460,880 L 6360,880 Z" /><path d="M 5580,780 L 5680,780 L 5680,880 L 5580,880 Z" /><path d="M 4800,780 L 4900,780 L 4900,880 L 4800,880 Z" /><path d="M 3760,2490 L 3860,2490 L 3860,2590 L 3760,2590 Z" /><path d="M 2980,2490 L 3080,2490 L 3080,2590 L 2980,2590 Z" /><path d="M 2200,2490 L 2300,2490 L 2300,2590 L 2200,2590 Z" /><path d="M 3760,780 L 3860,780 L 3860,880 L 3760,880 Z" /><path d="M 2980,780 L 3080,780 L 3080,880 L 2980,880 Z" /><path d="M 2200,780 L 2300,780 L 2300,880 L 2200,880 Z" /><path d="M 1940,780 L 2040,780 L 2040,880 L 1940,880 Z" /><path d="M 1160,780 L 1260,780 L 1260,880 L 1160,880 Z" /><path d="M 380,780 L 480,780 L 480,880 L 380,880 Z" /><path d="M 1940,2490 L 2040,2490 L 2040,2590 L 1940,2590 Z" /><path d="M 1160,2490 L 1260,2490 L 1260,2590 L 1160,2590 Z" /><path d="M 380,2490 L 480,2490 L 480,2590 L 380,2590 Z" /><path d="M 1520,1155 L 1420,1155 L 1420,1255 L 1520,1255 Z" /><path d="M 1780,1345 L 1680,1345 L 1680,1445 L 1780,1445 Z" /><path d="M 3340,1155 L 3240,1155 L 3240,1255 L 3340,1255 Z" /><path d="M 3600,1345 L 3500,1345 L 3500,1445 L 3600,1445 Z" /><path d="M 5940,1155 L 5840,1155 L 5840,1255 L 5940,1255 Z" /><path d="M 6200,1345 L 6100,1345 L 6100,1445 L 6200,1445 Z" /><path d="M 7760,1155 L 7660,1155 L 7660,1255 L 7760,1255 Z" /><path d="M 8020,1345 L 7920,1345 L 7920,1445 L 8020,1445 Z" /><path d="M 7140,1155 L 7240,1155 L 7240,1255 L 7140,1255 Z" /><path d="M 6880,1345 L 6980,1345 L 6980,1445 L 6880,1445 Z" /><path d="M 5320,1155 L 5420,1155 L 5420,1255 L 5320,1255 Z" /><path d="M 5060,1345 L 5160,1345 L 5160,1445 L 5060,1445 Z" /><path d="M 2720,1155 L 2820,1155 L 2820,1255 L 2720,1255 Z" /><path d="M 2460,1345 L 2560,1345 L 2560,1445 L 2460,1445 Z" /><path d="M 640,1345 L 740,1345 L 740,1445 L 640,1445 Z" /><path d="M 900,1155 L 1000,1155 L 1000,1255 L 900,1255 Z" /><path d="M 380,2110 L 480,2110 L 480,2210 L 380,2210 Z" /><path d="M 1940,1920 L 2040,1920 L 2040,2020 L 1940,2020 Z" /><path d="M 2200,2110 L 2300,2110 L 2300,2210 L 2200,2210 Z" /><path d="M 3760,2110 L 3860,2110 L 3860,2210 L 3760,2210 Z" /><path d="M 4800,2110 L 4900,2110 L 4900,2210 L 4800,2210 Z" /><path d="M 6360,2110 L 6460,2110 L 6460,2210 L 6360,2210 Z" /><path d="M 6620,1920 L 6720,1920 L 6720,2020 L 6620,2020 Z" /><path d="M 8180,2110 L 8280,2110 L 8280,2210 L 8180,2210 Z" /><path d="M 4280,1350 L 4380,1350 L 4380,1450 L 4280,1450 Z" /><path d="M 4280,1920 L 4380,1920 L 4380,2020 L 4280,2020 Z" /><path d="M 7400,1730 L 7500,1730 L 7500,1830 L 7400,1830 Z" /><path d="M 5580,1730 L 5680,1730 L 5680,1830 L 5580,1830 Z" /><path d="M 4540,1730 L 4640,1730 L 4640,1830 L 4540,1830 Z" /><path d="M 1160,1540 L 1260,1540 L 1260,1640 L 1160,1640 Z" /><path d="M 2980,1540 L 3080,1540 L 3080,1640 L 2980,1640 Z" /><path d="M 4020,1540 L 4120,1540 L 4120,1640 L 4020,1640 Z" /></g></g><g id="M2"><g class="l32d0"><path d="M 380,2250 L 380,2450 L 380,2540 L 380,2630 L 480,2630 L 480,2540 L 480,2450 L 480,2250 L 480,2160 L 480,2070 L 480,920 L 480,830 L 480,740 L 380,740 L 380,830 L 380,920 L 380,2070 L 380,2160 Z" /><path d="M 1940,2540 L 1940,2630 L 2040,2630 L 2040,2540 L 2040,2450 L 2040,2060 L 2040,1880 L 2040,920 L 2040,830 L 2040,740 L 1940,740 L 1940,830 L 1940,920 L 1940,1880 L 1940,2060 L 1940,2450 Z" /><path d="M 2200,2540 L 2200,2630 L 2300,2630 L 2300,2540 L 2300,2450 L 2300,2250 L 2300,2160 L 2300,2070 L 2300,920 L 2300,830 L 2300,740 L 2200,740 L 2200,830 L 2200,920 L 2200,2070 L 2200,2160 L 2200,2250 L 2200,2450 Z" /><path d="M 3760,2540 L 3760,2630 L 3860,2630 L 3860,2540 L 3860,2450 L 3860,2250 L 3860,2160 L 3860,2070 L 3860,920 L 3860,830 L 3860,740 L 3760,740 L 3760,830 L 3760,920 L 3760,2070 L 3760,2160 L 3760,2250 L 3760,2450 Z" /><path d="M 4800,2540 L 4800,2630 L 4900,2630 L 4900,2540 L 4900,2450 L 4900,2250 L 4900,2160 L 4900,2070 L 4900,920 L 4900,830 L 4900,740 L 4800,740 L 4800,830 L 4800,920 L 4800,2070 L 4800,2160 L 4800,2250 L 4800,2450 Z" /><path d="M 6360,2540 L 6360,2630 L 6460,2630 L 6460,2540 L 6460,2450 L 6460,2250 L 6460,2160 L 6460,2070 L 6460,920 L 6460,830 L 6460,740 L 6360,740 L 6360,830 L 6360,920 L 6360,2070 L 6360,2160 L 6360,2250 L 6360,2450 Z" /><path d="M 6620,1880 L 6620,2060 L 6620,2450 L 6620,2540 L 6620,2630 L 6720,2630 L 6720,2540 L 6720,2450 L 6720,2060 L 6720,1880 L 6720,920 L 6720,830 L 6720,740 L 6620,740 L 6620,830 L 6620,920 Z" /><path d="M 8180,2540 L 8180,2630 L 8280,2630 L 8280,2540 L 8280,2450 L 8280,2250 L 8280,2160 L 8280,2070 L 8280,920 L 8280,830 L 8280,740 L 8180,740 L 8180,830 L 8180,920 L 8180,2070 L 8180,2160 L 8180,2250 L 8180,2450 Z" /><path d="M 4380,970 L 4280,970 L 4280,1310 L 4280,1490 L 4380,1490 L 4380,1310 Z" /><path d="M 4280,1880 L 4280,2060 L 4280,2400 L 4380,2400 L 4380,2060 L 4380,1880 Z" /><path d="M 7500,1690 L 7500,920 L 7500,830 L 7500,740 L 7400,740 L 7400,830 L 7400,920 L 7400,1690 L 7400,1780 L 7400,1870 L 7400,2450 L 7400,2540 L 7400,2630 L 7500,2630 L 7500,2540 L 7500,2450 L 7500,1870 L 7500,1780 Z" /><path d="M 5680,1690 L 5680,920 L 5680,830 L 5680,740 L 5580,740 L 5580,830 L 5580,920 L 5580,1690 L 5580,1780 L 5580,1870 L 5580,2450 L 5580,2540 L 5580,2630 L 5680,2630 L 5680,2540 L 5680,2450 L 5680,1870 L 5680,1780 Z" /><path d="M 4540,2540 L 4540,2630 L 4640,2630 L 4640,2540 L 4640,2450 L 4640,1870 L 4640,1780 L 4640,1690 L 4640,920 L 4640,830 L 4640,740 L 4540,740 L 4540,830 L 4540,920 L 4540,1690 L 4540,1780 L 4540,1870 L 4540,2450 Z" /><path d="M 1260,830 L 1260,740 L 1160,740 L 1160,830 L 1160,920 L 1160,1500 L 1160,1590 L 1160,1680 L 1160,2450 L 1160,2540 L 1160,2630 L 1260,2630 L 1260,2540 L 1260,2450 L 1260,1680 L 1260,1590 L 1260,1500 L 1260,920 Z" /><path d="M 3080,1500 L 3080,920 L 3080,830 L 3080,740 L 2980,740 L 2980,830 L 2980,920 L 2980,1500 L 2980,1590 L 2980,1680 L 2980,2450 L 2980,2540 L 2980,2630 L 3080,2630 L 3080,2540 L 3080,2450 L 3080,1680 L 3080,1590 Z" /><path d="M 4020,2540 L 4020,2630 L 4120,2630 L 4120,2540 L 4120,2450 L 4120,1680 L 4120,1590 L 4120,1500 L 4120,920 L 4120,830 L 4120,740 L 4020,740 L 4020,830 L 4020,920 L 4020,1500 L 4020,1590 L 4020,1680 L 4020,2450 Z" /><path d="M 5320,740 L 5320,895 L 5320,985 L 5320,1075 L 5320,1115 L 5320,1205 L 5320,1295 L 5320,2630 L 5420,2630 L 5420,1295 L 5420,1205 L 5420,1115 L 5420,1075 L 5420,985 L 5420,895 L 5420,740 Z" /><path d="M 3500,895 L 3500,1075 L 3500,1205 L 3500,1305 L 3500,1485 L 3500,2630 L 3600,2630 L 3600,1485 L 3600,1305 L 3600,1205 L 3600,1075 L 3600,895 L 3600,740 L 3500,740 Z" /><path d="M 5160,740 L 5060,740 L 5060,1305 L 5060,1395 L 5060,1485 L 5060,2295 L 5060,2385 L 5060,2475 L 5060,2630 L 5160,2630 L 5160,2475 L 5160,2385 L 5160,2295 L 5160,1485 L 5160,1395 L 5160,1305 Z" /><path d="M 3240,1115 L 3240,1295 L 3240,1395 L 3240,2295 L 3240,2475 L 3240,2630 L 3340,2630 L 3340,2475 L 3340,2295 L 3340,1395 L 3340,1295 L 3340,1115 L 3340,740 L 3240,740 Z" /><path d="M 5840,740 L 5840,1095 L 5840,1115 L 5840,1185 L 5840,1275 L 5840,1295 L 5840,2630 L 5939,2630 L 5939,1295 L 5940,1295 L 5940,1275 L 5940,1115 L 5940,1095 L 5939,1095 L 5939,740 Z" /><path d="M 2460,1095 L 2460,1275 L 2460,1305 L 2460,1395 L 2460,1485 L 2460,2630 L 2560,2630 L 2560,1485 L 2560,1395 L 2560,1305 L 2560,1275 L 2560,1095 L 2560,740 L 2460,740 Z" /><path d="M 6100,1305 L 6100,1485 L 6100,2095 L 6100,2185 L 6100,2275 L 6100,2630 L 6200,2630 L 6200,2275 L 6200,2185 L 6200,2095 L 6200,1485 L 6200,1305 L 6200,740 L 6100,740 Z" /><path d="M 2720,1115 L 2720,1205 L 2720,1295 L 2720,2095 L 2720,2275 L 2720,2630 L 2820,2630 L 2820,2275 L 2820,2095 L 2820,1295 L 2820,1205 L 2820,1115 L 2820,740 L 2720,740 Z" /><path d="M 7240,1115 L 7240,740 L 7140,740 L 7140,1115 L 7140,1205 L 7140,1295 L 7140,1385 L 7140,1475 L 7140,2630 L 7240,2630 L 7240,1475 L 7240,1385 L 7240,1295 L 7240,1205 Z" /><path d="M 1680,740 L 1680,1205 L 1680,1295 L 1680,1305 L 1680,1475 L 1680,1485 L 1680,2630 L 1780,2630 L 1780,1485 L 1780,1475 L 1780,1305 L 1780,1295 L 1780,1205 L 1780,740 Z" /><path d="M 6880,1305 L 6880,1395 L 6880,1485 L 6880,1895 L 6880,2075 L 6880,2630 L 6979,2630 L 6979,2075 L 6980,2075 L 6980,1895 L 6979,1895 L 6979,1485 L 6980,1485 L 6980,1305 L 6979,1305 L 6979,740 L 6880,740 Z" /><path d="M 1420,1115 L 1420,1295 L 1420,1395 L 1420,1895 L 1420,2075 L 1420,2630 L 1520,2630 L 1520,2075 L 1520,1895 L 1520,1395 L 1520,1295 L 1520,1115 L 1520,740 L 1420,740 Z" /><path d="M 7920,1205 L 7920,1305 L 7920,1485 L 7920,1695 L 7920,1875 L 7920,2630 L 8020,2630 L 8020,1875 L 8020,1695 L 8020,1485 L 8020,1305 L 8020,1205 L 8020,740 L 7920,740 Z" /><path d="M 900,1115 L 900,1205 L 900,1295 L 900,1695 L 900,1875 L 900,2630 L 1000,2630 L 1000,1875 L 1000,1695 L 1000,1295 L 1000,1205 L 1000,1115 L 1000,740 L 900,740 Z" /><path d="M 7660,1115 L 7660,1295 L 7660,1395 L 7660,1495 L 7660,1675 L 7660,2630 L 7760,2630 L 7760,1675 L 7760,1495 L 7760,1395 L 7760,1295 L 7760,1115 L 7760,740 L 7660,740 Z" /><path d="M 740,1675 L 740,1495 L 740,1485 L 740,1395 L 740,1305 L 740,740 L 640,740 L 640,1305 L 640,1395 L 640,1485 L 640,1495 L 640,1675 L 640,2630 L 740,2630 Z" /></g></g><g id="VIA2"><g class="l52d0"><path d="M 5320,935 L 5420,935 L 5420,1035 L 5320,1035 Z" /><path d="M 3500,935 L 3600,935 L 3600,1035 L 3500,1035 Z" /><path d="M 5060,2335 L 5160,2335 L 5160,2435 L 5060,2435 Z" /><path d="M 3240,2335 L 3340,2335 L 3340,2435 L 3240,2435 Z" /><path d="M 5840,1135 L 5940,1135 L 5940,1235 L 5840,1235 Z" /><path d="M 2460,1135 L 2560,1135 L 2560,1235 L 2460,1235 Z" /><path d="M 6100,2135 L 6200,2135 L 6200,2235 L 6100,2235 Z" /><path d="M 2720,2135 L 2820,2135 L 2820,2235 L 2720,2235 Z" /><path d="M 7140,1335 L 7240,1335 L 7240,1435 L 7140,1435 Z" /><path d="M 1680,1335 L 1780,1335 L 1780,1435 L 1680,1435 Z" /><path d="M 6880,1935 L 6980,1935 L 6980,2035 L 6880,2035 Z" /><path d="M 1420,1935 L 1520,1935 L 1520,2035 L 1420,2035 Z" /><path d="M 7920,1735 L 8020,1735 L 8020,1835 L 7920,1835 Z" /><path d="M 900,1735 L 1000,1735 L 1000,1835 L 900,1835 Z" /><path d="M 7660,1535 L 7760,1535 L 7760,1635 L 7660,1635 Z" /><path d="M 640,1535 L 740,1535 L 740,1635 L 640,1635 Z" /></g></g><g id="M3"><g class="l33d0"><path d="M 3460,1035 L 3550,1035 L 3640,1035 L 5280,1035 L 5370,1035 L 5460,1035 L 8060,1035 L 8060,934 L 5370,934 L 3550,934 L 600,934 L 600,1035 Z" /><path d="M 3200,2435 L 3290,2435 L 3380,2435 L 5020,2435 L 5110,2435 L 5200,2435 L 8060,2435 L 8060,2335 L 5200,2335 L 5110,2335 L 5020,2335 L 3380,2335 L 3290,2335 L 3200,2335 L 600,2335 L 600,2435 Z" /><path d="M 2420,1235 L 2510,1235 L 2600,1235 L 5800,1235 L 5890,1235 L 5980,1235 L 8060,1235 L 8060,1135 L 5980,1135 L 5890,1135 L 5800,1135 L 2600,1135 L 2510,1135 L 2420,1135 L 600,1135 L 600,1235 Z" /><path d="M 2680,2235 L 2770,2235 L 2860,2235 L 6060,2235 L 6150,2235 L 6240,2235 L 8060,2235 L 8060,2135 L 6240,2135 L 6150,2135 L 6060,2135 L 2860,2135 L 2770,2135 L 2680,2135 L 600,2135 L 600,2235 Z" /><path d="M 1640,1435 L 1730,1435 L 1820,1435 L 7100,1435 L 7190,1435 L 7280,1435 L 8060,1435 L 8060,1335 L 7280,1335 L 7190,1335 L 7100,1335 L 1820,1335 L 1730,1335 L 1640,1335 L 600,1335 L 600,1435 Z" /><path d="M 1380,2035 L 1470,2035 L 1560,2035 L 6840,2035 L 6930,2035 L 7020,2035 L 8060,2035 L 8060,1935 L 7020,1935 L 6930,1935 L 6840,1935 L 1560,1935 L 1470,1935 L 1380,1935 L 600,1935 L 600,2035 Z" /><path d="M 860,1835 L 950,1835 L 1040,1835 L 7880,1835 L 7970,1835 L 8060,1835 L 8060,1735 L 7970,1735 L 7880,1735 L 1040,1735 L 950,1735 L 860,1735 L 600,1735 L 600,1835 Z" /><path d="M 7800,1535 L 7710,1535 L 7620,1535 L 780,1535 L 690,1535 L 600,1535 L 600,1635 L 690,1635 L 780,1635 L 7620,1635 L 7710,1635 L 7800,1635 L 8060,1635 L 8060,1535 Z" /></g></g></g></svg>