<svg width="7370" height="3550" viewBox="-5 -3545 7370 3550" xmlns="http://www.w3.org/2000/svg" xmlns:xlink="http://www.w3.org/1999/xlink"><defs><style type="text/css">.l3d0 {fill: #fef9e7; fill-opacity: 0.5; stroke-width: 10; stroke: #f1c40f; stroke-linecap: round; stroke-linejoin: round; stroke-opacity: 0.2;}.l25d0 {fill: #8e44ad; fill-opacity: 0.05; stroke-width: 10; stroke: #8e44ad; stroke-linecap: round; stroke-linejoin: round; stroke-opacity: 1;}.l26d0 {fill: #ccd1d1; fill-opacity: 0.05; stroke-width: 10; stroke: #ccd1d1; stroke-linecap: round; stroke-linejoin: round; stroke-opacity: 1;}.l6d0 {fill: #f5b7b1; fill-opacity: 1; stroke-width: 10; stroke: #e74c3c; stroke-linecap: round; stroke-linejoin: round; stroke-opacity: 1;}.l17d0 {fill: #2980b9; fill-opacity: 1; stroke-width: 0; stroke: #000000; stroke-linecap: round; stroke-linejoin: round; stroke-opacity: 0;}.l30d0 {fill: #27ae60; fill-opacity: 1; stroke-width: 0; stroke: #000000; stroke-linecap: round; stroke-linejoin: round; stroke-opacity: 0;}.l31d0 {fill: #85c1e9; fill-opacity: 0.6; stroke-width: 0; stroke: #000000; stroke-linecap: round; stroke-linejoin: round; stroke-opacity: 0;}.l51d0 {fill: #f39c12; fill-opacity: 1; stroke-width: 10; stroke: #f39c12; stroke-linecap: round; stroke-linejoin: round; stroke-opacity: 1;}.l32d0 {fill: #f7dc6f; fill-opacity: 0.6; stroke-width: 0; stroke: #000000; stroke-linecap: round; stroke-linejoin: round; stroke-opacity: 0;}.l52d0 {fill: #a04000; fill-opacity: 1; stroke-width: 10; stroke: #a04000; stroke-linecap: round; stroke-linejoin: round; stroke-opacity: 1;}.l33d0 {fill: #16a085; fill-opacity: 0.6; stroke-width: 0; stroke: #000000; stroke-linecap: round; stroke-linejoin: round; stroke-opacity: 0;}path {fill-rule: evenodd;}</style></defs><g transform="scale(1 -1)"><g id="NW"><g class="l3d0"><path d="M 0,1900 L 0,3540 L 2080,3540 L 2680,3540 L 7360,3540 L 7360,1900 L 5825,1900 L 5565,1900 L 5305,1900 L 5175,1900 L 5045,1900 L 4915,1900 L 4655,1900 L 4395,1900 L 2680,1900 L 2080,1900 L 1665,1900 L 1405,1900 L 1145,1900 L 1015,1900 L 885,1900 L 755,1900 L 495,1900 L 235,1900 Z" /></g></g><g id="PP"><g class="l25d0"><path d="M 170,0 L 170,430 L 2250,430 L 2510,430 L 7190,430 L 7190,0 L 2510,0 L 2250,0 Z" /><path d="M 2250,1685 L 170,1685 L 170,2940 L 325,2940 L 585,2940 L 795,2940 L 845,2940 L 1055,2940 L 1105,2940 L 1315,2940 L 1575,2940 L 1625,2940 L 1885,2940 L 2095,2940 L 2250,2940 L 2355,2940 L 2405,2940 L 2510,2940 L 2665,2940 L 2875,2940 L 2925,2940 L 3135,2940 L 3185,2940 L 3395,2940 L 3445,2940 L 3655,2940 L 3915,2940 L 3965,2940 L 4435,2940 L 4485,2940 L 4745,2940 L 4955,2940 L 5005,2940 L 5215,2940 L 5265,2940 L 5475,2940 L 5735,2940 L 5785,2940 L 6045,2940 L 6255,2940 L 6305,2940 L 6515,2940 L 6565,2940 L 6775,2940 L 7035,2940 L 7190,2940 L 7190,1685 L 2510,1685 Z" /></g></g><g id="NP"><g class="l26d0"><path d="M 170,2940 L 170,3370 L 2250,3370 L 2510,3370 L 7190,3370 L 7190,2940 L 2510,2940 L 2250,2940 Z" /><path d="M 170,1685 L 2250,1685 L 2510,1685 L 7190,1685 L 7190,430 L 7035,430 L 6775,430 L 6565,430 L 6515,430 L 6305,430 L 6255,430 L 6045,430 L 5785,430 L 5735,430 L 5475,430 L 5265,430 L 5215,430 L 5005,430 L 4955,430 L 4745,430 L 4485,430 L 4435,430 L 3965,430 L 3915,430 L 3655,430 L 3445,430 L 3395,430 L 3185,430 L 3135,430 L 2925,430 L 2875,430 L 2665,430 L 2510,430 L 2405,430 L 2355,430 L 2250,430 L 2095,430 L 1885,430 L 1625,430 L 1575,430 L 1315,430 L 1105,430 L 1055,430 L 845,430 L 795,430 L 585,430 L 325,430 L 170,430 Z" /></g></g><g id="OD"><g class="l6d0"><path d="M 1530,2120 L 1445,2120 L 1370,2120 L 1310,2120 L 1235,2120 L 1185,2120 L 1110,2120 L 1050,2120 L 975,2120 L 925,2120 L 850,2120 L 790,2120 L 715,2120 L 665,2120 L 590,2120 L 530,2120 L 455,2120 L 370,2120 L 370,2600 L 455,2600 L 530,2600 L 590,2600 L 665,2600 L 715,2600 L 790,2600 L 850,2600 L 925,2600 L 975,2600 L 1050,2600 L 1110,2600 L 1185,2600 L 1235,2600 L 1310,2600 L 1370,2600 L 1445,2600 L 1530,2600 Z" /><path d="M 300,130 L 300,300 L 2380,300 L 7060,300 L 7060,130 L 2380,130 Z" /><path d="M 300,3070 L 300,3240 L 2380,3240 L 7060,3240 L 7060,3070 L 2380,3070 Z" /><path d="M 6570,770 L 6510,770 L 6435,770 L 6385,770 L 6310,770 L 6250,770 L 6175,770 L 6175,1010 L 6250,1010 L 6310,1010 L 6385,1010 L 6435,1010 L 6510,1010 L 6570,1010 L 6645,1010 L 6695,1010 L 6770,1010 L 6830,1010 L 6905,1010 L 6990,1010 L 6990,770 L 6905,770 L 6830,770 L 6770,770 L 6695,770 L 6645,770 Z" /><path d="M 6174,1010 L 6174,770 L 6125,770 L 6050,770 L 5990,770 L 5915,770 L 5830,770 L 5830,1010 L 5915,1010 L 5990,1010 L 6050,1010 L 6125,1010 Z" /><path d="M 4390,770 L 4355,770 L 4305,770 L 4230,770 L 4170,770 L 4095,770 L 4010,770 L 4010,1010 L 4095,1010 L 4170,1010 L 4230,1010 L 4305,1010 L 4355,1010 L 4390,1010 Z" /><path d="M 6570,2360 L 6510,2360 L 6435,2360 L 6385,2360 L 6310,2360 L 6250,2360 L 6175,2360 L 6175,2600 L 6250,2600 L 6310,2600 L 6385,2600 L 6435,2600 L 6510,2600 L 6570,2600 L 6645,2600 L 6695,2600 L 6770,2600 L 6830,2600 L 6905,2600 L 6990,2600 L 6990,2360 L 6905,2360 L 6830,2360 L 6770,2360 L 6695,2360 L 6645,2360 Z" /><path d="M 5830,2360 L 5830,2600 L 5915,2600 L 5990,2600 L 6050,2600 L 6125,2600 L 6174,2600 L 6174,2360 L 6125,2360 L 6050,2360 L 5990,2360 L 5915,2360 Z" /><path d="M 4010,2360 L 4010,2600 L 4095,2600 L 4170,2600 L 4230,2600 L 4305,2600 L 4390,2600 L 4390,2360 L 4305,2360 L 4230,2360 L 4170,2360 L 4095,2360 Z" /><path d="M 3055,2360 L 3005,2360 L 2930,2360 L 2870,2360 L 2795,2360 L 2745,2360 L 2670,2360 L 2610,2360 L 2535,2360 L 2450,2360 L 2450,2600 L 2535,2600 L 2610,2600 L 2670,2600 L 2745,2600 L 2795,2600 L 2870,2600 L 2930,2600 L 3005,2600 L 3055,2600 L 3130,2600 L 3190,2600 L 3265,2600 L 3315,2600 L 3390,2600 L 3450,2600 L 3525,2600 L 3575,2600 L 3650,2600 L 3710,2600 L 3785,2600 L 3870,2600 L 3870,2360 L 3785,2360 L 3710,2360 L 3650,2360 L 3575,2360 L 3525,2360 L 3450,2360 L 3390,2360 L 3315,2360 L 3265,2360 L 3190,2360 L 3130,2360 Z" /><path d="M 5470,1130 L 5530,1130 L 5605,1130 L 5690,1130 L 5690,770 L 5605,770 L 5530,770 L 5470,770 L 5395,770 L 5345,770 L 5270,770 L 5210,770 L 5135,770 L 5085,770 L 5010,770 L 4950,770 L 4875,770 L 4825,770 L 4750,770 L 4690,770 L 4615,770 L 4530,770 L 4530,1130 L 4615,1130 L 4690,1130 L 4750,1130 L 4825,1130 L 4875,1130 L 4950,1130 L 5010,1130 L 5085,1130 L 5135,1130 L 5210,1130 L 5270,1130 L 5345,1130 L 5395,1130 Z" /><path d="M 3005,1010 L 3005,1130 L 3055,1130 L 3130,1130 L 3190,1130 L 3265,1130 L 3315,1130 L 3390,1130 L 3450,1130 L 3525,1130 L 3575,1130 L 3650,1130 L 3710,1130 L 3785,1130 L 3870,1130 L 3870,770 L 3785,770 L 3710,770 L 3650,770 L 3575,770 L 3525,770 L 3450,770 L 3390,770 L 3315,770 L 3265,770 L 3190,770 L 3130,770 L 3055,770 L 3005,770 L 2930,770 L 2870,770 L 2795,770 L 2745,770 L 2670,770 L 2610,770 L 2535,770 L 2450,770 L 2450,1010 L 2535,1010 L 2610,1010 L 2670,1010 L 2745,1010 L 2795,1010 L 2870,1010 L 2930,1010 Z" /><path d="M 5470,2600 L 5530,2600 L 5605,2600 L 5690,2600 L 5690,2120 L 5605,2120 L 5530,2120 L 5470,2120 L 5395,2120 L 5345,2120 L 5270,2120 L 5210,2120 L 5135,2120 L 5085,2120 L 5010,2120 L 4950,2120 L 4875,2120 L 4825,2120 L 4750,2120 L 4690,2120 L 4615,2120 L 4530,2120 L 4530,2600 L 4615,2600 L 4690,2600 L 4750,2600 L 4825,2600 L 4875,2600 L 4950,2600 L 5010,2600 L 5085,2600 L 5135,2600 L 5210,2600 L 5270,2600 L 5345,2600 L 5395,2600 Z" /><path d="M 850,890 L 925,890 L 975,890 L 1050,890 L 1110,890 L 1185,890 L 1235,890 L 1310,890 L 1370,890 L 1445,890 L 1545,890 L 1545,770 L 1445,770 L 1370,770 L 1310,770 L 1235,770 L 1185,770 L 1110,770 L 1050,770 L 975,770 L 925,770 L 850,770 L 790,770 L 715,770 L 665,770 L 590,770 L 530,770 L 455,770 L 355,770 L 355,890 L 455,890 L 530,890 L 590,890 L 665,890 L 715,890 L 790,890 Z" /><path d="M 2015,1010 L 2090,1010 L 2150,1010 L 2225,1010 L 2310,1010 L 2310,770 L 2225,770 L 2150,770 L 2090,770 L 2015,770 L 1965,770 L 1890,770 L 1830,770 L 1755,770 L 1670,770 L 1670,1010 L 1755,1010 L 1830,1010 L 1890,1010 L 1965,1010 Z" /><path d="M 2310,2360 L 2225,2360 L 2150,2360 L 2090,2360 L 2015,2360 L 1965,2360 L 1890,2360 L 1830,2360 L 1755,2360 L 1670,2360 L 1670,2600 L 1755,2600 L 1830,2600 L 1890,2600 L 1965,2600 L 2015,2600 L 2090,2600 L 2150,2600 L 2225,2600 L 2310,2600 Z" /></g></g><g id="PO"><g class="l17d0"><path d="M 2670,1010 L 2670,770 L 2670,630 L 2610,630 L 2610,770 L 2610,1010 L 2610,1150 L 2610,1505 L 2585,1505 L 2585,1675 L 2610,1675 L 2610,2220 L 2610,2360 L 2610,2600 L 2610,2740 L 2670,2740 L 2670,2600 L 2670,2360 L 2670,2220 L 2670,1675 L 2695,1675 L 2695,1505 L 2670,1505 L 2670,1150 Z" /><path d="M 4230,1010 L 4230,770 L 4230,630 L 4170,630 L 4170,770 L 4170,1010 L 4170,1150 L 4170,1400 L 4170,2110 L 4145,2110 L 4145,2280 L 4170,2280 L 4170,2360 L 4170,2600 L 4170,2740 L 4230,2740 L 4230,2600 L 4230,2360 L 4230,2280 L 4255,2280 L 4255,2110 L 4230,2110 L 4230,1400 L 4230,1150 Z" /><path d="M 2870,2360 L 2870,2600 L 2870,2740 L 2930,2740 L 2930,2600 L 2930,2360 L 2930,2220 L 2930,2055 L 2955,2055 L 2955,1885 L 2930,1885 L 2930,1150 L 2930,1010 L 2930,770 L 2930,630 L 2870,630 L 2870,770 L 2870,1010 L 2870,1150 L 2870,1885 L 2845,1885 L 2845,2055 L 2870,2055 L 2870,2220 Z" /><path d="M 3130,2360 L 3130,2600 L 3130,2740 L 3190,2740 L 3190,2600 L 3190,2360 L 3190,2220 L 3190,1865 L 3220,1865 L 3220,1695 L 3190,1695 L 3190,1270 L 3190,1130 L 3190,770 L 3190,630 L 3130,630 L 3130,770 L 3130,1130 L 3130,1270 L 3130,1695 L 3100,1695 L 3100,1865 L 3130,1865 L 3130,2220 Z" /><path d="M 4750,1130 L 4750,770 L 4750,630 L 4690,630 L 4690,770 L 4690,1130 L 4690,1270 L 4690,1315 L 4660,1315 L 4660,1485 L 4690,1485 L 4690,1980 L 4690,2120 L 4690,2600 L 4690,2740 L 4750,2740 L 4750,2600 L 4750,2120 L 4750,1980 L 4750,1485 L 4780,1485 L 4780,1315 L 4750,1315 L 4750,1270 Z" /><path d="M 5010,1270 L 5010,1130 L 5010,770 L 5010,630 L 4950,630 L 4950,770 L 4950,1130 L 4950,1270 L 4950,1695 L 4920,1695 L 4920,1865 L 4950,1865 L 4950,1980 L 4950,2120 L 4950,2600 L 4950,2740 L 5010,2740 L 5010,2600 L 5010,2120 L 5010,1980 L 5009,1980 L 5009,1865 L 5040,1865 L 5040,1695 L 5009,1695 L 5009,1270 Z" /><path d="M 3650,2360 L 3650,2600 L 3650,2740 L 3710,2740 L 3710,2600 L 3710,2360 L 3710,2220 L 3710,1865 L 3740,1865 L 3740,1695 L 3710,1695 L 3710,1270 L 3710,1130 L 3710,770 L 3710,630 L 3650,630 L 3650,770 L 3650,1130 L 3650,1270 L 3650,1695 L 3620,1695 L 3620,1865 L 3650,1865 L 3650,2220 Z" /><path d="M 3390,2360 L 3390,2600 L 3390,2740 L 3450,2740 L 3450,2600 L 3450,2360 L 3450,2220 L 3450,1485 L 3480,1485 L 3480,1315 L 3450,1315 L 3450,1270 L 3450,1130 L 3450,770 L 3450,630 L 3390,630 L 3390,770 L 3390,1130 L 3390,1270 L 3390,1315 L 3360,1315 L 3360,1485 L 3390,1485 L 3390,2220 Z" /><path d="M 5530,1270 L 5530,1130 L 5530,770 L 5530,630 L 5470,630 L 5470,770 L 5470,1130 L 5470,1270 L 5470,1505 L 5440,1505 L 5440,1675 L 5470,1675 L 5470,1980 L 5470,2120 L 5470,2600 L 5470,2740 L 5530,2740 L 5530,2600 L 5530,2120 L 5530,1980 L 5529,1980 L 5529,1675 L 5560,1675 L 5560,1505 L 5529,1505 L 5529,1270 Z" /><path d="M 6570,1010 L 6570,770 L 6570,630 L 6510,630 L 6510,770 L 6510,1010 L 6510,1150 L 6510,2110 L 6480,2110 L 6480,2280 L 6510,2280 L 6510,2360 L 6510,2600 L 6510,2740 L 6570,2740 L 6570,2600 L 6570,2360 L 6570,2280 L 6600,2280 L 6600,2110 L 6570,2110 L 6570,1150 Z" /><path d="M 5270,1130 L 5270,770 L 5270,630 L 5210,630 L 5210,770 L 5210,1130 L 5210,1270 L 5210,1885 L 5180,1885 L 5180,2055 L 5210,2055 L 5210,2120 L 5210,2600 L 5210,2740 L 5270,2740 L 5270,2600 L 5270,2120 L 5270,2055 L 5300,2055 L 5300,1885 L 5270,1885 L 5270,1270 Z" /><path d="M 6770,2220 L 6770,2360 L 6770,2600 L 6770,2740 L 6830,2740 L 6830,2600 L 6830,2360 L 6830,2220 L 6830,1865 L 6860,1865 L 6860,1695 L 6830,1695 L 6830,1150 L 6830,1010 L 6830,770 L 6830,630 L 6770,630 L 6770,770 L 6770,1010 L 6770,1150 L 6769,1150 L 6769,1695 L 6740,1695 L 6740,1865 L 6769,1865 L 6769,2220 Z" /><path d="M 6310,1010 L 6310,770 L 6310,630 L 6250,630 L 6250,770 L 6250,1010 L 6250,1150 L 6250,1505 L 6220,1505 L 6220,1675 L 6250,1675 L 6250,2220 L 6250,2360 L 6250,2600 L 6250,2740 L 6310,2740 L 6310,2600 L 6310,2360 L 6310,2220 L 6310,1675 L 6340,1675 L 6340,1505 L 6310,1505 L 6310,1150 Z" /><path d="M 6050,1150 L 6050,1010 L 6050,770 L 6050,630 L 5990,630 L 5990,770 L 5990,1010 L 5990,1150 L 5990,1885 L 5960,1885 L 5960,2055 L 5990,2055 L 5990,2220 L 5990,2360 L 5990,2600 L 5990,2740 L 6050,2740 L 6050,2600 L 6050,2360 L 6050,2220 L 6049,2220 L 6049,2055 L 6080,2055 L 6080,1885 L 6049,1885 L 6049,1150 Z" /><path d="M 2090,1150 L 2090,1315 L 2065,1315 L 2065,1485 L 2090,1485 L 2090,2220 L 2090,2360 L 2090,2600 L 2090,2740 L 2150,2740 L 2150,2600 L 2150,2360 L 2150,2220 L 2150,1485 L 2175,1485 L 2175,1315 L 2150,1315 L 2150,1150 L 2150,1010 L 2150,770 L 2150,700 L 2150,630 L 2090,630 L 2090,700 L 2090,770 L 2090,1010 Z" /><path d="M 1890,1010 L 1890,770 L 1890,700 L 1890,630 L 1830,630 L 1830,700 L 1830,770 L 1830,1010 L 1830,1125 L 1805,1125 L 1805,1295 L 1830,1295 L 1830,2220 L 1830,2360 L 1830,2600 L 1830,2740 L 1890,2740 L 1890,2600 L 1890,2360 L 1890,2220 L 1890,1295 L 1915,1295 L 1915,1125 L 1890,1125 Z" /><path d="M 1110,890 L 1110,770 L 1110,630 L 1050,630 L 1050,770 L 1050,890 L 1050,1030 L 1050,1315 L 1025,1315 L 1025,1485 L 1050,1485 L 1050,1590 L 1050,1980 L 1050,2120 L 1050,2600 L 1050,2740 L 1110,2740 L 1110,2600 L 1110,2120 L 1110,1980 L 1110,1590 L 1110,1485 L 1135,1485 L 1135,1315 L 1110,1315 L 1110,1030 Z" /><path d="M 1310,1980 L 1310,2120 L 1310,2600 L 1310,2740 L 1370,2740 L 1370,2600 L 1370,2120 L 1370,1980 L 1370,1780 L 1370,1675 L 1395,1675 L 1395,1505 L 1370,1505 L 1370,1030 L 1370,890 L 1370,770 L 1370,630 L 1310,630 L 1310,770 L 1310,890 L 1310,1030 L 1310,1505 L 1285,1505 L 1285,1675 L 1310,1675 L 1310,1780 Z" /><path d="M 790,2120 L 790,2600 L 790,2740 L 850,2740 L 850,2600 L 850,2120 L 850,1980 L 850,1865 L 875,1865 L 875,1695 L 850,1695 L 850,1030 L 850,890 L 850,770 L 850,630 L 790,630 L 790,770 L 790,890 L 790,1030 L 790,1695 L 765,1695 L 765,1865 L 790,1865 L 790,1980 Z" /><path d="M 590,1030 L 590,890 L 590,770 L 590,630 L 530,630 L 530,770 L 530,890 L 530,1030 L 530,1885 L 505,1885 L 505,2055 L 530,2055 L 530,2120 L 530,2600 L 530,2740 L 590,2740 L 590,2600 L 590,2120 L 590,2055 L 615,2055 L 615,1885 L 590,1885 Z" /></g></g><g id="CO"><g class="l30d0"><path d="M 1425,785 L 1515,785 L 1515,875 L 1425,875 Z" /><path d="M 2205,845 L 2295,845 L 2295,935 L 2205,935 Z" /><path d="M 1685,845 L 1775,845 L 1775,935 L 1685,935 Z" /><path d="M 2205,2435 L 2295,2435 L 2295,2525 L 2205,2525 Z" /><path d="M 1945,2435 L 2035,2435 L 2035,2525 L 1945,2525 Z" /><path d="M 1685,2435 L 1775,2435 L 1775,2525 L 1685,2525 Z" /><path d="M 905,2150 L 995,2150 L 995,2240 L 905,2240 Z" /><path d="M 905,2480 L 995,2480 L 995,2570 L 905,2570 Z" /><path d="M 905,785 L 995,785 L 995,875 L 905,875 Z" /><path d="M 385,785 L 475,785 L 475,875 L 385,875 Z" /><path d="M 1165,785 L 1255,785 L 1255,875 L 1165,875 Z" /><path d="M 645,785 L 735,785 L 735,875 L 645,875 Z" /><path d="M 1425,2480 L 1515,2480 L 1515,2570 L 1425,2570 Z" /><path d="M 1425,2150 L 1515,2150 L 1515,2240 L 1425,2240 Z" /><path d="M 385,2150 L 475,2150 L 475,2240 L 385,2240 Z" /><path d="M 385,2480 L 475,2480 L 475,2570 L 385,2570 Z" /><path d="M 2205,170 L 2295,170 L 2295,260 L 2205,260 Z" /><path d="M 1945,170 L 2035,170 L 2035,260 L 1945,260 Z" /><path d="M 1685,170 L 1775,170 L 1775,260 L 1685,260 Z" /><path d="M 1425,170 L 1515,170 L 1515,260 L 1425,260 Z" /><path d="M 385,170 L 475,170 L 475,260 L 385,260 Z" /><path d="M 645,170 L 735,170 L 735,260 L 645,260 Z" /><path d="M 905,170 L 995,170 L 995,260 L 905,260 Z" /><path d="M 1165,170 L 1255,170 L 1255,260 L 1165,260 Z" /><path d="M 2205,3110 L 2295,3110 L 2295,3200 L 2205,3200 Z" /><path d="M 1945,3110 L 2035,3110 L 2035,3200 L 1945,3200 Z" /><path d="M 1685,3110 L 1775,3110 L 1775,3200 L 1685,3200 Z" /><path d="M 1425,3110 L 1515,3110 L 1515,3200 L 1425,3200 Z" /><path d="M 1165,3110 L 1255,3110 L 1255,3200 L 1165,3200 Z" /><path d="M 905,3110 L 995,3110 L 995,3200 L 905,3200 Z" /><path d="M 645,3110 L 735,3110 L 735,3200 L 645,3200 Z" /><path d="M 385,3110 L 475,3110 L 475,3200 L 385,3200 Z" /><path d="M 4025,845 L 4115,845 L 4115,935 L 4025,935 Z" /><path d="M 5325,2480 L 5415,2480 L 5415,2570 L 5325,2570 Z" /><path d="M 4805,2480 L 4895,2480 L 4895,2570 L 4805,2570 Z" /><path d="M 6625,2435 L 6715,2435 L 6715,2525 L 6625,2525 Z" /><path d="M 6365,2435 L 6455,2435 L 6455,2525 L 6365,2525 Z" /><path d="M 6105,2435 L 6195,2435 L 6195,2525 L 6105,2525 Z" /><path d="M 5065,2150 L 5155,2150 L 5155,2240 L 5065,2240 Z" /><path d="M 5065,2480 L 5155,2480 L 5155,2570 L 5065,2570 Z" /><path d="M 6885,170 L 6975,170 L 6975,260 L 6885,260 Z" /><path d="M 6625,170 L 6715,170 L 6715,260 L 6625,260 Z" /><path d="M 6365,170 L 6455,170 L 6455,260 L 6365,260 Z" /><path d="M 6105,170 L 6195,170 L 6195,260 L 6105,260 Z" /><path d="M 5845,170 L 5935,170 L 5935,260 L 5845,260 Z" /><path d="M 5585,170 L 5675,170 L 5675,260 L 5585,260 Z" /><path d="M 5325,170 L 5415,170 L 5415,260 L 5325,260 Z" /><path d="M 5065,170 L 5155,170 L 5155,260 L 5065,260 Z" /><path d="M 4805,170 L 4895,170 L 4895,260 L 4805,260 Z" /><path d="M 4545,170 L 4635,170 L 4635,260 L 4545,260 Z" /><path d="M 4285,170 L 4375,170 L 4375,260 L 4285,260 Z" /><path d="M 4025,170 L 4115,170 L 4115,260 L 4025,260 Z" /><path d="M 3765,170 L 3855,170 L 3855,260 L 3765,260 Z" /><path d="M 3505,170 L 3595,170 L 3595,260 L 3505,260 Z" /><path d="M 3245,170 L 3335,170 L 3335,260 L 3245,260 Z" /><path d="M 2985,170 L 3075,170 L 3075,260 L 2985,260 Z" /><path d="M 2725,170 L 2815,170 L 2815,260 L 2725,260 Z" /><path d="M 2465,170 L 2555,170 L 2555,260 L 2465,260 Z" /><path d="M 6885,3110 L 6975,3110 L 6975,3200 L 6885,3200 Z" /><path d="M 2725,2435 L 2815,2435 L 2815,2525 L 2725,2525 Z" /><path d="M 3505,2435 L 3595,2435 L 3595,2525 L 3505,2525 Z" /><path d="M 3245,2435 L 3335,2435 L 3335,2525 L 3245,2525 Z" /><path d="M 2985,2435 L 3075,2435 L 3075,2525 L 2985,2525 Z" /><path d="M 3505,3110 L 3595,3110 L 3595,3200 L 3505,3200 Z" /><path d="M 2465,3110 L 2555,3110 L 2555,3200 L 2465,3200 Z" /><path d="M 2725,3110 L 2815,3110 L 2815,3200 L 2725,3200 Z" /><path d="M 2985,3110 L 3075,3110 L 3075,3200 L 2985,3200 Z" /><path d="M 3245,3110 L 3335,3110 L 3335,3200 L 3245,3200 Z" /><path d="M 6625,3110 L 6715,3110 L 6715,3200 L 6625,3200 Z" /><path d="M 5325,3110 L 5415,3110 L 5415,3200 L 5325,3200 Z" /><path d="M 5585,3110 L 5675,3110 L 5675,3200 L 5585,3200 Z" /><path d="M 5845,3110 L 5935,3110 L 5935,3200 L 5845,3200 Z" /><path d="M 6105,3110 L 6195,3110 L 6195,3200 L 6105,3200 Z" /><path d="M 6365,3110 L 6455,3110 L 6455,3200 L 6365,3200 Z" /><path d="M 4285,2435 L 4375,2435 L 4375,2525 L 4285,2525 Z" /><path d="M 5065,3110 L 5155,3110 L 5155,3200 L 5065,3200 Z" /><path d="M 3765,3110 L 3855,3110 L 3855,3200 L 3765,3200 Z" /><path d="M 4025,3110 L 4115,3110 L 4115,3200 L 4025,3200 Z" /><path d="M 4285,3110 L 4375,3110 L 4375,3200 L 4285,3200 Z" /><path d="M 4545,3110 L 4635,3110 L 4635,3200 L 4545,3200 Z" /><path d="M 4805,3110 L 4895,3110 L 4895,3200 L 4805,3200 Z" /><path d="M 6885,845 L 6975,845 L 6975,935 L 6885,935 Z" /><path d="M 5845,845 L 5935,845 L 5935,935 L 5845,935 Z" /><path d="M 5585,1010 L 5675,1010 L 5675,1100 L 5585,1100 Z" /><path d="M 5585,800 L 5675,800 L 5675,890 L 5585,890 Z" /><path d="M 4805,800 L 4895,800 L 4895,890 L 4805,890 Z" /><path d="M 4545,800 L 4635,800 L 4635,890 L 4545,890 Z" /><path d="M 4285,845 L 4375,845 L 4375,935 L 4285,935 Z" /><path d="M 3765,1010 L 3855,1010 L 3855,1100 L 3765,1100 Z" /><path d="M 3765,800 L 3855,800 L 3855,890 L 3765,890 Z" /><path d="M 6365,845 L 6455,845 L 6455,935 L 6365,935 Z" /><path d="M 2465,845 L 2555,845 L 2555,935 L 2465,935 Z" /><path d="M 2465,2435 L 2555,2435 L 2555,2525 L 2465,2525 Z" /><path d="M 6885,2435 L 6975,2435 L 6975,2525 L 6885,2525 Z" /><path d="M 5845,2435 L 5935,2435 L 5935,2525 L 5845,2525 Z" /><path d="M 5585,2150 L 5675,2150 L 5675,2240 L 5585,2240 Z" /><path d="M 4805,1010 L 4895,1010 L 4895,1100 L 4805,1100 Z" /><path d="M 4545,2435 L 4635,2435 L 4635,2525 L 4545,2525 Z" /><path d="M 4025,2435 L 4115,2435 L 4115,2525 L 4025,2525 Z" /><path d="M 3765,2435 L 3855,2435 L 3855,2525 L 3765,2525 Z" /><path d="M 4545,1010 L 4635,1010 L 4635,1100 L 4545,1100 Z" /><path d="M 2985,845 L 3075,845 L 3075,935 L 2985,935 Z" /><path d="M 5585,2480 L 5675,2480 L 5675,2570 L 5585,2570 Z" /><path d="M 2595,1545 L 2685,1545 L 2685,1635 L 2595,1635 Z" /><path d="M 4155,2150 L 4245,2150 L 4245,2240 L 4155,2240 Z" /><path d="M 2855,1925 L 2945,1925 L 2945,2015 L 2855,2015 Z" /><path d="M 3115,1735 L 3205,1735 L 3205,1825 L 3115,1825 Z" /><path d="M 4675,1355 L 4765,1355 L 4765,1445 L 4675,1445 Z" /><path d="M 4935,1735 L 5025,1735 L 5025,1825 L 4935,1825 Z" /><path d="M 3635,1735 L 3725,1735 L 3725,1825 L 3635,1825 Z" /><path d="M 3375,1355 L 3465,1355 L 3465,1445 L 3375,1445 Z" /><path d="M 5455,1545 L 5545,1545 L 5545,1635 L 5455,1635 Z" /><path d="M 6495,2150 L 6585,2150 L 6585,2240 L 6495,2240 Z" /><path d="M 5195,1925 L 5285,1925 L 5285,2015 L 5195,2015 Z" /><path d="M 6755,1735 L 6845,1735 L 6845,1825 L 6755,1825 Z" /><path d="M 6235,1545 L 6325,1545 L 6325,1635 L 6235,1635 Z" /><path d="M 5975,1925 L 6065,1925 L 6065,2015 L 5975,2015 Z" /><path d="M 2075,1355 L 2165,1355 L 2165,1445 L 2075,1445 Z" /><path d="M 1815,1165 L 1905,1165 L 1905,1255 L 1815,1255 Z" /><path d="M 1035,1355 L 1125,1355 L 1125,1445 L 1035,1445 Z" /><path d="M 1295,1545 L 1385,1545 L 1385,1635 L 1295,1635 Z" /><path d="M 775,1735 L 865,1735 L 865,1825 L 775,1825 Z" /><path d="M 515,1925 L 605,1925 L 605,2015 L 515,2015 Z" /></g></g><g id="M1"><g class="l31d0"><path d="M 5320,2575 L 5320,2700 L 4900,2700 L 4900,2575 L 4900,2440 L 4800,2440 L 4800,2575 L 4800,2700 L 4800,2800 L 4900,2800 L 5320,2800 L 5420,2800 L 5420,2700 L 5420,2575 L 5420,2440 L 5320,2440 Z" /><path d="M 2370,3060 L 2300,3060 L 2300,2530 L 2300,2395 L 2200,2395 L 2200,2530 L 2200,3060 L 1780,3060 L 1780,2530 L 1780,2395 L 1680,2395 L 1680,2530 L 1680,3060 L 1000,3060 L 1000,2245 L 1000,2110 L 900,2110 L 900,2245 L 900,3060 L 290,3060 L 290,3250 L 2370,3250 L 2390,3250 L 7070,3250 L 7070,3060 L 6980,3060 L 6980,2530 L 6980,2395 L 6880,2395 L 6880,2530 L 6880,3060 L 6460,3060 L 6460,2530 L 6460,2395 L 6360,2395 L 6360,2530 L 6360,3060 L 5940,3060 L 5940,2530 L 5940,2395 L 5840,2395 L 5840,2530 L 5840,3060 L 4640,3060 L 4640,2530 L 4640,2395 L 4540,2395 L 4540,2530 L 4540,3060 L 4120,3060 L 4120,2530 L 4120,2395 L 4020,2395 L 4020,2530 L 4020,3060 L 3600,3060 L 3600,2530 L 3600,2395 L 3500,2395 L 3500,2530 L 3500,3060 L 3080,3060 L 3080,2530 L 3080,2395 L 2980,2395 L 2980,2530 L 2980,3060 L 2560,3060 L 2560,2530 L 2560,2395 L 2460,2395 L 2460,2530 L 2460,3060 L 2390,3060 Z" /><path d="M 1420,310 L 1420,915 L 1520,915 L 1520,310 L 2200,310 L 2200,840 L 2200,975 L 2300,975 L 2300,840 L 2300,310 L 2370,310 L 2390,310 L 2980,310 L 2980,840 L 2980,975 L 3080,975 L 3080,840 L 3080,310 L 4020,310 L 4020,840 L 4020,975 L 4120,975 L 4120,840 L 4120,310 L 4540,310 L 4540,1005 L 4540,1140 L 4640,1140 L 4640,1005 L 4640,310 L 5580,310 L 5580,795 L 5580,1140 L 5680,1140 L 5680,795 L 5680,310 L 6360,310 L 6360,840 L 6360,975 L 6460,975 L 6460,840 L 6460,310 L 7070,310 L 7070,120 L 2390,120 L 2370,120 L 290,120 L 290,310 L 380,310 L 380,780 L 380,915 L 480,915 L 480,780 L 480,310 L 900,310 L 900,915 L 1000,915 L 1000,310 Z" /><path d="M 4280,2390 L 4280,2570 L 4280,2810 L 4380,2810 L 4380,2570 L 4380,2390 Z" /><path d="M 4380,680 L 4280,680 L 4280,800 L 4280,980 L 4280,1100 L 4380,1100 L 4380,980 L 4380,800 Z" /><path d="M 3860,720 L 3760,720 L 3760,860 L 3760,1040 L 3760,1140 L 3860,1140 L 3860,1040 L 3860,860 Z" /><path d="M 2720,2390 L 2720,2570 L 2720,2810 L 2820,2810 L 2820,2570 L 2820,2390 Z" /><path d="M 6100,2390 L 6100,2570 L 6100,2810 L 6200,2810 L 6200,2570 L 6200,2390 Z" /><path d="M 6620,2390 L 6620,2570 L 6620,2810 L 6720,2810 L 6720,2570 L 6720,2390 Z" /><path d="M 4900,720 L 4800,720 L 4800,860 L 4800,1040 L 4800,1140 L 4900,1140 L 4900,1040 L 4900,860 Z" /><path d="M 2425,940 L 2680,940 L 2770,940 L 2860,940 L 2860,840 L 2770,840 L 2680,840 L 2425,840 Z" /><path d="M 5805,940 L 5940,940 L 6060,940 L 6150,940 L 6240,940 L 6240,840 L 6150,840 L 6060,840 L 5940,840 L 5805,840 Z" /><path d="M 7015,840 L 6880,840 L 6760,840 L 6670,840 L 6580,840 L 6580,940 L 6670,940 L 6760,940 L 6880,940 L 7015,940 Z" /><path d="M 2825,1730 L 2825,1830 L 3075,1830 L 3245,1830 L 3245,1730 L 3075,1730 Z" /><path d="M 4510,1350 L 4510,1450 L 4635,1450 L 4805,1450 L 4930,1450 L 4930,1350 L 4805,1350 L 4635,1350 Z" /><path d="M 4830,1830 L 4895,1830 L 5020,1830 L 5065,1830 L 5200,1830 L 5250,1830 L 5250,1730 L 5200,1730 L 5065,1730 L 5020,1730 L 4895,1730 L 4830,1730 Z" /><path d="M 3355,1830 L 3460,1830 L 3595,1830 L 3640,1830 L 3765,1830 L 3775,1830 L 3775,1730 L 3765,1730 L 3640,1730 L 3595,1730 L 3460,1730 L 3355,1730 Z" /><path d="M 3335,1450 L 3420,1450 L 3505,1450 L 3505,1350 L 3420,1350 L 3335,1350 L 2860,1350 L 2770,1350 L 2680,1350 L 2680,1450 L 2770,1450 L 2860,1450 Z" /><path d="M 2725,1540 L 2640,1540 L 2555,1540 L 2555,1640 L 2640,1640 L 2725,1640 L 4240,1640 L 4330,1640 L 4420,1640 L 5415,1640 L 5500,1640 L 5585,1640 L 5585,1540 L 5500,1540 L 5415,1540 L 4420,1540 L 4330,1540 L 4240,1540 Z" /><path d="M 5025,2245 L 5060,2245 L 5060,2475 L 5060,2610 L 5160,2610 L 5160,2475 L 5160,2245 L 5580,2245 L 5580,2475 L 5580,2610 L 5680,2610 L 5680,2475 L 5680,2245 L 5715,2245 L 5715,2244 L 6455,2244 L 6455,2245 L 6625,2245 L 6625,2145 L 6540,2145 L 6455,2145 L 5715,2145 L 5025,2145 L 4940,2145 L 4850,2145 L 4760,2145 L 4285,2145 L 4200,2145 L 4115,2145 L 4115,2245 L 4285,2245 L 4285,2244 L 4760,2244 L 4760,2245 L 4940,2245 L 4940,2244 L 5025,2244 Z" /><path d="M 6715,1730 L 6240,1730 L 6150,1730 L 6060,1730 L 6060,1830 L 6150,1830 L 6240,1830 L 6715,1830 L 6800,1830 L 6885,1830 L 6885,1730 L 6800,1730 Z" /><path d="M 6365,1640 L 6580,1640 L 6670,1640 L 6760,1640 L 6760,1540 L 6670,1540 L 6580,1540 L 6365,1540 L 6280,1540 L 6195,1540 L 6195,1640 L 6280,1640 Z" /><path d="M 5155,2020 L 5325,2020 L 5935,2020 L 6020,2020 L 6105,2020 L 6105,1920 L 6020,1920 L 5935,1920 L 5325,1920 L 5155,1920 L 3900,1920 L 3810,1920 L 3720,1920 L 2985,1920 L 2900,1920 L 2815,1920 L 2815,2020 L 2900,2020 L 2985,2020 L 3240,2020 L 3240,2565 L 3340,2565 L 3340,2020 L 3720,2020 L 3760,2020 L 3760,2565 L 3860,2565 L 3860,2020 L 3900,2020 Z" /><path d="M 480,2475 L 480,2450 L 480,2360 L 480,2270 L 480,2245 L 480,2110 L 380,2110 L 380,2245 L 380,2270 L 380,2360 L 380,2450 L 380,2475 L 380,2610 L 480,2610 Z" /><path d="M 1420,2245 L 1420,2270 L 1420,2360 L 1420,2450 L 1420,2475 L 1420,2610 L 1520,2610 L 1520,2475 L 1520,2450 L 1520,2360 L 1520,2270 L 1520,2245 L 1520,2110 L 1420,2110 Z" /><path d="M 1780,560 L 1680,560 L 1680,800 L 1680,980 L 1780,980 L 1780,800 Z" /><path d="M 1940,2390 L 1940,2570 L 1940,2810 L 2040,2810 L 2040,2570 L 2040,2390 Z" /><path d="M 1260,500 L 1160,500 L 1160,740 L 1160,920 L 1260,920 L 1260,740 Z" /><path d="M 740,500 L 640,500 L 640,740 L 640,920 L 740,920 L 740,740 Z" /><path d="M 1560,1450 L 2035,1450 L 2120,1450 L 2205,1450 L 2205,1350 L 2120,1350 L 2035,1350 L 1560,1350 L 1470,1350 L 1380,1350 L 1380,1450 L 1470,1450 Z" /><path d="M 520,1260 L 1775,1260 L 1860,1260 L 1945,1260 L 1945,1160 L 1860,1160 L 1775,1160 L 520,1160 L 390,1160 L 340,1160 L 340,1260 L 390,1260 Z" /><path d="M 1120,1540 L 1120,1640 L 1255,1640 L 1300,1640 L 1425,1640 L 1540,1640 L 1540,1540 L 1425,1540 L 1300,1540 L 1255,1540 Z" /><path d="M 780,1350 L 780,1450 L 860,1450 L 995,1450 L 1040,1450 L 1165,1450 L 1200,1450 L 1200,1350 L 1165,1350 L 1040,1350 L 995,1350 L 860,1350 Z" /><path d="M 540,1730 L 540,1830 L 735,1830 L 860,1830 L 905,1830 L 960,1830 L 1040,1830 L 1040,1730 L 960,1730 L 905,1730 L 860,1730 L 735,1730 Z" /><path d="M 425,1920 L 425,2020 L 475,2020 L 600,2020 L 645,2020 L 780,2020 L 845,2020 L 845,1920 L 780,1920 L 645,1920 L 600,1920 L 475,1920 Z" /></g></g><g id="VIA1"><g class="l51d0"><path d="M 4280,2430 L 4380,2430 L 4380,2530 L 4280,2530 Z" /><path d="M 4280,840 L 4380,840 L 4380,940 L 4280,940 Z" /><path d="M 3760,900 L 3860,900 L 3860,1000 L 3760,1000 Z" /><path d="M 2720,2430 L 2820,2430 L 2820,2530 L 2720,2530 Z" /><path d="M 6100,2430 L 6200,2430 L 6200,2530 L 6100,2530 Z" /><path d="M 6620,2430 L 6720,2430 L 6720,2530 L 6620,2530 Z" /><path d="M 4800,900 L 4900,900 L 4900,1000 L 4800,1000 Z" /><path d="M 3500,1730 L 3600,1730 L 3600,1830 L 3500,1830 Z" /><path d="M 5060,1730 L 5160,1730 L 5160,1830 L 5060,1830 Z" /><path d="M 4280,1540 L 4380,1540 L 4380,1640 L 4280,1640 Z" /><path d="M 3760,1920 L 3860,1920 L 3860,2020 L 3760,2020 Z" /><path d="M 2720,1350 L 2820,1350 L 2820,1450 L 2720,1450 Z" /><path d="M 2720,840 L 2820,840 L 2820,940 L 2720,940 Z" /><path d="M 6620,1540 L 6720,1540 L 6720,1640 L 6620,1640 Z" /><path d="M 6100,1730 L 6200,1730 L 6200,1830 L 6100,1830 Z" /><path d="M 6100,840 L 6200,840 L 6200,940 L 6100,940 Z" /><path d="M 6620,840 L 6720,840 L 6720,940 L 6620,940 Z" /><path d="M 4800,2145 L 4900,2145 L 4900,2245 L 4800,2245 Z" /><path d="M 380,2310 L 480,2310 L 480,2410 L 380,2410 Z" /><path d="M 1420,2310 L 1520,2310 L 1520,2410 L 1420,2410 Z" /><path d="M 1680,840 L 1780,840 L 1780,940 L 1680,940 Z" /><path d="M 1940,2430 L 2040,2430 L 2040,2530 L 1940,2530 Z" /><path d="M 1160,780 L 1260,780 L 1260,880 L 1160,880 Z" /><path d="M 640,780 L 740,780 L 740,880 L 640,880 Z" /><path d="M 1420,1350 L 1520,1350 L 1520,1450 L 1420,1450 Z" /><path d="M 380,1160 L 480,1160 L 480,1260 L 380,1260 Z" /><path d="M 1160,1540 L 1260,1540 L 1260,1640 L 1160,1640 Z" /><path d="M 900,1350 L 1000,1350 L 1000,1450 L 900,1450 Z" /><path d="M 900,1730 L 1000,1730 L 1000,1830 L 900,1830 Z" /><path d="M 640,1920 L 740,1920 L 740,2020 L 640,2020 Z" /></g></g><g id="M2"><g class="l32d0"><path d="M 4380,890 L 4380,800 L 4280,800 L 4280,890 L 4280,980 L 4280,1500 L 4280,1680 L 4280,2390 L 4280,2480 L 4280,2570 L 4380,2570 L 4380,2480 L 4380,2390 L 4380,1680 L 4380,1500 L 4380,980 Z" /><path d="M 3760,1880 L 3760,1970 L 3760,2060 L 3860,2060 L 3860,1970 L 3860,1880 L 3860,1040 L 3860,950 L 3860,860 L 3760,860 L 3760,950 L 3760,1040 Z" /><path d="M 2820,1400 L 2820,1310 L 2820,980 L 2820,890 L 2820,800 L 2720,800 L 2720,890 L 2720,980 L 2720,1310 L 2720,1400 L 2720,1490 L 2720,2390 L 2720,2480 L 2720,2570 L 2820,2570 L 2820,2480 L 2820,2390 L 2820,1490 Z" /><path d="M 6200,1780 L 6200,1690 L 6200,980 L 6200,890 L 6200,800 L 6100,800 L 6100,890 L 6100,980 L 6100,1690 L 6100,1780 L 6100,1870 L 6100,2390 L 6100,2480 L 6100,2570 L 6200,2570 L 6200,2480 L 6200,2390 L 6200,1870 Z" /><path d="M 6720,1590 L 6720,1500 L 6720,980 L 6720,890 L 6720,800 L 6620,800 L 6620,890 L 6620,980 L 6620,1500 L 6620,1590 L 6620,1680 L 6620,2390 L 6620,2480 L 6620,2570 L 6720,2570 L 6720,2480 L 6720,2390 L 6720,1680 Z" /><path d="M 4800,2105 L 4800,2195 L 4800,2285 L 4900,2285 L 4900,2195 L 4900,2105 L 4900,1040 L 4900,950 L 4900,860 L 4800,860 L 4800,950 L 4800,1040 Z" /><path d="M 5060,1520 L 5060,1690 L 5060,1695 L 5060,1870 L 5060,1875 L 5060,2040 L 5160,2040 L 5160,1875 L 5160,1870 L 5160,1695 L 5160,1690 L 5160,1520 Z" /><path d="M 3500,1520 L 3500,1690 L 3500,1695 L 3500,1870 L 3500,1875 L 3500,2040 L 3600,2040 L 3600,1875 L 3600,1870 L 3600,1695 L 3600,1690 L 3600,1520 Z" /><path d="M 1420,2360 L 1420,2450 L 1520,2450 L 1520,2360 L 1520,2270 L 1520,1490 L 1520,1400 L 1520,1310 L 1520,880 L 1520,780 L 1420,780 L 1300,780 L 1210,780 L 1120,780 L 1120,880 L 1210,880 L 1300,880 L 1420,880 L 1420,1310 L 1420,1400 L 1420,1490 L 1420,2270 Z" /><path d="M 380,2360 L 380,2450 L 480,2450 L 480,2360 L 480,2270 L 480,1300 L 480,1120 L 480,880 L 600,880 L 690,880 L 780,880 L 780,780 L 690,780 L 600,780 L 480,780 L 380,780 L 380,880 L 380,1120 L 380,1300 L 380,2270 Z" /><path d="M 1780,800 L 1680,800 L 1680,890 L 1680,980 L 1680,1695 L 1680,1785 L 1680,1875 L 1680,2430 L 1680,2530 L 1780,2530 L 1900,2530 L 1990,2530 L 2080,2530 L 2080,2430 L 1990,2430 L 1900,2430 L 1780,2430 L 1780,1875 L 1780,1785 L 1780,1695 L 1780,980 L 1780,890 Z" /><path d="M 900,1690 L 900,1695 L 900,1870 L 900,1875 L 900,2210 L 1000,2210 L 1000,1875 L 1000,1870 L 1000,1695 L 1000,1690 Z" /><path d="M 1000,970 L 900,970 L 900,1295 L 900,1310 L 900,1475 L 900,1490 L 1000,1490 L 1000,1475 L 1000,1310 L 1000,1295 Z" /><path d="M 1260,1280 L 1160,1280 L 1160,1495 L 1160,1500 L 1160,1675 L 1160,1680 L 1160,1800 L 1260,1800 L 1260,1680 L 1260,1675 L 1260,1500 L 1260,1495 Z" /><path d="M 640,1880 L 640,1895 L 640,1970 L 640,2060 L 640,2075 L 640,2355 L 740,2355 L 740,2075 L 740,2060 L 740,1970 L 740,1895 L 740,1880 L 740,1835 L 640,1835 Z" /></g></g><g id="VIA2"><g class="l52d0"><path d="M 5060,1735 L 5160,1735 L 5160,1835 L 5060,1835 Z" /><path d="M 3500,1735 L 3600,1735 L 3600,1835 L 3500,1835 Z" /><path d="M 1680,1735 L 1780,1735 L 1780,1835 L 1680,1835 Z" /><path d="M 900,1735 L 1000,1735 L 1000,1835 L 900,1835 Z" /><path d="M 900,1335 L 1000,1335 L 1000,1435 L 900,1435 Z" /><path d="M 1160,1535 L 1260,1535 L 1260,1635 L 1160,1635 Z" /><path d="M 640,1935 L 740,1935 L 740,2035 L 640,2035 Z" /></g></g><g id="M3"><g class="l33d0"><path d="M 1820,1735 L 1730,1735 L 1640,1735 L 1640,1835 L 1730,1835 L 1820,1835 L 3460,1835 L 3500,1835 L 3550,1835 L 3640,1835 L 5020,1835 L 5110,1835 L 5200,1835 L 5200,1735 L 5110,1735 L 5020,1735 L 3640,1735 L 3550,1735 L 3500,1735 L 3460,1735 Z" /><path d="M 860,1735 L 430,1735 L 430,1835 L 860,1835 L 950,1835 L 1040,1835 L 1040,1735 L 950,1735 Z" /><path d="M 860,1335 L 430,1335 L 430,1435 L 860,1435 L 950,1435 L 1040,1435 L 1040,1335 L 950,1335 Z" /><path d="M 1120,1535 L 430,1535 L 430,1635 L 1120,1635 L 1210,1635 L 1300,1635 L 1300,1535 L 1210,1535 Z" /><path d="M 430,2035 L 600,2035 L 740,2035 L 780,2035 L 950,2035 L 950,1935 L 780,1935 L 740,1935 L 600,1935 L 430,1935 Z" /></g></g></g></svg>