<svg width="7630" height="3550" viewBox="-5 -3545 7630 3550" xmlns="http://www.w3.org/2000/svg" xmlns:xlink="http://www.w3.org/1999/xlink"><defs><style type="text/css">.l3d0 {fill: #fef9e7; fill-opacity: 0.5; stroke-width: 10; stroke: #f1c40f; stroke-linecap: round; stroke-linejoin: round; stroke-opacity: 0.2;}.l25d0 {fill: #8e44ad; fill-opacity: 0.05; stroke-width: 10; stroke: #8e44ad; stroke-linecap: round; stroke-linejoin: round; stroke-opacity: 1;}.l26d0 {fill: #ccd1d1; fill-opacity: 0.05; stroke-width: 10; stroke: #ccd1d1; stroke-linecap: round; stroke-linejoin: round; stroke-opacity: 1;}.l6d0 {fill: #f5b7b1; fill-opacity: 1; stroke-width: 10; stroke: #e74c3c; stroke-linecap: round; stroke-linejoin: round; stroke-opacity: 1;}.l17d0 {fill: #2980b9; fill-opacity: 1; stroke-width: 0; stroke: #000000; stroke-linecap: round; stroke-linejoin: round; stroke-opacity: 0;}.l30d0 {fill: #27ae60; fill-opacity: 1; stroke-width: 0; stroke: #000000; stroke-linecap: round; stroke-linejoin: round; stroke-opacity: 0;}.l31d0 {fill: #85c1e9; fill-opacity: 0.6; stroke-width: 0; stroke: #000000; stroke-linecap: round; stroke-linejoin: round; stroke-opacity: 0;}.l51d0 {fill: #f39c12; fill-opacity: 1; stroke-width: 10; stroke: #f39c12; stroke-linecap: round; stroke-linejoin: round; stroke-opacity: 1;}.l32d0 {fill: #f7dc6f; fill-opacity: 0.6; stroke-width: 0; stroke: #000000; stroke-linecap: round; stroke-linejoin: round; stroke-opacity: 0;}path {fill-rule: evenodd;}</style></defs><g transform="scale(1 -1)"><g id="NW"><g class="l3d0"><path d="M 3120,1900 L 2940,1900 L 2340,1900 L 2160,1900 L 1560,1900 L 1380,1900 L 780,1900 L 0,1900 L 0,3540 L 780,3540 L 1380,3540 L 1560,3540 L 2160,3540 L 2340,3540 L 2940,3540 L 3120,3540 L 3720,3540 L 3900,3540 L 4500,3540 L 4680,3540 L 5280,3540 L 5460,3540 L 6060,3540 L 6240,3540 L 6840,3540 L 7620,3540 L 7620,1900 L 6840,1900 L 6240,1900 L 6060,1900 L 5460,1900 L 5280,1900 L 4680,1900 L 4500,1900 L 3900,1900 L 3720,1900 Z" /></g></g><g id="PP"><g class="l25d0"><path d="M 3550,0 L 3290,0 L 2770,0 L 2510,0 L 1990,0 L 1730,0 L 1210,0 L 950,0 L 170,0 L 170,430 L 950,430 L 1210,430 L 1730,430 L 1990,430 L 2510,430 L 2770,430 L 3290,430 L 3550,430 L 4070,430 L 4330,430 L 4850,430 L 5110,430 L 5630,430 L 5890,430 L 6410,430 L 6670,430 L 7450,430 L 7450,0 L 6670,0 L 6410,0 L 5890,0 L 5630,0 L 5110,0 L 4850,0 L 4330,0 L 4070,0 Z" /><path d="M 170,2940 L 325,2940 L 585,2940 L 795,2940 L 950,2940 L 1055,2940 L 1105,2940 L 1210,2940 L 1365,2940 L 1575,2940 L 1730,2940 L 1835,2940 L 1885,2940 L 1990,2940 L 2145,2940 L 2355,2940 L 2510,2940 L 2615,2940 L 2665,2940 L 2770,2940 L 2925,2940 L 3135,2940 L 3290,2940 L 3395,2940 L 3445,2940 L 3550,2940 L 3705,2940 L 3915,2940 L 4070,2940 L 4175,2940 L 4225,2940 L 4330,2940 L 4485,2940 L 4695,2940 L 4850,2940 L 4955,2940 L 5005,2940 L 5110,2940 L 5265,2940 L 5475,2940 L 5630,2940 L 5735,2940 L 5785,2940 L 5890,2940 L 6045,2940 L 6255,2940 L 6410,2940 L 6515,2940 L 6565,2940 L 6670,2940 L 6825,2940 L 7035,2940 L 7295,2940 L 7450,2940 L 7450,1685 L 6670,1685 L 6410,1685 L 5890,1685 L 5630,1685 L 5110,1685 L 4850,1685 L 4330,1685 L 4070,1685 L 3550,1685 L 3290,1685 L 2770,1685 L 2510,1685 L 1990,1685 L 1730,1685 L 1210,1685 L 950,1685 L 170,1685 Z" /></g></g><g id="NP"><g class="l26d0"><path d="M 3550,2940 L 3290,2940 L 2770,2940 L 2510,2940 L 1990,2940 L 1730,2940 L 1210,2940 L 950,2940 L 170,2940 L 170,3370 L 950,3370 L 1210,3370 L 1730,3370 L 1990,3370 L 2510,3370 L 2770,3370 L 3290,3370 L 3550,3370 L 4070,3370 L 4330,3370 L 4850,3370 L 5110,3370 L 5630,3370 L 5890,3370 L 6410,3370 L 6670,3370 L 7450,3370 L 7450,2940 L 6670,2940 L 6410,2940 L 5890,2940 L 5630,2940 L 5110,2940 L 4850,2940 L 4330,2940 L 4070,2940 Z" /><path d="M 1885,430 L 1835,430 L 1730,430 L 1575,430 L 1365,430 L 1210,430 L 1105,430 L 1055,430 L 950,430 L 795,430 L 585,430 L 325,430 L 170,430 L 170,1685 L 950,1685 L 1210,1685 L 1730,1685 L 1990,1685 L 2510,1685 L 2770,1685 L 3290,1685 L 3550,1685 L 4070,1685 L 4330,1685 L 4850,1685 L 5110,1685 L 5630,1685 L 5890,1685 L 6410,1685 L 6670,1685 L 7450,1685 L 7450,430 L 7295,430 L 7035,430 L 6825,430 L 6670,430 L 6565,430 L 6515,430 L 6410,430 L 6255,430 L 6045,430 L 5890,430 L 5785,430 L 5735,430 L 5630,430 L 5475,430 L 5265,430 L 5110,430 L 5005,430 L 4955,430 L 4850,430 L 4695,430 L 4485,430 L 4330,430 L 4225,430 L 4175,430 L 4070,430 L 3915,430 L 3705,430 L 3550,430 L 3445,430 L 3395,430 L 3290,430 L 3135,430 L 2925,430 L 2770,430 L 2665,430 L 2615,430 L 2510,430 L 2355,430 L 2145,430 L 1990,430 Z" /></g></g><g id="OD"><g class="l6d0"><path d="M 2640,130 L 1860,130 L 1080,130 L 300,130 L 300,300 L 1080,300 L 1860,300 L 2640,300 L 3420,300 L 4200,300 L 4980,300 L 5760,300 L 6540,300 L 7320,300 L 7320,130 L 6540,130 L 5760,130 L 4980,130 L 4200,130 L 3420,130 Z" /><path d="M 2640,3070 L 1860,3070 L 1080,3070 L 300,3070 L 300,3240 L 1080,3240 L 1860,3240 L 2640,3240 L 3420,3240 L 4200,3240 L 4980,3240 L 5760,3240 L 6540,3240 L 7320,3240 L 7320,3070 L 6540,3070 L 5760,3070 L 4980,3070 L 4200,3070 L 3420,3070 Z" /><path d="M 2275,2600 L 2350,2600 L 2410,2600 L 2485,2600 L 2570,2600 L 2570,2360 L 2485,2360 L 2410,2360 L 2350,2360 L 2275,2360 L 2225,2360 L 2150,2360 L 2090,2360 L 2015,2360 L 1930,2360 L 1930,2600 L 2015,2600 L 2090,2600 L 2150,2600 L 2225,2600 Z" /><path d="M 1495,2600 L 1570,2600 L 1630,2600 L 1705,2600 L 1790,2600 L 1790,2360 L 1705,2360 L 1630,2360 L 1570,2360 L 1495,2360 L 1445,2360 L 1370,2360 L 1310,2360 L 1235,2360 L 1150,2360 L 1150,2600 L 1235,2600 L 1310,2600 L 1370,2600 L 1445,2600 Z" /><path d="M 3055,2600 L 3130,2600 L 3190,2600 L 3265,2600 L 3350,2600 L 3350,2360 L 3265,2360 L 3190,2360 L 3130,2360 L 3055,2360 L 3005,2360 L 2930,2360 L 2870,2360 L 2795,2360 L 2710,2360 L 2710,2600 L 2795,2600 L 2870,2600 L 2930,2600 L 3005,2600 Z" /><path d="M 5395,2600 L 5470,2600 L 5530,2600 L 5605,2600 L 5690,2600 L 5690,2360 L 5605,2360 L 5530,2360 L 5470,2360 L 5395,2360 L 5345,2360 L 5270,2360 L 5210,2360 L 5135,2360 L 5050,2360 L 5050,2600 L 5135,2600 L 5210,2600 L 5270,2600 L 5345,2600 Z" /><path d="M 3835,2600 L 3910,2600 L 3970,2600 L 4045,2600 L 4130,2600 L 4130,2360 L 4045,2360 L 3970,2360 L 3910,2360 L 3835,2360 L 3785,2360 L 3710,2360 L 3650,2360 L 3575,2360 L 3490,2360 L 3490,2600 L 3575,2600 L 3650,2600 L 3710,2600 L 3785,2600 Z" /><path d="M 4615,2600 L 4690,2600 L 4750,2600 L 4825,2600 L 4910,2600 L 4910,2360 L 4825,2360 L 4750,2360 L 4690,2360 L 4615,2360 L 4565,2360 L 4490,2360 L 4430,2360 L 4355,2360 L 4270,2360 L 4270,2600 L 4355,2600 L 4430,2600 L 4490,2600 L 4565,2600 Z" /><path d="M 6175,2600 L 6250,2600 L 6310,2600 L 6385,2600 L 6470,2600 L 6470,2360 L 6385,2360 L 6310,2360 L 6250,2360 L 6175,2360 L 6125,2360 L 6050,2360 L 5990,2360 L 5915,2360 L 5830,2360 L 5830,2600 L 5915,2600 L 5990,2600 L 6050,2600 L 6125,2600 Z" /><path d="M 6955,2600 L 7030,2600 L 7090,2600 L 7165,2600 L 7250,2600 L 7250,2360 L 7165,2360 L 7090,2360 L 7030,2360 L 6955,2360 L 6905,2360 L 6830,2360 L 6770,2360 L 6695,2360 L 6610,2360 L 6610,2600 L 6695,2600 L 6770,2600 L 6830,2600 L 6905,2600 Z" /><path d="M 715,2600 L 790,2600 L 850,2600 L 925,2600 L 1010,2600 L 1010,2360 L 925,2360 L 850,2360 L 790,2360 L 715,2360 L 665,2360 L 590,2360 L 530,2360 L 455,2360 L 370,2360 L 370,2600 L 455,2600 L 530,2600 L 590,2600 L 665,2600 Z" /><path d="M 2585,770 L 2485,770 L 2410,770 L 2350,770 L 2275,770 L 2225,770 L 2150,770 L 2090,770 L 2015,770 L 1915,770 L 1915,890 L 2015,890 L 2090,890 L 2150,890 L 2225,890 L 2275,890 L 2350,890 L 2410,890 L 2485,890 L 2585,890 Z" /><path d="M 1135,890 L 1235,890 L 1310,890 L 1370,890 L 1445,890 L 1495,890 L 1570,890 L 1630,890 L 1705,890 L 1805,890 L 1805,770 L 1705,770 L 1630,770 L 1570,770 L 1495,770 L 1445,770 L 1370,770 L 1310,770 L 1235,770 L 1135,770 Z" /><path d="M 2695,890 L 2795,890 L 2870,890 L 2930,890 L 3005,890 L 3055,890 L 3130,890 L 3190,890 L 3265,890 L 3365,890 L 3365,770 L 3265,770 L 3190,770 L 3130,770 L 3055,770 L 3005,770 L 2930,770 L 2870,770 L 2795,770 L 2695,770 Z" /><path d="M 3475,890 L 3575,890 L 3650,890 L 3710,890 L 3785,890 L 3835,890 L 3910,890 L 3970,890 L 4045,890 L 4145,890 L 4145,770 L 4045,770 L 3970,770 L 3910,770 L 3835,770 L 3785,770 L 3710,770 L 3650,770 L 3575,770 L 3475,770 Z" /><path d="M 5705,770 L 5605,770 L 5530,770 L 5470,770 L 5395,770 L 5345,770 L 5270,770 L 5210,770 L 5135,770 L 5035,770 L 5035,890 L 5135,890 L 5210,890 L 5270,890 L 5345,890 L 5395,890 L 5470,890 L 5530,890 L 5605,890 L 5705,890 Z" /><path d="M 4255,890 L 4355,890 L 4430,890 L 4490,890 L 4565,890 L 4615,890 L 4690,890 L 4750,890 L 4825,890 L 4925,890 L 4925,770 L 4825,770 L 4750,770 L 4690,770 L 4615,770 L 4565,770 L 4490,770 L 4430,770 L 4355,770 L 4255,770 Z" /><path d="M 5815,890 L 5915,890 L 5990,890 L 6050,890 L 6125,890 L 6175,890 L 6250,890 L 6310,890 L 6385,890 L 6485,890 L 6485,770 L 6385,770 L 6310,770 L 6250,770 L 6175,770 L 6125,770 L 6050,770 L 5990,770 L 5915,770 L 5815,770 Z" /><path d="M 6595,890 L 6695,890 L 6770,890 L 6830,890 L 6905,890 L 6955,890 L 7030,890 L 7090,890 L 7165,890 L 7265,890 L 7265,770 L 7165,770 L 7090,770 L 7030,770 L 6955,770 L 6905,770 L 6830,770 L 6770,770 L 6695,770 L 6595,770 Z" /><path d="M 1025,770 L 925,770 L 850,770 L 790,770 L 715,770 L 665,770 L 590,770 L 530,770 L 455,770 L 355,770 L 355,890 L 455,890 L 530,890 L 590,890 L 665,890 L 715,890 L 790,890 L 850,890 L 925,890 L 1025,890 Z" /></g></g><g id="PO"><g class="l17d0"><path d="M 7030,2360 L 7030,2600 L 7030,2740 L 7090,2740 L 7090,2600 L 7090,2360 L 7090,2220 L 7090,1675 L 7115,1675 L 7115,1505 L 7090,1505 L 7090,1030 L 7090,890 L 7090,770 L 7090,630 L 7030,630 L 7030,770 L 7030,890 L 7030,1030 L 7030,1505 L 7005,1505 L 7005,1675 L 7030,1675 L 7030,2220 Z" /><path d="M 6770,2360 L 6770,2600 L 6770,2740 L 6830,2740 L 6830,2600 L 6830,2360 L 6830,2220 L 6830,1675 L 6855,1675 L 6855,1505 L 6830,1505 L 6830,1030 L 6830,890 L 6830,770 L 6830,630 L 6770,630 L 6770,770 L 6770,890 L 6770,1030 L 6770,1505 L 6745,1505 L 6745,1675 L 6770,1675 L 6770,2220 Z" /><path d="M 6250,2360 L 6250,2600 L 6250,2740 L 6310,2740 L 6310,2600 L 6310,2360 L 6310,2220 L 6310,1675 L 6335,1675 L 6335,1505 L 6310,1505 L 6310,1030 L 6310,890 L 6310,770 L 6310,630 L 6250,630 L 6250,770 L 6250,890 L 6250,1030 L 6250,1505 L 6225,1505 L 6225,1675 L 6250,1675 L 6250,2220 Z" /><path d="M 5990,2360 L 5990,2600 L 5990,2740 L 6050,2740 L 6050,2600 L 6050,2360 L 6050,2220 L 6050,1675 L 6075,1675 L 6075,1505 L 6050,1505 L 6050,1030 L 6050,890 L 6050,770 L 6050,630 L 5990,630 L 5990,770 L 5990,890 L 5990,1030 L 5990,1505 L 5965,1505 L 5965,1675 L 5990,1675 L 5990,2220 Z" /><path d="M 5470,2360 L 5470,2600 L 5470,2740 L 5530,2740 L 5530,2600 L 5530,2360 L 5530,2220 L 5530,1675 L 5555,1675 L 5555,1505 L 5530,1505 L 5530,1030 L 5530,890 L 5530,770 L 5530,630 L 5470,630 L 5470,770 L 5470,890 L 5470,1030 L 5470,1505 L 5445,1505 L 5445,1675 L 5470,1675 L 5470,2220 Z" /><path d="M 5210,2360 L 5210,2600 L 5210,2740 L 5270,2740 L 5270,2600 L 5270,2360 L 5270,2220 L 5270,1675 L 5295,1675 L 5295,1505 L 5270,1505 L 5270,1030 L 5270,890 L 5270,770 L 5270,630 L 5210,630 L 5210,770 L 5210,890 L 5210,1030 L 5210,1505 L 5185,1505 L 5185,1675 L 5210,1675 L 5210,2220 Z" /><path d="M 4690,2600 L 4690,2740 L 4750,2740 L 4750,2600 L 4750,2360 L 4750,2220 L 4750,1675 L 4775,1675 L 4775,1505 L 4750,1505 L 4750,1030 L 4750,890 L 4750,770 L 4750,630 L 4690,630 L 4690,770 L 4690,890 L 4690,1030 L 4689,1030 L 4689,1505 L 4665,1505 L 4665,1675 L 4689,1675 L 4689,2220 L 4690,2220 L 4690,2360 Z" /><path d="M 4430,2360 L 4430,2600 L 4430,2740 L 4490,2740 L 4490,2600 L 4490,2360 L 4490,2220 L 4490,1675 L 4515,1675 L 4515,1505 L 4490,1505 L 4490,1030 L 4490,890 L 4490,770 L 4490,630 L 4430,630 L 4430,770 L 4430,890 L 4430,1030 L 4430,1505 L 4405,1505 L 4405,1675 L 4430,1675 L 4430,2220 Z" /><path d="M 3910,2360 L 3910,2600 L 3910,2740 L 3970,2740 L 3970,2600 L 3970,2360 L 3970,2220 L 3969,2220 L 3969,1675 L 3995,1675 L 3995,1505 L 3969,1505 L 3969,1030 L 3970,1030 L 3970,890 L 3970,770 L 3970,630 L 3910,630 L 3910,770 L 3910,890 L 3910,1030 L 3910,1505 L 3885,1505 L 3885,1675 L 3910,1675 L 3910,2220 Z" /><path d="M 3650,2360 L 3650,2600 L 3650,2740 L 3710,2740 L 3710,2600 L 3710,2360 L 3710,2220 L 3710,1675 L 3735,1675 L 3735,1505 L 3710,1505 L 3710,1030 L 3710,890 L 3710,770 L 3710,630 L 3650,630 L 3650,770 L 3650,890 L 3650,1030 L 3650,1505 L 3625,1505 L 3625,1675 L 3650,1675 L 3650,2220 Z" /><path d="M 3130,2360 L 3130,2600 L 3130,2740 L 3190,2740 L 3190,2600 L 3190,2360 L 3190,2220 L 3190,1675 L 3215,1675 L 3215,1505 L 3190,1505 L 3190,1030 L 3190,890 L 3190,770 L 3190,630 L 3130,630 L 3130,770 L 3130,890 L 3130,1030 L 3130,1505 L 3105,1505 L 3105,1675 L 3130,1675 L 3130,2220 Z" /><path d="M 2870,2360 L 2870,2600 L 2870,2740 L 2930,2740 L 2930,2600 L 2930,2360 L 2930,2220 L 2929,2220 L 2929,1675 L 2955,1675 L 2955,1505 L 2929,1505 L 2929,1030 L 2930,1030 L 2930,890 L 2930,770 L 2930,630 L 2870,630 L 2870,770 L 2870,890 L 2870,1030 L 2870,1505 L 2845,1505 L 2845,1675 L 2870,1675 L 2870,2220 Z" /><path d="M 2350,2360 L 2350,2600 L 2350,2740 L 2410,2740 L 2410,2600 L 2410,2360 L 2410,2220 L 2409,2220 L 2409,1675 L 2435,1675 L 2435,1505 L 2409,1505 L 2409,1030 L 2410,1030 L 2410,890 L 2410,770 L 2410,630 L 2350,630 L 2350,770 L 2350,890 L 2350,1030 L 2350,1505 L 2325,1505 L 2325,1675 L 2350,1675 L 2350,2220 Z" /><path d="M 2090,2360 L 2090,2600 L 2090,2740 L 2150,2740 L 2150,2600 L 2150,2360 L 2150,2220 L 2150,1675 L 2175,1675 L 2175,1505 L 2150,1505 L 2150,1030 L 2150,890 L 2150,770 L 2150,630 L 2090,630 L 2090,770 L 2090,890 L 2090,1030 L 2090,1505 L 2065,1505 L 2065,1675 L 2090,1675 L 2090,2220 Z" /><path d="M 1570,2360 L 1570,2600 L 1570,2740 L 1630,2740 L 1630,2600 L 1630,2360 L 1630,2220 L 1630,1675 L 1655,1675 L 1655,1505 L 1630,1505 L 1630,1030 L 1630,890 L 1630,770 L 1630,630 L 1570,630 L 1570,770 L 1570,890 L 1570,1030 L 1570,1505 L 1545,1505 L 1545,1675 L 1570,1675 L 1570,2220 Z" /><path d="M 1310,2360 L 1310,2600 L 1310,2740 L 1370,2740 L 1370,2600 L 1370,2360 L 1370,2220 L 1370,1675 L 1395,1675 L 1395,1505 L 1370,1505 L 1370,1030 L 1370,890 L 1370,770 L 1370,630 L 1310,630 L 1310,770 L 1310,890 L 1310,1030 L 1310,1505 L 1285,1505 L 1285,1675 L 1310,1675 L 1310,2220 Z" /><path d="M 790,2360 L 790,2600 L 790,2740 L 850,2740 L 850,2600 L 850,2360 L 850,2220 L 850,1675 L 875,1675 L 875,1505 L 850,1505 L 850,1030 L 850,890 L 850,770 L 850,630 L 790,630 L 790,770 L 790,890 L 790,1030 L 790,1505 L 765,1505 L 765,1675 L 790,1675 L 790,2220 Z" /><path d="M 530,2360 L 530,2600 L 530,2740 L 590,2740 L 590,2600 L 590,2360 L 590,2220 L 590,1675 L 615,1675 L 615,1505 L 590,1505 L 590,1030 L 590,890 L 590,770 L 590,630 L 530,630 L 530,770 L 530,890 L 530,1030 L 530,1505 L 505,1505 L 505,1675 L 530,1675 L 530,2220 Z" /></g></g><g id="CO"><g class="l30d0"><path d="M 7145,785 L 7235,785 L 7235,875 L 7145,875 Z" /><path d="M 6885,785 L 6975,785 L 6975,875 L 6885,875 Z" /><path d="M 6625,785 L 6715,785 L 6715,875 L 6625,875 Z" /><path d="M 7145,2435 L 7235,2435 L 7235,2525 L 7145,2525 Z" /><path d="M 6885,2435 L 6975,2435 L 6975,2525 L 6885,2525 Z" /><path d="M 6625,2435 L 6715,2435 L 6715,2525 L 6625,2525 Z" /><path d="M 7145,170 L 7235,170 L 7235,260 L 7145,260 Z" /><path d="M 6885,170 L 6975,170 L 6975,260 L 6885,260 Z" /><path d="M 6625,170 L 6715,170 L 6715,260 L 6625,260 Z" /><path d="M 7145,3110 L 7235,3110 L 7235,3200 L 7145,3200 Z" /><path d="M 6885,3110 L 6975,3110 L 6975,3200 L 6885,3200 Z" /><path d="M 6625,3110 L 6715,3110 L 6715,3200 L 6625,3200 Z" /><path d="M 6365,785 L 6455,785 L 6455,875 L 6365,875 Z" /><path d="M 6105,785 L 6195,785 L 6195,875 L 6105,875 Z" /><path d="M 5845,785 L 5935,785 L 5935,875 L 5845,875 Z" /><path d="M 6365,2435 L 6455,2435 L 6455,2525 L 6365,2525 Z" /><path d="M 6105,2435 L 6195,2435 L 6195,2525 L 6105,2525 Z" /><path d="M 5845,2435 L 5935,2435 L 5935,2525 L 5845,2525 Z" /><path d="M 6365,170 L 6455,170 L 6455,260 L 6365,260 Z" /><path d="M 6105,170 L 6195,170 L 6195,260 L 6105,260 Z" /><path d="M 5845,170 L 5935,170 L 5935,260 L 5845,260 Z" /><path d="M 6365,3110 L 6455,3110 L 6455,3200 L 6365,3200 Z" /><path d="M 6105,3110 L 6195,3110 L 6195,3200 L 6105,3200 Z" /><path d="M 5845,3110 L 5935,3110 L 5935,3200 L 5845,3200 Z" /><path d="M 5585,785 L 5675,785 L 5675,875 L 5585,875 Z" /><path d="M 5325,785 L 5415,785 L 5415,875 L 5325,875 Z" /><path d="M 5065,785 L 5155,785 L 5155,875 L 5065,875 Z" /><path d="M 5585,2435 L 5675,2435 L 5675,2525 L 5585,2525 Z" /><path d="M 5325,2435 L 5415,2435 L 5415,2525 L 5325,2525 Z" /><path d="M 5065,2435 L 5155,2435 L 5155,2525 L 5065,2525 Z" /><path d="M 5585,170 L 5675,170 L 5675,260 L 5585,260 Z" /><path d="M 5325,170 L 5415,170 L 5415,260 L 5325,260 Z" /><path d="M 5065,170 L 5155,170 L 5155,260 L 5065,260 Z" /><path d="M 5585,3110 L 5675,3110 L 5675,3200 L 5585,3200 Z" /><path d="M 5325,3110 L 5415,3110 L 5415,3200 L 5325,3200 Z" /><path d="M 5065,3110 L 5155,3110 L 5155,3200 L 5065,3200 Z" /><path d="M 4805,785 L 4895,785 L 4895,875 L 4805,875 Z" /><path d="M 4545,785 L 4635,785 L 4635,875 L 4545,875 Z" /><path d="M 4285,785 L 4375,785 L 4375,875 L 4285,875 Z" /><path d="M 4805,2435 L 4895,2435 L 4895,2525 L 4805,2525 Z" /><path d="M 4545,2435 L 4635,2435 L 4635,2525 L 4545,2525 Z" /><path d="M 4285,2435 L 4375,2435 L 4375,2525 L 4285,2525 Z" /><path d="M 4805,170 L 4895,170 L 4895,260 L 4805,260 Z" /><path d="M 4545,170 L 4635,170 L 4635,260 L 4545,260 Z" /><path d="M 4285,170 L 4375,170 L 4375,260 L 4285,260 Z" /><path d="M 4805,3110 L 4895,3110 L 4895,3200 L 4805,3200 Z" /><path d="M 4545,3110 L 4635,3110 L 4635,3200 L 4545,3200 Z" /><path d="M 4285,3110 L 4375,3110 L 4375,3200 L 4285,3200 Z" /><path d="M 4025,785 L 4115,785 L 4115,875 L 4025,875 Z" /><path d="M 3765,785 L 3855,785 L 3855,875 L 3765,875 Z" /><path d="M 3505,785 L 3595,785 L 3595,875 L 3505,875 Z" /><path d="M 4025,2435 L 4115,2435 L 4115,2525 L 4025,2525 Z" /><path d="M 3765,2435 L 3855,2435 L 3855,2525 L 3765,2525 Z" /><path d="M 3505,2435 L 3595,2435 L 3595,2525 L 3505,2525 Z" /><path d="M 4025,170 L 4115,170 L 4115,260 L 4025,260 Z" /><path d="M 3765,170 L 3855,170 L 3855,260 L 3765,260 Z" /><path d="M 3505,170 L 3595,170 L 3595,260 L 3505,260 Z" /><path d="M 4025,3110 L 4115,3110 L 4115,3200 L 4025,3200 Z" /><path d="M 3765,3110 L 3855,3110 L 3855,3200 L 3765,3200 Z" /><path d="M 3505,3110 L 3595,3110 L 3595,3200 L 3505,3200 Z" /><path d="M 3245,785 L 3335,785 L 3335,875 L 3245,875 Z" /><path d="M 2985,785 L 3075,785 L 3075,875 L 2985,875 Z" /><path d="M 2725,785 L 2815,785 L 2815,875 L 2725,875 Z" /><path d="M 3245,2435 L 3335,2435 L 3335,2525 L 3245,2525 Z" /><path d="M 2985,2435 L 3075,2435 L 3075,2525 L 2985,2525 Z" /><path d="M 2725,2435 L 2815,2435 L 2815,2525 L 2725,2525 Z" /><path d="M 3245,170 L 3335,170 L 3335,260 L 3245,260 Z" /><path d="M 2985,170 L 3075,170 L 3075,260 L 2985,260 Z" /><path d="M 2725,170 L 2815,170 L 2815,260 L 2725,260 Z" /><path d="M 3245,3110 L 3335,3110 L 3335,3200 L 3245,3200 Z" /><path d="M 2985,3110 L 3075,3110 L 3075,3200 L 2985,3200 Z" /><path d="M 2725,3110 L 2815,3110 L 2815,3200 L 2725,3200 Z" /><path d="M 2465,785 L 2555,785 L 2555,875 L 2465,875 Z" /><path d="M 2205,785 L 2295,785 L 2295,875 L 2205,875 Z" /><path d="M 1945,785 L 2035,785 L 2035,875 L 1945,875 Z" /><path d="M 2465,2435 L 2555,2435 L 2555,2525 L 2465,2525 Z" /><path d="M 2205,2435 L 2295,2435 L 2295,2525 L 2205,2525 Z" /><path d="M 1945,2435 L 2035,2435 L 2035,2525 L 1945,2525 Z" /><path d="M 2465,170 L 2555,170 L 2555,260 L 2465,260 Z" /><path d="M 2205,170 L 2295,170 L 2295,260 L 2205,260 Z" /><path d="M 1945,170 L 2035,170 L 2035,260 L 1945,260 Z" /><path d="M 2465,3110 L 2555,3110 L 2555,3200 L 2465,3200 Z" /><path d="M 2205,3110 L 2295,3110 L 2295,3200 L 2205,3200 Z" /><path d="M 1945,3110 L 2035,3110 L 2035,3200 L 1945,3200 Z" /><path d="M 1685,785 L 1775,785 L 1775,875 L 1685,875 Z" /><path d="M 1425,785 L 1515,785 L 1515,875 L 1425,875 Z" /><path d="M 1165,785 L 1255,785 L 1255,875 L 1165,875 Z" /><path d="M 1685,2435 L 1775,2435 L 1775,2525 L 1685,2525 Z" /><path d="M 1425,2435 L 1515,2435 L 1515,2525 L 1425,2525 Z" /><path d="M 1165,2435 L 1255,2435 L 1255,2525 L 1165,2525 Z" /><path d="M 1685,170 L 1775,170 L 1775,260 L 1685,260 Z" /><path d="M 1425,170 L 1515,170 L 1515,260 L 1425,260 Z" /><path d="M 1165,170 L 1255,170 L 1255,260 L 1165,260 Z" /><path d="M 1685,3110 L 1775,3110 L 1775,3200 L 1685,3200 Z" /><path d="M 1425,3110 L 1515,3110 L 1515,3200 L 1425,3200 Z" /><path d="M 1165,3110 L 1255,3110 L 1255,3200 L 1165,3200 Z" /><path d="M 905,785 L 995,785 L 995,875 L 905,875 Z" /><path d="M 645,785 L 735,785 L 735,875 L 645,875 Z" /><path d="M 385,785 L 475,785 L 475,875 L 385,875 Z" /><path d="M 905,2435 L 995,2435 L 995,2525 L 905,2525 Z" /><path d="M 645,2435 L 735,2435 L 735,2525 L 645,2525 Z" /><path d="M 385,2435 L 475,2435 L 475,2525 L 385,2525 Z" /><path d="M 905,170 L 995,170 L 995,260 L 905,260 Z" /><path d="M 645,170 L 735,170 L 735,260 L 645,260 Z" /><path d="M 385,170 L 475,170 L 475,260 L 385,260 Z" /><path d="M 905,3110 L 995,3110 L 995,3200 L 905,3200 Z" /><path d="M 645,3110 L 735,3110 L 735,3200 L 645,3200 Z" /><path d="M 385,3110 L 475,3110 L 475,3200 L 385,3200 Z" /><path d="M 7015,1545 L 7105,1545 L 7105,1635 L 7015,1635 Z" /><path d="M 6755,1545 L 6845,1545 L 6845,1635 L 6755,1635 Z" /><path d="M 6235,1545 L 6325,1545 L 6325,1635 L 6235,1635 Z" /><path d="M 5975,1545 L 6065,1545 L 6065,1635 L 5975,1635 Z" /><path d="M 5455,1545 L 5545,1545 L 5545,1635 L 5455,1635 Z" /><path d="M 5195,1545 L 5285,1545 L 5285,1635 L 5195,1635 Z" /><path d="M 4675,1545 L 4765,1545 L 4765,1635 L 4675,1635 Z" /><path d="M 4415,1545 L 4505,1545 L 4505,1635 L 4415,1635 Z" /><path d="M 3895,1545 L 3985,1545 L 3985,1635 L 3895,1635 Z" /><path d="M 3635,1545 L 3725,1545 L 3725,1635 L 3635,1635 Z" /><path d="M 3115,1545 L 3205,1545 L 3205,1635 L 3115,1635 Z" /><path d="M 2855,1545 L 2945,1545 L 2945,1635 L 2855,1635 Z" /><path d="M 2335,1545 L 2425,1545 L 2425,1635 L 2335,1635 Z" /><path d="M 2075,1545 L 2165,1545 L 2165,1635 L 2075,1635 Z" /><path d="M 1555,1545 L 1645,1545 L 1645,1635 L 1555,1635 Z" /><path d="M 1295,1545 L 1385,1545 L 1385,1635 L 1295,1635 Z" /><path d="M 775,1545 L 865,1545 L 865,1635 L 775,1635 Z" /><path d="M 515,1545 L 605,1545 L 605,1635 L 515,1635 Z" /></g></g><g id="M1"><g class="l31d0"><path d="M 290,3250 L 1070,3250 L 1090,3250 L 1850,3250 L 1870,3250 L 2630,3250 L 2650,3250 L 3410,3250 L 3430,3250 L 4190,3250 L 4210,3250 L 4970,3250 L 4990,3250 L 5750,3250 L 5770,3250 L 6530,3250 L 6550,3250 L 7330,3250 L 7330,3060 L 6979,3060 L 6979,2530 L 6980,2530 L 6980,2395 L 6880,2395 L 6880,2530 L 6880,3060 L 6550,3060 L 6530,3060 L 6200,3060 L 6200,2530 L 6200,2395 L 6100,2395 L 6100,2530 L 6100,3060 L 5770,3060 L 5750,3060 L 5420,3060 L 5420,2530 L 5420,2395 L 5320,2395 L 5320,2530 L 5320,3060 L 4990,3060 L 4970,3060 L 4640,3060 L 4640,2530 L 4640,2395 L 4540,2395 L 4540,2530 L 4540,3060 L 4210,3060 L 4190,3060 L 3860,3060 L 3860,2530 L 3860,2395 L 3760,2395 L 3760,2530 L 3760,3060 L 3430,3060 L 3410,3060 L 3080,3060 L 3080,2530 L 3080,2395 L 2980,2395 L 2980,2530 L 2980,3060 L 2650,3060 L 2630,3060 L 2300,3060 L 2300,2530 L 2300,2395 L 2200,2395 L 2200,2530 L 2200,3060 L 1870,3060 L 1850,3060 L 1520,3060 L 1520,2530 L 1520,2395 L 1420,2395 L 1420,2530 L 1420,3060 L 1090,3060 L 1070,3060 L 740,3060 L 740,2530 L 740,2395 L 640,2395 L 640,2530 L 640,3060 L 290,3060 Z" /><path d="M 290,310 L 640,310 L 640,780 L 640,915 L 740,915 L 740,780 L 740,310 L 1070,310 L 1090,310 L 1420,310 L 1420,780 L 1420,915 L 1520,915 L 1520,780 L 1520,310 L 1850,310 L 1870,310 L 2200,310 L 2200,780 L 2200,915 L 2300,915 L 2300,780 L 2300,310 L 2630,310 L 2650,310 L 2980,310 L 2980,780 L 2980,915 L 3080,915 L 3080,780 L 3080,310 L 3410,310 L 3430,310 L 3760,310 L 3760,780 L 3760,915 L 3860,915 L 3860,780 L 3860,310 L 4190,310 L 4210,310 L 4540,310 L 4540,780 L 4540,915 L 4640,915 L 4640,780 L 4640,310 L 4970,310 L 4990,310 L 5320,310 L 5320,780 L 5320,915 L 5420,915 L 5420,780 L 5420,310 L 5750,310 L 5770,310 L 6100,310 L 6100,780 L 6100,915 L 6200,915 L 6200,780 L 6200,310 L 6530,310 L 6550,310 L 6880,310 L 6880,780 L 6880,915 L 6980,915 L 6980,780 L 6979,780 L 6979,310 L 7330,310 L 7330,120 L 6550,120 L 6530,120 L 5770,120 L 5750,120 L 4990,120 L 4970,120 L 4210,120 L 4190,120 L 3430,120 L 3410,120 L 2650,120 L 2630,120 L 1870,120 L 1850,120 L 1090,120 L 1070,120 L 290,120 Z" /><path d="M 3940,1640 L 4025,1640 L 4375,1640 L 4460,1640 L 4545,1640 L 4635,1640 L 4720,1640 L 4805,1640 L 5155,1640 L 5240,1640 L 5325,1640 L 5415,1640 L 5500,1640 L 5585,1640 L 5935,1640 L 6020,1640 L 6105,1640 L 6195,1640 L 6280,1640 L 6365,1640 L 6715,1640 L 6800,1640 L 6885,1640 L 6975,1640 L 7060,1640 L 7145,1640 L 7145,1540 L 7060,1540 L 6975,1540 L 6885,1540 L 6800,1540 L 6715,1540 L 6365,1540 L 6280,1540 L 6195,1540 L 6105,1540 L 6020,1540 L 5935,1540 L 5585,1540 L 5500,1540 L 5415,1540 L 5325,1540 L 5240,1540 L 5155,1540 L 4805,1540 L 4720,1540 L 4635,1540 L 4545,1540 L 4460,1540 L 4375,1540 L 4025,1540 L 3940,1540 L 3855,1540 L 3765,1540 L 3680,1540 L 3595,1540 L 3245,1540 L 3160,1540 L 3075,1540 L 2985,1540 L 2900,1540 L 2815,1540 L 2465,1540 L 2380,1540 L 2295,1540 L 2205,1540 L 2120,1540 L 2035,1540 L 1685,1540 L 1600,1540 L 1515,1540 L 1425,1540 L 1340,1540 L 1255,1540 L 905,1540 L 820,1540 L 735,1540 L 645,1540 L 560,1540 L 475,1540 L 475,1640 L 560,1640 L 645,1640 L 735,1640 L 820,1640 L 905,1640 L 1255,1640 L 1340,1640 L 1425,1640 L 1515,1640 L 1600,1640 L 1685,1640 L 2035,1640 L 2120,1640 L 2205,1640 L 2295,1640 L 2380,1640 L 2465,1640 L 2815,1640 L 2900,1640 L 2985,1640 L 3075,1640 L 3160,1640 L 3245,1640 L 3595,1640 L 3680,1640 L 3765,1640 L 3855,1640 Z" /><path d="M 7140,2390 L 7140,2570 L 7140,2810 L 7240,2810 L 7240,2570 L 7240,2390 Z" /><path d="M 6620,2390 L 6620,2570 L 6620,2810 L 6720,2810 L 6720,2570 L 6720,2390 Z" /><path d="M 7240,500 L 7140,500 L 7140,740 L 7140,920 L 7240,920 L 7240,740 Z" /><path d="M 6720,500 L 6620,500 L 6620,740 L 6620,920 L 6720,920 L 6720,740 Z" /><path d="M 6360,2390 L 6360,2570 L 6360,2810 L 6460,2810 L 6460,2570 L 6460,2390 Z" /><path d="M 5840,2390 L 5840,2570 L 5840,2810 L 5940,2810 L 5940,2570 L 5940,2390 Z" /><path d="M 6460,500 L 6360,500 L 6360,740 L 6360,920 L 6460,920 L 6460,740 Z" /><path d="M 5940,500 L 5840,500 L 5840,740 L 5840,920 L 5940,920 L 5940,740 Z" /><path d="M 5580,2390 L 5580,2570 L 5580,2810 L 5680,2810 L 5680,2570 L 5680,2390 Z" /><path d="M 5060,2390 L 5060,2570 L 5060,2810 L 5160,2810 L 5160,2570 L 5160,2390 Z" /><path d="M 5680,500 L 5580,500 L 5580,740 L 5580,920 L 5680,920 L 5680,740 Z" /><path d="M 5160,500 L 5060,500 L 5060,740 L 5060,920 L 5160,920 L 5160,740 Z" /><path d="M 4800,2390 L 4800,2570 L 4800,2810 L 4900,2810 L 4900,2570 L 4900,2390 Z" /><path d="M 4280,2390 L 4280,2570 L 4280,2810 L 4380,2810 L 4380,2570 L 4380,2390 Z" /><path d="M 4900,500 L 4800,500 L 4800,740 L 4800,920 L 4900,920 L 4900,740 Z" /><path d="M 4380,500 L 4280,500 L 4280,740 L 4280,920 L 4380,920 L 4380,740 Z" /><path d="M 4020,2390 L 4020,2570 L 4020,2810 L 4120,2810 L 4120,2570 L 4120,2390 Z" /><path d="M 3500,2390 L 3500,2570 L 3500,2810 L 3600,2810 L 3600,2570 L 3600,2390 Z" /><path d="M 4120,500 L 4020,500 L 4020,740 L 4020,920 L 4120,920 L 4120,740 Z" /><path d="M 3600,500 L 3500,500 L 3500,740 L 3500,920 L 3600,920 L 3600,740 Z" /><path d="M 3240,2390 L 3240,2570 L 3240,2810 L 3340,2810 L 3340,2570 L 3340,2390 Z" /><path d="M 2720,2390 L 2720,2570 L 2720,2810 L 2820,2810 L 2820,2570 L 2820,2390 Z" /><path d="M 3340,500 L 3240,500 L 3240,740 L 3240,920 L 3340,920 L 3340,740 Z" /><path d="M 2820,500 L 2720,500 L 2720,740 L 2720,920 L 2820,920 L 2820,740 Z" /><path d="M 2460,2390 L 2460,2570 L 2460,2810 L 2560,2810 L 2560,2570 L 2560,2390 Z" /><path d="M 1940,2390 L 1940,2570 L 1940,2810 L 2040,2810 L 2040,2570 L 2040,2390 Z" /><path d="M 2560,500 L 2460,500 L 2460,740 L 2460,920 L 2560,920 L 2560,740 Z" /><path d="M 2040,500 L 1940,500 L 1940,740 L 1940,920 L 2040,920 L 2040,740 Z" /><path d="M 1680,2390 L 1680,2570 L 1680,2810 L 1780,2810 L 1780,2570 L 1780,2390 Z" /><path d="M 1160,2390 L 1160,2570 L 1160,2810 L 1260,2810 L 1260,2570 L 1260,2390 Z" /><path d="M 1780,500 L 1680,500 L 1680,740 L 1680,920 L 1780,920 L 1780,740 Z" /><path d="M 1260,500 L 1160,500 L 1160,740 L 1160,920 L 1260,920 L 1260,740 Z" /><path d="M 480,500 L 380,500 L 380,740 L 380,920 L 480,920 L 480,740 Z" /><path d="M 1000,500 L 900,500 L 900,740 L 900,920 L 1000,920 L 1000,740 Z" /><path d="M 900,2390 L 900,2570 L 900,2810 L 1000,2810 L 1000,2570 L 1000,2390 Z" /><path d="M 380,2390 L 380,2570 L 380,2810 L 480,2810 L 480,2570 L 480,2390 Z" /></g></g><g id="VIA1"><g class="l51d0"><path d="M 7140,2430 L 7240,2430 L 7240,2530 L 7140,2530 Z" /><path d="M 6620,2430 L 6720,2430 L 6720,2530 L 6620,2530 Z" /><path d="M 7140,880 L 7240,880 L 7240,780 L 7140,780 Z" /><path d="M 6620,880 L 6720,880 L 6720,780 L 6620,780 Z" /><path d="M 6360,2430 L 6460,2430 L 6460,2530 L 6360,2530 Z" /><path d="M 5840,2430 L 5940,2430 L 5940,2530 L 5840,2530 Z" /><path d="M 6360,880 L 6460,880 L 6460,780 L 6360,780 Z" /><path d="M 5840,880 L 5940,880 L 5940,780 L 5840,780 Z" /><path d="M 5580,2430 L 5680,2430 L 5680,2530 L 5580,2530 Z" /><path d="M 5060,2430 L 5160,2430 L 5160,2530 L 5060,2530 Z" /><path d="M 5580,880 L 5680,880 L 5680,780 L 5580,780 Z" /><path d="M 5060,880 L 5160,880 L 5160,780 L 5060,780 Z" /><path d="M 4800,2430 L 4900,2430 L 4900,2530 L 4800,2530 Z" /><path d="M 4280,2430 L 4380,2430 L 4380,2530 L 4280,2530 Z" /><path d="M 4800,880 L 4900,880 L 4900,780 L 4800,780 Z" /><path d="M 4280,880 L 4380,880 L 4380,780 L 4280,780 Z" /><path d="M 4020,2430 L 4120,2430 L 4120,2530 L 4020,2530 Z" /><path d="M 3500,2430 L 3600,2430 L 3600,2530 L 3500,2530 Z" /><path d="M 4020,880 L 4120,880 L 4120,780 L 4020,780 Z" /><path d="M 3500,880 L 3600,880 L 3600,780 L 3500,780 Z" /><path d="M 3240,2430 L 3340,2430 L 3340,2530 L 3240,2530 Z" /><path d="M 2720,2430 L 2820,2430 L 2820,2530 L 2720,2530 Z" /><path d="M 3240,880 L 3340,880 L 3340,780 L 3240,780 Z" /><path d="M 2720,880 L 2820,880 L 2820,780 L 2720,780 Z" /><path d="M 2460,2430 L 2560,2430 L 2560,2530 L 2460,2530 Z" /><path d="M 1940,2430 L 2040,2430 L 2040,2530 L 1940,2530 Z" /><path d="M 2460,880 L 2560,880 L 2560,780 L 2460,780 Z" /><path d="M 1940,880 L 2040,880 L 2040,780 L 1940,780 Z" /><path d="M 1680,2430 L 1780,2430 L 1780,2530 L 1680,2530 Z" /><path d="M 1160,2430 L 1260,2430 L 1260,2530 L 1160,2530 Z" /><path d="M 1680,880 L 1780,880 L 1780,780 L 1680,780 Z" /><path d="M 1160,880 L 1260,880 L 1260,780 L 1160,780 Z" /><path d="M 380,880 L 480,880 L 480,780 L 380,780 Z" /><path d="M 900,880 L 1000,880 L 1000,780 L 900,780 Z" /><path d="M 900,2430 L 1000,2430 L 1000,2530 L 900,2530 Z" /><path d="M 380,2430 L 480,2430 L 480,2530 L 380,2530 Z" /></g></g><g id="M2"><g class="l32d0"><path d="M 7240,920 L 7240,830 L 7240,740 L 7140,740 L 7140,830 L 7140,920 L 7140,2390 L 7140,2480 L 7140,2570 L 7240,2570 L 7240,2480 L 7240,2390 Z" /><path d="M 6620,920 L 6620,2390 L 6620,2480 L 6620,2570 L 6720,2570 L 6720,2480 L 6720,2390 L 6720,920 L 6720,830 L 6720,740 L 6620,740 L 6620,830 Z" /><path d="M 6460,920 L 6460,830 L 6460,740 L 6360,740 L 6360,830 L 6360,920 L 6360,2390 L 6360,2480 L 6360,2570 L 6460,2570 L 6460,2480 L 6460,2390 Z" /><path d="M 5840,920 L 5840,2390 L 5840,2480 L 5840,2570 L 5940,2570 L 5940,2390 L 5939,2390 L 5939,920 L 5940,920 L 5940,740 L 5840,740 L 5840,830 Z" /><path d="M 5680,920 L 5680,830 L 5680,740 L 5580,740 L 5580,830 L 5580,920 L 5580,2390 L 5580,2480 L 5580,2570 L 5680,2570 L 5680,2480 L 5680,2390 Z" /><path d="M 5060,920 L 5060,2390 L 5060,2480 L 5060,2570 L 5160,2570 L 5160,2480 L 5160,2390 L 5160,920 L 5160,830 L 5160,740 L 5060,740 L 5060,830 Z" /><path d="M 4900,920 L 4900,830 L 4900,740 L 4800,740 L 4800,830 L 4800,920 L 4800,2390 L 4800,2480 L 4800,2570 L 4900,2570 L 4900,2480 L 4900,2390 Z" /><path d="M 4280,920 L 4280,2390 L 4280,2480 L 4280,2570 L 4380,2570 L 4380,2480 L 4380,2390 L 4380,920 L 4380,830 L 4380,740 L 4280,740 L 4280,830 Z" /><path d="M 4120,920 L 4120,830 L 4120,740 L 4020,740 L 4020,830 L 4020,920 L 4020,2390 L 4020,2480 L 4020,2570 L 4120,2570 L 4120,2480 L 4120,2390 Z" /><path d="M 3500,920 L 3500,2390 L 3500,2480 L 3500,2570 L 3600,2570 L 3600,2480 L 3600,2390 L 3600,920 L 3600,830 L 3600,740 L 3500,740 L 3500,830 Z" /><path d="M 3340,920 L 3340,830 L 3340,740 L 3240,740 L 3240,830 L 3240,920 L 3240,2390 L 3240,2480 L 3240,2570 L 3340,2570 L 3340,2480 L 3340,2390 Z" /><path d="M 2720,920 L 2720,2390 L 2720,2480 L 2720,2570 L 2820,2570 L 2820,2480 L 2820,2390 L 2820,920 L 2820,830 L 2820,740 L 2720,740 L 2720,830 Z" /><path d="M 2560,920 L 2560,830 L 2560,740 L 2460,740 L 2460,830 L 2460,920 L 2460,2390 L 2460,2480 L 2460,2570 L 2560,2570 L 2560,2480 L 2560,2390 Z" /><path d="M 1940,920 L 1940,2390 L 1940,2480 L 1940,2570 L 2040,2570 L 2040,2480 L 2040,2390 L 2040,920 L 2040,830 L 2040,740 L 1940,740 L 1940,830 Z" /><path d="M 1780,920 L 1780,830 L 1780,740 L 1680,740 L 1680,830 L 1680,920 L 1680,2390 L 1680,2480 L 1680,2570 L 1780,2570 L 1780,2480 L 1780,2390 Z" /><path d="M 1160,920 L 1160,2390 L 1160,2480 L 1160,2570 L 1260,2570 L 1260,2480 L 1260,2390 L 1260,920 L 1260,830 L 1260,740 L 1160,740 L 1160,830 Z" /><path d="M 1000,2390 L 1000,920 L 1000,830 L 1000,740 L 900,740 L 900,830 L 900,920 L 900,2390 L 900,2480 L 900,2570 L 1000,2570 L 1000,2480 Z" /><path d="M 380,2390 L 380,2480 L 380,2570 L 480,2570 L 480,2480 L 480,2390 L 480,920 L 480,830 L 480,740 L 380,740 L 380,830 L 380,920 Z" /></g></g></g></svg>