<svg width="8410" height="3550" viewBox="-5 -3545 8410 3550" xmlns="http://www.w3.org/2000/svg" xmlns:xlink="http://www.w3.org/1999/xlink"><defs><style type="text/css">.l3d0 {fill: #fef9e7; fill-opacity: 0.5; stroke-width: 10; stroke: #f1c40f; stroke-linecap: round; stroke-linejoin: round; stroke-opacity: 0.2;}.l25d0 {fill: #8e44ad; fill-opacity: 0.05; stroke-width: 10; stroke: #8e44ad; stroke-linecap: round; stroke-linejoin: round; stroke-opacity: 1;}.l26d0 {fill: #ccd1d1; fill-opacity: 0.05; stroke-width: 10; stroke: #ccd1d1; stroke-linecap: round; stroke-linejoin: round; stroke-opacity: 1;}.l6d0 {fill: #f5b7b1; fill-opacity: 1; stroke-width: 10; stroke: #e74c3c; stroke-linecap: round; stroke-linejoin: round; stroke-opacity: 1;}.l17d0 {fill: #2980b9; fill-opacity: 1; stroke-width: 0; stroke: #000000; stroke-linecap: round; stroke-linejoin: round; stroke-opacity: 0;}.l30d0 {fill: #27ae60; fill-opacity: 1; stroke-width: 0; stroke: #000000; stroke-linecap: round; stroke-linejoin: round; stroke-opacity: 0;}.l31d0 {fill: #85c1e9; fill-opacity: 0.6; stroke-width: 0; stroke: #000000; stroke-linecap: round; stroke-linejoin: round; stroke-opacity: 0;}.l51d0 {fill: #f39c12; fill-opacity: 1; stroke-width: 10; stroke: #f39c12; stroke-linecap: round; stroke-linejoin: round; stroke-opacity: 1;}.l32d0 {fill: #f7dc6f; fill-opacity: 0.6; stroke-width: 0; stroke: #000000; stroke-linecap: round; stroke-linejoin: round; stroke-opacity: 0;}.l52d0 {fill: #a04000; fill-opacity: 1; stroke-width: 10; stroke: #a04000; stroke-linecap: round; stroke-linejoin: round; stroke-opacity: 1;}.l33d0 {fill: #16a085; fill-opacity: 0.6; stroke-width: 0; stroke: #000000; stroke-linecap: round; stroke-linejoin: round; stroke-opacity: 0;}path {fill-rule: evenodd;}</style></defs><g transform="scale(1 -1)"><g id="NW"><g class="l3d0"><path d="M 0,1900 L 0,3540 L 3120,3540 L 3720,3540 L 8400,3540 L 8400,1900 L 6865,1900 L 6605,1900 L 6345,1900 L 6215,1900 L 6085,1900 L 5955,1900 L 5695,1900 L 5435,1900 L 3720,1900 L 3120,1900 L 2705,1900 L 2445,1900 L 2185,1900 L 2055,1900 L 1925,1900 L 1795,1900 L 1665,1900 L 1535,1900 L 1405,1900 L 1275,1900 L 1145,1900 L 1015,1900 L 885,1900 L 755,1900 L 495,1900 L 235,1900 Z" /></g></g><g id="PP"><g class="l25d0"><path d="M 170,0 L 170,430 L 3290,430 L 3550,430 L 8230,430 L 8230,0 L 3550,0 L 3290,0 Z" /><path d="M 3290,1685 L 170,1685 L 170,2940 L 325,2940 L 585,2940 L 795,2940 L 845,2940 L 1055,2940 L 1105,2940 L 1315,2940 L 1365,2940 L 1575,2940 L 1625,2940 L 1835,2940 L 1885,2940 L 2095,2940 L 2145,2940 L 2355,2940 L 2615,2940 L 2665,2940 L 2925,2940 L 3135,2940 L 3290,2940 L 3395,2940 L 3445,2940 L 3550,2940 L 3705,2940 L 3915,2940 L 3965,2940 L 4175,2940 L 4225,2940 L 4435,2940 L 4485,2940 L 4695,2940 L 4955,2940 L 5005,2940 L 5475,2940 L 5525,2940 L 5785,2940 L 5995,2940 L 6045,2940 L 6255,2940 L 6305,2940 L 6515,2940 L 6775,2940 L 6825,2940 L 7085,2940 L 7295,2940 L 7345,2940 L 7555,2940 L 7605,2940 L 7815,2940 L 8075,2940 L 8230,2940 L 8230,1685 L 3550,1685 Z" /></g></g><g id="NP"><g class="l26d0"><path d="M 170,2940 L 170,3370 L 3290,3370 L 3550,3370 L 8230,3370 L 8230,2940 L 3550,2940 L 3290,2940 Z" /><path d="M 170,1685 L 3290,1685 L 3550,1685 L 8230,1685 L 8230,430 L 8075,430 L 7815,430 L 7605,430 L 7555,430 L 7345,430 L 7295,430 L 7085,430 L 6825,430 L 6775,430 L 6515,430 L 6305,430 L 6255,430 L 6045,430 L 5995,430 L 5785,430 L 5525,430 L 5475,430 L 5005,430 L 4955,430 L 4695,430 L 4485,430 L 4435,430 L 4225,430 L 4175,430 L 3965,430 L 3915,430 L 3705,430 L 3550,430 L 3445,430 L 3395,430 L 3290,430 L 3135,430 L 2925,430 L 2665,430 L 2615,430 L 2355,430 L 2145,430 L 2095,430 L 1885,430 L 1835,430 L 1625,430 L 1575,430 L 1365,430 L 1315,430 L 1105,430 L 1055,430 L 845,430 L 795,430 L 585,430 L 325,430 L 170,430 Z" /></g></g><g id="OD"><g class="l6d0"><path d="M 2410,2120 L 2350,2120 L 2275,2120 L 2225,2120 L 2150,2120 L 2090,2120 L 2015,2120 L 1965,2120 L 1890,2120 L 1830,2120 L 1755,2120 L 1705,2120 L 1630,2120 L 1570,2120 L 1495,2120 L 1445,2120 L 1370,2120 L 1310,2120 L 1235,2120 L 1185,2120 L 1110,2120 L 1050,2120 L 975,2120 L 925,2120 L 850,2120 L 790,2120 L 715,2120 L 665,2120 L 590,2120 L 530,2120 L 455,2120 L 370,2120 L 370,2600 L 455,2600 L 530,2600 L 590,2600 L 665,2600 L 715,2600 L 790,2600 L 850,2600 L 925,2600 L 975,2600 L 1050,2600 L 1110,2600 L 1185,2600 L 1235,2600 L 1310,2600 L 1370,2600 L 1445,2600 L 1495,2600 L 1570,2600 L 1630,2600 L 1705,2600 L 1755,2600 L 1830,2600 L 1890,2600 L 1965,2600 L 2015,2600 L 2090,2600 L 2150,2600 L 2225,2600 L 2275,2600 L 2350,2600 L 2410,2600 L 2485,2600 L 2570,2600 L 2570,2120 L 2485,2120 Z" /><path d="M 300,130 L 300,300 L 3420,300 L 8100,300 L 8100,130 L 3420,130 Z" /><path d="M 300,3070 L 300,3240 L 3420,3240 L 8100,3240 L 8100,3070 L 3420,3070 Z" /><path d="M 7610,770 L 7550,770 L 7475,770 L 7425,770 L 7350,770 L 7290,770 L 7215,770 L 7215,1010 L 7290,1010 L 7350,1010 L 7425,1010 L 7475,1010 L 7550,1010 L 7610,1010 L 7685,1010 L 7735,1010 L 7810,1010 L 7870,1010 L 7945,1010 L 8030,1010 L 8030,770 L 7945,770 L 7870,770 L 7810,770 L 7735,770 L 7685,770 Z" /><path d="M 7214,1010 L 7214,770 L 7165,770 L 7090,770 L 7030,770 L 6955,770 L 6870,770 L 6870,1010 L 6955,1010 L 7030,1010 L 7090,1010 L 7165,1010 Z" /><path d="M 5430,770 L 5395,770 L 5345,770 L 5270,770 L 5210,770 L 5135,770 L 5050,770 L 5050,1010 L 5135,1010 L 5210,1010 L 5270,1010 L 5345,1010 L 5395,1010 L 5430,1010 Z" /><path d="M 7610,2360 L 7550,2360 L 7475,2360 L 7425,2360 L 7350,2360 L 7290,2360 L 7215,2360 L 7215,2600 L 7290,2600 L 7350,2600 L 7425,2600 L 7475,2600 L 7550,2600 L 7610,2600 L 7685,2600 L 7735,2600 L 7810,2600 L 7870,2600 L 7945,2600 L 8030,2600 L 8030,2360 L 7945,2360 L 7870,2360 L 7810,2360 L 7735,2360 L 7685,2360 Z" /><path d="M 6870,2360 L 6870,2600 L 6955,2600 L 7030,2600 L 7090,2600 L 7165,2600 L 7214,2600 L 7214,2360 L 7165,2360 L 7090,2360 L 7030,2360 L 6955,2360 Z" /><path d="M 5050,2360 L 5050,2600 L 5135,2600 L 5210,2600 L 5270,2600 L 5345,2600 L 5430,2600 L 5430,2360 L 5345,2360 L 5270,2360 L 5210,2360 L 5135,2360 Z" /><path d="M 4095,2360 L 4045,2360 L 3970,2360 L 3910,2360 L 3835,2360 L 3785,2360 L 3710,2360 L 3650,2360 L 3575,2360 L 3490,2360 L 3490,2600 L 3575,2600 L 3650,2600 L 3710,2600 L 3785,2600 L 3835,2600 L 3910,2600 L 3970,2600 L 4045,2600 L 4095,2600 L 4170,2600 L 4230,2600 L 4305,2600 L 4355,2600 L 4430,2600 L 4490,2600 L 4565,2600 L 4615,2600 L 4690,2600 L 4750,2600 L 4825,2600 L 4910,2600 L 4910,2360 L 4825,2360 L 4750,2360 L 4690,2360 L 4615,2360 L 4565,2360 L 4490,2360 L 4430,2360 L 4355,2360 L 4305,2360 L 4230,2360 L 4170,2360 Z" /><path d="M 6510,1130 L 6570,1130 L 6645,1130 L 6730,1130 L 6730,770 L 6645,770 L 6570,770 L 6510,770 L 6435,770 L 6385,770 L 6310,770 L 6250,770 L 6175,770 L 6125,770 L 6050,770 L 5990,770 L 5915,770 L 5865,770 L 5790,770 L 5730,770 L 5655,770 L 5570,770 L 5570,1130 L 5655,1130 L 5730,1130 L 5790,1130 L 5865,1130 L 5915,1130 L 5990,1130 L 6050,1130 L 6125,1130 L 6175,1130 L 6250,1130 L 6310,1130 L 6385,1130 L 6435,1130 Z" /><path d="M 4045,1010 L 4045,1130 L 4095,1130 L 4170,1130 L 4230,1130 L 4305,1130 L 4355,1130 L 4430,1130 L 4490,1130 L 4565,1130 L 4615,1130 L 4690,1130 L 4750,1130 L 4825,1130 L 4910,1130 L 4910,770 L 4825,770 L 4750,770 L 4690,770 L 4615,770 L 4565,770 L 4490,770 L 4430,770 L 4355,770 L 4305,770 L 4230,770 L 4170,770 L 4095,770 L 4045,770 L 3970,770 L 3910,770 L 3835,770 L 3785,770 L 3710,770 L 3650,770 L 3575,770 L 3490,770 L 3490,1010 L 3575,1010 L 3650,1010 L 3710,1010 L 3785,1010 L 3835,1010 L 3910,1010 L 3970,1010 Z" /><path d="M 6510,2600 L 6570,2600 L 6645,2600 L 6730,2600 L 6730,2120 L 6645,2120 L 6570,2120 L 6510,2120 L 6435,2120 L 6385,2120 L 6310,2120 L 6250,2120 L 6175,2120 L 6125,2120 L 6050,2120 L 5990,2120 L 5915,2120 L 5865,2120 L 5790,2120 L 5730,2120 L 5655,2120 L 5570,2120 L 5570,2600 L 5655,2600 L 5730,2600 L 5790,2600 L 5865,2600 L 5915,2600 L 5990,2600 L 6050,2600 L 6125,2600 L 6175,2600 L 6250,2600 L 6310,2600 L 6385,2600 L 6435,2600 Z" /><path d="M 2325,890 L 2350,890 L 2410,890 L 2485,890 L 2585,890 L 2585,770 L 2485,770 L 2410,770 L 2350,770 L 2325,770 L 2275,770 L 2225,770 L 2150,770 L 2090,770 L 2015,770 L 1965,770 L 1890,770 L 1830,770 L 1755,770 L 1705,770 L 1630,770 L 1570,770 L 1495,770 L 1445,770 L 1370,770 L 1310,770 L 1235,770 L 1185,770 L 1110,770 L 1050,770 L 975,770 L 925,770 L 850,770 L 790,770 L 715,770 L 665,770 L 615,770 L 590,770 L 530,770 L 455,770 L 355,770 L 355,890 L 455,890 L 530,890 L 590,890 L 615,890 L 665,890 L 715,890 L 790,890 L 850,890 L 925,890 L 975,890 L 1050,890 L 1110,890 L 1185,890 L 1235,890 L 1310,890 L 1370,890 L 1445,890 L 1495,890 L 1570,890 L 1630,890 L 1705,890 L 1755,890 L 1830,890 L 1890,890 L 1965,890 L 2015,890 L 2090,890 L 2150,890 L 2225,890 L 2275,890 Z" /><path d="M 3055,1010 L 3130,1010 L 3190,1010 L 3265,1010 L 3350,1010 L 3350,770 L 3265,770 L 3190,770 L 3130,770 L 3055,770 L 3005,770 L 2930,770 L 2870,770 L 2795,770 L 2710,770 L 2710,1010 L 2795,1010 L 2870,1010 L 2930,1010 L 3005,1010 Z" /><path d="M 3350,2360 L 3265,2360 L 3190,2360 L 3130,2360 L 3055,2360 L 3005,2360 L 2930,2360 L 2870,2360 L 2795,2360 L 2710,2360 L 2710,2600 L 2795,2600 L 2870,2600 L 2930,2600 L 3005,2600 L 3055,2600 L 3130,2600 L 3190,2600 L 3265,2600 L 3350,2600 Z" /></g></g><g id="PO"><g class="l17d0"><path d="M 3710,1010 L 3710,770 L 3710,630 L 3650,630 L 3650,770 L 3650,1010 L 3650,1150 L 3650,1505 L 3625,1505 L 3625,1675 L 3650,1675 L 3650,2220 L 3650,2360 L 3650,2600 L 3650,2740 L 3710,2740 L 3710,2600 L 3710,2360 L 3710,2220 L 3710,1675 L 3735,1675 L 3735,1505 L 3710,1505 L 3710,1150 Z" /><path d="M 5270,1010 L 5270,770 L 5270,630 L 5210,630 L 5210,770 L 5210,1010 L 5210,1150 L 5210,1400 L 5210,2110 L 5185,2110 L 5185,2280 L 5210,2280 L 5210,2360 L 5210,2600 L 5210,2740 L 5270,2740 L 5270,2600 L 5270,2360 L 5270,2280 L 5295,2280 L 5295,2110 L 5270,2110 L 5270,1400 L 5270,1150 Z" /><path d="M 3910,2360 L 3910,2600 L 3910,2740 L 3970,2740 L 3970,2600 L 3970,2360 L 3970,2220 L 3970,2055 L 3995,2055 L 3995,1885 L 3970,1885 L 3970,1150 L 3970,1010 L 3970,770 L 3970,630 L 3910,630 L 3910,770 L 3910,1010 L 3910,1150 L 3910,1885 L 3885,1885 L 3885,2055 L 3910,2055 L 3910,2220 Z" /><path d="M 4170,2360 L 4170,2600 L 4170,2740 L 4230,2740 L 4230,2600 L 4230,2360 L 4230,2220 L 4230,1865 L 4260,1865 L 4260,1695 L 4230,1695 L 4230,1270 L 4230,1130 L 4230,770 L 4230,630 L 4170,630 L 4170,770 L 4170,1130 L 4170,1270 L 4170,1695 L 4140,1695 L 4140,1865 L 4170,1865 L 4170,2220 Z" /><path d="M 5790,1130 L 5790,770 L 5790,630 L 5730,630 L 5730,770 L 5730,1130 L 5730,1270 L 5730,1315 L 5700,1315 L 5700,1485 L 5730,1485 L 5730,1980 L 5730,2120 L 5730,2600 L 5730,2740 L 5790,2740 L 5790,2600 L 5790,2120 L 5790,1980 L 5790,1485 L 5820,1485 L 5820,1315 L 5790,1315 L 5790,1270 Z" /><path d="M 6050,1270 L 6050,1130 L 6050,770 L 6050,630 L 5990,630 L 5990,770 L 5990,1130 L 5990,1270 L 5990,1695 L 5960,1695 L 5960,1865 L 5990,1865 L 5990,1980 L 5990,2120 L 5990,2600 L 5990,2740 L 6050,2740 L 6050,2600 L 6050,2120 L 6050,1980 L 6049,1980 L 6049,1865 L 6080,1865 L 6080,1695 L 6049,1695 L 6049,1270 Z" /><path d="M 4690,2360 L 4690,2600 L 4690,2740 L 4750,2740 L 4750,2600 L 4750,2360 L 4750,2220 L 4750,1865 L 4780,1865 L 4780,1695 L 4750,1695 L 4750,1270 L 4750,1130 L 4750,770 L 4750,630 L 4690,630 L 4690,770 L 4690,1130 L 4690,1270 L 4690,1695 L 4660,1695 L 4660,1865 L 4690,1865 L 4690,2220 Z" /><path d="M 4430,2360 L 4430,2600 L 4430,2740 L 4490,2740 L 4490,2600 L 4490,2360 L 4490,2220 L 4490,1485 L 4520,1485 L 4520,1315 L 4490,1315 L 4490,1270 L 4490,1130 L 4490,770 L 4490,630 L 4430,630 L 4430,770 L 4430,1130 L 4430,1270 L 4430,1315 L 4400,1315 L 4400,1485 L 4430,1485 L 4430,2220 Z" /><path d="M 6570,1270 L 6570,1130 L 6570,770 L 6570,630 L 6510,630 L 6510,770 L 6510,1130 L 6510,1270 L 6510,1505 L 6480,1505 L 6480,1675 L 6510,1675 L 6510,1980 L 6510,2120 L 6510,2600 L 6510,2740 L 6570,2740 L 6570,2600 L 6570,2120 L 6570,1980 L 6569,1980 L 6569,1675 L 6600,1675 L 6600,1505 L 6569,1505 L 6569,1270 Z" /><path d="M 7610,1010 L 7610,770 L 7610,630 L 7550,630 L 7550,770 L 7550,1010 L 7550,1150 L 7550,2110 L 7520,2110 L 7520,2280 L 7550,2280 L 7550,2360 L 7550,2600 L 7550,2740 L 7610,2740 L 7610,2600 L 7610,2360 L 7610,2280 L 7640,2280 L 7640,2110 L 7610,2110 L 7610,1150 Z" /><path d="M 6310,1130 L 6310,770 L 6310,630 L 6250,630 L 6250,770 L 6250,1130 L 6250,1270 L 6250,1885 L 6220,1885 L 6220,2055 L 6250,2055 L 6250,2120 L 6250,2600 L 6250,2740 L 6310,2740 L 6310,2600 L 6310,2120 L 6310,2055 L 6340,2055 L 6340,1885 L 6310,1885 L 6310,1270 Z" /><path d="M 7810,2220 L 7810,2360 L 7810,2600 L 7810,2740 L 7870,2740 L 7870,2600 L 7870,2360 L 7870,2220 L 7870,1865 L 7900,1865 L 7900,1695 L 7870,1695 L 7870,1150 L 7870,1010 L 7870,770 L 7870,630 L 7810,630 L 7810,770 L 7810,1010 L 7810,1150 L 7809,1150 L 7809,1695 L 7780,1695 L 7780,1865 L 7809,1865 L 7809,2220 Z" /><path d="M 7350,1010 L 7350,770 L 7350,630 L 7290,630 L 7290,770 L 7290,1010 L 7290,1150 L 7290,1505 L 7260,1505 L 7260,1675 L 7290,1675 L 7290,2220 L 7290,2360 L 7290,2600 L 7290,2740 L 7350,2740 L 7350,2600 L 7350,2360 L 7350,2220 L 7350,1675 L 7380,1675 L 7380,1505 L 7350,1505 L 7350,1150 Z" /><path d="M 7090,1150 L 7090,1010 L 7090,770 L 7090,630 L 7030,630 L 7030,770 L 7030,1010 L 7030,1150 L 7030,1885 L 7000,1885 L 7000,2055 L 7030,2055 L 7030,2220 L 7030,2360 L 7030,2600 L 7030,2740 L 7090,2740 L 7090,2600 L 7090,2360 L 7090,2220 L 7089,2220 L 7089,2055 L 7120,2055 L 7120,1885 L 7089,1885 L 7089,1150 Z" /><path d="M 530,2120 L 530,2600 L 530,2740 L 590,2740 L 590,2600 L 590,2120 L 590,1980 L 590,1485 L 615,1485 L 615,1315 L 590,1315 L 590,1030 L 590,890 L 590,770 L 590,630 L 530,630 L 530,770 L 530,890 L 530,1030 L 530,1315 L 505,1315 L 505,1485 L 530,1485 L 530,1980 Z" /><path d="M 2409,1030 L 2410,1030 L 2410,890 L 2410,770 L 2410,630 L 2350,630 L 2350,770 L 2350,890 L 2350,1030 L 2350,1885 L 2325,1885 L 2325,2055 L 2350,2055 L 2350,2120 L 2350,2600 L 2350,2740 L 2410,2740 L 2410,2600 L 2410,2120 L 2410,2055 L 2435,2055 L 2435,1885 L 2409,1885 Z" /><path d="M 3130,1150 L 3130,1315 L 3105,1315 L 3105,1485 L 3130,1485 L 3130,2220 L 3130,2360 L 3130,2600 L 3130,2740 L 3190,2740 L 3190,2600 L 3190,2360 L 3190,2220 L 3190,1485 L 3215,1485 L 3215,1315 L 3190,1315 L 3190,1150 L 3190,1010 L 3190,770 L 3190,700 L 3190,630 L 3130,630 L 3130,700 L 3130,770 L 3130,1010 Z" /><path d="M 2870,770 L 2870,1010 L 2870,1125 L 2845,1125 L 2845,1295 L 2870,1295 L 2870,2220 L 2870,2360 L 2870,2600 L 2870,2740 L 2930,2740 L 2930,2600 L 2930,2360 L 2930,2220 L 2929,2220 L 2929,1295 L 2955,1295 L 2955,1125 L 2930,1125 L 2930,1010 L 2930,770 L 2930,630 L 2870,630 L 2870,700 Z" /><path d="M 1830,770 L 1830,890 L 1830,1030 L 1830,1505 L 1805,1505 L 1805,1675 L 1830,1675 L 1830,1980 L 1830,2120 L 1830,2600 L 1830,2740 L 1890,2740 L 1890,2600 L 1890,2120 L 1890,1980 L 1890,1675 L 1915,1675 L 1915,1505 L 1890,1505 L 1890,1030 L 1890,890 L 1890,770 L 1890,630 L 1890,580 L 1830,580 L 1830,630 Z" /><path d="M 2090,630 L 2090,770 L 2090,890 L 2090,1030 L 2090,1695 L 2065,1695 L 2065,1865 L 2090,1865 L 2090,1980 L 2090,2120 L 2090,2600 L 2090,2740 L 2150,2740 L 2150,2600 L 2150,2120 L 2150,1980 L 2150,1865 L 2175,1865 L 2175,1695 L 2150,1695 L 2150,1030 L 2150,890 L 2150,770 L 2150,630 L 2150,580 L 2090,580 Z" /><path d="M 1570,770 L 1570,890 L 1570,1030 L 1570,1315 L 1545,1315 L 1545,1485 L 1570,1485 L 1570,1980 L 1570,2120 L 1570,2600 L 1570,2740 L 1630,2740 L 1630,2600 L 1630,2120 L 1630,1980 L 1630,1485 L 1655,1485 L 1655,1315 L 1630,1315 L 1630,1030 L 1630,890 L 1630,770 L 1630,630 L 1630,580 L 1570,580 L 1570,630 Z" /><path d="M 1370,1030 L 1370,890 L 1370,770 L 1370,630 L 1370,580 L 1310,580 L 1310,630 L 1310,770 L 1310,890 L 1310,1030 L 1310,1885 L 1285,1885 L 1285,2055 L 1310,2055 L 1310,2120 L 1310,2600 L 1310,2740 L 1370,2740 L 1370,2600 L 1370,2120 L 1370,2055 L 1395,2055 L 1395,1885 L 1370,1885 Z" /><path d="M 1050,770 L 1050,890 L 1050,1030 L 1050,1695 L 1025,1695 L 1025,1865 L 1050,1865 L 1050,1980 L 1050,2120 L 1050,2600 L 1050,2740 L 1110,2740 L 1110,2600 L 1110,2120 L 1110,1980 L 1110,1865 L 1135,1865 L 1135,1695 L 1110,1695 L 1110,1030 L 1110,890 L 1110,770 L 1110,630 L 1110,580 L 1050,580 L 1050,630 Z" /><path d="M 790,630 L 790,770 L 790,890 L 790,1030 L 790,1505 L 765,1505 L 765,1675 L 790,1675 L 790,1980 L 790,2120 L 790,2600 L 790,2740 L 850,2740 L 850,2600 L 850,2120 L 850,1980 L 850,1675 L 875,1675 L 875,1505 L 850,1505 L 850,1030 L 850,890 L 850,770 L 850,630 L 850,580 L 790,580 Z" /></g></g><g id="CO"><g class="l30d0"><path d="M 2465,3110 L 2555,3110 L 2555,3200 L 2465,3200 Z" /><path d="M 2465,170 L 2555,170 L 2555,260 L 2465,260 Z" /><path d="M 385,170 L 475,170 L 475,260 L 385,260 Z" /><path d="M 385,3110 L 475,3110 L 475,3200 L 385,3200 Z" /><path d="M 2465,785 L 2555,785 L 2555,875 L 2465,875 Z" /><path d="M 385,785 L 475,785 L 475,875 L 385,875 Z" /><path d="M 3245,845 L 3335,845 L 3335,935 L 3245,935 Z" /><path d="M 2725,845 L 2815,845 L 2815,935 L 2725,935 Z" /><path d="M 3245,2435 L 3335,2435 L 3335,2525 L 3245,2525 Z" /><path d="M 2985,2435 L 3075,2435 L 3075,2525 L 2985,2525 Z" /><path d="M 2725,2435 L 2815,2435 L 2815,2525 L 2725,2525 Z" /><path d="M 1425,2150 L 1515,2150 L 1515,2240 L 1425,2240 Z" /><path d="M 1425,2480 L 1515,2480 L 1515,2570 L 1425,2570 Z" /><path d="M 1945,785 L 2035,785 L 2035,875 L 1945,875 Z" /><path d="M 1685,785 L 1775,785 L 1775,875 L 1685,875 Z" /><path d="M 1425,785 L 1515,785 L 1515,875 L 1425,875 Z" /><path d="M 1165,785 L 1255,785 L 1255,875 L 1165,875 Z" /><path d="M 905,785 L 995,785 L 995,875 L 905,875 Z" /><path d="M 2205,785 L 2295,785 L 2295,875 L 2205,875 Z" /><path d="M 645,785 L 735,785 L 735,875 L 645,875 Z" /><path d="M 2465,2480 L 2555,2480 L 2555,2570 L 2465,2570 Z" /><path d="M 2465,2150 L 2555,2150 L 2555,2240 L 2465,2240 Z" /><path d="M 385,2150 L 475,2150 L 475,2240 L 385,2240 Z" /><path d="M 385,2480 L 475,2480 L 475,2570 L 385,2570 Z" /><path d="M 3245,170 L 3335,170 L 3335,260 L 3245,260 Z" /><path d="M 2985,170 L 3075,170 L 3075,260 L 2985,260 Z" /><path d="M 2725,170 L 2815,170 L 2815,260 L 2725,260 Z" /><path d="M 2205,170 L 2295,170 L 2295,260 L 2205,260 Z" /><path d="M 645,170 L 735,170 L 735,260 L 645,260 Z" /><path d="M 905,170 L 995,170 L 995,260 L 905,260 Z" /><path d="M 1165,170 L 1255,170 L 1255,260 L 1165,260 Z" /><path d="M 1425,170 L 1515,170 L 1515,260 L 1425,260 Z" /><path d="M 1685,170 L 1775,170 L 1775,260 L 1685,260 Z" /><path d="M 1945,170 L 2035,170 L 2035,260 L 1945,260 Z" /><path d="M 3245,3110 L 3335,3110 L 3335,3200 L 3245,3200 Z" /><path d="M 2985,3110 L 3075,3110 L 3075,3200 L 2985,3200 Z" /><path d="M 2725,3110 L 2815,3110 L 2815,3200 L 2725,3200 Z" /><path d="M 2205,3110 L 2295,3110 L 2295,3200 L 2205,3200 Z" /><path d="M 1945,3110 L 2035,3110 L 2035,3200 L 1945,3200 Z" /><path d="M 1685,3110 L 1775,3110 L 1775,3200 L 1685,3200 Z" /><path d="M 1425,3110 L 1515,3110 L 1515,3200 L 1425,3200 Z" /><path d="M 1165,3110 L 1255,3110 L 1255,3200 L 1165,3200 Z" /><path d="M 905,3110 L 995,3110 L 995,3200 L 905,3200 Z" /><path d="M 645,3110 L 735,3110 L 735,3200 L 645,3200 Z" /><path d="M 5065,845 L 5155,845 L 5155,935 L 5065,935 Z" /><path d="M 6365,2480 L 6455,2480 L 6455,2570 L 6365,2570 Z" /><path d="M 5845,2480 L 5935,2480 L 5935,2570 L 5845,2570 Z" /><path d="M 7665,2435 L 7755,2435 L 7755,2525 L 7665,2525 Z" /><path d="M 7405,2435 L 7495,2435 L 7495,2525 L 7405,2525 Z" /><path d="M 7145,2435 L 7235,2435 L 7235,2525 L 7145,2525 Z" /><path d="M 6105,2150 L 6195,2150 L 6195,2240 L 6105,2240 Z" /><path d="M 6105,2480 L 6195,2480 L 6195,2570 L 6105,2570 Z" /><path d="M 7925,170 L 8015,170 L 8015,260 L 7925,260 Z" /><path d="M 7665,170 L 7755,170 L 7755,260 L 7665,260 Z" /><path d="M 7405,170 L 7495,170 L 7495,260 L 7405,260 Z" /><path d="M 7145,170 L 7235,170 L 7235,260 L 7145,260 Z" /><path d="M 6885,170 L 6975,170 L 6975,260 L 6885,260 Z" /><path d="M 6625,170 L 6715,170 L 6715,260 L 6625,260 Z" /><path d="M 6365,170 L 6455,170 L 6455,260 L 6365,260 Z" /><path d="M 6105,170 L 6195,170 L 6195,260 L 6105,260 Z" /><path d="M 5845,170 L 5935,170 L 5935,260 L 5845,260 Z" /><path d="M 5585,170 L 5675,170 L 5675,260 L 5585,260 Z" /><path d="M 5325,170 L 5415,170 L 5415,260 L 5325,260 Z" /><path d="M 5065,170 L 5155,170 L 5155,260 L 5065,260 Z" /><path d="M 4805,170 L 4895,170 L 4895,260 L 4805,260 Z" /><path d="M 4545,170 L 4635,170 L 4635,260 L 4545,260 Z" /><path d="M 4285,170 L 4375,170 L 4375,260 L 4285,260 Z" /><path d="M 4025,170 L 4115,170 L 4115,260 L 4025,260 Z" /><path d="M 3765,170 L 3855,170 L 3855,260 L 3765,260 Z" /><path d="M 3505,170 L 3595,170 L 3595,260 L 3505,260 Z" /><path d="M 7925,3110 L 8015,3110 L 8015,3200 L 7925,3200 Z" /><path d="M 3765,2435 L 3855,2435 L 3855,2525 L 3765,2525 Z" /><path d="M 4545,2435 L 4635,2435 L 4635,2525 L 4545,2525 Z" /><path d="M 4285,2435 L 4375,2435 L 4375,2525 L 4285,2525 Z" /><path d="M 4025,2435 L 4115,2435 L 4115,2525 L 4025,2525 Z" /><path d="M 4545,3110 L 4635,3110 L 4635,3200 L 4545,3200 Z" /><path d="M 3505,3110 L 3595,3110 L 3595,3200 L 3505,3200 Z" /><path d="M 3765,3110 L 3855,3110 L 3855,3200 L 3765,3200 Z" /><path d="M 4025,3110 L 4115,3110 L 4115,3200 L 4025,3200 Z" /><path d="M 4285,3110 L 4375,3110 L 4375,3200 L 4285,3200 Z" /><path d="M 7665,3110 L 7755,3110 L 7755,3200 L 7665,3200 Z" /><path d="M 6365,3110 L 6455,3110 L 6455,3200 L 6365,3200 Z" /><path d="M 6625,3110 L 6715,3110 L 6715,3200 L 6625,3200 Z" /><path d="M 6885,3110 L 6975,3110 L 6975,3200 L 6885,3200 Z" /><path d="M 7145,3110 L 7235,3110 L 7235,3200 L 7145,3200 Z" /><path d="M 7405,3110 L 7495,3110 L 7495,3200 L 7405,3200 Z" /><path d="M 5325,2435 L 5415,2435 L 5415,2525 L 5325,2525 Z" /><path d="M 6105,3110 L 6195,3110 L 6195,3200 L 6105,3200 Z" /><path d="M 4805,3110 L 4895,3110 L 4895,3200 L 4805,3200 Z" /><path d="M 5065,3110 L 5155,3110 L 5155,3200 L 5065,3200 Z" /><path d="M 5325,3110 L 5415,3110 L 5415,3200 L 5325,3200 Z" /><path d="M 5585,3110 L 5675,3110 L 5675,3200 L 5585,3200 Z" /><path d="M 5845,3110 L 5935,3110 L 5935,3200 L 5845,3200 Z" /><path d="M 7925,845 L 8015,845 L 8015,935 L 7925,935 Z" /><path d="M 6885,845 L 6975,845 L 6975,935 L 6885,935 Z" /><path d="M 6625,1010 L 6715,1010 L 6715,1100 L 6625,1100 Z" /><path d="M 6625,800 L 6715,800 L 6715,890 L 6625,890 Z" /><path d="M 5845,800 L 5935,800 L 5935,890 L 5845,890 Z" /><path d="M 5585,800 L 5675,800 L 5675,890 L 5585,890 Z" /><path d="M 5325,845 L 5415,845 L 5415,935 L 5325,935 Z" /><path d="M 4805,1010 L 4895,1010 L 4895,1100 L 4805,1100 Z" /><path d="M 4805,800 L 4895,800 L 4895,890 L 4805,890 Z" /><path d="M 7405,845 L 7495,845 L 7495,935 L 7405,935 Z" /><path d="M 3505,845 L 3595,845 L 3595,935 L 3505,935 Z" /><path d="M 3505,2435 L 3595,2435 L 3595,2525 L 3505,2525 Z" /><path d="M 7925,2435 L 8015,2435 L 8015,2525 L 7925,2525 Z" /><path d="M 6885,2435 L 6975,2435 L 6975,2525 L 6885,2525 Z" /><path d="M 6625,2150 L 6715,2150 L 6715,2240 L 6625,2240 Z" /><path d="M 5845,1010 L 5935,1010 L 5935,1100 L 5845,1100 Z" /><path d="M 5585,2435 L 5675,2435 L 5675,2525 L 5585,2525 Z" /><path d="M 5065,2435 L 5155,2435 L 5155,2525 L 5065,2525 Z" /><path d="M 4805,2435 L 4895,2435 L 4895,2525 L 4805,2525 Z" /><path d="M 5585,1010 L 5675,1010 L 5675,1100 L 5585,1100 Z" /><path d="M 4025,845 L 4115,845 L 4115,935 L 4025,935 Z" /><path d="M 6625,2480 L 6715,2480 L 6715,2570 L 6625,2570 Z" /><path d="M 3635,1545 L 3725,1545 L 3725,1635 L 3635,1635 Z" /><path d="M 5195,2150 L 5285,2150 L 5285,2240 L 5195,2240 Z" /><path d="M 3895,1925 L 3985,1925 L 3985,2015 L 3895,2015 Z" /><path d="M 4155,1735 L 4245,1735 L 4245,1825 L 4155,1825 Z" /><path d="M 5715,1355 L 5805,1355 L 5805,1445 L 5715,1445 Z" /><path d="M 5975,1735 L 6065,1735 L 6065,1825 L 5975,1825 Z" /><path d="M 4675,1735 L 4765,1735 L 4765,1825 L 4675,1825 Z" /><path d="M 4415,1355 L 4505,1355 L 4505,1445 L 4415,1445 Z" /><path d="M 6495,1545 L 6585,1545 L 6585,1635 L 6495,1635 Z" /><path d="M 7535,2150 L 7625,2150 L 7625,2240 L 7535,2240 Z" /><path d="M 6235,1925 L 6325,1925 L 6325,2015 L 6235,2015 Z" /><path d="M 7795,1735 L 7885,1735 L 7885,1825 L 7795,1825 Z" /><path d="M 7275,1545 L 7365,1545 L 7365,1635 L 7275,1635 Z" /><path d="M 7015,1925 L 7105,1925 L 7105,2015 L 7015,2015 Z" /><path d="M 515,1355 L 605,1355 L 605,1445 L 515,1445 Z" /><path d="M 2335,1925 L 2425,1925 L 2425,2015 L 2335,2015 Z" /><path d="M 3115,1355 L 3205,1355 L 3205,1445 L 3115,1445 Z" /><path d="M 2855,1165 L 2945,1165 L 2945,1255 L 2855,1255 Z" /><path d="M 1815,1545 L 1905,1545 L 1905,1635 L 1815,1635 Z" /><path d="M 2075,1735 L 2165,1735 L 2165,1825 L 2075,1825 Z" /><path d="M 1555,1355 L 1645,1355 L 1645,1445 L 1555,1445 Z" /><path d="M 1295,1925 L 1385,1925 L 1385,2015 L 1295,2015 Z" /><path d="M 1035,1735 L 1125,1735 L 1125,1825 L 1035,1825 Z" /><path d="M 775,1545 L 865,1545 L 865,1635 L 775,1635 Z" /></g></g><g id="M1"><g class="l31d0"><path d="M 6360,2575 L 6360,2700 L 5940,2700 L 5940,2575 L 5940,2440 L 5840,2440 L 5840,2575 L 5840,2700 L 5840,2800 L 5940,2800 L 6360,2800 L 6460,2800 L 6460,2700 L 6460,2575 L 6460,2440 L 6360,2440 Z" /><path d="M 3410,3060 L 3340,3060 L 3340,2530 L 3340,2395 L 3240,2395 L 3240,2530 L 3240,3060 L 2820,3060 L 2820,2530 L 2820,2395 L 2720,2395 L 2720,2530 L 2720,3060 L 1520,3060 L 1520,2245 L 1520,2110 L 1420,2110 L 1420,2245 L 1420,3060 L 290,3060 L 290,3250 L 3410,3250 L 3430,3250 L 8110,3250 L 8110,3060 L 8020,3060 L 8020,2530 L 8020,2395 L 7920,2395 L 7920,2530 L 7920,3060 L 7500,3060 L 7500,2530 L 7500,2395 L 7400,2395 L 7400,2530 L 7400,3060 L 6980,3060 L 6980,2530 L 6980,2395 L 6880,2395 L 6880,2530 L 6880,3060 L 5680,3060 L 5680,2530 L 5680,2395 L 5580,2395 L 5580,2530 L 5580,3060 L 5160,3060 L 5160,2530 L 5160,2395 L 5060,2395 L 5060,2530 L 5060,3060 L 4640,3060 L 4640,2530 L 4640,2395 L 4540,2395 L 4540,2530 L 4540,3060 L 4120,3060 L 4120,2530 L 4120,2395 L 4020,2395 L 4020,2530 L 4020,3060 L 3600,3060 L 3600,2530 L 3600,2395 L 3500,2395 L 3500,2530 L 3500,3060 L 3430,3060 Z" /><path d="M 380,915 L 480,915 L 480,780 L 480,310 L 900,310 L 900,780 L 900,915 L 1000,915 L 1000,780 L 1000,310 L 1420,310 L 1420,780 L 1420,915 L 1520,915 L 1520,780 L 1520,310 L 1940,310 L 1940,780 L 1940,915 L 2040,915 L 2040,780 L 2040,310 L 2460,310 L 2460,780 L 2460,915 L 2560,915 L 2560,780 L 2560,310 L 3240,310 L 3240,840 L 3240,975 L 3340,975 L 3340,840 L 3340,310 L 3410,310 L 3430,310 L 4020,310 L 4020,840 L 4020,975 L 4120,975 L 4120,840 L 4120,310 L 5060,310 L 5060,840 L 5060,975 L 5160,975 L 5160,840 L 5160,310 L 5580,310 L 5580,1005 L 5580,1140 L 5680,1140 L 5680,1005 L 5680,310 L 6620,310 L 6620,795 L 6620,1140 L 6720,1140 L 6720,795 L 6720,310 L 7400,310 L 7400,840 L 7400,975 L 7500,975 L 7500,840 L 7500,310 L 8110,310 L 8110,120 L 3430,120 L 3410,120 L 290,120 L 290,310 L 380,310 L 380,780 Z" /><path d="M 5320,2390 L 5320,2570 L 5320,2810 L 5420,2810 L 5420,2570 L 5420,2390 Z" /><path d="M 5420,680 L 5320,680 L 5320,800 L 5320,980 L 5320,1100 L 5420,1100 L 5420,980 L 5420,800 Z" /><path d="M 4900,720 L 4800,720 L 4800,860 L 4800,1040 L 4800,1140 L 4900,1140 L 4900,1040 L 4900,860 Z" /><path d="M 3760,2390 L 3760,2570 L 3760,2810 L 3860,2810 L 3860,2570 L 3860,2390 Z" /><path d="M 7140,2390 L 7140,2570 L 7140,2810 L 7240,2810 L 7240,2570 L 7240,2390 Z" /><path d="M 7660,2390 L 7660,2570 L 7660,2810 L 7760,2810 L 7760,2570 L 7760,2390 Z" /><path d="M 5940,720 L 5840,720 L 5840,860 L 5840,1040 L 5840,1140 L 5940,1140 L 5940,1040 L 5940,860 Z" /><path d="M 3465,940 L 3720,940 L 3810,940 L 3900,940 L 3900,840 L 3810,840 L 3720,840 L 3465,840 Z" /><path d="M 6845,940 L 6980,940 L 7100,940 L 7190,940 L 7280,940 L 7280,840 L 7190,840 L 7100,840 L 6980,840 L 6845,840 Z" /><path d="M 8055,840 L 7920,840 L 7800,840 L 7710,840 L 7620,840 L 7620,940 L 7710,940 L 7800,940 L 7920,940 L 8055,940 Z" /><path d="M 3865,1730 L 3865,1830 L 4115,1830 L 4285,1830 L 4285,1730 L 4115,1730 Z" /><path d="M 5550,1350 L 5550,1450 L 5675,1450 L 5845,1450 L 5970,1450 L 5970,1350 L 5845,1350 L 5675,1350 Z" /><path d="M 5870,1830 L 5935,1830 L 6060,1830 L 6105,1830 L 6240,1830 L 6290,1830 L 6290,1730 L 6240,1730 L 6105,1730 L 6060,1730 L 5935,1730 L 5870,1730 Z" /><path d="M 4395,1830 L 4500,1830 L 4635,1830 L 4680,1830 L 4805,1830 L 4815,1830 L 4815,1730 L 4805,1730 L 4680,1730 L 4635,1730 L 4500,1730 L 4395,1730 Z" /><path d="M 4375,1450 L 4460,1450 L 4545,1450 L 4545,1350 L 4460,1350 L 4375,1350 L 3900,1350 L 3810,1350 L 3720,1350 L 3720,1450 L 3810,1450 L 3900,1450 Z" /><path d="M 3765,1540 L 3680,1540 L 3595,1540 L 3595,1640 L 3680,1640 L 3765,1640 L 5280,1640 L 5370,1640 L 5460,1640 L 6455,1640 L 6540,1640 L 6625,1640 L 6625,1540 L 6540,1540 L 6455,1540 L 5460,1540 L 5370,1540 L 5280,1540 Z" /><path d="M 6065,2245 L 6100,2245 L 6100,2475 L 6100,2610 L 6200,2610 L 6200,2475 L 6200,2245 L 6620,2245 L 6620,2475 L 6620,2610 L 6720,2610 L 6720,2475 L 6720,2245 L 6755,2245 L 6755,2244 L 7495,2244 L 7495,2245 L 7665,2245 L 7665,2145 L 7580,2145 L 7495,2145 L 6755,2145 L 6065,2145 L 5980,2145 L 5890,2145 L 5800,2145 L 5325,2145 L 5240,2145 L 5155,2145 L 5155,2245 L 5325,2245 L 5325,2244 L 5800,2244 L 5800,2245 L 5980,2245 L 5980,2244 L 6065,2244 Z" /><path d="M 7755,1730 L 7280,1730 L 7190,1730 L 7100,1730 L 7100,1830 L 7190,1830 L 7280,1830 L 7755,1830 L 7840,1830 L 7925,1830 L 7925,1730 L 7840,1730 Z" /><path d="M 7405,1640 L 7620,1640 L 7710,1640 L 7800,1640 L 7800,1540 L 7710,1540 L 7620,1540 L 7405,1540 L 7320,1540 L 7235,1540 L 7235,1640 L 7320,1640 Z" /><path d="M 6195,2020 L 6365,2020 L 6975,2020 L 7060,2020 L 7145,2020 L 7145,1920 L 7060,1920 L 6975,1920 L 6365,1920 L 6195,1920 L 4940,1920 L 4850,1920 L 4760,1920 L 4025,1920 L 3940,1920 L 3855,1920 L 3855,2020 L 3940,2020 L 4025,2020 L 4280,2020 L 4280,2565 L 4380,2565 L 4380,2020 L 4760,2020 L 4800,2020 L 4800,2565 L 4900,2565 L 4900,2020 L 4940,2020 Z" /><path d="M 380,2110 L 380,2245 L 380,2270 L 380,2450 L 380,2475 L 380,2610 L 480,2610 L 480,2475 L 480,2450 L 480,2270 L 480,2245 L 480,2110 Z" /><path d="M 2460,2110 L 2460,2245 L 2460,2270 L 2460,2450 L 2460,2475 L 2460,2610 L 2560,2610 L 2560,2475 L 2560,2450 L 2560,2270 L 2560,2245 L 2560,2110 Z" /><path d="M 2820,560 L 2720,560 L 2720,800 L 2720,980 L 2820,980 L 2820,800 Z" /><path d="M 2980,2390 L 2980,2570 L 2980,2810 L 3080,2810 L 3080,2570 L 3080,2390 Z" /><path d="M 2300,500 L 2200,500 L 2200,740 L 2200,920 L 2300,920 L 2300,740 Z" /><path d="M 1780,500 L 1680,500 L 1680,740 L 1680,920 L 1780,920 L 1780,740 Z" /><path d="M 1260,500 L 1160,500 L 1160,740 L 1160,920 L 1260,920 L 1260,740 Z" /><path d="M 740,500 L 640,500 L 640,740 L 640,920 L 740,920 L 740,740 Z" /><path d="M 430,1350 L 430,1450 L 475,1450 L 600,1450 L 645,1450 L 780,1450 L 850,1450 L 850,1350 L 780,1350 L 645,1350 L 600,1350 L 475,1350 Z" /><path d="M 2080,1920 L 2080,2020 L 2160,2020 L 2295,2020 L 2340,2020 L 2465,2020 L 2500,2020 L 2500,1920 L 2465,1920 L 2340,1920 L 2295,1920 L 2160,1920 Z" /><path d="M 2600,1450 L 3075,1450 L 3160,1450 L 3245,1450 L 3245,1350 L 3160,1350 L 3075,1350 L 2600,1350 L 2510,1350 L 2420,1350 L 2420,1450 L 2510,1450 Z" /><path d="M 520,1260 L 2815,1260 L 2900,1260 L 2985,1260 L 2985,1160 L 2900,1160 L 2815,1160 L 520,1160 L 430,1160 L 340,1160 L 340,1260 L 430,1260 Z" /><path d="M 1820,1730 L 1820,1830 L 1900,1830 L 2035,1830 L 2080,1830 L 2205,1830 L 2240,1830 L 2240,1730 L 2205,1730 L 2080,1730 L 2035,1730 L 1900,1730 Z" /><path d="M 1560,1540 L 1560,1640 L 1640,1640 L 1775,1640 L 1820,1640 L 1945,1640 L 1980,1640 L 1980,1540 L 1945,1540 L 1820,1540 L 1775,1540 L 1640,1540 Z" /><path d="M 1320,1350 L 1320,1450 L 1380,1450 L 1515,1450 L 1560,1450 L 1685,1450 L 1740,1450 L 1740,1350 L 1685,1350 L 1560,1350 L 1515,1350 L 1380,1350 Z" /><path d="M 1205,1920 L 1205,2020 L 1255,2020 L 1380,2020 L 1425,2020 L 1560,2020 L 1625,2020 L 1625,1920 L 1560,1920 L 1425,1920 L 1380,1920 L 1255,1920 Z" /><path d="M 955,1730 L 955,1830 L 995,1830 L 1120,1830 L 1165,1830 L 1300,1830 L 1375,1830 L 1375,1730 L 1300,1730 L 1165,1730 L 1120,1730 L 995,1730 Z" /><path d="M 690,1540 L 690,1640 L 735,1640 L 860,1640 L 905,1640 L 1040,1640 L 1110,1640 L 1110,1540 L 1040,1540 L 905,1540 L 860,1540 L 735,1540 Z" /></g></g><g id="VIA1"><g class="l51d0"><path d="M 5320,2430 L 5420,2430 L 5420,2530 L 5320,2530 Z" /><path d="M 5320,840 L 5420,840 L 5420,940 L 5320,940 Z" /><path d="M 4800,900 L 4900,900 L 4900,1000 L 4800,1000 Z" /><path d="M 3760,2430 L 3860,2430 L 3860,2530 L 3760,2530 Z" /><path d="M 7140,2430 L 7240,2430 L 7240,2530 L 7140,2530 Z" /><path d="M 7660,2430 L 7760,2430 L 7760,2530 L 7660,2530 Z" /><path d="M 5840,900 L 5940,900 L 5940,1000 L 5840,1000 Z" /><path d="M 4540,1730 L 4640,1730 L 4640,1830 L 4540,1830 Z" /><path d="M 6100,1730 L 6200,1730 L 6200,1830 L 6100,1830 Z" /><path d="M 5320,1540 L 5420,1540 L 5420,1640 L 5320,1640 Z" /><path d="M 4800,1920 L 4900,1920 L 4900,2020 L 4800,2020 Z" /><path d="M 3760,1350 L 3860,1350 L 3860,1450 L 3760,1450 Z" /><path d="M 3760,840 L 3860,840 L 3860,940 L 3760,940 Z" /><path d="M 7660,1540 L 7760,1540 L 7760,1640 L 7660,1640 Z" /><path d="M 7140,1730 L 7240,1730 L 7240,1830 L 7140,1830 Z" /><path d="M 7140,840 L 7240,840 L 7240,940 L 7140,940 Z" /><path d="M 7660,840 L 7760,840 L 7760,940 L 7660,940 Z" /><path d="M 5840,2145 L 5940,2145 L 5940,2245 L 5840,2245 Z" /><path d="M 380,2310 L 480,2310 L 480,2410 L 380,2410 Z" /><path d="M 2460,2310 L 2560,2310 L 2560,2410 L 2460,2410 Z" /><path d="M 2720,840 L 2820,840 L 2820,940 L 2720,940 Z" /><path d="M 2980,2430 L 3080,2430 L 3080,2530 L 2980,2530 Z" /><path d="M 2200,780 L 2300,780 L 2300,880 L 2200,880 Z" /><path d="M 1680,780 L 1780,780 L 1780,880 L 1680,880 Z" /><path d="M 1160,780 L 1260,780 L 1260,880 L 1160,880 Z" /><path d="M 640,780 L 740,780 L 740,880 L 640,880 Z" /><path d="M 640,1350 L 740,1350 L 740,1450 L 640,1450 Z" /><path d="M 2200,1920 L 2300,1920 L 2300,2020 L 2200,2020 Z" /><path d="M 2460,1350 L 2560,1350 L 2560,1450 L 2460,1450 Z" /><path d="M 380,1160 L 480,1160 L 480,1260 L 380,1260 Z" /><path d="M 1940,1730 L 2040,1730 L 2040,1830 L 1940,1830 Z" /><path d="M 1680,1540 L 1780,1540 L 1780,1640 L 1680,1640 Z" /><path d="M 1420,1350 L 1520,1350 L 1520,1450 L 1420,1450 Z" /><path d="M 1420,1920 L 1520,1920 L 1520,2020 L 1420,2020 Z" /><path d="M 1160,1730 L 1260,1730 L 1260,1830 L 1160,1830 Z" /><path d="M 900,1540 L 1000,1540 L 1000,1640 L 900,1640 Z" /></g></g><g id="M2"><g class="l32d0"><path d="M 5420,890 L 5420,800 L 5320,800 L 5320,890 L 5320,980 L 5320,1500 L 5320,1680 L 5320,2390 L 5320,2480 L 5320,2570 L 5420,2570 L 5420,2480 L 5420,2390 L 5420,1680 L 5420,1500 L 5420,980 Z" /><path d="M 4800,1880 L 4800,1970 L 4800,2060 L 4900,2060 L 4900,1970 L 4900,1880 L 4900,1040 L 4900,950 L 4900,860 L 4800,860 L 4800,950 L 4800,1040 Z" /><path d="M 3860,1400 L 3860,1310 L 3860,980 L 3860,890 L 3860,800 L 3760,800 L 3760,890 L 3760,980 L 3760,1310 L 3760,1400 L 3760,1490 L 3760,2390 L 3760,2480 L 3760,2570 L 3860,2570 L 3860,2480 L 3860,2390 L 3860,1490 Z" /><path d="M 7240,1780 L 7240,1690 L 7240,980 L 7240,890 L 7240,800 L 7140,800 L 7140,890 L 7140,980 L 7140,1690 L 7140,1780 L 7140,1870 L 7140,2390 L 7140,2480 L 7140,2570 L 7240,2570 L 7240,2480 L 7240,2390 L 7240,1870 Z" /><path d="M 7760,1590 L 7760,1500 L 7760,980 L 7760,890 L 7760,800 L 7660,800 L 7660,890 L 7660,980 L 7660,1500 L 7660,1590 L 7660,1680 L 7660,2390 L 7660,2480 L 7660,2570 L 7760,2570 L 7760,2480 L 7760,2390 L 7760,1680 Z" /><path d="M 5840,2105 L 5840,2195 L 5840,2285 L 5940,2285 L 5940,2195 L 5940,2105 L 5940,1040 L 5940,950 L 5940,860 L 5840,860 L 5840,950 L 5840,1040 Z" /><path d="M 6100,1520 L 6100,1690 L 6100,1695 L 6100,1870 L 6100,1875 L 6100,2040 L 6200,2040 L 6200,1875 L 6200,1870 L 6200,1695 L 6200,1690 L 6200,1520 Z" /><path d="M 4540,1520 L 4540,1690 L 4540,1695 L 4540,1870 L 4540,1875 L 4540,2040 L 4640,2040 L 4640,1875 L 4640,1870 L 4640,1695 L 4640,1690 L 4640,1520 Z" /><path d="M 2340,780 L 2250,780 L 2160,780 L 1820,780 L 1730,780 L 1640,780 L 1640,880 L 1730,880 L 1820,880 L 2160,880 L 2250,880 L 2340,880 L 2460,880 L 2460,1310 L 2460,1400 L 2460,1490 L 2460,2270 L 2460,2360 L 2460,2450 L 2560,2450 L 2560,2360 L 2560,2270 L 2560,1490 L 2560,1400 L 2560,1310 L 2560,880 L 2560,780 L 2460,780 Z" /><path d="M 1120,880 L 1210,880 L 1300,880 L 1300,780 L 1210,780 L 1120,780 L 780,780 L 690,780 L 600,780 L 480,780 L 380,780 L 380,880 L 380,1120 L 380,1210 L 380,1300 L 380,2270 L 380,2360 L 380,2450 L 480,2450 L 480,2360 L 480,2270 L 480,1300 L 480,1210 L 480,1120 L 480,880 L 600,880 L 690,880 L 780,880 Z" /><path d="M 900,2095 L 900,2185 L 900,2275 L 1000,2275 L 1000,2185 L 1000,2095 L 1000,1680 L 1000,1590 L 1000,1500 L 900,1500 L 900,1590 L 900,1680 Z" /><path d="M 2820,800 L 2720,800 L 2720,890 L 2720,980 L 2720,1695 L 2720,1785 L 2720,1875 L 2720,2430 L 2720,2530 L 2820,2530 L 2940,2530 L 3030,2530 L 3120,2530 L 3120,2430 L 3030,2430 L 2940,2430 L 2820,2430 L 2820,1875 L 2820,1785 L 2820,1695 L 2820,980 L 2820,890 Z" /><path d="M 1680,1275 L 1680,1500 L 1680,1660 L 1680,1680 L 1780,1680 L 1780,1660 L 1780,1500 L 1780,1275 L 1780,1140 L 1780,1095 L 1680,1095 L 1680,1140 Z" /><path d="M 1940,1475 L 1940,1690 L 1940,1840 L 1940,1870 L 2040,1870 L 2040,1840 L 2040,1690 L 2040,1475 L 2040,1320 L 2040,1295 L 1940,1295 L 1940,1320 Z" /><path d="M 2200,1675 L 2200,1880 L 2200,2040 L 2200,2060 L 2300,2060 L 2300,2040 L 2300,1880 L 2300,1675 L 2300,1520 L 2300,1495 L 2200,1495 L 2200,1520 Z" /><path d="M 1420,1835 L 1420,1875 L 1420,1880 L 1420,1970 L 1420,2060 L 1420,2215 L 1520,2215 L 1520,2060 L 1520,1970 L 1520,1880 L 1520,1875 L 1520,1835 L 1520,1695 L 1420,1695 Z" /><path d="M 1160,1690 L 1160,1780 L 1160,1870 L 1160,1895 L 1160,2035 L 1160,2075 L 1160,2140 L 1260,2140 L 1260,2075 L 1260,2035 L 1260,1895 L 1260,1870 L 1260,1780 L 1260,1690 L 1260,1620 L 1160,1620 Z" /><path d="M 640,2295 L 640,2385 L 640,2475 L 740,2475 L 740,2385 L 740,2295 L 740,1490 L 740,1400 L 740,1310 L 640,1310 L 640,1400 L 640,1490 Z" /><path d="M 1420,1075 L 1420,1310 L 1420,1450 L 1420,1490 L 1520,1490 L 1520,1450 L 1520,1310 L 1520,1075 L 1520,930 L 1520,895 L 1420,895 L 1420,930 Z" /></g></g><g id="VIA2"><g class="l52d0"><path d="M 6100,1735 L 6200,1735 L 6200,1835 L 6100,1835 Z" /><path d="M 4540,1735 L 4640,1735 L 4640,1835 L 4540,1835 Z" /><path d="M 900,2135 L 1000,2135 L 1000,2235 L 900,2235 Z" /><path d="M 2720,1735 L 2820,1735 L 2820,1835 L 2720,1835 Z" /><path d="M 1680,1135 L 1780,1135 L 1780,1235 L 1680,1235 Z" /><path d="M 1940,1335 L 2040,1335 L 2040,1435 L 1940,1435 Z" /><path d="M 2200,1535 L 2300,1535 L 2300,1635 L 2200,1635 Z" /><path d="M 1420,1735 L 1520,1735 L 1520,1835 L 1420,1835 Z" /><path d="M 1160,1935 L 1260,1935 L 1260,2035 L 1160,2035 Z" /><path d="M 640,2335 L 740,2335 L 740,2435 L 640,2435 Z" /><path d="M 1420,935 L 1520,935 L 1520,1035 L 1420,1035 Z" /></g></g><g id="M3"><g class="l33d0"><path d="M 860,2135 L 430,2135 L 430,2235 L 860,2235 L 965,2235 L 1040,2235 L 1040,2135 L 965,2135 Z" /><path d="M 2860,1735 L 2770,1735 L 2680,1735 L 2680,1835 L 2770,1835 L 2860,1835 L 4500,1835 L 4540,1835 L 4590,1835 L 4680,1835 L 6060,1835 L 6150,1835 L 6240,1835 L 6240,1735 L 6150,1735 L 6060,1735 L 4680,1735 L 4590,1735 L 4540,1735 L 4500,1735 Z" /><path d="M 430,1235 L 530,1235 L 1640,1235 L 1730,1235 L 1820,1235 L 1820,1135 L 1730,1135 L 1640,1135 L 530,1135 L 430,1135 Z" /><path d="M 1900,1335 L 430,1335 L 430,1435 L 1900,1435 L 1990,1435 L 2080,1435 L 2080,1335 L 1990,1335 Z" /><path d="M 2160,1535 L 430,1535 L 430,1635 L 2160,1635 L 2250,1635 L 2340,1635 L 2340,1535 L 2250,1535 Z" /><path d="M 1380,1735 L 430,1735 L 430,1835 L 1380,1835 L 1470,1835 L 1560,1835 L 1560,1735 L 1470,1735 Z" /><path d="M 1120,1935 L 430,1935 L 430,2035 L 1120,2035 L 1210,2035 L 1300,2035 L 1300,1935 L 1210,1935 Z" /><path d="M 430,2335 L 430,2435 L 600,2435 L 780,2435 L 950,2435 L 950,2335 L 780,2335 L 600,2335 Z" /><path d="M 430,1035 L 1380,1035 L 1475,1035 L 1560,1035 L 1560,935 L 1475,935 L 1475,934 L 430,934 Z" /></g></g></g></svg>