<svg width="6590" height="3550" viewBox="-5 -3545 6590 3550" xmlns="http://www.w3.org/2000/svg" xmlns:xlink="http://www.w3.org/1999/xlink"><defs><style type="text/css">.l3d0 {fill: #fef9e7; fill-opacity: 0.5; stroke-width: 10; stroke: #f1c40f; stroke-linecap: round; stroke-linejoin: round; stroke-opacity: 0.2;}.l25d0 {fill: #8e44ad; fill-opacity: 0.05; stroke-width: 10; stroke: #8e44ad; stroke-linecap: round; stroke-linejoin: round; stroke-opacity: 1;}.l26d0 {fill: #ccd1d1; fill-opacity: 0.05; stroke-width: 10; stroke: #ccd1d1; stroke-linecap: round; stroke-linejoin: round; stroke-opacity: 1;}.l6d0 {fill: #f5b7b1; fill-opacity: 1; stroke-width: 10; stroke: #e74c3c; stroke-linecap: round; stroke-linejoin: round; stroke-opacity: 1;}.l17d0 {fill: #2980b9; fill-opacity: 1; stroke-width: 0; stroke: #000000; stroke-linecap: round; stroke-linejoin: round; stroke-opacity: 0;}.l30d0 {fill: #27ae60; fill-opacity: 1; stroke-width: 0; stroke: #000000; stroke-linecap: round; stroke-linejoin: round; stroke-opacity: 0;}.l31d0 {fill: #85c1e9; fill-opacity: 0.6; stroke-width: 0; stroke: #000000; stroke-linecap: round; stroke-linejoin: round; stroke-opacity: 0;}.l51d0 {fill: #f39c12; fill-opacity: 1; stroke-width: 10; stroke: #f39c12; stroke-linecap: round; stroke-linejoin: round; stroke-opacity: 1;}.l32d0 {fill: #f7dc6f; fill-opacity: 0.6; stroke-width: 0; stroke: #000000; stroke-linecap: round; stroke-linejoin: round; stroke-opacity: 0;}.l52d0 {fill: #a04000; fill-opacity: 1; stroke-width: 10; stroke: #a04000; stroke-linecap: round; stroke-linejoin: round; stroke-opacity: 1;}.l33d0 {fill: #16a085; fill-opacity: 0.6; stroke-width: 0; stroke: #000000; stroke-linecap: round; stroke-linejoin: round; stroke-opacity: 0;}path {fill-rule: evenodd;}</style></defs><g transform="scale(1 -1)"><g id="NW"><g class="l3d0"><path d="M 0,1900 L 0,3540 L 780,3540 L 3380,3540 L 3980,3540 L 6580,3540 L 6580,2770 L 6580,1900 L 3980,1900 L 3380,1900 L 780,1900 Z" /></g></g><g id="PP"><g class="l25d0"><path d="M 170,0 L 170,430 L 950,430 L 3550,430 L 3810,430 L 6410,430 L 6410,0 L 3810,0 L 3550,0 L 950,0 Z" /><path d="M 170,1685 L 170,2940 L 325,2940 L 585,2940 L 795,2940 L 950,2940 L 1055,2940 L 1105,2940 L 1365,2940 L 1575,2940 L 1625,2940 L 1835,2940 L 1885,2940 L 2095,2940 L 2145,2940 L 2355,2940 L 2405,2940 L 2615,2940 L 2665,2940 L 2875,2940 L 2925,2940 L 3135,2940 L 3185,2940 L 3395,2940 L 3550,2940 L 3655,2940 L 3705,2940 L 3810,2940 L 3965,2940 L 4175,2940 L 4225,2940 L 4435,2940 L 4485,2940 L 4695,2940 L 4745,2940 L 4955,2940 L 5005,2940 L 5215,2940 L 5265,2940 L 5475,2940 L 5525,2940 L 5735,2940 L 5785,2940 L 5995,2940 L 6255,2940 L 6410,2940 L 6410,1685 L 3810,1685 L 3550,1685 L 950,1685 Z" /></g></g><g id="NP"><g class="l26d0"><path d="M 170,2940 L 170,3370 L 950,3370 L 3550,3370 L 3810,3370 L 6410,3370 L 6410,2940 L 3810,2940 L 3550,2940 L 950,2940 Z" /><path d="M 170,430 L 170,1685 L 950,1685 L 3550,1685 L 3810,1685 L 6410,1685 L 6410,430 L 6255,430 L 5995,430 L 5785,430 L 5735,430 L 5525,430 L 5475,430 L 5265,430 L 5215,430 L 5005,430 L 4955,430 L 4745,430 L 4695,430 L 4485,430 L 4435,430 L 4225,430 L 4175,430 L 3965,430 L 3810,430 L 3705,430 L 3655,430 L 3550,430 L 3395,430 L 3185,430 L 3135,430 L 2925,430 L 2875,430 L 2665,430 L 2615,430 L 2405,430 L 2355,430 L 2145,430 L 2095,430 L 1885,430 L 1835,430 L 1625,430 L 1575,430 L 1365,430 L 1105,430 L 1055,430 L 950,430 L 795,430 L 585,430 L 325,430 Z" /></g></g><g id="OD"><g class="l6d0"><path d="M 6125,2600 L 6210,2600 L 6225,2600 L 6225,2480 L 6210,2480 L 6125,2480 L 6050,2480 L 5990,2480 L 5915,2480 L 5865,2480 L 5790,2480 L 5730,2480 L 5655,2480 L 5605,2480 L 5530,2480 L 5470,2480 L 5395,2480 L 5345,2480 L 5270,2480 L 5210,2480 L 5135,2480 L 5085,2480 L 5010,2480 L 4950,2480 L 4875,2480 L 4825,2480 L 4750,2480 L 4690,2480 L 4615,2480 L 4565,2480 L 4490,2480 L 4430,2480 L 4355,2480 L 4305,2480 L 4230,2480 L 4170,2480 L 4095,2480 L 4045,2480 L 3970,2480 L 3910,2480 L 3835,2480 L 3750,2480 L 3735,2480 L 3735,2600 L 3750,2600 L 3835,2600 L 3910,2600 L 3970,2600 L 4045,2600 L 4095,2600 L 4170,2600 L 4230,2600 L 4305,2600 L 4355,2600 L 4430,2600 L 4490,2600 L 4565,2600 L 4615,2600 L 4690,2600 L 4750,2600 L 4825,2600 L 4875,2600 L 4950,2600 L 5010,2600 L 5085,2600 L 5135,2600 L 5210,2600 L 5270,2600 L 5345,2600 L 5395,2600 L 5470,2600 L 5530,2600 L 5605,2600 L 5655,2600 L 5730,2600 L 5790,2600 L 5865,2600 L 5915,2600 L 5990,2600 L 6050,2600 Z" /><path d="M 4045,770 L 3970,770 L 3910,770 L 3835,770 L 3750,770 L 3735,770 L 3735,890 L 3750,890 L 3835,890 L 3910,890 L 3970,890 L 4045,890 L 4095,890 L 4170,890 L 4230,890 L 4305,890 L 4355,890 L 4430,890 L 4490,890 L 4565,890 L 4615,890 L 4690,890 L 4750,890 L 4825,890 L 4875,890 L 4950,890 L 5010,890 L 5085,890 L 5135,890 L 5210,890 L 5270,890 L 5345,890 L 5395,890 L 5470,890 L 5530,890 L 5605,890 L 5655,890 L 5730,890 L 5790,890 L 5865,890 L 5915,890 L 5990,890 L 6050,890 L 6125,890 L 6210,890 L 6225,890 L 6225,770 L 6210,770 L 6125,770 L 6050,770 L 5990,770 L 5915,770 L 5865,770 L 5790,770 L 5730,770 L 5655,770 L 5605,770 L 5530,770 L 5470,770 L 5395,770 L 5345,770 L 5270,770 L 5210,770 L 5135,770 L 5085,770 L 5010,770 L 4950,770 L 4875,770 L 4825,770 L 4750,770 L 4690,770 L 4615,770 L 4565,770 L 4490,770 L 4430,770 L 4355,770 L 4305,770 L 4230,770 L 4170,770 L 4095,770 Z" /><path d="M 300,3070 L 300,3240 L 1080,3240 L 3680,3240 L 6280,3240 L 6280,3070 L 3680,3070 L 1080,3070 Z" /><path d="M 300,130 L 300,300 L 1080,300 L 3680,300 L 6280,300 L 6280,130 L 3680,130 L 1080,130 Z" /><path d="M 3525,2600 L 3610,2600 L 3625,2600 L 3625,2480 L 3610,2480 L 3525,2480 L 3450,2480 L 3390,2480 L 3315,2480 L 3265,2480 L 3190,2480 L 3130,2480 L 3055,2480 L 3005,2480 L 2930,2480 L 2870,2480 L 2795,2480 L 2745,2480 L 2670,2480 L 2610,2480 L 2535,2480 L 2485,2480 L 2410,2480 L 2350,2480 L 2275,2480 L 2225,2480 L 2150,2480 L 2090,2480 L 2015,2480 L 1965,2480 L 1890,2480 L 1830,2480 L 1755,2480 L 1705,2480 L 1630,2480 L 1570,2480 L 1495,2480 L 1445,2480 L 1370,2480 L 1310,2480 L 1235,2480 L 1150,2480 L 1135,2480 L 1135,2600 L 1150,2600 L 1235,2600 L 1310,2600 L 1370,2600 L 1445,2600 L 1495,2600 L 1570,2600 L 1630,2600 L 1705,2600 L 1755,2600 L 1830,2600 L 1890,2600 L 1965,2600 L 2015,2600 L 2090,2600 L 2150,2600 L 2225,2600 L 2275,2600 L 2350,2600 L 2410,2600 L 2485,2600 L 2535,2600 L 2610,2600 L 2670,2600 L 2745,2600 L 2795,2600 L 2870,2600 L 2930,2600 L 3005,2600 L 3055,2600 L 3130,2600 L 3190,2600 L 3265,2600 L 3315,2600 L 3390,2600 L 3450,2600 Z" /><path d="M 1445,770 L 1370,770 L 1310,770 L 1235,770 L 1150,770 L 1135,770 L 1135,890 L 1150,890 L 1235,890 L 1310,890 L 1370,890 L 1445,890 L 1495,890 L 1570,890 L 1630,890 L 1705,890 L 1755,890 L 1830,890 L 1890,890 L 1965,890 L 2015,890 L 2090,890 L 2150,890 L 2225,890 L 2275,890 L 2350,890 L 2410,890 L 2485,890 L 2535,890 L 2610,890 L 2670,890 L 2745,890 L 2795,890 L 2870,890 L 2930,890 L 3005,890 L 3055,890 L 3130,890 L 3190,890 L 3265,890 L 3315,890 L 3390,890 L 3450,890 L 3525,890 L 3610,890 L 3625,890 L 3625,770 L 3610,770 L 3525,770 L 3450,770 L 3390,770 L 3315,770 L 3265,770 L 3190,770 L 3130,770 L 3055,770 L 3005,770 L 2930,770 L 2870,770 L 2795,770 L 2745,770 L 2670,770 L 2610,770 L 2535,770 L 2485,770 L 2410,770 L 2350,770 L 2275,770 L 2225,770 L 2150,770 L 2090,770 L 2015,770 L 1965,770 L 1890,770 L 1830,770 L 1755,770 L 1705,770 L 1630,770 L 1570,770 L 1495,770 Z" /><path d="M 665,2360 L 590,2360 L 530,2360 L 455,2360 L 370,2360 L 370,2600 L 455,2600 L 530,2600 L 590,2600 L 665,2600 L 715,2600 L 790,2600 L 850,2600 L 925,2600 L 1010,2600 L 1010,2360 L 925,2360 L 850,2360 L 790,2360 L 715,2360 Z" /><path d="M 665,770 L 590,770 L 530,770 L 455,770 L 370,770 L 370,1010 L 455,1010 L 530,1010 L 590,1010 L 665,1010 L 715,1010 L 790,1010 L 850,1010 L 925,1010 L 1010,1010 L 1010,770 L 925,770 L 850,770 L 790,770 L 715,770 Z" /></g></g><g id="PO"><g class="l17d0"><path d="M 5990,2480 L 5990,2600 L 5990,2740 L 6050,2740 L 6050,2600 L 6050,2480 L 6050,2340 L 6050,1675 L 6075,1675 L 6075,1505 L 6050,1505 L 6050,1030 L 6050,890 L 6050,770 L 6050,630 L 5990,630 L 5990,770 L 5990,890 L 5990,1030 L 5990,1505 L 5965,1505 L 5965,1675 L 5990,1675 L 5990,2340 Z" /><path d="M 5210,2480 L 5210,2600 L 5210,2740 L 5270,2740 L 5270,2600 L 5270,2480 L 5270,2340 L 5270,1675 L 5295,1675 L 5295,1505 L 5270,1505 L 5270,1030 L 5270,890 L 5270,770 L 5270,630 L 5210,630 L 5210,770 L 5210,890 L 5210,1030 L 5210,1505 L 5185,1505 L 5185,1675 L 5210,1675 L 5210,2340 Z" /><path d="M 4950,2480 L 4950,2600 L 4950,2740 L 5010,2740 L 5010,2600 L 5010,2480 L 5010,2340 L 5010,1675 L 5035,1675 L 5035,1505 L 5010,1505 L 5010,1030 L 5010,890 L 5010,770 L 5010,630 L 4950,630 L 4950,770 L 4950,890 L 4950,1030 L 4950,1505 L 4925,1505 L 4925,1675 L 4950,1675 L 4950,2340 Z" /><path d="M 4170,2480 L 4170,2600 L 4170,2740 L 4230,2740 L 4230,2600 L 4230,2480 L 4230,2340 L 4230,1675 L 4255,1675 L 4255,1505 L 4230,1505 L 4230,1030 L 4230,890 L 4230,770 L 4230,630 L 4170,630 L 4170,770 L 4170,890 L 4170,1030 L 4170,1505 L 4145,1505 L 4145,1675 L 4170,1675 L 4170,2340 Z" /><path d="M 4430,2480 L 4430,2600 L 4430,2740 L 4490,2740 L 4490,2600 L 4490,2480 L 4490,2340 L 4490,1675 L 4515,1675 L 4515,1505 L 4490,1505 L 4490,1030 L 4490,890 L 4490,770 L 4490,630 L 4430,630 L 4430,770 L 4430,890 L 4430,1030 L 4430,1505 L 4405,1505 L 4405,1675 L 4430,1675 L 4430,2340 Z" /><path d="M 5530,1030 L 5530,890 L 5530,770 L 5530,630 L 5470,630 L 5470,770 L 5470,890 L 5470,1030 L 5470,1125 L 5445,1125 L 5445,1295 L 5555,1295 L 5555,1125 L 5530,1125 Z" /><path d="M 5789,1030 L 5790,1030 L 5790,890 L 5790,770 L 5790,630 L 5730,630 L 5730,770 L 5730,890 L 5730,1030 L 5730,1315 L 5705,1315 L 5705,1485 L 5815,1485 L 5815,1315 L 5789,1315 Z" /><path d="M 5730,2340 L 5730,2480 L 5730,2600 L 5730,2740 L 5790,2740 L 5790,2600 L 5790,2480 L 5790,2340 L 5789,2340 L 5789,2055 L 5815,2055 L 5815,1885 L 5705,1885 L 5705,2055 L 5730,2055 Z" /><path d="M 5470,2340 L 5470,2480 L 5470,2600 L 5470,2740 L 5530,2740 L 5530,2600 L 5530,2480 L 5530,2340 L 5530,2245 L 5555,2245 L 5555,2075 L 5445,2075 L 5445,2245 L 5470,2245 Z" /><path d="M 4750,1030 L 4750,890 L 4750,770 L 4750,630 L 4690,630 L 4690,770 L 4690,890 L 4690,1030 L 4690,1315 L 4665,1315 L 4665,1485 L 4775,1485 L 4775,1315 L 4750,1315 Z" /><path d="M 3970,1030 L 3970,890 L 3970,770 L 3970,630 L 3910,630 L 3910,770 L 3910,890 L 3910,1030 L 3910,1125 L 3885,1125 L 3885,1295 L 3995,1295 L 3995,1125 L 3970,1125 Z" /><path d="M 4690,2340 L 4690,2480 L 4690,2600 L 4690,2740 L 4750,2740 L 4750,2600 L 4750,2480 L 4750,2340 L 4750,2055 L 4775,2055 L 4775,1885 L 4665,1885 L 4665,2055 L 4690,2055 Z" /><path d="M 3910,2340 L 3910,2480 L 3910,2600 L 3910,2740 L 3970,2740 L 3970,2600 L 3970,2480 L 3970,2340 L 3970,2245 L 3995,2245 L 3995,2075 L 3885,2075 L 3885,2245 L 3910,2245 Z" /><path d="M 3390,2480 L 3390,2600 L 3390,2740 L 3450,2740 L 3450,2600 L 3450,2480 L 3450,2340 L 3450,1675 L 3475,1675 L 3475,1505 L 3450,1505 L 3450,1030 L 3450,890 L 3450,770 L 3450,630 L 3390,630 L 3390,770 L 3390,890 L 3390,1030 L 3390,1505 L 3365,1505 L 3365,1675 L 3390,1675 L 3390,2340 Z" /><path d="M 2610,2480 L 2610,2600 L 2610,2740 L 2670,2740 L 2670,2600 L 2670,2480 L 2670,2340 L 2670,1675 L 2695,1675 L 2695,1505 L 2670,1505 L 2670,1030 L 2670,890 L 2670,770 L 2670,630 L 2610,630 L 2610,770 L 2610,890 L 2610,1030 L 2610,1505 L 2585,1505 L 2585,1675 L 2610,1675 L 2610,2340 Z" /><path d="M 2350,2480 L 2350,2600 L 2350,2740 L 2410,2740 L 2410,2600 L 2410,2480 L 2410,2340 L 2410,1675 L 2435,1675 L 2435,1505 L 2410,1505 L 2410,1030 L 2410,890 L 2410,770 L 2410,630 L 2350,630 L 2350,770 L 2350,890 L 2350,1030 L 2350,1505 L 2325,1505 L 2325,1675 L 2350,1675 L 2350,2340 Z" /><path d="M 1570,2480 L 1570,2600 L 1570,2740 L 1630,2740 L 1630,2600 L 1630,2480 L 1630,2340 L 1630,1675 L 1655,1675 L 1655,1505 L 1630,1505 L 1630,1030 L 1630,890 L 1630,770 L 1630,630 L 1570,630 L 1570,770 L 1570,890 L 1570,1030 L 1570,1505 L 1545,1505 L 1545,1675 L 1570,1675 L 1570,2340 Z" /><path d="M 1830,2480 L 1830,2600 L 1830,2740 L 1890,2740 L 1890,2600 L 1890,2480 L 1890,2340 L 1890,1675 L 1915,1675 L 1915,1505 L 1890,1505 L 1890,1030 L 1890,890 L 1890,770 L 1890,630 L 1830,630 L 1830,770 L 1830,890 L 1830,1030 L 1830,1505 L 1805,1505 L 1805,1675 L 1830,1675 L 1830,2340 Z" /><path d="M 2930,1030 L 2930,890 L 2930,770 L 2930,630 L 2870,630 L 2870,770 L 2870,890 L 2870,1030 L 2870,1125 L 2845,1125 L 2845,1295 L 2955,1295 L 2955,1125 L 2930,1125 Z" /><path d="M 3189,1030 L 3190,1030 L 3190,890 L 3190,770 L 3190,630 L 3130,630 L 3130,770 L 3130,890 L 3130,1030 L 3130,1315 L 3105,1315 L 3105,1485 L 3215,1485 L 3215,1315 L 3189,1315 Z" /><path d="M 3130,2340 L 3130,2480 L 3130,2600 L 3130,2740 L 3190,2740 L 3190,2600 L 3190,2480 L 3190,2340 L 3189,2340 L 3189,2055 L 3215,2055 L 3215,1885 L 3105,1885 L 3105,2055 L 3130,2055 Z" /><path d="M 2870,2340 L 2870,2480 L 2870,2600 L 2870,2740 L 2930,2740 L 2930,2600 L 2930,2480 L 2930,2340 L 2930,2245 L 2955,2245 L 2955,2075 L 2845,2075 L 2845,2245 L 2870,2245 Z" /><path d="M 2150,1030 L 2150,890 L 2150,770 L 2150,630 L 2090,630 L 2090,770 L 2090,890 L 2090,1030 L 2090,1315 L 2065,1315 L 2065,1485 L 2175,1485 L 2175,1315 L 2150,1315 Z" /><path d="M 1370,1030 L 1370,890 L 1370,770 L 1370,630 L 1310,630 L 1310,770 L 1310,890 L 1310,1030 L 1310,1125 L 1285,1125 L 1285,1295 L 1395,1295 L 1395,1125 L 1370,1125 Z" /><path d="M 2090,2340 L 2090,2480 L 2090,2600 L 2090,2740 L 2150,2740 L 2150,2600 L 2150,2480 L 2150,2340 L 2150,2055 L 2175,2055 L 2175,1885 L 2065,1885 L 2065,2055 L 2090,2055 Z" /><path d="M 1310,2340 L 1310,2480 L 1310,2600 L 1310,2740 L 1370,2740 L 1370,2600 L 1370,2480 L 1370,2340 L 1370,2245 L 1395,2245 L 1395,2075 L 1285,2075 L 1285,2245 L 1310,2245 Z" /><path d="M 530,2360 L 530,2600 L 530,2740 L 590,2740 L 590,2600 L 590,2360 L 590,2220 L 590,1485 L 615,1485 L 615,1315 L 590,1315 L 590,1150 L 590,1010 L 590,770 L 590,630 L 530,630 L 530,770 L 530,1010 L 530,1150 L 530,1315 L 505,1315 L 505,1485 L 530,1485 L 530,2220 Z" /><path d="M 790,2360 L 790,2600 L 790,2740 L 850,2740 L 850,2600 L 850,2360 L 850,2220 L 850,1865 L 875,1865 L 875,1695 L 850,1695 L 850,1150 L 850,1010 L 850,770 L 850,630 L 790,630 L 790,770 L 790,1010 L 790,1150 L 790,1695 L 765,1695 L 765,1865 L 790,1865 L 790,2220 Z" /></g></g><g id="CO"><g class="l30d0"><path d="M 905,845 L 995,845 L 995,935 L 905,935 Z" /><path d="M 385,845 L 475,845 L 475,935 L 385,935 Z" /><path d="M 385,2435 L 475,2435 L 475,2525 L 385,2525 Z" /><path d="M 645,2435 L 735,2435 L 735,2525 L 645,2525 Z" /><path d="M 905,2435 L 995,2435 L 995,2525 L 905,2525 Z" /><path d="M 385,170 L 475,170 L 475,260 L 385,260 Z" /><path d="M 645,170 L 735,170 L 735,260 L 645,260 Z" /><path d="M 905,170 L 995,170 L 995,260 L 905,260 Z" /><path d="M 385,3110 L 475,3110 L 475,3200 L 385,3200 Z" /><path d="M 645,3110 L 735,3110 L 735,3200 L 645,3200 Z" /><path d="M 905,3110 L 995,3110 L 995,3200 L 905,3200 Z" /><path d="M 5585,785 L 5675,785 L 5675,875 L 5585,875 Z" /><path d="M 5065,785 L 5155,785 L 5155,875 L 5065,875 Z" /><path d="M 4545,785 L 4635,785 L 4635,875 L 4545,875 Z" /><path d="M 4285,785 L 4375,785 L 4375,875 L 4285,875 Z" /><path d="M 5585,2495 L 5675,2495 L 5675,2585 L 5585,2585 Z" /><path d="M 5065,2495 L 5155,2495 L 5155,2585 L 5065,2585 Z" /><path d="M 4545,2495 L 4635,2495 L 4635,2585 L 4545,2585 Z" /><path d="M 4285,2495 L 4375,2495 L 4375,2585 L 4285,2585 Z" /><path d="M 6105,2495 L 6195,2495 L 6195,2585 L 6105,2585 Z" /><path d="M 6105,785 L 6195,785 L 6195,875 L 6105,875 Z" /><path d="M 3765,785 L 3855,785 L 3855,875 L 3765,875 Z" /><path d="M 3765,2495 L 3855,2495 L 3855,2585 L 3765,2585 Z" /><path d="M 3765,170 L 3855,170 L 3855,260 L 3765,260 Z" /><path d="M 4285,170 L 4375,170 L 4375,260 L 4285,260 Z" /><path d="M 4025,170 L 4115,170 L 4115,260 L 4025,260 Z" /><path d="M 6105,3110 L 6195,3110 L 6195,3200 L 6105,3200 Z" /><path d="M 5845,3110 L 5935,3110 L 5935,3200 L 5845,3200 Z" /><path d="M 5585,3110 L 5675,3110 L 5675,3200 L 5585,3200 Z" /><path d="M 5065,3110 L 5155,3110 L 5155,3200 L 5065,3200 Z" /><path d="M 4805,3110 L 4895,3110 L 4895,3200 L 4805,3200 Z" /><path d="M 4545,3110 L 4635,3110 L 4635,3200 L 4545,3200 Z" /><path d="M 5065,170 L 5155,170 L 5155,260 L 5065,260 Z" /><path d="M 5845,170 L 5935,170 L 5935,260 L 5845,260 Z" /><path d="M 5585,170 L 5675,170 L 5675,260 L 5585,260 Z" /><path d="M 5325,170 L 5415,170 L 5415,260 L 5325,260 Z" /><path d="M 4545,170 L 4635,170 L 4635,260 L 4545,260 Z" /><path d="M 6105,170 L 6195,170 L 6195,260 L 6105,260 Z" /><path d="M 4805,170 L 4895,170 L 4895,260 L 4805,260 Z" /><path d="M 3765,3110 L 3855,3110 L 3855,3200 L 3765,3200 Z" /><path d="M 4025,3110 L 4115,3110 L 4115,3200 L 4025,3200 Z" /><path d="M 4285,3110 L 4375,3110 L 4375,3200 L 4285,3200 Z" /><path d="M 5325,3110 L 5415,3110 L 5415,3200 L 5325,3200 Z" /><path d="M 5975,1545 L 6065,1545 L 6065,1635 L 5975,1635 Z" /><path d="M 5195,1545 L 5285,1545 L 5285,1635 L 5195,1635 Z" /><path d="M 4935,1545 L 5025,1545 L 5025,1635 L 4935,1635 Z" /><path d="M 4155,1545 L 4245,1545 L 4245,1635 L 4155,1635 Z" /><path d="M 4415,1545 L 4505,1545 L 4505,1635 L 4415,1635 Z" /><path d="M 5455,1165 L 5545,1165 L 5545,1255 L 5455,1255 Z" /><path d="M 5715,1355 L 5805,1355 L 5805,1445 L 5715,1445 Z" /><path d="M 5715,1925 L 5805,1925 L 5805,2015 L 5715,2015 Z" /><path d="M 5455,2115 L 5545,2115 L 5545,2205 L 5455,2205 Z" /><path d="M 4675,1355 L 4765,1355 L 4765,1445 L 4675,1445 Z" /><path d="M 3895,1165 L 3985,1165 L 3985,1255 L 3895,1255 Z" /><path d="M 4675,1925 L 4765,1925 L 4765,2015 L 4675,2015 Z" /><path d="M 3895,2115 L 3985,2115 L 3985,2205 L 3895,2205 Z" /><path d="M 2985,785 L 3075,785 L 3075,875 L 2985,875 Z" /><path d="M 2465,785 L 2555,785 L 2555,875 L 2465,875 Z" /><path d="M 1945,785 L 2035,785 L 2035,875 L 1945,875 Z" /><path d="M 1685,785 L 1775,785 L 1775,875 L 1685,875 Z" /><path d="M 2985,2495 L 3075,2495 L 3075,2585 L 2985,2585 Z" /><path d="M 2465,2495 L 2555,2495 L 2555,2585 L 2465,2585 Z" /><path d="M 1945,2495 L 2035,2495 L 2035,2585 L 1945,2585 Z" /><path d="M 1685,2495 L 1775,2495 L 1775,2585 L 1685,2585 Z" /><path d="M 3505,2495 L 3595,2495 L 3595,2585 L 3505,2585 Z" /><path d="M 3505,785 L 3595,785 L 3595,875 L 3505,875 Z" /><path d="M 1165,785 L 1255,785 L 1255,875 L 1165,875 Z" /><path d="M 1165,2495 L 1255,2495 L 1255,2585 L 1165,2585 Z" /><path d="M 1165,170 L 1255,170 L 1255,260 L 1165,260 Z" /><path d="M 1685,170 L 1775,170 L 1775,260 L 1685,260 Z" /><path d="M 1425,170 L 1515,170 L 1515,260 L 1425,260 Z" /><path d="M 3505,3110 L 3595,3110 L 3595,3200 L 3505,3200 Z" /><path d="M 3245,3110 L 3335,3110 L 3335,3200 L 3245,3200 Z" /><path d="M 2985,3110 L 3075,3110 L 3075,3200 L 2985,3200 Z" /><path d="M 2465,3110 L 2555,3110 L 2555,3200 L 2465,3200 Z" /><path d="M 2205,3110 L 2295,3110 L 2295,3200 L 2205,3200 Z" /><path d="M 1945,3110 L 2035,3110 L 2035,3200 L 1945,3200 Z" /><path d="M 2465,170 L 2555,170 L 2555,260 L 2465,260 Z" /><path d="M 3245,170 L 3335,170 L 3335,260 L 3245,260 Z" /><path d="M 2985,170 L 3075,170 L 3075,260 L 2985,260 Z" /><path d="M 2725,170 L 2815,170 L 2815,260 L 2725,260 Z" /><path d="M 1945,170 L 2035,170 L 2035,260 L 1945,260 Z" /><path d="M 3505,170 L 3595,170 L 3595,260 L 3505,260 Z" /><path d="M 2205,170 L 2295,170 L 2295,260 L 2205,260 Z" /><path d="M 1165,3110 L 1255,3110 L 1255,3200 L 1165,3200 Z" /><path d="M 1425,3110 L 1515,3110 L 1515,3200 L 1425,3200 Z" /><path d="M 1685,3110 L 1775,3110 L 1775,3200 L 1685,3200 Z" /><path d="M 2725,3110 L 2815,3110 L 2815,3200 L 2725,3200 Z" /><path d="M 3375,1545 L 3465,1545 L 3465,1635 L 3375,1635 Z" /><path d="M 2595,1545 L 2685,1545 L 2685,1635 L 2595,1635 Z" /><path d="M 2335,1545 L 2425,1545 L 2425,1635 L 2335,1635 Z" /><path d="M 1555,1545 L 1645,1545 L 1645,1635 L 1555,1635 Z" /><path d="M 1815,1545 L 1905,1545 L 1905,1635 L 1815,1635 Z" /><path d="M 2855,1165 L 2945,1165 L 2945,1255 L 2855,1255 Z" /><path d="M 3115,1355 L 3205,1355 L 3205,1445 L 3115,1445 Z" /><path d="M 3115,1925 L 3205,1925 L 3205,2015 L 3115,2015 Z" /><path d="M 2855,2115 L 2945,2115 L 2945,2205 L 2855,2205 Z" /><path d="M 2075,1355 L 2165,1355 L 2165,1445 L 2075,1445 Z" /><path d="M 1295,1165 L 1385,1165 L 1385,1255 L 1295,1255 Z" /><path d="M 2075,1925 L 2165,1925 L 2165,2015 L 2075,2015 Z" /><path d="M 1295,2115 L 1385,2115 L 1385,2205 L 1295,2205 Z" /><path d="M 515,1355 L 605,1355 L 605,1445 L 515,1445 Z" /><path d="M 775,1735 L 865,1735 L 865,1825 L 775,1825 Z" /></g></g><g id="M1"><g class="l31d0"><path d="M 5290,1160 L 5290,1260 L 5415,1260 L 5585,1260 L 5710,1260 L 5710,1160 L 5585,1160 L 5415,1160 Z" /><path d="M 5550,1350 L 5550,1450 L 5675,1450 L 5845,1450 L 5970,1450 L 5970,1350 L 5845,1350 L 5675,1350 Z" /><path d="M 5550,1920 L 5550,2020 L 5675,2020 L 5845,2020 L 5970,2020 L 5970,1920 L 5845,1920 L 5675,1920 Z" /><path d="M 5290,2110 L 5290,2210 L 5415,2210 L 5585,2210 L 5710,2210 L 5710,2110 L 5585,2110 L 5415,2110 Z" /><path d="M 4510,1350 L 4510,1450 L 4635,1450 L 4805,1450 L 4930,1450 L 4930,1350 L 4805,1350 L 4635,1350 Z" /><path d="M 3650,1160 L 3650,1260 L 3855,1260 L 4025,1260 L 4070,1260 L 4070,1160 L 4025,1160 L 3855,1160 Z" /><path d="M 4510,1920 L 4510,2020 L 4635,2020 L 4805,2020 L 4930,2020 L 4930,1920 L 4805,1920 L 4635,1920 Z" /><path d="M 3855,2110 L 3855,2210 L 4025,2210 L 4275,2210 L 4275,2110 L 4025,2110 Z" /><path d="M 6200,500 L 6100,500 L 6100,740 L 6100,920 L 6200,920 L 6200,740 Z" /><path d="M 5160,500 L 5060,500 L 5060,740 L 5060,920 L 5160,920 L 5160,740 Z" /><path d="M 4380,500 L 4280,500 L 4280,740 L 4280,920 L 4380,920 L 4380,740 Z" /><path d="M 6100,2450 L 6100,2630 L 6100,2870 L 6200,2870 L 6200,2630 L 6200,2450 Z" /><path d="M 5060,2450 L 5060,2630 L 5060,2870 L 5160,2870 L 5160,2630 L 5160,2450 Z" /><path d="M 4280,2450 L 4280,2630 L 4280,2870 L 4380,2870 L 4380,2630 L 4380,2450 Z" /><path d="M 1070,3250 L 3670,3250 L 3690,3250 L 6290,3250 L 6290,3060 L 5680,3060 L 5680,2530 L 5680,2455 L 5580,2455 L 5580,2530 L 5580,3060 L 4640,3060 L 4640,2530 L 4640,2455 L 4540,2455 L 4540,2530 L 4540,3060 L 3860,3060 L 3860,2530 L 3860,2455 L 3760,2455 L 3760,2530 L 3760,3060 L 3690,3060 L 3670,3060 L 3080,3060 L 3080,2530 L 3080,2455 L 2980,2455 L 2980,2530 L 2980,3060 L 2040,3060 L 2040,2530 L 2040,2455 L 1940,2455 L 1940,2530 L 1940,3060 L 1260,3060 L 1260,2530 L 1260,2455 L 1160,2455 L 1160,2530 L 1160,3060 L 1070,3060 L 1000,3060 L 1000,2530 L 1000,2395 L 900,2395 L 900,2530 L 900,3060 L 480,3060 L 480,2530 L 480,2395 L 380,2395 L 380,2530 L 380,3060 L 290,3060 L 290,3250 Z" /><path d="M 290,120 L 290,310 L 380,310 L 380,840 L 380,975 L 480,975 L 480,840 L 480,310 L 1070,310 L 1160,310 L 1160,840 L 1160,915 L 1260,915 L 1260,840 L 1260,310 L 1940,310 L 1940,840 L 1940,915 L 2040,915 L 2040,840 L 2040,310 L 2980,310 L 2980,840 L 2980,915 L 3080,915 L 3080,840 L 3080,310 L 3670,310 L 3690,310 L 3760,310 L 3760,840 L 3760,915 L 3860,915 L 3860,840 L 3860,310 L 4540,310 L 4540,840 L 4540,915 L 4640,915 L 4640,840 L 4640,310 L 5580,310 L 5580,840 L 5580,915 L 5680,915 L 5680,840 L 5680,310 L 6290,310 L 6290,120 L 3690,120 L 3670,120 L 1070,120 Z" /><path d="M 2690,1160 L 2690,1260 L 2815,1260 L 2985,1260 L 3110,1260 L 3110,1160 L 2985,1160 L 2815,1160 Z" /><path d="M 2950,1350 L 2950,1450 L 3075,1450 L 3245,1450 L 3370,1450 L 3370,1350 L 3245,1350 L 3075,1350 Z" /><path d="M 2950,1920 L 2950,2020 L 3075,2020 L 3245,2020 L 3370,2020 L 3370,1920 L 3245,1920 L 3075,1920 Z" /><path d="M 2690,2110 L 2690,2210 L 2815,2210 L 2985,2210 L 3110,2210 L 3110,2110 L 2985,2110 L 2815,2110 Z" /><path d="M 1910,1350 L 1910,1450 L 2035,1450 L 2205,1450 L 2330,1450 L 2330,1350 L 2205,1350 L 2035,1350 Z" /><path d="M 1050,1160 L 1050,1260 L 1255,1260 L 1425,1260 L 1470,1260 L 1470,1160 L 1425,1160 L 1255,1160 Z" /><path d="M 1910,1920 L 1910,2020 L 2035,2020 L 2205,2020 L 2330,2020 L 2330,1920 L 2205,1920 L 2035,1920 Z" /><path d="M 1255,2110 L 1255,2210 L 1425,2210 L 1675,2210 L 1675,2110 L 1425,2110 Z" /><path d="M 3600,500 L 3500,500 L 3500,740 L 3500,920 L 3600,920 L 3600,740 Z" /><path d="M 2560,500 L 2460,500 L 2460,740 L 2460,920 L 2560,920 L 2560,740 Z" /><path d="M 1780,500 L 1680,500 L 1680,740 L 1680,920 L 1780,920 L 1780,740 Z" /><path d="M 3500,2450 L 3500,2630 L 3500,2870 L 3600,2870 L 3600,2630 L 3600,2450 Z" /><path d="M 2460,2450 L 2460,2630 L 2460,2870 L 2560,2870 L 2560,2630 L 2560,2450 Z" /><path d="M 1680,2450 L 1680,2630 L 1680,2870 L 1780,2870 L 1780,2630 L 1780,2450 Z" /><path d="M 3640,1730 L 3600,1730 L 3550,1730 L 3460,1730 L 2600,1730 L 2510,1730 L 2420,1730 L 1820,1730 L 1730,1730 L 1640,1730 L 1640,1830 L 1730,1830 L 1820,1830 L 2420,1830 L 2510,1830 L 2600,1830 L 3460,1830 L 3550,1830 L 3600,1830 L 3640,1830 L 3760,1830 L 3860,1830 L 3860,1730 L 3860,1640 L 4115,1640 L 4150,1640 L 4200,1640 L 4285,1640 L 4375,1640 L 4460,1640 L 4545,1640 L 4895,1640 L 4980,1640 L 5065,1640 L 5155,1640 L 5240,1640 L 5325,1640 L 5935,1640 L 6020,1640 L 6105,1640 L 6105,1540 L 6020,1540 L 5935,1540 L 5325,1540 L 5240,1540 L 5155,1540 L 5065,1540 L 4980,1540 L 4895,1540 L 4545,1540 L 4460,1540 L 4375,1540 L 4285,1540 L 4200,1540 L 4150,1540 L 4115,1540 L 3860,1540 L 3760,1540 L 3760,1640 L 3760,1730 Z" /><path d="M 1000,560 L 900,560 L 900,800 L 900,980 L 1000,980 L 1000,800 Z" /><path d="M 640,2390 L 640,2570 L 640,2810 L 740,2810 L 740,2570 L 740,2390 Z" /><path d="M 475,1350 L 475,1450 L 645,1450 L 895,1450 L 895,1350 L 645,1350 Z" /><path d="M 6060,1730 L 5200,1730 L 5110,1730 L 5020,1730 L 4420,1730 L 4330,1730 L 4240,1730 L 4240,1830 L 4330,1830 L 4420,1830 L 5020,1830 L 5110,1830 L 5200,1830 L 6060,1830 L 6100,1830 L 6150,1830 L 6240,1830 L 6240,1730 L 6150,1730 L 6100,1730 Z" /><path d="M 1120,1830 L 1210,1830 L 1300,1830 L 1300,1730 L 1210,1730 L 1120,1730 L 905,1730 L 820,1730 L 735,1730 L 735,1830 L 820,1830 L 905,1830 Z" /><path d="M 820,1640 L 860,1640 L 1040,1640 L 1515,1640 L 1550,1640 L 1600,1640 L 1685,1640 L 1775,1640 L 1860,1640 L 1945,1640 L 2295,1640 L 2380,1640 L 2465,1640 L 2555,1640 L 2640,1640 L 2725,1640 L 3335,1640 L 3420,1640 L 3505,1640 L 3505,1540 L 3420,1540 L 3335,1540 L 2725,1540 L 2640,1540 L 2555,1540 L 2465,1540 L 2380,1540 L 2295,1540 L 1945,1540 L 1860,1540 L 1775,1540 L 1685,1540 L 1600,1540 L 1550,1540 L 1515,1540 L 1040,1540 L 860,1540 L 820,1540 Z" /></g></g><g id="VIA1"><g class="l51d0"><path d="M 6100,780 L 6200,780 L 6200,880 L 6100,880 Z" /><path d="M 5060,780 L 5160,780 L 5160,880 L 5060,880 Z" /><path d="M 4280,780 L 4380,780 L 4380,880 L 4280,880 Z" /><path d="M 6100,2490 L 6200,2490 L 6200,2590 L 6100,2590 Z" /><path d="M 5060,2490 L 5160,2490 L 5160,2590 L 5060,2590 Z" /><path d="M 4280,2490 L 4380,2490 L 4380,2590 L 4280,2590 Z" /><path d="M 6100,1730 L 6200,1730 L 6200,1830 L 6100,1830 Z" /><path d="M 4280,1730 L 4380,1730 L 4380,1830 L 4280,1830 Z" /><path d="M 3500,780 L 3600,780 L 3600,880 L 3500,880 Z" /><path d="M 2460,780 L 2560,780 L 2560,880 L 2460,880 Z" /><path d="M 1680,780 L 1780,780 L 1780,880 L 1680,880 Z" /><path d="M 3500,2490 L 3600,2490 L 3600,2590 L 3500,2590 Z" /><path d="M 2460,2490 L 2560,2490 L 2560,2590 L 2460,2590 Z" /><path d="M 1680,2490 L 1780,2490 L 1780,2590 L 1680,2590 Z" /><path d="M 3500,1730 L 3600,1730 L 3600,1830 L 3500,1830 Z" /><path d="M 2460,1730 L 2560,1730 L 2560,1830 L 2460,1830 Z" /><path d="M 1680,1730 L 1780,1730 L 1780,1830 L 1680,1830 Z" /><path d="M 900,840 L 1000,840 L 1000,940 L 900,940 Z" /><path d="M 640,2430 L 740,2430 L 740,2530 L 640,2530 Z" /><path d="M 5060,1730 L 5060,1830 L 5160,1830 L 5160,1730 Z" /><path d="M 1160,1730 L 1260,1730 L 1260,1830 L 1160,1830 Z" /><path d="M 900,1540 L 1000,1540 L 1000,1640 L 900,1640 Z" /></g></g><g id="M2"><g class="l32d0"><path d="M 6200,1870 L 6200,1690 L 6200,920 L 6200,830 L 6200,740 L 6100,740 L 6100,830 L 6100,920 L 6100,1690 L 6100,1870 L 6100,2450 L 6100,2540 L 6100,2630 L 6200,2630 L 6200,2540 L 6200,2450 Z" /><path d="M 4380,1870 L 4380,1690 L 4380,920 L 4380,830 L 4380,740 L 4280,740 L 4280,830 L 4280,920 L 4280,1690 L 4280,1870 L 4280,2450 L 4280,2540 L 4280,2630 L 4380,2630 L 4380,2540 L 4380,2450 Z" /><path d="M 3600,1870 L 3600,1690 L 3600,920 L 3600,830 L 3600,740 L 3500,740 L 3500,830 L 3500,920 L 3500,1690 L 3500,1870 L 3500,2450 L 3500,2540 L 3500,2630 L 3600,2630 L 3600,2540 L 3600,2450 Z" /><path d="M 2560,1870 L 2560,1690 L 2560,920 L 2560,830 L 2560,740 L 2460,740 L 2460,830 L 2460,920 L 2460,1690 L 2460,1870 L 2460,2450 L 2460,2540 L 2460,2630 L 2560,2630 L 2560,2540 L 2560,2450 Z" /><path d="M 1780,1870 L 1780,1690 L 1780,920 L 1780,830 L 1780,740 L 1680,740 L 1680,830 L 1680,920 L 1680,1690 L 1680,1870 L 1680,2450 L 1680,2540 L 1680,2630 L 1780,2630 L 1780,2540 L 1780,2450 Z" /><path d="M 1000,1500 L 1000,980 L 1000,890 L 1000,800 L 900,800 L 900,890 L 900,980 L 900,1500 L 900,1590 L 900,1640 L 900,1680 L 900,2430 L 780,2430 L 690,2430 L 600,2430 L 600,2530 L 690,2530 L 780,2530 L 900,2530 L 1000,2530 L 1000,2430 L 1000,1680 L 1000,1640 L 1000,1590 Z" /><path d="M 5160,920 L 5160,830 L 5160,740 L 5060,740 L 5060,830 L 5060,920 L 5060,1690 L 5060,1695 L 5060,1870 L 5060,1875 L 5060,2450 L 5060,2540 L 5060,2630 L 5160,2630 L 5160,2540 L 5160,2450 L 5160,1875 L 5160,1870 L 5160,1695 L 5160,1690 Z" /><path d="M 1160,1690 L 1160,1695 L 1160,1870 L 1160,1875 L 1160,2210 L 1260,2210 L 1260,1875 L 1260,1870 L 1260,1695 L 1260,1690 Z" /></g></g><g id="VIA2"><g class="l52d0"><path d="M 5060,1735 L 5160,1735 L 5160,1835 L 5060,1835 Z" /><path d="M 1160,1735 L 1260,1735 L 1260,1835 L 1160,1835 Z" /></g></g><g id="M3"><g class="l33d0"><path d="M 1300,1835 L 5020,1835 L 5110,1835 L 5200,1835 L 5200,1735 L 5110,1735 L 5020,1735 L 1300,1735 L 1210,1735 L 1120,1735 L 1120,1835 L 1210,1835 Z" /></g></g></g></svg>